<svg width="118" height="81" viewBox="0 0 118 81" fill="none" xmlns="http://www.w3.org/2000/svg">
<g clip-path="url(#clip0_2589_24045)">
<path d="M105.884 35.4224H103.181V71.0242H95.7981V56.6827H93.0952V71.0242H85.7123V42.5554H83.0095V71.0242H75.6266V51.459H72.9237V71.0242H65.5475V60.4193H62.8446V71.0242H58.1646V73.5825H110.564V71.0242H105.884V35.4224Z" fill="#582689"/>
<path d="M113.047 0.658691H4.95304C3.63997 0.660359 2.38117 1.15482 1.45269 2.03364C0.5242 2.91247 0.00180157 4.10394 4.02331e-05 5.34678V75.9706C-0.00258761 76.5881 0.123538 77.2001 0.371191 77.7714C0.618844 78.3427 0.983158 78.8622 1.44326 79.3C1.90337 79.7379 2.45022 80.0855 3.05249 80.3229C3.65476 80.5604 4.30061 80.6831 4.95304 80.6839H113.047C114.36 80.6822 115.619 80.1878 116.547 79.309C117.476 78.4301 117.998 77.2387 118 75.9958V5.34678C117.998 4.10394 117.476 2.91247 116.547 2.03364C115.619 1.15482 114.36 0.660359 113.047 0.658691V0.658691ZM115.297 75.9706C115.295 76.535 115.058 77.0757 114.636 77.4748C114.215 77.8738 113.643 78.0987 113.047 78.1004H4.95304C4.35681 78.0987 3.78549 77.8738 3.36388 77.4748C2.94228 77.0757 2.70465 76.535 2.70289 75.9706V5.34678C2.70465 4.78243 2.94228 4.24168 3.36388 3.84262C3.78549 3.44356 4.35681 3.21864 4.95304 3.21698H113.047C113.643 3.21864 114.215 3.44356 114.636 3.84262C115.058 4.24168 115.295 4.78243 115.297 5.34678V75.9706Z" fill="#582689"/>
<path d="M109.212 11.0115H63.2107V13.5698H109.212V11.0115Z" fill="#582689"/>
<path d="M109.219 17.527H72.8638V20.0853H109.219V17.527Z" fill="#582689"/>
<path d="M37.5203 69.8585H9.63306V72.4167H37.5203V69.8585Z" fill="#582689"/>
<path d="M26.3162 62.3348H9.63306V64.8931H26.3162V62.3348Z" fill="#582689"/>
<path d="M37.2808 9.43627C37.1488 9.42679 37.0163 9.44441 36.8922 9.48791C36.7681 9.53141 36.6554 9.59977 36.5618 9.68832C36.4669 9.77483 36.3915 9.87859 36.34 9.99336C36.2885 10.1081 36.2621 10.2316 36.2622 10.3562V31.0935C36.2668 31.3309 36.3696 31.5571 36.5485 31.7236L51.5939 45.9706C51.7728 46.1349 52.0105 46.2293 52.2596 46.2353C52.5149 46.2213 52.7541 46.1126 52.9253 45.9328C56.254 42.4482 58.2511 36.9347 58.2511 31.5346C58.351 19.6379 49.1041 9.92776 37.2808 9.43627ZM52.2197 43.9479L38.2394 30.7154V11.3707C48.5049 12.3159 56.4071 20.999 56.4071 31.5346C56.4004 36.0462 54.7827 40.7973 52.2197 43.9479Z" fill="#582689"/>
<path d="M34.7643 33.4249C34.5869 33.2585 34.3483 33.1636 34.0986 33.1602H12.1829C12.051 33.1594 11.9204 33.1841 11.799 33.2329C11.6777 33.2816 11.5681 33.3534 11.4772 33.4438C11.3859 33.5352 11.3152 33.6432 11.2694 33.7613C11.2236 33.8794 11.2037 34.005 11.2109 34.1306C11.8167 44.6095 22.941 54.1495 34.5513 54.1495C40.1234 54.1495 46.1083 52.1331 49.7897 49.0141C49.9797 48.852 50.0945 48.6256 50.1093 48.3839C50.1149 48.2593 50.0929 48.135 50.0448 48.0188C49.9966 47.9027 49.9234 47.7974 49.8297 47.7097L34.7643 33.4249ZM34.5513 52.3285C24.2658 52.3285 14.3997 44.1936 13.248 35.0191H33.6725L47.6994 48.2516C43.8793 50.8865 39.2781 52.3132 34.5513 52.3285Z" fill="#582689"/>
<path d="M15.678 31.1754C15.8535 31.3453 16.0927 31.4426 16.3437 31.4464C16.5337 31.4405 16.7178 31.3823 16.8735 31.279C17.0292 31.1757 17.1497 31.0317 17.2203 30.8646C17.291 30.6975 17.3086 30.5145 17.2712 30.3381C17.2337 30.1617 17.1428 29.9994 17.0094 29.8711L13.6808 26.7205C13.4981 26.5475 13.2502 26.4503 12.9918 26.4503C12.7333 26.4503 12.4855 26.5475 12.3027 26.7205C12.12 26.8934 12.0173 27.128 12.0173 27.3726C12.0173 27.6172 12.12 27.8518 12.3027 28.0248L15.678 31.1754Z" fill="#582689"/>
<path d="M21.8892 30.9486C22.0677 31.1133 22.3056 31.2079 22.5549 31.2132C22.7518 31.2245 22.9476 31.1787 23.1164 31.0821C23.2852 30.9855 23.4189 30.8426 23.4998 30.6723C23.5808 30.502 23.605 30.3125 23.5694 30.1289C23.5338 29.9452 23.44 29.7762 23.3005 29.6442L15.5781 22.3663C15.3962 22.1934 15.1492 22.0959 14.8914 22.0953C14.6336 22.0947 14.3861 22.1911 14.2034 22.3632C14.0206 22.5353 13.9176 22.7691 13.917 23.0131C13.9164 23.2572 14.0182 23.4914 14.2 23.6644L21.8892 30.9486Z" fill="#582689"/>
<path d="M28.3199 30.7532C28.4978 30.9198 28.7355 31.0166 28.9856 31.0242C29.1757 31.0183 29.3598 30.9601 29.5154 30.8568C29.6711 30.7535 29.7916 30.6095 29.8623 30.4424C29.9329 30.2753 29.9505 30.0924 29.9131 29.9159C29.8756 29.7395 29.7847 29.5772 29.6513 29.4489L18.3207 18.6738C18.1379 18.5009 17.8901 18.4037 17.6317 18.4037C17.3732 18.4037 17.1254 18.5009 16.9426 18.6738C16.7599 18.8468 16.6572 19.0814 16.6572 19.326C16.6572 19.5706 16.7599 19.8052 16.9426 19.9782L28.3199 30.7532Z" fill="#582689"/>
<path d="M32.3077 28.1445C32.4905 28.3175 32.7383 28.4146 32.9967 28.4146C33.2552 28.4146 33.503 28.3175 33.6858 28.1445C33.8685 27.9715 33.9712 27.7369 33.9712 27.4923C33.9712 27.2477 33.8685 27.0131 33.6858 26.8401L21.6694 15.498C21.4875 15.325 21.2405 15.2275 20.9827 15.2269C20.7249 15.2263 20.4774 15.3227 20.2947 15.4948C20.1119 15.667 20.0089 15.9008 20.0083 16.1448C20.0077 16.3888 20.1095 16.6231 20.2914 16.796L32.3077 28.1445Z" fill="#582689"/>
<path d="M32.5074 22.0135C32.5977 22.0994 32.7051 22.1676 32.8233 22.2141C32.9416 22.2606 33.0684 22.2846 33.1964 22.2846C33.3245 22.2846 33.4513 22.2606 33.5695 22.2141C33.6878 22.1676 33.7951 22.0994 33.8855 22.0135C34.0672 21.84 34.1691 21.6056 34.1691 21.3613C34.1691 21.117 34.0672 20.8826 33.8855 20.7091L25.4374 12.7129C25.3469 12.6272 25.2395 12.5593 25.1213 12.513C25.003 12.4666 24.8763 12.4427 24.7484 12.4427C24.6204 12.4427 24.4937 12.4666 24.3755 12.513C24.2572 12.5593 24.1498 12.6272 24.0593 12.7129C23.9688 12.7985 23.8971 12.9002 23.8481 13.0121C23.7991 13.124 23.7739 13.2439 23.7739 13.3651C23.7739 13.4862 23.7991 13.6061 23.8481 13.718C23.8971 13.8299 23.9688 13.9316 24.0593 14.0172L32.5074 22.0135Z" fill="#582689"/>
<path d="M32.7405 16.1407C32.916 16.3106 33.1552 16.4079 33.4062 16.4117C33.5963 16.4074 33.7809 16.3505 33.9371 16.248C34.0934 16.1455 34.2144 16.0018 34.2853 15.8348C34.3562 15.6678 34.3737 15.4848 34.3358 15.3085C34.2979 15.1321 34.2061 14.9702 34.0719 14.8427L29.798 10.7973C29.6152 10.6243 29.3674 10.5272 29.109 10.5272C28.8505 10.5272 28.6027 10.6243 28.4199 10.7973C28.2372 10.9703 28.1345 11.2049 28.1345 11.4495C28.1345 11.6941 28.2372 11.9287 28.4199 12.1016L32.7405 16.1407Z" fill="#582689"/>
</g>
<defs>
<clipPath id="clip0_2589_24045">
<rect width="118" height="80" fill="white" transform="translate(0 0.658691)"/>
</clipPath>
</defs>
</svg>
