<svg width="90" height="90" viewBox="0 0 90 90" fill="none" xmlns="http://www.w3.org/2000/svg">
<g clip-path="url(#clip0_2589_23981)">
<path d="M47.7396 35.8889C49.4767 35.8889 50.8896 37.7326 50.8896 39.9982C50.9121 40.3408 51.0643 40.6621 51.3154 40.8969C51.5665 41.1316 51.8976 41.2622 52.2417 41.2622C52.5857 41.2622 52.9169 41.1316 53.1679 40.8969C53.419 40.6621 53.5713 40.3408 53.5938 39.9982C53.5938 36.2414 50.9707 33.1898 47.7396 33.1898H46.3325V31.219C46.3325 30.8618 46.1903 30.5193 45.9373 30.2667C45.6843 30.0142 45.3411 29.8723 44.9833 29.8723C44.6254 29.8723 44.2823 30.0142 44.0293 30.2667C43.7762 30.5193 43.6341 30.8618 43.6341 31.219V33.1898H42.227C39.0017 33.1898 36.3786 36.2414 36.3786 39.9982C36.3786 43.7549 39.0017 46.8008 42.227 46.8008H43.6341V55.0136H42.227C40.4898 55.0136 39.0712 53.1699 39.0712 50.9043C39.0712 50.5471 38.929 50.2046 38.676 49.952C38.423 49.6995 38.0798 49.5576 37.722 49.5576C37.3642 49.5576 37.021 49.6995 36.768 49.952C36.5149 50.2046 36.3728 50.5471 36.3728 50.9043C36.3728 54.6552 39.0017 57.7068 42.227 57.7068H43.6341V59.6835C43.6341 60.0406 43.7762 60.3831 44.0293 60.6357C44.2823 60.8882 44.6254 61.0301 44.9833 61.0301C45.3411 61.0301 45.6843 60.8882 45.9373 60.6357C46.1903 60.3831 46.3325 60.0406 46.3325 59.6835V57.7068H47.7396C50.9707 57.7068 53.5938 54.6552 53.5938 50.9043C53.5938 47.1533 50.9707 44.1017 47.7396 44.1017H46.3325V35.8889H47.7396ZM43.6341 44.1017H42.227C40.4898 44.1017 39.0712 42.258 39.0712 39.9982C39.0712 37.7383 40.4898 35.8889 42.227 35.8889H43.6341V44.1017ZM47.7396 46.8008C49.4767 46.8008 50.8896 48.6387 50.8896 50.9043C50.8896 53.1699 49.4767 55.0136 47.7396 55.0136H46.3325V46.8008H47.7396Z" fill="#582689"/>
<path d="M89.2631 41.0385C88.2923 30.8863 83.8328 21.3818 76.6412 14.1374C69.4496 6.89293 59.9687 2.35459 49.8066 1.29219C49.634 1.1748 49.4352 1.10139 49.2276 1.07834C46.4044 0.809294 43.5619 0.809294 40.7387 1.07834C40.5152 1.10658 40.3022 1.19001 40.1191 1.32109C29.9942 2.44594 20.5606 6.9976 13.3881 14.2186C6.21566 21.4396 1.73698 30.8944 0.697409 41.0096C0.697409 41.0096 0.697409 41.0096 0.697409 41.0442C0.548056 42.5075 0.474612 43.9775 0.47737 45.4483C0.47737 46.766 0.546856 48.0722 0.662666 49.3669C0.659888 49.4169 0.659888 49.4671 0.662666 49.5171C1.70353 60.5241 6.82031 70.7479 15.0125 78.1892C23.2047 85.6305 33.8832 89.7544 44.96 89.7544C56.0368 89.7544 66.7153 85.6305 74.9075 78.1892C83.0997 70.7479 88.2165 60.5241 89.2573 49.5171C89.3789 48.1878 89.4426 46.8181 89.4426 45.4714C89.4473 44.0007 89.3758 42.5307 89.2284 41.0674L89.2631 41.0385ZM42.2153 3.82943C43.1302 3.7543 44.0509 3.7543 44.9774 3.7543C45.9038 3.7543 46.8245 3.82365 47.7394 3.88145V9.08308C47.7407 9.44487 47.6691 9.80321 47.5288 10.1368C47.3885 10.4704 47.1825 10.7725 46.923 11.025C46.669 11.2828 46.3661 11.4875 46.0321 11.6274C45.6981 11.7673 45.3396 11.8396 44.9774 11.84C44.2453 11.8384 43.5436 11.5475 43.026 11.0308C42.5083 10.5141 42.2168 9.81378 42.2153 9.08308V3.82943ZM3.25681 47.9046C3.21049 47.0897 3.18153 46.269 3.18153 45.4483C3.18153 44.6276 3.21628 43.7607 3.2626 42.9515C3.2626 42.8128 3.2626 42.6683 3.29155 42.5296H8.65356C9.01544 42.5265 9.37416 42.5971 9.70772 42.7373C10.0413 42.8774 10.3427 43.084 10.5934 43.3445C10.8527 43.5963 11.0591 43.8973 11.2003 44.2298C11.3415 44.5623 11.4147 44.9196 11.4156 45.2807C11.4141 46.0114 11.1226 46.7117 10.6049 47.2284C10.0873 47.7451 9.38563 48.036 8.65356 48.0376H3.26839C3.2626 47.9913 3.2626 47.9509 3.25681 47.9046ZM47.7394 86.9053C45.9 87.0241 44.0548 87.0241 42.2153 86.9053V81.5188C42.2138 80.9723 42.3757 80.4378 42.6804 79.9837C42.9851 79.5296 43.4186 79.1766 43.9254 78.9699C44.4323 78.7632 44.9894 78.7122 45.5255 78.8234C46.0616 78.9346 46.5522 79.203 46.9346 79.5942C47.191 79.8448 47.3943 80.1444 47.5326 80.475C47.6708 80.8056 47.7412 81.1605 47.7394 81.5188V86.9053ZM50.4378 86.7782V81.5361C50.4425 80.8203 50.3023 80.1109 50.0257 79.4505C49.7491 78.7901 49.3418 78.1922 48.828 77.6927C48.0677 76.9261 47.096 76.4029 46.0367 76.1895C44.9774 75.9761 43.8784 76.0823 42.8798 76.4945C41.8812 76.9067 41.0281 77.6063 40.4292 78.5042C39.8303 79.402 39.5127 80.4575 39.5169 81.5361V86.8013C30.3771 85.5832 21.8956 81.3882 15.3886 74.8673C8.88149 68.3463 4.71266 59.864 3.52896 50.7366H8.65356C10.1018 50.7336 11.4898 50.1576 12.5133 49.1349C13.5369 48.1122 14.1125 46.7262 14.114 45.2807C14.1152 44.5687 13.9751 43.8635 13.7018 43.2058C13.4285 42.5481 13.0274 41.951 12.5216 41.4488C12.0195 40.9327 11.418 40.5233 10.7533 40.2451C10.0885 39.967 9.37431 39.826 8.65356 39.8305H3.5695C4.81551 30.7675 9.00718 22.3632 15.501 15.9077C21.9948 9.45221 30.4319 5.30238 39.5169 4.09529V9.02529C39.516 10.1017 39.8348 11.1543 40.433 12.0499C41.0312 12.9456 41.882 13.6441 42.8779 14.0573C43.8737 14.4705 44.9699 14.5798 46.028 14.3713C47.086 14.1628 48.0584 13.646 48.8223 12.8861C49.3375 12.3838 49.7461 11.7831 50.0237 11.1198C50.3013 10.4565 50.4421 9.74413 50.4378 9.02529V4.11841C59.5436 5.26917 68.0113 9.39717 74.5187 15.8578C81.0262 22.3185 85.207 30.7482 86.4084 39.8305H81.307C80.5887 39.8241 79.8766 39.9631 79.2137 40.2393C78.5508 40.5155 77.951 40.923 77.4505 41.4373C76.941 41.9399 76.5364 42.5384 76.2601 43.1981C75.9838 43.8578 75.8412 44.5657 75.8407 45.2807C75.8423 46.7272 76.4187 48.1141 77.4434 49.1369C78.4682 50.1598 79.8577 50.7351 81.307 50.7366H86.4373C85.3131 59.8869 81.1615 68.401 74.6404 74.9297C68.1194 81.4584 59.6019 85.6281 50.4378 86.7782ZM86.6921 48.0549H81.307C80.7589 48.0576 80.2226 47.8967 79.7668 47.5931C79.3109 47.2895 78.9564 46.8568 78.7486 46.3507C78.5407 45.8445 78.4892 45.2879 78.6004 44.7523C78.7116 44.2167 78.9807 43.7265 79.3729 43.3445C79.6249 43.0884 79.926 42.8857 80.2584 42.7487C80.5907 42.6116 80.9474 42.543 81.307 42.5469H86.6805C86.7442 43.4775 86.779 44.4426 86.779 45.4367C86.7558 46.3152 86.7558 47.1822 86.6921 48.0376V48.0549Z" fill="#582689"/>
<path d="M67.3114 21.2607L56.6453 31.9183C56.3919 32.1712 56.2495 32.5142 56.2495 32.8719C56.2495 33.2296 56.3919 33.5726 56.6453 33.8255C56.8987 34.0784 57.2423 34.2205 57.6007 34.2205C57.9591 34.2205 58.3027 34.0784 58.5561 33.8255L69.228 23.168C69.3552 23.0435 69.4564 22.8951 69.5259 22.7314C69.5953 22.5677 69.6316 22.3918 69.6326 22.2141C69.6336 22.0363 69.5993 21.8601 69.5318 21.6956C69.4642 21.5311 69.3647 21.3815 69.2389 21.2556C69.1131 21.1297 68.9636 21.0299 68.799 20.962C68.6344 20.894 68.458 20.8593 68.2799 20.8598C68.1017 20.8602 67.9255 20.8959 67.7612 20.9647C67.597 21.0335 67.448 21.1341 67.3229 21.2607H67.3114Z" fill="#582689"/>
<path d="M30.3274 28.9129C30.2019 28.7876 30.0529 28.6883 29.889 28.6205C29.7251 28.5527 29.5494 28.5179 29.3719 28.5179C29.1945 28.5179 29.0188 28.5527 28.8549 28.6205C28.6909 28.6883 28.542 28.7876 28.4165 28.9129C28.291 29.0381 28.1915 29.1868 28.1236 29.3504C28.0557 29.514 28.0208 29.6894 28.0208 29.8665C28.0208 30.0436 28.0557 30.219 28.1236 30.3826C28.1915 30.5462 28.291 30.6949 28.4165 30.8201L31.746 34.1665C31.9994 34.4194 32.3431 34.5615 32.7015 34.5615C33.0598 34.5615 33.4035 34.4194 33.6569 34.1665C33.9103 33.9136 34.0527 33.5706 34.0527 33.2129C34.0527 32.8552 33.9103 32.5122 33.6569 32.2592L30.3274 28.9129Z" fill="#582689"/>
</g>
<defs>
<clipPath id="clip0_2589_23981">
<rect width="89" height="89" fill="white" transform="translate(0.477295 0.864502)"/>
</clipPath>
</defs>
</svg>
