<svg width="135" height="91" viewBox="0 0 135 91" fill="none" xmlns="http://www.w3.org/2000/svg">
<g clip-path="url(#clip0_2589_24026)">
<path d="M22.0318 14.6704C22.1676 14.5421 22.2766 14.3879 22.3526 14.2167C22.4285 14.0454 22.4697 13.8607 22.474 13.6732V9.18263L40.7396 23.5136L22.474 37.8384V32.1185C22.474 31.7443 22.3263 31.3853 22.0636 31.1207C21.8008 30.856 21.4444 30.7074 21.0727 30.7074H16.1591V33.5297H19.6404V40.7234C19.6442 40.9849 19.7194 41.2403 19.8578 41.4616C19.9962 41.6828 20.1925 41.8614 20.4251 41.9778C20.6197 42.0703 20.8326 42.1175 21.0478 42.1157C21.3588 42.1158 21.661 42.0121 21.9072 41.821L43.8908 24.6049C44.0579 24.4723 44.193 24.3032 44.2859 24.1104C44.3788 23.9175 44.427 23.706 44.427 23.4917C44.427 23.2774 44.3788 23.0659 44.2859 22.873C44.193 22.6802 44.0579 22.5111 43.8908 22.3785L21.901 5.18123C21.6938 5.01917 21.4455 4.91896 21.1845 4.89201C20.9235 4.86505 20.6603 4.91244 20.4247 5.02877C20.1891 5.14511 19.9907 5.32572 19.852 5.55004C19.7134 5.77436 19.64 6.03338 19.6404 6.29761V12.2809H11.0898V15.1032H21.0541C21.4239 15.0946 21.7754 14.939 22.0318 14.6704Z" fill="#582689"/>
<path d="M8.00105 12.2621H5.55981V15.0844H8.00105V12.2621Z" fill="#582689"/>
<path d="M3.11848 12.2621H0.677246V15.0844H3.11848V12.2621Z" fill="#582689"/>
<path d="M13.4999 30.7073H4.95557V33.5296H13.4999V30.7073Z" fill="#582689"/>
<path d="M115.708 54.5213C115.707 54.2576 115.633 53.9994 115.494 53.776C115.355 53.5526 115.156 53.373 114.921 53.2574C114.685 53.1418 114.423 53.095 114.162 53.1221C113.902 53.1493 113.654 53.2495 113.447 53.4112L91.4699 70.6084C91.3016 70.741 91.1655 70.9104 91.0719 71.1039C90.9783 71.2973 90.9297 71.5096 90.9297 71.7248C90.9297 71.94 90.9783 72.1523 91.0719 72.3458C91.1655 72.5392 91.3016 72.7086 91.4699 72.8412L113.447 90.0509C113.694 90.2421 113.996 90.3458 114.307 90.3457C114.522 90.3459 114.735 90.2966 114.929 90.2015C115.163 90.0863 115.36 89.9079 115.498 89.6864C115.637 89.4649 115.712 89.2089 115.714 88.9471V82.9826H118.629V80.1604H114.313C113.941 80.1604 113.585 80.309 113.322 80.5737C113.059 80.8383 112.912 81.1972 112.912 81.5715V86.0621L94.6149 71.7374L112.905 57.4377V63.1638C112.905 63.5381 113.053 63.897 113.316 64.1617C113.579 64.4263 113.935 64.575 114.307 64.575H124.508V61.7527H115.708V54.5213Z" fill="#582689"/>
<path d="M129.789 61.5519H127.347V64.3742H129.789V61.5519Z" fill="#582689"/>
<path d="M134.671 61.5519H132.23V64.3742H134.671V61.5519Z" fill="#582689"/>
<path d="M96.2092 53.8063C97.7911 52.0252 104.641 41.683 106.603 37.0732L106.915 36.3269L106.435 35.6997C104.934 33.6614 101.173 32.1185 96.8756 33.122C92.7405 34.0941 90.3989 37.0921 88.0386 41.6265L80.609 45.5088C79.8528 44.7671 78.9537 44.1892 77.9673 43.8106C76.9809 43.432 75.928 43.2607 74.8734 43.3074H62.7295C61.9614 42.9387 61.2469 42.466 60.6059 41.9025C58.9742 40.6482 57.1246 39.2182 55.1567 39.2182H45.0119C41.8296 39.2182 38.1615 41.6265 35.9009 43.7213C33.6402 45.8161 30.4019 49.115 28.6581 50.7833L24.716 46.7757L12.5908 58.9994L36.8786 83.4593L49.0225 71.2356L46.9923 69.191C47.5847 68.7347 48.322 68.5117 49.0661 68.5638H78.9587C82.2594 68.5826 96.0785 53.9569 96.2092 53.8063ZM36.891 79.483L16.5516 58.9994L24.716 50.7771L45.0555 71.2356L36.891 79.483ZM78.8528 65.7603H49.0661C47.5766 65.698 46.1212 66.2195 45.0057 67.2154L30.6447 52.7527C32.4009 51.0656 35.7202 47.867 37.8501 45.7283C39.7495 43.9408 42.8322 42.0154 45.0119 42.0154H55.1567C56.178 42.0154 57.6851 43.1819 58.8933 44.1164C60.2758 45.1826 61.4653 46.1046 62.6921 46.1046H74.8672C78.1055 46.1046 79.5566 47.9861 79.5566 49.7987C79.5566 51.6112 78.1055 53.499 74.8672 53.499H56.6077V56.3213H74.8734C79.7932 56.3213 82.3465 53.0412 82.3465 49.7987C82.3433 49.1593 82.2404 48.5243 82.0414 47.9171L90.0999 43.7025L90.3055 43.3011C92.7965 38.4656 94.6648 36.5213 97.4921 35.8565C100.22 35.2293 102.474 35.9318 103.62 36.8161C101.409 41.3945 95.437 50.4258 94.1043 51.9311C91.6008 54.791 80.964 65.1394 78.8528 65.7603Z" fill="#582689"/>
<path d="M25.7082 58.0036L23.7266 59.9993L27.7867 64.0882L29.7683 62.0925L25.7082 58.0036Z" fill="#582689"/>
<path d="M55.5925 17.4927C57.2753 17.494 58.9206 16.9926 60.3204 16.052C61.7202 15.1113 62.8115 13.7737 63.4563 12.2084C64.1012 10.643 64.2705 8.92025 63.943 7.25796C63.6155 5.59566 62.8057 4.06854 61.6163 2.86976C60.4268 1.67098 58.911 0.854404 57.2607 0.523326C55.6103 0.192249 53.8995 0.361542 52.3447 1.00979C50.7899 1.65804 49.4609 2.75612 48.5259 4.16514C47.5909 5.57415 47.0918 7.23079 47.0918 8.92549C47.0951 11.1956 47.9916 13.3718 49.5849 14.9776C51.1782 16.5834 53.3384 17.4878 55.5925 17.4927ZM55.5925 3.18682C56.7205 3.1893 57.8224 3.5285 58.759 4.16155C59.6956 4.79459 60.4248 5.69307 60.8545 6.7434C61.2842 7.79373 61.395 8.94877 61.173 10.0625C60.951 11.1763 60.4061 12.1987 59.6071 13.0007C58.8082 13.8026 57.7912 14.348 56.6846 14.568C55.5779 14.7879 54.4314 14.6725 53.3899 14.2364C52.3483 13.8002 51.4586 13.0629 50.833 12.1176C50.2075 11.1723 49.8743 10.0615 49.8755 8.92549C49.8788 7.40126 50.4828 5.94069 51.5548 4.86466C52.6267 3.78863 54.079 3.18515 55.5925 3.18682Z" fill="#582689"/>
<path d="M67.3877 27.3331C67.3877 29.0263 67.8863 30.6815 68.8203 32.0894C69.7544 33.4972 71.082 34.5945 72.6353 35.2424C74.1886 35.8904 75.8978 36.0599 77.5468 35.7296C79.1958 35.3993 80.7105 34.5839 81.8993 33.3867C83.0882 32.1894 83.8978 30.664 84.2258 29.0033C84.5538 27.3426 84.3855 25.6213 83.7421 24.057C83.0987 22.4927 82.0091 21.1556 80.6112 20.2149C79.2132 19.2742 77.5697 18.7722 75.8884 18.7722C73.6349 18.7755 71.4746 19.6785 69.8811 21.2833C68.2877 22.888 67.391 25.0636 67.3877 27.3331ZM81.5867 27.3331C81.5867 28.4681 81.2525 29.5777 80.6264 30.5214C80.0002 31.4651 79.1103 32.2006 78.0691 32.635C77.0278 33.0693 75.8821 33.183 74.7767 32.9615C73.6714 32.7401 72.656 32.1936 71.8591 31.391C71.0622 30.5884 70.5195 29.5659 70.2996 28.4527C70.0798 27.3395 70.1926 26.1856 70.6239 25.137C71.0552 24.0884 71.7855 23.1922 72.7226 22.5616C73.6597 21.931 74.7614 21.5945 75.8884 21.5945C77.3992 21.5961 78.8476 22.2013 79.9159 23.2771C80.9842 24.353 81.5851 25.8117 81.5867 27.3331Z" fill="#582689"/>
<path d="M77.8459 0.881438L51.4658 33.5839L53.6409 35.3634L80.021 2.66101L77.8459 0.881438Z" fill="#582689"/>
</g>
<defs>
<clipPath id="clip0_2589_24026">
<rect width="134" height="90" fill="white" transform="translate(0.677246 0.364502)"/>
</clipPath>
</defs>
</svg>
