<svg width="104" height="71" viewBox="0 0 104 71" fill="none" xmlns="http://www.w3.org/2000/svg">
<g clip-path="url(#clip0_5593_31282)">
<path d="M93.1489 30.5391H90.7839V61.6906H84.3238V49.1418H81.9589V61.6906H75.4988V36.7804H73.1338V61.6906H66.6738V44.571H64.3088V61.6906H57.8546V52.4113H55.4896V61.6906H51.3945V63.9291H97.2439V61.6906H93.1489V30.5391Z" fill="#FE4817"/>
<path d="M99.4162 0.121094H4.83391C3.68497 0.122552 2.58353 0.555203 1.7711 1.32418C0.958675 2.09315 0.501576 3.13568 0.500035 4.22317V66.019C0.497736 66.5594 0.608096 67.0948 0.824792 67.5947C1.04149 68.0946 1.36026 68.5492 1.76285 68.9323C2.16544 69.3154 2.64394 69.6195 3.17093 69.8273C3.69791 70.0351 4.26303 70.1424 4.83391 70.1432H99.4162C100.565 70.1417 101.667 69.709 102.479 68.9401C103.291 68.1711 103.748 67.1286 103.75 66.0411V4.22317C103.748 3.13568 103.291 2.09315 102.479 1.32418C101.667 0.555203 100.565 0.122552 99.4162 0.121094V0.121094ZM101.385 66.019C101.384 66.5128 101.176 66.986 100.807 67.3352C100.438 67.6843 99.9379 67.8811 99.4162 67.8826H4.83391C4.31221 67.8811 3.8123 67.6843 3.4434 67.3352C3.07449 66.986 2.86656 66.5128 2.86503 66.019V4.22317C2.86656 3.72937 3.07449 3.2562 3.4434 2.90703C3.8123 2.55786 4.31221 2.36105 4.83391 2.35959H99.4162C99.9379 2.36105 100.438 2.55786 100.807 2.90703C101.176 3.2562 101.384 3.72937 101.385 4.22317V66.019Z" fill="#FE4817"/>
<path d="M96.0601 9.17969H55.8086V11.4182H96.0601V9.17969Z" fill="#FE4817"/>
<path d="M96.0668 14.8809H64.2559V17.1194H96.0668V14.8809Z" fill="#FE4817"/>
<path d="M33.3311 60.6699H8.92969V62.9084H33.3311V60.6699Z" fill="#FE4817"/>
<path d="M23.5274 54.0879H8.92969V56.3264H23.5274V54.0879Z" fill="#FE4817"/>
<path d="M33.1198 7.80101C33.0043 7.79272 32.8883 7.80813 32.7797 7.84619C32.6712 7.88426 32.5725 7.94407 32.4906 8.02155C32.4076 8.09725 32.3416 8.18804 32.2966 8.28846C32.2516 8.38889 32.2284 8.49689 32.2285 8.60599V26.7511C32.2326 26.9588 32.3225 27.1567 32.479 27.3024L45.6437 39.7686C45.8003 39.9123 46.0082 39.995 46.2262 40.0001C46.4496 39.9879 46.6589 39.8928 46.8088 39.7355C49.7213 36.6865 51.4688 31.8621 51.4688 27.137C51.5562 16.7274 43.4651 8.23107 33.1198 7.80101ZM46.1913 37.9987L33.9586 26.4203V9.49367C42.9409 10.3207 49.8553 17.9184 49.8553 27.137C49.8495 31.0847 48.434 35.2419 46.1913 37.9987Z" fill="#FE4817"/>
<path d="M30.9191 28.7921C30.7639 28.6465 30.5551 28.5635 30.3366 28.5606H11.1603C11.045 28.5598 10.9306 28.5814 10.8245 28.6241C10.7183 28.6668 10.6224 28.7296 10.5429 28.8087C10.4629 28.8886 10.4011 28.9831 10.361 29.0865C10.321 29.1898 10.3035 29.2998 10.3099 29.4097C10.8399 38.5787 20.5737 46.9262 30.7327 46.9262C35.6083 46.9262 40.8451 45.1619 44.0663 42.4327C44.2325 42.2908 44.333 42.0927 44.3459 41.8813C44.3509 41.7723 44.3316 41.6634 44.2895 41.5618C44.2474 41.4602 44.1833 41.3681 44.1013 41.2913L30.9191 28.7921ZM30.7327 45.3328C21.7329 45.3328 13.1001 38.2148 12.0923 30.1871H29.9638L42.2373 41.7655C38.8947 44.0711 34.8686 45.3194 30.7327 45.3328Z" fill="#FE4817"/>
<path d="M14.2187 26.8239C14.3722 26.9725 14.5816 27.0577 14.8012 27.061C14.9675 27.0558 15.1286 27.005 15.2648 26.9146C15.401 26.8241 15.5065 26.6981 15.5683 26.5519C15.63 26.4057 15.6455 26.2456 15.6127 26.0913C15.5799 25.9369 15.5004 25.7949 15.3837 25.6826L12.4712 22.9258C12.3113 22.7745 12.0944 22.6895 11.8683 22.6895C11.6421 22.6895 11.4253 22.7745 11.2654 22.9258C11.1055 23.0772 11.0156 23.2824 11.0156 23.4965C11.0156 23.7105 11.1055 23.9158 11.2654 24.0671L14.2187 26.8239Z" fill="#FE4817"/>
<path d="M19.6534 26.6255C19.8096 26.7697 20.0178 26.8525 20.2359 26.8571C20.4082 26.8669 20.5796 26.8269 20.7272 26.7424C20.8749 26.6579 20.9919 26.5328 21.0627 26.3838C21.1335 26.2348 21.1548 26.069 21.1236 25.9083C21.0925 25.7476 21.0104 25.5997 20.8883 25.4842L14.1312 19.1161C13.9721 18.9647 13.7559 18.8794 13.5304 18.8789C13.3048 18.8784 13.0882 18.9627 12.9283 19.1133C12.7684 19.2639 12.6783 19.4685 12.6777 19.682C12.6772 19.8956 12.7663 20.1005 12.9254 20.2519L19.6534 26.6255Z" fill="#FE4817"/>
<path d="M25.279 26.4543C25.4347 26.6 25.6427 26.6847 25.8616 26.6914C26.0278 26.6862 26.1889 26.6353 26.3252 26.5449C26.4614 26.4545 26.5668 26.3285 26.6286 26.1823C26.6904 26.0361 26.7059 25.876 26.6731 25.7216C26.6403 25.5673 26.5607 25.4252 26.4441 25.313L16.5297 15.8848C16.3698 15.7335 16.153 15.6484 15.9268 15.6484C15.7007 15.6484 15.4838 15.7335 15.3239 15.8848C15.164 16.0362 15.0742 16.2414 15.0742 16.4555C15.0742 16.6695 15.164 16.8748 15.3239 17.0261L25.279 26.4543Z" fill="#FE4817"/>
<path d="M28.7698 24.172C28.9297 24.3234 29.1466 24.4084 29.3727 24.4084C29.5988 24.4084 29.8157 24.3234 29.9756 24.172C30.1355 24.0207 30.2253 23.8154 30.2253 23.6014C30.2253 23.3873 30.1355 23.1821 29.9756 23.0307L19.4613 13.1063C19.3022 12.955 19.086 12.8697 18.8604 12.8691C18.6349 12.8686 18.4183 12.9529 18.2584 13.1036C18.0985 13.2542 18.0084 13.4587 18.0078 13.6723C18.0073 13.8858 18.0964 14.0908 18.2555 14.2421L28.7698 24.172Z" fill="#FE4817"/>
<path d="M28.9445 18.806C29.0236 18.8812 29.1175 18.9409 29.221 18.9816C29.3244 19.0223 29.4354 19.0432 29.5474 19.0432C29.6595 19.0432 29.7704 19.0223 29.8739 18.9816C29.9773 18.9409 30.0713 18.8812 30.1503 18.806C30.3093 18.6542 30.3985 18.4491 30.3985 18.2354C30.3985 18.0216 30.3093 17.8165 30.1503 17.6647L22.7583 10.668C22.6791 10.5931 22.5851 10.5336 22.4816 10.4931C22.3782 10.4525 22.2673 10.4316 22.1554 10.4316C22.0434 10.4316 21.9325 10.4525 21.8291 10.4931C21.7256 10.5336 21.6316 10.5931 21.5525 10.668C21.4733 10.743 21.4105 10.8319 21.3676 10.9298C21.3248 11.0277 21.3027 11.1327 21.3027 11.2387C21.3027 11.3446 21.3248 11.4496 21.3676 11.5475C21.4105 11.6454 21.4733 11.7344 21.5525 11.8093L28.9445 18.806Z" fill="#FE4817"/>
<path d="M29.1474 13.6677C29.301 13.8163 29.5103 13.9015 29.7299 13.9048C29.8962 13.9011 30.0578 13.8513 30.1945 13.7616C30.3312 13.6719 30.4371 13.5462 30.4991 13.4C30.5611 13.2539 30.5765 13.0938 30.5433 12.9395C30.5101 12.7852 30.4298 12.6435 30.3124 12.5319L26.5727 8.99223C26.4128 8.84088 26.1959 8.75586 25.9698 8.75586C25.7437 8.75586 25.5268 8.84088 25.3669 8.99223C25.207 9.14358 25.1172 9.34885 25.1172 9.56288C25.1172 9.77692 25.207 9.98219 25.3669 10.1335L29.1474 13.6677Z" fill="#FE4817"/>
</g>
<defs>
<clipPath id="clip0_5593_31282">
<rect width="103.25" height="70" fill="white" transform="translate(0.5 0.121094)"/>
</clipPath>
</defs>
</svg>
