<svg width="100" height="71" viewBox="0 0 100 71" fill="none" xmlns="http://www.w3.org/2000/svg">
<g clip-path="url(#clip0_5593_31307)">
<path d="M95.0894 0.121094H4.9917C3.89724 0.122552 2.84802 0.555203 2.07411 1.32418C1.30021 2.09315 0.864783 3.13568 0.863315 4.22317V66.019C0.861124 66.5594 0.966252 67.0948 1.17267 67.5947C1.3791 68.0946 1.68276 68.5492 2.06626 68.9323C2.44976 69.3154 2.90557 69.6195 3.40757 69.8273C3.90956 70.0351 4.44789 70.1424 4.9917 70.1432H95.0894C96.1838 70.1417 97.233 69.709 98.0069 68.9401C98.7808 68.1711 99.2163 67.1286 99.2177 66.0411V4.22317C99.2163 3.13568 98.7808 2.09315 98.0069 1.32418C97.233 0.555203 96.1838 0.122552 95.0894 0.121094V0.121094ZM96.9649 66.019C96.9634 66.5128 96.7654 66.986 96.4139 67.3352C96.0625 67.6843 95.5863 67.8811 95.0894 67.8826H4.9917C4.49473 67.8811 4.01853 67.6843 3.66712 67.3352C3.31571 66.986 3.11764 66.5128 3.11617 66.019V4.22317C3.11764 3.72937 3.31571 3.2562 3.66712 2.90703C4.01853 2.55786 4.49473 2.36105 4.9917 2.35959H95.0894C95.5863 2.36105 96.0625 2.55786 96.4139 2.90703C96.7654 3.2562 96.9634 3.72937 96.9649 4.22317V66.019Z" fill="#FE4817"/>
<path d="M96.8871 11.9375H1.00195V14.176H96.8871V11.9375Z" fill="#FE4817"/>
<path d="M32.137 60.6699H8.89258V62.9084H32.137V60.6699Z" fill="#FE4817"/>
<path d="M22.7981 54.0879H8.89258V56.3264H22.7981V54.0879Z" fill="#FE4817"/>
<path d="M8.21467 6.11914H6.11719V8.35764H8.21467V6.11914Z" fill="#FE4817"/>
<path d="M13.2088 6.11914H11.1113V8.35764H13.2088V6.11914Z" fill="#FE4817"/>
<path d="M18.203 6.11914H16.1055V8.35764H18.203V6.11914Z" fill="#FE4817"/>
<path d="M31.6538 35.6826H10.4902V20.752H31.6538V35.6826ZM12.1549 34.0286H29.9891V22.406H12.1549V34.0286Z" fill="#FE4817"/>
<path d="M48.334 35.8442L40.6543 28.241L48.334 20.5938L56.0081 28.241L48.334 35.8442ZM43.0348 28.241L48.3562 33.5285L53.6554 28.241L48.334 22.9535L43.0348 28.241Z" fill="#FE4817"/>
<path d="M86.7159 35.6826H71.6895V20.752H86.7159V35.6826ZM73.3541 34.0286H85.0512V22.406H73.3541V34.0286Z" fill="#FE4817"/>
<path d="M56.0258 59.8988H40.6387V44.6152H56.0258V59.8988ZM42.3033 58.2447H54.3611V46.2693H42.3033V58.2447Z" fill="#FE4817"/>
<path d="M79.3861 59.8988C77.865 59.8988 76.3781 59.4506 75.1133 58.6109C73.8486 57.7712 72.8628 56.5777 72.2807 55.1814C71.6986 53.785 71.5463 52.2485 71.8431 50.7662C72.1398 49.2838 72.8723 47.9222 73.9479 46.8535C75.0235 45.7847 76.3938 45.0569 77.8857 44.7621C79.3776 44.4672 80.9239 44.6185 82.3293 45.1969C83.7346 45.7753 84.9357 46.7548 85.7808 48.0115C86.6258 49.2682 87.0769 50.7456 87.0769 52.257C87.074 54.2828 86.2628 56.2249 84.8211 57.6573C83.3794 59.0898 81.4249 59.8959 79.3861 59.8988ZM79.3861 46.2693C78.1943 46.2693 77.0292 46.6205 76.0382 47.2784C75.0472 47.9364 74.2748 48.8715 73.8187 49.9656C73.3626 51.0597 73.2433 52.2637 73.4758 53.4252C73.7083 54.5867 74.2822 55.6536 75.125 56.491C75.9678 57.3284 77.0415 57.8986 78.2105 58.1297C79.3794 58.3607 80.5911 58.2421 81.6922 57.7889C82.7933 57.3357 83.7345 56.5683 84.3967 55.5836C85.0588 54.5989 85.4122 53.4413 85.4122 52.257C85.4093 50.6699 84.7735 49.1486 83.644 48.0263C82.5145 46.904 80.9834 46.2722 79.3861 46.2693Z" fill="#FE4817"/>
<path d="M41.6537 27.3906H30.8223V29.0447H41.6537V27.3906Z" fill="#FE4817"/>
<path d="M72.522 27.3906H54.832V29.0447H72.522V27.3906Z" fill="#FE4817"/>
<path d="M49.1666 34.6738H47.502V45.4363H49.1666V34.6738Z" fill="#FE4817"/>
<path d="M72.5221 51.4297H55.0098V53.0838H72.5221V51.4297Z" fill="#FE4817"/>
</g>
<defs>
<clipPath id="clip0_5593_31307">
<rect width="98.3544" height="70" fill="white" transform="translate(0.863281 0.121094)"/>
</clipPath>
</defs>
</svg>
