<svg width="85" height="84" viewBox="0 0 85 84" fill="none" xmlns="http://www.w3.org/2000/svg">
<g clip-path="url(#clip0_5593_31222)">
<path d="M45.5836 33.0575C47.2232 33.0575 48.5567 34.7976 48.5567 36.9359C48.5779 37.2593 48.7216 37.5625 48.9586 37.7841C49.1956 38.0057 49.5081 38.1289 49.8328 38.1289C50.1575 38.1289 50.4701 38.0057 50.7071 37.7841C50.9441 37.5625 51.0877 37.2593 51.109 36.9359C51.109 33.3902 48.6332 30.51 45.5836 30.51H44.2556V28.6499C44.2556 28.3128 44.1214 27.9895 43.8826 27.7512C43.6438 27.5128 43.3199 27.3789 42.9822 27.3789C42.6445 27.3789 42.3206 27.5128 42.0818 27.7512C41.843 27.9895 41.7088 28.3128 41.7088 28.6499V30.51H40.3808C37.3367 30.51 34.8609 33.3902 34.8609 36.9359C34.8609 40.4816 37.3367 43.3563 40.3808 43.3563H41.7088V51.1077H40.3808C38.7412 51.1077 37.4022 49.3676 37.4022 47.2293C37.4022 46.8922 37.2681 46.5689 37.0293 46.3306C36.7905 46.0922 36.4666 45.9583 36.1289 45.9583C35.7911 45.9583 35.4672 46.0922 35.2284 46.3306C34.9896 46.5689 34.8555 46.8922 34.8555 47.2293C34.8555 50.7695 37.3367 53.6497 40.3808 53.6497H41.7088V55.5153C41.7088 55.8524 41.843 56.1756 42.0818 56.414C42.3206 56.6524 42.6445 56.7863 42.9822 56.7863C43.3199 56.7863 43.6438 56.6524 43.8826 56.414C44.1214 56.1756 44.2556 55.8524 44.2556 55.5153V53.6497H45.5836C48.6332 53.6497 51.109 50.7695 51.109 47.2293C51.109 43.6891 48.6332 40.8089 45.5836 40.8089H44.2556V33.0575H45.5836ZM41.7088 40.8089H40.3808C38.7412 40.8089 37.4022 39.0688 37.4022 36.9359C37.4022 34.803 38.7412 33.0575 40.3808 33.0575H41.7088V40.8089ZM45.5836 43.3563C47.2232 43.3563 48.5567 45.091 48.5567 47.2293C48.5567 49.3676 47.2232 51.1077 45.5836 51.1077H44.2556V43.3563H45.5836Z" fill="#582689"/>
<path d="M84.7744 37.9173C83.8581 28.3355 79.6492 19.365 72.8616 12.5275C66.074 5.6901 57.1257 1.40672 47.5346 0.404C47.3717 0.293211 47.184 0.223917 46.9881 0.202169C44.3235 -0.0517647 41.6407 -0.0517647 38.9761 0.202169C38.7651 0.22882 38.5641 0.307565 38.3913 0.431275C28.8352 1.49293 19.9316 5.78889 13.1621 12.6042C6.39255 19.4195 2.16548 28.3432 1.18431 37.8901C1.18431 37.8901 1.18431 37.8901 1.18431 37.9228C1.04335 39.3038 0.97403 40.6912 0.976633 42.0794C0.976633 43.3232 1.04222 44.556 1.15152 45.7779C1.1489 45.8251 1.1489 45.8724 1.15152 45.9197C2.13391 56.3083 6.96323 65.9577 14.6952 72.981C22.4272 80.0042 32.5057 83.8964 42.9602 83.8964C53.4147 83.8964 63.4933 80.0042 71.2253 72.981C78.9572 65.9577 83.7866 56.3083 84.769 45.9197C84.8837 44.6651 84.9438 43.3722 84.9438 42.1013C84.9482 40.7132 84.8808 39.3258 84.7416 37.9446L84.7744 37.9173ZM40.3697 2.7987C41.2332 2.72779 42.1022 2.72779 42.9766 2.72779C43.8511 2.72779 44.72 2.79325 45.5835 2.8478V7.75721C45.5847 8.09867 45.5171 8.43688 45.3847 8.75174C45.2523 9.0666 45.0579 9.35169 44.8129 9.59005C44.5732 9.83331 44.2874 10.0266 43.9721 10.1586C43.6569 10.2907 43.3185 10.3588 42.9766 10.3592C42.2857 10.3578 41.6234 10.0832 41.1349 9.5955C40.6463 9.10784 40.3712 8.44685 40.3697 7.75721V2.7987ZM3.59993 44.3978C3.5562 43.6286 3.52888 42.854 3.52888 42.0794C3.52888 41.3048 3.56167 40.4866 3.60539 39.7229C3.60539 39.592 3.60539 39.4556 3.63272 39.3247H8.69348C9.03504 39.3217 9.37361 39.3884 9.68843 39.5207C10.0032 39.653 10.2877 39.848 10.5243 40.0938C10.7691 40.3315 10.9639 40.6156 11.0971 40.9294C11.2304 41.2432 11.2995 41.5804 11.3004 41.9212C11.2989 42.6109 11.0238 43.2719 10.5352 43.7595C10.0467 44.2472 9.38443 44.5218 8.69348 44.5232H3.61086C3.60539 44.4796 3.60539 44.4414 3.59993 44.3978ZM45.5835 81.2074C43.8474 81.3195 42.1059 81.3195 40.3697 81.2074V76.1235C40.3683 75.6077 40.5212 75.1032 40.8087 74.6746C41.0963 74.246 41.5054 73.9129 41.9838 73.7178C42.4622 73.5227 42.988 73.4745 43.494 73.5795C43.9999 73.6845 44.463 73.9378 44.8239 74.307C45.0659 74.5436 45.2578 74.8263 45.3883 75.1383C45.5188 75.4503 45.5852 75.7853 45.5835 76.1235V81.2074ZM48.1303 81.0874V76.1398C48.1347 75.4642 48.0024 74.7947 47.7414 74.1714C47.4803 73.5481 47.0958 72.9838 46.611 72.5123C45.8934 71.7889 44.9763 71.295 43.9765 71.0936C42.9767 70.8922 41.9394 70.9924 40.9969 71.3815C40.0544 71.7705 39.2492 72.4308 38.6839 73.2782C38.1187 74.1256 37.819 75.1218 37.823 76.1398V81.1092C29.1966 79.9596 21.1916 76.0003 15.0501 69.8457C8.90861 63.6911 4.97399 55.6853 3.85679 47.0707H8.69348C10.0604 47.0678 11.3704 46.5242 12.3364 45.5589C13.3025 44.5937 13.8457 43.2856 13.8472 41.9212C13.8483 41.2492 13.716 40.5836 13.4581 39.9629C13.2001 39.3422 12.8216 38.7786 12.3442 38.3046C11.8703 37.8175 11.3026 37.4311 10.6752 37.1686C10.0478 36.9061 9.37374 36.773 8.69348 36.7773H3.89505C5.07106 28.2234 9.02724 20.2912 15.1562 14.1984C21.2852 8.10559 29.2483 4.1889 37.823 3.04963V7.70266C37.8221 8.71862 38.123 9.71204 38.6876 10.5574C39.2522 11.4027 40.0552 12.062 40.9951 12.452C41.935 12.842 42.9696 12.9451 43.9682 12.7483C44.9668 12.5516 45.8846 12.0637 46.6055 11.3465C47.0918 10.8725 47.4775 10.3055 47.7395 9.67948C48.0014 9.05342 48.1344 8.38111 48.1303 7.70266V3.07145C56.7245 4.15756 64.7165 8.05364 70.8584 14.1514C77.0002 20.2491 80.9462 28.2051 82.0801 36.7773H77.2652C76.5873 36.7712 75.9152 36.9024 75.2896 37.1631C74.664 37.4237 74.0978 37.8084 73.6254 38.2937C73.1446 38.7682 72.7627 39.333 72.5019 39.9557C72.2411 40.5783 72.1066 41.2464 72.1061 41.9212C72.1075 43.2865 72.6516 44.5954 73.6188 45.5608C74.586 46.5262 75.8974 47.0692 77.2652 47.0707H82.1074C81.0463 55.7069 77.1279 63.7427 70.9732 69.9046C64.8185 76.0665 56.7796 80.002 48.1303 81.0874ZM82.3479 44.5396H77.2652C76.748 44.5421 76.2418 44.3903 75.8116 44.1037C75.3813 43.8171 75.0467 43.4088 74.8506 42.9311C74.6544 42.4534 74.6057 41.9281 74.7107 41.4226C74.8157 40.917 75.0696 40.4544 75.4399 40.0938C75.6776 39.8521 75.9619 39.6608 76.2756 39.5315C76.5892 39.4021 76.9259 39.3374 77.2652 39.3411H82.3369C82.397 40.2193 82.4298 41.1303 82.4298 42.0685C82.408 42.8977 82.408 43.7159 82.3479 44.5232V44.5396Z" fill="#582689"/>
<path d="M64.0556 19.2514L53.9888 29.3103C53.7496 29.549 53.6152 29.8727 53.6152 30.2103C53.6152 30.5479 53.7496 30.8717 53.9888 31.1104C54.2279 31.3491 54.5523 31.4832 54.8905 31.4832C55.2287 31.4832 55.5531 31.3491 55.7923 31.1104L65.8646 21.0516C65.9847 20.9341 66.0802 20.794 66.1457 20.6395C66.2113 20.485 66.2455 20.319 66.2465 20.1512C66.2474 19.9835 66.2151 19.8171 66.1513 19.6619C66.0875 19.5066 65.9936 19.3655 65.8749 19.2467C65.7562 19.1278 65.6151 19.0336 65.4597 18.9695C65.3044 18.9054 65.1378 18.8726 64.9697 18.8731C64.8016 18.8735 64.6353 18.9072 64.4802 18.9721C64.3252 19.037 64.1846 19.132 64.0666 19.2514H64.0556Z" fill="#582689"/>
<path d="M29.1497 26.4724C29.0313 26.3542 28.8907 26.2605 28.736 26.1965C28.5812 26.1325 28.4154 26.0996 28.2479 26.0996C28.0805 26.0996 27.9146 26.1325 27.7599 26.1965C27.6052 26.2605 27.4646 26.3542 27.3462 26.4724C27.2278 26.5906 27.1338 26.7309 27.0697 26.8854C27.0056 27.0398 26.9727 27.2053 26.9727 27.3725C26.9727 27.5396 27.0056 27.7052 27.0697 27.8596C27.1338 28.014 27.2278 28.1543 27.3462 28.2725L30.4887 31.4309C30.7278 31.6696 31.0522 31.8037 31.3904 31.8037C31.7286 31.8037 32.053 31.6696 32.2922 31.4309C32.5313 31.1922 32.6657 30.8685 32.6657 30.5309C32.6657 30.1933 32.5313 29.8695 32.2922 29.6308L29.1497 26.4724Z" fill="#582689"/>
</g>
<defs>
<clipPath id="clip0_5593_31222">
<rect width="84" height="84" fill="white" transform="translate(0.976562)"/>
</clipPath>
</defs>
</svg>
