<svg width="21" height="21" viewBox="0 0 21 21" fill="none" xmlns="http://www.w3.org/2000/svg">
<path d="M6.98438 17.043C8.22135 17.694 9.39323 18.0195 10.5 18.0195C11.6068 18.0195 12.7624 17.694 13.9668 17.043C15.2038 16.3919 16.1315 15.5944 16.75 14.6504C16.7174 13.7389 15.985 12.974 14.5527 12.3555C13.1204 11.737 11.7695 11.4277 10.5 11.4277C9.23047 11.4277 7.87956 11.737 6.44727 12.3555C5.01497 12.9414 4.28255 13.7064 4.25 14.6504C4.86849 15.5944 5.77995 16.3919 6.98438 17.043ZM12.6973 4.15234C12.0788 3.53385 11.3464 3.22461 10.5 3.22461C9.65365 3.22461 8.92122 3.53385 8.30273 4.15234C7.68424 4.77083 7.375 5.50326 7.375 6.34961C7.375 7.19596 7.68424 7.92839 8.30273 8.54688C8.92122 9.16536 9.65365 9.47461 10.5 9.47461C11.3464 9.47461 12.0788 9.16536 12.6973 8.54688C13.3158 7.92839 13.625 7.19596 13.625 6.34961C13.625 5.50326 13.3158 4.77083 12.6973 4.15234ZM3.12695 3.17578C5.17773 1.125 7.63542 0.0996094 10.5 0.0996094C13.3646 0.0996094 15.806 1.125 17.8242 3.17578C19.875 5.19401 20.9004 7.63542 20.9004 10.5C20.9004 13.3646 19.875 15.8223 17.8242 17.873C15.806 19.8913 13.3646 20.9004 10.5 20.9004C7.63542 20.9004 5.17773 19.8913 3.12695 17.873C1.10872 15.8223 0.0996094 13.3646 0.0996094 10.5C0.0996094 7.63542 1.10872 5.19401 3.12695 3.17578Z" fill="#121212"/>
</svg>
