<svg width="21" height="21" viewBox="0 0 21 21" fill="none" xmlns="http://www.w3.org/2000/svg">
<path d="M15.7246 14.2598L11.9648 10.5L15.7246 6.74023L14.2598 5.27539L10.5 9.03516L6.74023 5.27539L5.27539 6.74023L9.03516 10.5L5.27539 14.2598L6.74023 15.7246L10.5 11.9648L14.2598 15.7246L15.7246 14.2598ZM3.12695 3.17578C5.17773 1.125 7.63542 0.0996094 10.5 0.0996094C13.3646 0.0996094 15.806 1.125 17.8242 3.17578C19.875 5.19401 20.9004 7.63542 20.9004 10.5C20.9004 13.3646 19.875 15.8223 17.8242 17.873C15.806 19.8913 13.3646 20.9004 10.5 20.9004C7.63542 20.9004 5.17773 19.8913 3.12695 17.873C1.10872 15.8223 0.0996094 13.3646 0.0996094 10.5C0.0996094 7.63542 1.10872 5.19401 3.12695 3.17578Z" fill="#121212"/>
</svg>
