<svg width="70" height="70" viewBox="0 0 70 70" fill="none" xmlns="http://www.w3.org/2000/svg">
<g clip-path="url(#clip0_3640_29511)">
<path d="M43.4189 36.7522C40.6838 36.7522 38.1197 35.7265 36.2394 33.7607C32.2223 29.7436 32.2223 23.3334 36.2394 19.3163C38.2052 17.3505 40.7693 16.3248 43.4189 16.3248C46.0684 16.3248 48.718 17.3505 50.5984 19.3163C52.4787 21.2821 53.5898 23.8462 53.5898 26.4958C53.5898 29.1453 52.5642 31.7949 50.5984 33.6753C48.718 35.7265 46.1539 36.7522 43.4189 36.7522ZM38.0343 21.1966C35.0428 24.1881 35.0428 29.0599 38.0343 31.9659C39.4872 33.4188 41.3676 34.1881 43.4189 34.1881C45.4701 34.1881 47.3505 33.4188 48.8035 31.9659C50.2565 30.5129 51.0257 28.6325 51.0257 26.5812C51.0257 24.53 50.2565 22.6496 48.8035 21.1966C47.3505 19.7436 45.4701 18.9744 43.4189 18.9744C41.3676 18.9744 39.4872 19.7436 38.0343 21.1966Z" fill="#F20024"/>
<path d="M18.2905 58.3762C17.9486 58.3762 17.6067 58.2052 17.3503 58.0343L11.9657 52.6497C11.7093 52.3932 11.5383 51.9659 11.6238 51.624L12.8204 41.795C12.9058 41.2821 13.2477 40.8548 13.6751 40.7693C14.1024 40.5984 14.6152 40.6838 15.0426 41.1112L29.0597 55.1283C29.4016 55.4702 29.487 55.983 29.4016 56.4958C29.3161 57.0086 28.8033 57.265 28.3759 57.3505L18.6323 58.4616C18.3759 58.3762 18.3759 58.3762 18.2905 58.3762ZM14.2734 51.2821L18.7178 55.7266L25.2135 54.9573L14.9571 44.7009L14.2734 51.2821Z" fill="#F20024"/>
<path d="M1.28205 70C0.940171 70 0.598291 69.8291 0.34188 69.6582C0.17094 69.4017 0 69.0599 0 68.718C0 68.4616 0.17094 61.3676 5.04273 56.2394C6.15385 55.0428 7.69231 54.359 9.31624 54.359H9.40171C11.0256 54.359 12.6496 55.0428 13.8462 56.2394C15.0427 57.4359 15.7265 59.0599 15.7265 60.7693C15.7265 62.3932 15.0427 63.9317 13.8462 65.0428C8.63248 69.8291 1.62393 70 1.28205 70ZM9.40171 56.9231C9.31624 56.9231 9.31624 56.9231 9.40171 56.9231C8.37607 56.9231 7.52137 57.3505 6.92308 57.9488C4.01709 61.1112 3.07692 65.1282 2.73504 67.265C4.87179 67.0086 8.97436 66.0684 12.0513 63.077C12.735 62.4787 13.0769 61.5385 13.0769 60.5983C13.0769 59.5727 12.735 58.6325 11.9658 57.8633C11.2821 57.265 10.3419 56.9231 9.40171 56.9231Z" fill="#F20024"/>
<path d="M12.3072 41.453C11.9653 41.453 11.6234 41.2821 11.367 41.1111L2.22174 31.8804C1.79439 31.453 1.70892 30.7693 2.0508 30.2564C6.49524 23.7607 15.2987 25.7265 19.4012 27.7778C19.7431 27.9487 19.9995 28.2052 20.085 28.6325C20.1705 29.0599 20.085 29.4017 19.914 29.6581C15.5551 35.812 13.5038 40.5983 13.5038 40.6838C13.3329 41.1111 12.991 41.3675 12.5636 41.453C12.4781 41.453 12.3927 41.453 12.3072 41.453ZM4.87131 30.9402L11.9653 38.0342C12.82 36.2393 14.444 33.1624 16.9226 29.5727C14.1875 28.547 8.37559 27.0086 4.87131 30.9402Z" fill="#F20024"/>
<path d="M38.9743 68.2052C38.6324 68.2052 38.2905 68.1198 38.0341 67.8633L28.9743 58.6326C28.6324 58.2907 28.5469 57.8633 28.6324 57.5215C28.7179 57.0941 28.9743 56.7522 29.4016 56.5813C29.4871 56.5813 34.2734 54.4445 40.4273 50.171C40.7691 49.9146 41.111 49.9146 41.4529 50.0001C41.7948 50.0856 42.1367 50.342 42.3076 50.6839C44.2734 54.7009 46.3247 63.5044 39.829 68.0343C39.4871 68.1197 39.2307 68.2052 38.9743 68.2052ZM32.0512 58.1198L39.1452 65.2138C42.9914 61.7095 41.5384 55.8121 40.5127 53.1625C36.8375 55.5556 33.8461 57.265 32.0512 58.1198Z" fill="#F20024"/>
<path d="M67.263 16.0684C63.6733 16.0684 60.4254 14.7009 57.8613 12.1368C55.3827 9.65815 54.0152 6.32482 53.9297 2.73508C53.9297 2.13679 54.357 1.62397 54.9553 1.45302C59.3998 0.427384 64.0152 -0.0854365 68.716 3.36245e-05C69.3998 3.36245e-05 69.9981 0.598324 69.9981 1.28208C70.0835 5.98294 69.5707 10.5983 68.4596 15.0428C68.3741 15.6411 67.8613 16.0684 67.263 16.0684ZM56.5793 3.76072C56.8357 6.23935 57.9468 8.54704 59.6562 10.3419C61.3656 12.1368 63.7587 13.1624 66.2374 13.4188C67.0066 9.91456 67.434 6.23935 67.434 2.56414C63.7587 2.64961 60.0835 2.99149 56.5793 3.76072Z" fill="#F20024"/>
<path d="M29.8297 58.9744C29.4878 58.9744 29.1459 58.8034 28.8895 58.6325L11.3681 41.1111C11.0263 40.7692 10.8553 40.1709 11.1117 39.7436C11.2827 39.2308 28.3767 0 68.1203 0C68.2912 0 68.5476 0 68.7186 0C69.4023 0 70.0006 0.598291 70.0006 1.28205C70.428 41.453 30.7699 58.7179 30.3425 58.8889C30.1716 58.9744 30.0006 58.9744 29.8297 58.9744ZM13.8468 39.9145L30.0861 56.1538C35.4707 53.5897 67.0092 37.0085 67.4365 2.5641C32.9066 2.99145 16.4109 34.5299 13.8468 39.9145Z" fill="#F20024"/>
<path d="M21.024 50.2565C20.6821 50.2565 20.3402 50.171 20.0838 49.9146C19.571 49.4018 19.571 48.6325 20.0838 48.1197L29.9984 38.2052C30.5112 37.6924 31.2804 37.6924 31.7932 38.2052C32.3061 38.718 32.3061 39.4872 31.7932 40L21.9642 49.8291C21.7078 50.0855 21.3659 50.2565 21.024 50.2565Z" fill="#F20024"/>
</g>
<defs>
<clipPath id="clip0_3640_29511">
<rect width="70" height="70" fill="white"/>
</clipPath>
</defs>
</svg>
