<svg width="71" height="71" viewBox="0 0 71 71" fill="none" xmlns="http://www.w3.org/2000/svg">
<g clip-path="url(#clip0_3640_29537)">
<path d="M35.0615 2.27427C39.9074 2.27427 43.8982 6.25425 43.8982 11.1582C43.8982 16.0621 39.9074 20.1131 35.0615 20.1131C30.2156 20.1131 26.2248 16.1331 26.2248 11.2292C26.2248 6.32533 30.2156 2.27427 35.0615 2.27427ZM35.0615 22.3163C41.1189 22.3163 46.1074 17.2703 46.1074 11.1582C46.1074 4.97498 41.1189 0 35.0615 0C29.0041 0 24.0156 5.04605 24.0156 11.1582C24.0156 17.3413 29.0041 22.3163 35.0615 22.3163Z" fill="#F20024"/>
<path d="M35.0596 26.8649C43.9676 26.8649 51.3077 33.9009 51.8778 42.7848H26.0091C25.3677 42.7848 24.8689 43.2823 24.8689 43.9219C24.8689 44.5615 25.3677 45.059 26.0091 45.059H53.0181C53.6594 45.059 54.1583 44.5615 54.1583 43.9219C54.1583 33.2612 45.6066 24.5906 35.0596 24.5906C24.5126 24.5906 15.9609 33.2612 15.9609 43.9219C15.9609 44.5615 16.4598 45.059 17.1012 45.059H21.5908C22.2321 45.059 22.731 44.5615 22.731 43.9219C22.731 43.2823 22.2321 42.7848 21.5908 42.7848H18.2414C18.8115 33.9009 26.1516 26.8649 35.0596 26.8649Z" fill="#F20024"/>
<path d="M15.1785 62.2582C14.9647 62.5424 14.8222 62.8978 14.8934 63.2532L15.6061 67.8728L11.4728 65.8117C11.1877 65.6696 10.7601 65.6696 10.4751 65.8117L6.34179 67.8728L7.05443 63.2532C7.12569 62.8978 6.98316 62.5424 6.76937 62.2582L3.49124 58.9178L8.05212 58.136C8.40844 58.065 8.69349 57.8518 8.83602 57.5675L10.9739 53.3743L13.1118 57.5675C13.2544 57.8518 13.5394 58.136 13.8957 58.136L18.4566 58.9178L15.1785 62.2582ZM20.9508 56.9989L14.8222 55.9328L11.9716 50.3182C11.7578 49.9629 11.4015 49.6786 10.9739 49.6786C10.5463 49.6786 10.19 49.8918 9.97624 50.3182L7.12569 55.9328L0.997016 56.9989C0.569434 57.07 0.213115 57.3543 0.141852 57.7807C-0.000675678 58.2071 0.141852 58.6335 0.426906 58.9178L4.77399 63.3953L3.7763 69.6496C3.70504 70.076 3.91883 70.5024 4.20388 70.7156C4.5602 70.9288 4.98778 70.9999 5.3441 70.7867L10.9027 67.9438L16.4612 70.7867C16.6038 70.8578 16.8176 70.9288 16.9601 70.9288C17.1739 70.9288 17.4589 70.8578 17.6015 70.7156C17.9578 70.5024 18.1003 70.076 18.029 69.6496L17.1026 63.3953L21.4497 58.9178C21.7347 58.6335 21.8773 58.2071 21.7347 57.7807C21.6635 57.4253 21.3784 57.07 20.9508 56.9989Z" fill="#F20024"/>
<path d="M39.3357 62.2582C39.1219 62.5424 38.9794 62.8978 39.0506 63.2532L39.7633 67.8728L35.63 65.8117C35.4874 65.7406 35.2737 65.6696 35.1311 65.6696C34.9886 65.6696 34.7748 65.7406 34.6323 65.8117L30.499 67.8728L31.2116 63.2532C31.2829 62.8978 31.1404 62.5424 30.9266 62.2582L27.6484 58.9178L32.2093 58.136C32.5656 58.065 32.8507 57.8518 32.9932 57.5675L35.1311 53.3743L37.269 57.5675C37.4116 57.8518 37.6966 58.136 38.0529 58.136L42.6138 58.9178L39.3357 62.2582ZM45.0368 56.9989L38.9081 55.9328L36.0576 50.3182C35.8438 49.9629 35.4874 49.6786 35.0599 49.6786C34.6323 49.6786 34.276 49.8918 34.0622 50.3182L31.2116 55.9328L25.083 56.9989C24.6554 57.07 24.2991 57.3543 24.2278 57.7807C24.0853 58.2071 24.2278 58.6335 24.5128 58.9178L28.8599 63.3953L27.8622 69.6496C27.791 70.076 28.0048 70.5024 28.2898 70.7156C28.6461 70.9288 29.0737 70.9999 29.43 70.7867L34.9886 67.9438L40.5472 70.7867C40.6897 70.8578 40.9035 70.9288 41.046 70.9288C41.2598 70.9288 41.4736 70.8578 41.6874 70.7156C42.0437 70.5024 42.1862 70.076 42.115 69.6496L41.3311 63.4664L45.6782 58.9889C45.9632 58.7046 46.1057 58.2782 45.9632 57.8518C45.8207 57.4253 45.4644 57.07 45.0368 56.9989Z" fill="#F20024"/>
<path d="M63.4255 62.2582C63.2117 62.5424 63.0692 62.8978 63.1405 63.1821L63.8531 67.8017L59.7198 65.7406C59.5773 65.6696 59.3635 65.5985 59.221 65.5985C59.0784 65.5985 58.8647 65.6696 58.7221 65.7406L54.5888 67.8017L55.3015 63.1821C55.3727 62.8267 55.2302 62.4714 55.0164 62.2582L51.7383 58.9178L56.2992 58.136C56.6555 58.065 56.9405 57.8518 57.0831 57.5675L59.221 53.3743L61.3589 57.5675C61.5014 57.8518 61.7865 58.136 62.1428 58.136L66.7037 58.9178L63.4255 62.2582ZM70.0531 57.7807C69.9105 57.3543 69.5542 57.07 69.1979 56.9989L63.0692 55.9328L60.2187 50.3182C60.0049 49.9629 59.6486 49.6786 59.221 49.6786C58.7934 49.6786 58.4371 49.8918 58.2233 50.3182L55.3727 55.9328L49.1728 56.9989C48.7452 57.07 48.3889 57.3543 48.3176 57.7807C48.1751 58.2071 48.3176 58.6335 48.6027 58.9178L52.9498 63.3953L52.0233 69.6496C51.9521 70.076 52.1659 70.5024 52.4509 70.7156C52.8072 70.9288 53.2348 70.9999 53.5911 70.7867L59.1497 67.9438L64.7083 70.7867C64.8508 70.8578 65.0646 70.9288 65.2071 70.9288C65.4209 70.9288 65.6347 70.8578 65.8485 70.7156C66.2048 70.5024 66.3473 70.076 66.2761 69.6496L65.3497 63.3953L69.6967 58.9178C70.1243 58.6335 70.1956 58.2071 70.0531 57.7807Z" fill="#F20024"/>
<path d="M35.0608 16.2752C36.5574 16.2752 37.9114 15.6356 38.9091 14.4985C39.3367 14.001 39.2654 13.2903 38.7665 12.9349C38.2677 12.5085 37.6263 12.5796 37.1987 13.077C36.6286 13.7167 35.8447 14.072 35.0608 14.072C34.2769 14.072 33.493 13.7167 32.9229 13.077C32.4953 12.5796 31.7827 12.5796 31.3551 12.9349C30.8563 13.3613 30.8563 14.072 31.2126 14.4985C32.2103 15.6356 33.5643 16.2752 35.0608 16.2752Z" fill="#F20024"/>
</g>
<defs>
<clipPath id="clip0_3640_29537">
<rect width="70.1235" height="71" fill="white"/>
</clipPath>
</defs>
</svg>
