<svg width="55" height="74" viewBox="0 0 55 74" fill="none" xmlns="http://www.w3.org/2000/svg">
<g clip-path="url(#clip0_3640_29532)">
<path d="M3.33574 19.3438C5.6874 11.6653 11.7562 5.64293 19.5697 3.30926C23.742 2.10478 27.9143 1.80366 32.0107 2.63174C32.6176 2.70702 33.1486 2.33062 33.3004 1.80366C33.3762 1.20143 32.9969 0.674468 32.4659 0.523908C28.066 -0.304169 23.5145 -0.0783295 18.9629 1.27671C14.7906 2.48118 10.9976 4.73957 7.88733 7.82605C4.77708 10.9125 2.50129 14.6765 1.28753 18.8169C-0.533105 24.6887 -0.381385 30.8617 1.66683 36.4324C1.81855 36.884 2.27371 37.1099 2.65301 37.1099C2.80473 37.1099 2.88059 37.1099 3.03231 37.0346C3.56332 36.8088 3.86676 36.2065 3.71504 35.6796C1.81855 30.5605 1.66683 24.9146 3.33574 19.3438Z" fill="#F20024"/>
<path d="M34.059 63.5362C34.059 65.1171 32.7694 66.4721 31.1004 66.4721H23.4386C21.8455 66.4721 20.4801 65.1923 20.4801 63.5362V59.3958H33.9831V63.5362H34.059ZM29.6591 70.9136C29.6591 71.4406 29.2798 71.817 28.7488 71.817H25.8661C25.3351 71.817 24.9558 71.4406 24.9558 70.9136V68.6552H29.6591V70.9136ZM50.293 12.4965C47.562 8.28083 43.6932 4.89324 39.1416 2.71013C38.6106 2.48429 37.9278 2.71013 37.7002 3.23709C37.4727 3.76404 37.7002 4.44156 38.2313 4.6674C42.4035 6.69995 45.969 9.78643 48.4723 13.701C51.0516 17.6908 52.417 22.3581 52.417 27.1761C52.417 32.2198 50.8998 37.113 48.0172 41.3286C45.2104 45.3938 41.2656 48.5555 36.7141 50.3622C35.121 51.0397 34.059 52.5453 34.059 54.352V57.2127H28.3695V40.6511L31.0246 41.9309C31.1763 42.0062 31.328 42.0062 31.4797 42.0062C31.6315 42.0062 31.7832 42.0062 31.9349 41.9309L36.183 39.8983C36.7141 39.6725 36.9416 38.995 36.7141 38.468C36.4865 37.9411 35.8037 37.7152 35.2727 37.9411L31.5556 39.7478L27.8385 37.9411C27.535 37.7905 27.1557 37.7905 26.9281 37.9411L23.211 39.7478L19.4939 37.9411C18.9629 37.7152 18.2801 37.9411 18.0525 38.468C17.825 38.995 18.0525 39.6725 18.5836 39.8983L22.8317 41.9309C23.1352 42.0814 23.4386 42.0814 23.742 41.9309L26.3971 40.6511V57.2127H20.7076V54.352C20.7076 52.6206 19.6456 51.0397 18.0525 50.3622C13.5768 48.5555 9.70797 45.5443 6.90116 41.5545C6.52186 41.1028 5.83912 40.9523 5.38396 41.3286C4.9288 41.705 4.77708 42.3826 5.15638 42.8342C8.19077 47.1252 12.3631 50.4375 17.2181 52.3948C18.0525 52.6959 18.5077 53.524 18.5077 54.352V58.3419V63.6115C18.5077 66.171 20.4042 68.2788 22.9076 68.6552V70.9889C22.9076 72.645 24.2731 74.0753 26.0178 74.0753H28.9005C30.5694 74.0753 32.0108 72.7203 32.0108 70.9889V68.6552C34.5141 68.2788 36.4106 66.171 36.4106 63.6115V58.3419V54.352C36.4106 53.4487 36.9416 52.6959 37.7002 52.3948C42.707 50.3622 46.9551 46.9746 49.9895 42.5331C53.0998 38.0163 54.7687 32.6715 54.7687 27.1761C54.617 21.9817 53.0998 16.8627 50.293 12.4965Z" fill="#F20024"/>
</g>
<defs>
<clipPath id="clip0_3640_29532">
<rect width="54.619" height="74" fill="white"/>
</clipPath>
</defs>
</svg>
