<svg width="79" height="72" viewBox="0 0 79 72" fill="none" xmlns="http://www.w3.org/2000/svg">
<g clip-path="url(#clip0_2393_26769)">
<path d="M28.3501 32.1381C28.033 31.5056 27.2403 31.3474 26.6062 31.7428L12.1001 40.4399C11.7037 40.6771 11.4659 41.0724 11.4659 41.5468C11.4659 42.0212 11.7037 42.4165 12.1001 42.6537L26.6062 51.3508C26.844 51.5089 27.0025 51.5089 27.2403 51.5089C27.6367 51.5089 28.1123 51.2717 28.2708 50.8764C28.5879 50.2439 28.4294 49.5323 27.8745 49.137L15.1916 41.5468L27.8745 33.9566C28.5086 33.4822 28.7464 32.7706 28.3501 32.1381Z" fill="#FE4817"/>
<path d="M50.8626 50.7973C51.1004 51.1926 51.4967 51.4298 51.8931 51.4298C52.1309 51.4298 52.3687 51.3508 52.5272 51.2717L67.0333 42.5746C67.4297 42.3374 67.6675 41.9421 67.6675 41.4677C67.6675 40.9933 67.4297 40.598 67.0333 40.3608L52.5272 31.6637C51.9723 31.3474 51.1796 31.5056 50.7833 32.059C50.4662 32.6915 50.6248 33.4031 51.1796 33.7984L63.8626 41.3886L51.1796 48.9788C50.704 49.4532 50.4662 50.2439 50.8626 50.7973Z" fill="#FE4817"/>
<path d="M44.3626 32.059L32.7894 49.4532C32.393 50.0067 32.5516 50.7973 33.1065 51.1926C33.3443 51.3507 33.5821 51.4298 33.8199 51.4298C34.2162 51.4298 34.6126 51.2717 34.8504 50.8764L46.4235 33.4822C46.8199 32.9287 46.6613 32.1381 46.1065 31.7427C45.5516 31.3474 44.7589 31.5055 44.3626 32.059Z" fill="#FE4817"/>
<path d="M51.6552 3.51676H76.1491V11.0279H51.6552V3.51676ZM3.06376 3.51676H49.1186V11.0279H3.06376V3.51676ZM77.3382 0.986694H1.87474C1.16132 0.986694 0.606445 1.54015 0.606445 2.25173V70.7217C0.606445 71.4332 1.16132 71.9867 1.87474 71.9867H77.4174C78.1308 71.9867 78.6857 71.4332 78.6857 70.7217V57.3597C78.6857 56.6482 78.1308 56.0947 77.4174 56.0947C76.704 56.0947 76.1491 56.6482 76.1491 57.3597V69.4566H3.06376V13.4789H76.0699V52.2996C76.0699 53.0112 76.6247 53.5646 77.3382 53.5646C78.0516 53.5646 78.6064 53.0112 78.6064 52.2996V2.25173C78.6064 1.54015 78.0516 0.986694 77.3382 0.986694Z" fill="#FE4817"/>
<path d="M63.9416 5.88874C63.2281 5.88874 62.594 6.52126 62.594 7.23284C62.594 7.94442 63.2281 8.57694 63.9416 8.57694C64.655 8.57694 65.2891 7.94442 65.2891 7.23284C65.2891 6.52126 64.655 5.88874 63.9416 5.88874Z" fill="#FE4817"/>
<path d="M57.1247 5.88874C56.4113 5.88874 55.7771 6.52126 55.7771 7.23284C55.7771 7.94442 56.4113 8.57694 57.1247 8.57694C57.8381 8.57694 58.4722 7.94442 58.4722 7.23284C58.4722 6.52126 57.8381 5.88874 57.1247 5.88874Z" fill="#FE4817"/>
<path d="M70.7591 5.88874C70.0456 5.88874 69.4115 6.52126 69.4115 7.23284C69.4115 7.94442 70.0456 8.57694 70.7591 8.57694C71.4725 8.57694 72.1066 7.94442 72.1066 7.23284C72.1066 6.52126 71.4725 5.88874 70.7591 5.88874Z" fill="#FE4817"/>
</g>
<defs>
<clipPath id="clip0_2393_26769">
<rect width="78" height="71" fill="white" transform="translate(0.606445 0.986694)"/>
</clipPath>
</defs>
</svg>
