<svg width="89" height="82" viewBox="0 0 89 82" fill="none" xmlns="http://www.w3.org/2000/svg">
<g clip-path="url(#clip0_2393_26798)">
<path d="M48.8098 65.0291H40.4033C39.5984 65.0291 38.9724 65.6605 38.9724 66.4723C38.9724 67.2841 39.5984 67.9155 40.4033 67.9155H48.8098C49.6147 67.9155 50.2407 67.2841 50.2407 66.4723C50.2407 65.6605 49.6147 65.0291 48.8098 65.0291Z" fill="#FE4817"/>
<path d="M81.5413 79.1003H7.67135C5.34615 79.1003 3.4681 77.2061 3.4681 74.8609V73.4177H85.834V74.8609C85.834 77.2061 83.8665 79.1003 81.5413 79.1003ZM10.8014 58.4444H78.4112L84.8502 70.6214H4.36241L10.8014 58.4444ZM88.6063 71.9744C88.6063 71.8842 88.6063 71.8842 88.6063 71.794V71.7038C88.6063 71.6136 88.6063 71.6136 88.5169 71.5234L80.7364 56.8208V18.3052C80.7364 17.4934 80.1104 16.862 79.3055 16.862C78.5006 16.862 77.8746 17.4934 77.8746 18.3052V55.6482H11.338V16.0502C11.338 13.705 13.2161 11.8108 15.5413 11.8108H71.2567C72.0616 11.8108 72.6876 11.1794 72.6876 10.3676C72.6876 9.55575 72.0616 8.92435 71.2567 8.92435H15.5413C11.6957 8.92435 8.47623 12.0814 8.47623 15.96V56.6404L0.785171 71.4332C0.785171 71.4332 0.785171 71.5234 0.69574 71.6137V71.7038C0.69574 71.794 0.69574 71.794 0.69574 71.8842C0.69574 71.9744 0.69574 71.9745 0.69574 72.0647V74.8609C0.69574 78.7395 3.82582 81.8965 7.76078 81.8965H81.7201C85.5657 81.8965 88.7852 78.7395 88.7852 74.8609V72.0647C88.6063 72.0647 88.6063 71.9744 88.6063 71.9744Z" fill="#FE4817"/>
<path d="M79.7526 3.78297H83.777L50.3299 37.4277L39.9559 27.0547C39.4193 26.5135 38.525 26.5135 37.9884 27.0547L14.6469 50.5068C14.1104 51.048 14.1104 51.95 14.6469 52.4912C14.9152 52.7618 15.273 52.9422 15.6307 52.9422C15.9884 52.9422 16.3461 52.7618 16.6144 52.4912L38.9722 30.0313L49.3461 40.4044C49.8827 40.9456 50.777 40.9456 51.3136 40.4044L85.8339 5.76738V9.9166C85.8339 10.7284 86.46 11.3598 87.2648 11.3598C88.0697 11.3598 88.6957 10.7284 88.6957 9.9166V2.42996C88.6957 1.61816 88.0697 0.986755 87.2648 0.986755H79.7526C78.9478 0.986755 78.3217 1.61816 78.3217 2.42996C78.3217 3.15157 78.9478 3.78297 79.7526 3.78297Z" fill="#FE4817"/>
</g>
<defs>
<clipPath id="clip0_2393_26798">
<rect width="88" height="81" fill="white" transform="translate(0.606445 0.986755)"/>
</clipPath>
</defs>
</svg>
