<svg width="95" height="87" viewBox="0 0 95 87" fill="none" xmlns="http://www.w3.org/2000/svg">
<g clip-path="url(#clip0_2393_26710)">
<path d="M29.2649 32.4945H66.0434C67.2852 32.4945 68.3361 31.441 68.3361 30.1002V20.9065C68.3361 19.5657 67.2852 18.5123 66.0434 18.5123H58.1145C57.3503 18.5123 56.7771 19.1826 56.7771 19.9488C56.7771 20.7149 57.3503 21.3853 58.1145 21.3853H65.5657V29.6214H29.647V21.3853H49.3259C50.0901 21.3853 50.6633 20.7149 50.6633 19.9488C50.6633 19.1826 50.0901 18.5123 49.3259 18.5123H29.2649C28.023 18.5123 26.9722 19.5657 26.9722 20.9065V30.1002C26.9722 31.441 27.9275 32.4945 29.2649 32.4945Z" fill="#FE4817"/>
<path d="M28.1185 38.7192H33.3726C34.1368 38.7192 34.71 38.0489 34.71 37.2827C34.71 36.5166 34.1368 35.8462 33.3726 35.8462H28.1185C27.3543 35.8462 26.7811 36.5166 26.7811 37.2827C26.7811 38.0489 27.3543 38.7192 28.1185 38.7192Z" fill="#FE4817"/>
<path d="M67.0943 35.8462H61.8402C61.076 35.8462 60.5028 36.5166 60.5028 37.2827C60.5028 38.0489 61.076 38.7192 61.8402 38.7192H67.0943C67.8585 38.7192 68.4317 38.0489 68.4317 37.2827C68.4317 36.5166 67.8585 35.8462 67.0943 35.8462Z" fill="#FE4817"/>
<path d="M50.7587 37.2827C50.7587 36.5166 50.1855 35.8462 49.4213 35.8462H37.4802C36.716 35.8462 36.1428 36.5166 36.1428 37.2827C36.1428 38.0489 36.716 38.7192 37.4802 38.7192H49.3257C50.1855 38.7192 50.7587 38.0489 50.7587 37.2827Z" fill="#FE4817"/>
<path d="M58.8789 37.2827C58.8789 36.5166 58.3057 35.8462 57.5415 35.8462H53.5293C52.7651 35.8462 52.1919 36.5166 52.1919 37.2827C52.1919 38.0489 52.7651 38.7192 53.5293 38.7192H57.5415C58.2102 38.7192 58.8789 38.0489 58.8789 37.2827Z" fill="#FE4817"/>
<path d="M28.1185 44.6569H30.3157C31.0799 44.6569 31.6531 43.9865 31.6531 43.2203C31.6531 42.4542 31.0799 41.7838 30.3157 41.7838H28.1185C27.3543 41.7838 26.7811 42.4542 26.7811 43.2203C26.7811 44.0823 27.3543 44.6569 28.1185 44.6569Z" fill="#FE4817"/>
<path d="M34.5189 41.8796C33.7547 41.8796 33.1815 42.55 33.1815 43.3162C33.1815 44.0823 33.7547 44.7527 34.5189 44.7527H41.2059C41.9701 44.7527 42.5433 44.0823 42.5433 43.3162C42.5433 42.55 41.9701 41.8796 41.2059 41.8796H34.5189Z" fill="#FE4817"/>
<path d="M56.3951 44.6569H66.9033C67.6675 44.6569 68.2407 43.9865 68.2407 43.2203C68.2407 42.4542 67.6675 41.7838 66.9033 41.7838H56.3951C55.6309 41.7838 55.0577 42.4542 55.0577 43.2203C54.9622 44.0823 55.6309 44.6569 56.3951 44.6569Z" fill="#FE4817"/>
<path d="M45.2183 44.6569H52.2874C53.0516 44.6569 53.6248 43.9865 53.6248 43.2203C53.6248 42.4542 53.0516 41.7838 52.2874 41.7838H45.2183C44.454 41.7838 43.8809 42.4542 43.8809 43.2203C43.8809 44.0823 44.454 44.6569 45.2183 44.6569Z" fill="#FE4817"/>
<path d="M21.9094 59.6926H40.7285C41.4927 59.6926 42.0659 59.0223 42.0659 58.2561C42.0659 57.49 41.4927 56.8196 40.7285 56.8196H21.9094C21.1452 56.8196 20.572 57.49 20.572 58.2561C20.4765 59.118 21.1452 59.6926 21.9094 59.6926Z" fill="#FE4817"/>
<path d="M45.6959 59.6926H53.5293C54.2935 59.6926 54.8666 59.0223 54.8666 58.2561C54.8666 57.49 54.2935 56.8196 53.5293 56.8196H45.6959C44.9317 56.8196 44.3585 57.49 44.3585 58.2561C44.3585 59.118 44.9317 59.6926 45.6959 59.6926Z" fill="#FE4817"/>
<path d="M57.2549 58.3519C57.2549 59.1181 57.8281 59.7885 58.5923 59.7885H73.3037C74.068 59.7885 74.6412 59.1181 74.6412 58.3519C74.6412 57.5858 74.068 56.9154 73.3037 56.9154H58.6879C57.9236 56.9154 57.2549 57.49 57.2549 58.3519Z" fill="#FE4817"/>
<path d="M31.2712 62.7571H21.8138C21.0496 62.7571 20.4764 63.4275 20.4764 64.1936C20.4764 64.9598 21.0496 65.6302 21.8138 65.6302H31.2712C32.0354 65.6302 32.6086 64.9598 32.6086 64.1936C32.7041 63.3317 32.0354 62.7571 31.2712 62.7571Z" fill="#FE4817"/>
<path d="M58.6877 62.7571H37.8625C37.0983 62.7571 36.5251 63.4275 36.5251 64.1936C36.5251 64.9598 37.0983 65.6302 37.8625 65.6302H58.5922C59.3564 65.6302 59.9296 64.9598 59.9296 64.1936C60.0251 63.3317 59.452 62.7571 58.6877 62.7571Z" fill="#FE4817"/>
<path d="M73.3036 62.7571H62.891C62.1268 62.7571 61.5536 63.4275 61.5536 64.1936C61.5536 64.9598 62.1268 65.6302 62.891 65.6302H73.3036C74.0678 65.6302 74.641 64.9598 74.641 64.1936C74.7365 63.3317 74.0678 62.7571 73.3036 62.7571Z" fill="#FE4817"/>
<path d="M91.8361 80.9532C91.8361 82.677 90.4032 84.2093 88.6837 84.2093H6.52921C4.8097 84.2093 3.37677 82.7728 3.37677 80.9532V73.8663H31.3666L33.1816 78.0801C33.5638 78.942 34.328 79.5166 35.2833 79.5166H59.9296C60.8849 79.5166 61.6491 78.942 62.0312 78.0801L63.8463 73.8663H91.8361V80.9532ZM8.72636 20.1402C8.72636 18.608 9.96823 17.2672 11.4967 17.2672H20.2853V21.0979H16.1776C14.5536 21.0979 13.3117 22.4387 13.3117 24.0667V70.8975H8.72636V20.1402ZM60.7894 73.8663L59.643 76.6436H35.5699L34.328 73.8663H60.7894ZM26.3991 51.9353H68.9093C72.2528 51.9353 75.0231 49.1581 75.0231 45.6146V23.971H79.1308C79.2264 23.971 79.3219 24.0667 79.3219 24.1625V55.2872C79.3219 56.0534 79.8951 56.7238 80.6593 56.7238C81.4235 56.7238 81.9967 56.0534 81.9967 55.2872V24.1625C81.9967 22.5345 80.6593 21.1937 79.1308 21.1937H75.0231V17.363H83.7162C85.2447 17.363 86.4865 18.608 86.4865 20.236V71.089H81.9967V64.1937C81.9967 63.4275 81.4235 62.7572 80.6593 62.7572C79.8951 62.7572 79.3219 63.4275 79.3219 64.1937V71.089H15.9865V24.1625C15.9865 24.0667 16.0821 23.971 16.1776 23.971H20.2853V45.6146C20.1898 49.1581 22.9601 51.9353 26.3991 51.9353ZM22.9601 15.8307H72.2528V45.7104C72.2528 47.6258 70.7243 49.1581 68.9093 49.1581H26.3991C24.5841 49.1581 23.0556 47.6258 23.0556 45.7104V15.8307H22.9601ZM22.9601 7.30728C22.9601 5.39192 24.4886 3.85962 26.3036 3.85962H68.8138C70.6288 3.85962 72.1573 5.39192 72.1573 7.30728V13.0534H22.9601V7.30728ZM93.269 70.9932H89.2569V20.1402C89.2569 16.9799 86.7731 14.4899 83.7162 14.4899H74.9276V7.30728C75.0231 3.76385 72.2528 0.986572 68.8138 0.986572H26.3991C23.0556 0.986572 20.2853 3.76385 20.2853 7.30728V14.4899H11.4967C8.43978 14.4899 5.95604 16.9799 5.95604 20.1402V70.9932H1.94384C1.17962 70.9932 0.606445 71.6636 0.606445 72.4298V80.9532C0.606445 84.3051 3.28124 86.9866 6.52921 86.9866H88.7792C92.0272 86.9866 94.702 84.3051 94.702 80.9532V72.4298C94.6064 71.6636 94.0333 70.9932 93.269 70.9932Z" fill="#FE4817"/>
<path d="M28.023 7.1158C27.9274 7.1158 27.8319 7.02003 27.7364 7.02003C27.2587 6.92426 26.7811 7.1158 26.4945 7.4031C25.6348 8.26502 26.3035 9.79731 27.4498 9.79731C27.5453 9.79731 27.6409 9.79731 27.7364 9.79731C28.3096 9.70155 28.6917 9.2227 28.7872 8.64809C28.7872 8.55232 28.7872 8.45656 28.7872 8.36079C28.7872 7.97771 28.5961 7.59464 28.4051 7.4031C28.3096 7.30733 28.214 7.21157 28.023 7.1158Z" fill="#FE4817"/>
<path d="M32.5131 7.02003C32.131 6.92426 31.5578 7.1158 31.2712 7.4031C30.9846 7.69041 30.8891 8.07348 30.8891 8.36079C30.8891 8.9354 31.1757 9.41424 31.7489 9.70155C31.8444 9.70155 31.9399 9.79731 32.0354 9.79731C32.131 9.79731 32.2265 9.79731 32.322 9.79731C32.5131 9.79731 32.7041 9.79731 32.8952 9.70155C32.8952 9.70155 32.9907 9.60578 33.0863 9.60578C33.1818 9.60578 33.2773 9.51001 33.2773 9.41424C33.5639 9.12694 33.6594 8.74386 33.6594 8.45656C33.6594 8.07348 33.4684 7.69041 33.2773 7.49887C33.0863 7.21157 32.7997 7.02003 32.5131 7.02003Z" fill="#FE4817"/>
<path d="M36.8119 7.02C36.7163 7.02 36.6208 7.02 36.5253 7.11577C36.4297 7.11577 36.3342 7.21154 36.3342 7.21154C36.2387 7.3073 36.1432 7.3073 36.1432 7.40307C35.8566 7.69038 35.761 8.07345 35.761 8.36076C35.761 9.03113 36.2387 9.60575 36.9074 9.70151C37.0029 9.70151 37.0984 9.70151 37.194 9.70151C37.5761 9.70151 38.1493 9.41421 38.3403 9.03113C38.4358 8.8396 38.5314 8.45652 38.5314 8.26499C38.4358 7.49884 37.6716 6.82846 36.8119 7.02Z" fill="#FE4817"/>
</g>
<defs>
<clipPath id="clip0_2393_26710">
<rect width="94" height="86" fill="white" transform="translate(0.606445 0.986572)"/>
</clipPath>
</defs>
</svg>
