<svg width="715" height="478" viewBox="0 0 715 478" fill="none" xmlns="http://www.w3.org/2000/svg">
<g opacity="0.9" clip-path="url(#clip0_4994_26619)">
<path d="M308 226C308 212.739 313.268 200.022 322.645 190.645C332.021 181.268 344.739 176 358 176C371.261 176 383.979 181.268 393.355 190.645C402.732 200.022 408 212.739 408 226C408 239.261 402.732 251.978 393.355 261.355C383.979 270.732 371.261 276 358 276C344.739 276 332.021 270.732 322.645 261.355C313.268 251.978 308 239.261 308 226V226ZM312.545 226C312.545 238.055 317.334 249.617 325.858 258.141C334.383 266.666 345.945 271.455 358 271.455C370.055 271.455 381.617 266.666 390.142 258.141C398.666 249.617 403.455 238.055 403.455 226C403.455 213.945 398.666 202.383 390.142 193.859C381.617 185.334 370.055 180.545 358 180.545C345.945 180.545 334.383 185.334 325.858 193.859C317.334 202.383 312.545 213.945 312.545 226ZM348.91 240.41C348.824 240.082 348.824 239.738 348.91 239.41V212.865C348.891 212.62 348.92 212.374 348.997 212.14C349.073 211.907 349.195 211.691 349.355 211.505C349.68 211.131 350.141 210.901 350.635 210.865C350.948 210.779 351.277 210.779 351.59 210.865L375.14 224C375.39 224.169 375.604 224.386 375.768 224.64C375.932 224.893 376.043 225.178 376.095 225.475C376.146 225.773 376.135 226.079 376.064 226.373C375.992 226.667 375.862 226.943 375.68 227.185C375.501 227.456 375.27 227.689 375 227.87L351.405 241.23C351.145 241.362 350.857 241.43 350.565 241.43C350.222 241.429 349.886 241.334 349.594 241.153C349.302 240.973 349.065 240.716 348.91 240.41V240.41Z" fill="white"/>
<path d="M325.024 300.944V303.001H318.213V300.944H325.024ZM319.074 290.204V303.001H316.438V290.204H319.074ZM324.137 295.416V297.419H318.213V295.416H324.137ZM325.016 290.204V292.269H318.213V290.204H325.016Z" fill="white"/>
<path d="M327.767 290.204H329.999L333.286 299.599L336.573 290.204H338.806L334.183 303.001H332.39L327.767 290.204ZM326.562 290.204H328.786L329.19 299.362V303.001H326.562V290.204ZM337.786 290.204H340.019V303.001H337.382V299.362L337.786 290.204Z" fill="white"/>
<path d="M351.822 297.384H348.535L348.518 295.574H351.277C351.764 295.574 352.162 295.512 352.473 295.389C352.783 295.26 353.015 295.076 353.167 294.836C353.325 294.589 353.404 294.291 353.404 293.939C353.404 293.541 353.328 293.218 353.176 292.972C353.029 292.726 352.798 292.547 352.481 292.436C352.171 292.325 351.77 292.269 351.277 292.269H349.449V303.001H346.812V290.204H351.277C352.021 290.204 352.687 290.274 353.272 290.415C353.864 290.555 354.365 290.769 354.775 291.056C355.186 291.343 355.499 291.707 355.716 292.146C355.933 292.58 356.041 293.095 356.041 293.693C356.041 294.22 355.921 294.707 355.681 295.152C355.446 295.597 355.074 295.961 354.564 296.242C354.061 296.523 353.401 296.678 352.587 296.708L351.822 297.384ZM351.708 303.001H347.814L348.843 300.944H351.708C352.171 300.944 352.549 300.871 352.842 300.724C353.135 300.572 353.352 300.367 353.492 300.109C353.633 299.851 353.703 299.555 353.703 299.221C353.703 298.846 353.639 298.521 353.51 298.246C353.387 297.97 353.188 297.759 352.912 297.613C352.637 297.461 352.273 297.384 351.822 297.384H349.282L349.3 295.574H352.464L353.07 296.286C353.85 296.274 354.477 296.412 354.951 296.699C355.432 296.98 355.78 297.346 355.997 297.797C356.22 298.249 356.331 298.732 356.331 299.248C356.331 300.068 356.152 300.759 355.795 301.322C355.438 301.878 354.913 302.297 354.222 302.579C353.536 302.86 352.698 303.001 351.708 303.001Z" fill="white"/>
<path d="M358.309 290.204H363.081C364.06 290.204 364.9 290.35 365.604 290.643C366.312 290.936 366.857 291.37 367.238 291.944C367.619 292.518 367.81 293.224 367.81 294.062C367.81 294.748 367.692 295.336 367.458 295.829C367.229 296.315 366.904 296.722 366.482 297.05C366.066 297.373 365.577 297.63 365.015 297.824L364.18 298.263H360.031L360.014 296.207H363.099C363.562 296.207 363.945 296.125 364.25 295.961C364.555 295.796 364.783 295.568 364.936 295.275C365.094 294.982 365.173 294.642 365.173 294.255C365.173 293.845 365.097 293.491 364.944 293.192C364.792 292.893 364.561 292.665 364.25 292.506C363.939 292.348 363.55 292.269 363.081 292.269H360.945V303.001H358.309V290.204ZM365.463 303.001L362.545 297.296L365.331 297.279L368.284 302.878V303.001H365.463Z" fill="white"/>
<path d="M378.427 300.944V303.001H371.615V300.944H378.427ZM372.477 290.204V303.001H369.84V290.204H372.477ZM377.539 295.416V297.419H371.615V295.416H377.539ZM378.418 290.204V292.269H371.615V290.204H378.418Z" fill="white"/>
<path d="M384.579 300.329L387.594 290.204H390.529L386.073 303.001H384.14L384.579 300.329ZM381.802 290.204L384.808 300.329L385.265 303.001H383.313L378.884 290.204H381.802Z" fill="white"/>
<path d="M400.312 300.944V303.001H393.5V300.944H400.312ZM394.361 290.204V303.001H391.725V290.204H394.361ZM399.424 295.416V297.419H393.5V295.416H399.424ZM400.303 290.204V292.269H393.5V290.204H400.303Z" fill="white"/>
</g>
<defs>
<clipPath id="clip0_4994_26619">
<rect width="715" height="478" fill="white"/>
</clipPath>
</defs>
</svg>
