<svg width="8" height="16" viewBox="0 0 8 16" fill="none" xmlns="http://www.w3.org/2000/svg">
<path fill-rule="evenodd" clip-rule="evenodd" d="M1.90745 9.58538V15.8C1.90745 15.9268 1.97086 15.9903 2.09769 15.9903H4.95135C5.07818 15.9903 5.1416 15.9268 5.1416 15.8V7.93659H7.23428C7.36111 7.93659 7.42452 7.87318 7.42452 7.74635L7.61477 5.33659C7.61477 5.20976 7.55135 5.14635 7.42452 5.14635H5.1416V3.43416C5.1416 3.05367 5.45867 2.73659 5.83916 2.73659H7.42452C7.55135 2.73659 7.61477 2.67318 7.61477 2.54635V0.200009C7.61477 0.0731801 7.55135 0.00976562 7.42452 0.00976562H4.6977C3.11233 0.00976562 1.78062 1.27806 1.78062 2.92684V5.14635H0.322082C0.195253 5.14635 0.131836 5.20976 0.131836 5.33659V7.74635C0.131836 7.87318 0.195253 7.93659 0.322082 7.93659H1.78062V9.58538H1.90745Z" fill="#F20024"/>
</svg>
