<svg width="11" height="23" viewBox="0 0 11 23" fill="none" xmlns="http://www.w3.org/2000/svg">
<path fill-rule="evenodd" clip-rule="evenodd" d="M2.68297 13.6341V22C2.68297 22.1707 2.76834 22.2561 2.93907 22.2561H6.78053C6.95127 22.2561 7.03664 22.1707 7.03664 22V11.4146H9.85371C10.0244 11.4146 10.1098 11.3293 10.1098 11.1585L10.3659 7.91463C10.3659 7.7439 10.2805 7.65853 10.1098 7.65853H7.03664V5.35365C7.03664 4.84146 7.46346 4.41463 7.97565 4.41463H10.1098C10.2805 4.41463 10.3659 4.32926 10.3659 4.15853V0.999994C10.3659 0.829262 10.2805 0.743896 10.1098 0.743896H6.43908C4.30493 0.743896 2.51224 2.45121 2.51224 4.67073V7.65853H0.548825C0.378094 7.65853 0.292725 7.7439 0.292725 7.91463V11.1585C0.292725 11.3293 0.378094 11.4146 0.548825 11.4146H2.51224V13.6341H2.68297Z" fill="black"/>
</svg>
