<svg width="26" height="26" viewBox="0 0 26 26" fill="none" xmlns="http://www.w3.org/2000/svg">
<path fill-rule="evenodd" clip-rule="evenodd" d="M10.9074 14.5854V20.8C10.9074 20.9268 10.9709 20.9903 11.0977 20.9903H13.9514C14.0782 20.9903 14.1416 20.9268 14.1416 20.8V12.9366H16.2343C16.3611 12.9366 16.4245 12.8732 16.4245 12.7464L16.6148 10.3366C16.6148 10.2098 16.5514 10.1464 16.4245 10.1464H14.1416V8.43416C14.1416 8.05367 14.4587 7.73659 14.8392 7.73659H16.4245C16.5514 7.73659 16.6148 7.67318 16.6148 7.54635V5.20001C16.6148 5.07318 16.5514 5.00977 16.4245 5.00977H13.6977C12.1123 5.00977 10.7806 6.27806 10.7806 7.92684V10.1464H9.32208C9.19525 10.1464 9.13184 10.2098 9.13184 10.3366V12.7464C9.13184 12.8732 9.19525 12.9366 9.32208 12.9366H10.7806V14.5854H10.9074Z" fill="white"/>
</svg>
