<svg width="21" height="21" viewBox="0 0 21 21" fill="none" xmlns="http://www.w3.org/2000/svg">
<path fill-rule="evenodd" clip-rule="evenodd" d="M17.3649 4.89513C17.3649 5.59109 16.8007 6.15513 16.1049 6.15513C15.4091 6.15513 14.8449 5.59109 14.8449 4.89513C14.8449 4.19918 15.4091 3.63513 16.1049 3.63513C16.8008 3.63513 17.3649 4.19918 17.3649 4.89513ZM10.5 13.9999C8.56702 13.9999 7.00005 12.433 7.00005 10.5C7.00005 8.56702 8.56702 7.00005 10.5 7.00005C12.433 7.00005 13.9999 8.56702 13.9999 10.5C13.9999 12.433 12.433 13.9999 10.5 13.9999ZM10.5 5.10809C7.5221 5.10809 5.10809 7.5221 5.10809 10.5C5.10809 13.4779 7.5221 15.8919 10.5 15.8919C13.4779 15.8919 15.8919 13.4779 15.8919 10.5C15.8919 7.5221 13.4779 5.10809 10.5 5.10809ZM10.5 1.89197C13.3037 1.89197 13.6357 1.90263 14.7428 1.95316C15.7666 1.99992 16.3226 2.17088 16.6925 2.31476C17.1826 2.50523 17.5324 2.73279 17.8999 3.10029C18.2674 3.46762 18.4949 3.81741 18.6854 4.30762C18.8291 4.67759 19.0002 5.23359 19.047 6.25734C19.0975 7.3646 19.1082 7.69666 19.1082 10.5003C19.1082 13.304 19.0975 13.6361 19.047 14.7431C19.0002 15.7669 18.8293 16.3229 18.6854 16.6929C18.4949 17.1829 18.2674 17.5327 17.8999 17.9002C17.5325 18.2677 17.1828 18.4953 16.6925 18.6857C16.3226 18.8295 15.7666 19.0006 14.7428 19.0473C13.6357 19.0979 13.3037 19.1085 10.5 19.1085C7.69617 19.1085 7.36411 19.0979 6.25702 19.0473C5.23327 19.0006 4.67726 18.8296 4.3073 18.6857C3.81724 18.4953 3.46746 18.2677 3.09996 17.9002C2.73263 17.5329 2.50491 17.1831 2.31443 16.6929C2.17071 16.3229 1.99959 15.7669 1.95284 14.7431C1.9023 13.6359 1.89164 13.3038 1.89164 10.5003C1.89164 7.69666 1.9023 7.3646 1.95284 6.25734C1.99959 5.23359 2.17055 4.67759 2.31443 4.30762C2.50491 3.81757 2.73246 3.46779 3.09996 3.10029C3.4673 2.73279 3.81708 2.50523 4.3073 2.31476C4.67726 2.17104 5.23327 1.99992 6.25702 1.95316C7.36427 1.90263 7.69634 1.89197 10.5 1.89197ZM10.5 0C7.64843 0 7.29077 0.0121408 6.17088 0.0631642C5.05329 0.114188 4.28991 0.291703 3.62217 0.55125C2.93163 0.819492 2.34609 1.17863 1.76236 1.76236C1.17863 2.34609 0.819492 2.93163 0.55125 3.62217C0.291703 4.29007 0.114188 5.05329 0.0631642 6.17088C0.0121408 7.29077 0 7.64843 0 10.5C0 13.3516 0.0121408 13.7092 0.0631642 14.8291C0.114188 15.9467 0.291703 16.7099 0.55125 17.3778C0.819492 18.0684 1.17863 18.6539 1.76236 19.2376C2.34609 19.8214 2.93163 20.1803 3.62217 20.4487C4.29007 20.7083 5.05329 20.8858 6.17088 20.9368C7.29077 20.9879 7.64843 21 10.5 21C13.3516 21 13.7092 20.9879 14.8291 20.9368C15.9467 20.8858 16.7099 20.7083 17.3778 20.4487C18.0684 20.1803 18.6539 19.8214 19.2376 19.2376C19.8214 18.6539 20.1803 18.0684 20.4487 17.3778C20.7083 16.7099 20.8858 15.9467 20.9368 14.8291C20.9879 13.7092 21 13.3516 21 10.5C21 7.64843 20.9879 7.29077 20.9368 6.17088C20.8858 5.05329 20.7083 4.29007 20.4487 3.62217C20.1803 2.93163 19.8214 2.34609 19.2376 1.76236C18.6539 1.17863 18.0684 0.819656 17.3778 0.55125C16.7099 0.291703 15.9467 0.114188 14.8291 0.0631642C13.7092 0.0121408 13.3516 0 10.5 0Z" fill="black"/>
</svg>
