<svg width="16" height="17" viewBox="0 0 16 17" fill="none" xmlns="http://www.w3.org/2000/svg">
<path fill-rule="evenodd" clip-rule="evenodd" d="M13.0998 4.10977C13.0998 4.62677 12.6807 5.04577 12.1638 5.04577C11.6469 5.04577 11.2278 4.62677 11.2278 4.10977C11.2278 3.59278 11.6469 3.17377 12.1638 3.17377C12.6808 3.17377 13.0998 3.59278 13.0998 4.10977ZM8.0002 10.8733C6.56426 10.8733 5.40024 9.70932 5.40024 8.27339C5.40024 6.83746 6.56426 5.67343 8.0002 5.67343C9.43613 5.67343 10.6002 6.83746 10.6002 8.27339C10.6002 9.70932 9.43613 10.8733 8.0002 10.8733ZM8.0002 4.26797C5.78804 4.26797 3.99477 6.06124 3.99477 8.27339C3.99477 10.4855 5.78804 12.2788 8.0002 12.2788C10.2123 12.2788 12.0056 10.4855 12.0056 8.27339C12.0056 6.06124 10.2123 4.26797 8.0002 4.26797ZM8.0002 1.87885C10.0829 1.87885 10.3296 1.88677 11.152 1.92431C11.9125 1.95904 12.3255 2.08604 12.6004 2.19292C12.9644 2.33442 13.2242 2.50346 13.4972 2.77646C13.7702 3.04934 13.9393 3.30918 14.0808 3.67334C14.1875 3.94817 14.3147 4.3612 14.3494 5.1217C14.3869 5.94424 14.3949 6.19091 14.3949 8.27363C14.3949 10.3564 14.3869 10.603 14.3494 11.4254C14.3147 12.1859 14.1877 12.599 14.0808 12.8738C13.9393 13.2378 13.7702 13.4977 13.4972 13.7707C13.2244 14.0437 12.9645 14.2127 12.6004 14.3542C12.3255 14.461 11.9125 14.5881 11.152 14.6228C10.3296 14.6604 10.0829 14.6683 8.0002 14.6683C5.91735 14.6683 5.67068 14.6604 4.84826 14.6228C4.08776 14.5881 3.67473 14.4611 3.3999 14.3542C3.03586 14.2127 2.77602 14.0437 2.50302 13.7707C2.23015 13.4978 2.06098 13.238 1.91949 12.8738C1.81272 12.599 1.68561 12.1859 1.65087 11.4254C1.61334 10.6029 1.60541 10.3562 1.60541 8.27363C1.60541 6.19091 1.61334 5.94424 1.65087 5.1217C1.68561 4.3612 1.8126 3.94817 1.91949 3.67334C2.06098 3.3093 2.23002 3.04946 2.50302 2.77646C2.7759 2.50346 3.03574 2.33442 3.3999 2.19292C3.67473 2.08616 4.08776 1.95904 4.84826 1.92431C5.6708 1.88677 5.91747 1.87885 8.0002 1.87885ZM8.0002 0.473389C5.88189 0.473389 5.6162 0.482408 4.78428 0.520311C3.95407 0.558214 3.38698 0.690082 2.89095 0.882889C2.37798 1.08215 1.94301 1.34894 1.50938 1.78257C1.07575 2.2162 0.808961 2.65117 0.609695 3.16414C0.416889 3.6603 0.28502 4.22726 0.247117 5.05747C0.209214 5.88939 0.200195 6.15508 0.200195 8.27339C0.200195 10.3917 0.209214 10.6574 0.247117 11.4893C0.28502 12.3195 0.416889 12.8865 0.609695 13.3826C0.808961 13.8956 1.07575 14.3306 1.50938 14.7642C1.94301 15.1978 2.37798 15.4645 2.89095 15.6639C3.3871 15.8567 3.95407 15.9886 4.78428 16.0265C5.6162 16.0644 5.88189 16.0734 8.0002 16.0734C10.1185 16.0734 10.3842 16.0644 11.2161 16.0265C12.0463 15.9886 12.6133 15.8567 13.1094 15.6639C13.6224 15.4645 14.0574 15.1978 14.491 14.7642C14.9246 14.3306 15.1913 13.8956 15.3907 13.3826C15.5835 12.8865 15.7154 12.3195 15.7533 11.4893C15.7912 10.6574 15.8002 10.3917 15.8002 8.27339C15.8002 6.15508 15.7912 5.88939 15.7533 5.05747C15.7154 4.22726 15.5835 3.6603 15.3907 3.16414C15.1913 2.65117 14.9246 2.2162 14.491 1.78257C14.0574 1.34894 13.6224 1.08228 13.1094 0.882889C12.6133 0.690082 12.0463 0.558214 11.2161 0.520311C10.3842 0.482408 10.1185 0.473389 8.0002 0.473389Z" fill="#F20024"/>
</svg>
