<svg width="16" height="14" viewBox="0 0 16 14" fill="none" xmlns="http://www.w3.org/2000/svg">
<path d="M12.5024 10.1905C13.1366 9.30274 13.7073 8.2881 13.9609 7.21005C14.2146 6.19542 14.3414 5.18078 14.3414 4.16615C14.3414 4.03932 14.4683 4.03932 14.5317 3.97591C15.039 3.59542 15.4195 3.15152 15.8 2.70761C15.8634 2.58078 15.8634 2.51737 15.8634 2.45396C15.8634 2.39054 15.8634 2.45396 15.8 2.45396C15.2927 2.70761 14.7853 2.83444 14.2146 2.89786C14.4683 2.83444 14.8488 2.39054 14.9756 2.2003C15.2292 1.94664 15.4195 1.56615 15.4829 1.24908V1.18566C15.4195 1.18566 15.4195 1.18566 15.4195 1.18566C14.8488 1.50274 14.2146 1.75639 13.517 1.88322C13.4536 1.88322 13.4536 1.88322 13.3902 1.81981C13.3268 1.75639 13.2634 1.69298 13.2 1.62957C12.9463 1.37591 12.6292 1.18566 12.3122 1.05883C11.8683 0.86859 11.4244 0.805176 10.917 0.805176C10.4731 0.805176 10.0292 0.995419 9.58534 1.18566C9.20485 1.37591 8.82436 1.69298 8.50729 2.07347C8.19022 2.45396 7.99997 2.89786 7.87314 3.34176C7.74631 3.78566 7.74631 4.22957 7.80973 4.67347L5.78046 4.35639C4.06826 3.84908 2.54631 2.96127 1.27802 1.50274C1.21461 1.43932 1.15119 1.43932 1.08778 1.50274C0.326801 2.6442 0.707289 4.48322 1.65851 5.37103C1.78534 5.49786 1.91217 5.62469 2.039 5.6881C1.97558 5.6881 1.34144 5.62469 0.770704 5.37103C0.707289 5.30761 0.643874 5.37103 0.643874 5.43444C0.643874 5.56127 0.643874 5.6881 0.643874 5.81493C0.770703 6.9564 1.59509 8.03444 2.67314 8.47835C2.79997 8.54176 2.9268 8.60518 3.11704 8.60518C2.86339 8.66859 2.60973 8.66859 1.91217 8.66859C1.84875 8.66859 1.78534 8.66859 1.84875 8.79542C2.35607 10.254 3.56095 10.6979 4.38534 10.9515C4.51217 10.9515 4.639 10.9515 4.70241 11.0149C4.38534 11.4588 3.43412 11.7759 2.9268 11.9661C2.10241 12.2832 1.15119 12.4101 0.263386 12.2832C0.136557 12.2832 0.0731421 12.2832 0.0731421 12.2832C0.0097275 12.2832 0.0731424 12.3466 0.136557 12.4101C0.263386 12.4735 0.390216 12.6003 0.580459 12.6637C0.960947 12.854 1.40485 13.1076 1.78534 13.2344C4.13168 14.0588 6.79509 14.0588 9.07802 13.0442C10.4731 12.3466 11.6146 11.332 12.5024 10.1905Z" fill="#F20024"/>
<path fill-rule="evenodd" clip-rule="evenodd" d="M4.82922 13.7418C4.89263 13.7418 6.16092 13.7418 4.82922 13.7418V13.7418Z" fill="#F20024"/>
<path fill-rule="evenodd" clip-rule="evenodd" d="M5.33656 13.7418C5.65364 13.7418 5.33656 13.6783 5.33656 13.7418V13.7418Z" fill="#F20024"/>
</svg>
