<svg width="990" height="282" viewBox="0 0 990 282" fill="none" xmlns="http://www.w3.org/2000/svg">
<path d="M170.143 107.989V134.559H92.8525V28.2786H155.653L170.143 42.7686V69.3386" stroke="black" stroke-width="3" stroke-miterlimit="10"/>
<path d="M165.313 47.5985H150.823V33.1085" stroke="black" stroke-width="3" stroke-miterlimit="10"/>
<path d="M120.913 120.069H101.593" stroke="black" stroke-width="3" stroke-miterlimit="10"/>
<path d="M153.513 68.0686H101.593" stroke="black" stroke-width="3" stroke-miterlimit="10"/>
<path d="M153.513 84.0686H101.593" stroke="black" stroke-width="3" stroke-miterlimit="10"/>
<path d="M153.513 100.069H101.593" stroke="black" stroke-width="3" stroke-miterlimit="10"/>
<path d="M110.891 46.1385C110.802 46.1385 110.744 46.094 110.718 46.0048L108.017 36.9667L108.003 36.9132C108.003 36.8241 108.053 36.7795 108.151 36.7795H110.196C110.294 36.7795 110.357 36.8241 110.383 36.9132L111.921 42.9966C111.93 43.0233 111.943 43.0367 111.961 43.0367C111.979 43.0367 111.992 43.0233 112.001 42.9966L113.512 36.9132C113.539 36.8241 113.601 36.7795 113.699 36.7795H115.705C115.758 36.7795 115.798 36.7974 115.825 36.833C115.852 36.8687 115.856 36.9132 115.838 36.9667L113.097 46.0048C113.071 46.094 113.013 46.1385 112.924 46.1385H110.891ZM121.538 46.1385C121.44 46.1385 121.377 46.094 121.35 46.0048L121.003 44.8149C120.985 44.7793 120.963 44.7614 120.936 44.7614H117.888C117.861 44.7614 117.839 44.7793 117.821 44.8149L117.473 46.0048C117.446 46.094 117.384 46.1385 117.286 46.1385H115.24C115.187 46.1385 115.147 46.1252 115.12 46.0984C115.093 46.0628 115.089 46.0138 115.107 45.9514L117.968 36.9132C117.995 36.8241 118.052 36.7795 118.142 36.7795H120.669C120.758 36.7795 120.816 36.8241 120.842 36.9132L123.717 45.9514C123.726 45.9692 123.73 45.9915 123.73 46.0182C123.73 46.0984 123.681 46.1385 123.583 46.1385H121.538ZM118.356 42.9699C118.347 43.0233 118.364 43.0501 118.409 43.0501H120.401C120.455 43.0501 120.472 43.0233 120.455 42.9699L119.439 39.5338C119.43 39.4981 119.416 39.4847 119.398 39.4937C119.381 39.4937 119.367 39.507 119.358 39.5338L118.356 42.9699ZM124.871 46.1385C124.827 46.1385 124.787 46.1252 124.751 46.0984C124.724 46.0628 124.711 46.0227 124.711 45.9781V36.94C124.711 36.8954 124.724 36.8598 124.751 36.833C124.787 36.7974 124.827 36.7795 124.871 36.7795H126.77C126.814 36.7795 126.85 36.7974 126.877 36.833C126.912 36.8598 126.93 36.8954 126.93 36.94V44.1732C126.93 44.2177 126.952 44.24 126.997 44.24H131.262C131.307 44.24 131.342 44.2578 131.369 44.2935C131.405 44.3202 131.423 44.3559 131.423 44.4004V45.9781C131.423 46.0227 131.405 46.0628 131.369 46.0984C131.342 46.1252 131.307 46.1385 131.262 46.1385H124.871ZM135.734 46.2856C135.012 46.2856 134.375 46.143 133.822 45.8578C133.278 45.5636 132.855 45.1536 132.552 44.6277C132.249 44.1019 132.097 43.4913 132.097 42.796V40.122C132.097 39.4446 132.249 38.8474 132.552 38.3305C132.855 37.8046 133.278 37.399 133.822 37.1138C134.375 36.8197 135.012 36.6726 135.734 36.6726C136.456 36.6726 137.093 36.8197 137.646 37.1138C138.199 37.399 138.626 37.8046 138.929 38.3305C139.233 38.8474 139.384 39.4446 139.384 40.122V42.796C139.384 43.4913 139.233 44.1019 138.929 44.6277C138.626 45.1536 138.199 45.5636 137.646 45.8578C137.093 46.143 136.456 46.2856 135.734 46.2856ZM135.734 44.3871C136.162 44.3871 136.505 44.2489 136.764 43.9726C137.031 43.6963 137.165 43.3264 137.165 42.8629V40.0953C137.165 39.6407 137.031 39.2753 136.764 38.999C136.505 38.7137 136.162 38.5711 135.734 38.5711C135.315 38.5711 134.972 38.7137 134.705 38.999C134.446 39.2753 134.317 39.6407 134.317 40.0953V42.8629C134.317 43.3264 134.446 43.6963 134.705 43.9726C134.972 44.2489 135.315 44.3871 135.734 44.3871ZM145.562 46.1385C145.473 46.1385 145.411 46.0984 145.375 46.0182L143.797 42.4618C143.78 42.4261 143.753 42.4083 143.717 42.4083H142.835C142.79 42.4083 142.768 42.4306 142.768 42.4752V45.9781C142.768 46.0227 142.75 46.0628 142.714 46.0984C142.688 46.1252 142.652 46.1385 142.607 46.1385H140.709C140.664 46.1385 140.624 46.1252 140.589 46.0984C140.562 46.0628 140.548 46.0227 140.548 45.9781V36.94C140.548 36.8954 140.562 36.8598 140.589 36.833C140.624 36.7974 140.664 36.7795 140.709 36.7795H144.68C145.268 36.7795 145.785 36.8999 146.231 37.1405C146.676 37.3812 147.02 37.7244 147.26 38.17C147.51 38.6068 147.635 39.1104 147.635 39.6808C147.635 40.278 147.488 40.795 147.193 41.2318C146.899 41.6685 146.489 41.9849 145.963 42.181C145.919 42.1989 145.905 42.2301 145.923 42.2746L147.688 45.9514C147.706 45.987 147.715 46.0138 147.715 46.0316C147.715 46.1029 147.666 46.1385 147.568 46.1385H145.562ZM142.835 38.6781C142.79 38.6781 142.768 38.7004 142.768 38.7449V40.6435C142.768 40.688 142.79 40.7103 142.835 40.7103H144.319C144.649 40.7103 144.916 40.6212 145.121 40.4429C145.326 40.2557 145.429 40.0106 145.429 39.7076C145.429 39.3956 145.326 39.146 145.121 38.9589C144.916 38.7717 144.649 38.6781 144.319 38.6781H142.835Z" fill="#582689"/>
<path d="M93.5125 110.559H39.8525V4.27856H102.653L117.143 18.7786V28.0786" stroke="black" stroke-width="3" stroke-miterlimit="10"/>
<path d="M93.0125 44.0686H48.5925" stroke="black" stroke-width="3" stroke-miterlimit="10"/>
<path d="M93.0125 60.0686H48.5925" stroke="black" stroke-width="3" stroke-miterlimit="10"/>
<path d="M93.0125 76.0686H48.5925" stroke="black" stroke-width="3" stroke-miterlimit="10"/>
<path d="M57.8914 22.1385C57.8023 22.1385 57.7443 22.094 57.7176 22.0048L55.0169 12.9667L55.0035 12.9132C55.0035 12.8241 55.0525 12.7795 55.1506 12.7795H57.1962C57.2942 12.7795 57.3566 12.8241 57.3834 12.9132L58.9209 18.9966C58.9298 19.0233 58.9432 19.0367 58.961 19.0367C58.9788 19.0367 58.9922 19.0233 59.0011 18.9966L60.5119 12.9132C60.5387 12.8241 60.6011 12.7795 60.6991 12.7795H62.7046C62.7581 12.7795 62.7982 12.7974 62.8249 12.833C62.8517 12.8687 62.8561 12.9132 62.8383 12.9667L60.0975 22.0048C60.0707 22.094 60.0128 22.1385 59.9237 22.1385H57.8914ZM68.5376 22.1385C68.4395 22.1385 68.3772 22.094 68.3504 22.0048L68.0028 20.8149C67.985 20.7793 67.9627 20.7614 67.9359 20.7614H64.8876C64.8608 20.7614 64.8386 20.7793 64.8207 20.8149L64.4731 22.0048C64.4464 22.094 64.384 22.1385 64.2859 22.1385H62.2403C62.1868 22.1385 62.1467 22.1252 62.12 22.0984C62.0933 22.0628 62.0888 22.0138 62.1066 21.9514L64.9678 12.9132C64.9945 12.8241 65.0525 12.7795 65.1416 12.7795H67.6685C67.7577 12.7795 67.8156 12.8241 67.8424 12.9132L70.7169 21.9514C70.7258 21.9692 70.7303 21.9915 70.7303 22.0182C70.7303 22.0984 70.6813 22.1385 70.5832 22.1385H68.5376ZM65.3555 18.9699C65.3466 19.0233 65.3644 19.0501 65.409 19.0501H67.4011C67.4546 19.0501 67.4725 19.0233 67.4546 18.9699L66.4385 15.5338C66.4296 15.4981 66.4162 15.4847 66.3984 15.4937C66.3806 15.4937 66.3672 15.507 66.3583 15.5338L65.3555 18.9699ZM71.8712 22.1385C71.8266 22.1385 71.7865 22.1252 71.7509 22.0984C71.7241 22.0628 71.7108 22.0227 71.7108 21.9781V12.94C71.7108 12.8954 71.7241 12.8598 71.7509 12.833C71.7865 12.7974 71.8266 12.7795 71.8712 12.7795H73.7698C73.8143 12.7795 73.85 12.7974 73.8767 12.833C73.9124 12.8598 73.9302 12.8954 73.9302 12.94V20.1732C73.9302 20.2177 73.9525 20.24 73.997 20.24H78.2621C78.3066 20.24 78.3423 20.2578 78.369 20.2935C78.4047 20.3202 78.4225 20.3559 78.4225 20.4004V21.9781C78.4225 22.0227 78.4047 22.0628 78.369 22.0984C78.3423 22.1252 78.3066 22.1385 78.2621 22.1385H71.8712ZM82.734 22.2856C82.012 22.2856 81.3747 22.143 80.8221 21.8578C80.2784 21.5636 79.855 21.1536 79.552 20.6277C79.2489 20.1019 79.0974 19.4913 79.0974 18.796V16.122C79.0974 15.4446 79.2489 14.8474 79.552 14.3305C79.855 13.8046 80.2784 13.399 80.8221 13.1138C81.3747 12.8197 82.012 12.6726 82.734 12.6726C83.456 12.6726 84.0933 12.8197 84.6459 13.1138C85.1986 13.399 85.6264 13.8046 85.9295 14.3305C86.2325 14.8474 86.384 15.4446 86.384 16.122V18.796C86.384 19.4913 86.2325 20.1019 85.9295 20.6277C85.6264 21.1536 85.1986 21.5636 84.6459 21.8578C84.0933 22.143 83.456 22.2856 82.734 22.2856ZM82.734 20.3871C83.1619 20.3871 83.505 20.2489 83.7635 19.9726C84.0309 19.6963 84.1646 19.3264 84.1646 18.8629V16.0953C84.1646 15.6407 84.0309 15.2753 83.7635 14.999C83.505 14.7137 83.1619 14.5711 82.734 14.5711C82.3151 14.5711 81.9719 14.7137 81.7045 14.999C81.4461 15.2753 81.3168 15.6407 81.3168 16.0953V18.8629C81.3168 19.3264 81.4461 19.6963 81.7045 19.9726C81.9719 20.2489 82.3151 20.3871 82.734 20.3871ZM92.5622 22.1385C92.4731 22.1385 92.4107 22.0984 92.375 22.0182L90.7974 18.4618C90.7796 18.4261 90.7528 18.4083 90.7172 18.4083H89.8347C89.7902 18.4083 89.7679 18.4306 89.7679 18.4752V21.9781C89.7679 22.0227 89.7501 22.0628 89.7144 22.0984C89.6877 22.1252 89.652 22.1385 89.6075 22.1385H87.7089C87.6644 22.1385 87.6242 22.1252 87.5886 22.0984C87.5618 22.0628 87.5485 22.0227 87.5485 21.9781V12.94C87.5485 12.8954 87.5618 12.8598 87.5886 12.833C87.6242 12.7974 87.6644 12.7795 87.7089 12.7795H91.6798C92.2681 12.7795 92.7851 12.8999 93.2307 13.1405C93.6764 13.3812 94.0196 13.7244 94.2602 14.17C94.5098 14.6068 94.6346 15.1104 94.6346 15.6808C94.6346 16.278 94.4875 16.795 94.1934 17.2318C93.8992 17.6685 93.4892 17.9849 92.9633 18.181C92.9188 18.1989 92.9054 18.2301 92.9232 18.2746L94.6881 21.9514C94.7059 21.987 94.7148 22.0138 94.7148 22.0316C94.7148 22.1029 94.6658 22.1385 94.5677 22.1385H92.5622ZM89.8347 14.6781C89.7902 14.6781 89.7679 14.7004 89.7679 14.7449V16.6435C89.7679 16.688 89.7902 16.7103 89.8347 16.7103H91.3188C91.6486 16.7103 91.916 16.6212 92.121 16.4429C92.326 16.2557 92.4285 16.0106 92.4285 15.7076C92.4285 15.3956 92.326 15.146 92.121 14.9589C91.916 14.7717 91.6486 14.6781 91.3188 14.6781H89.8347Z" fill="#582689"/>
<path d="M224.143 83.9885V110.559H170.953" stroke="black" stroke-width="3" stroke-miterlimit="10"/>
<path d="M146.853 28.2686V4.27856H209.653L224.143 18.7786V45.3386" stroke="black" stroke-width="3" stroke-miterlimit="10"/>
<path d="M207.512 44.0686H177.012" stroke="black" stroke-width="3" stroke-miterlimit="10"/>
<path d="M207.512 60.0686H177.012" stroke="black" stroke-width="3" stroke-miterlimit="10"/>
<path d="M207.512 76.0686H183.512" stroke="black" stroke-width="3" stroke-miterlimit="10"/>
<path d="M164.891 22.1385C164.802 22.1385 164.744 22.094 164.718 22.0048L162.017 12.9667L162.003 12.9132C162.003 12.8241 162.053 12.7795 162.151 12.7795H164.196C164.294 12.7795 164.357 12.8241 164.383 12.9132L165.921 18.9966C165.93 19.0233 165.943 19.0367 165.961 19.0367C165.979 19.0367 165.992 19.0233 166.001 18.9966L167.512 12.9132C167.539 12.8241 167.601 12.7795 167.699 12.7795H169.705C169.758 12.7795 169.798 12.7974 169.825 12.833C169.852 12.8687 169.856 12.9132 169.838 12.9667L167.097 22.0048C167.071 22.094 167.013 22.1385 166.924 22.1385H164.891ZM175.538 22.1385C175.44 22.1385 175.377 22.094 175.35 22.0048L175.003 20.8149C174.985 20.7793 174.963 20.7614 174.936 20.7614H171.888C171.861 20.7614 171.839 20.7793 171.821 20.8149L171.473 22.0048C171.446 22.094 171.384 22.1385 171.286 22.1385H169.24C169.187 22.1385 169.147 22.1252 169.12 22.0984C169.093 22.0628 169.089 22.0138 169.107 21.9514L171.968 12.9132C171.995 12.8241 172.052 12.7795 172.142 12.7795H174.669C174.758 12.7795 174.816 12.8241 174.842 12.9132L177.717 21.9514C177.726 21.9692 177.73 21.9915 177.73 22.0182C177.73 22.0984 177.681 22.1385 177.583 22.1385H175.538ZM172.356 18.9699C172.347 19.0233 172.364 19.0501 172.409 19.0501H174.401C174.455 19.0501 174.472 19.0233 174.455 18.9699L173.439 15.5338C173.43 15.4981 173.416 15.4847 173.398 15.4937C173.381 15.4937 173.367 15.507 173.358 15.5338L172.356 18.9699ZM178.871 22.1385C178.827 22.1385 178.787 22.1252 178.751 22.0984C178.724 22.0628 178.711 22.0227 178.711 21.9781V12.94C178.711 12.8954 178.724 12.8598 178.751 12.833C178.787 12.7974 178.827 12.7795 178.871 12.7795H180.77C180.814 12.7795 180.85 12.7974 180.877 12.833C180.912 12.8598 180.93 12.8954 180.93 12.94V20.1732C180.93 20.2177 180.952 20.24 180.997 20.24H185.262C185.307 20.24 185.342 20.2578 185.369 20.2935C185.405 20.3202 185.423 20.3559 185.423 20.4004V21.9781C185.423 22.0227 185.405 22.0628 185.369 22.0984C185.342 22.1252 185.307 22.1385 185.262 22.1385H178.871ZM189.734 22.2856C189.012 22.2856 188.375 22.143 187.822 21.8578C187.278 21.5636 186.855 21.1536 186.552 20.6277C186.249 20.1019 186.097 19.4913 186.097 18.796V16.122C186.097 15.4446 186.249 14.8474 186.552 14.3305C186.855 13.8046 187.278 13.399 187.822 13.1138C188.375 12.8197 189.012 12.6726 189.734 12.6726C190.456 12.6726 191.093 12.8197 191.646 13.1138C192.199 13.399 192.626 13.8046 192.929 14.3305C193.233 14.8474 193.384 15.4446 193.384 16.122V18.796C193.384 19.4913 193.233 20.1019 192.929 20.6277C192.626 21.1536 192.199 21.5636 191.646 21.8578C191.093 22.143 190.456 22.2856 189.734 22.2856ZM189.734 20.3871C190.162 20.3871 190.505 20.2489 190.764 19.9726C191.031 19.6963 191.165 19.3264 191.165 18.8629V16.0953C191.165 15.6407 191.031 15.2753 190.764 14.999C190.505 14.7137 190.162 14.5711 189.734 14.5711C189.315 14.5711 188.972 14.7137 188.705 14.999C188.446 15.2753 188.317 15.6407 188.317 16.0953V18.8629C188.317 19.3264 188.446 19.6963 188.705 19.9726C188.972 20.2489 189.315 20.3871 189.734 20.3871ZM199.562 22.1385C199.473 22.1385 199.411 22.0984 199.375 22.0182L197.797 18.4618C197.78 18.4261 197.753 18.4083 197.717 18.4083H196.835C196.79 18.4083 196.768 18.4306 196.768 18.4752V21.9781C196.768 22.0227 196.75 22.0628 196.714 22.0984C196.688 22.1252 196.652 22.1385 196.607 22.1385H194.709C194.664 22.1385 194.624 22.1252 194.589 22.0984C194.562 22.0628 194.548 22.0227 194.548 21.9781V12.94C194.548 12.8954 194.562 12.8598 194.589 12.833C194.624 12.7974 194.664 12.7795 194.709 12.7795H198.68C199.268 12.7795 199.785 12.8999 200.231 13.1405C200.676 13.3812 201.02 13.7244 201.26 14.17C201.51 14.6068 201.635 15.1104 201.635 15.6808C201.635 16.278 201.488 16.795 201.193 17.2318C200.899 17.6685 200.489 17.9849 199.963 18.181C199.919 18.1989 199.905 18.2301 199.923 18.2746L201.688 21.9514C201.706 21.987 201.715 22.0138 201.715 22.0316C201.715 22.1029 201.666 22.1385 201.568 22.1385H199.562ZM196.835 14.6781C196.79 14.6781 196.768 14.7004 196.768 14.7449V16.6435C196.768 16.688 196.79 16.7103 196.835 16.7103H198.319C198.649 16.7103 198.916 16.6212 199.121 16.4429C199.326 16.2557 199.429 16.0106 199.429 15.7076C199.429 15.3956 199.326 15.146 199.121 14.9589C198.916 14.7717 198.649 14.6781 198.319 14.6781H196.835Z" fill="#582689"/>
<path d="M172.353 78.6486C174.023 78.6486 175.353 80.4186 175.353 82.6486C175.353 82.9933 175.49 83.324 175.733 83.5678C175.977 83.8116 176.308 83.9485 176.653 83.9485C176.997 83.9485 177.328 83.8116 177.572 83.5678C177.816 83.324 177.953 82.9933 177.953 82.6486C177.953 79.0286 175.423 76.0885 172.323 76.0885H170.973V74.1886C170.973 73.8438 170.836 73.5131 170.592 73.2693C170.348 73.0255 170.017 72.8885 169.673 72.8885C169.328 72.8885 168.997 73.0255 168.753 73.2693C168.51 73.5131 168.373 73.8438 168.373 74.1886V76.0885H167.023C163.913 76.0885 161.393 79.0286 161.393 82.6486C161.393 86.2686 163.913 89.1985 167.023 89.1985H168.373V97.1086H167.023C165.353 97.1086 164.023 95.3386 164.023 93.1086C164.038 92.9289 164.017 92.748 163.959 92.5772C163.901 92.4064 163.808 92.2496 163.686 92.1166C163.564 91.9836 163.416 91.8774 163.251 91.8048C163.086 91.7322 162.908 91.6946 162.728 91.6946C162.547 91.6946 162.369 91.7322 162.204 91.8048C162.039 91.8774 161.891 91.9836 161.769 92.1166C161.647 92.2496 161.554 92.4064 161.496 92.5772C161.439 92.748 161.417 92.9289 161.433 93.1086C161.433 96.7186 163.953 99.6585 167.063 99.6585H168.413V101.559C168.413 101.903 168.55 102.234 168.793 102.478C169.037 102.722 169.368 102.859 169.713 102.859C170.057 102.859 170.388 102.722 170.632 102.478C170.876 102.234 171.013 101.903 171.013 101.559V99.6585H172.353C175.453 99.6585 177.983 96.7186 177.983 93.1086C177.983 89.4986 175.453 86.5485 172.353 86.5485H171.003V78.6486H172.353ZM168.403 86.5585H167.053C165.383 86.5585 164.053 84.7885 164.053 82.5585C164.053 80.3285 165.423 78.5585 167.053 78.5585H168.403V86.5585ZM172.353 89.1585C174.023 89.1585 175.353 90.9285 175.353 93.1585C175.353 95.3885 173.993 97.1585 172.353 97.1585H171.003V89.1585H172.353Z" fill="#582689"/>
<path d="M226.353 55.6485C228.023 55.6485 229.353 57.4185 229.353 59.6485C229.353 59.9933 229.49 60.324 229.733 60.5678C229.977 60.8116 230.308 60.9485 230.653 60.9485C230.997 60.9485 231.328 60.8116 231.572 60.5678C231.816 60.324 231.953 59.9933 231.953 59.6485C231.953 56.0285 229.423 53.0886 226.323 53.0886H224.973V51.1885C224.973 50.8438 224.836 50.5131 224.592 50.2693C224.348 50.0255 224.017 49.8885 223.673 49.8885C223.328 49.8885 222.997 50.0255 222.753 50.2693C222.51 50.5131 222.373 50.8438 222.373 51.1885V53.0886H221.023C217.913 53.0886 215.393 56.0285 215.393 59.6485C215.393 63.2685 217.913 66.1985 221.023 66.1985H222.373V74.1086H221.023C219.353 74.1086 218.023 72.3386 218.023 70.1086C218.038 69.9289 218.017 69.748 217.959 69.5772C217.901 69.4064 217.808 69.2496 217.686 69.1166C217.564 68.9836 217.416 68.8774 217.251 68.8048C217.086 68.7322 216.908 68.6946 216.728 68.6946C216.547 68.6946 216.369 68.7322 216.204 68.8048C216.039 68.8774 215.891 68.9836 215.769 69.1166C215.647 69.2496 215.554 69.4064 215.496 69.5772C215.439 69.748 215.417 69.9289 215.433 70.1086C215.433 73.7186 217.953 76.6585 221.063 76.6585H222.413V78.5585C222.413 78.9033 222.55 79.234 222.793 79.4778C223.037 79.7216 223.368 79.8586 223.713 79.8586C224.057 79.8586 224.388 79.7216 224.632 79.4778C224.876 79.234 225.013 78.9033 225.013 78.5585V76.6585H226.353C229.453 76.6585 231.983 73.7186 231.983 70.1086C231.983 66.4986 229.453 63.5485 226.353 63.5485H225.003V55.6485H226.353ZM222.403 63.5585H221.053C219.383 63.5585 218.053 61.7885 218.053 59.5585C218.053 57.3285 219.423 55.5585 221.053 55.5585H222.403V63.5585ZM226.353 66.1586C228.023 66.1586 229.353 67.9285 229.353 70.1585C229.353 72.3885 227.993 74.1585 226.353 74.1585H225.003V66.1586H226.353Z" fill="#582689"/>
<path d="M29.1705 213.233V218.113H26.9505V204.413H32.1505C35.2438 204.413 36.7905 205.867 36.7905 208.773C36.7905 210.72 36.0438 212.04 34.5505 212.733L36.8105 218.113H34.3705L32.3905 213.233H29.1705ZM34.5105 208.793C34.5105 207.153 33.7238 206.333 32.1505 206.333H29.1705V211.313H32.1905C32.9905 211.313 33.5772 211.087 33.9505 210.633C34.3238 210.167 34.5105 209.553 34.5105 208.793ZM39.3138 218.113V204.413H47.9538V206.353H41.5338V210.233H46.7538V212.153H41.5338V216.153H47.9538V218.113H39.3138ZM52.4885 213.733C52.4885 215.507 53.4218 216.393 55.2885 216.393C57.1551 216.393 58.0885 215.507 58.0885 213.733V204.413H60.3285V213.693C60.3285 215.307 59.9018 216.487 59.0485 217.233C58.2085 217.967 56.9485 218.333 55.2685 218.333C53.6018 218.333 52.3485 217.967 51.5085 217.233C50.6685 216.487 50.2485 215.307 50.2485 213.693V204.413H52.4885V213.733ZM52.4885 201.393L57.2085 199.333L57.9085 201.273L53.0485 202.913L52.4885 201.393ZM63.3763 218.113V204.413H67.2563L71.4163 216.153H71.7163V204.413H73.9363V218.113H70.1363L65.8763 206.353H65.5963V218.113H63.3763ZM75.9072 218.113L79.2872 204.413H83.7072L87.1072 218.113H84.8672L84.1272 215.173H78.8672L78.1272 218.113H75.9072ZM81.0072 206.273L79.3072 213.213H83.6872L82.0072 206.273H81.0072ZM92.2744 218.113L95.6544 204.413H100.074L103.474 218.113H101.234L100.494 215.173H95.2344L94.4944 218.113H92.2744ZM97.3744 206.273L95.6744 213.213H100.054L98.3744 206.273H97.3744ZM109.31 206.133C107.617 206.133 106.77 206.727 106.77 207.913C106.77 208.527 106.97 208.967 107.37 209.233C107.77 209.487 108.65 209.807 110.01 210.193C111.384 210.567 112.35 211.02 112.91 211.553C113.47 212.073 113.75 212.9 113.75 214.033C113.75 215.473 113.337 216.553 112.51 217.273C111.697 217.98 110.584 218.333 109.17 218.333C108.037 218.333 106.784 218.2 105.41 217.933L104.69 217.793L104.91 216.013C106.71 216.253 108.084 216.373 109.03 216.373C110.684 216.373 111.51 215.64 111.51 214.173C111.51 213.6 111.324 213.18 110.95 212.913C110.577 212.633 109.737 212.333 108.43 212.013C107.124 211.68 106.15 211.227 105.51 210.653C104.87 210.08 104.55 209.173 104.55 207.933C104.55 206.693 104.95 205.76 105.75 205.133C106.564 204.493 107.684 204.173 109.11 204.173C110.137 204.173 111.35 204.293 112.75 204.533L113.45 204.653L113.27 206.453C111.404 206.24 110.084 206.133 109.31 206.133ZM125.144 218.333C123.144 218.333 121.784 217.78 121.064 216.673C120.358 215.567 120.004 213.747 120.004 211.213C120.004 208.68 120.364 206.88 121.084 205.813C121.804 204.733 123.158 204.193 125.144 204.193C126.331 204.193 127.638 204.36 129.064 204.693L128.984 206.493C127.784 206.28 126.584 206.173 125.384 206.173C124.184 206.173 123.371 206.533 122.944 207.253C122.518 207.96 122.304 209.3 122.304 211.273C122.304 213.233 122.511 214.573 122.924 215.293C123.338 216 124.144 216.353 125.344 216.353C126.544 216.353 127.758 216.253 128.984 216.053L129.044 217.893C127.671 218.187 126.371 218.333 125.144 218.333ZM133.647 215.213C134.1 216 134.967 216.393 136.247 216.393C137.527 216.393 138.387 216.007 138.827 215.233C139.28 214.46 139.507 213.167 139.507 211.353C139.507 209.527 139.274 208.2 138.807 207.373C138.354 206.547 137.5 206.133 136.247 206.133C134.994 206.133 134.134 206.547 133.667 207.373C133.2 208.2 132.967 209.52 132.967 211.333C132.967 213.133 133.194 214.427 133.647 215.213ZM140.567 216.653C139.754 217.773 138.314 218.333 136.247 218.333C134.18 218.333 132.734 217.773 131.907 216.653C131.08 215.52 130.667 213.747 130.667 211.333C130.667 208.92 131.08 207.127 131.907 205.953C132.747 204.78 134.194 204.193 136.247 204.193C138.3 204.193 139.74 204.78 140.567 205.953C141.394 207.113 141.807 208.907 141.807 211.333C141.807 213.76 141.394 215.533 140.567 216.653ZM144.392 218.113V204.413H148.272L152.432 216.153H152.732V204.413H154.952V218.113H151.152L146.892 206.353H146.612V218.113H144.392ZM156.783 206.393V204.413H166.783V206.393H162.923V218.113H160.683V206.393H156.783ZM166.63 218.113L170.01 204.413H174.43L177.83 218.113H175.59L174.85 215.173H169.59L168.85 218.113H166.63ZM171.73 206.273L170.03 213.213H174.41L172.73 206.273H171.73ZM183.666 206.133C181.972 206.133 181.126 206.727 181.126 207.913C181.126 208.527 181.326 208.967 181.726 209.233C182.126 209.487 183.006 209.807 184.366 210.193C185.739 210.567 186.706 211.02 187.266 211.553C187.826 212.073 188.106 212.9 188.106 214.033C188.106 215.473 187.692 216.553 186.866 217.273C186.052 217.98 184.939 218.333 183.526 218.333C182.392 218.333 181.139 218.2 179.766 217.933L179.046 217.793L179.266 216.013C181.066 216.253 182.439 216.373 183.386 216.373C185.039 216.373 185.866 215.64 185.866 214.173C185.866 213.6 185.679 213.18 185.306 212.913C184.932 212.633 184.092 212.333 182.786 212.013C181.479 211.68 180.506 211.227 179.866 210.653C179.226 210.08 178.906 209.173 178.906 207.933C178.906 206.693 179.306 205.76 180.106 205.133C180.919 204.493 182.039 204.173 183.466 204.173C184.492 204.173 185.706 204.293 187.106 204.533L187.806 204.653L187.626 206.453C185.759 206.24 184.439 206.133 183.666 206.133ZM194.9 218.113V204.413H203.54V206.353H197.12V210.233H202.34V212.153H197.12V216.153H203.54V218.113H194.9ZM210.349 218.113V204.413H214.229L218.389 216.153H218.689V204.413H220.909V218.113H217.109L212.849 206.353H212.569V218.113H210.349ZM226.44 215.213C226.893 216 227.76 216.393 229.04 216.393C230.32 216.393 231.18 216.007 231.62 215.233C232.073 214.46 232.3 213.167 232.3 211.353C232.3 209.527 232.067 208.2 231.6 207.373C231.147 206.547 230.293 206.133 229.04 206.133C227.787 206.133 226.927 206.547 226.46 207.373C225.993 208.2 225.76 209.52 225.76 211.333C225.76 213.133 225.987 214.427 226.44 215.213ZM233.36 216.653C232.547 217.773 231.107 218.333 229.04 218.333C226.973 218.333 225.527 217.773 224.7 216.653C223.873 215.52 223.46 213.747 223.46 211.333C223.46 208.92 223.873 207.127 224.7 205.953C225.54 204.78 226.987 204.193 229.04 204.193C231.093 204.193 232.533 204.78 233.36 205.953C234.187 207.113 234.6 208.907 234.6 211.333C234.6 213.76 234.187 215.533 233.36 216.653ZM241.205 206.133C239.512 206.133 238.665 206.727 238.665 207.913C238.665 208.527 238.865 208.967 239.265 209.233C239.665 209.487 240.545 209.807 241.905 210.193C243.278 210.567 244.245 211.02 244.805 211.553C245.365 212.073 245.645 212.9 245.645 214.033C245.645 215.473 245.232 216.553 244.405 217.273C243.592 217.98 242.478 218.333 241.065 218.333C239.932 218.333 238.678 218.2 237.305 217.933L236.585 217.793L236.805 216.013C238.605 216.253 239.978 216.373 240.925 216.373C242.578 216.373 243.405 215.64 243.405 214.173C243.405 213.6 243.218 213.18 242.845 212.913C242.472 212.633 241.632 212.333 240.325 212.013C239.018 211.68 238.045 211.227 237.405 210.653C236.765 210.08 236.445 209.173 236.445 207.933C236.445 206.693 236.845 205.76 237.645 205.133C238.458 204.493 239.578 204.173 241.005 204.173C242.032 204.173 243.245 204.293 244.645 204.533L245.345 204.653L245.165 206.453C243.298 206.24 241.978 206.133 241.205 206.133ZM28.0247 246.113V232.413H36.6647V234.353H30.2447V238.233H35.4647V240.153H30.2447V244.153H36.6647V246.113H28.0247ZM39.0794 246.113V232.413H42.9594L47.1194 244.153H47.4194V232.413H49.6394V246.113H45.8394L41.5794 234.353H41.2994V246.113H39.0794ZM60.3703 232.413H62.6903L59.3303 246.113H54.9703L51.6103 232.413H53.9303L56.6503 244.153H57.6503L60.3703 232.413ZM64.6653 246.113V232.413H66.8853V246.113H64.6653ZM70.0364 246.113V232.413H78.6764V234.353H72.2564V238.233H77.4764V240.153H72.2564V244.153H78.6764V246.113H70.0364ZM84.3056 246.113L87.6856 232.413H92.1056L95.5056 246.113H93.2656L92.5256 243.173H87.2656L86.5256 246.113H84.3056ZM89.4056 234.273L87.7056 241.213H92.0856L90.4056 234.273H89.4056ZM101.342 234.133C99.6482 234.133 98.8016 234.727 98.8016 235.913C98.8016 236.527 99.0016 236.967 99.4016 237.233C99.8016 237.487 100.682 237.807 102.042 238.193C103.415 238.567 104.382 239.02 104.942 239.553C105.502 240.073 105.782 240.9 105.782 242.033C105.782 243.473 105.368 244.553 104.542 245.273C103.728 245.98 102.615 246.333 101.202 246.333C100.068 246.333 98.8149 246.2 97.4416 245.933L96.7216 245.793L96.9416 244.013C98.7416 244.253 100.115 244.373 101.062 244.373C102.715 244.373 103.542 243.64 103.542 242.173C103.542 241.6 103.355 241.18 102.982 240.913C102.608 240.633 101.768 240.333 100.462 240.013C99.1549 239.68 98.1816 239.227 97.5416 238.653C96.9016 238.08 96.5816 237.173 96.5816 235.933C96.5816 234.693 96.9816 233.76 97.7816 233.133C98.5949 232.493 99.7149 232.173 101.142 232.173C102.168 232.173 103.382 232.293 104.782 232.533L105.482 232.653L105.302 234.453C103.435 234.24 102.115 234.133 101.342 234.133ZM112.575 246.113V232.413H114.795V246.113H112.575ZM117.947 246.113V232.413H121.827L125.987 244.153H126.287V232.413H128.507V246.113H124.707L120.447 234.353H120.167V246.113H117.947ZM131.658 246.113V232.413H140.158V234.353H133.878V238.973H139.098V240.913H133.878V246.113H131.658ZM144.545 243.213C144.999 244 145.865 244.393 147.145 244.393C148.425 244.393 149.285 244.007 149.725 243.233C150.179 242.46 150.405 241.167 150.405 239.353C150.405 237.527 150.172 236.2 149.705 235.373C149.252 234.547 148.399 234.133 147.145 234.133C145.892 234.133 145.032 234.547 144.565 235.373C144.099 236.2 143.865 237.52 143.865 239.333C143.865 241.133 144.092 242.427 144.545 243.213ZM151.465 244.653C150.652 245.773 149.212 246.333 147.145 246.333C145.079 246.333 143.632 245.773 142.805 244.653C141.979 243.52 141.565 241.747 141.565 239.333C141.565 236.92 141.979 235.127 142.805 233.953C143.645 232.78 145.092 232.193 147.145 232.193C149.199 232.193 150.639 232.78 151.465 233.953C152.292 235.113 152.705 236.907 152.705 239.333C152.705 241.76 152.292 243.533 151.465 244.653ZM157.51 241.233V246.113H155.29V232.413H160.49C163.584 232.413 165.13 233.867 165.13 236.773C165.13 238.72 164.384 240.04 162.89 240.733L165.15 246.113H162.71L160.73 241.233H157.51ZM162.85 236.793C162.85 235.153 162.064 234.333 160.49 234.333H157.51V239.313H160.53C161.33 239.313 161.917 239.087 162.29 238.633C162.664 238.167 162.85 237.553 162.85 236.793ZM167.654 246.113V232.413H171.514L174.574 243.113L177.634 232.413H181.514V246.113H179.274V234.873H178.974L175.734 245.553H173.414L170.174 234.873H169.874V246.113H167.654ZM183.466 246.113L186.846 232.413H191.266L194.666 246.113H192.426L191.686 243.173H186.426L185.686 246.113H183.466ZM188.566 234.273L186.866 241.213H191.246L189.566 234.273H188.566ZM201.203 246.953C202.043 246.967 202.65 247.087 203.023 247.313C203.396 247.54 203.583 247.993 203.583 248.673C203.583 249.353 203.396 249.867 203.023 250.213C202.663 250.56 202.156 250.733 201.503 250.733C200.996 250.733 200.483 250.687 199.963 250.593L199.703 250.533L199.783 249.233C200.236 249.26 200.603 249.273 200.883 249.273C201.43 249.273 201.703 249.067 201.703 248.653C201.703 248.453 201.636 248.313 201.503 248.233C201.383 248.153 201.176 248.113 200.883 248.113H200.263V246.293C198.583 246.173 197.43 245.56 196.803 244.453C196.19 243.333 195.883 241.547 195.883 239.093C195.883 236.64 196.243 234.88 196.963 233.813C197.683 232.733 199.036 232.193 201.023 232.193C202.21 232.193 203.516 232.36 204.943 232.693L204.863 234.493C203.663 234.28 202.463 234.173 201.263 234.173C200.063 234.173 199.25 234.533 198.823 235.253C198.396 235.96 198.183 237.3 198.183 239.273C198.183 241.233 198.39 242.573 198.803 243.293C199.216 244 200.023 244.353 201.223 244.353C202.423 244.353 203.636 244.253 204.863 244.053L204.923 245.893C203.696 246.16 202.456 246.307 201.203 246.333V246.953ZM209.526 243.213C209.979 244 210.846 244.393 212.126 244.393C213.406 244.393 214.266 244.007 214.706 243.233C215.159 242.46 215.386 241.167 215.386 239.353C215.386 237.527 215.152 236.2 214.686 235.373C214.232 234.547 213.379 234.133 212.126 234.133C210.872 234.133 210.012 234.547 209.546 235.373C209.079 236.2 208.846 237.52 208.846 239.333C208.846 241.133 209.072 242.427 209.526 243.213ZM216.446 244.653C215.632 245.773 214.192 246.333 212.126 246.333C210.059 246.333 208.612 245.773 207.786 244.653C206.959 243.52 206.546 241.747 206.546 239.333C206.546 236.92 206.959 235.127 207.786 233.953C208.626 232.78 210.072 232.193 212.126 232.193C214.179 232.193 215.619 232.78 216.446 233.953C217.272 235.113 217.686 236.907 217.686 239.333C217.686 241.76 217.272 243.533 216.446 244.653ZM214.806 230.173C214.406 230.44 214.046 230.573 213.726 230.573C213.406 230.573 212.826 230.407 211.986 230.073C211.146 229.74 210.639 229.573 210.466 229.573C210.132 229.573 209.706 229.793 209.186 230.233L208.926 230.453L208.446 228.893C208.526 228.8 208.626 228.687 208.746 228.553C208.879 228.407 209.119 228.22 209.466 227.993C209.826 227.767 210.179 227.653 210.526 227.653C210.872 227.653 211.452 227.82 212.266 228.153C213.092 228.487 213.579 228.653 213.726 228.653C214.019 228.653 214.432 228.433 214.966 227.993L215.246 227.773L215.726 229.353C215.526 229.633 215.219 229.907 214.806 230.173ZM220.271 246.113V232.413H228.911V234.353H222.491V238.233H227.711V240.153H222.491V244.153H228.911V246.113H220.271ZM235.345 234.133C233.652 234.133 232.805 234.727 232.805 235.913C232.805 236.527 233.005 236.967 233.405 237.233C233.805 237.487 234.685 237.807 236.045 238.193C237.419 238.567 238.385 239.02 238.945 239.553C239.505 240.073 239.785 240.9 239.785 242.033C239.785 243.473 239.372 244.553 238.545 245.273C237.732 245.98 236.619 246.333 235.205 246.333C234.072 246.333 232.819 246.2 231.445 245.933L230.725 245.793L230.945 244.013C232.745 244.253 234.119 244.373 235.065 244.373C236.719 244.373 237.545 243.64 237.545 242.173C237.545 241.6 237.359 241.18 236.985 240.913C236.612 240.633 235.772 240.333 234.465 240.013C233.159 239.68 232.185 239.227 231.545 238.653C230.905 238.08 230.585 237.173 230.585 235.933C230.585 234.693 230.985 233.76 231.785 233.133C232.599 232.493 233.719 232.173 235.145 232.173C236.172 232.173 237.385 232.293 238.785 232.533L239.485 232.653L239.305 234.453C237.439 234.24 236.119 234.133 235.345 234.133ZM241.825 246.113V243.233H244.165V246.113H241.825Z" fill="black"/>
<path d="M552.816 103.077V136.736H437.184V21.3092L456.404 2.10144H531.138L552.816 20.4566V104.199" stroke="black" stroke-width="3" stroke-miterlimit="10"/>
<path d="M472.279 13.0404C472.983 13.0404 473.603 13.1875 474.137 13.4816C474.672 13.7668 475.087 14.1724 475.381 14.6983C475.675 15.2242 475.822 15.8303 475.822 16.5166V19.3109C475.822 20.0953 475.608 20.7682 475.18 21.3298C474.761 21.8824 474.186 22.2612 473.455 22.4662C473.42 22.4752 473.402 22.4974 473.402 22.5331V23.5759C473.402 23.6205 473.384 23.6562 473.348 23.6829C473.322 23.7186 473.286 23.7364 473.242 23.7364H471.343C471.298 23.7364 471.258 23.7186 471.223 23.6829C471.196 23.6562 471.183 23.6205 471.183 23.5759V22.5331C471.183 22.4974 471.165 22.4752 471.129 22.4662C470.389 22.2701 469.805 21.8958 469.378 21.3432C468.959 20.7816 468.749 20.1042 468.749 19.3109V16.5166C468.749 15.8303 468.896 15.2242 469.19 14.6983C469.485 14.1724 469.899 13.7668 470.434 13.4816C470.969 13.1875 471.584 13.0404 472.279 13.0404ZM473.603 16.3963C473.603 15.9595 473.482 15.6074 473.242 15.34C473.001 15.0726 472.68 14.9389 472.279 14.9389C471.887 14.9389 471.57 15.0726 471.33 15.34C471.089 15.6074 470.969 15.9595 470.969 16.3963V19.2574C470.969 19.6942 471.089 20.0463 471.33 20.3137C471.57 20.5811 471.887 20.7148 472.279 20.7148C472.68 20.7148 473.001 20.5811 473.242 20.3137C473.482 20.0463 473.603 19.6942 473.603 19.2574V16.3963ZM481.967 22.5063C481.878 22.5063 481.815 22.4662 481.78 22.386L480.202 18.8296C480.184 18.7939 480.158 18.7761 480.122 18.7761H479.239C479.195 18.7761 479.173 18.7984 479.173 18.843V22.3459C479.173 22.3905 479.155 22.4306 479.119 22.4662C479.092 22.493 479.057 22.5063 479.012 22.5063H477.114C477.069 22.5063 477.029 22.493 476.993 22.4662C476.967 22.4306 476.953 22.3905 476.953 22.3459V13.3078C476.953 13.2632 476.967 13.2276 476.993 13.2008C477.029 13.1652 477.069 13.1473 477.114 13.1473H481.084C481.673 13.1473 482.19 13.2677 482.635 13.5083C483.081 13.749 483.424 14.0922 483.665 14.5378C483.914 14.9746 484.039 15.4782 484.039 16.0486C484.039 16.6458 483.892 17.1628 483.598 17.5996C483.304 18.0363 482.894 18.3527 482.368 18.5488C482.323 18.5667 482.31 18.5979 482.328 18.6424L484.093 22.3192C484.111 22.3548 484.119 22.3816 484.119 22.3994C484.119 22.4707 484.07 22.5063 483.972 22.5063H481.967ZM479.239 15.0459C479.195 15.0459 479.173 15.0682 479.173 15.1127V17.0113C479.173 17.0558 479.195 17.0781 479.239 17.0781H480.723C481.053 17.0781 481.321 16.989 481.526 16.8107C481.731 16.6235 481.833 16.3784 481.833 16.0754C481.833 15.7634 481.731 15.5138 481.526 15.3267C481.321 15.1395 481.053 15.0459 480.723 15.0459H479.239ZM491.278 22.6133C490.565 22.6133 489.937 22.4752 489.393 22.1988C488.859 21.9225 488.44 21.5303 488.137 21.0223C487.842 20.5142 487.695 19.9259 487.695 19.2574V16.3695C487.695 15.7099 487.842 15.1306 488.137 14.6314C488.44 14.1234 488.859 13.7312 489.393 13.4549C489.937 13.1785 490.565 13.0404 491.278 13.0404C491.992 13.0404 492.615 13.1741 493.15 13.4415C493.694 13.7 494.113 14.0699 494.407 14.5512C494.71 15.0236 494.862 15.5718 494.862 16.1957C494.862 16.2403 494.844 16.2759 494.808 16.3027C494.781 16.3294 494.746 16.3428 494.701 16.3428L492.803 16.4631C492.696 16.4631 492.642 16.4141 492.642 16.316C492.642 15.8971 492.517 15.5629 492.268 15.3133C492.018 15.0637 491.688 14.9389 491.278 14.9389C490.868 14.9389 490.539 15.0682 490.289 15.3267C490.04 15.5762 489.915 15.906 489.915 16.316V19.351C489.915 19.761 490.04 20.0908 490.289 20.3404C490.539 20.59 490.868 20.7148 491.278 20.7148C491.688 20.7148 492.018 20.59 492.268 20.3404C492.517 20.0908 492.642 19.761 492.642 19.351C492.642 19.253 492.696 19.204 492.803 19.204L494.701 19.2975C494.746 19.2975 494.781 19.3109 494.808 19.3377C494.844 19.3644 494.862 19.3956 494.862 19.4312C494.862 20.0641 494.71 20.6212 494.407 21.1025C494.113 21.5838 493.694 21.9582 493.15 22.2256C492.615 22.4841 491.992 22.6133 491.278 22.6133ZM499.479 22.6534C498.757 22.6534 498.12 22.5108 497.567 22.2256C497.024 21.9314 496.6 21.5214 496.297 20.9955C495.994 20.4697 495.843 19.8591 495.843 19.1638V16.4898C495.843 15.8124 495.994 15.2152 496.297 14.6983C496.6 14.1724 497.024 13.7668 497.567 13.4816C498.12 13.1875 498.757 13.0404 499.479 13.0404C500.201 13.0404 500.839 13.1875 501.391 13.4816C501.944 13.7668 502.372 14.1724 502.675 14.6983C502.978 15.2152 503.129 15.8124 503.129 16.4898V19.1638C503.129 19.8591 502.978 20.4697 502.675 20.9955C502.372 21.5214 501.944 21.9314 501.391 22.2256C500.839 22.5108 500.201 22.6534 499.479 22.6534ZM499.479 20.7549C499.907 20.7549 500.25 20.6167 500.509 20.3404C500.776 20.0641 500.91 19.6942 500.91 19.2307V16.4631C500.91 16.0085 500.776 15.6431 500.509 15.3668C500.25 15.0815 499.907 14.9389 499.479 14.9389C499.06 14.9389 498.717 15.0815 498.45 15.3668C498.191 15.6431 498.062 16.0085 498.062 16.4631V19.2307C498.062 19.6942 498.191 20.0641 498.45 20.3404C498.717 20.6167 499.06 20.7549 499.479 20.7549ZM504.454 22.5063C504.41 22.5063 504.37 22.493 504.334 22.4662C504.307 22.4306 504.294 22.3905 504.294 22.3459V13.3078C504.294 13.2632 504.307 13.2276 504.334 13.2008C504.37 13.1652 504.41 13.1473 504.454 13.1473H507.864C508.559 13.1473 509.174 13.2677 509.709 13.5083C510.243 13.749 510.658 14.0922 510.952 14.5378C511.246 14.9835 511.393 15.496 511.393 16.0754V19.5783C511.393 20.1577 511.246 20.6702 510.952 21.1159C510.658 21.5615 510.243 21.9047 509.709 22.1454C509.174 22.386 508.559 22.5063 507.864 22.5063H504.454ZM506.513 20.541C506.513 20.5855 506.535 20.6078 506.58 20.6078H507.957C508.314 20.6078 508.603 20.483 508.826 20.2334C509.049 19.975 509.165 19.6318 509.174 19.204V16.4497C509.174 16.0219 509.058 15.6832 508.826 15.4336C508.603 15.1751 508.309 15.0459 507.944 15.0459H506.58C506.535 15.0459 506.513 15.0682 506.513 15.1127V20.541ZM519.204 14.8854C519.204 14.93 519.186 14.9701 519.15 15.0058C519.123 15.0325 519.088 15.0459 519.043 15.0459H514.845C514.8 15.0459 514.778 15.0682 514.778 15.1127V16.7572C514.778 16.8018 514.8 16.8241 514.845 16.8241H517.532C517.577 16.8241 517.612 16.8419 517.639 16.8776C517.675 16.9043 517.693 16.94 517.693 16.9845V18.5488C517.693 18.5934 517.675 18.6335 517.639 18.6692C517.612 18.6959 517.577 18.7093 517.532 18.7093H514.845C514.8 18.7093 514.778 18.7316 514.778 18.7761V20.541C514.778 20.5855 514.8 20.6078 514.845 20.6078H519.043C519.088 20.6078 519.123 20.6256 519.15 20.6613C519.186 20.688 519.204 20.7237 519.204 20.7682V22.3459C519.204 22.3905 519.186 22.4306 519.15 22.4662C519.123 22.493 519.088 22.5063 519.043 22.5063H512.719C512.674 22.5063 512.634 22.493 512.599 22.4662C512.572 22.4306 512.559 22.3905 512.559 22.3459V13.3078C512.559 13.2632 512.572 13.2276 512.599 13.2008C512.634 13.1652 512.674 13.1473 512.719 13.1473H519.043C519.088 13.1473 519.123 13.1652 519.15 13.2008C519.186 13.2276 519.204 13.2632 519.204 13.3078V14.8854Z" fill="#582689"/>
<path d="M476.477 38.0039H454.024V60.4429H476.477V38.0039Z" stroke="black" stroke-width="3" stroke-miterlimit="10"/>
<path d="M477.319 97.1868H454.866V119.626H477.319V97.1868Z" stroke="black" stroke-width="3" stroke-miterlimit="10"/>
<path d="M535.415 38.5648H512.962V61.0038H535.415V38.5648Z" stroke="black" stroke-width="3" stroke-miterlimit="10"/>
<path d="M454.585 67.1746V89.6136" stroke="black" stroke-width="3" stroke-miterlimit="10"/>
<path d="M462.152 80.5034H454.585" stroke="black" stroke-width="3" stroke-miterlimit="10"/>
<path d="M470.863 89.1649V80.5034H476.476V67.3878" stroke="black" stroke-width="3" stroke-miterlimit="10"/>
<path d="M476.477 80.5034H486.738V86.1693H494.529" stroke="black" stroke-width="3" stroke-miterlimit="10"/>
<path d="M485.503 96.9063H497.47V118.571H484.762" stroke="black" stroke-width="3" stroke-miterlimit="10"/>
<path d="M509.875 113.175H497.47" stroke="black" stroke-width="3" stroke-miterlimit="10"/>
<path d="M486.738 40.1356V48.5615H505.295" stroke="black" stroke-width="3" stroke-miterlimit="10"/>
<path d="M497.47 48.5614V56.3702" stroke="black" stroke-width="3" stroke-miterlimit="10"/>
<path d="M495.034 37.7458H505.295" stroke="black" stroke-width="3" stroke-miterlimit="10"/>
<path d="M511.177 75.735H529.802V69.4185H537.661" stroke="black" stroke-width="3" stroke-miterlimit="10"/>
<path d="M502.825 63.1132V70.058H486.738" stroke="black" stroke-width="3" stroke-miterlimit="10"/>
<path d="M502.814 79.2356V87.2351" stroke="black" stroke-width="3" stroke-miterlimit="10"/>
<path d="M511.189 85.5521H519.002V98.4546" stroke="black" stroke-width="3" stroke-miterlimit="10"/>
<path d="M535.977 107.744H519.002V121.533" stroke="black" stroke-width="3" stroke-miterlimit="10"/>
<path d="M536.538 118.571H528.118" stroke="black" stroke-width="3" stroke-miterlimit="10"/>
<path d="M537.661 86.0347H529.241" stroke="black" stroke-width="3" stroke-miterlimit="10"/>
<path d="M508.752 104.827V96.4127" stroke="black" stroke-width="3" stroke-miterlimit="10"/>
<path d="M468.618 45.8575H461.882V52.5892H468.618V45.8575Z" fill="black"/>
<path d="M469.46 105.04H462.724V111.772H469.46V105.04Z" fill="black"/>
<path d="M527.557 46.4185H520.821V53.1502H527.557V46.4185Z" fill="black"/>
<path d="M386.971 213.853H384.171V218.113H381.951V204.413H386.971C390.078 204.413 391.631 205.947 391.631 209.013C391.631 210.587 391.238 211.787 390.451 212.613C389.678 213.44 388.518 213.853 386.971 213.853ZM384.171 211.933H386.951C388.551 211.933 389.351 210.96 389.351 209.013C389.351 208.08 389.158 207.4 388.771 206.973C388.385 206.547 387.778 206.333 386.951 206.333H384.171V211.933ZM392.099 218.113L395.479 204.413H399.899L403.299 218.113H401.059L400.319 215.173H395.059L394.319 218.113H392.099ZM397.199 206.273L395.499 213.213H399.879L398.199 206.273H397.199ZM410.617 212.873V210.913H414.517V217.873C414.157 217.967 413.424 218.067 412.317 218.173C411.224 218.28 410.43 218.333 409.937 218.333C407.857 218.333 406.424 217.76 405.637 216.613C404.85 215.467 404.457 213.673 404.457 211.233C404.457 208.78 404.857 206.993 405.657 205.873C406.47 204.753 407.87 204.193 409.857 204.193C411.03 204.193 412.35 204.327 413.817 204.593L414.517 204.733L414.437 206.493C412.824 206.28 411.377 206.173 410.097 206.173C408.817 206.173 407.937 206.533 407.457 207.253C406.99 207.973 406.757 209.307 406.757 211.253C406.757 213.2 406.977 214.547 407.417 215.293C407.87 216.027 408.777 216.393 410.137 216.393C411.11 216.393 411.837 216.333 412.317 216.213V212.873H410.617ZM419.423 213.733C419.423 215.507 420.356 216.393 422.223 216.393C424.089 216.393 425.023 215.507 425.023 213.733V204.413H427.263V213.693C427.263 215.307 426.836 216.487 425.983 217.233C425.143 217.967 423.883 218.333 422.203 218.333C420.536 218.333 419.283 217.967 418.443 217.233C417.603 216.487 417.183 215.307 417.183 213.693V204.413H419.423V213.733ZM430.311 218.113V204.413H438.951V206.353H432.531V210.233H437.751V212.153H432.531V216.153H438.951V218.113H430.311ZM450.36 218.333C448.36 218.333 447 217.78 446.28 216.673C445.573 215.567 445.22 213.747 445.22 211.213C445.22 208.68 445.58 206.88 446.3 205.813C447.02 204.733 448.373 204.193 450.36 204.193C451.546 204.193 452.853 204.36 454.28 204.693L454.2 206.493C453 206.28 451.8 206.173 450.6 206.173C449.4 206.173 448.586 206.533 448.16 207.253C447.733 207.96 447.52 209.3 447.52 211.273C447.52 213.233 447.726 214.573 448.14 215.293C448.553 216 449.36 216.353 450.56 216.353C451.76 216.353 452.973 216.253 454.2 216.053L454.26 217.893C452.886 218.187 451.586 218.333 450.36 218.333ZM458.862 215.213C459.316 216 460.182 216.393 461.462 216.393C462.742 216.393 463.602 216.007 464.042 215.233C464.496 214.46 464.722 213.167 464.722 211.353C464.722 209.527 464.489 208.2 464.022 207.373C463.569 206.547 462.716 206.133 461.462 206.133C460.209 206.133 459.349 206.547 458.882 207.373C458.416 208.2 458.182 209.52 458.182 211.333C458.182 213.133 458.409 214.427 458.862 215.213ZM465.782 216.653C464.969 217.773 463.529 218.333 461.462 218.333C459.396 218.333 457.949 217.773 457.122 216.653C456.296 215.52 455.882 213.747 455.882 211.333C455.882 208.92 456.296 207.127 457.122 205.953C457.962 204.78 459.409 204.193 461.462 204.193C463.516 204.193 464.956 204.78 465.782 205.953C466.609 207.113 467.022 208.907 467.022 211.333C467.022 213.76 466.609 215.533 465.782 216.653ZM469.607 218.113V204.413H473.467L476.527 215.113L479.587 204.413H483.467V218.113H481.227V206.873H480.927L477.687 217.553H475.367L472.127 206.873H471.827V218.113H469.607ZM493.114 213.733C493.114 215.507 494.047 216.393 495.914 216.393C497.781 216.393 498.714 215.507 498.714 213.733V204.413H500.954V213.693C500.954 215.307 500.527 216.487 499.674 217.233C498.834 217.967 497.574 218.333 495.894 218.333C494.227 218.333 492.974 217.967 492.134 217.233C491.294 216.487 490.874 215.307 490.874 213.693V204.413H493.114V213.733ZM504.002 218.113V204.413H507.862L510.922 215.113L513.982 204.413H517.862V218.113H515.622V206.873H515.322L512.082 217.553H509.762L506.522 206.873H506.222V218.113H504.002ZM527.509 213.733C527.509 215.507 528.442 216.393 530.309 216.393C532.175 216.393 533.109 215.507 533.109 213.733V204.413H535.349V213.693C535.349 215.307 534.922 216.487 534.069 217.233C533.229 217.967 531.969 218.333 530.289 218.333C528.622 218.333 527.369 217.967 526.529 217.233C525.689 216.487 525.269 215.307 525.269 213.693V204.413H527.509V213.733ZM527.509 201.393L532.229 199.333L532.929 201.273L528.069 202.913L527.509 201.393ZM538.396 218.113V204.413H542.276L546.436 216.153H546.736V204.413H548.956V218.113H545.156L540.896 206.353H540.616V218.113H538.396ZM552.107 218.113V204.413H554.327V218.113H552.107ZM562.079 218.333C560.079 218.333 558.719 217.78 557.999 216.673C557.292 215.567 556.939 213.747 556.939 211.213C556.939 208.68 557.299 206.88 558.019 205.813C558.739 204.733 560.092 204.193 562.079 204.193C563.265 204.193 564.572 204.36 565.999 204.693L565.919 206.493C564.719 206.28 563.519 206.173 562.319 206.173C561.119 206.173 560.305 206.533 559.879 207.253C559.452 207.96 559.239 209.3 559.239 211.273C559.239 213.233 559.445 214.573 559.859 215.293C560.272 216 561.079 216.353 562.279 216.353C563.479 216.353 564.692 216.253 565.919 216.053L565.979 217.893C564.605 218.187 563.305 218.333 562.079 218.333ZM570.581 215.213C571.035 216 571.901 216.393 573.181 216.393C574.461 216.393 575.321 216.007 575.761 215.233C576.215 214.46 576.441 213.167 576.441 211.353C576.441 209.527 576.208 208.2 575.741 207.373C575.288 206.547 574.435 206.133 573.181 206.133C571.928 206.133 571.068 206.547 570.601 207.373C570.135 208.2 569.901 209.52 569.901 211.333C569.901 213.133 570.128 214.427 570.581 215.213ZM577.501 216.653C576.688 217.773 575.248 218.333 573.181 218.333C571.115 218.333 569.668 217.773 568.841 216.653C568.015 215.52 567.601 213.747 567.601 211.333C567.601 208.92 568.015 207.127 568.841 205.953C569.681 204.78 571.128 204.193 573.181 204.193C575.235 204.193 576.675 204.78 577.501 205.953C578.328 207.113 578.741 208.907 578.741 211.333C578.741 213.76 578.328 215.533 577.501 216.653ZM590.701 218.333C588.621 218.333 587.167 217.773 586.341 216.653C585.527 215.533 585.121 213.767 585.121 211.353C585.121 208.927 585.534 207.127 586.361 205.953C587.201 204.78 588.647 204.193 590.701 204.193C592.754 204.193 594.194 204.78 595.021 205.953C595.847 207.113 596.261 208.907 596.261 211.333C596.261 212.933 596.087 214.227 595.741 215.213C595.407 216.2 594.854 216.953 594.081 217.473L595.761 220.173L593.701 221.133L591.921 218.213C591.667 218.293 591.261 218.333 590.701 218.333ZM588.101 215.233C588.554 216.007 589.421 216.393 590.701 216.393C591.981 216.393 592.841 216.013 593.281 215.253C593.734 214.48 593.961 213.18 593.961 211.353C593.961 209.527 593.727 208.2 593.261 207.373C592.807 206.547 591.954 206.133 590.701 206.133C589.447 206.133 588.587 206.547 588.121 207.373C587.654 208.2 587.421 209.52 587.421 211.333C587.421 213.147 587.647 214.447 588.101 215.233ZM601.066 213.233V218.113H598.846V204.413H604.046C607.139 204.413 608.686 205.867 608.686 208.773C608.686 210.72 607.939 212.04 606.446 212.733L608.706 218.113H606.266L604.286 213.233H601.066ZM606.406 208.793C606.406 207.153 605.619 206.333 604.046 206.333H601.066V211.313H604.086C604.886 211.313 605.472 211.087 605.846 210.633C606.219 210.167 606.406 209.553 606.406 208.793ZM374.041 246.333C372.041 246.333 370.681 245.78 369.961 244.673C369.255 243.567 368.901 241.747 368.901 239.213C368.901 236.68 369.261 234.88 369.981 233.813C370.701 232.733 372.055 232.193 374.041 232.193C375.228 232.193 376.535 232.36 377.961 232.693L377.881 234.493C376.681 234.28 375.481 234.173 374.281 234.173C373.081 234.173 372.268 234.533 371.841 235.253C371.415 235.96 371.201 237.3 371.201 239.273C371.201 241.233 371.408 242.573 371.821 243.293C372.235 244 373.041 244.353 374.241 244.353C375.441 244.353 376.655 244.253 377.881 244.053L377.941 245.893C376.568 246.187 375.268 246.333 374.041 246.333ZM382.544 243.213C382.997 244 383.864 244.393 385.144 244.393C386.424 244.393 387.284 244.007 387.724 243.233C388.177 242.46 388.404 241.167 388.404 239.353C388.404 237.527 388.171 236.2 387.704 235.373C387.251 234.547 386.397 234.133 385.144 234.133C383.891 234.133 383.031 234.547 382.564 235.373C382.097 236.2 381.864 237.52 381.864 239.333C381.864 241.133 382.091 242.427 382.544 243.213ZM389.464 244.653C388.651 245.773 387.211 246.333 385.144 246.333C383.077 246.333 381.631 245.773 380.804 244.653C379.977 243.52 379.564 241.747 379.564 239.333C379.564 236.92 379.977 235.127 380.804 233.953C381.644 232.78 383.091 232.193 385.144 232.193C387.197 232.193 388.637 232.78 389.464 233.953C390.291 235.113 390.704 236.907 390.704 239.333C390.704 241.76 390.291 243.533 389.464 244.653ZM398.029 246.113H393.289V232.413H398.029C400.136 232.413 401.576 232.947 402.349 234.013C403.122 235.08 403.509 236.753 403.509 239.033C403.509 240.193 403.429 241.18 403.269 241.993C403.122 242.793 402.856 243.52 402.469 244.173C401.709 245.467 400.229 246.113 398.029 246.113ZM401.209 239.033C401.209 237.38 401.002 236.187 400.589 235.453C400.176 234.72 399.322 234.353 398.029 234.353H395.509V244.153H398.029C399.349 244.153 400.229 243.667 400.669 242.693C400.882 242.2 401.022 241.673 401.089 241.113C401.169 240.553 401.209 239.86 401.209 239.033ZM406.102 246.113V232.413H414.742V234.353H408.322V238.233H413.542V240.153H408.322V244.153H414.742V246.113H406.102ZM427.131 240.873V238.913H431.031V245.873C430.671 245.967 429.937 246.067 428.831 246.173C427.737 246.28 426.944 246.333 426.451 246.333C424.371 246.333 422.937 245.76 422.151 244.613C421.364 243.467 420.971 241.673 420.971 239.233C420.971 236.78 421.371 234.993 422.171 233.873C422.984 232.753 424.384 232.193 426.371 232.193C427.544 232.193 428.864 232.327 430.331 232.593L431.031 232.733L430.951 234.493C429.337 234.28 427.891 234.173 426.611 234.173C425.331 234.173 424.451 234.533 423.971 235.253C423.504 235.973 423.271 237.307 423.271 239.253C423.271 241.2 423.491 242.547 423.931 243.293C424.384 244.027 425.291 244.393 426.651 244.393C427.624 244.393 428.351 244.333 428.831 244.213V240.873H427.131ZM433.816 246.113V232.413H442.456V234.353H436.036V238.233H441.256V240.153H436.036V244.153H442.456V246.113H433.816ZM447.091 241.233V246.113H444.871V232.413H450.071C453.164 232.413 454.711 233.867 454.711 236.773C454.711 238.72 453.964 240.04 452.471 240.733L454.731 246.113H452.291L450.311 241.233H447.091ZM452.431 236.793C452.431 235.153 451.644 234.333 450.071 234.333H447.091V239.313H450.111C450.911 239.313 451.498 239.087 451.871 238.633C452.244 238.167 452.431 237.553 452.431 236.793ZM455.918 246.113L459.298 232.413H463.718L467.118 246.113H464.878L464.138 243.173H458.878L458.138 246.113H455.918ZM461.018 234.273L459.318 241.213H463.698L462.018 234.273H461.018ZM473.81 246.113H469.07V232.413H473.81C475.917 232.413 477.357 232.947 478.13 234.013C478.904 235.08 479.29 236.753 479.29 239.033C479.29 240.193 479.21 241.18 479.05 241.993C478.904 242.793 478.637 243.52 478.25 244.173C477.49 245.467 476.01 246.113 473.81 246.113ZM476.99 239.033C476.99 237.38 476.784 236.187 476.37 235.453C475.957 234.72 475.104 234.353 473.81 234.353H471.29V244.153H473.81C475.13 244.153 476.01 243.667 476.45 242.693C476.664 242.2 476.804 241.673 476.87 241.113C476.95 240.553 476.99 239.86 476.99 239.033ZM484.263 243.213C484.716 244 485.583 244.393 486.863 244.393C488.143 244.393 489.003 244.007 489.443 243.233C489.896 242.46 490.123 241.167 490.123 239.353C490.123 237.527 489.889 236.2 489.423 235.373C488.969 234.547 488.116 234.133 486.863 234.133C485.609 234.133 484.749 234.547 484.283 235.373C483.816 236.2 483.583 237.52 483.583 239.333C483.583 241.133 483.809 242.427 484.263 243.213ZM491.183 244.653C490.369 245.773 488.929 246.333 486.863 246.333C484.796 246.333 483.349 245.773 482.523 244.653C481.696 243.52 481.283 241.747 481.283 239.333C481.283 236.92 481.696 235.127 482.523 233.953C483.363 232.78 484.809 232.193 486.863 232.193C488.916 232.193 490.356 232.78 491.183 233.953C492.009 235.113 492.423 236.907 492.423 239.333C492.423 241.76 492.009 243.533 491.183 244.653ZM504.422 241.853H501.622V246.113H499.402V232.413H504.422C507.529 232.413 509.082 233.947 509.082 237.013C509.082 238.587 508.689 239.787 507.902 240.613C507.129 241.44 505.969 241.853 504.422 241.853ZM501.622 239.933H504.402C506.002 239.933 506.802 238.96 506.802 237.013C506.802 236.08 506.609 235.4 506.222 234.973C505.836 234.547 505.229 234.333 504.402 234.333H501.622V239.933ZM511.219 246.113V232.413H519.859V234.353H513.439V238.233H518.659V240.153H513.439V244.153H519.859V246.113H511.219ZM529.953 246.113H522.273V232.413H524.493V244.133H529.953V246.113ZM530.586 246.113L533.966 232.413H538.386L541.786 246.113H539.546L538.806 243.173H533.546L532.806 246.113H530.586ZM535.686 234.273L533.986 241.213H538.366L536.686 234.273H535.686ZM546.813 234.393V232.413H556.813V234.393H552.953V246.113H550.713V234.393H546.813ZM558.66 232.413H563.86C565.26 232.413 566.307 232.7 567 233.273C567.693 233.833 568.04 234.733 568.04 235.973C568.04 236.787 567.907 237.427 567.64 237.893C567.387 238.36 566.98 238.747 566.42 239.053C567.727 239.56 568.38 240.62 568.38 242.233C568.38 244.82 566.927 246.113 564.02 246.113H558.66V232.413ZM563.86 240.133H560.88V244.193H563.9C564.633 244.193 565.18 244.04 565.54 243.733C565.913 243.427 566.1 242.9 566.1 242.153C566.1 241.407 565.887 240.887 565.46 240.593C565.033 240.287 564.5 240.133 563.86 240.133ZM563.74 234.333H560.88V238.253H563.82C565.127 238.253 565.78 237.58 565.78 236.233C565.78 234.967 565.1 234.333 563.74 234.333ZM569.55 246.113L572.93 232.413H577.35L580.75 246.113H578.51L577.77 243.173H572.51L571.77 246.113H569.55ZM574.65 234.273L572.95 241.213H577.33L575.65 234.273H574.65ZM582.703 246.113V232.413H586.583L590.743 244.153H591.043V232.413H593.263V246.113H589.463L585.203 234.353H584.923V246.113H582.703ZM598.634 246.113H596.414V232.413H598.634V238.593L600.674 238.433L603.474 232.413H606.014L602.634 239.293L606.154 246.113H603.574L600.674 240.393L598.634 240.533V246.113ZM612.094 234.133C610.401 234.133 609.554 234.727 609.554 235.913C609.554 236.527 609.754 236.967 610.154 237.233C610.554 237.487 611.434 237.807 612.794 238.193C614.168 238.567 615.134 239.02 615.694 239.553C616.254 240.073 616.534 240.9 616.534 242.033C616.534 243.473 616.121 244.553 615.294 245.273C614.481 245.98 613.368 246.333 611.954 246.333C610.821 246.333 609.568 246.2 608.194 245.933L607.474 245.793L607.694 244.013C609.494 244.253 610.868 244.373 611.814 244.373C613.468 244.373 614.294 243.64 614.294 242.173C614.294 241.6 614.108 241.18 613.734 240.913C613.361 240.633 612.521 240.333 611.214 240.013C609.908 239.68 608.934 239.227 608.294 238.653C607.654 238.08 607.334 237.173 607.334 235.933C607.334 234.693 607.734 233.76 608.534 233.133C609.348 232.493 610.468 232.173 611.894 232.173C612.921 232.173 614.134 232.293 615.534 232.533L616.234 232.653L616.054 234.453C614.188 234.24 612.868 234.133 612.094 234.133ZM618.574 246.113V243.233H620.914V246.113H618.574Z" fill="black"/>
<path d="M915.954 62.1002H912.387V111.738H902.644V91.7422H899.077V111.738H889.334V72.0453H885.767V111.738H876.024V84.4591H872.457V111.738H862.723V96.952H859.156V111.738H852.98V115.305H922.13V111.738H915.954V62.1002Z" fill="black"/>
<path d="M925.407 13.6311H782.758C781.025 13.6334 779.364 14.3228 778.139 15.5481C776.913 16.7734 776.224 18.4346 776.222 20.1675V118.634C776.218 119.495 776.385 120.349 776.712 121.145C777.038 121.942 777.519 122.666 778.126 123.276C778.734 123.887 779.455 124.372 780.25 124.703C781.045 125.034 781.897 125.205 782.758 125.206H925.407C927.14 125.204 928.801 124.514 930.026 123.289C931.252 122.064 931.941 120.402 931.943 118.67V20.1675C931.941 18.4346 931.252 16.7734 930.026 15.5481C928.801 14.3228 927.14 13.6334 925.407 13.6311V13.6311ZM928.376 118.634C928.374 119.421 928.06 120.175 927.504 120.732C926.948 121.288 926.194 121.602 925.407 121.604H782.758C781.971 121.602 781.217 121.288 780.661 120.732C780.105 120.175 779.791 119.421 779.789 118.634V20.1675C779.791 19.3806 780.105 18.6267 780.661 18.0703C781.217 17.5139 781.971 17.2003 782.758 17.198H925.407C926.194 17.2003 926.948 17.5139 927.504 18.0703C928.06 18.6267 928.374 19.3806 928.376 20.1675V118.634Z" fill="black"/>
<path d="M920.346 28.0656H859.639V31.6324H920.346V28.0656Z" fill="black"/>
<path d="M829.4 16.1876H825.833V123.379H829.4V16.1876Z" fill="black"/>
<path d="M920.355 37.1497H872.378V40.7165H920.355V37.1497Z" fill="#582689"/>
<path d="M819.604 110.113H789.049V113.679H819.604V110.113Z" fill="#582689"/>
<path d="M815.343 99.6227H793.327V103.19H815.343V99.6227Z" fill="black"/>
<path d="M858.392 72.3879H836.375V75.9548H858.392V72.3879Z" fill="black"/>
<path d="M815.343 50.4244H793.327V53.9913H815.343V50.4244Z" fill="black"/>
<path d="M804.555 46.9454C810.62 46.9454 815.537 42.0287 815.537 35.9636C815.537 29.8985 810.62 24.9818 804.555 24.9818C798.49 24.9818 793.573 29.8985 793.573 35.9636C793.573 42.0287 798.49 46.9454 804.555 46.9454Z" stroke="#582689" stroke-width="3" stroke-miterlimit="10"/>
<path d="M804.555 46.9454C809.111 46.9454 812.804 45.2737 812.804 43.2116C812.804 41.1495 809.111 39.4778 804.555 39.4778C799.999 39.4778 796.305 41.1495 796.305 43.2116C796.305 45.2737 799.999 46.9454 804.555 46.9454Z" fill="#582689"/>
<path d="M800.426 66.2733H792.475V74.2241H800.426V66.2733Z" stroke="black" stroke-width="3" stroke-miterlimit="10"/>
<path d="M815.326 66.6071H807.375V74.5579H815.326V66.6071Z" stroke="black" stroke-width="3" stroke-miterlimit="10"/>
<path d="M872.642 52.5505H837.245V60.5013H872.642V52.5505Z" stroke="black" stroke-width="3" stroke-miterlimit="10"/>
<path d="M800.426 79.5217H792.475V87.4725H800.426V79.5217Z" stroke="black" stroke-width="3" stroke-miterlimit="10"/>
<path d="M815.326 79.8556H807.375V87.8064H815.326V79.8556Z" stroke="black" stroke-width="3" stroke-miterlimit="10"/>
<path d="M804.555 37.2814C806.496 37.2814 808.069 35.708 808.069 33.7672C808.069 31.8264 806.496 30.2531 804.555 30.2531C802.614 30.2531 801.041 31.8264 801.041 33.7672C801.041 35.708 802.614 37.2814 804.555 37.2814Z" fill="#582689"/>
<path d="M754.367 213.233V218.113H752.147V204.413H757.347C760.44 204.413 761.987 205.867 761.987 208.773C761.987 210.72 761.24 212.04 759.747 212.733L762.007 218.113H759.567L757.587 213.233H754.367ZM759.707 208.793C759.707 207.153 758.92 206.333 757.347 206.333H754.367V211.313H757.387C758.187 211.313 758.774 211.087 759.147 210.633C759.52 210.167 759.707 209.553 759.707 208.793ZM764.51 218.113V204.413H773.15V206.353H766.73V210.233H771.95V212.153H766.73V216.153H773.15V218.113H764.51ZM780.048 218.333C778.048 218.333 776.688 217.78 775.968 216.673C775.261 215.567 774.908 213.747 774.908 211.213C774.908 208.68 775.268 206.88 775.988 205.813C776.708 204.733 778.061 204.193 780.048 204.193C781.234 204.193 782.541 204.36 783.968 204.693L783.888 206.493C782.688 206.28 781.488 206.173 780.288 206.173C779.088 206.173 778.274 206.533 777.848 207.253C777.421 207.96 777.208 209.3 777.208 211.273C777.208 213.233 777.414 214.573 777.828 215.293C778.241 216 779.048 216.353 780.248 216.353C781.448 216.353 782.661 216.253 783.888 216.053L783.948 217.893C782.574 218.187 781.274 218.333 780.048 218.333ZM786.327 218.113V204.413H794.967V206.353H788.547V210.233H793.767V212.153H788.547V216.153H794.967V218.113H786.327ZM797.381 204.413H802.581C803.981 204.413 805.028 204.7 805.721 205.273C806.415 205.833 806.761 206.733 806.761 207.973C806.761 208.787 806.628 209.427 806.361 209.893C806.108 210.36 805.701 210.747 805.141 211.053C806.448 211.56 807.101 212.62 807.101 214.233C807.101 216.82 805.648 218.113 802.741 218.113H797.381V204.413ZM802.581 212.133H799.601V216.193H802.621C803.355 216.193 803.901 216.04 804.261 215.733C804.635 215.427 804.821 214.9 804.821 214.153C804.821 213.407 804.608 212.887 804.181 212.593C803.755 212.287 803.221 212.133 802.581 212.133ZM802.461 206.333H799.601V210.253H802.541C803.848 210.253 804.501 209.58 804.501 208.233C804.501 206.967 803.821 206.333 802.461 206.333ZM808.272 218.113L811.652 204.413H816.072L819.472 218.113H817.232L816.492 215.173H811.232L810.492 218.113H808.272ZM813.372 206.273L811.672 213.213H816.052L814.372 206.273H813.372ZM825.819 218.113V204.413H834.459V206.353H828.039V210.233H833.259V212.153H828.039V216.153H834.459V218.113H825.819ZM836.873 218.113V204.413H840.733L843.793 215.113L846.853 204.413H850.733V218.113H848.493V206.873H848.193L844.953 217.553H842.633L839.393 206.873H839.093V218.113H836.873ZM862.28 206.133C860.587 206.133 859.74 206.727 859.74 207.913C859.74 208.527 859.94 208.967 860.34 209.233C860.74 209.487 861.62 209.807 862.98 210.193C864.353 210.567 865.32 211.02 865.88 211.553C866.44 212.073 866.72 212.9 866.72 214.033C866.72 215.473 866.307 216.553 865.48 217.273C864.667 217.98 863.553 218.333 862.14 218.333C861.007 218.333 859.753 218.2 858.38 217.933L857.66 217.793L857.88 216.013C859.68 216.253 861.053 216.373 862 216.373C863.653 216.373 864.48 215.64 864.48 214.173C864.48 213.6 864.293 213.18 863.92 212.913C863.547 212.633 862.707 212.333 861.4 212.013C860.093 211.68 859.12 211.227 858.48 210.653C857.84 210.08 857.52 209.173 857.52 207.933C857.52 206.693 857.92 205.76 858.72 205.133C859.533 204.493 860.653 204.173 862.08 204.173C863.107 204.173 864.32 204.293 865.72 204.533L866.42 204.653L866.24 206.453C864.373 206.24 863.053 206.133 862.28 206.133ZM869.12 218.113V204.413H877.76V206.353H871.34V210.233H876.56V212.153H871.34V216.153H877.76V218.113H869.12ZM882.294 213.733C882.294 215.507 883.228 216.393 885.094 216.393C886.961 216.393 887.894 215.507 887.894 213.733V204.413H890.134V213.693C890.134 215.307 889.708 216.487 888.854 217.233C888.014 217.967 886.754 218.333 885.074 218.333C883.408 218.333 882.154 217.967 881.314 217.233C880.474 216.487 880.054 215.307 880.054 213.693V204.413H882.294V213.733ZM897.577 204.413H902.777C904.177 204.413 905.223 204.7 905.917 205.273C906.61 205.833 906.957 206.733 906.957 207.973C906.957 208.787 906.823 209.427 906.557 209.893C906.303 210.36 905.897 210.747 905.337 211.053C906.643 211.56 907.297 212.62 907.297 214.233C907.297 216.82 905.843 218.113 902.937 218.113H897.577V204.413ZM902.777 212.133H899.797V216.193H902.817C903.55 216.193 904.097 216.04 904.457 215.733C904.83 215.427 905.017 214.9 905.017 214.153C905.017 213.407 904.803 212.887 904.377 212.593C903.95 212.287 903.417 212.133 902.777 212.133ZM902.657 206.333H899.797V210.253H902.737C904.043 210.253 904.697 209.58 904.697 208.233C904.697 206.967 904.017 206.333 902.657 206.333ZM908.467 218.113L911.847 204.413H916.267L919.667 218.113H917.427L916.687 215.173H911.427L910.687 218.113H908.467ZM913.567 206.273L911.867 213.213H916.247L914.567 206.273H913.567ZM921.62 218.113V204.413H925.5L929.66 216.153H929.96V204.413H932.18V218.113H928.38L924.12 206.353H923.84V218.113H921.62ZM939.93 218.333C937.93 218.333 936.57 217.78 935.85 216.673C935.144 215.567 934.79 213.747 934.79 211.213C934.79 208.68 935.15 206.88 935.87 205.813C936.59 204.733 937.944 204.193 939.93 204.193C941.117 204.193 942.424 204.36 943.85 204.693L943.77 206.493C942.57 206.28 941.37 206.173 940.17 206.173C938.97 206.173 938.157 206.533 937.73 207.253C937.304 207.96 937.09 209.3 937.09 211.273C937.09 213.233 937.297 214.573 937.71 215.293C938.124 216 938.93 216.353 940.13 216.353C941.33 216.353 942.544 216.253 943.77 216.053L943.83 217.893C942.457 218.187 941.157 218.333 939.93 218.333ZM948.433 215.213C948.886 216 949.753 216.393 951.033 216.393C952.313 216.393 953.173 216.007 953.613 215.233C954.066 214.46 954.293 213.167 954.293 211.353C954.293 209.527 954.06 208.2 953.593 207.373C953.14 206.547 952.286 206.133 951.033 206.133C949.78 206.133 948.92 206.547 948.453 207.373C947.986 208.2 947.753 209.52 947.753 211.333C947.753 213.133 947.98 214.427 948.433 215.213ZM955.353 216.653C954.54 217.773 953.1 218.333 951.033 218.333C948.966 218.333 947.52 217.773 946.693 216.653C945.866 215.52 945.453 213.747 945.453 211.333C945.453 208.92 945.866 207.127 946.693 205.953C947.533 204.78 948.98 204.193 951.033 204.193C953.086 204.193 954.526 204.78 955.353 205.953C956.18 207.113 956.593 208.907 956.593 211.333C956.593 213.76 956.18 215.533 955.353 216.653ZM754.393 246.113V232.413H756.613V246.113H754.393ZM759.764 246.113V232.413H763.644L767.804 244.153H768.104V232.413H770.324V246.113H766.524L762.264 234.353H761.984V246.113H759.764ZM777.495 234.133C775.802 234.133 774.955 234.727 774.955 235.913C774.955 236.527 775.155 236.967 775.555 237.233C775.955 237.487 776.835 237.807 778.195 238.193C779.568 238.567 780.535 239.02 781.095 239.553C781.655 240.073 781.935 240.9 781.935 242.033C781.935 243.473 781.522 244.553 780.695 245.273C779.882 245.98 778.768 246.333 777.355 246.333C776.222 246.333 774.968 246.2 773.595 245.933L772.875 245.793L773.095 244.013C774.895 244.253 776.268 244.373 777.215 244.373C778.868 244.373 779.695 243.64 779.695 242.173C779.695 241.6 779.508 241.18 779.135 240.913C778.762 240.633 777.922 240.333 776.615 240.013C775.308 239.68 774.335 239.227 773.695 238.653C773.055 238.08 772.735 237.173 772.735 235.933C772.735 234.693 773.135 233.76 773.935 233.133C774.748 232.493 775.868 232.173 777.295 232.173C778.322 232.173 779.535 232.293 780.935 232.533L781.635 232.653L781.455 234.453C779.588 234.24 778.268 234.133 777.495 234.133ZM783.014 234.393V232.413H793.014V234.393H789.154V246.113H786.914V234.393H783.014ZM792.861 246.113L796.241 232.413H800.661L804.061 246.113H801.821L801.081 243.173H795.821L795.081 246.113H792.861ZM797.961 234.273L796.261 241.213H800.641L798.961 234.273H797.961ZM806.014 246.113V232.413H809.894L814.054 244.153H814.354V232.413H816.574V246.113H812.774L808.514 234.353H808.234V246.113H806.014ZM818.405 234.393V232.413H828.405V234.393H824.545V246.113H822.305V234.393H818.405ZM828.252 246.113L831.632 232.413H836.052L839.452 246.113H837.212L836.472 243.173H831.212L830.472 246.113H828.252ZM833.352 234.273L831.652 241.213H836.032L834.352 234.273H833.352ZM841.405 246.113V232.413H845.285L849.445 244.153H849.745V232.413H851.965V246.113H848.165L843.905 234.353H843.625V246.113H841.405ZM855.116 246.113V232.413H863.756V234.353H857.336V238.233H862.556V240.153H857.336V244.153H863.756V246.113H855.116ZM864.99 246.113L868.37 232.413H872.79L876.19 246.113H873.95L873.21 243.173H867.95L867.21 246.113H864.99ZM870.09 234.273L868.39 241.213H872.77L871.09 234.273H870.09ZM878.143 246.113V232.413H882.003L885.063 243.113L888.123 232.413H892.003V246.113H889.763V234.873H889.463L886.223 245.553H883.903L880.663 234.873H880.363V246.113H878.143ZM895.135 246.113V232.413H903.775V234.353H897.355V238.233H902.575V240.153H897.355V244.153H903.775V246.113H895.135ZM906.19 246.113V232.413H910.07L914.23 244.153H914.53V232.413H916.75V246.113H912.95L908.69 234.353H908.41V246.113H906.19ZM918.581 234.393V232.413H928.581V234.393H924.721V246.113H922.481V234.393H918.581ZM930.428 246.113V232.413H939.068V234.353H932.648V238.233H937.868V240.153H932.648V244.153H939.068V246.113H930.428ZM945.877 246.113V232.413H954.517V234.353H948.097V238.233H953.317V240.153H948.097V244.153H954.517V246.113H945.877ZM720.176 274.113L723.556 260.413H727.976L731.376 274.113H729.136L728.396 271.173H723.136L722.396 274.113H720.176ZM725.276 262.273L723.576 269.213H727.956L726.276 262.273H725.276ZM737.733 274.333C735.733 274.333 734.373 273.78 733.653 272.673C732.947 271.567 732.593 269.747 732.593 267.213C732.593 264.68 732.953 262.88 733.673 261.813C734.393 260.733 735.747 260.193 737.733 260.193C738.92 260.193 740.227 260.36 741.653 260.693L741.573 262.493C740.373 262.28 739.173 262.173 737.973 262.173C736.773 262.173 735.96 262.533 735.533 263.253C735.107 263.96 734.893 265.3 734.893 267.273C734.893 269.233 735.1 270.573 735.513 271.293C735.927 272 736.733 272.353 737.933 272.353C739.133 272.353 740.347 272.253 741.573 272.053L741.633 273.893C740.26 274.187 738.96 274.333 737.733 274.333ZM746.236 271.213C746.689 272 747.556 272.393 748.836 272.393C750.116 272.393 750.976 272.007 751.416 271.233C751.869 270.46 752.096 269.167 752.096 267.353C752.096 265.527 751.863 264.2 751.396 263.373C750.943 262.547 750.089 262.133 748.836 262.133C747.583 262.133 746.723 262.547 746.256 263.373C745.789 264.2 745.556 265.52 745.556 267.333C745.556 269.133 745.783 270.427 746.236 271.213ZM753.156 272.653C752.343 273.773 750.903 274.333 748.836 274.333C746.769 274.333 745.323 273.773 744.496 272.653C743.669 271.52 743.256 269.747 743.256 267.333C743.256 264.92 743.669 263.127 744.496 261.953C745.336 260.78 746.783 260.193 748.836 260.193C750.889 260.193 752.329 260.78 753.156 261.953C753.983 263.113 754.396 264.907 754.396 267.333C754.396 269.76 753.983 271.533 753.156 272.653ZM756.981 274.113V260.413H760.841L763.901 271.113L766.961 260.413H770.841V274.113H768.601V262.873H768.301L765.061 273.553H762.741L759.501 262.873H759.201V274.113H756.981ZM778.993 269.853H776.193V274.113H773.973V260.413H778.993C782.1 260.413 783.653 261.947 783.653 265.013C783.653 266.587 783.26 267.787 782.473 268.613C781.7 269.44 780.54 269.853 778.993 269.853ZM776.193 267.933H778.973C780.573 267.933 781.373 266.96 781.373 265.013C781.373 264.08 781.18 263.4 780.793 262.973C780.406 262.547 779.8 262.333 778.973 262.333H776.193V267.933ZM784.121 274.113L787.501 260.413H791.921L795.321 274.113H793.081L792.341 271.173H787.081L786.341 274.113H784.121ZM789.221 262.273L787.521 269.213H791.901L790.221 262.273H789.221ZM797.274 274.113V260.413H801.154L805.314 272.153H805.614V260.413H807.834V274.113H804.034L799.774 262.353H799.494V274.113H797.274ZM819.125 274.113V268.193H813.205V274.113H810.985V260.413H813.205V266.253H819.125V260.413H821.365V274.113H819.125ZM824.5 274.113V260.413H833.14V262.353H826.72V266.233H831.94V268.153H826.72V272.153H833.14V274.113H824.5ZM839.95 274.113V260.413H848.59V262.353H842.17V266.233H847.39V268.153H842.17V272.153H848.59V274.113H839.95ZM851.004 274.113V260.413H854.864L857.924 271.113L860.984 260.413H864.864V274.113H862.624V262.873H862.324L859.084 273.553H856.764L853.524 262.873H853.224V274.113H851.004ZM871.071 262.393V260.413H881.071V262.393H877.211V274.113H874.971V262.393H871.071ZM882.918 274.113V260.413H891.558V262.353H885.138V266.233H890.358V268.153H885.138V272.153H891.558V274.113H882.918ZM893.973 274.113V260.413H897.833L900.893 271.113L903.953 260.413H907.833V274.113H905.593V262.873H905.293L902.053 273.553H899.733L896.493 262.873H896.193V274.113H893.973ZM915.985 269.853H913.185V274.113H910.965V260.413H915.985C919.092 260.413 920.645 261.947 920.645 265.013C920.645 266.587 920.252 267.787 919.465 268.613C918.692 269.44 917.532 269.853 915.985 269.853ZM913.185 267.933H915.965C917.565 267.933 918.365 266.96 918.365 265.013C918.365 264.08 918.172 263.4 917.785 262.973C917.399 262.547 916.792 262.333 915.965 262.333H913.185V267.933ZM925.162 271.213C925.615 272 926.482 272.393 927.762 272.393C929.042 272.393 929.902 272.007 930.342 271.233C930.795 270.46 931.022 269.167 931.022 267.353C931.022 265.527 930.788 264.2 930.322 263.373C929.868 262.547 929.015 262.133 927.762 262.133C926.508 262.133 925.648 262.547 925.182 263.373C924.715 264.2 924.482 265.52 924.482 267.333C924.482 269.133 924.708 270.427 925.162 271.213ZM932.082 272.653C931.268 273.773 929.828 274.333 927.762 274.333C925.695 274.333 924.248 273.773 923.422 272.653C922.595 271.52 922.182 269.747 922.182 267.333C922.182 264.92 922.595 263.127 923.422 261.953C924.262 260.78 925.708 260.193 927.762 260.193C929.815 260.193 931.255 260.78 932.082 261.953C932.908 263.113 933.322 264.907 933.322 267.333C933.322 269.76 932.908 271.533 932.082 272.653ZM942.521 269.233V274.113H940.301V260.413H945.501C948.594 260.413 950.141 261.867 950.141 264.773C950.141 266.72 949.394 268.04 947.901 268.733L950.161 274.113H947.721L945.741 269.233H942.521ZM947.861 264.793C947.861 263.153 947.074 262.333 945.501 262.333H942.521V267.313H945.541C946.341 267.313 946.928 267.087 947.301 266.633C947.674 266.167 947.861 265.553 947.861 264.793ZM952.664 274.113V260.413H961.304V262.353H954.884V266.233H960.104V268.153H954.884V272.153H961.304V274.113H952.664ZM962.539 274.113L965.919 260.413H970.339L973.739 274.113H971.499L970.759 271.173H965.499L964.759 274.113H962.539ZM967.639 262.273L965.939 269.213H970.319L968.639 262.273H967.639ZM983.372 274.113H975.692V260.413H977.912V272.133H983.372V274.113ZM984.824 274.113V271.233H987.164V274.113H984.824Z" fill="black"/>
<path d="M375.677 83.9769C376.262 83.3911 376.262 82.4414 375.677 81.8556L366.131 72.3097C365.545 71.7239 364.595 71.7239 364.009 72.3097C363.424 72.8954 363.424 73.8452 364.009 74.431L372.495 82.9163L364.009 91.4015C363.424 91.9873 363.424 92.9371 364.009 93.5229C364.595 94.1086 365.545 94.1086 366.131 93.5229L375.677 83.9769ZM256.301 84.4163H374.616V81.4163H256.301V84.4163Z" fill="#582689"/>
<path d="M734.76 83.9769C735.345 83.3911 735.345 82.4414 734.76 81.8556L725.214 72.3097C724.628 71.7239 723.678 71.7239 723.092 72.3097C722.507 72.8954 722.507 73.8452 723.092 74.431L731.578 82.9163L723.092 91.4015C722.507 91.9873 722.507 92.9371 723.092 93.5229C723.678 94.1086 724.628 94.1086 725.214 93.5229L734.76 83.9769ZM615.384 84.4163H733.699V81.4163H615.384V84.4163Z" fill="#582689"/>
</svg>
