<svg width="314" height="114" viewBox="0 0 314 114" fill="none" xmlns="http://www.w3.org/2000/svg">
<mask id="mask0_3640_26987" style="mask-type:alpha" maskUnits="userSpaceOnUse" x="0" y="0" width="310" height="114">
<rect y="114" width="114" height="310" transform="rotate(-90 0 114)" fill="#C4C4C4"/>
</mask>
<g mask="url(#mask0_3640_26987)">
<circle cx="267.688" cy="13" r="3" transform="rotate(-90 267.688 13)" fill="#FFD847"/>
<circle cx="251.547" cy="13" r="3" transform="rotate(-90 251.547 13)" fill="#FFD847"/>
<circle cx="235.41" cy="13" r="3" transform="rotate(-90 235.41 13)" fill="#FFD847"/>
<circle cx="219.273" cy="13" r="3" transform="rotate(-90 219.273 13)" fill="#FFD847"/>
<circle cx="203.137" cy="13" r="3" transform="rotate(-90 203.137 13)" fill="#FFD847"/>
<circle cx="187" cy="13" r="3" transform="rotate(-90 187 13)" fill="#FFD847"/>
<circle cx="170.863" cy="13" r="3" transform="rotate(-90 170.863 13)" fill="#FFD847"/>
<circle cx="154.723" cy="13" r="3" transform="rotate(-90 154.723 13)" fill="#FFD847"/>
<circle cx="138.586" cy="13" r="3" transform="rotate(-90 138.586 13)" fill="#FFD847"/>
<circle cx="122.449" cy="13" r="3" transform="rotate(-90 122.449 13)" fill="#FFD847"/>
<circle cx="106.312" cy="13" r="3" transform="rotate(-90 106.312 13)" fill="#FFD847"/>
<circle cx="90.1758" cy="13" r="3" transform="rotate(-90 90.1758 13)" fill="#FFD847"/>
<circle cx="74.0391" cy="13" r="3" transform="rotate(-90 74.0391 13)" fill="#FFD847"/>
<circle cx="57.8984" cy="13" r="3" transform="rotate(-90 57.8984 13)" fill="#FFD847"/>
<circle cx="41.7617" cy="13" r="3" transform="rotate(-90 41.7617 13)" fill="#FFD847"/>
<circle cx="25.625" cy="13" r="3" transform="rotate(-90 25.625 13)" fill="#FFD847"/>
<circle cx="9.48828" cy="13" r="3" transform="rotate(-90 9.48828 13)" fill="#FFD847"/>
<circle cx="267.688" cy="35.7712" r="3" transform="rotate(-90 267.688 35.7712)" fill="#FFD847"/>
<circle cx="251.547" cy="35.7712" r="3" transform="rotate(-90 251.547 35.7712)" fill="#FFD847"/>
<circle cx="235.41" cy="35.7712" r="3" transform="rotate(-90 235.41 35.7712)" fill="#FFD847"/>
<circle cx="219.273" cy="35.7712" r="3" transform="rotate(-90 219.273 35.7712)" fill="#FFD847"/>
<circle cx="203.137" cy="35.7712" r="3" transform="rotate(-90 203.137 35.7712)" fill="#FFD847"/>
<circle cx="187" cy="35.7712" r="3" transform="rotate(-90 187 35.7712)" fill="#FFD847"/>
<circle cx="170.863" cy="35.7712" r="3" transform="rotate(-90 170.863 35.7712)" fill="#FFD847"/>
<circle cx="154.723" cy="35.7712" r="3" transform="rotate(-90 154.723 35.7712)" fill="#FFD847"/>
<circle cx="138.586" cy="35.7712" r="3" transform="rotate(-90 138.586 35.7712)" fill="#FFD847"/>
<circle cx="122.449" cy="35.7712" r="3" transform="rotate(-90 122.449 35.7712)" fill="#FFD847"/>
<circle cx="106.312" cy="35.7712" r="3" transform="rotate(-90 106.312 35.7712)" fill="#FFD847"/>
<circle cx="90.1758" cy="35.7712" r="3" transform="rotate(-90 90.1758 35.7712)" fill="#FFD847"/>
<circle cx="74.0391" cy="35.7712" r="3" transform="rotate(-90 74.0391 35.7712)" fill="#FFD847"/>
<circle cx="57.8984" cy="35.7712" r="3" transform="rotate(-90 57.8984 35.7712)" fill="#FFD847"/>
<circle cx="41.7617" cy="35.7712" r="3" transform="rotate(-90 41.7617 35.7712)" fill="#FFD847"/>
<circle cx="25.625" cy="35.7712" r="3" transform="rotate(-90 25.625 35.7712)" fill="#FFD847"/>
<circle cx="9.48828" cy="35.7712" r="3" transform="rotate(-90 9.48828 35.7712)" fill="#FFD847"/>
<circle cx="267.688" cy="58.7712" r="3" transform="rotate(-90 267.688 58.7712)" fill="#FFD847"/>
<circle cx="251.547" cy="58.7712" r="3" transform="rotate(-90 251.547 58.7712)" fill="#FFD847"/>
<circle cx="235.41" cy="58.7712" r="3" transform="rotate(-90 235.41 58.7712)" fill="#FFD847"/>
<circle cx="219.273" cy="58.7712" r="3" transform="rotate(-90 219.273 58.7712)" fill="#FFD847"/>
<circle cx="203.137" cy="58.7712" r="3" transform="rotate(-90 203.137 58.7712)" fill="#FFD847"/>
<circle cx="187" cy="58.7712" r="3" transform="rotate(-90 187 58.7712)" fill="#FFD847"/>
<circle cx="170.863" cy="58.7712" r="3" transform="rotate(-90 170.863 58.7712)" fill="#FFD847"/>
<circle cx="154.723" cy="58.7712" r="3" transform="rotate(-90 154.723 58.7712)" fill="#FFD847"/>
<circle cx="138.586" cy="58.7712" r="3" transform="rotate(-90 138.586 58.7712)" fill="#FFD847"/>
<circle cx="122.449" cy="58.7712" r="3" transform="rotate(-90 122.449 58.7712)" fill="#FFD847"/>
<circle cx="106.312" cy="58.7712" r="3" transform="rotate(-90 106.312 58.7712)" fill="#FFD847"/>
<circle cx="90.1758" cy="58.7712" r="3" transform="rotate(-90 90.1758 58.7712)" fill="#FFD847"/>
<circle cx="74.0391" cy="58.7712" r="3" transform="rotate(-90 74.0391 58.7712)" fill="#FFD847"/>
<circle cx="57.8984" cy="58.7712" r="3" transform="rotate(-90 57.8984 58.7712)" fill="#FFD847"/>
<circle cx="41.7617" cy="58.7712" r="3" transform="rotate(-90 41.7617 58.7712)" fill="#FFD847"/>
<circle cx="25.625" cy="58.7712" r="3" transform="rotate(-90 25.625 58.7712)" fill="#FFD847"/>
<circle cx="9.48828" cy="58.7712" r="3" transform="rotate(-90 9.48828 58.7712)" fill="#FFD847"/>
<circle cx="267.688" cy="81.7712" r="3" transform="rotate(-90 267.688 81.7712)" fill="#FFD847"/>
<circle cx="251.547" cy="81.7712" r="3" transform="rotate(-90 251.547 81.7712)" fill="#FFD847"/>
<circle cx="235.41" cy="81.7712" r="3" transform="rotate(-90 235.41 81.7712)" fill="#FFD847"/>
<circle cx="219.273" cy="81.7712" r="3" transform="rotate(-90 219.273 81.7712)" fill="#FFD847"/>
<circle cx="203.137" cy="81.7712" r="3" transform="rotate(-90 203.137 81.7712)" fill="#FFD847"/>
<circle cx="187" cy="81.7712" r="3" transform="rotate(-90 187 81.7712)" fill="#FFD847"/>
<circle cx="170.863" cy="81.7712" r="3" transform="rotate(-90 170.863 81.7712)" fill="#FFD847"/>
<circle cx="154.723" cy="81.7712" r="3" transform="rotate(-90 154.723 81.7712)" fill="#FFD847"/>
<circle cx="138.586" cy="81.7712" r="3" transform="rotate(-90 138.586 81.7712)" fill="#FFD847"/>
<circle cx="122.449" cy="81.7712" r="3" transform="rotate(-90 122.449 81.7712)" fill="#FFD847"/>
<circle cx="106.312" cy="81.7712" r="3" transform="rotate(-90 106.312 81.7712)" fill="#FFD847"/>
<circle cx="90.1758" cy="81.7712" r="3" transform="rotate(-90 90.1758 81.7712)" fill="#FFD847"/>
<circle cx="74.0391" cy="81.7712" r="3" transform="rotate(-90 74.0391 81.7712)" fill="#FFD847"/>
<circle cx="57.8984" cy="81.7712" r="3" transform="rotate(-90 57.8984 81.7712)" fill="#FFD847"/>
<circle cx="41.7617" cy="81.7712" r="3" transform="rotate(-90 41.7617 81.7712)" fill="#FFD847"/>
<circle cx="25.625" cy="81.7712" r="3" transform="rotate(-90 25.625 81.7712)" fill="#FFD847"/>
<circle cx="9.48828" cy="81.7712" r="3" transform="rotate(-90 9.48828 81.7712)" fill="#FFD847"/>
<circle cx="267.688" cy="104.771" r="3" transform="rotate(-90 267.688 104.771)" fill="#FFD847"/>
<circle cx="251.547" cy="104.771" r="3" transform="rotate(-90 251.547 104.771)" fill="#FFD847"/>
<circle cx="235.41" cy="104.771" r="3" transform="rotate(-90 235.41 104.771)" fill="#FFD847"/>
<circle cx="219.273" cy="104.771" r="3" transform="rotate(-90 219.273 104.771)" fill="#FFD847"/>
<circle cx="203.137" cy="104.771" r="3" transform="rotate(-90 203.137 104.771)" fill="#FFD847"/>
<circle cx="187" cy="104.771" r="3" transform="rotate(-90 187 104.771)" fill="#FFD847"/>
<circle cx="170.863" cy="104.771" r="3" transform="rotate(-90 170.863 104.771)" fill="#FFD847"/>
<circle cx="154.723" cy="104.771" r="3" transform="rotate(-90 154.723 104.771)" fill="#FFD847"/>
<circle cx="138.586" cy="104.771" r="3" transform="rotate(-90 138.586 104.771)" fill="#FFD847"/>
<circle cx="122.449" cy="104.771" r="3" transform="rotate(-90 122.449 104.771)" fill="#FFD847"/>
<circle cx="106.312" cy="104.771" r="3" transform="rotate(-90 106.312 104.771)" fill="#FFD847"/>
<circle cx="90.1758" cy="104.771" r="3" transform="rotate(-90 90.1758 104.771)" fill="#FFD847"/>
<circle cx="74.0391" cy="104.771" r="3" transform="rotate(-90 74.0391 104.771)" fill="#FFD847"/>
<circle cx="57.8984" cy="104.771" r="3" transform="rotate(-90 57.8984 104.771)" fill="#FFD847"/>
<circle cx="41.7617" cy="104.771" r="3" transform="rotate(-90 41.7617 104.771)" fill="#FFD847"/>
<circle cx="25.625" cy="104.771" r="3" transform="rotate(-90 25.625 104.771)" fill="#FFD847"/>
<circle cx="9.48828" cy="104.771" r="3" transform="rotate(-90 9.48828 104.771)" fill="#FFD847"/>
<circle cx="299.137" cy="13" r="3" transform="rotate(-90 299.137 13)" fill="#FFD847"/>
<circle cx="283" cy="13" r="3" transform="rotate(-90 283 13)" fill="#FFD847"/>
<circle cx="299.137" cy="35.7712" r="3" transform="rotate(-90 299.137 35.7712)" fill="#FFD847"/>
<circle cx="283" cy="35.7712" r="3" transform="rotate(-90 283 35.7712)" fill="#FFD847"/>
<circle cx="299.137" cy="58.7712" r="3" transform="rotate(-90 299.137 58.7712)" fill="#FFD847"/>
<circle cx="283" cy="58.7712" r="3" transform="rotate(-90 283 58.7712)" fill="#FFD847"/>
<circle cx="299.137" cy="81.7712" r="3" transform="rotate(-90 299.137 81.7712)" fill="#FFD847"/>
<circle cx="283" cy="81.7712" r="3" transform="rotate(-90 283 81.7712)" fill="#FFD847"/>
<circle cx="299.137" cy="104.771" r="3" transform="rotate(-90 299.137 104.771)" fill="#FFD847"/>
<circle cx="283" cy="104.771" r="3" transform="rotate(-90 283 104.771)" fill="#FFD847"/>
</g>
</svg>
