<svg width="302" height="109" viewBox="0 0 302 109" fill="none" xmlns="http://www.w3.org/2000/svg">
<g clip-path="url(#clip0_2596_24494)">
<path d="M124.639 101.11V39.1668C124.639 33.6944 126.8 28.4461 130.647 24.5765C134.493 20.7069 139.71 18.533 145.15 18.533L163.329 18.5585C168.754 18.5695 173.954 20.7456 177.786 24.6094C181.619 28.4731 183.771 33.7086 183.77 39.1668V52.3488C183.77 57.8215 181.609 63.0701 177.763 66.9402C173.916 70.8103 168.699 72.9849 163.259 72.9858H137.565" stroke="white" stroke-width="6.26" stroke-linecap="round" stroke-linejoin="round"/>
<path d="M188.851 18.5298H196.737C198.97 18.5298 201.111 19.4221 202.69 21.0103C204.269 22.5986 205.156 24.7527 205.156 26.9989V73.2664" stroke="white" stroke-width="6.26" stroke-linecap="round" stroke-linejoin="round"/>
<path d="M203.463 11.3617L199.888 7.76168C199.677 7.54965 199.51 7.29788 199.396 7.02076C199.281 6.74364 199.223 6.4466 199.223 6.14662C199.223 5.84664 199.281 5.54961 199.396 5.27249C199.51 4.99536 199.677 4.74359 199.888 4.53157L203.463 0.934756C203.89 0.505794 204.469 0.264834 205.072 0.264834C205.675 0.264834 206.254 0.505794 206.681 0.934756L210.253 4.53157C210.464 4.74359 210.631 4.99536 210.745 5.27249C210.86 5.54961 210.918 5.84664 210.918 6.14662C210.918 6.4466 210.86 6.74364 210.745 7.02076C210.631 7.29788 210.464 7.54965 210.253 7.76168L206.665 11.3617C206.454 11.574 206.203 11.7424 205.928 11.8573C205.652 11.9722 205.356 12.0313 205.058 12.0313C204.759 12.0313 204.464 11.9722 204.188 11.8573C203.912 11.7424 203.662 11.574 203.451 11.3617" fill="#32BCAD"/>
<path d="M220.294 18.4883H228.114C232.136 18.4867 235.995 20.0925 238.84 22.9525L257.133 41.3542C257.696 41.9214 258.365 42.3714 259.101 42.6784C259.837 42.9854 260.626 43.1434 261.423 43.1434C262.22 43.1434 263.009 42.9854 263.745 42.6784C264.481 42.3714 265.15 41.9214 265.713 41.3542L283.939 23.0226C285.347 21.6063 287.019 20.483 288.859 19.7171C290.699 18.9511 292.671 18.5574 294.662 18.5585H301.02" stroke="white" stroke-width="6.26" stroke-linecap="round" stroke-linejoin="round"/>
<path d="M220.294 72.8614H228.114C232.136 72.8627 235.995 71.257 238.84 68.3973L257.133 49.9955C258.271 48.8515 259.814 48.209 261.423 48.209C263.032 48.209 264.575 48.8515 265.713 49.9955L283.939 68.3303C286.783 71.1899 290.641 72.7956 294.662 72.7945H301.02" stroke="white" stroke-width="6.26" stroke-linecap="round" stroke-linejoin="round"/>
<path d="M78.016 84.6148C76.0866 84.6219 74.175 84.2442 72.3916 83.5037C70.6082 82.7632 68.9884 81.6745 67.6257 80.3006L52.6171 65.1927C52.0863 64.682 51.3801 64.397 50.6456 64.397C49.9111 64.397 49.2049 64.682 48.674 65.1927L33.6147 80.342C32.2529 81.718 30.6334 82.8088 28.85 83.5515C27.0666 84.2942 25.1546 84.674 23.2244 84.669H20.2861L39.3044 103.801C42.1567 106.664 46.0217 108.272 50.0512 108.272C54.0808 108.272 57.9458 106.664 60.7981 103.801L79.8544 84.6276L78.016 84.6148Z" fill="#32BCAD"/>
<path d="M23.2276 31.2239C25.1578 31.2187 27.0699 31.5984 28.8533 32.3411C30.6367 33.0838 32.2561 34.1748 33.6179 35.5509L48.6772 50.7034C49.2006 51.2284 49.9096 51.5231 50.6487 51.5231C51.3879 51.5231 52.0968 51.2284 52.6203 50.7034L67.6257 35.6083C68.9864 34.2304 70.6055 33.1382 72.3891 32.3948C74.1727 31.6515 76.0854 31.2719 78.016 31.2781H79.8227L60.7664 12.1078C59.3553 10.6877 57.6799 9.56125 55.8359 8.79268C53.992 8.02411 52.0155 7.62852 50.0196 7.62852C48.0236 7.62852 46.0471 8.02411 44.2032 8.79268C42.3592 9.56125 40.6838 10.6877 39.2727 12.1078L20.2861 31.2239H23.2276Z" fill="#32BCAD"/>
<path d="M95.5855 47.1385L84.07 35.5541C83.8103 35.6609 83.5328 35.7171 83.2522 35.7199H78.0159C75.291 35.7267 72.679 36.8154 70.7477 38.7491L55.7423 53.8347C54.391 55.1916 52.5596 55.9538 50.6502 55.9538C48.7408 55.9538 46.9094 55.1916 45.5581 53.8347L30.4956 38.6917C28.5649 36.7568 25.9528 35.667 23.2275 35.6593H16.7993C16.5344 35.6533 16.2726 35.6004 16.0259 35.503L4.43749 47.1385C1.5912 50.0079 -0.00732422 53.896 -0.00732422 57.9496C-0.00732422 62.0033 1.5912 65.8914 4.43749 68.7608L16.0006 80.393C16.2467 80.2939 16.5089 80.2409 16.774 80.2368H23.2275C25.9527 80.2287 28.5647 79.139 30.4956 77.2044L45.5549 62.055C48.2777 59.3192 53.0227 59.3192 55.7423 62.055L70.7477 77.147C72.679 79.0807 75.291 80.1693 78.0159 80.1762H83.2522C83.5329 80.1782 83.8105 80.2345 84.07 80.342L95.5855 68.7576C96.9972 67.338 98.117 65.6526 98.881 63.7976C99.645 61.9426 100.038 59.9544 100.038 57.9464C100.038 55.9385 99.645 53.9503 98.881 52.0953C98.117 50.2403 96.9972 48.5548 95.5855 47.1353" fill="#32BCAD"/>
<path d="M140.272 95.8453C139.32 95.8872 138.376 96.0316 137.454 96.2758V100.051C138.159 100.3 138.901 100.425 139.648 100.421C141.53 100.421 142.421 99.7833 142.421 98.1156C142.421 96.5468 141.692 95.8453 140.272 95.8453ZM136.82 102.86V95.3893H137.337L137.391 95.7082C138.351 95.4515 139.334 95.2923 140.326 95.2331C141.013 95.1846 141.695 95.3835 142.25 95.7943C142.884 96.3236 143.099 97.1782 143.099 98.1092C143.099 99.0403 142.783 100.003 141.895 100.51C141.218 100.85 140.468 101.018 139.711 100.998C138.946 100.993 138.186 100.876 137.454 100.651V102.848L136.82 102.86Z" fill="white"/>
<path d="M147.822 95.823C145.943 95.823 145.103 96.4161 145.103 98.0837C145.103 99.694 145.93 100.421 147.822 100.421C149.715 100.421 150.532 99.8343 150.532 98.1698C150.532 96.5596 149.705 95.823 147.822 95.823ZM150.244 100.421C149.61 100.874 148.779 101.005 147.822 101.005C146.865 101.005 146.006 100.864 145.394 100.421C144.706 99.9332 144.424 99.1456 144.424 98.1284C144.424 97.1112 144.706 96.3204 145.394 95.823C146.006 95.3797 146.846 95.2394 147.822 95.2394C148.799 95.2394 149.619 95.3797 150.244 95.823C150.941 96.3204 151.211 97.1303 151.211 98.1156C151.211 99.1009 150.932 99.9332 150.244 100.421Z" fill="white"/>
<path d="M159.151 100.851L157.052 96.3204H157.011L154.945 100.851H154.365L152.146 95.3893H152.843L154.704 99.9746H154.748L156.77 95.3893H157.35L159.423 99.9746H159.468L161.284 95.3893H161.972L159.734 100.851H159.151Z" fill="white"/>
<path d="M166.013 95.8102C164.27 95.8102 163.68 96.5914 163.573 97.7234H168.454C168.4 96.4798 167.766 95.8102 166.013 95.8102ZM165.991 101.005C164.948 101.005 164.27 100.852 163.731 100.399C163.097 99.8471 162.885 99.0467 162.885 98.1284C162.885 97.21 163.173 96.3204 163.896 95.7911C164.528 95.3912 165.268 95.1985 166.013 95.2395C166.773 95.1933 167.53 95.3777 168.184 95.7688C168.967 96.2981 169.12 97.2292 169.12 98.2878H163.557C163.579 99.4134 163.943 100.408 166.051 100.408C166.994 100.383 167.932 100.277 168.856 100.089V100.663C167.917 100.858 166.962 100.97 166.004 100.998" fill="white"/>
<path d="M170.942 100.851V95.3893H171.456L171.51 95.7082C172.66 95.4148 173.199 95.2331 174.21 95.2331H174.286V95.8389H174.134C173.285 95.8389 172.768 95.9569 171.576 96.2694V100.845L170.942 100.851Z" fill="white"/>
<path d="M177.969 95.8102C176.229 95.8102 175.636 96.5914 175.529 97.7234H180.41C180.356 96.4798 179.722 95.8102 177.969 95.8102ZM177.947 101.005C176.904 101.005 176.229 100.852 175.69 100.399C175.056 99.8471 174.841 99.0467 174.841 98.1284C174.841 97.21 175.132 96.3204 175.852 95.7911C176.484 95.392 177.224 95.1993 177.969 95.2395C178.729 95.1933 179.486 95.3777 180.141 95.7688C180.927 96.2981 181.091 97.2292 181.091 98.2878H175.506C175.529 99.4134 175.893 100.408 178.001 100.408C178.945 100.383 179.884 100.277 180.809 100.089V100.663C179.87 100.858 178.915 100.97 177.957 100.998" fill="white"/>
<path d="M188.027 96.1897C187.322 95.9422 186.58 95.8181 185.833 95.823C183.951 95.823 183.06 96.4607 183.06 98.1284C183.06 99.7068 183.792 100.399 185.209 100.399C186.16 100.354 187.104 100.212 188.027 99.9746V96.1897ZM188.147 100.851L188.09 100.533C187.131 100.792 186.147 100.952 185.155 101.011C184.467 101.063 183.783 100.863 183.231 100.447C182.597 99.9172 182.382 99.0626 182.382 98.1347C182.382 97.159 182.699 96.2407 183.586 95.7432C184.264 95.3954 185.019 95.2243 185.78 95.2458C186.541 95.2564 187.297 95.3722 188.027 95.5902V93.0871H188.661V100.851H188.147Z" fill="white"/>
<path d="M197.964 95.8453C197.012 95.8872 196.067 96.0316 195.146 96.2758V100.042C195.849 100.297 196.592 100.426 197.34 100.421C199.222 100.421 200.113 99.7833 200.113 98.1156C200.113 96.5468 199.384 95.8453 197.964 95.8453ZM199.587 100.517C198.911 100.856 198.162 101.024 197.406 101.005C196.579 100.999 195.758 100.86 194.975 100.593L194.943 100.852H194.512V93.0871H195.146V95.6922C196.087 95.4501 197.049 95.2985 198.018 95.2394C198.705 95.191 199.387 95.3899 199.942 95.8006C200.576 96.33 200.791 97.1845 200.791 98.1156C200.791 99.0467 200.474 100.01 199.587 100.517Z" fill="white"/>
<path d="M201.634 102.94V102.347C201.951 102.379 202.237 102.401 202.439 102.401C203.226 102.401 203.707 102.172 204.138 101.276L204.344 100.842L201.492 95.3798H202.227L204.658 100.096H204.699L207.01 95.3798H207.733L204.677 101.515C204.119 102.628 203.517 102.994 202.408 102.994C202.146 102.993 201.884 102.975 201.625 102.94" fill="white"/>
<path d="M216.491 97.7362H214.386V99.6494H216.491C217.943 99.6494 218.491 99.4867 218.491 98.6928C218.491 97.8382 217.737 97.7362 216.478 97.7362H216.491ZM216.098 94.6495H214.38V96.5946H216.111C217.54 96.5946 218.111 96.4224 218.111 95.6125C218.111 94.7452 217.388 94.6559 216.098 94.6559V94.6495ZM219.369 100.357C218.592 100.855 217.657 100.874 215.949 100.874H212.732V93.4442H215.873C217.347 93.4442 218.25 93.4634 219.001 93.9193C219.251 94.0691 219.454 94.2861 219.587 94.5459C219.721 94.8057 219.779 95.0979 219.756 95.3893C219.756 96.1673 219.439 96.6871 218.592 97.0347V97.0761C219.543 97.2929 220.152 97.7808 220.152 98.8299C220.176 99.1295 220.115 99.4297 219.976 99.696C219.838 99.9623 219.627 100.184 219.369 100.335" fill="white"/>
<path d="M226.583 98.5588C225.949 98.5046 225.315 98.4727 224.628 98.4727C223.521 98.4727 223.131 98.6991 223.131 99.2093C223.131 99.7195 223.448 99.9427 224.304 99.9427C225.073 99.9173 225.837 99.8104 226.583 99.6239V98.5588ZM226.9 100.851L226.859 100.533C225.898 100.805 224.909 100.966 223.911 101.011C223.335 101.05 222.76 100.91 222.266 100.609C222.054 100.43 221.889 100.2 221.786 99.9409C221.683 99.6817 221.646 99.401 221.677 99.1237C221.709 98.8464 221.808 98.5813 221.966 98.352C222.124 98.1227 222.336 97.9363 222.583 97.8095C223.154 97.5385 223.918 97.5161 224.618 97.5161C225.185 97.5161 225.949 97.548 226.583 97.5927V97.4938C226.583 96.6393 226.025 96.3587 224.498 96.3587C223.908 96.3587 223.185 96.3906 222.498 96.4543V95.3511C223.261 95.2873 224.124 95.2458 224.834 95.2458C225.784 95.2458 226.758 95.3192 227.369 95.7528C227.981 96.1865 228.111 96.8146 228.111 97.6246V100.858L226.9 100.851Z" fill="white"/>
<path d="M235.192 100.852V97.8382C235.192 96.8433 234.688 96.4862 233.785 96.4862C233.035 96.5197 232.291 96.6351 231.566 96.8306V100.855H230.051V95.3893H231.287L231.341 95.7369C232.286 95.457 233.26 95.2901 234.244 95.2394C234.912 95.1857 235.576 95.386 236.105 95.8006C236.533 96.1897 236.694 96.7317 236.694 97.5098V100.852H235.192Z" fill="white"/>
<path d="M240.98 101.005C240.279 101.005 239.516 100.906 238.958 100.431C238.292 99.8885 238.099 99.0371 238.099 98.1156C238.099 97.2515 238.378 96.3077 239.205 95.7783C239.883 95.3351 240.72 95.2394 241.592 95.2394C242.226 95.2394 242.828 95.2809 243.494 95.3447V96.5149C242.945 96.4607 242.289 96.4192 241.763 96.4192C240.321 96.4192 239.642 96.872 239.642 98.1284C239.642 99.305 240.149 99.8152 241.332 99.8152C242.098 99.79 242.861 99.6961 243.611 99.5346V100.657C242.743 100.86 241.858 100.977 240.967 101.005" fill="white"/>
<path d="M248.102 96.3842C246.66 96.3842 246.026 96.8402 246.026 98.0837C246.026 99.3273 246.66 99.8566 248.102 99.8566C249.545 99.8566 250.156 99.4134 250.156 98.1698C250.156 96.9263 249.545 96.3842 248.102 96.3842ZM250.705 100.431C250.039 100.883 249.167 101.005 248.102 101.005C247.037 101.005 246.147 100.874 245.491 100.431C244.736 99.9332 244.467 99.1105 244.467 98.1284C244.467 97.1463 244.736 96.3077 245.491 95.8102C246.147 95.367 247.015 95.2394 248.102 95.2394C249.19 95.2394 250.039 95.367 250.705 95.8102C251.456 96.3077 251.716 97.1431 251.716 98.1156C251.716 99.0882 251.447 99.9332 250.705 100.431Z" fill="white"/>
<path d="M260.467 101.005C259.555 101.005 258.566 100.851 257.824 100.236C256.943 99.4995 256.673 98.3643 256.673 97.1431C256.673 96.0494 257.019 94.7516 258.166 93.9959C259.06 93.4123 260.166 93.2912 261.285 93.2912C262.103 93.2912 262.943 93.3454 263.856 93.4219V94.7516C263.073 94.6878 262.103 94.6336 261.352 94.6336C259.253 94.6336 258.363 95.434 258.363 97.1431C258.363 98.8522 259.19 99.6621 260.737 99.6621C261.842 99.6237 262.941 99.4753 264.018 99.2189V100.539C262.852 100.81 261.663 100.966 260.467 101.005Z" fill="white"/>
<path d="M268.474 96.212C267.206 96.212 266.731 96.668 266.632 97.4875H270.29C270.246 96.601 269.729 96.212 268.474 96.212ZM268.246 100.995C267.355 100.995 266.547 100.887 265.945 100.389C265.342 99.8917 265.073 99.0371 265.073 98.1061C265.073 97.2738 265.342 96.3427 266.097 95.8006C266.762 95.3255 267.612 95.2299 268.474 95.2299C269.247 95.2299 270.16 95.316 270.826 95.7815C271.698 96.3969 271.777 97.3503 271.777 98.4727H266.623C266.655 99.3082 267.095 99.8471 268.623 99.8471C269.593 99.8258 270.561 99.732 271.517 99.5665V100.638C270.438 100.844 269.344 100.963 268.246 100.995Z" fill="white"/>
<path d="M278.528 100.852V97.8382C278.528 96.8433 278.024 96.4862 277.121 96.4862C276.371 96.5197 275.627 96.6351 274.902 96.8306V100.855H273.387V95.3893H274.623L274.677 95.7369C275.622 95.457 276.597 95.2901 277.581 95.2394C278.249 95.1857 278.913 95.386 279.441 95.8006C279.869 96.1897 280.031 96.7317 280.031 97.5098V100.852H278.528Z" fill="white"/>
<path d="M284.351 101.005C283.619 101.005 282.953 100.797 282.589 100.223C282.29 99.7271 282.151 99.1504 282.189 98.5716V96.5245H281.093V95.3893H282.189L282.351 93.7344H283.689V95.3893H285.828V96.5245H283.689V98.2783C283.669 98.6313 283.719 98.9848 283.838 99.3178C283.999 99.6845 284.354 99.8248 284.83 99.8248C285.193 99.8181 285.556 99.7818 285.914 99.7163V100.81C285.398 100.922 284.873 100.988 284.345 101.005" fill="white"/>
<path d="M287.315 100.851V95.3893H288.551L288.605 95.7369C289.472 95.4407 290.377 95.2731 291.293 95.2394C291.357 95.2357 291.422 95.2357 291.486 95.2394V96.5627C291.315 96.5627 291.109 96.5627 290.96 96.5627C290.241 96.5657 289.525 96.66 288.83 96.8433V100.877L287.315 100.851Z" fill="white"/>
<path d="M297.001 98.5588C296.367 98.5046 295.734 98.4727 295.043 98.4727C293.936 98.4727 293.55 98.6991 293.55 99.2093C293.55 99.7195 293.867 99.9427 294.719 99.9427C295.489 99.9173 296.254 99.8104 297.001 99.6239V98.5588ZM297.318 100.851L297.274 100.533C296.313 100.805 295.324 100.966 294.326 101.011C293.75 101.05 293.176 100.91 292.681 100.609C292.481 100.455 292.322 100.254 292.217 100.024C292.112 99.7942 292.065 99.5418 292.079 99.289C292.064 98.978 292.144 98.6699 292.308 98.4056C292.471 98.1414 292.711 97.9334 292.995 97.8095C293.565 97.5385 294.326 97.5161 295.027 97.5161C295.597 97.5161 296.361 97.548 296.995 97.5927V97.4938C296.995 96.6393 296.434 96.3587 294.909 96.3587C294.317 96.3587 293.597 96.3906 292.909 96.4543V95.3511C293.673 95.2873 294.532 95.2458 295.242 95.2458C296.193 95.2458 297.166 95.3192 297.778 95.7528C298.39 96.1865 298.52 96.8146 298.52 97.6246V100.858L297.318 100.851Z" fill="white"/>
<path d="M300.463 93.0871H301.981V100.851H300.463V93.0871Z" fill="white"/>
</g>
<defs>
<clipPath id="clip0_2596_24494">
<rect width="302" height="108" fill="white" transform="translate(0 0.265137)"/>
</clipPath>
</defs>
</svg>
