<svg width="147" height="387" viewBox="0 0 147 387" fill="none" xmlns="http://www.w3.org/2000/svg">
<mask id="mask0_2596_24694" style="mask-type:alpha" maskUnits="userSpaceOnUse" x="0" y="0" width="147" height="387">
<circle cx="142.614" cy="382.07" r="4.38559" fill="#FFD847"/>
<circle cx="142.614" cy="358.48" r="4.38559" fill="#FFD847"/>
<circle cx="142.614" cy="334.889" r="4.38559" fill="#FFD847"/>
<circle cx="142.614" cy="311.298" r="4.38559" fill="#FFD847"/>
<circle cx="142.614" cy="287.708" r="4.38559" fill="#FFD847"/>
<circle cx="142.614" cy="264.117" r="4.38559" fill="#FFD847"/>
<circle cx="142.614" cy="240.527" r="4.38559" fill="#FFD847"/>
<circle cx="142.614" cy="216.936" r="4.38559" fill="#FFD847"/>
<circle cx="142.614" cy="193.346" r="4.38559" fill="#FFD847"/>
<circle cx="142.614" cy="169.755" r="4.38559" fill="#FFD847"/>
<circle cx="142.614" cy="146.164" r="4.38559" fill="#FFD847"/>
<circle cx="142.614" cy="122.574" r="4.38559" fill="#FFD847"/>
<circle cx="142.614" cy="98.9832" r="4.38559" fill="#FFD847"/>
<circle cx="142.614" cy="75.3927" r="4.38559" fill="#FFD847"/>
<circle cx="142.614" cy="51.8021" r="4.38559" fill="#FFD847"/>
<circle cx="142.614" cy="28.2115" r="4.38559" fill="#FFD847"/>
<circle cx="142.614" cy="4.62094" r="4.38559" fill="#FFD847"/>
<circle cx="119.614" cy="382.07" r="4.38559" fill="#FFD847"/>
<circle cx="119.614" cy="358.48" r="4.38559" fill="#FFD847"/>
<circle cx="119.614" cy="334.889" r="4.38559" fill="#FFD847"/>
<circle cx="119.614" cy="311.298" r="4.38559" fill="#FFD847"/>
<circle cx="119.614" cy="287.708" r="4.38559" fill="#FFD847"/>
<circle cx="119.614" cy="264.117" r="4.38559" fill="#FFD847"/>
<circle cx="119.614" cy="240.527" r="4.38559" fill="#FFD847"/>
<circle cx="119.614" cy="216.936" r="4.38559" fill="#FFD847"/>
<circle cx="119.614" cy="193.346" r="4.38559" fill="#FFD847"/>
<circle cx="119.614" cy="169.755" r="4.38559" fill="#FFD847"/>
<circle cx="119.614" cy="146.164" r="4.38559" fill="#FFD847"/>
<circle cx="119.614" cy="122.574" r="4.38559" fill="#FFD847"/>
<circle cx="119.614" cy="98.9832" r="4.38559" fill="#FFD847"/>
<circle cx="119.614" cy="75.3927" r="4.38559" fill="#FFD847"/>
<circle cx="119.614" cy="51.8021" r="4.38559" fill="#FFD847"/>
<circle cx="119.614" cy="28.2115" r="4.38559" fill="#FFD847"/>
<circle cx="119.614" cy="4.62094" r="4.38559" fill="#FFD847"/>
<circle cx="96.6143" cy="382.07" r="4.38559" fill="#FFD847"/>
<circle cx="96.6143" cy="358.48" r="4.38559" fill="#FFD847"/>
<circle cx="96.6143" cy="334.889" r="4.38559" fill="#FFD847"/>
<circle cx="96.6143" cy="311.298" r="4.38559" fill="#FFD847"/>
<circle cx="96.6143" cy="287.708" r="4.38559" fill="#FFD847"/>
<circle cx="96.6143" cy="264.117" r="4.38559" fill="#FFD847"/>
<circle cx="96.6143" cy="240.527" r="4.38559" fill="#FFD847"/>
<circle cx="96.6143" cy="216.936" r="4.38559" fill="#FFD847"/>
<circle cx="96.6143" cy="193.346" r="4.38559" fill="#FFD847"/>
<circle cx="96.6143" cy="169.755" r="4.38559" fill="#FFD847"/>
<circle cx="96.6143" cy="146.164" r="4.38559" fill="#FFD847"/>
<circle cx="96.6143" cy="122.574" r="4.38559" fill="#FFD847"/>
<circle cx="96.6143" cy="98.9832" r="4.38559" fill="#FFD847"/>
<circle cx="96.6143" cy="75.3927" r="4.38559" fill="#FFD847"/>
<circle cx="96.6143" cy="51.8021" r="4.38559" fill="#FFD847"/>
<circle cx="96.6143" cy="28.2115" r="4.38559" fill="#FFD847"/>
<circle cx="96.6143" cy="4.62094" r="4.38559" fill="#FFD847"/>
<circle cx="73.6143" cy="382.07" r="4.38559" fill="#FFD847"/>
<circle cx="73.6143" cy="358.48" r="4.38559" fill="#FFD847"/>
<circle cx="73.6143" cy="334.889" r="4.38559" fill="#FFD847"/>
<circle cx="73.6143" cy="311.298" r="4.38559" fill="#FFD847"/>
<circle cx="73.6143" cy="287.708" r="4.38559" fill="#FFD847"/>
<circle cx="73.6143" cy="264.117" r="4.38559" fill="#FFD847"/>
<circle cx="73.6143" cy="240.527" r="4.38559" fill="#FFD847"/>
<circle cx="73.6143" cy="216.936" r="4.38559" fill="#FFD847"/>
<circle cx="73.6143" cy="193.346" r="4.38559" fill="#FFD847"/>
<circle cx="73.6143" cy="169.755" r="4.38559" fill="#FFD847"/>
<circle cx="73.6143" cy="146.164" r="4.38559" fill="#FFD847"/>
<circle cx="73.6143" cy="122.574" r="4.38559" fill="#FFD847"/>
<circle cx="73.6143" cy="98.9832" r="4.38559" fill="#FFD847"/>
<circle cx="73.6143" cy="75.3927" r="4.38559" fill="#FFD847"/>
<circle cx="73.6143" cy="51.8021" r="4.38559" fill="#FFD847"/>
<circle cx="73.6143" cy="28.2115" r="4.38559" fill="#FFD847"/>
<circle cx="73.6143" cy="4.62094" r="4.38559" fill="#FFD847"/>
<circle cx="50.6143" cy="382.07" r="4.38559" fill="#FFD847"/>
<circle cx="50.6143" cy="358.48" r="4.38559" fill="#FFD847"/>
<circle cx="50.6143" cy="334.889" r="4.38559" fill="#FFD847"/>
<circle cx="50.6143" cy="311.298" r="4.38559" fill="#FFD847"/>
<circle cx="50.6143" cy="287.708" r="4.38559" fill="#FFD847"/>
<circle cx="50.6143" cy="264.117" r="4.38559" fill="#FFD847"/>
<circle cx="50.6143" cy="240.527" r="4.38559" fill="#FFD847"/>
<circle cx="50.6143" cy="216.936" r="4.38559" fill="#FFD847"/>
<circle cx="50.6143" cy="193.346" r="4.38559" fill="#FFD847"/>
<circle cx="50.6143" cy="169.755" r="4.38559" fill="#FFD847"/>
<circle cx="50.6143" cy="146.164" r="4.38559" fill="#FFD847"/>
<circle cx="50.6143" cy="122.574" r="4.38559" fill="#FFD847"/>
<circle cx="50.6143" cy="98.9832" r="4.38559" fill="#FFD847"/>
<circle cx="50.6143" cy="75.3927" r="4.38559" fill="#FFD847"/>
<circle cx="50.6143" cy="51.8021" r="4.38559" fill="#FFD847"/>
<circle cx="50.6143" cy="28.2115" r="4.38559" fill="#FFD847"/>
<circle cx="50.6143" cy="4.62094" r="4.38559" fill="#FFD847"/>
<circle cx="27.6143" cy="382.07" r="4.38559" fill="#FFD847"/>
<circle cx="27.6143" cy="358.48" r="4.38559" fill="#FFD847"/>
<circle cx="27.6143" cy="334.889" r="4.38559" fill="#FFD847"/>
<circle cx="27.6143" cy="311.298" r="4.38559" fill="#FFD847"/>
<circle cx="27.6143" cy="287.708" r="4.38559" fill="#FFD847"/>
<circle cx="27.6143" cy="264.117" r="4.38559" fill="#FFD847"/>
<circle cx="27.6143" cy="240.527" r="4.38559" fill="#FFD847"/>
<circle cx="27.6143" cy="216.936" r="4.38559" fill="#FFD847"/>
<circle cx="27.6143" cy="193.346" r="4.38559" fill="#FFD847"/>
<circle cx="27.6143" cy="169.755" r="4.38559" fill="#FFD847"/>
<circle cx="27.6143" cy="146.164" r="4.38559" fill="#FFD847"/>
<circle cx="27.6143" cy="122.574" r="4.38559" fill="#FFD847"/>
<circle cx="27.6143" cy="98.9832" r="4.38559" fill="#FFD847"/>
<circle cx="27.6143" cy="75.3927" r="4.38559" fill="#FFD847"/>
<circle cx="27.6143" cy="51.8021" r="4.38559" fill="#FFD847"/>
<circle cx="27.6143" cy="28.2115" r="4.38559" fill="#FFD847"/>
<circle cx="27.6143" cy="4.62094" r="4.38559" fill="#FFD847"/>
<circle cx="4.61435" cy="382.07" r="4.38559" fill="#FFD847"/>
<circle cx="4.61435" cy="358.48" r="4.38559" fill="#FFD847"/>
<circle cx="4.61435" cy="334.889" r="4.38559" fill="#FFD847"/>
<circle cx="4.61435" cy="311.298" r="4.38559" fill="#FFD847"/>
<circle cx="4.61435" cy="287.708" r="4.38559" fill="#FFD847"/>
<circle cx="4.61435" cy="264.117" r="4.38559" fill="#FFD847"/>
<circle cx="4.61435" cy="240.527" r="4.38559" fill="#FFD847"/>
<circle cx="4.61435" cy="216.936" r="4.38559" fill="#FFD847"/>
<circle cx="4.61435" cy="193.346" r="4.38559" fill="#FFD847"/>
<circle cx="4.61435" cy="169.755" r="4.38559" fill="#FFD847"/>
<circle cx="4.61435" cy="146.164" r="4.38559" fill="#FFD847"/>
<circle cx="4.61435" cy="122.574" r="4.38559" fill="#FFD847"/>
<circle cx="4.61435" cy="98.9832" r="4.38559" fill="#FFD847"/>
<circle cx="4.61435" cy="75.3927" r="4.38559" fill="#FFD847"/>
<circle cx="4.61435" cy="51.8021" r="4.38559" fill="#FFD847"/>
<circle cx="4.61435" cy="28.2115" r="4.38559" fill="#FFD847"/>
<circle cx="4.61435" cy="4.62094" r="4.38559" fill="#FFD847"/>
</mask>
<g mask="url(#mask0_2596_24694)">
<rect x="-8.17017" y="-8.73193" width="168.257" height="94.9841" fill="#FFD847"/>
</g>
</svg>
