<svg width="147" height="387" viewBox="0 0 147 387" fill="none" xmlns="http://www.w3.org/2000/svg">
<mask id="mask0_2596_24693" style="mask-type:alpha" maskUnits="userSpaceOnUse" x="0" y="0" width="147" height="387">
<circle cx="142.386" cy="381.931" r="4.38559" fill="#FFD847"/>
<circle cx="142.386" cy="358.341" r="4.38559" fill="#FFD847"/>
<circle cx="142.386" cy="334.75" r="4.38559" fill="#FFD847"/>
<circle cx="142.386" cy="311.16" r="4.38559" fill="#FFD847"/>
<circle cx="142.386" cy="287.569" r="4.38559" fill="#FFD847"/>
<circle cx="142.386" cy="263.978" r="4.38559" fill="#FFD847"/>
<circle cx="142.386" cy="240.388" r="4.38559" fill="#FFD847"/>
<circle cx="142.386" cy="216.797" r="4.38559" fill="#FFD847"/>
<circle cx="142.386" cy="193.207" r="4.38559" fill="#FFD847"/>
<circle cx="142.386" cy="169.616" r="4.38559" fill="#FFD847"/>
<circle cx="142.386" cy="146.025" r="4.38559" fill="#FFD847"/>
<circle cx="142.386" cy="122.435" r="4.38559" fill="#FFD847"/>
<circle cx="142.386" cy="98.8443" r="4.38559" fill="#FFD847"/>
<circle cx="142.386" cy="75.2538" r="4.38559" fill="#FFD847"/>
<circle cx="142.386" cy="51.6632" r="4.38559" fill="#FFD847"/>
<circle cx="142.386" cy="28.0726" r="4.38559" fill="#FFD847"/>
<circle cx="142.386" cy="4.48202" r="4.38559" fill="#FFD847"/>
<circle cx="119.386" cy="381.931" r="4.38559" fill="#FFD847"/>
<circle cx="119.386" cy="358.341" r="4.38559" fill="#FFD847"/>
<circle cx="119.386" cy="334.75" r="4.38559" fill="#FFD847"/>
<circle cx="119.386" cy="311.16" r="4.38559" fill="#FFD847"/>
<circle cx="119.386" cy="287.569" r="4.38559" fill="#FFD847"/>
<circle cx="119.386" cy="263.978" r="4.38559" fill="#FFD847"/>
<circle cx="119.386" cy="240.388" r="4.38559" fill="#FFD847"/>
<circle cx="119.386" cy="216.797" r="4.38559" fill="#FFD847"/>
<circle cx="119.386" cy="193.207" r="4.38559" fill="#FFD847"/>
<circle cx="119.386" cy="169.616" r="4.38559" fill="#FFD847"/>
<circle cx="119.386" cy="146.025" r="4.38559" fill="#FFD847"/>
<circle cx="119.386" cy="122.435" r="4.38559" fill="#FFD847"/>
<circle cx="119.386" cy="98.8443" r="4.38559" fill="#FFD847"/>
<circle cx="119.386" cy="75.2538" r="4.38559" fill="#FFD847"/>
<circle cx="119.386" cy="51.6632" r="4.38559" fill="#FFD847"/>
<circle cx="119.386" cy="28.0726" r="4.38559" fill="#FFD847"/>
<circle cx="119.386" cy="4.48202" r="4.38559" fill="#FFD847"/>
<circle cx="96.3856" cy="381.931" r="4.38559" fill="#FFD847"/>
<circle cx="96.3856" cy="358.341" r="4.38559" fill="#FFD847"/>
<circle cx="96.3856" cy="334.75" r="4.38559" fill="#FFD847"/>
<circle cx="96.3856" cy="311.16" r="4.38559" fill="#FFD847"/>
<circle cx="96.3856" cy="287.569" r="4.38559" fill="#FFD847"/>
<circle cx="96.3856" cy="263.978" r="4.38559" fill="#FFD847"/>
<circle cx="96.3856" cy="240.388" r="4.38559" fill="#FFD847"/>
<circle cx="96.3856" cy="216.797" r="4.38559" fill="#FFD847"/>
<circle cx="96.3856" cy="193.207" r="4.38559" fill="#FFD847"/>
<circle cx="96.3856" cy="169.616" r="4.38559" fill="#FFD847"/>
<circle cx="96.3856" cy="146.025" r="4.38559" fill="#FFD847"/>
<circle cx="96.3856" cy="122.435" r="4.38559" fill="#FFD847"/>
<circle cx="96.3856" cy="98.8443" r="4.38559" fill="#FFD847"/>
<circle cx="96.3856" cy="75.2538" r="4.38559" fill="#FFD847"/>
<circle cx="96.3856" cy="51.6632" r="4.38559" fill="#FFD847"/>
<circle cx="96.3856" cy="28.0726" r="4.38559" fill="#FFD847"/>
<circle cx="96.3856" cy="4.48202" r="4.38559" fill="#FFD847"/>
<circle cx="73.3856" cy="381.931" r="4.38559" fill="#FFD847"/>
<circle cx="73.3856" cy="358.341" r="4.38559" fill="#FFD847"/>
<circle cx="73.3856" cy="334.75" r="4.38559" fill="#FFD847"/>
<circle cx="73.3856" cy="311.16" r="4.38559" fill="#FFD847"/>
<circle cx="73.3856" cy="287.569" r="4.38559" fill="#FFD847"/>
<circle cx="73.3856" cy="263.978" r="4.38559" fill="#FFD847"/>
<circle cx="73.3856" cy="240.388" r="4.38559" fill="#FFD847"/>
<circle cx="73.3856" cy="216.797" r="4.38559" fill="#FFD847"/>
<circle cx="73.3856" cy="193.207" r="4.38559" fill="#FFD847"/>
<circle cx="73.3856" cy="169.616" r="4.38559" fill="#FFD847"/>
<circle cx="73.3856" cy="146.025" r="4.38559" fill="#FFD847"/>
<circle cx="73.3856" cy="122.435" r="4.38559" fill="#FFD847"/>
<circle cx="73.3856" cy="98.8443" r="4.38559" fill="#FFD847"/>
<circle cx="73.3856" cy="75.2538" r="4.38559" fill="#FFD847"/>
<circle cx="73.3856" cy="51.6632" r="4.38559" fill="#FFD847"/>
<circle cx="73.3856" cy="28.0726" r="4.38559" fill="#FFD847"/>
<circle cx="73.3856" cy="4.48202" r="4.38559" fill="#FFD847"/>
<circle cx="50.3856" cy="381.931" r="4.38559" fill="#FFD847"/>
<circle cx="50.3856" cy="358.341" r="4.38559" fill="#FFD847"/>
<circle cx="50.3856" cy="334.75" r="4.38559" fill="#FFD847"/>
<circle cx="50.3856" cy="311.16" r="4.38559" fill="#FFD847"/>
<circle cx="50.3856" cy="287.569" r="4.38559" fill="#FFD847"/>
<circle cx="50.3856" cy="263.978" r="4.38559" fill="#FFD847"/>
<circle cx="50.3856" cy="240.388" r="4.38559" fill="#FFD847"/>
<circle cx="50.3856" cy="216.797" r="4.38559" fill="#FFD847"/>
<circle cx="50.3856" cy="193.207" r="4.38559" fill="#FFD847"/>
<circle cx="50.3856" cy="169.616" r="4.38559" fill="#FFD847"/>
<circle cx="50.3856" cy="146.025" r="4.38559" fill="#FFD847"/>
<circle cx="50.3856" cy="122.435" r="4.38559" fill="#FFD847"/>
<circle cx="50.3856" cy="98.8443" r="4.38559" fill="#FFD847"/>
<circle cx="50.3856" cy="75.2538" r="4.38559" fill="#FFD847"/>
<circle cx="50.3856" cy="51.6632" r="4.38559" fill="#FFD847"/>
<circle cx="50.3856" cy="28.0726" r="4.38559" fill="#FFD847"/>
<circle cx="50.3856" cy="4.48202" r="4.38559" fill="#FFD847"/>
<circle cx="27.3856" cy="381.931" r="4.38559" fill="#FFD847"/>
<circle cx="27.3856" cy="358.341" r="4.38559" fill="#FFD847"/>
<circle cx="27.3856" cy="334.75" r="4.38559" fill="#FFD847"/>
<circle cx="27.3856" cy="311.16" r="4.38559" fill="#FFD847"/>
<circle cx="27.3856" cy="287.569" r="4.38559" fill="#FFD847"/>
<circle cx="27.3856" cy="263.978" r="4.38559" fill="#FFD847"/>
<circle cx="27.3856" cy="240.388" r="4.38559" fill="#FFD847"/>
<circle cx="27.3856" cy="216.797" r="4.38559" fill="#FFD847"/>
<circle cx="27.3856" cy="193.207" r="4.38559" fill="#FFD847"/>
<circle cx="27.3856" cy="169.616" r="4.38559" fill="#FFD847"/>
<circle cx="27.3856" cy="146.025" r="4.38559" fill="#FFD847"/>
<circle cx="27.3856" cy="122.435" r="4.38559" fill="#FFD847"/>
<circle cx="27.3856" cy="98.8443" r="4.38559" fill="#FFD847"/>
<circle cx="27.3856" cy="75.2538" r="4.38559" fill="#FFD847"/>
<circle cx="27.3856" cy="51.6632" r="4.38559" fill="#FFD847"/>
<circle cx="27.3856" cy="28.0726" r="4.38559" fill="#FFD847"/>
<circle cx="27.3856" cy="4.48202" r="4.38559" fill="#FFD847"/>
<circle cx="4.38559" cy="381.931" r="4.38559" fill="#FFD847"/>
<circle cx="4.38559" cy="358.341" r="4.38559" fill="#FFD847"/>
<circle cx="4.38559" cy="334.75" r="4.38559" fill="#FFD847"/>
<circle cx="4.38559" cy="311.16" r="4.38559" fill="#FFD847"/>
<circle cx="4.38559" cy="287.569" r="4.38559" fill="#FFD847"/>
<circle cx="4.38559" cy="263.978" r="4.38559" fill="#FFD847"/>
<circle cx="4.38559" cy="240.388" r="4.38559" fill="#FFD847"/>
<circle cx="4.38559" cy="216.797" r="4.38559" fill="#FFD847"/>
<circle cx="4.38559" cy="193.207" r="4.38559" fill="#FFD847"/>
<circle cx="4.38559" cy="169.616" r="4.38559" fill="#FFD847"/>
<circle cx="4.38559" cy="146.025" r="4.38559" fill="#FFD847"/>
<circle cx="4.38559" cy="122.435" r="4.38559" fill="#FFD847"/>
<circle cx="4.38559" cy="98.8443" r="4.38559" fill="#FFD847"/>
<circle cx="4.38559" cy="75.2538" r="4.38559" fill="#FFD847"/>
<circle cx="4.38559" cy="51.6632" r="4.38559" fill="#FFD847"/>
<circle cx="4.38559" cy="28.0726" r="4.38559" fill="#FFD847"/>
<circle cx="4.38559" cy="4.48202" r="4.38559" fill="#FFD847"/>
</mask>
<g mask="url(#mask0_2596_24693)">
<rect x="-8.39893" y="-8.87061" width="168.257" height="251.393" fill="#FFD847"/>
</g>
</svg>
