<svg width="1281" height="137" viewBox="0 0 1281 137" fill="none" xmlns="http://www.w3.org/2000/svg">
<path d="M943 137C960.771 71.0289 950.404 18.1787 943 0H1012.59C1027.82 56.8088 1018.94 115.004 1012.59 137H943Z" fill="#F8C100"/>
<path d="M1072 137C1090 71.0289 1079.5 18.1787 1072 0H1142.48C1157.91 56.8088 1148.91 115.004 1142.48 137H1072Z" fill="#FF7C00"/>
<path d="M1203 137C1220.77 71.0289 1210.4 18.1787 1203 0H1272.59C1287.82 56.8088 1278.94 115.004 1272.59 137H1203Z" fill="#FE4817"/>
<path d="M338 137C320.229 71.0289 330.596 18.1787 338 0H268.413C253.176 56.8088 262.064 115.004 268.413 137H338Z" fill="#F8C100"/>
<path d="M209 137C191.001 71.0289 201.501 18.1787 209 0H138.521C123.089 56.8088 132.091 115.004 138.521 137H209Z" fill="#FF7C00"/>
<path d="M78 137C60.2293 71.0289 70.5955 18.1787 78 0H8.41317C-6.82389 56.8088 2.0644 115.004 8.41317 137H78Z" fill="#FE4817"/>
</svg>
