<svg width="103" height="86" viewBox="0 0 103 86" fill="none" xmlns="http://www.w3.org/2000/svg">
<g clip-path="url(#clip0_5593_31256)">
<path d="M55.993 50.7545C57.3212 50.7545 58.402 52.1992 58.402 53.9764C58.3798 54.1445 58.3933 54.3155 58.4417 54.4779C58.4901 54.6403 58.5722 54.7903 58.6825 54.9179C58.7929 55.0454 58.9288 55.1475 59.0813 55.2174C59.2338 55.2872 59.3993 55.3231 59.5666 55.3227C59.7339 55.3223 59.8992 55.2856 60.0514 55.2151C60.2036 55.1445 60.3391 55.0418 60.4488 54.9137C60.5585 54.7857 60.64 54.6353 60.6876 54.4727C60.7353 54.31 60.748 54.139 60.725 53.9709C60.725 50.8853 58.5741 48.3721 55.9715 48.3721H54.9498V46.8838C54.9498 46.5686 54.8263 46.2663 54.6064 46.0434C54.3866 45.8205 54.0884 45.6953 53.7775 45.6953C53.4666 45.6953 53.1685 45.8205 52.9486 46.0434C52.7288 46.2663 52.6053 46.5686 52.6053 46.8838V48.3775H51.5836C48.9649 48.3775 46.8301 50.8908 46.8301 53.9764C46.8301 57.062 48.981 59.5753 51.5836 59.5753H52.6053V66.0082H51.5836C50.2554 66.0082 49.1746 64.5635 49.1746 62.7917C49.1746 62.4765 49.0511 62.1742 48.8312 61.9514C48.6114 61.7285 48.3132 61.6033 48.0023 61.6033C47.6914 61.6033 47.3933 61.7285 47.1734 61.9514C46.9536 62.1742 46.8301 62.4765 46.8301 62.7917C46.8301 65.8774 48.981 68.3906 51.5836 68.3906H52.6053V69.8844C52.6053 70.1996 52.7288 70.5018 52.9486 70.7247C53.1685 70.9476 53.4666 71.0728 53.7775 71.0728C54.0884 71.0728 54.3866 70.9476 54.6064 70.7247C54.8263 70.5018 54.9498 70.1996 54.9498 69.8844V68.3906H55.9715C58.5956 68.3906 60.725 65.8774 60.725 62.7917C60.725 59.7061 58.5741 57.1929 55.9715 57.1929H54.9498V50.7545H55.993ZM54.9713 66.0191V59.5862H55.993C57.3212 59.5862 58.402 61.0254 58.402 62.8026C58.402 64.5799 57.3266 66.0191 55.993 66.0191H54.9713ZM52.6268 50.7545V57.1929H51.5836C50.2554 57.1929 49.1746 55.7482 49.1746 53.9764C49.1746 52.2046 50.25 50.7545 51.5836 50.7545H52.6268Z" fill="#582689"/>
<path d="M47.5777 74.2088C47.4235 74.2216 47.2732 74.2654 47.1357 74.3374C46.9982 74.4094 46.8761 74.5084 46.7765 74.6285C43.6478 78.4123 39.4936 81.1832 34.8278 82.5983C30.162 84.0135 25.1894 84.0109 20.525 82.5908C15.8607 81.1707 11.7093 78.3955 8.58449 74.6084C5.45963 70.8214 3.4984 66.1886 2.94342 61.2833C2.38843 56.378 3.26404 51.4154 5.46192 47.0094C7.6598 42.6033 11.0835 38.9472 15.3095 36.4932C19.5356 34.0393 24.3785 32.8952 29.2391 33.2025C34.0998 33.5098 38.765 35.2551 42.6575 38.2223L40.6733 40.2394L48.5457 42.371L46.4324 34.3898L44.3299 36.5269C40.102 33.2315 35.0125 31.2679 29.6934 30.8798C24.3743 30.4917 19.0599 31.6962 14.4102 34.3438C9.76049 36.9913 5.9803 40.9653 3.53906 45.7721C1.09783 50.579 0.103098 56.007 0.678408 61.382C1.25372 66.7571 3.37372 71.8424 6.77514 76.0065C10.1766 80.1706 14.7096 83.23 19.8112 84.8047C24.9128 86.3795 30.3584 86.4003 35.4716 84.8645C40.5847 83.3286 45.1403 80.3039 48.5725 76.1659C48.7717 75.9222 48.8682 75.6089 48.8414 75.2936C48.8152 74.9807 48.6683 74.6908 48.4327 74.4868C48.1946 74.2843 47.8876 74.1845 47.5777 74.2088Z" fill="#582689"/>
<path d="M28.9073 41.7483V36.8418C28.8871 36.5398 28.7545 36.2568 28.5364 36.0502C28.3183 35.8435 28.0309 35.7285 27.7323 35.7285C27.4338 35.7285 27.1463 35.8435 26.9282 36.0502C26.7101 36.2568 26.5775 36.5398 26.5574 36.8418V41.7483C26.5465 41.9115 26.5688 42.0752 26.6229 42.2293C26.677 42.3834 26.7618 42.5246 26.8719 42.6441C26.9821 42.7637 27.1153 42.8589 27.2633 42.9241C27.4113 42.9892 27.571 43.0228 27.7323 43.0228C27.8937 43.0228 28.0533 42.9892 28.2013 42.9241C28.3493 42.8589 28.4825 42.7637 28.5927 42.6441C28.7029 42.5246 28.7876 42.3834 28.8417 42.2293C28.8959 42.0752 28.9182 41.9115 28.9073 41.7483Z" fill="#582689"/>
<path d="M26.5586 75.0156V79.9221C26.5788 80.2241 26.7113 80.5071 26.9294 80.7137C27.1476 80.9204 27.435 81.0354 27.7335 81.0354C28.0321 81.0354 28.3195 80.9204 28.5376 80.7137C28.7558 80.5071 28.8883 80.2241 28.9085 79.9221V75.0156C28.8883 74.7136 28.7558 74.4307 28.5376 74.224C28.3195 74.0173 28.0321 73.9023 27.7335 73.9023C27.435 73.9023 27.1476 74.0173 26.9294 74.224C26.7113 74.4307 26.5788 74.7136 26.5586 75.0156Z" fill="#582689"/>
<path d="M12.5025 58.3818C12.5011 58.0671 12.3771 57.7656 12.1576 57.543C11.9381 57.3205 11.6407 57.1948 11.3302 57.1934H6.49068C6.1928 57.2138 5.9137 57.3482 5.70984 57.5693C5.50598 57.7905 5.39258 58.0819 5.39258 58.3845C5.39258 58.6872 5.50598 58.9786 5.70984 59.1998C5.9137 59.4209 6.1928 59.5553 6.49068 59.5757H11.3302C11.6416 59.5743 11.9398 59.4479 12.1595 59.2241C12.3792 59.0004 12.5025 58.6975 12.5025 58.3818Z" fill="#582689"/>
<path d="M39.7162 39.5904C39.6784 39.4388 39.6114 39.2962 39.5191 39.1708C39.4268 39.0455 39.3111 38.9398 39.1784 38.8599C39.0457 38.7786 38.8983 38.7249 38.7449 38.7021C38.5915 38.6792 38.4351 38.6875 38.2849 38.7266C38.1348 38.7657 37.9937 38.8347 37.8702 38.9297C37.7466 39.0246 37.6429 39.1436 37.5652 39.2797L35.1024 43.4774C35.0224 43.6109 34.9696 43.7593 34.9475 43.9139C34.9253 44.0684 34.9341 44.2259 34.9734 44.377C35.0106 44.5289 35.0774 44.6717 35.1697 44.7971C35.262 44.9226 35.3781 45.0281 35.5111 45.1075C35.6435 45.189 35.7906 45.243 35.9438 45.2663C36.097 45.2896 36.2532 45.2817 36.4034 45.2431C36.5535 45.2046 36.6946 45.1361 36.8184 45.0417C36.9422 44.9472 37.0461 44.8288 37.1243 44.6932L39.5871 40.4899C39.6663 40.3561 39.7185 40.2077 39.7407 40.0533C39.7628 39.8989 39.7545 39.7415 39.7162 39.5904Z" fill="#582689"/>
<path d="M19.9537 71.6567C19.8208 71.5761 19.6734 71.523 19.5202 71.5005C19.3669 71.478 19.2108 71.4866 19.0608 71.5256C18.9108 71.5646 18.7699 71.6334 18.6463 71.7279C18.5227 71.8225 18.4187 71.9409 18.3405 72.0764L15.8777 76.2742C15.7187 76.5453 15.6724 76.8694 15.749 77.175C15.8257 77.4807 16.019 77.743 16.2864 77.9043C16.5538 78.0655 16.8734 78.1124 17.1749 78.0347C17.4764 77.957 17.7352 77.761 17.8942 77.4899L20.357 73.2867C20.4362 73.1529 20.4884 73.0045 20.5106 72.8501C20.5327 72.6956 20.5244 72.5383 20.486 72.3872C20.4089 72.0828 20.218 71.8209 19.9537 71.6567Z" fill="#582689"/>
<path d="M14.7654 49.6098C14.7285 49.4578 14.6619 49.3149 14.5695 49.1894C14.4771 49.0639 14.3609 48.9585 14.2277 48.8793L10.0872 46.3824C9.8165 46.2207 9.49384 46.1737 9.18918 46.2516C9.0412 46.2904 8.90227 46.3585 8.78043 46.4521C8.6586 46.5457 8.55627 46.6628 8.47938 46.7968C8.3993 46.9302 8.3466 47.0786 8.32443 47.2332C8.30225 47.3878 8.31106 47.5453 8.35032 47.6963C8.38757 47.8482 8.45431 47.991 8.54664 48.1164C8.63897 48.2419 8.75504 48.3474 8.88805 48.4268L13.034 50.9237C13.1662 51.0059 13.3133 51.0605 13.4666 51.0842C13.6199 51.1079 13.7764 51.1002 13.9268 51.0616C14.0771 51.023 14.2183 50.9542 14.3421 50.8594C14.4658 50.7645 14.5695 50.6455 14.6471 50.5093C14.7254 50.3751 14.7762 50.2263 14.7966 50.0718C14.8169 49.9172 14.8063 49.7601 14.7654 49.6098Z" fill="#582689"/>
<path d="M9.32905 70.3264C9.53466 70.3262 9.73667 70.2717 9.91518 70.1683L14.0933 67.7314C14.3636 67.5745 14.5613 67.3152 14.643 67.0105C14.7247 66.7058 14.6836 66.3807 14.5289 66.1068C14.3742 65.8328 14.1184 65.6323 13.8179 65.5495C13.5174 65.4667 13.1967 65.5083 12.9265 65.6652L8.74293 68.1021C8.52036 68.2341 8.3467 68.4366 8.24863 68.6784C8.15056 68.9203 8.1335 69.188 8.20006 69.4406C8.26662 69.6932 8.41313 69.9167 8.61709 70.0767C8.82104 70.2367 9.07117 70.3244 9.32905 70.3264Z" fill="#582689"/>
<path d="M37.2907 77.6378C37.4481 77.912 37.7062 78.1119 38.0085 78.1936C38.3108 78.2753 38.6328 78.2323 38.9039 78.0739C39.0389 77.996 39.1573 77.8916 39.2521 77.7669C39.347 77.6422 39.4165 77.4996 39.4565 77.3474C39.4965 77.1952 39.5063 77.0365 39.4853 76.8805C39.4643 76.7244 39.4129 76.5742 39.3341 76.4384L36.9305 72.2025C36.8612 72.0532 36.7621 71.9201 36.6394 71.8117C36.5166 71.7034 36.373 71.6221 36.2176 71.5731C36.0622 71.5241 35.8984 71.5085 35.7367 71.5272C35.575 71.5459 35.4189 71.5985 35.2784 71.6817C35.1378 71.7649 35.0159 71.8769 34.9204 72.0105C34.8249 72.1441 34.7578 72.2964 34.7236 72.4577C34.6893 72.619 34.6885 72.7858 34.7213 72.9474C34.7541 73.109 34.8197 73.2619 34.914 73.3964L37.2907 77.6378Z" fill="#582689"/>
<path d="M20.5782 43.3672L18.1746 39.1312C18.0163 38.8572 17.7571 38.6582 17.454 38.5779C17.151 38.4977 16.8289 38.5428 16.5587 38.7033C16.2884 38.8637 16.0921 39.1265 16.013 39.4337C15.9338 39.741 15.9783 40.0675 16.1366 40.3415L18.5402 44.5774C18.6449 44.758 18.7942 44.9077 18.9733 45.0119C19.1525 45.1161 19.3553 45.1712 19.5619 45.1717C19.7671 45.1702 19.9684 45.1144 20.1459 45.0098C20.3233 44.9052 20.4706 44.7554 20.5733 44.5752C20.676 44.3951 20.7305 44.1908 20.7314 43.9828C20.7322 43.7747 20.6794 43.57 20.5782 43.389V43.3672Z" fill="#582689"/>
<path d="M35.8974 50.107C35.6776 49.8847 35.3798 49.7598 35.0693 49.7598C34.7588 49.7598 34.461 49.8847 34.2412 50.107L30.0738 54.343C29.367 53.928 28.5648 53.7095 27.7481 53.7095C26.9314 53.7095 26.1291 53.928 25.4224 54.343L22.9757 51.8625C22.7554 51.6398 22.4568 51.515 22.1457 51.5155C21.8346 51.516 21.5365 51.6418 21.3168 51.8652C21.0972 52.0886 20.9741 52.3913 20.9746 52.7067C20.9751 53.0221 21.0992 53.3244 21.3195 53.547L23.7662 56.0275C23.3487 56.7403 23.1277 57.5537 23.1263 58.3827C23.1212 59.1054 23.281 59.8195 23.5932 60.4693C23.9053 61.119 24.3614 61.6868 24.9259 62.1283C25.4903 62.5697 26.1478 62.8729 26.8469 63.0142C27.546 63.1554 28.2679 63.1309 28.9561 62.9425C29.6443 62.7541 30.2803 62.407 30.8143 61.9282C31.3483 61.4494 31.7659 60.8519 32.0344 60.1824C32.303 59.5129 32.4152 58.7896 32.3624 58.0688C32.3096 57.3481 32.0932 56.6495 31.73 56.0275L35.8974 51.7916C36.1171 51.5679 36.2404 51.265 36.2404 50.9493C36.2404 50.6336 36.1171 50.3308 35.8974 50.107ZM29.9824 58.3827C29.9824 58.839 29.8488 59.2851 29.5986 59.6644C29.3485 60.0438 28.9929 60.3393 28.577 60.5137C28.161 60.6881 27.7034 60.7334 27.262 60.644C26.8207 60.5546 26.4154 60.3344 26.0975 60.0114C25.7796 59.6883 25.5634 59.2769 25.4762 58.8292C25.3891 58.3815 25.4349 57.9177 25.6079 57.4964C25.7808 57.0751 26.0732 56.7153 26.448 56.4626C26.8227 56.2099 27.263 56.0755 27.7131 56.0766C28.0132 56.0745 28.3107 56.1325 28.5885 56.2474C28.8664 56.3624 29.119 56.5319 29.332 56.7462C29.5449 56.9606 29.7139 57.2155 29.8292 57.4964C29.9445 57.7772 30.0039 58.0785 30.0039 58.3827H29.9824Z" fill="#582689"/>
<path d="M87.4245 0H70.2924V14.9158H55.5801V39.9934H57.9999V17.369H70.2924V65.6326H67.066V68.0858H102.131V31.3253H87.4245V0ZM85.0047 65.6326H72.7122V2.45325H85.0047V65.6326ZM99.717 33.8003V65.6544H87.4245V33.8003H99.717Z" fill="#582689"/>
</g>
<defs>
<clipPath id="clip0_5593_31256">
<rect width="101.636" height="86" fill="white" transform="translate(0.5)"/>
</clipPath>
</defs>
</svg>
