<svg width="94" height="83" viewBox="0 0 94 83" fill="none" xmlns="http://www.w3.org/2000/svg">
<path d="M39.9951 68.9782C40.0885 69.1651 39.9951 69.352 39.8082 69.4454L33.8288 71.6877C33.3616 70.5665 24.8596 48.0501 24.299 46.4618L30.2785 44.2195C30.4653 44.1261 30.6522 44.2195 30.7456 44.4064C31.3062 45.9012 39.7148 68.1374 39.9951 68.9782ZM13.5546 79.2555C13.2744 79.3489 12.9006 79.2555 12.8072 78.9752L3.65114 54.777C3.55772 54.4967 3.65114 54.123 4.02486 54.0296C9.81747 51.8807 17.759 48.891 21.7764 47.3961L31.3062 72.622C26.8216 74.3037 15.4232 78.6015 13.5546 79.2555ZM90.914 30.1117C90.914 30.1117 90.914 30.0183 90.914 30.1117C87.5506 27.0285 83.6265 28.43 81.104 30.7657L66.7159 42.6312C65.875 40.8561 64.1933 39.0809 60.9232 39.0809C47.5629 39.0809 45.6943 38.8006 42.5177 40.0152L33.3616 43.7524L33.2682 43.3786C32.7076 41.7904 30.9325 41.0429 29.3442 41.6035L22.4304 44.3129C19.3472 45.4341 9.72404 49.0778 3.09057 51.6004C1.40884 52.2544 0.567981 54.123 1.22199 55.8047L10.2846 79.9095C10.9386 81.5912 12.8072 82.432 14.4889 81.778C16.5444 81.0306 30.4653 75.7986 33.5485 74.6774L40.836 71.968C42.4243 71.4074 43.1717 69.6322 42.6111 68.044L42.5177 67.7637C47.2826 65.8017 47.376 65.5214 52.3278 65.5214C53.0752 65.5214 53.6358 64.9608 53.6358 64.2134C53.6358 63.4659 53.0752 62.9053 52.3278 62.9053C46.9089 62.9053 46.4417 63.2791 41.5834 65.3345L34.3894 46.4618L43.5454 42.7246C46.1614 41.6969 47.7497 41.9772 60.9232 41.9772C62.4181 41.9772 63.4458 42.4444 64.0064 43.4721C64.4736 44.2195 64.567 44.9669 64.567 45.1538C64.567 45.7144 64.1933 48.1435 61.7641 48.5173C58.1204 49.1713 50.0855 50.2924 49.992 50.2924C49.2446 50.3858 48.7774 51.0398 48.8709 51.7873C48.9643 52.4413 49.5249 52.9084 50.1789 52.9084C50.2723 52.9084 50.2723 52.9084 50.3657 52.9084C50.4592 52.9084 58.4007 51.7873 62.1378 51.1333C65.5947 50.5727 66.8093 47.6764 67.0896 45.8078L82.6922 33.008L82.7857 32.9146C84.374 31.5131 86.6163 30.2051 88.8586 32.1671C91.3812 34.6897 89.0454 37.586 88.5783 38.24C87.9243 38.894 68.8647 59.2616 68.8647 59.2616C66.0618 62.4382 62.4181 62.9053 60.8298 62.9988C59.9889 62.9988 59.1481 62.9988 58.4007 62.9988C57.6532 62.9988 57.0926 63.5594 57.0926 64.3068C57.0926 65.0542 57.6532 65.6148 58.4007 65.6148C59.1481 65.6148 59.9889 65.6148 60.9232 65.6148C60.9232 65.6148 60.9232 65.6148 61.0167 65.6148C62.8853 65.5214 67.4633 64.8674 70.9202 60.9433C90.6337 39.9218 90.6337 39.9218 90.6337 39.9218C92.5023 37.8663 94.4643 33.5686 90.914 30.1117Z" fill="#F20024" stroke="#F20024" stroke-width="0.5"/>
<path d="M49.8886 30.4157C43.7438 27.7611 31.2045 14.87 37.7338 5.76946C44.2631 -3.33107 52.7123 6.90698 52.7123 6.90698C52.7123 6.90698 59.6256 -2.57271 66.9228 5.0108C74.2201 12.5943 66.2899 24.7277 56.3042 30.4157" stroke="#F20024" stroke-width="3" stroke-linecap="round"/>
</svg>
