<svg width="75" height="77" viewBox="0 0 75 77" fill="none" xmlns="http://www.w3.org/2000/svg">
<path d="M3.73794 38.5606C3.73794 19.4016 18.9309 3.88032 37.5 3.88032C56.1897 3.88032 71.2621 19.4016 71.2621 38.5606C71.2621 57.7197 56.0691 73.241 37.5 73.241C18.8103 73.241 3.73794 57.5984 3.73794 38.5606ZM44.6141 76.3937C61.8569 72.9984 75 57.3559 75 38.5606C75 17.3402 58.119 0 37.5 0C16.7605 0 0 17.3402 0 38.5606C0 47.1701 2.77331 55.1732 7.47588 61.4787C7.91157 62.0629 9.82493 64.4206 10.1286 64.7528C17.0016 72.2709 26.7685 77 37.5 77C38.5852 77 39.6704 77 40.7556 76.8787C42.1386 76.8787 44.6141 76.3937 44.6141 76.3937Z" fill="#F20024"/>
<path d="M34.8527 57C28.2726 54.0106 13.878 39.4934 20.8697 29.2449C27.8614 18.9965 36.909 30.5259 36.909 30.5259C36.909 30.5259 44.3118 19.8505 52.1258 28.3906C59.9397 36.9307 50.4807 50.5946 39.7878 57" stroke="#F20024" stroke-width="3" stroke-linecap="round"/>
</svg>
