<svg width="22" height="22" viewBox="0 0 22 22" fill="none" xmlns="http://www.w3.org/2000/svg">
<path d="M1.02445 21.2683V7.60979H5.31713V21.2683H1.02445ZM3.17079 0.780518C4.53664 0.780518 5.60981 1.85369 5.60981 3.21954C5.60981 4.5854 4.53664 5.65857 3.17079 5.65857C1.80494 5.65857 0.731765 4.5854 0.731765 3.21954C0.634204 1.85369 1.80494 0.780518 3.17079 0.780518Z" fill="white"/>
<path d="M12.1463 7.60979V9.46345C12.9268 8.39027 14.0976 7.21954 16.1464 7.21954C20.439 7.21954 21.2195 10.0488 21.2195 13.7561V21.2683H16.9268V14.6342C16.9268 13.0732 16.9268 11.0244 14.6829 11.0244C12.439 11.0244 12.1463 12.7805 12.1463 14.5366V21.3659H7.85367V7.60979H12.1463Z" fill="white"/>
</svg>
