<svg width="80" height="80" viewBox="0 0 80 80" fill="none" xmlns="http://www.w3.org/2000/svg">
<g clip-path="url(#clip0_3191_31216)">
<path d="M77.4801 63.8046C77.4801 65.3508 77.1549 69.3386 74.3906 72.6754C71.7077 75.8493 67.4801 77.3956 61.8703 77.3956C56.2606 77.3956 52.1142 75.7679 49.35 72.6754C46.5858 69.42 46.2606 65.4322 46.2606 63.8046V37.7618C46.2606 36.2155 46.5858 32.2277 49.35 28.891C52.0329 25.7171 56.2606 24.1708 61.8703 24.1708C67.4801 24.1708 71.6264 25.7984 74.3906 28.891C77.1549 32.1464 77.4801 36.1342 77.4801 37.7618V63.8046ZM61.8703 21.6479C48.4557 21.6479 43.7402 30.3559 43.7402 37.7618V63.8046C43.7402 71.2918 48.4557 79.9185 61.8703 79.9185C75.2849 79.9185 80.0004 71.2105 80.0004 63.8046V37.7618C80.0004 30.3559 75.2849 21.6479 61.8703 21.6479Z" fill="#F20024"/>
<path d="M2.52033 17.9858C2.52033 9.44049 9.43089 2.52289 17.9675 2.52289C26.5041 2.52289 33.4146 9.44049 33.4146 17.9858C33.4146 26.531 26.5041 33.4486 17.9675 33.4486C9.5122 33.4486 2.52033 26.531 2.52033 17.9858ZM50.8943 2.52289C56.2602 2.52289 60.5691 6.9176 60.5691 12.2075V17.7416C60.5691 18.4741 61.1382 19.0437 61.8699 19.0437C62.6016 19.0437 63.1707 18.4741 63.1707 17.7416V12.2075C63.1707 5.53408 57.6423 0 50.8943 0C44.1463 0 38.6179 5.4527 38.6179 12.2075V46.2258C38.6179 51.5158 34.3089 55.8291 28.9431 55.8291C23.5772 55.8291 19.2683 51.4344 19.2683 46.1445V35.9715C28.6179 35.3204 36.0163 27.5076 36.0163 17.9858C36.0163 8.05697 27.8862 0 17.9675 0C8.04878 0 0 8.05697 0 17.9858C0 27.5076 7.39837 35.3204 16.748 35.9715V46.1445C16.748 52.8993 22.2764 58.4334 29.0244 58.4334C35.7724 58.4334 41.3008 52.9807 41.3008 46.2258V12.2075C41.2195 6.9176 45.5285 2.52289 50.8943 2.52289Z" fill="#F20024"/>
<path d="M17.9669 21.648C17.3978 21.648 16.9913 21.2411 16.9913 20.6714C16.9913 19.939 16.4222 19.3693 15.6905 19.3693C14.9588 19.3693 14.3896 19.939 14.3896 20.6714C14.3896 22.1363 15.284 23.4385 16.5848 23.9268V24.4964C16.5848 25.2289 17.1539 25.7986 17.8856 25.7986C18.6173 25.7986 19.1864 25.2289 19.1864 24.4964V23.9268C20.4872 23.4385 21.3815 22.1363 21.3815 20.6714C21.3815 18.2299 19.349 17.2533 18.4547 16.8464C17.3165 16.2767 16.9913 15.9512 16.9913 15.3001C16.9913 14.8118 17.3978 14.3235 17.9669 14.3235C18.536 14.3235 18.9425 14.7304 18.9425 15.3001C18.9425 16.0326 19.5116 16.6022 20.2433 16.6022C20.975 16.6022 21.5441 16.0326 21.5441 15.3001C21.5441 13.8352 20.6498 12.5331 19.349 12.0448V11.4751C19.349 10.7426 18.7799 10.1729 18.0482 10.1729C17.3165 10.1729 16.7474 10.7426 16.7474 11.4751V12.0448C15.4466 12.5331 14.4709 13.8352 14.4709 15.3001C14.4709 17.7416 16.5035 18.7182 17.3978 19.1251C18.536 19.6948 18.8612 20.0203 18.8612 20.6714C18.9425 21.2411 18.536 21.648 17.9669 21.648Z" fill="#F20024"/>
<path d="M30.8941 17.9857C30.8941 10.9053 25.1218 5.12711 17.9673 5.12711C15.0405 5.12711 12.1136 6.18509 9.83721 7.97553C7.56079 9.76597 6.01607 12.3702 5.36567 15.1373C5.20307 15.7883 5.60957 16.5208 6.34128 16.6836C6.99168 16.8463 7.72339 16.4394 7.88599 15.707C8.9429 11.0681 13.1705 7.64999 17.9673 7.64999C23.6583 7.64999 28.2925 12.2889 28.2925 17.9857C28.2925 23.6825 23.6583 28.3214 17.9673 28.3214C13.1705 28.3214 8.9429 24.9033 7.88599 20.2644C7.72339 19.6134 7.07298 19.1251 6.34128 19.2878C5.69087 19.4506 5.20307 20.1017 5.36567 20.8341C6.01607 23.6825 7.56079 26.2054 9.83721 27.9959C12.1136 29.8677 14.9592 30.8443 17.9673 30.8443C25.1218 30.9257 30.8941 25.1474 30.8941 17.9857Z" fill="#F20024"/>
<path d="M59.8369 40.6917V34.6693C59.8369 33.5299 60.7312 32.6347 61.8695 32.6347C63.0077 32.6347 63.902 33.5299 63.902 34.6693V40.6917C63.902 41.8311 63.0077 42.7263 61.8695 42.7263C60.7312 42.7263 59.8369 41.8311 59.8369 40.6917ZM63.1703 49.5625V45.0864C65.0402 44.5167 66.4223 42.8077 66.4223 40.6917V34.6693C66.4223 32.6347 65.0402 30.8443 63.1703 30.2746V27.9959C63.1703 27.2634 62.6012 26.6937 61.8695 26.6937C61.1378 26.6937 60.5686 27.2634 60.5686 27.9959V30.2746C58.6987 30.8443 57.3166 32.5533 57.3166 34.6693V40.6917C57.3166 42.7263 58.6987 44.5167 60.5686 45.0864V49.5625H50.1621C49.4304 49.5625 48.8613 50.1322 48.8613 50.8646C48.8613 51.5971 49.4304 52.1668 50.1621 52.1668H73.6581C74.3898 52.1668 74.9589 51.5971 74.9589 50.8646C74.9589 50.1322 74.3898 49.5625 73.6581 49.5625H63.1703V49.5625Z" fill="#F20024"/>
</g>
<defs>
<clipPath id="clip0_3191_31216">
<rect width="80" height="80" fill="white"/>
</clipPath>
</defs>
</svg>
