<svg width="82" height="82" viewBox="0 0 82 82" fill="none" xmlns="http://www.w3.org/2000/svg">
<path d="M58.8637 66.5951C50.8067 74.6521 42.8311 77.7446 41.0407 78.3957C39.2502 77.7446 31.356 74.7335 23.3805 66.7579C15.0793 58.4568 4.98779 43.238 3.60427 17.1953C5.39471 17.4395 7.26653 17.5209 9.05697 17.5209C15.1607 17.5209 21.1831 16.2187 26.9613 13.6958C32.1699 11.4171 36.8901 8.16175 41.0407 4.09257C45.1912 8.16175 49.9115 11.4171 55.12 13.6958C60.8169 16.2187 66.8392 17.5209 73.0244 17.5209C74.8148 17.5209 76.6866 17.4395 78.4771 17.1953C77.0936 43.1567 67.0834 58.3754 58.8637 66.5951ZM80.6744 14.7538C80.3489 14.5097 80.0234 14.4283 79.6165 14.4283C77.4191 14.7538 75.2217 14.998 73.0244 14.998C61.4679 14.998 50.4812 10.1963 42.0173 1.40692C41.6917 1.16277 41.3662 1 41.0407 1C40.7151 1 40.3896 1.16277 40.1455 1.40692C31.6816 10.1963 20.6134 14.998 9.13835 14.998C6.941 14.998 4.66226 14.8352 2.54629 14.4283C2.13937 14.3469 1.81383 14.5097 1.4883 14.7538C1.16277 14.998 1 15.4049 1 15.7304C1.4883 28.0193 3.84842 39.0875 8.08036 48.6094C11.4171 56.2594 15.9746 62.9328 21.59 68.5483C31.1119 78.0702 40.3082 80.8372 40.7151 81C40.7965 81 40.9593 81.0814 41.1221 81.0814C41.2848 81.0814 41.3662 81.0814 41.4476 81C41.8545 80.9186 51.0508 78.0702 60.5727 68.5483C66.1882 63.0142 70.6643 56.2594 74.0824 48.6094C78.3143 39.0875 80.6744 28.0193 81.1627 15.7304C81.0814 15.4049 80.9186 14.998 80.6744 14.7538Z" fill="#F20024" stroke="#F20024"/>
<path d="M37.6975 58C30.8018 55.1975 16.7303 41.5876 24.0574 31.9796C31.3846 22.3717 40.8662 33.1806 40.8662 33.1806C40.8662 33.1806 48.6242 23.1723 56.8131 31.1787C65.002 39.185 56.1029 51.9949 44.897 58" stroke="#F20024" stroke-width="3" stroke-linecap="round"/>
</svg>
