<svg width="80" height="140" viewBox="0 0 80 140" fill="none" xmlns="http://www.w3.org/2000/svg">
<g clip-path="url(#clip0_13_2167)">
<path d="M28.8726 26.2745C28.8726 27.549 27.8432 28.5784 26.6177 28.5784C25.3922 28.5784 24.3628 27.549 24.3628 26.2745C24.3628 25 25.3922 23.9706 26.6177 23.9706C27.8922 24.0196 28.8726 25.049 28.8726 26.2745Z" fill="black"/>
<path d="M57.0588 30.2451H22.598V22.8922C22.598 22.7451 22.6961 22.6471 22.8431 22.6471H56.8137C56.9608 22.6471 57.0588 22.7451 57.0588 22.8922V30.2451ZM52.8922 40.1471H26.7647C26.0294 40.1471 25.4902 39.5588 25.4902 38.8235C25.4902 38.0882 26.0784 37.5 26.7647 37.5H52.8922C53.6274 37.5 54.1667 38.0882 54.1667 38.8235C54.1667 39.5588 53.5784 40.1471 52.8922 40.1471ZM52.8922 46.3725H26.7647C26.0294 46.3725 25.4902 45.7843 25.4902 45.049C25.4902 44.3137 26.0784 43.7255 26.7647 43.7255H52.8922C53.6274 43.7255 54.1667 44.3137 54.1667 45.049C54.1667 45.7843 53.5784 46.3725 52.8922 46.3725ZM52.8922 52.598H26.7647C26.0294 52.598 25.4902 52.0098 25.4902 51.2745C25.4902 50.5392 26.0784 49.951 26.7647 49.951H52.8922C53.6274 49.951 54.1667 50.5392 54.1667 51.2745C54.1667 52.0098 53.5784 52.598 52.8922 52.598ZM56.8137 20H22.8431C21.2745 20 20 21.2745 20 22.8431V57.1078C20 58.6765 21.2745 59.951 22.8431 59.951H56.8137C58.3824 59.951 59.6569 58.6765 59.6569 57.1078V22.8431C59.6569 21.2745 58.3824 20 56.8137 20Z" fill="black"/>
</g>
<g clip-path="url(#clip1_13_2167)">
<path d="M28.8726 86.2745C28.8726 87.549 27.8432 88.5784 26.6177 88.5784C25.3922 88.5784 24.3628 87.549 24.3628 86.2745C24.3628 85 25.3922 83.9706 26.6177 83.9706C27.8922 84.0196 28.8726 85.049 28.8726 86.2745Z" fill="white"/>
<path d="M57.0588 90.2451H22.598V82.8922C22.598 82.7451 22.6961 82.6471 22.8431 82.6471H56.8137C56.9608 82.6471 57.0588 82.7451 57.0588 82.8922V90.2451ZM52.8922 100.147H26.7647C26.0294 100.147 25.4902 99.5588 25.4902 98.8235C25.4902 98.0882 26.0784 97.5 26.7647 97.5H52.8922C53.6274 97.5 54.1667 98.0882 54.1667 98.8235C54.1667 99.5588 53.5784 100.147 52.8922 100.147ZM52.8922 106.373H26.7647C26.0294 106.373 25.4902 105.784 25.4902 105.049C25.4902 104.314 26.0784 103.725 26.7647 103.725H52.8922C53.6274 103.725 54.1667 104.314 54.1667 105.049C54.1667 105.784 53.5784 106.373 52.8922 106.373ZM52.8922 112.598H26.7647C26.0294 112.598 25.4902 112.01 25.4902 111.275C25.4902 110.539 26.0784 109.951 26.7647 109.951H52.8922C53.6274 109.951 54.1667 110.539 54.1667 111.275C54.1667 112.01 53.5784 112.598 52.8922 112.598ZM56.8137 80H22.8431C21.2745 80 20 81.2745 20 82.8431V117.108C20 118.676 21.2745 119.951 22.8431 119.951H56.8137C58.3824 119.951 59.6569 118.676 59.6569 117.108V82.8431C59.6569 81.2745 58.3824 80 56.8137 80Z" fill="white"/>
</g>
<rect x="0.5" y="0.5" width="78.6569" height="139" rx="4.5" stroke="#7B61FF" stroke-dasharray="10 5"/>
<defs>
<clipPath id="clip0_13_2167">
<rect width="39.6569" height="40" fill="white" transform="translate(20 20)"/>
</clipPath>
<clipPath id="clip1_13_2167">
<rect width="39.6569" height="40" fill="white" transform="translate(20 80)"/>
</clipPath>
</defs>
</svg>
