<svg width="81" height="140" viewBox="0 0 81 140" fill="none" xmlns="http://www.w3.org/2000/svg">
<g clip-path="url(#clip0_13_1935)">
<path d="M24.3133 24.5168C24.0285 24.5168 23.7843 24.2726 23.7843 23.9878C23.7843 23.7029 24.0285 23.4588 24.3133 23.4588C24.6388 23.4181 24.883 23.6622 24.883 23.9878C24.883 24.2726 24.6388 24.5168 24.3133 24.5168ZM24.3133 22.238C23.3774 22.238 22.6042 23.0112 22.6042 23.9471C22.6042 24.883 23.3774 25.6561 24.3133 25.6561C25.2492 25.6561 26.0224 24.883 26.0224 23.9471C26.0224 23.0112 25.2899 22.238 24.3133 22.238Z" fill="black"/>
<path d="M28.7078 24.5168C28.423 24.5168 28.1788 24.2726 28.1788 23.9878C28.1788 23.7029 28.423 23.4588 28.7078 23.4588C28.9927 23.4588 29.2368 23.7029 29.2368 23.9878C29.2368 24.2726 28.9927 24.5168 28.7078 24.5168ZM28.7078 22.238C27.7719 22.238 26.9988 23.0112 26.9988 23.9471C26.9988 24.883 27.7719 25.6561 28.7078 25.6561C29.6437 25.6561 30.4169 24.883 30.4169 23.9471C30.4169 23.0112 29.6437 22.238 28.7078 22.238Z" fill="black"/>
<path d="M33.0621 24.5168C32.7772 24.5168 32.5331 24.2726 32.5331 23.9878C32.5331 23.7029 32.7772 23.4588 33.0621 23.4588C33.3469 23.4588 33.5911 23.7029 33.5911 23.9878C33.6318 24.2726 33.3876 24.5168 33.0621 24.5168ZM33.0621 22.238C32.1262 22.238 31.353 23.0112 31.353 23.9471C31.353 24.883 32.1262 25.6561 33.0621 25.6561C33.998 25.6561 34.7711 24.883 34.7711 23.9471C34.8118 23.0112 34.0387 22.238 33.0621 22.238Z" fill="black"/>
<path d="M58.8199 26.7955H21.2208V22.5636C21.2208 21.7904 21.8718 21.1394 22.645 21.1394H57.4364C58.2096 21.1394 58.8606 21.7904 58.8606 22.5636V26.7955H58.8199ZM58.8199 47.5483H21.1801V27.9756H58.8199V47.5483ZM58.8199 50.9257C58.8199 51.6582 58.2503 52.2686 57.5585 52.3093C57.5178 52.3093 57.4771 52.3093 57.3957 52.3093H22.5636C22.5229 52.3093 22.4822 52.3093 22.4008 52.3093C21.7091 52.2279 21.1394 51.6175 21.1394 50.9257V48.6877H58.7792V50.9257H58.8199ZM44.822 55.6053H35.1373V53.4893H44.822V55.6053ZM57.4771 20H22.5636C21.1394 20 20 21.1394 20 22.5636V50.9257C20 52.2279 20.9359 53.2859 22.1974 53.4893C22.3194 53.4893 22.4415 53.53 22.6043 53.53H33.998V55.646H32.2075C31.0275 55.646 30.0509 56.6226 30.0509 57.8026V59.0641C30.0509 59.5931 30.4985 60.0407 31.0275 60.0407H40.9156C41.2411 60.0407 41.4852 59.7965 41.4852 59.471C41.4852 59.1455 41.2411 58.9013 40.9156 58.9013H31.2309V57.8433C31.2309 57.3143 31.6785 56.8667 32.2075 56.8667H47.7925C48.3215 56.8667 48.7691 57.3143 48.7691 57.8433V58.9013H44.5371C44.2116 58.9013 43.9674 59.1455 43.9674 59.471C43.9674 59.7965 44.2116 60.0407 44.5371 60.0407H48.9318C49.4608 60.0407 49.9084 59.5931 49.9084 59.0641V57.8026C49.9084 56.6226 48.9318 55.646 47.7518 55.646H46.002V53.53H57.3957C57.5178 53.53 57.6806 53.53 57.8026 53.4893C59.0234 53.2859 60 52.2279 60 50.9257V48.118L60.0407 22.5636C60.0407 21.1394 58.9013 20 57.4771 20Z" fill="black"/>
<path d="M23.2147 30.702H24.761C25.0865 30.702 25.3307 30.4578 25.3307 30.1323C25.3307 29.8068 25.0865 29.5626 24.761 29.5626H23.2147C22.8892 29.5626 22.645 29.8068 22.645 30.1323C22.645 30.4578 22.8892 30.702 23.2147 30.702Z" fill="black"/>
<path d="M26.7547 30.702H36.2766C36.6021 30.702 36.8463 30.4578 36.8463 30.1323C36.8463 29.8068 36.6021 29.5626 36.2766 29.5626H26.7547C26.4292 29.5626 26.1851 29.8068 26.1851 30.1323C26.1851 30.4578 26.4292 30.702 26.7547 30.702Z" fill="black"/>
<path d="M35.5851 33.2655C35.9106 33.2655 36.1547 33.0213 36.1547 32.6958C36.1547 32.3703 35.9106 32.1261 35.5851 32.1261H31.7193C31.3938 32.1261 31.1497 32.3703 31.1497 32.6958C31.1497 33.0213 31.3938 33.2655 31.7193 33.2655H35.5851Z" fill="black"/>
<path d="M30.417 32.6958C30.417 32.3703 30.1729 32.1261 29.8473 32.1261H28.5045C28.179 32.1261 27.9348 32.3703 27.9348 32.6958C27.9348 33.0213 28.179 33.2655 28.5045 33.2655H29.8473C30.1729 33.2655 30.417 33.0213 30.417 32.6958Z" fill="black"/>
<path d="M23.2147 33.2655H26.47C26.7956 33.2655 27.0397 33.0213 27.0397 32.6958C27.0397 32.3703 26.7956 32.1261 26.47 32.1261H23.2147C22.8892 32.1261 22.645 32.3703 22.645 32.6958C22.6043 33.0213 22.8892 33.2655 23.2147 33.2655Z" fill="black"/>
<path d="M37.8228 35.2188H41.6886V45.3917H37.8228V35.2188ZM51.8615 37.3348H55.7272V45.3917H51.8615V37.3348ZM34.6896 45.3917H30.8239V40.468H34.6896V45.3917ZM36.6428 45.3917H35.8289V40.3053C35.8289 39.7356 35.3813 39.288 34.8117 39.288H30.6611C30.0914 39.288 29.6438 39.7356 29.6438 40.3053V45.9614C29.6438 46.2869 29.8879 46.5311 30.2135 46.5311H56.2969C56.6224 46.5311 56.8666 46.2869 56.8666 45.9614V37.2127C56.8666 36.643 56.419 36.1954 55.8493 36.1954H51.7394C51.1697 36.1954 50.7221 36.643 50.7221 37.2127V45.3917H49.9083V36.0733C49.9083 35.7478 49.6641 35.5036 49.3386 35.5036C49.0131 35.5036 48.7689 35.7478 48.7689 36.0733V45.351H44.9032V30.6206H48.7689V32.4924C48.7689 32.818 49.0131 33.0621 49.3386 33.0621C49.6641 33.0621 49.9083 32.818 49.9083 32.4924V30.4578C49.9083 29.8882 49.4607 29.4406 48.891 29.4406H44.6997C44.1301 29.4406 43.6825 29.8882 43.6825 30.4578V45.351H42.8686V35.0967C42.8686 34.527 42.421 34.0794 41.8513 34.0794H37.7008C37.1311 34.0794 36.6835 34.527 36.6835 35.0967L36.6428 45.3917Z" fill="black"/>
</g>
<g clip-path="url(#clip1_13_1935)">
<path d="M24.3133 84.5168C24.0285 84.5168 23.7843 84.2726 23.7843 83.9878C23.7843 83.7029 24.0285 83.4588 24.3133 83.4588C24.6388 83.4181 24.883 83.6622 24.883 83.9878C24.883 84.2726 24.6388 84.5168 24.3133 84.5168ZM24.3133 82.238C23.3774 82.238 22.6042 83.0112 22.6042 83.9471C22.6042 84.883 23.3774 85.6561 24.3133 85.6561C25.2492 85.6561 26.0224 84.883 26.0224 83.9471C26.0224 83.0112 25.2899 82.238 24.3133 82.238Z" fill="white"/>
<path d="M28.7078 84.5168C28.423 84.5168 28.1788 84.2726 28.1788 83.9878C28.1788 83.7029 28.423 83.4588 28.7078 83.4588C28.9927 83.4588 29.2368 83.7029 29.2368 83.9878C29.2368 84.2726 28.9927 84.5168 28.7078 84.5168ZM28.7078 82.238C27.7719 82.238 26.9988 83.0112 26.9988 83.9471C26.9988 84.883 27.7719 85.6561 28.7078 85.6561C29.6437 85.6561 30.4169 84.883 30.4169 83.9471C30.4169 83.0112 29.6437 82.238 28.7078 82.238Z" fill="white"/>
<path d="M33.0621 84.5168C32.7772 84.5168 32.5331 84.2726 32.5331 83.9878C32.5331 83.7029 32.7772 83.4588 33.0621 83.4588C33.3469 83.4588 33.5911 83.7029 33.5911 83.9878C33.6318 84.2726 33.3876 84.5168 33.0621 84.5168ZM33.0621 82.238C32.1262 82.238 31.353 83.0112 31.353 83.9471C31.353 84.883 32.1262 85.6561 33.0621 85.6561C33.998 85.6561 34.7711 84.883 34.7711 83.9471C34.8118 83.0112 34.0387 82.238 33.0621 82.238Z" fill="white"/>
<path d="M58.8199 86.7955H21.2208V82.5636C21.2208 81.7904 21.8718 81.1394 22.645 81.1394H57.4364C58.2096 81.1394 58.8606 81.7904 58.8606 82.5636V86.7955H58.8199ZM58.8199 107.548H21.1801V87.9756H58.8199V107.548ZM58.8199 110.926C58.8199 111.658 58.2503 112.269 57.5585 112.309C57.5178 112.309 57.4771 112.309 57.3957 112.309H22.5636C22.5229 112.309 22.4822 112.309 22.4008 112.309C21.7091 112.228 21.1394 111.617 21.1394 110.926V108.688H58.7792V110.926H58.8199ZM44.822 115.605H35.1373V113.489H44.822V115.605ZM57.4771 80H22.5636C21.1394 80 20 81.1394 20 82.5636V110.926C20 112.228 20.9359 113.286 22.1974 113.489C22.3194 113.489 22.4415 113.53 22.6043 113.53H33.998V115.646H32.2075C31.0275 115.646 30.0509 116.623 30.0509 117.803V119.064C30.0509 119.593 30.4985 120.041 31.0275 120.041H40.9156C41.2411 120.041 41.4852 119.797 41.4852 119.471C41.4852 119.145 41.2411 118.901 40.9156 118.901H31.2309V117.843C31.2309 117.314 31.6785 116.867 32.2075 116.867H47.7925C48.3215 116.867 48.7691 117.314 48.7691 117.843V118.901H44.5371C44.2116 118.901 43.9674 119.145 43.9674 119.471C43.9674 119.797 44.2116 120.041 44.5371 120.041H48.9318C49.4608 120.041 49.9084 119.593 49.9084 119.064V117.803C49.9084 116.623 48.9318 115.646 47.7518 115.646H46.002V113.53H57.3957C57.5178 113.53 57.6806 113.53 57.8026 113.489C59.0234 113.286 60 112.228 60 110.926V108.118L60.0407 82.5636C60.0407 81.1394 58.9013 80 57.4771 80Z" fill="white"/>
<path d="M23.2147 90.702H24.761C25.0865 90.702 25.3307 90.4578 25.3307 90.1323C25.3307 89.8068 25.0865 89.5626 24.761 89.5626H23.2147C22.8892 89.5626 22.645 89.8068 22.645 90.1323C22.645 90.4578 22.8892 90.702 23.2147 90.702Z" fill="white"/>
<path d="M26.7547 90.702H36.2766C36.6021 90.702 36.8463 90.4578 36.8463 90.1323C36.8463 89.8068 36.6021 89.5626 36.2766 89.5626H26.7547C26.4292 89.5626 26.1851 89.8068 26.1851 90.1323C26.1851 90.4578 26.4292 90.702 26.7547 90.702Z" fill="white"/>
<path d="M35.5851 93.2655C35.9106 93.2655 36.1547 93.0213 36.1547 92.6958C36.1547 92.3703 35.9106 92.1261 35.5851 92.1261H31.7193C31.3938 92.1261 31.1497 92.3703 31.1497 92.6958C31.1497 93.0213 31.3938 93.2655 31.7193 93.2655H35.5851Z" fill="white"/>
<path d="M30.417 92.6958C30.417 92.3703 30.1729 92.1261 29.8473 92.1261H28.5045C28.179 92.1261 27.9348 92.3703 27.9348 92.6958C27.9348 93.0213 28.179 93.2655 28.5045 93.2655H29.8473C30.1729 93.2655 30.417 93.0213 30.417 92.6958Z" fill="white"/>
<path d="M23.2147 93.2655H26.47C26.7956 93.2655 27.0397 93.0213 27.0397 92.6958C27.0397 92.3703 26.7956 92.1261 26.47 92.1261H23.2147C22.8892 92.1261 22.645 92.3703 22.645 92.6958C22.6043 93.0213 22.8892 93.2655 23.2147 93.2655Z" fill="white"/>
<path d="M37.8228 95.2188H41.6886V105.392H37.8228V95.2188ZM51.8615 97.3348H55.7272V105.392H51.8615V97.3348ZM34.6896 105.392H30.8239V100.468H34.6896V105.392ZM36.6428 105.392H35.8289V100.305C35.8289 99.7356 35.3813 99.288 34.8117 99.288H30.6611C30.0914 99.288 29.6438 99.7356 29.6438 100.305V105.961C29.6438 106.287 29.8879 106.531 30.2135 106.531H56.2969C56.6224 106.531 56.8666 106.287 56.8666 105.961V97.2127C56.8666 96.643 56.419 96.1954 55.8493 96.1954H51.7394C51.1697 96.1954 50.7221 96.643 50.7221 97.2127V105.392H49.9083V96.0733C49.9083 95.7478 49.6641 95.5036 49.3386 95.5036C49.0131 95.5036 48.7689 95.7478 48.7689 96.0733V105.351H44.9032V90.6206H48.7689V92.4924C48.7689 92.818 49.0131 93.0621 49.3386 93.0621C49.6641 93.0621 49.9083 92.818 49.9083 92.4924V90.4578C49.9083 89.8882 49.4607 89.4406 48.891 89.4406H44.6997C44.1301 89.4406 43.6825 89.8882 43.6825 90.4578V105.351H42.8686V95.0967C42.8686 94.527 42.421 94.0794 41.8513 94.0794H37.7008C37.1311 94.0794 36.6835 94.527 36.6835 95.0967L36.6428 105.392Z" fill="white"/>
</g>
<rect x="0.5" y="0.5" width="79.0407" height="139" rx="4.5" stroke="#7B61FF" stroke-dasharray="10 5"/>
<defs>
<clipPath id="clip0_13_1935">
<rect width="40.0407" height="40" fill="white" transform="translate(20 20)"/>
</clipPath>
<clipPath id="clip1_13_1935">
<rect width="40.0407" height="40" fill="white" transform="translate(20 80)"/>
</clipPath>
</defs>
</svg>
