<svg width="81" height="140" viewBox="0 0 81 140" fill="none" xmlns="http://www.w3.org/2000/svg">
<g clip-path="url(#clip0_13_2046)">
<path d="M51.1588 36.309L39.3133 48.2403C39.0558 48.4978 38.7124 48.6266 38.3691 48.6266C38.0258 48.6266 37.6824 48.4978 37.4249 48.2403L30.6009 41.4163C30.0858 40.9013 30.0858 40.0429 30.6009 39.5279C31.1159 39.0129 31.9742 39.0129 32.4893 39.5279L38.3691 45.4077L49.3133 34.4206C49.8283 33.9056 50.6867 33.9056 51.2017 34.4206C51.6738 34.9785 51.6738 35.794 51.1588 36.309ZM60.2146 26.0086C59.9142 25.7511 59.485 25.6652 59.0987 25.7511C59.0987 25.7511 57.8541 26.0086 55.9657 26.0086C52.1459 26.0086 46.4378 25.0214 41.2446 20.3433C40.7296 19.8712 39.9571 19.8712 39.485 20.3433C34.2489 25.0214 28.5837 26.0086 24.7639 26.0086C22.8755 26.0086 21.6309 25.7511 21.6309 25.7511C21.2446 25.6652 20.8155 25.7511 20.515 26.0086C20.1717 26.2661 20 26.6523 20 27.0386C20 39.7854 23.9056 47.6395 27.2103 51.9742C31.7167 57.897 36.9528 60 40.3433 60C43.7339 60 49.0129 57.897 53.4764 51.9742C56.7811 47.6395 60.6867 39.7854 60.6867 27.0386C60.7296 26.6523 60.5579 26.2661 60.2146 26.0086Z" fill="black"/>
</g>
<g clip-path="url(#clip1_13_2046)">
<path d="M51.1588 96.309L39.3133 108.24C39.0558 108.498 38.7124 108.627 38.3691 108.627C38.0258 108.627 37.6824 108.498 37.4249 108.24L30.6009 101.416C30.0858 100.901 30.0858 100.043 30.6009 99.5279C31.1159 99.0129 31.9742 99.0129 32.4893 99.5279L38.3691 105.408L49.3133 94.4206C49.8283 93.9056 50.6867 93.9056 51.2017 94.4206C51.6738 94.9785 51.6738 95.794 51.1588 96.309ZM60.2146 86.0086C59.9142 85.7511 59.485 85.6652 59.0987 85.7511C59.0987 85.7511 57.8541 86.0086 55.9657 86.0086C52.1459 86.0086 46.4378 85.0214 41.2446 80.3433C40.7296 79.8712 39.9571 79.8712 39.485 80.3433C34.2489 85.0214 28.5837 86.0086 24.7639 86.0086C22.8755 86.0086 21.6309 85.7511 21.6309 85.7511C21.2446 85.6652 20.8155 85.7511 20.515 86.0086C20.1717 86.2661 20 86.6523 20 87.0386C20 99.7854 23.9056 107.639 27.2103 111.974C31.7167 117.897 36.9528 120 40.3433 120C43.7339 120 49.0129 117.897 53.4764 111.974C56.7811 107.639 60.6867 99.7854 60.6867 87.0386C60.7296 86.6523 60.5579 86.2661 60.2146 86.0086Z" fill="white"/>
</g>
<rect x="0.5" y="0.5" width="79.7296" height="139" rx="4.5" stroke="#7B61FF" stroke-dasharray="10 5"/>
<defs>
<clipPath id="clip0_13_2046">
<rect width="40.7296" height="40" fill="white" transform="translate(20 20)"/>
</clipPath>
<clipPath id="clip1_13_2046">
<rect width="40.7296" height="40" fill="white" transform="translate(20 80)"/>
</clipPath>
</defs>
</svg>
