<svg width="81" height="140" viewBox="0 0 81 140" fill="none" xmlns="http://www.w3.org/2000/svg">
<g clip-path="url(#clip0_13_1918)">
<path d="M38.4265 43.5196C38.2195 43.7267 37.971 43.8095 37.6812 43.8095C37.3913 43.8095 37.1429 43.6853 36.9358 43.5196C36.5217 43.1056 36.5217 42.443 36.9358 42.029L54.1615 25.0931C54.3685 24.8861 54.617 24.8033 54.9068 24.8033C55.1967 24.8033 55.4451 24.9275 55.6522 25.0931C56.0663 25.5072 56.0663 26.1697 55.6522 26.5838L38.4265 43.5196ZM33.0021 43.147C33.0021 45.383 34.8654 47.2463 37.1843 47.2463C39.5031 47.2463 41.3665 45.4244 41.3665 43.147C41.3665 42.8985 41.3251 42.6087 41.2836 42.3602L43.3126 40.3726C43.7267 41.2008 43.9337 42.1532 43.9337 43.147C43.9337 46.7909 40.911 49.7722 37.1843 49.7722C33.4576 49.7722 30.4348 46.7909 30.4348 43.147C30.4348 39.5031 33.4576 36.5217 37.1843 36.5217C38.2195 36.5217 39.2547 36.7702 40.1242 37.1842L38.0952 39.1718C37.8054 39.089 37.4741 39.0476 37.1843 39.0476C34.8654 39.089 33.0021 40.9109 33.0021 43.147ZM36.0663 44.3478C36.4803 44.7619 37.06 45.0103 37.6812 45.0103C38.3023 45.0103 38.8406 44.7619 39.2961 44.3478L40.1242 43.5196C39.9586 44.9689 38.6749 46.0869 37.1843 46.0869C35.528 46.0869 34.2029 44.7619 34.2029 43.1884C34.2029 41.6149 35.4451 40.3726 37.0186 40.2898L36.0663 41.2422C35.1553 42.0704 35.1553 43.4782 36.0663 44.3478ZM48.53 43.147C48.53 49.3167 43.4369 54.2857 37.1429 54.2857C30.8903 54.3271 25.7971 49.3167 25.7971 43.147C25.7971 37.0186 30.8903 32.0082 37.1843 32.0082C39.5031 32.0082 41.6977 32.7122 43.4783 33.8716L40.9938 36.3147C39.8758 35.6936 38.5507 35.3623 37.1843 35.3623C32.795 35.3623 29.234 38.8405 29.234 43.147C29.234 47.4534 32.795 50.9316 37.1843 50.9316C41.5735 50.9316 45.1346 47.412 45.1346 43.147C45.1346 41.8219 44.8033 40.5797 44.1822 39.5031L46.6667 37.06C47.8675 38.7991 48.53 40.9109 48.53 43.147ZM52.3395 21.3664L52.795 24.7619L48.8613 28.6128L48.323 25.3002L52.3395 21.3664ZM60.7453 27.9503C60.6211 27.5776 60.2899 27.3292 59.8758 27.2878L56.853 26.8737C57.3085 26.0455 57.1843 24.9689 56.4803 24.2236C56.0663 23.8095 55.4865 23.561 54.8654 23.561C54.4928 23.561 54.1615 23.6439 53.8716 23.8095L53.499 20.8695C53.4576 20.4969 53.1677 20.1656 52.795 20.0414C52.4224 19.9172 52.0083 20 51.7184 20.2898L47.412 24.5134C47.1636 24.7619 47.0807 25.0931 47.1222 25.383L47.8261 29.6066L47.619 29.8136C44.6377 27.5776 40.9938 26.3354 37.1843 26.3354C33.5818 26.3354 30.1449 27.412 27.205 29.4824C26.9565 29.6894 26.8737 30.0207 27.0807 30.3105C27.2878 30.559 27.6605 30.6418 27.9089 30.4348C30.6418 28.53 33.8302 27.5362 37.1843 27.5362C40.7867 27.5362 44.0994 28.6956 46.7909 30.6832L44.3478 33.0849C42.3188 31.677 39.8344 30.8902 37.1843 30.8902C30.2692 30.8902 24.5963 36.4389 24.5963 43.2298C24.5963 50.0207 30.2277 55.5693 37.1843 55.5693C44.1408 55.5693 49.7723 50.0207 49.7723 43.2298C49.7723 40.6625 48.9441 38.2608 47.5776 36.2733L50.0207 33.8716C52.0083 36.4803 53.2091 39.7101 53.2091 43.2298C53.2091 51.884 46.0455 58.882 37.2257 58.882C28.4058 58.882 21.2008 51.8012 21.2008 43.147C21.2008 39.296 22.6501 35.5693 25.2588 32.7122C25.4658 32.4637 25.4658 32.0911 25.2174 31.884C24.9689 31.677 24.5963 31.677 24.3892 31.9254C21.5735 35.031 20 39.0062 20 43.147C20 47.6604 21.7805 51.884 25.0104 55.0724C28.2402 58.2608 32.5466 60 37.1429 60C41.7391 60 46.087 58.2608 49.3168 55.0724C52.5466 51.884 54.3271 47.6604 54.3271 43.1884C54.3271 39.4617 53.0849 35.9006 50.8075 33.002L50.9731 32.8364L55.2795 33.4989C55.3209 33.4989 55.4037 33.4989 55.4451 33.4989C55.735 33.4989 55.9834 33.3747 56.1905 33.2091L57.1014 32.2981C57.3499 32.0497 57.3499 31.7184 57.1014 31.4699C56.853 31.2215 56.4803 31.2215 56.2733 31.4699L55.4037 32.2981L52.0497 31.7598L55.9834 27.9089L59.4203 28.3644L58.882 28.8613C58.6335 29.1097 58.6335 29.441 58.882 29.6894C59.1304 29.9379 59.5031 29.9379 59.7101 29.6894L60.4555 28.9441C60.7453 28.737 60.8696 28.3229 60.7453 27.9503Z" fill="black"/>
</g>
<g clip-path="url(#clip1_13_1918)">
<path d="M38.4265 103.52C38.2195 103.727 37.971 103.809 37.6812 103.809C37.3913 103.809 37.1429 103.685 36.9358 103.52C36.5217 103.106 36.5217 102.443 36.9358 102.029L54.1615 85.0931C54.3685 84.8861 54.617 84.8033 54.9068 84.8033C55.1967 84.8033 55.4451 84.9275 55.6522 85.0931C56.0663 85.5072 56.0663 86.1697 55.6522 86.5838L38.4265 103.52ZM33.0021 103.147C33.0021 105.383 34.8654 107.246 37.1843 107.246C39.5031 107.246 41.3665 105.424 41.3665 103.147C41.3665 102.899 41.3251 102.609 41.2836 102.36L43.3126 100.373C43.7267 101.201 43.9337 102.153 43.9337 103.147C43.9337 106.791 40.911 109.772 37.1843 109.772C33.4576 109.772 30.4348 106.791 30.4348 103.147C30.4348 99.5031 33.4576 96.5217 37.1843 96.5217C38.2195 96.5217 39.2547 96.7702 40.1242 97.1842L38.0952 99.1718C37.8054 99.089 37.4741 99.0476 37.1843 99.0476C34.8654 99.089 33.0021 100.911 33.0021 103.147ZM36.0663 104.348C36.4803 104.762 37.06 105.01 37.6812 105.01C38.3023 105.01 38.8406 104.762 39.2961 104.348L40.1242 103.52C39.9586 104.969 38.6749 106.087 37.1843 106.087C35.528 106.087 34.2029 104.762 34.2029 103.188C34.2029 101.615 35.4451 100.373 37.0186 100.29L36.0663 101.242C35.1553 102.07 35.1553 103.478 36.0663 104.348ZM48.53 103.147C48.53 109.317 43.4369 114.286 37.1429 114.286C30.8903 114.327 25.7971 109.317 25.7971 103.147C25.7971 97.0186 30.8903 92.0082 37.1843 92.0082C39.5031 92.0082 41.6977 92.7122 43.4783 93.8716L40.9938 96.3147C39.8758 95.6936 38.5507 95.3623 37.1843 95.3623C32.795 95.3623 29.234 98.8405 29.234 103.147C29.234 107.453 32.795 110.932 37.1843 110.932C41.5735 110.932 45.1346 107.412 45.1346 103.147C45.1346 101.822 44.8033 100.58 44.1822 99.5031L46.6667 97.06C47.8675 98.7991 48.53 100.911 48.53 103.147ZM52.3395 81.3664L52.795 84.7619L48.8613 88.6128L48.323 85.3002L52.3395 81.3664ZM60.7453 87.9503C60.6211 87.5776 60.2899 87.3292 59.8758 87.2878L56.853 86.8737C57.3085 86.0455 57.1843 84.9689 56.4803 84.2236C56.0663 83.8095 55.4865 83.561 54.8654 83.561C54.4928 83.561 54.1615 83.6439 53.8716 83.8095L53.499 80.8695C53.4576 80.4969 53.1677 80.1656 52.795 80.0414C52.4224 79.9172 52.0083 80 51.7184 80.2898L47.412 84.5134C47.1636 84.7619 47.0807 85.0931 47.1222 85.383L47.8261 89.6066L47.619 89.8136C44.6377 87.5776 40.9938 86.3354 37.1843 86.3354C33.5818 86.3354 30.1449 87.412 27.205 89.4824C26.9565 89.6894 26.8737 90.0207 27.0807 90.3105C27.2878 90.559 27.6605 90.6418 27.9089 90.4348C30.6418 88.53 33.8302 87.5362 37.1843 87.5362C40.7867 87.5362 44.0994 88.6956 46.7909 90.6832L44.3478 93.0849C42.3188 91.677 39.8344 90.8902 37.1843 90.8902C30.2692 90.8902 24.5963 96.4389 24.5963 103.23C24.5963 110.021 30.2277 115.569 37.1843 115.569C44.1408 115.569 49.7723 110.021 49.7723 103.23C49.7723 100.662 48.9441 98.2608 47.5776 96.2733L50.0207 93.8716C52.0083 96.4803 53.2091 99.7101 53.2091 103.23C53.2091 111.884 46.0455 118.882 37.2257 118.882C28.4058 118.882 21.2008 111.801 21.2008 103.147C21.2008 99.296 22.6501 95.5693 25.2588 92.7122C25.4658 92.4637 25.4658 92.0911 25.2174 91.884C24.9689 91.677 24.5963 91.677 24.3892 91.9254C21.5735 95.031 20 99.0062 20 103.147C20 107.66 21.7805 111.884 25.0104 115.072C28.2402 118.261 32.5466 120 37.1429 120C41.7391 120 46.087 118.261 49.3168 115.072C52.5466 111.884 54.3271 107.66 54.3271 103.188C54.3271 99.4617 53.0849 95.9006 50.8075 93.002L50.9731 92.8364L55.2795 93.4989C55.3209 93.4989 55.4037 93.4989 55.4451 93.4989C55.735 93.4989 55.9834 93.3747 56.1905 93.2091L57.1014 92.2981C57.3499 92.0497 57.3499 91.7184 57.1014 91.4699C56.853 91.2215 56.4803 91.2215 56.2733 91.4699L55.4037 92.2981L52.0497 91.7598L55.9834 87.9089L59.4203 88.3644L58.882 88.8613C58.6335 89.1097 58.6335 89.441 58.882 89.6894C59.1304 89.9379 59.5031 89.9379 59.7101 89.6894L60.4555 88.9441C60.7453 88.737 60.8696 88.3229 60.7453 87.9503Z" fill="white"/>
</g>
<rect x="0.5" y="0.5" width="79.7868" height="139" rx="4.5" stroke="#7B61FF" stroke-dasharray="10 5"/>
<defs>
<clipPath id="clip0_13_1918">
<rect width="40.7868" height="40" fill="white" transform="translate(20 20)"/>
</clipPath>
<clipPath id="clip1_13_1918">
<rect width="40.7868" height="40" fill="white" transform="translate(20 80)"/>
</clipPath>
</defs>
</svg>
