<svg width="83" height="140" viewBox="0 0 83 140" fill="none" xmlns="http://www.w3.org/2000/svg">
<g clip-path="url(#clip0_13_2136)">
<path d="M59.6553 20H32.8018C31.2501 20 30.0432 21.25 30.0432 22.8017V30.3448H49.6122C52.6725 30.3448 55.1725 32.8448 55.1725 35.9052V42.6293H59.6553C61.207 42.6293 62.4139 41.3793 62.4139 39.8276V22.8017C62.4139 21.25 61.1639 20 59.6553 20Z" fill="black"/>
<path d="M45.1293 42.8879H26.5086C25.7328 42.8879 25.1293 42.2845 25.1293 41.5086C25.1293 40.7328 25.7328 40.1293 26.5086 40.1293H45.1293C45.9052 40.1293 46.5086 40.7328 46.5086 41.5086C46.5086 42.2414 45.9052 42.8879 45.1293 42.8879ZM33.75 48.6638H26.5086C25.7328 48.6638 25.1293 48.0604 25.1293 47.2845C25.1293 46.5086 25.7328 45.9052 26.5086 45.9052H33.75C34.5259 45.9052 35.1293 46.5086 35.1293 47.2845C35.1293 48.0172 34.4828 48.6638 33.75 48.6638ZM49.6121 33.1035H22.7586C21.2069 33.1035 20 34.3535 20 35.9052V52.931C20 54.4828 21.25 55.7328 22.7586 55.7328H31.2931L34.0086 59.0086C34.5259 59.6552 35.3017 60 36.1207 60C36.9397 60 37.7155 59.6552 38.2328 59.0086L40.9483 55.7328H49.4828C51.0345 55.7328 52.2414 54.4828 52.2414 52.931V35.9052C52.3707 34.3535 51.1207 33.1035 49.6121 33.1035Z" fill="black"/>
</g>
<g clip-path="url(#clip1_13_2136)">
<path d="M59.6553 80H32.8018C31.2501 80 30.0432 81.25 30.0432 82.8017V90.3448H49.6122C52.6725 90.3448 55.1725 92.8448 55.1725 95.9052V102.629H59.6553C61.207 102.629 62.4139 101.379 62.4139 99.8276V82.8017C62.4139 81.25 61.1639 80 59.6553 80Z" fill="white"/>
<path d="M45.1293 102.888H26.5086C25.7328 102.888 25.1293 102.284 25.1293 101.509C25.1293 100.733 25.7328 100.129 26.5086 100.129H45.1293C45.9052 100.129 46.5086 100.733 46.5086 101.509C46.5086 102.241 45.9052 102.888 45.1293 102.888ZM33.75 108.664H26.5086C25.7328 108.664 25.1293 108.06 25.1293 107.284C25.1293 106.509 25.7328 105.905 26.5086 105.905H33.75C34.5259 105.905 35.1293 106.509 35.1293 107.284C35.1293 108.017 34.4828 108.664 33.75 108.664ZM49.6121 93.1035H22.7586C21.2069 93.1035 20 94.3535 20 95.9052V112.931C20 114.483 21.25 115.733 22.7586 115.733H31.2931L34.0086 119.009C34.5259 119.655 35.3017 120 36.1207 120C36.9397 120 37.7155 119.655 38.2328 119.009L40.9483 115.733H49.4828C51.0345 115.733 52.2414 114.483 52.2414 112.931V95.9052C52.3707 94.3535 51.1207 93.1035 49.6121 93.1035Z" fill="white"/>
</g>
<rect x="0.5" y="0.5" width="81.4138" height="139" rx="4.5" stroke="#7B61FF" stroke-dasharray="10 5"/>
<defs>
<clipPath id="clip0_13_2136">
<rect width="42.4138" height="40" fill="white" transform="translate(20 20)"/>
</clipPath>
<clipPath id="clip1_13_2136">
<rect width="42.4138" height="40" fill="white" transform="translate(20 80)"/>
</clipPath>
</defs>
</svg>
