<svg width="83" height="140" viewBox="0 0 83 140" fill="none" xmlns="http://www.w3.org/2000/svg">
<g clip-path="url(#clip0_13_2109)">
<path d="M41.0593 40.9298C38.8539 40.9298 37.081 39.1568 37.081 36.9514C37.081 34.746 38.8539 32.973 41.0593 32.973C43.2647 32.973 45.0377 34.746 45.0377 36.9514C45.0377 39.1568 43.2647 40.9298 41.0593 40.9298ZM46.5512 37.7298C46.6377 37.1244 46.5945 36.519 46.508 35.9568C46.4647 35.6973 46.5512 35.4379 46.7242 35.2649L47.1999 34.7892L46.7674 33.7946L46.1188 33.8379C45.8593 33.8379 45.5999 33.7514 45.4701 33.5352C45.1242 33.0595 44.6918 32.6703 44.2161 32.3244C43.9999 32.1946 43.8701 31.9352 43.8701 31.6757V31.0271L42.8755 30.6379L42.4431 31.1136C42.2701 31.2865 42.0539 31.4163 41.7945 31.373C41.1891 31.2865 40.6269 31.3298 40.0215 31.4163C39.762 31.4595 39.5458 31.373 39.3728 31.2L38.9404 30.7244L37.9458 31.1568L37.9891 31.8054C37.9891 32.0649 37.9026 32.3244 37.6864 32.4541C37.2107 32.8 36.8215 33.2325 36.4755 33.7081C36.3458 33.9244 36.0864 34.0541 35.8269 34.0541H35.1783L34.7891 35.0487L35.2647 35.4811C35.4377 35.6541 35.5674 35.9136 35.5242 36.1298C35.4377 36.7352 35.481 37.3406 35.5674 37.9027C35.6107 38.1622 35.5242 38.4217 35.3512 38.5946L34.8755 39.0271L35.308 40.0217L35.9566 39.9784C36.2161 39.9784 36.4755 40.0649 36.6053 40.2811C36.9512 40.7568 37.3837 41.146 37.8593 41.4919C38.0755 41.6217 38.2053 41.8811 38.2053 42.1406V42.7892L39.1999 43.1784L39.6323 42.7027C39.8053 42.5298 40.0215 42.4 40.281 42.4433C40.8864 42.5298 41.4485 42.4865 42.0539 42.4C42.3134 42.3568 42.5296 42.4433 42.7026 42.6163L43.135 43.0919L44.1296 42.6595L44.0864 42.0109C44.0864 41.7514 44.1728 41.4919 44.3891 41.3622C44.8647 41.0163 45.2539 40.5838 45.5999 40.1081C45.7296 39.8919 45.9891 39.7622 46.2485 39.7622H46.8972L47.2864 38.7676L46.8107 38.3352C46.5945 38.2054 46.508 37.946 46.5512 37.7298Z" fill="black"/>
<path d="M41.0596 34.4432C39.6758 34.4432 38.5515 35.5676 38.5515 36.9513C38.5515 38.3351 39.6758 39.4595 41.0596 39.4595C42.4434 39.4595 43.5677 38.3351 43.5677 36.9513C43.5677 35.5676 42.4434 34.4432 41.0596 34.4432Z" fill="black"/>
<path d="M48.8432 38.8541L48.1081 40.8C47.9784 41.1027 47.7189 41.2757 47.4162 41.2757L46.6378 41.2324C46.3351 41.6216 46.0324 41.9676 45.6432 42.2703L45.6865 43.0486C45.7297 43.3514 45.5135 43.6541 45.2541 43.7838L43.3081 44.6486C43.0054 44.7784 42.7027 44.6919 42.4865 44.4757L41.9243 43.9135C41.4487 43.9568 40.973 44 40.4973 43.9568L39.9784 44.5622C39.7622 44.7784 39.4595 44.8649 39.1568 44.7784L37.2108 44C36.9081 43.8703 36.7351 43.6108 36.7351 43.2649L36.7784 42.4865C36.3892 42.1838 36.0432 41.8811 35.7405 41.4919L34.9622 41.5351C34.6595 41.5784 34.3568 41.3622 34.227 41.1027L33.3622 39.1568C33.2324 38.8541 33.3189 38.5514 33.5351 38.3351L34.0973 37.773C34.0541 37.2973 34.0108 36.8216 34.0541 36.3459L33.4487 35.827C33.2324 35.6108 33.1459 35.3081 33.2324 35.0054L34.0108 33.0162C34.1405 32.7135 34.4 32.5405 34.7027 32.5405L35.4811 32.5838C35.7838 32.1946 36.0865 31.8486 36.4757 31.5459L36.4324 30.8108C36.3892 30.5081 36.6054 30.2054 36.8649 30.0757L38.8108 29.2108C39.1135 29.0811 39.4162 29.1676 39.6324 29.3838L40.1946 29.9459C40.6703 29.9027 41.1459 29.8595 41.6216 29.9027L42.1405 29.2973C42.3568 29.0378 42.6595 28.9946 42.9622 29.0811L44.9081 29.8595C45.2108 29.9892 45.3838 30.2486 45.3838 30.5946L45.3405 31.373C45.7297 31.6757 46.0757 31.9784 46.3784 32.3676L47.1568 32.3243C47.4595 32.2811 47.7622 32.4973 47.8919 32.7568L48.7568 34.7027C48.8865 35.0054 48.8 35.3081 48.5838 35.5243L48.0216 36.0865C48.0649 36.5622 48.1081 37.0378 48.0649 37.5135L48.6703 38.0324C48.8865 38.2054 48.973 38.5514 48.8432 38.8541ZM59.827 34.1838C58.3568 32.7135 56.4108 31.8919 54.3351 31.8919C54.1189 31.8919 53.9027 31.8919 53.7297 31.8919C53.3405 25.2324 47.8487 20 41.1892 20C38.4216 20 35.7405 20.9081 33.5784 22.5946C31.5892 24.1514 30.0757 26.2703 29.2973 28.6919C23.8919 29.5568 20 34.1838 20 39.6324C20 39.6324 20 39.6324 20 39.6757V39.7189C20 44.6486 24.0216 48.6703 28.9081 48.627H36.8649V50.4865H33.7081C33.5351 50.4865 33.3189 50.573 33.1892 50.7027C33.0595 50.8324 32.973 51.0054 32.973 51.2216V54.3784C32.5405 54.5081 32.1514 54.7243 31.8486 55.0703C31.0703 55.8054 30.8541 56.973 31.2432 57.9676C31.6324 58.9622 32.627 59.6108 33.6649 59.6108C34.7459 59.6108 35.6973 58.9622 36.1297 57.9676C36.5622 56.973 36.3027 55.8486 35.5676 55.0703C35.2649 54.6811 34.8324 54.5081 34.4432 54.3784V52H37.5568C37.9892 52 38.2919 51.6541 38.3351 51.2216V48.627H40.3243V54.7676C39.0703 55.1568 38.2487 56.3676 38.4649 57.7081C38.6378 59.0054 39.7622 60 41.1027 60C42.4 60 43.5243 59.0486 43.7405 57.7081C43.9135 56.4108 43.1351 55.1568 41.8811 54.7676V48.627H43.827V51.2216C43.827 51.6541 44.173 52 44.6054 52H47.7189V54.3784C47.3297 54.5081 46.8973 54.7243 46.5946 55.0703C45.5568 56.1081 45.6 57.7946 46.6378 58.8324C47.6757 59.8703 49.3622 59.8703 50.3568 58.7892C51.3946 57.7514 51.3514 56.0649 50.3135 55.027C50.0108 54.6811 49.6216 54.4649 49.1892 54.3351V51.1784C49.1892 51.0054 49.1027 50.7892 48.973 50.6595C48.8432 50.5297 48.6703 50.4432 48.4541 50.4432H45.2973V48.5838H53.2541C58.1838 48.5838 62.1622 44.5622 62.1622 39.6324C62.1622 39.5892 62.1622 39.5027 62.1189 39.4595C62.0324 37.5135 61.2108 35.6108 59.827 34.1838Z" fill="black"/>
</g>
<g clip-path="url(#clip1_13_2109)">
<path d="M41.0593 100.93C38.8539 100.93 37.081 99.1568 37.081 96.9514C37.081 94.746 38.8539 92.973 41.0593 92.973C43.2647 92.973 45.0377 94.746 45.0377 96.9514C45.0377 99.1568 43.2647 100.93 41.0593 100.93ZM46.5512 97.7298C46.6377 97.1244 46.5945 96.519 46.508 95.9568C46.4647 95.6973 46.5512 95.4379 46.7242 95.2649L47.1999 94.7892L46.7674 93.7946L46.1188 93.8379C45.8593 93.8379 45.5999 93.7514 45.4701 93.5352C45.1242 93.0595 44.6918 92.6703 44.2161 92.3244C43.9999 92.1946 43.8701 91.9352 43.8701 91.6757V91.0271L42.8755 90.6379L42.4431 91.1136C42.2701 91.2865 42.0539 91.4163 41.7945 91.373C41.1891 91.2865 40.6269 91.3298 40.0215 91.4163C39.762 91.4595 39.5458 91.373 39.3728 91.2L38.9404 90.7244L37.9458 91.1568L37.9891 91.8054C37.9891 92.0649 37.9026 92.3244 37.6864 92.4541C37.2107 92.8 36.8215 93.2325 36.4755 93.7081C36.3458 93.9244 36.0864 94.0541 35.8269 94.0541H35.1783L34.7891 95.0487L35.2647 95.4811C35.4377 95.6541 35.5674 95.9136 35.5242 96.1298C35.4377 96.7352 35.481 97.3406 35.5674 97.9027C35.6107 98.1622 35.5242 98.4217 35.3512 98.5946L34.8755 99.0271L35.308 100.022L35.9566 99.9784C36.2161 99.9784 36.4755 100.065 36.6053 100.281C36.9512 100.757 37.3837 101.146 37.8593 101.492C38.0755 101.622 38.2053 101.881 38.2053 102.141V102.789L39.1999 103.178L39.6323 102.703C39.8053 102.53 40.0215 102.4 40.281 102.443C40.8864 102.53 41.4485 102.487 42.0539 102.4C42.3134 102.357 42.5296 102.443 42.7026 102.616L43.135 103.092L44.1296 102.66L44.0864 102.011C44.0864 101.751 44.1728 101.492 44.3891 101.362C44.8647 101.016 45.2539 100.584 45.5999 100.108C45.7296 99.8919 45.9891 99.7622 46.2485 99.7622H46.8972L47.2864 98.7676L46.8107 98.3352C46.5945 98.2054 46.508 97.946 46.5512 97.7298Z" fill="white"/>
<path d="M41.0596 94.4432C39.6758 94.4432 38.5515 95.5676 38.5515 96.9513C38.5515 98.3351 39.6758 99.4595 41.0596 99.4595C42.4434 99.4595 43.5677 98.3351 43.5677 96.9513C43.5677 95.5676 42.4434 94.4432 41.0596 94.4432Z" fill="white"/>
<path d="M48.8432 98.8541L48.1081 100.8C47.9784 101.103 47.7189 101.276 47.4162 101.276L46.6378 101.232C46.3351 101.622 46.0324 101.968 45.6432 102.27L45.6865 103.049C45.7297 103.351 45.5135 103.654 45.2541 103.784L43.3081 104.649C43.0054 104.778 42.7027 104.692 42.4865 104.476L41.9243 103.914C41.4487 103.957 40.973 104 40.4973 103.957L39.9784 104.562C39.7622 104.778 39.4595 104.865 39.1568 104.778L37.2108 104C36.9081 103.87 36.7351 103.611 36.7351 103.265L36.7784 102.486C36.3892 102.184 36.0432 101.881 35.7405 101.492L34.9622 101.535C34.6595 101.578 34.3568 101.362 34.227 101.103L33.3622 99.1568C33.2324 98.8541 33.3189 98.5514 33.5351 98.3351L34.0973 97.773C34.0541 97.2973 34.0108 96.8216 34.0541 96.3459L33.4487 95.827C33.2324 95.6108 33.1459 95.3081 33.2324 95.0054L34.0108 93.0162C34.1405 92.7135 34.4 92.5405 34.7027 92.5405L35.4811 92.5838C35.7838 92.1946 36.0865 91.8486 36.4757 91.5459L36.4324 90.8108C36.3892 90.5081 36.6054 90.2054 36.8649 90.0757L38.8108 89.2108C39.1135 89.0811 39.4162 89.1676 39.6324 89.3838L40.1946 89.9459C40.6703 89.9027 41.1459 89.8595 41.6216 89.9027L42.1405 89.2973C42.3568 89.0378 42.6595 88.9946 42.9622 89.0811L44.9081 89.8595C45.2108 89.9892 45.3838 90.2486 45.3838 90.5946L45.3405 91.373C45.7297 91.6757 46.0757 91.9784 46.3784 92.3676L47.1568 92.3243C47.4595 92.2811 47.7622 92.4973 47.8919 92.7568L48.7568 94.7027C48.8865 95.0054 48.8 95.3081 48.5838 95.5243L48.0216 96.0865C48.0649 96.5622 48.1081 97.0378 48.0649 97.5135L48.6703 98.0324C48.8865 98.2054 48.973 98.5514 48.8432 98.8541ZM59.827 94.1838C58.3568 92.7135 56.4108 91.8919 54.3351 91.8919C54.1189 91.8919 53.9027 91.8919 53.7297 91.8919C53.3405 85.2324 47.8487 80 41.1892 80C38.4216 80 35.7405 80.9081 33.5784 82.5946C31.5892 84.1514 30.0757 86.2703 29.2973 88.6919C23.8919 89.5568 20 94.1838 20 99.6324C20 99.6324 20 99.6324 20 99.6757V99.7189C20 104.649 24.0216 108.67 28.9081 108.627H36.8649V110.486H33.7081C33.5351 110.486 33.3189 110.573 33.1892 110.703C33.0595 110.832 32.973 111.005 32.973 111.222V114.378C32.5405 114.508 32.1514 114.724 31.8486 115.07C31.0703 115.805 30.8541 116.973 31.2432 117.968C31.6324 118.962 32.627 119.611 33.6649 119.611C34.7459 119.611 35.6973 118.962 36.1297 117.968C36.5622 116.973 36.3027 115.849 35.5676 115.07C35.2649 114.681 34.8324 114.508 34.4432 114.378V112H37.5568C37.9892 112 38.2919 111.654 38.3351 111.222V108.627H40.3243V114.768C39.0703 115.157 38.2487 116.368 38.4649 117.708C38.6378 119.005 39.7622 120 41.1027 120C42.4 120 43.5243 119.049 43.7405 117.708C43.9135 116.411 43.1351 115.157 41.8811 114.768V108.627H43.827V111.222C43.827 111.654 44.173 112 44.6054 112H47.7189V114.378C47.3297 114.508 46.8973 114.724 46.5946 115.07C45.5568 116.108 45.6 117.795 46.6378 118.832C47.6757 119.87 49.3622 119.87 50.3568 118.789C51.3946 117.751 51.3514 116.065 50.3135 115.027C50.0108 114.681 49.6216 114.465 49.1892 114.335V111.178C49.1892 111.005 49.1027 110.789 48.973 110.659C48.8432 110.53 48.6703 110.443 48.4541 110.443H45.2973V108.584H53.2541C58.1838 108.584 62.1622 104.562 62.1622 99.6324C62.1622 99.5892 62.1622 99.5027 62.1189 99.4595C62.0324 97.5135 61.2108 95.6108 59.827 94.1838Z" fill="white"/>
</g>
<rect x="0.5" y="0.5" width="81.1189" height="139" rx="4.5" stroke="#7B61FF" stroke-dasharray="10 5"/>
<defs>
<clipPath id="clip0_13_2109">
<rect width="42.1189" height="40" fill="white" transform="translate(20 20)"/>
</clipPath>
<clipPath id="clip1_13_2109">
<rect width="42.1189" height="40" fill="white" transform="translate(20 80)"/>
</clipPath>
</defs>
</svg>
