<svg width="84" height="140" viewBox="0 0 84 140" fill="none" xmlns="http://www.w3.org/2000/svg">
<g clip-path="url(#clip0_13_2195)">
<path d="M63.1174 46.2569C62.8539 45.5104 62.0636 45.0714 61.3172 45.2909H61.2733L43.7101 50.9989C42.5685 49.1987 40.4171 48.1449 38.2656 48.3205L30.2744 24.4786C29.484 22.1515 27.3764 20.5269 24.8737 20.2635L21.5806 20C20.7903 19.9122 20.0438 20.5269 19.9999 21.2733C19.956 22.0198 20.5268 22.7223 21.3172 22.854L24.6102 23.1175C25.9714 23.2492 27.0691 24.1273 27.5082 25.4007L35.4994 49.2426C32.6893 50.955 31.855 54.5555 33.6113 57.2777C35.3677 60 39.012 60.8343 41.8221 59.1219C43.7101 57.9803 44.7639 55.9166 44.5883 53.7651L62.1075 48.101C62.9418 47.8376 63.3808 47.0472 63.1174 46.2569Z" fill="black"/>
<path d="M61.9319 39.6707L56.3117 22.8101C56.0043 21.9758 55.1262 21.5367 54.2919 21.8002L36.4654 27.5082C35.6311 27.7717 35.1481 28.6498 35.4555 29.4841L41.0757 46.3886C41.383 47.1789 42.2173 47.6619 43.0954 47.3984L60.922 41.6904C61.7562 41.3831 62.2392 40.5049 61.9319 39.6707Z" fill="black"/>
</g>
<g clip-path="url(#clip1_13_2195)">
<path d="M63.1174 106.257C62.8539 105.51 62.0636 105.071 61.3172 105.291H61.2733L43.7101 110.999C42.5685 109.199 40.4171 108.145 38.2656 108.321L30.2744 84.4786C29.484 82.1515 27.3764 80.5269 24.8737 80.2635L21.5806 80C20.7903 79.9122 20.0438 80.5269 19.9999 81.2733C19.956 82.0198 20.5268 82.7223 21.3172 82.854L24.6102 83.1175C25.9714 83.2492 27.0691 84.1273 27.5082 85.4007L35.4994 109.243C32.6893 110.955 31.855 114.555 33.6113 117.278C35.3677 120 39.012 120.834 41.8221 119.122C43.7101 117.98 44.7639 115.917 44.5883 113.765L62.1075 108.101C62.9418 107.838 63.3808 107.047 63.1174 106.257Z" fill="white"/>
<path d="M61.9319 99.6707L56.3117 82.8101C56.0043 81.9758 55.1262 81.5367 54.2919 81.8002L36.4654 87.5082C35.6311 87.7717 35.1481 88.6498 35.4555 89.4841L41.0757 106.389C41.383 107.179 42.2173 107.662 43.0954 107.398L60.922 101.69C61.7562 101.383 62.2392 100.505 61.9319 99.6707Z" fill="white"/>
</g>
<rect x="0.5" y="0.5" width="82.2053" height="139" rx="4.5" stroke="#7B61FF" stroke-dasharray="10 5"/>
<defs>
<clipPath id="clip0_13_2195">
<rect width="43.2053" height="40" fill="white" transform="translate(20 20)"/>
</clipPath>
<clipPath id="clip1_13_2195">
<rect width="43.2053" height="40" fill="white" transform="translate(20 80)"/>
</clipPath>
</defs>
</svg>
