<svg width="85" height="150" viewBox="0 0 85 150" fill="none" xmlns="http://www.w3.org/2000/svg">
<g clip-path="url(#clip0_13_1853)">
<path d="M42.1619 21.4414C45.225 21.4414 47.7475 23.964 47.7475 27.0721C47.7475 30.1802 45.225 32.7477 42.1619 32.7477C39.0988 32.7477 36.5763 30.2252 36.5763 27.1171C36.5763 24.009 39.0988 21.4414 42.1619 21.4414ZM42.1619 34.1441C45.9907 34.1441 49.1439 30.9459 49.1439 27.0721C49.1439 23.1532 45.9907 20 42.1619 20C38.3331 20 35.1799 23.1982 35.1799 27.0721C35.1799 30.991 38.3331 34.1441 42.1619 34.1441Z" fill="black"/>
<path d="M42.1622 37.027C47.7928 37.027 52.4324 41.4865 52.7928 47.1171H36.4414C36.036 47.1171 35.7207 47.4324 35.7207 47.8378C35.7207 48.2432 36.036 48.5585 36.4414 48.5585H53.5135C53.9189 48.5585 54.2342 48.2432 54.2342 47.8378C54.2342 41.0811 48.8288 35.5856 42.1622 35.5856C35.4955 35.5856 30.0901 41.0811 30.0901 47.8378C30.0901 48.2432 30.4054 48.5585 30.8108 48.5585H33.6486C34.0541 48.5585 34.3694 48.2432 34.3694 47.8378C34.3694 47.4324 34.0541 47.1171 33.6486 47.1171H31.5315C31.8919 41.4865 36.5315 37.027 42.1622 37.027Z" fill="black"/>
<path d="M29.5945 59.4594C29.4594 59.6396 29.3693 59.8648 29.4144 60.09L29.8648 63.018L27.2522 61.7117C27.072 61.6216 26.8017 61.6216 26.6216 61.7117L24.0089 63.018L24.4594 60.09C24.5044 59.8648 24.4144 59.6396 24.2792 59.4594L22.2071 57.3423L25.09 56.8468C25.3153 56.8018 25.4954 56.6666 25.5855 56.4864L26.9369 53.8288L28.2882 56.4864C28.3783 56.6666 28.5585 56.8468 28.7837 56.8468L31.6666 57.3423L29.5945 59.4594ZM33.2432 56.1261L29.3693 55.4504L27.5675 51.8919C27.4324 51.6666 27.2071 51.4865 26.9369 51.4865C26.6666 51.4865 26.4414 51.6216 26.3062 51.8919L24.5044 55.4504L20.6306 56.1261C20.3603 56.1711 20.1351 56.3513 20.09 56.6216C19.9999 56.8919 20.09 57.1621 20.2702 57.3423L23.018 60.1801L22.3873 64.1441C22.3423 64.4144 22.4774 64.6846 22.6576 64.8198C22.8828 64.9549 23.1531 65 23.3783 64.8648L26.8918 63.063L30.4053 64.8648C30.4954 64.9099 30.6306 64.9549 30.7207 64.9549C30.8558 64.9549 31.036 64.9099 31.1261 64.8198C31.3513 64.6846 31.4414 64.4144 31.3963 64.1441L30.8107 60.1801L33.5585 57.3423C33.7387 57.1621 33.8288 56.8919 33.7387 56.6216C33.6936 56.3964 33.5135 56.1711 33.2432 56.1261Z" fill="black"/>
<path d="M44.8649 59.4594C44.7298 59.6396 44.6397 59.8648 44.6847 60.09L45.1352 63.018L42.5226 61.7117C42.4325 61.6666 42.2974 61.6216 42.2073 61.6216C42.1172 61.6216 41.982 61.6666 41.8919 61.7117L39.2793 63.018L39.7298 60.09C39.7748 59.8648 39.6847 59.6396 39.5496 59.4594L37.4775 57.3423L40.3604 56.8468C40.5856 56.8018 40.7658 56.6666 40.8559 56.4864L42.2073 53.8288L43.5586 56.4864C43.6487 56.6666 43.8289 56.8468 44.0541 56.8468L46.937 57.3423L44.8649 59.4594ZM48.4685 56.1261L44.5946 55.4504L42.7928 51.8919C42.6577 51.6666 42.4325 51.4865 42.1622 51.4865C41.8919 51.4865 41.6667 51.6216 41.5316 51.8919L39.7298 55.4504L35.8559 56.1261C35.5856 56.1711 35.3604 56.3513 35.3154 56.6216C35.2253 56.8919 35.3154 57.1621 35.4956 57.3423L38.2433 60.1801L37.6127 64.1441C37.5676 64.4144 37.7028 64.6846 37.8829 64.8198C38.1082 64.9549 38.3784 65 38.6037 64.8648L42.1172 63.063L45.6307 64.8648C45.7208 64.9099 45.8559 64.9549 45.946 64.9549C46.0811 64.9549 46.2163 64.9099 46.3514 64.8198C46.5766 64.6846 46.6667 64.4144 46.6217 64.1441L46.1262 60.2252L48.8739 57.3873C49.0541 57.2072 49.1442 56.9369 49.0541 56.6666C48.964 56.3964 48.7388 56.1711 48.4685 56.1261Z" fill="black"/>
<path d="M60.09 59.4594C59.9549 59.6396 59.8648 59.8648 59.9098 60.045L60.3603 62.9729L57.7477 61.6666C57.6576 61.6216 57.5225 61.5765 57.4324 61.5765C57.3423 61.5765 57.2071 61.6216 57.117 61.6666L54.5044 62.9729L54.9549 60.045C54.9999 59.8198 54.9098 59.5946 54.7747 59.4594L52.7026 57.3423L55.5855 56.8468C55.8107 56.8018 55.9909 56.6666 56.081 56.4864L57.4324 53.8288L58.7837 56.4864C58.8738 56.6666 59.054 56.8468 59.2792 56.8468L62.1621 57.3423L60.09 59.4594ZM64.2792 56.6216C64.1891 56.3513 63.9639 56.1711 63.7387 56.1261L59.8648 55.4504L58.063 51.8919C57.9279 51.6666 57.7026 51.4865 57.4324 51.4865C57.1621 51.4865 56.9369 51.6216 56.8017 51.8919L54.9999 55.4504L51.081 56.1261C50.8107 56.1711 50.5855 56.3513 50.5405 56.6216C50.4504 56.8919 50.5405 57.1621 50.7206 57.3423L53.4684 60.1801L52.8828 64.1441C52.8378 64.4144 52.9729 64.6846 53.1531 64.8198C53.3783 64.9549 53.6486 65 53.8738 64.8648L57.3873 63.063L60.9008 64.8648C60.9909 64.9099 61.1261 64.9549 61.2161 64.9549C61.3513 64.9549 61.4864 64.9099 61.6216 64.8198C61.8468 64.6846 61.9369 64.4144 61.8918 64.1441L61.3062 60.1801L64.054 57.3423C64.3243 57.1621 64.3693 56.8919 64.2792 56.6216Z" fill="black"/>
<path d="M42.1623 30.3153C43.1083 30.3153 43.9641 29.9099 44.5947 29.1892C44.865 28.8739 44.82 28.4234 44.5046 28.1982C44.1893 27.9279 43.7839 27.973 43.5137 28.2883C43.1533 28.6937 42.6578 28.9189 42.1623 28.9189C41.6668 28.9189 41.1713 28.6937 40.811 28.2883C40.5407 27.973 40.0902 27.973 39.82 28.1982C39.5046 28.4685 39.5046 28.9189 39.7299 29.1892C40.3605 29.9099 41.2164 30.3153 42.1623 30.3153Z" fill="black"/>
</g>
<g clip-path="url(#clip1_13_1853)">
<path d="M42.1619 86.4414C45.225 86.4414 47.7475 88.964 47.7475 92.0721C47.7475 95.1802 45.225 97.7477 42.1619 97.7477C39.0988 97.7477 36.5763 95.2252 36.5763 92.1171C36.5763 89.009 39.0988 86.4414 42.1619 86.4414ZM42.1619 99.1441C45.9907 99.1441 49.1439 95.9459 49.1439 92.0721C49.1439 88.1532 45.9907 85 42.1619 85C38.3331 85 35.1799 88.1982 35.1799 92.0721C35.1799 95.991 38.3331 99.1441 42.1619 99.1441Z" fill="white"/>
<path d="M42.1622 102.027C47.7928 102.027 52.4324 106.486 52.7928 112.117H36.4414C36.036 112.117 35.7207 112.432 35.7207 112.838C35.7207 113.243 36.036 113.559 36.4414 113.559H53.5135C53.9189 113.559 54.2342 113.243 54.2342 112.838C54.2342 106.081 48.8288 100.586 42.1622 100.586C35.4955 100.586 30.0901 106.081 30.0901 112.838C30.0901 113.243 30.4054 113.559 30.8108 113.559H33.6486C34.0541 113.559 34.3694 113.243 34.3694 112.838C34.3694 112.432 34.0541 112.117 33.6486 112.117H31.5315C31.8919 106.486 36.5315 102.027 42.1622 102.027Z" fill="white"/>
<path d="M29.5945 124.459C29.4594 124.64 29.3693 124.865 29.4144 125.09L29.8648 128.018L27.2522 126.712C27.072 126.622 26.8017 126.622 26.6216 126.712L24.0089 128.018L24.4594 125.09C24.5044 124.865 24.4144 124.64 24.2792 124.459L22.2071 122.342L25.09 121.847C25.3153 121.802 25.4954 121.667 25.5855 121.486L26.9369 118.829L28.2882 121.486C28.3783 121.667 28.5585 121.847 28.7837 121.847L31.6666 122.342L29.5945 124.459ZM33.2432 121.126L29.3693 120.45L27.5675 116.892C27.4324 116.667 27.2071 116.486 26.9369 116.486C26.6666 116.486 26.4414 116.622 26.3062 116.892L24.5044 120.45L20.6306 121.126C20.3603 121.171 20.1351 121.351 20.09 121.622C19.9999 121.892 20.09 122.162 20.2702 122.342L23.018 125.18L22.3873 129.144C22.3423 129.414 22.4774 129.685 22.6576 129.82C22.8828 129.955 23.1531 130 23.3783 129.865L26.8918 128.063L30.4053 129.865C30.4954 129.91 30.6306 129.955 30.7207 129.955C30.8558 129.955 31.036 129.91 31.1261 129.82C31.3513 129.685 31.4414 129.414 31.3963 129.144L30.8107 125.18L33.5585 122.342C33.7387 122.162 33.8288 121.892 33.7387 121.622C33.6936 121.396 33.5135 121.171 33.2432 121.126Z" fill="white"/>
<path d="M44.8649 124.459C44.7298 124.64 44.6397 124.865 44.6847 125.09L45.1352 128.018L42.5226 126.712C42.4325 126.667 42.2974 126.622 42.2073 126.622C42.1172 126.622 41.982 126.667 41.8919 126.712L39.2793 128.018L39.7298 125.09C39.7748 124.865 39.6847 124.64 39.5496 124.459L37.4775 122.342L40.3604 121.847C40.5856 121.802 40.7658 121.667 40.8559 121.486L42.2073 118.829L43.5586 121.486C43.6487 121.667 43.8289 121.847 44.0541 121.847L46.937 122.342L44.8649 124.459ZM48.4685 121.126L44.5946 120.45L42.7928 116.892C42.6577 116.667 42.4325 116.486 42.1622 116.486C41.8919 116.486 41.6667 116.622 41.5316 116.892L39.7298 120.45L35.8559 121.126C35.5856 121.171 35.3604 121.351 35.3154 121.622C35.2253 121.892 35.3154 122.162 35.4956 122.342L38.2433 125.18L37.6127 129.144C37.5676 129.414 37.7028 129.685 37.8829 129.82C38.1082 129.955 38.3784 130 38.6037 129.865L42.1172 128.063L45.6307 129.865C45.7208 129.91 45.8559 129.955 45.946 129.955C46.0811 129.955 46.2163 129.91 46.3514 129.82C46.5766 129.685 46.6667 129.414 46.6217 129.144L46.1262 125.225L48.8739 122.387C49.0541 122.207 49.1442 121.937 49.0541 121.667C48.964 121.396 48.7388 121.171 48.4685 121.126Z" fill="white"/>
<path d="M60.09 124.459C59.9549 124.64 59.8648 124.865 59.9098 125.045L60.3603 127.973L57.7477 126.667C57.6576 126.622 57.5225 126.577 57.4324 126.577C57.3423 126.577 57.2071 126.622 57.117 126.667L54.5044 127.973L54.9549 125.045C54.9999 124.82 54.9098 124.595 54.7747 124.459L52.7026 122.342L55.5855 121.847C55.8107 121.802 55.9909 121.667 56.081 121.486L57.4324 118.829L58.7837 121.486C58.8738 121.667 59.054 121.847 59.2792 121.847L62.1621 122.342L60.09 124.459ZM64.2792 121.622C64.1891 121.351 63.9639 121.171 63.7387 121.126L59.8648 120.45L58.063 116.892C57.9279 116.667 57.7026 116.486 57.4324 116.486C57.1621 116.486 56.9369 116.622 56.8017 116.892L54.9999 120.45L51.081 121.126C50.8107 121.171 50.5855 121.351 50.5405 121.622C50.4504 121.892 50.5405 122.162 50.7206 122.342L53.4684 125.18L52.8828 129.144C52.8378 129.414 52.9729 129.685 53.1531 129.82C53.3783 129.955 53.6486 130 53.8738 129.865L57.3873 128.063L60.9008 129.865C60.9909 129.91 61.1261 129.955 61.2161 129.955C61.3513 129.955 61.4864 129.91 61.6216 129.82C61.8468 129.685 61.9369 129.414 61.8918 129.144L61.3062 125.18L64.054 122.342C64.3243 122.162 64.3693 121.892 64.2792 121.622Z" fill="white"/>
<path d="M42.1623 95.3153C43.1083 95.3153 43.9641 94.9099 44.5947 94.1892C44.865 93.8739 44.82 93.4234 44.5046 93.1982C44.1893 92.9279 43.7839 92.973 43.5137 93.2883C43.1533 93.6937 42.6578 93.9189 42.1623 93.9189C41.6668 93.9189 41.1713 93.6937 40.811 93.2883C40.5407 92.973 40.0902 92.973 39.82 93.1982C39.5046 93.4685 39.5046 93.9189 39.7299 94.1892C40.3605 94.9099 41.2164 95.3153 42.1623 95.3153Z" fill="white"/>
</g>
<rect x="0.5" y="0.5" width="83.3243" height="149" rx="4.5" stroke="#7B61FF" stroke-dasharray="10 5"/>
<defs>
<clipPath id="clip0_13_1853">
<rect width="44.3243" height="45" fill="white" transform="translate(20 20)"/>
</clipPath>
<clipPath id="clip1_13_1853">
<rect width="44.3243" height="45" fill="white" transform="translate(20 85)"/>
</clipPath>
</defs>
</svg>
