<svg width="79" height="152" viewBox="0 0 79 152" fill="none" xmlns="http://www.w3.org/2000/svg">
<g clip-path="url(#clip0_13_1969)">
<path d="M57.6373 57.8445H54.943C54.943 57.8031 54.9845 57.7616 54.9845 57.7201C54.943 54.9429 52.7047 52.7046 49.9275 52.746C47.9378 52.746 46.114 53.9896 45.3679 55.8134C44.0415 55.9792 42.7979 56.7253 42.0518 57.8445H37.8653C37.2021 56.601 35.9171 55.8549 34.5492 55.8549H34.5078C33.7202 53.6165 31.3161 52.4144 29.0777 53.2435C28.3316 53.4922 27.6684 53.9896 27.171 54.5699L26.342 54.487C24.3523 54.487 22.5285 55.8549 22.0311 57.8445H21.0777C20.4974 57.8445 20 58.3005 20 58.9222C20 59.5025 20.456 59.9999 21.0777 59.9999H57.6373C58.2176 59.9999 58.715 59.544 58.715 58.9222C58.6736 58.3419 58.2176 57.8445 57.6373 57.8445Z" fill="black"/>
<path d="M39.3577 36.5803C37.368 36.5388 35.71 34.9222 35.71 32.8911C35.71 30.86 37.3266 29.2435 39.3577 29.2435C41.3473 29.2435 43.0053 30.86 43.0053 32.8911C43.0053 34.9222 41.3473 36.5388 39.3577 36.5803ZM49.0986 35.917C48.3525 35.1709 47.482 34.6321 46.4872 34.3005C46.3628 30.9015 45.368 27.6269 43.5856 24.7253C43.4613 24.4352 41.2229 21.4093 40.1452 20.3316C39.7307 19.9585 39.026 19.9585 38.6115 20.3316C34.5494 24.3523 32.3939 29.1191 32.2281 34.3005C31.2333 34.6321 30.3628 35.2124 29.6167 35.917C26.9224 38.4041 26.7152 42.5906 29.2022 45.3264C29.368 45.5336 29.6167 45.658 29.9483 45.658C30.197 45.658 30.4872 45.5751 30.6944 45.3678L33.596 42.715C34.1763 44.2486 34.9224 45.7409 35.8758 47.1088C36.7463 48.3937 38.9017 48.5181 39.5649 48.5181H39.6064C40.5183 48.5181 42.052 48.3523 42.7566 47.316C43.7514 45.9067 44.539 44.3315 45.1608 42.6735L48.0623 45.3264C48.2281 45.5336 48.5183 45.6165 48.8084 45.6165H48.8499C49.14 45.6165 49.3887 45.4922 49.596 45.2849C52.0001 42.5906 51.7929 38.4041 49.0986 35.917Z" fill="black"/>
<path d="M40.4352 50.0933H38.2798V55.1088H40.4352V50.0933Z" fill="black"/>
<path d="M43.9172 49.3057H41.7617V53.9067H43.9172V49.3057Z" fill="black"/>
<path d="M36.9118 49.3057H34.7563V53.4922H36.9118V49.3057Z" fill="black"/>
</g>
<g clip-path="url(#clip1_13_1969)">
<path d="M57.6373 127.845H54.943C54.943 127.803 54.9845 127.762 54.9845 127.72C54.943 124.943 52.7047 122.705 49.9275 122.746C47.9378 122.746 46.114 123.99 45.3679 125.813C44.0415 125.979 42.7979 126.725 42.0518 127.845H37.8653C37.2021 126.601 35.9171 125.855 34.5492 125.855H34.5078C33.7202 123.617 31.3161 122.414 29.0777 123.243C28.3316 123.492 27.6684 123.99 27.171 124.57L26.342 124.487C24.3523 124.487 22.5285 125.855 22.0311 127.845H21.0777C20.4974 127.845 20 128.3 20 128.922C20 129.503 20.456 130 21.0777 130H57.6373C58.2176 130 58.715 129.544 58.715 128.922C58.6736 128.342 58.2176 127.845 57.6373 127.845Z" fill="white"/>
<path d="M39.3577 106.58C37.368 106.539 35.71 104.922 35.71 102.891C35.71 100.86 37.3266 99.2435 39.3577 99.2435C41.3473 99.2435 43.0053 100.86 43.0053 102.891C43.0053 104.922 41.3473 106.539 39.3577 106.58ZM49.0986 105.917C48.3525 105.171 47.482 104.632 46.4872 104.3C46.3628 100.901 45.368 97.6269 43.5856 94.7253C43.4613 94.4352 41.2229 91.4093 40.1452 90.3316C39.7307 89.9585 39.026 89.9585 38.6115 90.3316C34.5494 94.3523 32.3939 99.1191 32.2281 104.3C31.2333 104.632 30.3628 105.212 29.6167 105.917C26.9224 108.404 26.7152 112.591 29.2022 115.326C29.368 115.534 29.6167 115.658 29.9483 115.658C30.197 115.658 30.4872 115.575 30.6944 115.368L33.596 112.715C34.1763 114.249 34.9224 115.741 35.8758 117.109C36.7463 118.394 38.9017 118.518 39.5649 118.518H39.6064C40.5183 118.518 42.052 118.352 42.7566 117.316C43.7514 115.907 44.539 114.332 45.1608 112.674L48.0623 115.326C48.2281 115.534 48.5183 115.617 48.8084 115.617H48.8499C49.14 115.617 49.3887 115.492 49.596 115.285C52.0001 112.591 51.7929 108.404 49.0986 105.917Z" fill="white"/>
<path d="M40.4352 120.093H38.2798V125.109H40.4352V120.093Z" fill="white"/>
<path d="M43.9172 119.306H41.7617V123.907H43.9172V119.306Z" fill="white"/>
<path d="M36.9118 119.306H34.7563V123.492H36.9118V119.306Z" fill="white"/>
</g>
<rect x="0.5" y="0.5" width="78" height="151" rx="4.5" stroke="#7B61FF" stroke-dasharray="10 5"/>
<defs>
<clipPath id="clip0_13_1969">
<rect width="38.6736" height="40" fill="white" transform="translate(20 20)"/>
</clipPath>
<clipPath id="clip1_13_1969">
<rect width="38.6736" height="40" fill="white" transform="translate(20 90)"/>
</clipPath>
</defs>
</svg>
