<svg width="80" height="115" viewBox="0 0 80 115" fill="none" xmlns="http://www.w3.org/2000/svg">
<g clip-path="url(#clip0_13_2022)">
<path d="M56.1165 35.6117C56.1942 35.2233 56.1942 34.835 56.1942 34.4078C56.1942 29.9417 52.5049 26.2913 47.9612 26.2913C47.301 26.2913 46.6796 26.3689 46.0583 26.5243C45.1262 24.7767 43.8058 23.2621 42.1359 22.1359C40.0777 20.7379 37.6699 20 35.1845 20C28.4272 20 22.9126 25.3981 22.9126 32.0388C22.9126 33.3204 23.1068 34.5631 23.4951 35.767C21.3981 36.7379 20 38.835 20 41.2039C20 44.5049 22.7573 47.2233 26.1359 47.2233H53.9029C57.2816 47.2233 60.0388 44.5049 60.0388 41.2039C60 38.6796 58.4078 36.466 56.1165 35.6117Z" fill="black"/>
</g>
<g clip-path="url(#clip1_13_2022)">
<path d="M56.1165 82.8349C56.1942 82.4466 56.1942 82.0582 56.1942 81.631C56.1942 77.165 52.5049 73.5145 47.9612 73.5145C47.301 73.5145 46.6796 73.5922 46.0583 73.7475C45.1262 72 43.8058 70.4854 42.1359 69.3592C40.0777 67.9611 37.6699 67.2233 35.1845 67.2233C28.4272 67.2233 22.9126 72.6213 22.9126 79.2621C22.9126 80.5437 23.1068 81.7864 23.4951 82.9903C21.3981 83.9611 20 86.0582 20 88.4272C20 91.7281 22.7573 94.4466 26.1359 94.4466H53.9029C57.2816 94.4466 60.0388 91.7281 60.0388 88.4272C60 85.9029 58.4078 83.6893 56.1165 82.8349Z" fill="white"/>
</g>
<rect x="0.5" y="0.5" width="79" height="113.447" rx="4.5" stroke="#7B61FF" stroke-dasharray="10 5"/>
<defs>
<clipPath id="clip0_13_2022">
<rect width="40" height="27.2233" fill="white" transform="translate(20 20)"/>
</clipPath>
<clipPath id="clip1_13_2022">
<rect width="40" height="27.2233" fill="white" transform="translate(20 67.2233)"/>
</clipPath>
</defs>
</svg>
