<svg width="84" height="140" viewBox="0 0 84 140" fill="none" xmlns="http://www.w3.org/2000/svg">
<g clip-path="url(#clip0_13_1656)">
<path d="M33.363 34.6548H50.5122C51.0913 34.6548 51.5813 34.1649 51.5813 33.5412V29.2651C51.5813 28.6415 51.0913 28.1515 50.5122 28.1515H46.8151C46.4588 28.1515 46.1915 28.4633 46.1915 28.8196C46.1915 29.176 46.4588 29.4878 46.8151 29.4878H50.2895V33.3185H33.5412V29.4878H42.7171C43.0735 29.4878 43.3407 29.176 43.3407 28.8196C43.3407 28.4633 43.0735 28.1515 42.7171 28.1515H33.363C32.7839 28.1515 32.2939 28.6415 32.2939 29.2651V33.5412C32.2939 34.1649 32.7394 34.6548 33.363 34.6548Z" fill="black"/>
<path d="M32.8284 37.55H35.2783C35.6347 37.55 35.9019 37.2382 35.9019 36.8819C35.9019 36.5255 35.6347 36.2137 35.2783 36.2137H32.8284C32.4721 36.2137 32.2048 36.5255 32.2048 36.8819C32.2048 37.2382 32.4721 37.55 32.8284 37.55Z" fill="black"/>
<path d="M51.0022 36.2137H48.5523C48.196 36.2137 47.9287 36.5255 47.9287 36.8819C47.9287 37.2382 48.196 37.55 48.5523 37.55H51.0022C51.3586 37.55 51.6258 37.2382 51.6258 36.8819C51.6258 36.5255 51.3586 36.2137 51.0022 36.2137Z" fill="black"/>
<path d="M43.3852 36.8819C43.3852 36.5255 43.118 36.2137 42.7616 36.2137H37.1937C36.8373 36.2137 36.5701 36.5255 36.5701 36.8819C36.5701 37.2382 36.8373 37.55 37.1937 37.55H42.7171C43.118 37.55 43.3852 37.2382 43.3852 36.8819Z" fill="black"/>
<path d="M47.1715 36.8819C47.1715 36.5255 46.9042 36.2137 46.5479 36.2137H44.6771C44.3207 36.2137 44.0535 36.5255 44.0535 36.8819C44.0535 37.2382 44.3207 37.55 44.6771 37.55H46.5479C46.8597 37.55 47.1715 37.2382 47.1715 36.8819Z" fill="black"/>
<path d="M32.8284 40.3118H33.8529C34.2093 40.3118 34.4765 40 34.4765 39.6436C34.4765 39.2873 34.2093 38.9755 33.8529 38.9755H32.8284C32.4721 38.9755 32.2048 39.2873 32.2048 39.6436C32.2048 40.0445 32.4721 40.3118 32.8284 40.3118Z" fill="black"/>
<path d="M35.8128 39.02C35.4565 39.02 35.1892 39.3318 35.1892 39.6882C35.1892 40.0445 35.4565 40.3563 35.8128 40.3563H38.9309C39.2872 40.3563 39.5545 40.0445 39.5545 39.6882C39.5545 39.3318 39.2872 39.02 38.9309 39.02H35.8128Z" fill="black"/>
<path d="M46.0134 40.3118H50.9131C51.2695 40.3118 51.5368 40 51.5368 39.6436C51.5368 39.2873 51.2695 38.9755 50.9131 38.9755H46.0134C45.657 38.9755 45.3898 39.2873 45.3898 39.6436C45.3452 40.0445 45.657 40.3118 46.0134 40.3118Z" fill="black"/>
<path d="M40.8018 40.3118H44.098C44.4544 40.3118 44.7217 40 44.7217 39.6436C44.7217 39.2873 44.4544 38.9755 44.098 38.9755H40.8018C40.4455 38.9755 40.1782 39.2873 40.1782 39.6436C40.1782 40.0445 40.4455 40.3118 40.8018 40.3118Z" fill="black"/>
<path d="M29.9333 47.3052H38.7083C39.0647 47.3052 39.3319 46.9934 39.3319 46.637C39.3319 46.2807 39.0647 45.9689 38.7083 45.9689H29.9333C29.5769 45.9689 29.3097 46.2807 29.3097 46.637C29.2651 47.0379 29.5769 47.3052 29.9333 47.3052Z" fill="black"/>
<path d="M41.0245 47.3052H44.677C45.0334 47.3052 45.3007 46.9934 45.3007 46.637C45.3007 46.2807 45.0334 45.9689 44.677 45.9689H41.0245C40.6681 45.9689 40.4009 46.2807 40.4009 46.637C40.4009 47.0379 40.6681 47.3052 41.0245 47.3052Z" fill="black"/>
<path d="M46.4143 46.6816C46.4143 47.0379 46.6816 47.3497 47.0379 47.3497H53.8976C54.254 47.3497 54.5212 47.0379 54.5212 46.6816C54.5212 46.3252 54.254 46.0134 53.8976 46.0134H47.0825C46.7261 46.0134 46.4143 46.2807 46.4143 46.6816Z" fill="black"/>
<path d="M34.2985 48.7305H29.8887C29.5324 48.7305 29.2651 49.0423 29.2651 49.3986C29.2651 49.755 29.5324 50.0668 29.8887 50.0668H34.2985C34.6549 50.0668 34.9222 49.755 34.9222 49.3986C34.9667 48.9977 34.6549 48.7305 34.2985 48.7305Z" fill="black"/>
<path d="M47.0824 48.7305H37.3719C37.0156 48.7305 36.7483 49.0423 36.7483 49.3986C36.7483 49.755 37.0156 50.0668 37.3719 50.0668H47.0378C47.3942 50.0668 47.6614 49.755 47.6614 49.3986C47.706 48.9977 47.4387 48.7305 47.0824 48.7305Z" fill="black"/>
<path d="M53.8975 48.7305H49.0423C48.686 48.7305 48.4187 49.0423 48.4187 49.3986C48.4187 49.755 48.686 50.0668 49.0423 50.0668H53.8975C54.2539 50.0668 54.5211 49.755 54.5211 49.3986C54.5657 48.9977 54.2539 48.7305 53.8975 48.7305Z" fill="black"/>
<path d="M62.539 57.1938C62.539 57.9955 61.8708 58.7082 61.069 58.7082H22.7617C21.9599 58.7082 21.2918 58.0401 21.2918 57.1938V53.8975H34.343L35.1893 55.8575C35.3675 56.2584 35.7238 56.5256 36.1693 56.5256H47.6615C48.1069 56.5256 48.4633 56.2584 48.6414 55.8575L49.4877 53.8975H62.539V57.1938ZM23.7862 28.9087C23.7862 28.196 24.3653 27.5724 25.078 27.5724H29.1759V29.3541H27.2606C26.5033 29.3541 25.9243 29.9777 25.9243 30.735V52.5167H23.7862V28.9087ZM48.0624 53.8975L47.5278 55.1893H36.3029L35.7238 53.8975H48.0624ZM32.0267 43.6971H51.8486C53.4076 43.6971 54.6993 42.4053 54.6993 40.7572V30.6904H56.6147C56.6592 30.6904 56.7038 30.735 56.7038 30.7795V45.2561C56.7038 45.6125 56.971 45.9243 57.3274 45.9243C57.6837 45.9243 57.951 45.6125 57.951 45.2561V30.7795C57.951 30.0223 57.3274 29.3987 56.6147 29.3987H54.6993V27.6169H58.7528C59.4655 27.6169 60.0445 28.196 60.0445 28.9532V52.6058H57.951V49.3987C57.951 49.0423 57.6837 48.7305 57.3274 48.7305C56.971 48.7305 56.7038 49.0423 56.7038 49.3987V52.6058H27.1715V30.7795C27.1715 30.735 27.216 30.6904 27.2606 30.6904H29.1759V40.7572C29.1314 42.4053 30.4232 43.6971 32.0267 43.6971ZM30.4232 26.9042H53.4076V40.8018C53.4076 41.6926 52.6949 42.4053 51.8486 42.4053H32.0267C31.1804 42.4053 30.4677 41.6926 30.4677 40.8018V26.9042H30.4232ZM30.4232 22.9399C30.4232 22.049 31.1359 21.3363 31.9822 21.3363H51.804C52.6503 21.3363 53.363 22.049 53.363 22.9399V25.6125H30.4232V22.9399ZM63.2071 52.5612H61.3363V28.9087C61.3363 27.4388 60.1782 26.2806 58.7528 26.2806H54.6548V22.9399C54.6993 21.2918 53.4076 20 51.804 20H32.0267C30.4677 20 29.1759 21.2918 29.1759 22.9399V26.2806H25.078C23.6526 26.2806 22.4944 27.4388 22.4944 28.9087V52.5612H20.6236C20.2673 52.5612 20 52.873 20 53.2294V57.1938C20 58.7528 21.2472 60 22.7617 60H61.1136C62.6281 60 63.8753 58.7528 63.8753 57.1938V53.2294C63.8307 52.873 63.5635 52.5612 63.2071 52.5612Z" fill="black"/>
<path d="M32.7839 22.8508C32.7393 22.8508 32.6948 22.8063 32.6502 22.8063C32.4275 22.7617 32.2048 22.8508 32.0712 22.9844C31.6703 23.3853 31.9821 24.098 32.5166 24.098C32.5611 24.098 32.6057 24.098 32.6502 24.098C32.9175 24.0535 33.0957 23.8308 33.1402 23.5635C33.1402 23.519 33.1402 23.4744 33.1402 23.4299C33.1402 23.2517 33.0511 23.0735 32.962 22.9844C32.9175 22.9399 32.8729 22.8954 32.7839 22.8508Z" fill="black"/>
<path d="M34.8776 22.8063C34.6994 22.7617 34.4322 22.8508 34.2985 22.9844C34.1649 23.1181 34.1204 23.2962 34.1204 23.4299C34.1204 23.6971 34.254 23.9199 34.5213 24.0535C34.5658 24.0535 34.6103 24.098 34.6549 24.098C34.6994 24.098 34.744 24.098 34.7885 24.098C34.8776 24.098 34.9667 24.098 35.0558 24.0535C35.0558 24.0535 35.1003 24.0089 35.1449 24.0089C35.1894 24.0089 35.2339 23.9644 35.2339 23.9199C35.3676 23.7862 35.4121 23.608 35.4121 23.4744C35.4121 23.2962 35.323 23.1181 35.2339 23.029C35.1449 22.8954 35.0112 22.8063 34.8776 22.8063Z" fill="black"/>
<path d="M36.8821 22.8063C36.8375 22.8063 36.793 22.8063 36.7484 22.8508C36.7039 22.8508 36.6594 22.8954 36.6594 22.8954C36.6148 22.9399 36.5703 22.9399 36.5703 22.9844C36.4366 23.1181 36.3921 23.2962 36.3921 23.4299C36.3921 23.7417 36.6148 24.0089 36.9266 24.0535C36.9712 24.0535 37.0157 24.0535 37.0602 24.0535C37.2384 24.0535 37.5057 23.9199 37.5948 23.7417C37.6393 23.6526 37.6839 23.4744 37.6839 23.3853C37.6393 23.029 37.283 22.7172 36.8821 22.8063Z" fill="black"/>
</g>
<g clip-path="url(#clip1_13_1656)">
<path d="M33.363 94.6548H50.5122C51.0913 94.6548 51.5813 94.1649 51.5813 93.5412V89.2651C51.5813 88.6415 51.0913 88.1515 50.5122 88.1515H46.8151C46.4588 88.1515 46.1915 88.4633 46.1915 88.8196C46.1915 89.176 46.4588 89.4878 46.8151 89.4878H50.2895V93.3185H33.5412V89.4878H42.7171C43.0735 89.4878 43.3407 89.176 43.3407 88.8196C43.3407 88.4633 43.0735 88.1515 42.7171 88.1515H33.363C32.7839 88.1515 32.2939 88.6415 32.2939 89.2651V93.5412C32.2939 94.1649 32.7394 94.6548 33.363 94.6548Z" fill="white"/>
<path d="M32.8284 97.55H35.2783C35.6347 97.55 35.9019 97.2382 35.9019 96.8819C35.9019 96.5255 35.6347 96.2137 35.2783 96.2137H32.8284C32.4721 96.2137 32.2048 96.5255 32.2048 96.8819C32.2048 97.2382 32.4721 97.55 32.8284 97.55Z" fill="white"/>
<path d="M51.0022 96.2137H48.5523C48.196 96.2137 47.9287 96.5255 47.9287 96.8819C47.9287 97.2382 48.196 97.55 48.5523 97.55H51.0022C51.3586 97.55 51.6258 97.2382 51.6258 96.8819C51.6258 96.5255 51.3586 96.2137 51.0022 96.2137Z" fill="white"/>
<path d="M43.3852 96.8819C43.3852 96.5255 43.118 96.2137 42.7616 96.2137H37.1937C36.8373 96.2137 36.5701 96.5255 36.5701 96.8819C36.5701 97.2382 36.8373 97.55 37.1937 97.55H42.7171C43.118 97.55 43.3852 97.2382 43.3852 96.8819Z" fill="white"/>
<path d="M47.1715 96.8819C47.1715 96.5255 46.9042 96.2137 46.5479 96.2137H44.6771C44.3207 96.2137 44.0535 96.5255 44.0535 96.8819C44.0535 97.2382 44.3207 97.55 44.6771 97.55H46.5479C46.8597 97.55 47.1715 97.2382 47.1715 96.8819Z" fill="white"/>
<path d="M32.8284 100.312H33.8529C34.2093 100.312 34.4765 100 34.4765 99.6436C34.4765 99.2873 34.2093 98.9755 33.8529 98.9755H32.8284C32.4721 98.9755 32.2048 99.2873 32.2048 99.6436C32.2048 100.045 32.4721 100.312 32.8284 100.312Z" fill="white"/>
<path d="M35.8128 99.02C35.4565 99.02 35.1892 99.3318 35.1892 99.6882C35.1892 100.045 35.4565 100.356 35.8128 100.356H38.9309C39.2872 100.356 39.5545 100.045 39.5545 99.6882C39.5545 99.3318 39.2872 99.02 38.9309 99.02H35.8128Z" fill="white"/>
<path d="M46.0134 100.312H50.9131C51.2695 100.312 51.5368 100 51.5368 99.6436C51.5368 99.2873 51.2695 98.9755 50.9131 98.9755H46.0134C45.657 98.9755 45.3898 99.2873 45.3898 99.6436C45.3452 100.045 45.657 100.312 46.0134 100.312Z" fill="white"/>
<path d="M40.8018 100.312H44.098C44.4544 100.312 44.7217 100 44.7217 99.6436C44.7217 99.2873 44.4544 98.9755 44.098 98.9755H40.8018C40.4455 98.9755 40.1782 99.2873 40.1782 99.6436C40.1782 100.045 40.4455 100.312 40.8018 100.312Z" fill="white"/>
<path d="M29.9333 107.305H38.7083C39.0647 107.305 39.3319 106.993 39.3319 106.637C39.3319 106.281 39.0647 105.969 38.7083 105.969H29.9333C29.5769 105.969 29.3097 106.281 29.3097 106.637C29.2651 107.038 29.5769 107.305 29.9333 107.305Z" fill="white"/>
<path d="M41.0245 107.305H44.677C45.0334 107.305 45.3007 106.993 45.3007 106.637C45.3007 106.281 45.0334 105.969 44.677 105.969H41.0245C40.6681 105.969 40.4009 106.281 40.4009 106.637C40.4009 107.038 40.6681 107.305 41.0245 107.305Z" fill="white"/>
<path d="M46.4143 106.682C46.4143 107.038 46.6816 107.35 47.0379 107.35H53.8976C54.254 107.35 54.5212 107.038 54.5212 106.682C54.5212 106.325 54.254 106.013 53.8976 106.013H47.0825C46.7261 106.013 46.4143 106.281 46.4143 106.682Z" fill="white"/>
<path d="M34.2985 108.73H29.8887C29.5324 108.73 29.2651 109.042 29.2651 109.399C29.2651 109.755 29.5324 110.067 29.8887 110.067H34.2985C34.6549 110.067 34.9222 109.755 34.9222 109.399C34.9667 108.998 34.6549 108.73 34.2985 108.73Z" fill="white"/>
<path d="M47.0824 108.73H37.3719C37.0156 108.73 36.7483 109.042 36.7483 109.399C36.7483 109.755 37.0156 110.067 37.3719 110.067H47.0378C47.3942 110.067 47.6614 109.755 47.6614 109.399C47.706 108.998 47.4387 108.73 47.0824 108.73Z" fill="white"/>
<path d="M53.8975 108.73H49.0423C48.686 108.73 48.4187 109.042 48.4187 109.399C48.4187 109.755 48.686 110.067 49.0423 110.067H53.8975C54.2539 110.067 54.5211 109.755 54.5211 109.399C54.5657 108.998 54.2539 108.73 53.8975 108.73Z" fill="white"/>
<path d="M62.539 117.194C62.539 117.996 61.8708 118.708 61.069 118.708H22.7617C21.9599 118.708 21.2918 118.04 21.2918 117.194V113.898H34.343L35.1893 115.857C35.3675 116.258 35.7238 116.526 36.1693 116.526H47.6615C48.1069 116.526 48.4633 116.258 48.6414 115.857L49.4877 113.898H62.539V117.194ZM23.7862 88.9087C23.7862 88.196 24.3653 87.5724 25.078 87.5724H29.1759V89.3541H27.2606C26.5033 89.3541 25.9243 89.9777 25.9243 90.735V112.517H23.7862V88.9087ZM48.0624 113.898L47.5278 115.189H36.3029L35.7238 113.898H48.0624ZM32.0267 103.697H51.8486C53.4076 103.697 54.6993 102.405 54.6993 100.757V90.6904H56.6147C56.6592 90.6904 56.7038 90.735 56.7038 90.7795V105.256C56.7038 105.612 56.971 105.924 57.3274 105.924C57.6837 105.924 57.951 105.612 57.951 105.256V90.7795C57.951 90.0223 57.3274 89.3987 56.6147 89.3987H54.6993V87.6169H58.7528C59.4655 87.6169 60.0445 88.196 60.0445 88.9532V112.606H57.951V109.399C57.951 109.042 57.6837 108.731 57.3274 108.731C56.971 108.731 56.7038 109.042 56.7038 109.399V112.606H27.1715V90.7795C27.1715 90.735 27.216 90.6904 27.2606 90.6904H29.1759V100.757C29.1314 102.405 30.4232 103.697 32.0267 103.697ZM30.4232 86.9042H53.4076V100.802C53.4076 101.693 52.6949 102.405 51.8486 102.405H32.0267C31.1804 102.405 30.4677 101.693 30.4677 100.802V86.9042H30.4232ZM30.4232 82.9399C30.4232 82.049 31.1359 81.3363 31.9822 81.3363H51.804C52.6503 81.3363 53.363 82.049 53.363 82.9399V85.6125H30.4232V82.9399ZM63.2071 112.561H61.3363V88.9087C61.3363 87.4388 60.1782 86.2806 58.7528 86.2806H54.6548V82.9399C54.6993 81.2918 53.4076 80 51.804 80H32.0267C30.4677 80 29.1759 81.2918 29.1759 82.9399V86.2806H25.078C23.6526 86.2806 22.4944 87.4388 22.4944 88.9087V112.561H20.6236C20.2673 112.561 20 112.873 20 113.229V117.194C20 118.753 21.2472 120 22.7617 120H61.1136C62.6281 120 63.8753 118.753 63.8753 117.194V113.229C63.8307 112.873 63.5635 112.561 63.2071 112.561Z" fill="white"/>
<path d="M32.7839 82.8508C32.7393 82.8508 32.6948 82.8063 32.6502 82.8063C32.4275 82.7617 32.2048 82.8508 32.0712 82.9844C31.6703 83.3853 31.9821 84.098 32.5166 84.098C32.5611 84.098 32.6057 84.098 32.6502 84.098C32.9175 84.0535 33.0957 83.8308 33.1402 83.5635C33.1402 83.519 33.1402 83.4744 33.1402 83.4299C33.1402 83.2517 33.0511 83.0735 32.962 82.9844C32.9175 82.9399 32.8729 82.8954 32.7839 82.8508Z" fill="white"/>
<path d="M34.8776 82.8063C34.6994 82.7617 34.4322 82.8508 34.2985 82.9844C34.1649 83.1181 34.1204 83.2962 34.1204 83.4299C34.1204 83.6971 34.254 83.9199 34.5213 84.0535C34.5658 84.0535 34.6103 84.098 34.6549 84.098C34.6994 84.098 34.744 84.098 34.7885 84.098C34.8776 84.098 34.9667 84.098 35.0558 84.0535C35.0558 84.0535 35.1003 84.0089 35.1449 84.0089C35.1894 84.0089 35.2339 83.9644 35.2339 83.9199C35.3676 83.7862 35.4121 83.608 35.4121 83.4744C35.4121 83.2962 35.323 83.1181 35.2339 83.029C35.1449 82.8954 35.0112 82.8063 34.8776 82.8063Z" fill="white"/>
<path d="M36.8821 82.8063C36.8375 82.8063 36.793 82.8063 36.7484 82.8508C36.7039 82.8508 36.6594 82.8954 36.6594 82.8954C36.6148 82.9399 36.5703 82.9399 36.5703 82.9844C36.4366 83.1181 36.3921 83.2962 36.3921 83.4299C36.3921 83.7417 36.6148 84.0089 36.9266 84.0535C36.9712 84.0535 37.0157 84.0535 37.0602 84.0535C37.2384 84.0535 37.5057 83.9199 37.5948 83.7417C37.6393 83.6526 37.6839 83.4744 37.6839 83.3853C37.6393 83.029 37.283 82.7172 36.8821 82.8063Z" fill="white"/>
</g>
<rect x="0.5" y="0.5" width="82.8307" height="139" rx="4.5" stroke="#7B61FF" stroke-dasharray="10 5"/>
<defs>
<clipPath id="clip0_13_1656">
<rect width="43.8307" height="40" fill="white" transform="translate(20 20)"/>
</clipPath>
<clipPath id="clip1_13_1656">
<rect width="43.8307" height="40" fill="white" transform="translate(20 80)"/>
</clipPath>
</defs>
</svg>
