<svg width="77" height="150" viewBox="0 0 77 150" fill="none" xmlns="http://www.w3.org/2000/svg">
<g clip-path="url(#clip0_13_1826)">
<path d="M25.5567 34.4838C25.5567 27.2874 31.2956 21.4575 38.3097 21.4575C45.3694 21.4575 51.0628 27.2874 51.0628 34.4838C51.0628 41.6802 45.3239 47.5101 38.3097 47.5101C31.25 47.5101 25.5567 41.6346 25.5567 34.4838ZM56.5283 60.0354L50.6984 45.6883C50.5617 45.3239 50.1518 45.1417 49.7875 45.2783C49.4231 45.415 49.2409 45.8704 49.4231 46.2348L54.7065 59.2156L49.8785 57.8036C49.5597 57.7126 49.2409 57.8492 49.0587 58.168L46.6447 62.6316L40.997 48.6943C47.5101 47.419 52.4747 41.5435 52.4747 34.4838C52.4747 26.5132 46.0982 20 38.3097 20C30.4757 20 24.1447 26.5132 24.1447 34.4838C24.1447 37.7176 25.1923 40.7237 26.9686 43.0921L20.0455 60.0354C19.9545 60.3087 20 60.582 20.1822 60.8097C20.3644 61.0374 20.6377 61.083 20.9109 61.0374L26.6043 59.3522L29.4281 64.6356C29.5648 64.8634 29.7925 65 30.0658 65H30.1113C30.3846 65 30.6124 64.8178 30.7034 64.5445L36.169 51.1083C36.3057 50.7439 36.169 50.334 35.8047 50.1518C35.4403 50.0152 35.0304 50.1518 34.8937 50.5617L29.9292 62.6316L27.5152 58.168C27.3785 57.8947 27.0142 57.7126 26.6953 57.8036L21.913 59.2156L27.9706 44.3219C30.5668 47.1458 34.2561 48.9221 38.3097 48.9221C38.7196 48.9221 39.1296 48.9221 39.5395 48.8765L45.916 64.5445C46.0071 64.8178 46.2348 64.9545 46.5081 65H46.5536C46.8269 65 47.0547 64.8634 47.1913 64.6356L50.0607 59.3522L55.7541 61.0374C56.0273 61.1285 56.3006 61.0374 56.4828 60.8097C56.5739 60.582 56.665 60.3087 56.5283 60.0354Z" fill="black"/>
<path d="M41.6346 35.2581C41.4979 35.4403 41.4068 35.6225 41.4524 35.8502L41.9989 39.6761L38.5829 37.9454C38.4918 37.8998 38.3552 37.8543 38.2641 37.8543C38.173 37.8543 38.0364 37.8998 37.9453 37.9454L34.5748 39.6761L35.1214 35.8502C35.167 35.6225 35.0759 35.3947 34.9392 35.2581L32.2975 32.4798L36.0323 31.8421C36.2601 31.7966 36.4423 31.6599 36.5333 31.4777L38.3097 28.0162L40.086 31.4777C40.1771 31.6599 40.3593 31.7966 40.587 31.8421L44.3218 32.4798L41.6346 35.2581ZM46.417 31.751C46.3259 31.4777 46.1437 31.2956 45.8704 31.25L41.1336 30.4757L38.9018 26.1488C38.7651 25.9211 38.5374 25.7844 38.2641 25.7844C37.9908 25.7844 37.7631 25.9211 37.6265 26.1488L35.4402 30.4757L30.7034 31.2956C30.4301 31.3411 30.2479 31.5233 30.1568 31.7966C30.0657 32.0698 30.1568 32.3431 30.339 32.5253L33.7095 36.0324L32.9807 40.8603C32.9352 41.1336 33.0718 41.4069 33.254 41.5435C33.4817 41.6802 33.755 41.7257 33.9827 41.5891L38.2641 39.4028L42.5455 41.5891C42.6366 41.6346 42.7732 41.6802 42.8643 41.6802C43.001 41.6802 43.1376 41.6346 43.2742 41.5435C43.502 41.4069 43.5931 41.1336 43.5475 40.8603L42.8188 36.0324L46.1892 32.5253C46.417 32.2976 46.508 32.0243 46.417 31.751Z" fill="black"/>
<path d="M48.9677 35.2125C48.6034 35.167 48.239 35.4402 48.1934 35.8502C47.5558 40.8603 43.32 44.6862 38.3098 44.6862C32.8443 44.6862 28.3807 40.1315 28.3807 34.5293C28.3807 28.9271 32.8443 24.3724 38.3098 24.3724C43.2744 24.3724 47.5102 28.1528 48.1934 33.2085C48.239 33.6184 48.6034 33.8917 48.9677 33.8461C49.3321 33.8006 49.6054 33.4362 49.5598 33.0263C48.8311 27.1963 43.9576 22.8694 38.3098 22.8694C32.07 22.8694 26.9688 28.0617 26.9688 34.4838C26.9688 40.9058 32.07 46.0981 38.3098 46.0981C44.0032 46.0981 48.8311 41.7712 49.5598 36.0323C49.6054 35.6224 49.3321 35.258 48.9677 35.2125Z" fill="black"/>
</g>
<g clip-path="url(#clip1_13_1826)">
<path d="M25.5567 99.4838C25.5567 92.2874 31.2956 86.4575 38.3097 86.4575C45.3694 86.4575 51.0628 92.2874 51.0628 99.4838C51.0628 106.68 45.3239 112.51 38.3097 112.51C31.25 112.51 25.5567 106.635 25.5567 99.4838ZM56.5283 125.035L50.6984 110.688C50.5617 110.324 50.1518 110.142 49.7875 110.278C49.4231 110.415 49.2409 110.87 49.4231 111.235L54.7065 124.216L49.8785 122.804C49.5597 122.713 49.2409 122.849 49.0587 123.168L46.6447 127.632L40.997 113.694C47.5101 112.419 52.4747 106.544 52.4747 99.4838C52.4747 91.5132 46.0982 85 38.3097 85C30.4757 85 24.1447 91.5132 24.1447 99.4838C24.1447 102.718 25.1923 105.724 26.9686 108.092L20.0455 125.035C19.9545 125.309 20 125.582 20.1822 125.81C20.3644 126.037 20.6377 126.083 20.9109 126.037L26.6043 124.352L29.4281 129.636C29.5648 129.863 29.7925 130 30.0658 130H30.1113C30.3846 130 30.6124 129.818 30.7034 129.545L36.169 116.108C36.3057 115.744 36.169 115.334 35.8047 115.152C35.4403 115.015 35.0304 115.152 34.8937 115.562L29.9292 127.632L27.5152 123.168C27.3785 122.895 27.0142 122.713 26.6953 122.804L21.913 124.216L27.9706 109.322C30.5668 112.146 34.2561 113.922 38.3097 113.922C38.7196 113.922 39.1296 113.922 39.5395 113.877L45.916 129.545C46.0071 129.818 46.2348 129.954 46.5081 130H46.5536C46.8269 130 47.0547 129.863 47.1913 129.636L50.0607 124.352L55.7541 126.037C56.0273 126.129 56.3006 126.037 56.4828 125.81C56.5739 125.582 56.665 125.309 56.5283 125.035Z" fill="white"/>
<path d="M41.6346 100.258C41.4979 100.44 41.4068 100.622 41.4524 100.85L41.9989 104.676L38.5829 102.945C38.4918 102.9 38.3552 102.854 38.2641 102.854C38.173 102.854 38.0364 102.9 37.9453 102.945L34.5748 104.676L35.1214 100.85C35.167 100.622 35.0759 100.395 34.9392 100.258L32.2975 97.4798L36.0323 96.8421C36.2601 96.7966 36.4423 96.6599 36.5333 96.4777L38.3097 93.0162L40.086 96.4777C40.1771 96.6599 40.3593 96.7966 40.587 96.8421L44.3218 97.4798L41.6346 100.258ZM46.417 96.751C46.3259 96.4777 46.1437 96.2956 45.8704 96.25L41.1336 95.4757L38.9018 91.1488C38.7651 90.9211 38.5374 90.7844 38.2641 90.7844C37.9908 90.7844 37.7631 90.9211 37.6265 91.1488L35.4402 95.4757L30.7034 96.2956C30.4301 96.3411 30.2479 96.5233 30.1568 96.7966C30.0657 97.0698 30.1568 97.3431 30.339 97.5253L33.7095 101.032L32.9807 105.86C32.9352 106.134 33.0718 106.407 33.254 106.544C33.4817 106.68 33.755 106.726 33.9827 106.589L38.2641 104.403L42.5455 106.589C42.6366 106.635 42.7732 106.68 42.8643 106.68C43.001 106.68 43.1376 106.635 43.2742 106.544C43.502 106.407 43.5931 106.134 43.5475 105.86L42.8188 101.032L46.1892 97.5253C46.417 97.2976 46.508 97.0243 46.417 96.751Z" fill="white"/>
<path d="M48.9677 100.213C48.6034 100.167 48.239 100.44 48.1934 100.85C47.5558 105.86 43.32 109.686 38.3098 109.686C32.8443 109.686 28.3807 105.132 28.3807 99.5293C28.3807 93.9271 32.8443 89.3724 38.3098 89.3724C43.2744 89.3724 47.5102 93.1528 48.1934 98.2085C48.239 98.6184 48.6034 98.8917 48.9677 98.8461C49.3321 98.8006 49.6054 98.4362 49.5598 98.0263C48.8311 92.1963 43.9576 87.8694 38.3098 87.8694C32.07 87.8694 26.9688 93.0617 26.9688 99.4838C26.9688 105.906 32.07 111.098 38.3098 111.098C44.0032 111.098 48.8311 106.771 49.5598 101.032C49.6054 100.622 49.3321 100.258 48.9677 100.213Z" fill="white"/>
</g>
<rect x="0.5" y="0.5" width="75.5739" height="149" rx="4.5" stroke="#7B61FF" stroke-dasharray="10 5"/>
<defs>
<clipPath id="clip0_13_1826">
<rect width="36.5739" height="45" fill="white" transform="translate(20 20)"/>
</clipPath>
<clipPath id="clip1_13_1826">
<rect width="36.5739" height="45" fill="white" transform="translate(20 85)"/>
</clipPath>
</defs>
</svg>
