<svg width="182" height="259" viewBox="0 0 182 259" fill="none" xmlns="http://www.w3.org/2000/svg">
<mask id="mask0_3640_26697" style="mask-type:alpha" maskUnits="userSpaceOnUse" x="0" y="0" width="182" height="259">
<rect width="182" height="259" fill="#C4C4C4"/>
</mask>
<g mask="url(#mask0_3640_26697)">
<circle cx="169" cy="251.549" r="3" fill="#FFD847"/>
<circle cx="169" cy="235.411" r="3" fill="#FFD847"/>
<circle cx="169" cy="219.274" r="3" fill="#FFD847"/>
<circle cx="169" cy="203.137" r="3" fill="#FFD847"/>
<circle cx="169" cy="186.999" r="3" fill="#FFD847"/>
<circle cx="169" cy="170.862" r="3" fill="#FFD847"/>
<circle cx="169" cy="154.725" r="3" fill="#FFD847"/>
<circle cx="169" cy="138.587" r="3" fill="#FFD847"/>
<circle cx="169" cy="122.45" r="3" fill="#FFD847"/>
<circle cx="169" cy="106.313" r="3" fill="#FFD847"/>
<circle cx="169" cy="90.1752" r="3" fill="#FFD847"/>
<circle cx="169" cy="74.0379" r="3" fill="#FFD847"/>
<circle cx="169" cy="57.9006" r="3" fill="#FFD847"/>
<circle cx="169" cy="41.7632" r="3" fill="#FFD847"/>
<circle cx="169" cy="25.6259" r="3" fill="#FFD847"/>
<circle cx="169" cy="9.48853" r="3" fill="#FFD847"/>
<circle cx="146.23" cy="251.549" r="3" fill="#FFD847"/>
<circle cx="146.23" cy="235.411" r="3" fill="#FFD847"/>
<circle cx="146.23" cy="219.274" r="3" fill="#FFD847"/>
<circle cx="146.23" cy="203.137" r="3" fill="#FFD847"/>
<circle cx="146.23" cy="186.999" r="3" fill="#FFD847"/>
<circle cx="146.23" cy="170.862" r="3" fill="#FFD847"/>
<circle cx="146.23" cy="154.725" r="3" fill="#FFD847"/>
<circle cx="146.23" cy="138.587" r="3" fill="#FFD847"/>
<circle cx="146.23" cy="122.45" r="3" fill="#FFD847"/>
<circle cx="146.23" cy="106.313" r="3" fill="#FFD847"/>
<circle cx="146.23" cy="90.1752" r="3" fill="#FFD847"/>
<circle cx="146.23" cy="74.0379" r="3" fill="#FFD847"/>
<circle cx="146.23" cy="57.9006" r="3" fill="#FFD847"/>
<circle cx="146.23" cy="41.7632" r="3" fill="#FFD847"/>
<circle cx="146.23" cy="25.6259" r="3" fill="#FFD847"/>
<circle cx="146.23" cy="9.48853" r="3" fill="#FFD847"/>
<circle cx="123.23" cy="251.549" r="3" fill="#FFD847"/>
<circle cx="123.23" cy="235.411" r="3" fill="#FFD847"/>
<circle cx="123.23" cy="219.274" r="3" fill="#FFD847"/>
<circle cx="123.23" cy="203.137" r="3" fill="#FFD847"/>
<circle cx="123.23" cy="186.999" r="3" fill="#FFD847"/>
<circle cx="123.23" cy="170.862" r="3" fill="#FFD847"/>
<circle cx="123.23" cy="154.725" r="3" fill="#FFD847"/>
<circle cx="123.23" cy="138.587" r="3" fill="#FFD847"/>
<circle cx="123.23" cy="122.45" r="3" fill="#FFD847"/>
<circle cx="123.23" cy="106.313" r="3" fill="#FFD847"/>
<circle cx="123.23" cy="90.1752" r="3" fill="#FFD847"/>
<circle cx="123.23" cy="74.0379" r="3" fill="#FFD847"/>
<circle cx="123.23" cy="57.9006" r="3" fill="#FFD847"/>
<circle cx="123.23" cy="41.7632" r="3" fill="#FFD847"/>
<circle cx="123.23" cy="25.6259" r="3" fill="#FFD847"/>
<circle cx="123.23" cy="9.48853" r="3" fill="#FFD847"/>
<circle cx="100.23" cy="251.549" r="3" fill="#FFD847"/>
<circle cx="100.23" cy="235.411" r="3" fill="#FFD847"/>
<circle cx="100.23" cy="219.274" r="3" fill="#FFD847"/>
<circle cx="100.23" cy="203.137" r="3" fill="#FFD847"/>
<circle cx="100.23" cy="186.999" r="3" fill="#FFD847"/>
<circle cx="100.23" cy="170.862" r="3" fill="#FFD847"/>
<circle cx="100.23" cy="154.725" r="3" fill="#FFD847"/>
<circle cx="100.23" cy="138.587" r="3" fill="#FFD847"/>
<circle cx="100.23" cy="122.45" r="3" fill="#FFD847"/>
<circle cx="100.23" cy="106.313" r="3" fill="#FFD847"/>
<circle cx="100.23" cy="90.1752" r="3" fill="#FFD847"/>
<circle cx="100.23" cy="74.0379" r="3" fill="#FFD847"/>
<circle cx="100.23" cy="57.9006" r="3" fill="#FFD847"/>
<circle cx="100.23" cy="41.7632" r="3" fill="#FFD847"/>
<circle cx="100.23" cy="25.6259" r="3" fill="#FFD847"/>
<circle cx="100.23" cy="9.48853" r="3" fill="#FFD847"/>
<circle cx="77.2305" cy="251.549" r="3" fill="#FFD847"/>
<circle cx="77.2305" cy="235.411" r="3" fill="#FFD847"/>
<circle cx="77.2305" cy="219.274" r="3" fill="#FFD847"/>
<circle cx="77.2305" cy="203.137" r="3" fill="#FFD847"/>
<circle cx="77.2305" cy="186.999" r="3" fill="#FFD847"/>
<circle cx="77.2305" cy="170.862" r="3" fill="#FFD847"/>
<circle cx="77.2305" cy="154.725" r="3" fill="#FFD847"/>
<circle cx="77.2305" cy="138.587" r="3" fill="#FFD847"/>
<circle cx="77.2305" cy="122.45" r="3" fill="#FFD847"/>
<circle cx="77.2305" cy="106.313" r="3" fill="#FFD847"/>
<circle cx="77.2305" cy="90.1752" r="3" fill="#FFD847"/>
<circle cx="77.2305" cy="74.0379" r="3" fill="#FFD847"/>
<circle cx="77.2305" cy="57.9006" r="3" fill="#FFD847"/>
<circle cx="77.2305" cy="41.7632" r="3" fill="#FFD847"/>
<circle cx="77.2305" cy="25.6259" r="3" fill="#FFD847"/>
<circle cx="77.2305" cy="9.48853" r="3" fill="#FFD847"/>
<circle cx="54.2305" cy="251.549" r="3" fill="#FFD847"/>
<circle cx="54.2305" cy="235.411" r="3" fill="#FFD847"/>
<circle cx="54.2305" cy="219.274" r="3" fill="#FFD847"/>
<circle cx="54.2305" cy="203.137" r="3" fill="#FFD847"/>
<circle cx="54.2305" cy="186.999" r="3" fill="#FFD847"/>
<circle cx="54.2305" cy="170.862" r="3" fill="#FFD847"/>
<circle cx="54.2305" cy="154.725" r="3" fill="#FFD847"/>
<circle cx="54.2305" cy="138.587" r="3" fill="#FFD847"/>
<circle cx="54.2305" cy="122.45" r="3" fill="#FFD847"/>
<circle cx="54.2305" cy="106.313" r="3" fill="#FFD847"/>
<circle cx="54.2305" cy="90.1752" r="3" fill="#FFD847"/>
<circle cx="54.2305" cy="74.0379" r="3" fill="#FFD847"/>
<circle cx="54.2305" cy="57.9006" r="3" fill="#FFD847"/>
<circle cx="54.2305" cy="41.7632" r="3" fill="#FFD847"/>
<circle cx="54.2305" cy="25.6259" r="3" fill="#FFD847"/>
<circle cx="54.2305" cy="9.48853" r="3" fill="#FFD847"/>
<circle cx="31.2305" cy="251.549" r="3" fill="#FFD847"/>
<circle cx="31.2305" cy="235.411" r="3" fill="#FFD847"/>
<circle cx="31.2305" cy="219.274" r="3" fill="#FFD847"/>
<circle cx="31.2305" cy="203.137" r="3" fill="#FFD847"/>
<circle cx="31.2305" cy="186.999" r="3" fill="#FFD847"/>
<circle cx="31.2305" cy="170.862" r="3" fill="#FFD847"/>
<circle cx="31.2305" cy="154.725" r="3" fill="#FFD847"/>
<circle cx="31.2305" cy="138.587" r="3" fill="#FFD847"/>
<circle cx="31.2305" cy="122.45" r="3" fill="#FFD847"/>
<circle cx="31.2305" cy="106.313" r="3" fill="#FFD847"/>
<circle cx="31.2305" cy="90.1752" r="3" fill="#FFD847"/>
<circle cx="31.2305" cy="74.0379" r="3" fill="#FFD847"/>
<circle cx="31.2305" cy="57.9006" r="3" fill="#FFD847"/>
<circle cx="31.2305" cy="41.7632" r="3" fill="#FFD847"/>
<circle cx="31.2305" cy="25.6259" r="3" fill="#FFD847"/>
<circle cx="31.2305" cy="9.48853" r="3" fill="#FFD847"/>
<circle cx="8.23047" cy="251.549" r="3" fill="#FFD847"/>
<circle cx="8.23047" cy="235.411" r="3" fill="#FFD847"/>
<circle cx="8.23047" cy="219.274" r="3" fill="#FFD847"/>
<circle cx="8.23047" cy="203.137" r="3" fill="#FFD847"/>
<circle cx="8.23047" cy="186.999" r="3" fill="#FFD847"/>
<circle cx="8.23047" cy="170.862" r="3" fill="#FFD847"/>
<circle cx="8.23047" cy="154.725" r="3" fill="#FFD847"/>
<circle cx="8.23047" cy="138.587" r="3" fill="#FFD847"/>
<circle cx="8.23047" cy="122.45" r="3" fill="#FFD847"/>
<circle cx="8.23047" cy="106.313" r="3" fill="#FFD847"/>
<circle cx="8.23047" cy="90.1752" r="3" fill="#FFD847"/>
<circle cx="8.23047" cy="74.0379" r="3" fill="#FFD847"/>
<circle cx="8.23047" cy="57.9006" r="3" fill="#FFD847"/>
<circle cx="8.23047" cy="41.7632" r="3" fill="#FFD847"/>
<circle cx="8.23047" cy="25.6259" r="3" fill="#FFD847"/>
<circle cx="8.23047" cy="9.48853" r="3" fill="#FFD847"/>
</g>
</svg>
