<svg width="316" height="73" viewBox="0 0 316 73" fill="none" xmlns="http://www.w3.org/2000/svg">
<mask id="mask0_4162_31754" style="mask-type:alpha" maskUnits="userSpaceOnUse" x="0" y="0" width="316" height="142">
<rect x="316" width="141.746" height="315.423" transform="rotate(90 316 0)" fill="#C4C4C4"/>
</mask>
<g mask="url(#mask0_4162_31754)">
<circle cx="107.52" cy="60.1473" r="2.33647" transform="rotate(90 107.52 60.1473)" fill="#FFD847"/>
<circle cx="120.087" cy="60.1473" r="2.33647" transform="rotate(90 120.087 60.1473)" fill="#FFD847"/>
<circle cx="132.656" cy="60.1473" r="2.33647" transform="rotate(90 132.656 60.1473)" fill="#FFD847"/>
<circle cx="145.224" cy="60.1473" r="2.33647" transform="rotate(90 145.224 60.1473)" fill="#FFD847"/>
<circle cx="157.791" cy="60.1473" r="2.33647" transform="rotate(90 157.791 60.1473)" fill="#FFD847"/>
<circle cx="170.36" cy="60.1473" r="2.33647" transform="rotate(90 170.36 60.1473)" fill="#FFD847"/>
<circle cx="182.928" cy="60.1473" r="2.33647" transform="rotate(90 182.928 60.1473)" fill="#FFD847"/>
<circle cx="195.498" cy="60.1473" r="2.33647" transform="rotate(90 195.498 60.1473)" fill="#FFD847"/>
<circle cx="208.065" cy="60.1473" r="2.33647" transform="rotate(90 208.065 60.1473)" fill="#FFD847"/>
<circle cx="220.633" cy="60.1473" r="2.33647" transform="rotate(90 220.633 60.1473)" fill="#FFD847"/>
<circle cx="233.202" cy="60.1473" r="2.33647" transform="rotate(90 233.202 60.1473)" fill="#FFD847"/>
<circle cx="245.769" cy="60.1473" r="2.33647" transform="rotate(90 245.769 60.1473)" fill="#FFD847"/>
<circle cx="258.337" cy="60.1473" r="2.33647" transform="rotate(90 258.337 60.1473)" fill="#FFD847"/>
<circle cx="270.906" cy="60.1473" r="2.33647" transform="rotate(90 270.906 60.1473)" fill="#FFD847"/>
<circle cx="283.473" cy="60.1473" r="2.33647" transform="rotate(90 283.473 60.1473)" fill="#FFD847"/>
<circle cx="296.042" cy="60.1473" r="2.33647" transform="rotate(90 296.042 60.1473)" fill="#FFD847"/>
<circle cx="308.61" cy="60.1473" r="2.33647" transform="rotate(90 308.61 60.1473)" fill="#FFD847"/>
<circle cx="107.52" cy="42.2344" r="2.33647" transform="rotate(90 107.52 42.2344)" fill="#FFD847"/>
<circle cx="120.087" cy="42.2344" r="2.33647" transform="rotate(90 120.087 42.2344)" fill="#FFD847"/>
<circle cx="132.656" cy="42.2344" r="2.33647" transform="rotate(90 132.656 42.2344)" fill="#FFD847"/>
<circle cx="145.224" cy="42.2344" r="2.33647" transform="rotate(90 145.224 42.2344)" fill="#FFD847"/>
<circle cx="157.791" cy="42.2344" r="2.33647" transform="rotate(90 157.791 42.2344)" fill="#FFD847"/>
<circle cx="170.36" cy="42.2344" r="2.33647" transform="rotate(90 170.36 42.2344)" fill="#FFD847"/>
<circle cx="182.928" cy="42.2344" r="2.33647" transform="rotate(90 182.928 42.2344)" fill="#FFD847"/>
<circle cx="195.498" cy="42.2344" r="2.33647" transform="rotate(90 195.498 42.2344)" fill="#FFD847"/>
<circle cx="208.065" cy="42.2344" r="2.33647" transform="rotate(90 208.065 42.2344)" fill="#FFD847"/>
<circle cx="220.633" cy="42.2344" r="2.33647" transform="rotate(90 220.633 42.2344)" fill="#FFD847"/>
<circle cx="233.202" cy="42.2344" r="2.33647" transform="rotate(90 233.202 42.2344)" fill="#FFD847"/>
<circle cx="245.769" cy="42.2344" r="2.33647" transform="rotate(90 245.769 42.2344)" fill="#FFD847"/>
<circle cx="258.337" cy="42.2344" r="2.33647" transform="rotate(90 258.337 42.2344)" fill="#FFD847"/>
<circle cx="270.906" cy="42.2344" r="2.33647" transform="rotate(90 270.906 42.2344)" fill="#FFD847"/>
<circle cx="283.473" cy="42.2344" r="2.33647" transform="rotate(90 283.473 42.2344)" fill="#FFD847"/>
<circle cx="296.042" cy="42.2344" r="2.33647" transform="rotate(90 296.042 42.2344)" fill="#FFD847"/>
<circle cx="308.61" cy="42.2344" r="2.33647" transform="rotate(90 308.61 42.2344)" fill="#FFD847"/>
<circle cx="107.52" cy="24.3221" r="2.33647" transform="rotate(90 107.52 24.3221)" fill="#FFD847"/>
<circle cx="120.087" cy="24.3221" r="2.33647" transform="rotate(90 120.087 24.3221)" fill="#FFD847"/>
<circle cx="132.656" cy="24.3221" r="2.33647" transform="rotate(90 132.656 24.3221)" fill="#FFD847"/>
<circle cx="145.224" cy="24.3221" r="2.33647" transform="rotate(90 145.224 24.3221)" fill="#FFD847"/>
<circle cx="157.791" cy="24.3221" r="2.33647" transform="rotate(90 157.791 24.3221)" fill="#FFD847"/>
<circle cx="170.36" cy="24.3221" r="2.33647" transform="rotate(90 170.36 24.3221)" fill="#FFD847"/>
<circle cx="182.928" cy="24.3221" r="2.33647" transform="rotate(90 182.928 24.3221)" fill="#FFD847"/>
<circle cx="195.498" cy="24.3221" r="2.33647" transform="rotate(90 195.498 24.3221)" fill="#FFD847"/>
<circle cx="208.065" cy="24.3221" r="2.33647" transform="rotate(90 208.065 24.3221)" fill="#FFD847"/>
<circle cx="220.633" cy="24.3221" r="2.33647" transform="rotate(90 220.633 24.3221)" fill="#FFD847"/>
<circle cx="233.202" cy="24.3221" r="2.33647" transform="rotate(90 233.202 24.3221)" fill="#FFD847"/>
<circle cx="245.769" cy="24.3221" r="2.33647" transform="rotate(90 245.769 24.3221)" fill="#FFD847"/>
<circle cx="258.337" cy="24.3221" r="2.33647" transform="rotate(90 258.337 24.3221)" fill="#FFD847"/>
<circle cx="270.906" cy="24.3221" r="2.33647" transform="rotate(90 270.906 24.3221)" fill="#FFD847"/>
<circle cx="283.473" cy="24.3221" r="2.33647" transform="rotate(90 283.473 24.3221)" fill="#FFD847"/>
<circle cx="296.042" cy="24.3221" r="2.33647" transform="rotate(90 296.042 24.3221)" fill="#FFD847"/>
<circle cx="308.61" cy="24.3221" r="2.33647" transform="rotate(90 308.61 24.3221)" fill="#FFD847"/>
<circle cx="107.52" cy="6.408" r="2.33647" transform="rotate(90 107.52 6.408)" fill="#FFD847"/>
<circle cx="120.087" cy="6.408" r="2.33647" transform="rotate(90 120.087 6.408)" fill="#FFD847"/>
<circle cx="132.656" cy="6.408" r="2.33647" transform="rotate(90 132.656 6.408)" fill="#FFD847"/>
<circle cx="145.224" cy="6.408" r="2.33647" transform="rotate(90 145.224 6.408)" fill="#FFD847"/>
<circle cx="157.791" cy="6.408" r="2.33647" transform="rotate(90 157.791 6.408)" fill="#FFD847"/>
<circle cx="170.36" cy="6.408" r="2.33647" transform="rotate(90 170.36 6.408)" fill="#FFD847"/>
<circle cx="182.928" cy="6.408" r="2.33647" transform="rotate(90 182.928 6.408)" fill="#FFD847"/>
<circle cx="195.498" cy="6.408" r="2.33647" transform="rotate(90 195.498 6.408)" fill="#FFD847"/>
<circle cx="208.065" cy="6.408" r="2.33647" transform="rotate(90 208.065 6.408)" fill="#FFD847"/>
<circle cx="220.633" cy="6.408" r="2.33647" transform="rotate(90 220.633 6.408)" fill="#FFD847"/>
<circle cx="233.202" cy="6.408" r="2.33647" transform="rotate(90 233.202 6.408)" fill="#FFD847"/>
<circle cx="245.769" cy="6.408" r="2.33647" transform="rotate(90 245.769 6.408)" fill="#FFD847"/>
<circle cx="258.337" cy="6.408" r="2.33647" transform="rotate(90 258.337 6.408)" fill="#FFD847"/>
<circle cx="270.906" cy="6.408" r="2.33647" transform="rotate(90 270.906 6.408)" fill="#FFD847"/>
<circle cx="283.473" cy="6.408" r="2.33647" transform="rotate(90 283.473 6.408)" fill="#FFD847"/>
<circle cx="296.042" cy="6.408" r="2.33647" transform="rotate(90 296.042 6.408)" fill="#FFD847"/>
<circle cx="308.61" cy="6.408" r="2.33647" transform="rotate(90 308.61 6.408)" fill="#FFD847"/>
<circle cx="7.61568" cy="60.147" r="2.33647" transform="rotate(90 7.61568 60.147)" fill="#FFD847"/>
<circle cx="20.184" cy="60.147" r="2.33647" transform="rotate(90 20.184 60.147)" fill="#FFD847"/>
<circle cx="32.7514" cy="60.147" r="2.33647" transform="rotate(90 32.7514 60.147)" fill="#FFD847"/>
<circle cx="45.3198" cy="60.147" r="2.33647" transform="rotate(90 45.3198 60.147)" fill="#FFD847"/>
<circle cx="57.8881" cy="60.147" r="2.33647" transform="rotate(90 57.8881 60.147)" fill="#FFD847"/>
<circle cx="70.4555" cy="60.147" r="2.33647" transform="rotate(90 70.4555 60.147)" fill="#FFD847"/>
<circle cx="83.0249" cy="60.147" r="2.33647" transform="rotate(90 83.0249 60.147)" fill="#FFD847"/>
<circle cx="95.5922" cy="60.147" r="2.33647" transform="rotate(90 95.5922 60.147)" fill="#FFD847"/>
<circle cx="7.61568" cy="42.2342" r="2.33647" transform="rotate(90 7.61568 42.2342)" fill="#FFD847"/>
<circle cx="20.184" cy="42.2342" r="2.33647" transform="rotate(90 20.184 42.2342)" fill="#FFD847"/>
<circle cx="32.7514" cy="42.2342" r="2.33647" transform="rotate(90 32.7514 42.2342)" fill="#FFD847"/>
<circle cx="45.3198" cy="42.2342" r="2.33647" transform="rotate(90 45.3198 42.2342)" fill="#FFD847"/>
<circle cx="57.8881" cy="42.2342" r="2.33647" transform="rotate(90 57.8881 42.2342)" fill="#FFD847"/>
<circle cx="70.4555" cy="42.2342" r="2.33647" transform="rotate(90 70.4555 42.2342)" fill="#FFD847"/>
<circle cx="83.0249" cy="42.2342" r="2.33647" transform="rotate(90 83.0249 42.2342)" fill="#FFD847"/>
<circle cx="95.5922" cy="42.2342" r="2.33647" transform="rotate(90 95.5922 42.2342)" fill="#FFD847"/>
<circle cx="7.61568" cy="24.3218" r="2.33647" transform="rotate(90 7.61568 24.3218)" fill="#FFD847"/>
<circle cx="20.184" cy="24.3218" r="2.33647" transform="rotate(90 20.184 24.3218)" fill="#FFD847"/>
<circle cx="32.7514" cy="24.3218" r="2.33647" transform="rotate(90 32.7514 24.3218)" fill="#FFD847"/>
<circle cx="45.3198" cy="24.3218" r="2.33647" transform="rotate(90 45.3198 24.3218)" fill="#FFD847"/>
<circle cx="57.8881" cy="24.3218" r="2.33647" transform="rotate(90 57.8881 24.3218)" fill="#FFD847"/>
<circle cx="70.4555" cy="24.3218" r="2.33647" transform="rotate(90 70.4555 24.3218)" fill="#FFD847"/>
<circle cx="83.0249" cy="24.3218" r="2.33647" transform="rotate(90 83.0249 24.3218)" fill="#FFD847"/>
<circle cx="95.5922" cy="24.3218" r="2.33647" transform="rotate(90 95.5922 24.3218)" fill="#FFD847"/>
<circle cx="7.61568" cy="6.408" r="2.33647" transform="rotate(90 7.61568 6.408)" fill="#FFD847"/>
<circle cx="20.184" cy="6.408" r="2.33647" transform="rotate(90 20.184 6.408)" fill="#FFD847"/>
<circle cx="32.7514" cy="6.408" r="2.33647" transform="rotate(90 32.7514 6.408)" fill="#FFD847"/>
<circle cx="45.3198" cy="6.408" r="2.33647" transform="rotate(90 45.3198 6.408)" fill="#FFD847"/>
<circle cx="57.8881" cy="6.408" r="2.33647" transform="rotate(90 57.8881 6.408)" fill="#FFD847"/>
<circle cx="70.4555" cy="6.408" r="2.33647" transform="rotate(90 70.4555 6.408)" fill="#FFD847"/>
<circle cx="83.0249" cy="6.408" r="2.33647" transform="rotate(90 83.0249 6.408)" fill="#FFD847"/>
<circle cx="95.5922" cy="6.408" r="2.33647" transform="rotate(90 95.5922 6.408)" fill="#FFD847"/>
</g>
</svg>
