<svg width="15" height="15" viewBox="0 0 15 15" fill="none" xmlns="http://www.w3.org/2000/svg">
<path d="M1.16562 14.2978V5.41974H3.95586V14.2978H1.16562ZM2.56074 0.980713C3.44855 0.980713 4.14611 1.67827 4.14611 2.56608C4.14611 3.45388 3.44855 4.15144 2.56074 4.15144C1.67294 4.15144 0.975379 3.45388 0.975379 2.56608C0.911964 1.67827 1.67294 0.980713 2.56074 0.980713Z" fill="#F20024"/>
<path d="M8.39486 5.41974V6.62461C8.90217 5.92705 9.66315 5.16608 10.9949 5.16608C13.7851 5.16608 14.2924 7.0051 14.2924 9.41486V14.2978H11.5022V9.98559C11.5022 8.97096 11.5022 7.63925 10.0436 7.63925C8.58511 7.63925 8.39486 8.78071 8.39486 9.92218V14.3612H5.60462V5.41974H8.39486Z" fill="#F20024"/>
</svg>
