<svg width="26" height="26" viewBox="0 0 26 26" fill="none" xmlns="http://www.w3.org/2000/svg">
<path d="M7.16562 19.0244V10.1463H9.95586V19.0244H7.16562ZM8.56074 5.70728C9.44855 5.70728 10.1461 6.40484 10.1461 7.29264C10.1461 8.18045 9.44855 8.87801 8.56074 8.87801C7.67294 8.87801 6.97538 8.18045 6.97538 7.29264C6.91196 6.40484 7.67294 5.70728 8.56074 5.70728Z" fill="white"/>
<path d="M14.3949 10.1463V11.3512C14.9022 10.6536 15.6632 9.89264 16.9949 9.89264C19.7851 9.89264 20.2924 11.7317 20.2924 14.1414V19.0244H17.5022V14.7122C17.5022 13.6975 17.5022 12.3658 16.0436 12.3658C14.5851 12.3658 14.3949 13.5073 14.3949 14.6487V19.0878H11.6046V10.1463H14.3949Z" fill="white"/>
</svg>
