<svg width="19" height="19" viewBox="0 0 19 19" fill="none" xmlns="http://www.w3.org/2000/svg">
<path d="M0.646333 18.6098V6.65853H4.40243V18.6098H0.646333ZM2.52438 0.682922C3.7195 0.682922 4.65853 1.62195 4.65853 2.81707C4.65853 4.01219 3.7195 4.95121 2.52438 4.95121C1.32926 4.95121 0.390234 4.01219 0.390234 2.81707C0.304868 1.62195 1.32926 0.682922 2.52438 0.682922Z" fill="black"/>
<path d="M10.378 6.65853V8.28048C11.0609 7.34146 12.0853 6.31707 13.878 6.31707C17.6341 6.31707 18.317 8.79268 18.317 12.0366V18.6098H14.5609V12.8049C14.5609 11.439 14.5609 9.64634 12.5975 9.64634C10.6341 9.64634 10.378 11.1829 10.378 12.7195V18.6951H6.6219V6.65853H10.378Z" fill="black"/>
</svg>
