<svg width="18" height="18" viewBox="0 0 18 18" fill="none" xmlns="http://www.w3.org/2000/svg">
<path d="M14.5902 18C14.4037 18 10.1147 17.9201 4.86676 13.153C-0.434484 8.35919 -0.0082532 3.48552 0.0183862 3.27247C0.0183862 3.13931 0.0983045 3.03278 0.178223 2.95288L2.73561 0.476099C3.40159 -0.16307 4.44053 -0.16307 5.07988 0.502731L7.55734 2.97951C8.22333 3.64531 8.22333 4.7106 7.55734 5.34977L6.49177 6.41505C6.30529 6.60147 6.25201 6.89443 6.38521 7.13412C6.73152 7.79992 7.34423 8.75867 8.19669 9.69079C9.12907 10.7028 10.4344 11.4751 11.1537 11.848C11.3934 11.9812 11.6865 11.9279 11.8729 11.7415L12.8586 10.7561C13.1783 10.4365 13.6045 10.2767 14.0574 10.2767C14.5102 10.2767 14.9365 10.4631 15.2561 10.7561L17.5205 13.0198C17.8402 13.3394 18 13.7655 18 14.2182C18 14.671 17.8135 15.0971 17.5205 15.4167L15.0164 17.9201C14.8565 17.9467 14.7234 18 14.5902 18ZM1.05732 3.56542C1.05732 4.44428 1.27044 8.43909 5.58603 12.3806C9.84834 16.2423 13.4979 16.8282 14.377 16.9347L16.6947 14.6177C16.8012 14.5112 16.8811 14.3514 16.8811 14.1916C16.8811 14.0318 16.8279 13.872 16.6947 13.7655L14.4303 11.5018C14.1906 11.2621 13.791 11.2621 13.5512 11.5018L12.5656 12.4872C12.0328 13.0198 11.2602 13.1263 10.5942 12.7801C9.66186 12.3007 8.32989 11.4751 7.34423 10.3832C6.43849 9.37121 5.79914 8.33256 5.39955 7.61349C5.05324 6.97432 5.1598 6.14873 5.69258 5.61609L6.75816 4.55081C6.99792 4.31112 6.99792 3.91164 6.75816 3.67195L4.28069 1.19517C4.04094 0.955476 3.66799 0.955476 3.42823 1.19517L1.05732 3.56542Z" fill="#F20024"/>
</svg>
