<svg width="85" height="89" viewBox="0 0 85 89" fill="none" xmlns="http://www.w3.org/2000/svg">
<path d="M41.1394 38.9924C44.8495 38.9924 47.857 35.9117 47.857 32.1114C47.857 28.3111 44.8495 25.2303 41.1394 25.2303C37.4294 25.2303 34.4219 28.3111 34.4219 32.1114C34.4219 35.9117 37.4294 38.9924 41.1394 38.9924Z" stroke="#7BB9B3" stroke-width="2" stroke-linecap="round" stroke-linejoin="round"/>
<path d="M47.7895 87.1725V47.2535H47.8826C50.9265 46.0076 53.6911 44.4774 55.8103 43.1772C58.4073 41.5831 59.9773 38.6985 59.9773 35.5966V23.1634C59.9773 21.2626 58.4725 19.7229 56.617 19.7229C54.7615 19.7229 53.2567 21.2626 53.2567 23.1634V32.7502C53.2567 35.0663 51.8014 37.1427 49.6357 37.8104C47.6375 38.4269 44.8139 38.9924 41.1619 38.9924C35.2263 38.9924 29.0703 41.7461 29.0703 50.004V54.8629C29.0703 57.9232 30.2556 60.8558 32.3686 63.0185L34.4444 65.1461V87.1693" stroke="#7BB9B3" stroke-width="2" stroke-linecap="round" stroke-linejoin="round"/>
<path d="M41.1055 87.1727V66.5231" stroke="#7BB9B3" stroke-width="2" stroke-linecap="round" stroke-linejoin="round"/>
<path d="M11.7449 38.9924C15.4549 38.9924 18.4625 35.9117 18.4625 32.1114C18.4625 28.3111 15.4549 25.2303 11.7449 25.2303C8.0349 25.2303 5.02734 28.3111 5.02734 32.1114C5.02734 35.9117 8.0349 38.9924 11.7449 38.9924Z" stroke="#7BB9B3" stroke-width="2" stroke-linecap="round" stroke-linejoin="round"/>
<path d="M5.00882 87.1728V65.1496L3.63738 63.022C1.94946 60.8593 1 57.9235 1 54.8664V50.0075C1 41.7496 5.92415 38.9958 10.6745 38.9958H12.8248C17.5752 38.9958 22.4993 41.7496 22.4993 50.0075V54.8664C22.4993 57.9267 21.5499 60.8593 19.8619 63.022L18.3819 65.1496V87.1728" stroke="#7BB9B3" stroke-width="2" stroke-linecap="round" stroke-linejoin="round"/>
<path d="M11.7461 87.1727V66.5231" stroke="#7BB9B3" stroke-width="2" stroke-linecap="round" stroke-linejoin="round"/>
<path d="M73.2488 38.9924C76.9588 38.9924 79.9664 35.9117 79.9664 32.1114C79.9664 28.3111 76.9588 25.2303 73.2488 25.2303C69.5388 25.2303 66.5312 28.3111 66.5312 32.1114C66.5312 35.9117 69.5388 38.9924 73.2488 38.9924Z" stroke="#7BB9B3" stroke-width="2" stroke-linecap="round" stroke-linejoin="round"/>
<path d="M66.5088 87.1728V65.1496L65.1374 63.022C63.4495 60.8593 62.5 57.9235 62.5 54.8664V50.0075C62.5 41.7496 67.4241 38.9958 72.1745 38.9958H74.3248C79.0752 38.9958 83.9993 41.7496 83.9993 50.0075V54.8664C83.9993 57.9267 83.0499 60.8593 81.3619 63.022L79.8819 65.1496V87.1728" stroke="#7BB9B3" stroke-width="2" stroke-linecap="round" stroke-linejoin="round"/>
<path d="M73.25 87.1727V66.5231" stroke="#7BB9B3" stroke-width="2" stroke-linecap="round" stroke-linejoin="round"/>
<path d="M21.1523 12.8388V5.95775C21.1523 3.67684 22.9582 1.8272 25.1829 1.8272H45.3387C47.5634 1.8272 49.3692 3.67684 49.3692 5.95775V12.8388C49.3692 15.1197 47.5634 16.9694 45.3387 16.9694H29.2134L30.5569 25.2273L24.2117 19.656C22.2694 17.9501 21.1523 15.4615 21.1523 12.8388V12.8388Z" stroke="#7BB9B3" stroke-width="2" stroke-linecap="round" stroke-linejoin="round"/>
</svg>
