<svg width="93" height="91" viewBox="0 0 93 91" fill="none" xmlns="http://www.w3.org/2000/svg">
<path d="M68.9492 47.4971C68.9492 47.4971 81.2779 52.3612 83.3939 54.3842C87.9866 58.7677 89.2169 69.7299 89.2169 75.7793C89.2169 80.8123 91.7129 86.683 91.7129 86.683" stroke="#EB6619" stroke-width="2" stroke-linecap="round" stroke-linejoin="round"/>
<path d="M76.815 61.5082C73.6652 57.9169 70.7795 58.0338 68.4316 55.7251C63.8615 51.2279 64.293 51.5526 60.1029 47.4678C57.6134 45.0422 55.9257 43.6167 53.4297 45.2922C51.3331 46.7015 51.5553 48.5166 52.6149 50.822C53.9064 53.634 60.7632 62.622 62.206 64.7326C62.5152 65.1872 62.702 65.7067 62.7407 66.2555C62.9532 69.2298 63.7455 77.6593 75.0758 80.8089" stroke="#EB6619" stroke-width="2" stroke-linecap="round" stroke-linejoin="round"/>
<path d="M63.9805 84.0689C67.156 85.5301 68.2285 89.037 68.2285 89.037" stroke="#EB6619" stroke-width="2" stroke-linecap="round" stroke-linejoin="round"/>
<path d="M59.9084 78.0489C59.9084 78.0489 17.7306 78.0489 4.92842 78.0489C2.91228 78.0489 1.28906 76.3994 1.28906 74.3667V6.09984C1.28906 3.81389 3.12484 1.96304 5.39219 1.96304H59.0968C61.3642 1.96304 63.2 3.81389 63.2 6.09984V41.9932" stroke="#EB6619" stroke-width="2" stroke-linecap="round" stroke-linejoin="round"/>
<path d="M14.4023 16.8381H50.0841" stroke="#EB6619" stroke-width="2" stroke-linecap="round" stroke-linejoin="round"/>
<path d="M14.4023 26.1897H50.0841" stroke="#EB6619" stroke-width="2" stroke-linecap="round" stroke-linejoin="round"/>
<path d="M14.4023 35.5413H30.7569" stroke="#EB6619" stroke-width="2" stroke-linecap="round" stroke-linejoin="round"/>
<path d="M14.4023 60.0147V65.3172" stroke="#EB6619" stroke-width="2" stroke-linecap="round" stroke-linejoin="round"/>
<path d="M21.4375 51.8935V65.317" stroke="#EB6619" stroke-width="2" stroke-linecap="round" stroke-linejoin="round"/>
<path d="M28.4727 55.6408V65.3171" stroke="#EB6619" stroke-width="2" stroke-linecap="round" stroke-linejoin="round"/>
<path d="M35.5039 47.5196V65.3169" stroke="#EB6619" stroke-width="2" stroke-linecap="round" stroke-linejoin="round"/>
<path d="M42.5352 41.8242V65.3169" stroke="#EB6619" stroke-width="2" stroke-linecap="round" stroke-linejoin="round"/>
<path d="M40.1526 1.96304H24.3359V6.81745H40.1526V1.96304Z" stroke="#EB6619" stroke-width="2" stroke-linecap="round" stroke-linejoin="round"/>
</svg>
