<svg width="97" height="89" viewBox="0 0 97 89" fill="none" xmlns="http://www.w3.org/2000/svg">
<path d="M59.0038 48.5734C53.367 48.5734 48.7969 43.9595 48.7969 38.2613C48.7969 32.5631 53.367 27.9492 59.0038 27.9492C64.6407 27.9492 69.2108 32.5663 69.2108 38.2613C69.2108 43.9563 64.6407 48.5734 59.0038 48.5734V48.5734Z" stroke="#EB6619" stroke-width="2" stroke-linecap="round" stroke-linejoin="round"/>
<path d="M60.8106 63.8706L57.2396 76.563L55.6281 82.2937L54.1875 87.4189H84.1638L85.801 81.6002L87.2868 76.3155L90.7869 63.8706H60.8106Z" stroke="#EB6619" stroke-width="2" stroke-linecap="round" stroke-linejoin="round"/>
<path d="M58.6516 71.363H50.8328C50.1947 71.363 49.6758 70.8388 49.6758 70.1941V65.9123" stroke="#EB6619" stroke-width="2" stroke-linecap="round" stroke-linejoin="round"/>
<path d="M73.8484 57.3877C71.9115 55.5546 69.3073 54.4344 66.4422 54.4344H51.5684C45.5803 54.4344 40.7266 59.3382 40.7266 65.388V74.0721C40.7266 77.5399 43.5079 80.3499 46.9403 80.3499H56.174" stroke="#EB6619" stroke-width="2" stroke-linecap="round" stroke-linejoin="round"/>
<path d="M54.1867 87.4189H42.4102" stroke="#EB6619" stroke-width="2" stroke-linecap="round" stroke-linejoin="round"/>
<path d="M36.1578 87.5296C16.9009 87.5296 1.28906 71.7569 1.28906 52.3016C1.28906 32.8463 16.9009 17.0704 36.1578 17.0704C42.7164 17.0704 48.8496 18.9003 54.09 22.0783C54.4703 22.3095 54.8474 22.5504 55.2213 22.7946" stroke="#EB6619" stroke-width="2" stroke-linecap="round" stroke-linejoin="round"/>
<path d="M46.5754 18.669C45.6762 21.0102 40.8838 23.3709 38.5697 22.6741C35.6336 21.7884 36.694 17.6043 33.7031 17.1582" stroke="#EB6619" stroke-width="2" stroke-linecap="round" stroke-linejoin="round"/>
<path d="M24.6105 19.0503C25.616 22.4855 31.7621 25.8556 29.5319 27.8678C27.8366 29.395 25.0327 26.8682 18.0293 31.5082C14.1296 34.0935 16.7143 34.8457 12.415 36.6301C10.8583 37.3366 9.19851 38.8051 10.2331 40.0653C11.3353 41.41 12.5181 39.7755 13.9523 40.977C15.1673 41.9962 13.5075 44.2331 15.5638 45.5258C16.5467 46.1444 18.4579 45.3076 19.7471 45.5453C23.6984 46.2747 23.6855 50.7974 26.6796 52.7576C31.3109 55.7891 34.0117 54.9034 29.3063 61.4482C27.5465 63.8968 21.9129 68.4196 21.2039 70.9724C20.6689 72.9 23.4567 79.4155 18.6352 75.5212C14.281 72.0046 17.9165 64.7727 16.8787 60.53C16.2277 57.8763 12.502 56.9287 11.7511 54.4378C11.2676 52.839 12.3956 52.6567 12.6857 51.1914C13.2594 48.2837 4.71544 45.2197 3.41016 40.1857" stroke="#EB6619" stroke-width="2" stroke-linecap="round" stroke-linejoin="round"/>
<path d="M90.9682 1.4704H70.5768C67.9566 1.4704 65.8359 3.61618 65.8359 6.26015V18.6236C65.8359 21.2709 67.9598 23.4134 70.5768 23.4134H73.5903C73.9093 23.4134 74.1672 23.6739 74.1672 23.9962V30.248C74.1672 30.769 74.7892 31.0262 75.1534 30.6615L82.1568 23.586C82.2663 23.4753 82.4114 23.4167 82.5661 23.4167H90.9714C93.5917 23.4167 95.7123 21.2709 95.7123 18.6269V6.26015C95.7123 3.61293 93.5884 1.4704 90.9714 1.4704H90.9682Z" stroke="#EB6619" stroke-width="2" stroke-linecap="round" stroke-linejoin="round"/>
<path d="M75.3047 12.5121H86.2368" stroke="#EB6619" stroke-width="2" stroke-linecap="round" stroke-linejoin="round"/>
</svg>
