<svg width="85" height="87" viewBox="0 0 85 87" fill="none" xmlns="http://www.w3.org/2000/svg">
<path d="M53.9823 30.2056L53.4883 29.7102" stroke="#2A4A52" stroke-width="2" stroke-linecap="round" stroke-linejoin="round"/>
<path d="M50.7148 26.9796C50.7697 27.028 50.8311 27.0636 50.8827 27.1153L53.4883 29.7098" stroke="#2A4A52" stroke-width="2" stroke-linecap="round" stroke-linejoin="round"/>
<path d="M53.9844 30.2046L54.0062 30.228" stroke="#2A4A52" stroke-width="2" stroke-linecap="round" stroke-linejoin="round"/>
<path d="M30.9961 56.802V56.805L31.0081 56.8171" stroke="#2A4A52" stroke-width="2" stroke-linecap="round" stroke-linejoin="round"/>
<path d="M31.5219 57.3205L31.0117 56.8185" stroke="#2A4A52" stroke-width="2" stroke-linecap="round" stroke-linejoin="round"/>
<path d="M56.3984 32.6082L66.598 42.7633C66.7498 42.9151 66.8822 43.0767 67.0275 43.235" stroke="#2A4A52" stroke-width="2" stroke-linecap="round" stroke-linejoin="round"/>
<path d="M34.2898 60.0494L31.5195 57.3192" stroke="#2A4A52" stroke-width="2" stroke-linecap="round" stroke-linejoin="round"/>
<path d="M34.2891 60.0493L38.1345 63.8425L40.2267 65.9266C41.0049 66.6988 41.8637 67.3676 42.7807 67.933" stroke="#2A4A52" stroke-width="2" stroke-linecap="round" stroke-linejoin="round"/>
<path d="M28.6056 54.421L18.406 44.2659C18.2542 44.1141 18.1219 43.9525 17.9766 43.7942" stroke="#2A4A52" stroke-width="2" stroke-linecap="round" stroke-linejoin="round"/>
<path d="M28.6055 54.421L30.998 56.8023" stroke="#2A4A52" stroke-width="2" stroke-linecap="round" stroke-linejoin="round"/>
<path d="M17.9778 43.7943C15.5595 41.161 14.197 37.7264 14.197 34.1432L9.23438 29.2029" stroke="#2A4A52" stroke-width="2" stroke-linecap="round" stroke-linejoin="round"/>
<path d="M30.9961 56.802L31.0081 56.8171" stroke="#2A4A52" stroke-width="2" stroke-linecap="round" stroke-linejoin="round"/>
<path d="M31.5156 57.3192L34.1212 59.9137C34.1729 59.9654 34.2342 60.001 34.2891 60.0494" stroke="#2A4A52" stroke-width="2" stroke-linecap="round" stroke-linejoin="round"/>
<path d="M31.5186 57.3205L31.0117 56.8185" stroke="#2A4A52" stroke-width="2" stroke-linecap="round" stroke-linejoin="round"/>
<path d="M27.1016 13.3867L31.0729 17.3415L33.3008 17.096C36.4456 16.747 39.5839 17.474 42.225 19.0992" stroke="#2A4A52" stroke-width="2" stroke-linecap="round" stroke-linejoin="round"/>
<path d="M53.4844 29.7102L53.9848 30.2056" stroke="#2A4A52" stroke-width="2" stroke-linecap="round" stroke-linejoin="round"/>
<path d="M53.4819 29.7098L50.7148 26.9796" stroke="#2A4A52" stroke-width="2" stroke-linecap="round" stroke-linejoin="round"/>
<path d="M42.2188 19.0961C43.1357 19.6616 43.9946 20.3272 44.7727 21.1026L46.8649 23.1866L50.7104 26.9798" stroke="#2A4A52" stroke-width="2" stroke-linecap="round" stroke-linejoin="round"/>
<path d="M56.9128 33.1222L54.007 30.2272L53.9844 30.2046" stroke="#2A4A52" stroke-width="2" stroke-linecap="round" stroke-linejoin="round"/>
<path d="M1.29297 25.248L7.25001 31.1769L9.23246 29.1995" stroke="#2A4A52" stroke-width="2" stroke-linecap="round" stroke-linejoin="round"/>
<path d="M9.23438 29.1995L28.0935 10.4208L22.1397 4.49182" stroke="#2A4A52" stroke-width="2" stroke-linecap="round" stroke-linejoin="round"/>
<path d="M72.7616 28.1785L68.7902 32.1332L69.0389 34.353C69.3876 37.487 68.6579 40.6082 67.0273 43.2383" stroke="#2A4A52" stroke-width="2" stroke-linecap="round" stroke-linejoin="round"/>
<path d="M56.8779 10.3884L51.9154 15.3286C48.3153 15.3286 44.867 16.6857 42.2227 19.096" stroke="#2A4A52" stroke-width="2" stroke-linecap="round" stroke-linejoin="round"/>
<path d="M31.5156 57.3192H31.5216" stroke="#2A4A52" stroke-width="2" stroke-linecap="round" stroke-linejoin="round"/>
<path d="M56.8802 10.3885L54.8945 8.41114L61.3617 1.97171" stroke="#2A4A52" stroke-width="2" stroke-linecap="round" stroke-linejoin="round"/>
<path d="M56.8789 10.3884L75.738 29.1671L82.2052 22.7277" stroke="#2A4A52" stroke-width="2" stroke-linecap="round" stroke-linejoin="round"/>
<path d="M53.4844 29.7102H53.4904" stroke="#2A4A52" stroke-width="2" stroke-linecap="round" stroke-linejoin="round"/>
<path d="M12.2461 58.8505L16.2175 54.8957L15.9688 52.676C15.6201 49.5419 16.3498 46.4208 17.9803 43.7907" stroke="#2A4A52" stroke-width="2" stroke-linecap="round" stroke-linejoin="round"/>
<path d="M42.7842 67.9327C40.1398 70.3399 36.6915 71.7001 33.0915 71.7001L28.1289 76.6404" stroke="#2A4A52" stroke-width="2" stroke-linecap="round" stroke-linejoin="round"/>
<path d="M28.1254 76.6405L9.26302 57.8618L2.82812 64.2722" stroke="#2A4A52" stroke-width="2" stroke-linecap="round" stroke-linejoin="round"/>
<path d="M28.1282 76.6405L30.1107 78.6179L23.6758 85.0282" stroke="#2A4A52" stroke-width="2" stroke-linecap="round" stroke-linejoin="round"/>
<path d="M75.7693 57.8327L70.8067 52.8892C70.8067 49.0928 69.2925 45.4514 66.5965 42.7664L50.8821 27.1186C49.5519 25.7939 47.3951 25.7939 46.0681 27.1186L46.0067 27.18C44.6248 28.5564 44.6216 30.7664 45.9906 32.1299C49.3485 35.474 54.9278 41.0281 54.9278 41.0281L41.4542 27.6097C40.124 26.285 37.9672 26.285 36.6401 27.6097L36.5788 27.6711C35.1969 29.0475 35.1872 31.2543 36.5594 32.6178C40.5534 36.5952 47.9827 43.991 47.9827 43.991L34.5834 30.6468C33.2144 29.2834 30.9898 29.2834 29.6208 30.6468C28.2519 32.0103 28.2519 34.2236 29.6208 35.5871L43.0201 48.9312L31.5323 37.4902C30.202 36.1654 28.0452 36.1654 26.7182 37.4902L26.6569 37.5516C25.275 38.928 25.2717 41.138 26.6407 42.5047C31.9649 47.8068 44.0146 59.8036 44.0146 59.8036L36.7273 52.55C35.2679 51.0992 32.9045 51.0992 31.4483 52.55L30.9963 52.9991C29.9405 54.0492 29.9437 55.7551 31.006 56.802L38.1447 63.8424L40.237 65.9264C43.2526 68.928 47.4758 70.4046 51.7119 69.9361L53.9398 69.6906L57.9111 73.6453" stroke="#2A4A52" stroke-width="2" stroke-linecap="round" stroke-linejoin="round"/>
<path d="M62.864 82.5404L56.9102 76.6114L77.7517 55.8553L83.7088 61.7843" stroke="#2A4A52" stroke-width="2" stroke-linecap="round" stroke-linejoin="round"/>
</svg>
