<svg width="120" height="120" viewBox="0 0 120 120" fill="none" xmlns="http://www.w3.org/2000/svg">
<path d="M10 59.9995C10 46.7387 15.2678 34.0211 24.6446 24.6443C34.0214 15.2675 46.7392 9.99951 60 9.99951C73.2608 9.99951 85.9786 15.2675 95.3554 24.6443C104.732 34.0211 110 46.7387 110 59.9995C110 73.2603 104.732 85.9779 95.3554 95.3547C85.9786 104.732 73.2608 110 60 110C46.7392 110 34.0214 104.732 24.6446 95.3547C15.2678 85.9779 10 73.2603 10 59.9995ZM14.545 59.9995C14.545 72.0549 19.334 83.6165 27.8584 92.1409C36.3829 100.665 47.9446 105.455 60 105.455C72.0554 105.455 83.6171 100.665 92.1416 92.1409C100.666 83.6165 105.455 72.0549 105.455 59.9995C105.455 47.9441 100.666 36.3826 92.1416 27.8581C83.6171 19.3336 72.0554 14.5445 60 14.5445C47.9446 14.5445 36.3829 19.3336 27.8584 27.8581C19.334 36.3826 14.545 47.9441 14.545 59.9995ZM50.91 74.4096C50.8238 74.0818 50.8238 73.7373 50.91 73.4095V46.8644C50.8908 46.6196 50.9202 46.3734 50.9966 46.1399C51.0729 45.9065 51.1947 45.6907 51.355 45.5046C51.6803 45.1304 52.1405 44.9003 52.635 44.8646C52.9475 44.7784 53.2775 44.7784 53.5899 44.8646L77.1401 57.9994C77.3904 58.1682 77.604 58.3859 77.7681 58.6393C77.9322 58.8928 78.0434 59.1771 78.095 59.4746C78.1457 59.7729 78.135 60.0781 78.0637 60.3721C77.9923 60.6661 77.8619 60.9427 77.6801 61.1845C77.5011 61.4557 77.2698 61.6886 77 61.8696L53.405 75.2296C53.1446 75.3614 52.8568 75.4298 52.565 75.4295C52.2219 75.4287 51.8857 75.333 51.5936 75.153C51.3016 74.973 51.065 74.7157 50.91 74.4096Z" fill="white"/>
</svg>
