<svg width="320" height="640" viewBox="0 0 320 640" fill="none" xmlns="http://www.w3.org/2000/svg">
<g clip-path="url(#clip0_737_18775)">
<mask id="mask0_737_18775" style="mask-type:alpha" maskUnits="userSpaceOnUse" x="0" y="0" width="320" height="640">
<rect width="320" height="640" fill="#C4C4C4"/>
</mask>
<g mask="url(#mask0_737_18775)">
<path d="M161 309L320 145V309H161Z" fill="#262626"/>
<path d="M161 309L0 143V309H161Z" fill="#262626"/>
<rect y="306" width="320" height="410" fill="#262626"/>
</g>
<g opacity="0.5">
<mask id="mask1_737_18775" style="mask-type:alpha" maskUnits="userSpaceOnUse" x="0" y="0" width="320" height="376">
<rect width="320" height="376" fill="#C4C4C4"/>
</mask>
<g mask="url(#mask1_737_18775)">
<path d="M160 170.465V254C206.595 200.734 307.476 92.0133 360 39.3221V0H323.107C256.369 65.1828 217.686 104.033 160 170.465Z" fill="#F20024"/>
<path d="M161 252.705V310C213.054 252.705 336.09 128.752 394 67.2887V35H363.811C309.199 88.5237 208.204 198.156 161 252.705Z" fill="#990017"/>
<path d="M161 170.465V254C114.405 200.734 13.5241 92.0133 -39 39.3221V0H-2.10745C64.6308 65.1828 103.314 104.033 161 170.465Z" fill="#F20024"/>
<path d="M161 252.497V310C108.723 252.497 -14.8418 128.093 -73 66.4061V34H-42.6814C12.1645 87.7183 113.593 197.749 161 252.497Z" fill="#990017"/>
</g>
</g>
<rect width="320" height="640" fill="url(#paint0_linear_737_18775)"/>
</g>
<defs>
<linearGradient id="paint0_linear_737_18775" x1="160" y1="640" x2="172.348" y2="0.238295" gradientUnits="userSpaceOnUse">
<stop stop-opacity="0.9"/>
<stop offset="1" stop-opacity="0.1"/>
</linearGradient>
<clipPath id="clip0_737_18775">
<rect width="320" height="640" fill="white"/>
</clipPath>
</defs>
</svg>
