<?xml version="1.0" encoding="utf-8"?>
<!-- Generator: Adobe Illustrator 23.1.1, SVG Export Plug-In . SVG Version: 6.00 Build 0)  -->
<svg version="1.1" id="Camada_1" xmlns="http://www.w3.org/2000/svg" xmlns:xlink="http://www.w3.org/1999/xlink" x="0px" y="0px"
	 viewBox="0 0 1440 860" style="enable-background:new 0 0 1440 860;" xml:space="preserve">
<style type="text/css">
	.st0{clip-path:url(#SVGID_2_);}
	.st1{opacity:0.1;fill:#FFFFFF;enable-background:new    ;}
	.st2{fill:#262626;}
</style>
<g>
	<defs>
		<rect id="SVGID_1_" x="-97.2" y="-105.6" width="1634.3" height="1071.3"/>
	</defs>
	<clipPath id="SVGID_2_">
		<use xlink:href="#SVGID_1_"  style="overflow:visible;"/>
	</clipPath>
	<g class="st0">
		<path class="st1" d="M554.8,148.3H547v-15.5h1.6v14h6.2V148.3z M556,142.6c0-2,0.3-3.5,1-4.4c0.7-0.9,1.8-1.4,3.4-1.4
			c1.6,0,2.7,0.5,3.4,1.4c0.7,0.9,1,2.4,1,4.4c0,2-0.3,3.5-0.9,4.5c-0.6,0.9-1.8,1.4-3.4,1.4s-2.8-0.5-3.4-1.4
			C556.3,146.2,556,144.7,556,142.6z M557.5,142.6c0,1.6,0.2,2.8,0.5,3.4c0.4,0.7,1.1,1,2.3,1c1.2,0,1.9-0.3,2.3-1
			c0.4-0.7,0.5-1.8,0.5-3.5c0-1.6-0.2-2.8-0.6-3.4c-0.4-0.6-1.1-0.9-2.2-0.9c-1.1,0-1.8,0.3-2.2,0.9
			C557.7,139.8,557.5,141,557.5,142.6z M567.2,148.3v-11.2h1.5v1.5c1.2-0.9,2.4-1.5,3.7-1.8v1.7c-0.6,0.1-1.2,0.3-1.8,0.6
			c-0.6,0.3-1.1,0.5-1.4,0.7l-0.5,0.3v8.2H567.2z M581,146.9l0.6-0.1l0,1.3c-1.6,0.2-2.9,0.4-4,0.4c-1.5,0-2.5-0.5-3.1-1.4
			c-0.6-0.9-0.9-2.4-0.9-4.4c0-3.9,1.4-5.9,4.3-5.9c1.4,0,2.4,0.4,3.1,1.3c0.7,0.8,1,2.2,1,4l-0.1,1.3h-6.7c0,1.2,0.2,2.2,0.6,2.8
			c0.4,0.6,1.1,0.9,2.1,0.9C578.9,147,580,147,581,146.9z M580.5,142c0-1.4-0.2-2.3-0.6-2.9c-0.4-0.6-1-0.9-2-0.9
			c-0.9,0-1.6,0.3-2,0.9c-0.4,0.6-0.7,1.6-0.7,2.9H580.5z M585.9,148.3h-1.5v-11.2h1.5v0.8c1-0.7,2-1,3-1c1.3,0,2.2,0.4,2.7,1.1
			c0.4-0.3,1-0.6,1.7-0.8c0.7-0.2,1.4-0.4,1.9-0.4c1.4,0,2.3,0.4,2.7,1.2c0.5,0.8,0.7,2.2,0.7,4.3v5.9h-1.5v-5.9
			c0-1.6-0.1-2.6-0.4-3.2c-0.3-0.6-0.9-0.9-1.7-0.9c-0.4,0-0.9,0.1-1.4,0.2c-0.5,0.1-0.8,0.3-1.1,0.4l-0.4,0.2
			c0.2,0.5,0.3,1.6,0.3,3.3v5.8h-1.5v-5.8c0-1.6-0.1-2.7-0.4-3.3c-0.3-0.6-0.8-0.9-1.7-0.9c-0.4,0-0.9,0.1-1.3,0.2
			c-0.4,0.1-0.8,0.3-1,0.4l-0.3,0.2V148.3z M605.9,148.3v-11.2h1.5v11.2H605.9z M605.9,134.5v-2h1.5v2H605.9z M610.4,153.2v-16.2
			h1.5v0.8c1-0.7,2.1-1,3.1-1c1.3,0,2.2,0.5,2.8,1.4c0.6,0.9,0.9,2.4,0.9,4.5s-0.3,3.6-1,4.5c-0.7,0.9-1.8,1.3-3.4,1.3
			c-0.8,0-1.6-0.1-2.3-0.2v5H610.4z M614.8,138.3c-0.4,0-0.9,0.1-1.3,0.2c-0.5,0.1-0.8,0.3-1.1,0.4l-0.4,0.2v7.6
			c1,0.2,1.7,0.2,2.2,0.2c1.1,0,1.9-0.3,2.3-1c0.4-0.7,0.7-1.8,0.7-3.4c0-1.6-0.2-2.7-0.6-3.3C616.1,138.7,615.5,138.3,614.8,138.3z
			 M624.4,138.3c-1.5,0-2.2,0.6-2.2,1.7c0,0.5,0.2,0.9,0.5,1.1c0.3,0.2,1.1,0.4,2.3,0.7c1.2,0.2,2.1,0.5,2.6,1
			c0.5,0.4,0.8,1.2,0.8,2.4s-0.3,2-1,2.5c-0.7,0.5-1.6,0.8-2.9,0.8c-0.8,0-1.8-0.1-3-0.3l-0.6-0.1l0.1-1.5c1.6,0.3,2.7,0.4,3.5,0.4
			c0.8,0,1.4-0.1,1.8-0.4c0.4-0.3,0.6-0.7,0.6-1.4c0-0.7-0.2-1.1-0.5-1.3c-0.4-0.2-1.1-0.5-2.3-0.7c-1.2-0.2-2-0.5-2.6-0.9
			c-0.5-0.4-0.8-1.2-0.8-2.2c0-1.1,0.3-1.9,1-2.4c0.7-0.5,1.6-0.8,2.6-0.8c0.8,0,1.9,0.1,3.1,0.3l0.6,0.1l0,1.4
			C626.5,138.4,625.3,138.3,624.4,138.3z M637.1,137.1h1.5v11.2h-1.5v-0.8c-1,0.7-2,1-3,1c-1.4,0-2.3-0.4-2.8-1.2
			c-0.4-0.8-0.7-2.3-0.7-4.4v-5.9h1.5v5.8c0,1.6,0.1,2.7,0.4,3.3c0.3,0.6,0.8,0.8,1.8,0.8c0.4,0,0.9-0.1,1.4-0.2
			c0.5-0.1,0.8-0.3,1.1-0.4l0.4-0.2V137.1z M643.1,148.3h-1.5v-11.2h1.5v0.8c1-0.7,2-1,3-1c1.3,0,2.2,0.4,2.7,1.1
			c0.4-0.3,1-0.6,1.7-0.8c0.7-0.2,1.4-0.4,1.9-0.4c1.4,0,2.3,0.4,2.7,1.2c0.5,0.8,0.7,2.2,0.7,4.3v5.9h-1.5v-5.9
			c0-1.6-0.1-2.6-0.4-3.2c-0.3-0.6-0.9-0.9-1.7-0.9c-0.4,0-0.9,0.1-1.4,0.2c-0.5,0.1-0.8,0.3-1.1,0.4l-0.4,0.2
			c0.2,0.5,0.3,1.6,0.3,3.3v5.8H648v-5.8c0-1.6-0.1-2.7-0.4-3.3c-0.3-0.6-0.8-0.9-1.7-0.9c-0.4,0-0.9,0.1-1.3,0.2
			c-0.4,0.1-0.8,0.3-1,0.4l-0.3,0.2V148.3z M671,132.2v16.1h-1.5v-0.8c-1,0.7-2.1,1-3.1,1c-0.5,0-1-0.1-1.4-0.2
			c-0.4-0.1-0.8-0.4-1.1-0.8c-0.7-0.8-1.1-2.3-1.1-4.5c0-2.2,0.3-3.8,1-4.7c0.7-1,1.8-1.5,3.3-1.5c0.8,0,1.6,0.1,2.5,0.3v-5H671z
			 M664.9,146.2c0.2,0.3,0.4,0.5,0.7,0.6c0.2,0.1,0.6,0.2,0.9,0.2c0.4,0,0.8-0.1,1.3-0.2c0.5-0.1,0.9-0.3,1.1-0.4l0.4-0.2v-7.6
			c-0.9-0.2-1.7-0.3-2.4-0.3c-1,0-1.8,0.4-2.2,1.1c-0.4,0.7-0.6,1.8-0.6,3.4C664.2,144.5,664.5,145.6,664.9,146.2z M673.5,142.6
			c0-2,0.3-3.5,1-4.4c0.7-0.9,1.8-1.4,3.4-1.4c1.6,0,2.7,0.5,3.4,1.4c0.7,0.9,1,2.4,1,4.4c0,2-0.3,3.5-0.9,4.5
			c-0.6,0.9-1.8,1.4-3.4,1.4s-2.8-0.5-3.4-1.4C673.8,146.2,673.5,144.7,673.5,142.6z M675,142.6c0,1.6,0.2,2.8,0.5,3.4
			c0.4,0.7,1.1,1,2.3,1c1.2,0,1.9-0.3,2.3-1c0.4-0.7,0.5-1.8,0.5-3.5c0-1.6-0.2-2.8-0.6-3.4c-0.4-0.6-1.1-0.9-2.2-0.9
			c-1.1,0-1.8,0.3-2.2,0.9C675.2,139.8,675,141,675,142.6z M684.8,148.3v-16.1h1.5v16.1H684.8z M689,142.6c0-2,0.3-3.5,1-4.4
			c0.7-0.9,1.8-1.4,3.4-1.4c1.6,0,2.7,0.5,3.4,1.4c0.7,0.9,1,2.4,1,4.4c0,2-0.3,3.5-0.9,4.5c-0.6,0.9-1.8,1.4-3.4,1.4
			c-1.7,0-2.8-0.5-3.4-1.4C689.3,146.2,689,144.7,689,142.6z M690.6,142.6c0,1.6,0.2,2.8,0.5,3.4c0.4,0.7,1.1,1,2.3,1
			c1.2,0,1.9-0.3,2.3-1c0.4-0.7,0.5-1.8,0.5-3.5c0-1.6-0.2-2.8-0.6-3.4c-0.4-0.6-1.1-0.9-2.2-0.9c-1.1,0-1.8,0.3-2.2,0.9
			C690.8,139.8,690.6,141,690.6,142.6z M700.2,148.3v-11.2h1.5v1.5c1.2-0.9,2.4-1.5,3.7-1.8v1.7c-0.6,0.1-1.2,0.3-1.8,0.6
			c-0.6,0.3-1.1,0.5-1.4,0.7l-0.5,0.3v8.2H700.2z M715,138.3c-1.5,0-2.2,0.6-2.2,1.7c0,0.5,0.2,0.9,0.5,1.1c0.3,0.2,1.1,0.4,2.3,0.7
			c1.2,0.2,2.1,0.5,2.6,1c0.5,0.4,0.8,1.2,0.8,2.4s-0.3,2-1,2.5c-0.7,0.5-1.6,0.8-2.9,0.8c-0.8,0-1.8-0.1-3-0.3l-0.6-0.1l0.1-1.5
			c1.6,0.3,2.7,0.4,3.5,0.4c0.8,0,1.4-0.1,1.8-0.4c0.4-0.3,0.6-0.7,0.6-1.4c0-0.7-0.2-1.1-0.5-1.3c-0.4-0.2-1.1-0.5-2.3-0.7
			c-1.2-0.2-2-0.5-2.6-0.9c-0.5-0.4-0.8-1.2-0.8-2.2c0-1.1,0.3-1.9,1-2.4c0.7-0.5,1.6-0.8,2.6-0.8c0.8,0,1.9,0.1,3.1,0.3l0.6,0.1
			l0,1.4C717.1,138.4,715.9,138.3,715,138.3z M721.3,148.3v-11.2h1.5v11.2H721.3z M721.3,134.5v-2h1.5v2H721.3z M731,138.5h-3.2v5.4
			c0,1.3,0.1,2.1,0.2,2.5c0.2,0.4,0.6,0.6,1.2,0.6l1.8-0.1l0.1,1.4c-0.9,0.2-1.6,0.2-2.1,0.2c-1.1,0-1.8-0.3-2.2-0.9
			s-0.6-1.7-0.6-3.3v-5.9h-1.5v-1.5h1.5v-3.4h1.5v3.4h3.2V138.5z M744.6,140.4v5.7c0,0.6,0.4,0.9,1.2,1l-0.1,1.3
			c-1.1,0-1.9-0.3-2.4-0.9c-1.2,0.6-2.5,0.9-3.7,0.9c-0.9,0-1.7-0.3-2.1-0.9s-0.7-1.4-0.7-2.5c0-1.1,0.3-1.9,0.8-2.4
			c0.5-0.5,1.3-0.8,2.4-1l3.2-0.3v-1c0-0.8-0.1-1.3-0.4-1.6c-0.3-0.3-0.7-0.5-1.2-0.5c-1.1,0-2.2,0.1-3.4,0.2l-0.6,0.1l-0.1-1.3
			c1.5-0.3,2.8-0.5,4-0.5c1.2,0,2,0.3,2.5,0.9C744.3,138.3,744.6,139.2,744.6,140.4z M738.3,145c0,1.4,0.5,2.1,1.6,2.1
			c0.9,0,1.8-0.2,2.7-0.5l0.5-0.2v-3.7l-3,0.3c-0.6,0.1-1.1,0.3-1.3,0.6C738.5,143.9,738.3,144.4,738.3,145z M749.2,148.3h-1.5
			v-11.2h1.5v0.8c1-0.7,2-1,3-1c1.3,0,2.2,0.4,2.7,1.1c0.4-0.3,1-0.6,1.7-0.8c0.7-0.2,1.4-0.4,1.9-0.4c1.4,0,2.3,0.4,2.7,1.2
			c0.5,0.8,0.7,2.2,0.7,4.3v5.9h-1.5v-5.9c0-1.6-0.1-2.6-0.4-3.2c-0.3-0.6-0.9-0.9-1.7-0.9c-0.4,0-0.9,0.1-1.4,0.2
			c-0.5,0.1-0.8,0.3-1.1,0.4l-0.4,0.2c0.2,0.5,0.3,1.6,0.3,3.3v5.8h-1.5v-5.8c0-1.6-0.1-2.7-0.4-3.3c-0.3-0.6-0.8-0.9-1.7-0.9
			c-0.4,0-0.9,0.1-1.3,0.2c-0.4,0.1-0.8,0.3-1,0.4l-0.3,0.2V148.3z M771.7,146.9l0.6-0.1l0,1.3c-1.6,0.2-2.9,0.4-4,0.4
			c-1.5,0-2.5-0.5-3.1-1.4c-0.6-0.9-0.9-2.4-0.9-4.4c0-3.9,1.4-5.9,4.3-5.9c1.4,0,2.4,0.4,3.1,1.3c0.7,0.8,1,2.2,1,4l-0.1,1.3h-6.7
			c0,1.2,0.2,2.2,0.6,2.8c0.4,0.6,1.1,0.9,2.1,0.9C769.6,147,770.6,147,771.7,146.9z M771.1,142c0-1.4-0.2-2.3-0.6-2.9
			c-0.4-0.6-1-0.9-2-0.9c-0.9,0-1.6,0.3-2,0.9c-0.4,0.6-0.7,1.6-0.7,2.9H771.1z M780.3,138.5H777v5.4c0,1.3,0.1,2.1,0.2,2.5
			c0.2,0.4,0.6,0.6,1.2,0.6l1.8-0.1l0.1,1.4c-0.9,0.2-1.6,0.2-2.1,0.2c-1.1,0-1.8-0.3-2.2-0.9s-0.6-1.7-0.6-3.3v-5.9H774v-1.5h1.5
			v-3.4h1.5v3.4h3.2V138.5z M781.4,151l0.9-5.2h1.7l-1.4,5.2H781.4z M795,136.8c0.4,0,1.2,0.1,2.3,0.3l0.5,0.1l-0.1,1.4
			c-1.1-0.1-1.9-0.2-2.4-0.2c-1.2,0-1.9,0.3-2.4,0.9c-0.4,0.6-0.6,1.7-0.6,3.4c0,1.6,0.2,2.8,0.6,3.4c0.4,0.6,1.2,1,2.4,1l2.4-0.2
			l0.1,1.4c-1.3,0.2-2.2,0.3-2.8,0.3c-1.6,0-2.7-0.4-3.3-1.3c-0.6-0.9-0.9-2.4-0.9-4.5c0-2.1,0.3-3.6,1-4.5
			C792.4,137.3,793.5,136.8,795,136.8z M799.5,142.6c0-2,0.3-3.5,1-4.4c0.7-0.9,1.8-1.4,3.4-1.4c1.6,0,2.7,0.5,3.4,1.4
			c0.7,0.9,1,2.4,1,4.4c0,2-0.3,3.5-0.9,4.5c-0.6,0.9-1.8,1.4-3.4,1.4c-1.7,0-2.8-0.5-3.4-1.4C799.8,146.2,799.5,144.7,799.5,142.6z
			 M801.1,142.6c0,1.6,0.2,2.8,0.5,3.4c0.4,0.7,1.1,1,2.3,1c1.2,0,1.9-0.3,2.3-1c0.4-0.7,0.5-1.8,0.5-3.5c0-1.6-0.2-2.8-0.6-3.4
			c-0.4-0.6-1.1-0.9-2.2-0.9c-1.1,0-1.8,0.3-2.2,0.9C801.3,139.8,801.1,141,801.1,142.6z M812.3,148.3h-1.5v-11.2h1.5v0.8
			c1.1-0.7,2.2-1,3.2-1c1.4,0,2.3,0.4,2.7,1.2c0.5,0.8,0.7,2.2,0.7,4.3v5.9h-1.5v-5.9c0-1.6-0.1-2.6-0.4-3.2
			c-0.3-0.6-0.9-0.9-1.8-0.9c-0.4,0-0.9,0.1-1.4,0.2c-0.5,0.1-0.8,0.3-1.1,0.4l-0.4,0.2V148.3z M824.9,138.3c-1.5,0-2.2,0.6-2.2,1.7
			c0,0.5,0.2,0.9,0.5,1.1c0.3,0.2,1.1,0.4,2.3,0.7c1.2,0.2,2.1,0.5,2.6,1c0.5,0.4,0.8,1.2,0.8,2.4s-0.3,2-1,2.5
			c-0.7,0.5-1.6,0.8-2.9,0.8c-0.8,0-1.8-0.1-3-0.3l-0.6-0.1l0.1-1.5c1.6,0.3,2.7,0.4,3.5,0.4s1.4-0.1,1.8-0.4
			c0.4-0.3,0.6-0.7,0.6-1.4c0-0.7-0.2-1.1-0.5-1.3c-0.4-0.2-1.1-0.5-2.3-0.7c-1.2-0.2-2-0.5-2.6-0.9c-0.5-0.4-0.8-1.2-0.8-2.2
			c0-1.1,0.3-1.9,1-2.4c0.7-0.5,1.6-0.8,2.6-0.8c0.8,0,1.9,0.1,3.1,0.3l0.6,0.1l0,1.4C827,138.4,825.8,138.3,824.9,138.3z
			 M838.2,146.9l0.6-0.1l0,1.3c-1.6,0.2-2.9,0.4-4,0.4c-1.5,0-2.5-0.5-3.1-1.4c-0.6-0.9-0.9-2.4-0.9-4.4c0-3.9,1.4-5.9,4.3-5.9
			c1.4,0,2.4,0.4,3.1,1.3c0.7,0.8,1,2.2,1,4l-0.1,1.3h-6.7c0,1.2,0.2,2.2,0.6,2.8c0.4,0.6,1.1,0.9,2.1,0.9
			C836.1,147,837.1,147,838.2,146.9z M837.6,142c0-1.4-0.2-2.3-0.6-2.9c-0.4-0.6-1-0.9-2-0.9c-0.9,0-1.6,0.3-2,0.9
			c-0.4,0.6-0.7,1.6-0.7,2.9H837.6z M845.3,136.8c0.4,0,1.2,0.1,2.3,0.3l0.5,0.1l-0.1,1.4c-1.1-0.1-1.9-0.2-2.4-0.2
			c-1.2,0-1.9,0.3-2.4,0.9c-0.4,0.6-0.6,1.7-0.6,3.4c0,1.6,0.2,2.8,0.6,3.4c0.4,0.6,1.2,1,2.4,1l2.4-0.2l0.1,1.4
			c-1.3,0.2-2.2,0.3-2.8,0.3c-1.6,0-2.7-0.4-3.3-1.3c-0.6-0.9-0.9-2.4-0.9-4.5c0-2.1,0.3-3.6,1-4.5
			C842.7,137.3,843.8,136.8,845.3,136.8z M855.7,138.5h-3.2v5.4c0,1.3,0.1,2.1,0.2,2.5c0.2,0.4,0.6,0.6,1.2,0.6l1.8-0.1l0.1,1.4
			c-0.9,0.2-1.6,0.2-2.1,0.2c-1.1,0-1.8-0.3-2.2-0.9c-0.4-0.6-0.6-1.7-0.6-3.3v-5.9h-1.5v-1.5h1.5v-3.4h1.5v3.4h3.2V138.5z
			 M864.5,146.9l0.6-0.1l0,1.3c-1.6,0.2-2.9,0.4-4,0.4c-1.5,0-2.5-0.5-3.1-1.4c-0.6-0.9-0.9-2.4-0.9-4.4c0-3.9,1.4-5.9,4.3-5.9
			c1.4,0,2.4,0.4,3.1,1.3c0.7,0.8,1,2.2,1,4l-0.1,1.3h-6.7c0,1.2,0.2,2.2,0.6,2.8c0.4,0.6,1.1,0.9,2.1,0.9
			C862.4,147,863.5,147,864.5,146.9z M864,142c0-1.4-0.2-2.3-0.6-2.9c-0.4-0.6-1-0.9-2-0.9c-0.9,0-1.6,0.3-2,0.9
			c-0.4,0.6-0.7,1.6-0.7,2.9H864z M873.1,138.5h-3.2v5.4c0,1.3,0.1,2.1,0.2,2.5c0.2,0.4,0.6,0.6,1.2,0.6l1.8-0.1l0.1,1.4
			c-0.9,0.2-1.6,0.2-2.1,0.2c-1.1,0-1.8-0.3-2.2-0.9s-0.6-1.7-0.6-3.3v-5.9h-1.5v-1.5h1.5v-3.4h1.5v3.4h3.2V138.5z M881.4,137.1h1.5
			v11.2h-1.5v-0.8c-1,0.7-2,1-3,1c-1.4,0-2.3-0.4-2.8-1.2c-0.4-0.8-0.7-2.3-0.7-4.4v-5.9h1.5v5.8c0,1.6,0.1,2.7,0.4,3.3
			c0.3,0.6,0.8,0.8,1.8,0.8c0.4,0,0.9-0.1,1.4-0.2c0.5-0.1,0.8-0.3,1.1-0.4l0.4-0.2V137.1z M885.9,148.3v-11.2h1.5v1.5
			c1.2-0.9,2.4-1.5,3.7-1.8v1.7c-0.6,0.1-1.2,0.3-1.8,0.6c-0.6,0.3-1.1,0.5-1.4,0.7l-0.5,0.3v8.2H885.9z M891.7,148.3v-2.6h1.7v2.6
			H891.7z"/>
		<path class="st1" d="M580.3,87.4V56.9h9.5l6.7,25.1h0.4V56.9h5.6v30.5h-9.3l-6.9-25.1h-0.4v25.1H580.3z M615.6,80.3
			c0.8,1.6,2.3,2.3,4.5,2.3c2.2,0,3.7-0.8,4.5-2.3c0.8-1.6,1.2-4.2,1.2-7.9c0-3.7-0.4-6.4-1.2-8.1c-0.8-1.7-2.3-2.5-4.5-2.5
			c-2.2,0-3.7,0.8-4.5,2.5c-0.8,1.7-1.2,4.4-1.2,8.1C614.4,76.1,614.8,78.7,615.6,80.3z M629.1,84.2c-1.7,2.5-4.7,3.8-8.9,3.8
			c-4.2,0-7.2-1.3-8.9-3.8c-1.7-2.5-2.6-6.5-2.6-11.9c0-5.4,0.9-9.4,2.6-12c1.7-2.6,4.7-3.9,8.9-3.9c4.2,0,7.2,1.3,8.9,3.9
			c1.7,2.6,2.6,6.6,2.6,12C631.7,77.7,630.8,81.7,629.1,84.2z M646.3,61.8c-3,0-4.5,1.1-4.5,3.2c0,1,0.4,1.7,1.1,2.2
			c0.7,0.5,2.5,1.2,5.1,2.2c2.7,1,4.6,2,5.7,3.3c1.1,1.2,1.6,3,1.6,5.6c0,3.2-0.9,5.6-2.7,7.3c-1.8,1.6-4.1,2.5-6.9,2.5
			c-2.1,0-4.7-0.4-7.8-1.1l-1.5-0.3l0.6-4.8c3.6,0.5,6.4,0.8,8.4,0.8c2.9,0,4.3-1.3,4.3-3.9c0-1-0.3-1.7-1-2.2c-0.7-0.5-2-1.1-4-1.7
			c-3.2-1-5.4-2.2-6.7-3.5c-1.3-1.4-1.9-3.3-1.9-5.7c0-3,0.8-5.3,2.5-6.8c1.7-1.5,4-2.2,6.9-2.2c2,0,4.6,0.3,7.7,0.9l1.5,0.3
			l-0.4,4.9C650.6,62,647.8,61.8,646.3,61.8z M669.7,61.8c-3,0-4.5,1.1-4.5,3.2c0,1,0.4,1.7,1.1,2.2c0.7,0.5,2.5,1.2,5.1,2.2
			c2.7,1,4.6,2,5.7,3.3c1.1,1.2,1.6,3,1.6,5.6c0,3.2-0.9,5.6-2.7,7.3c-1.8,1.6-4.1,2.5-6.9,2.5c-2.1,0-4.7-0.4-7.8-1.1l-1.5-0.3
			l0.6-4.8c3.7,0.5,6.4,0.8,8.4,0.8c2.9,0,4.3-1.3,4.3-3.9c0-1-0.3-1.7-1-2.2c-0.7-0.5-2-1.1-4-1.7c-3.2-1-5.4-2.2-6.7-3.5
			c-1.3-1.4-1.9-3.3-1.9-5.7c0-3,0.8-5.3,2.5-6.8c1.7-1.5,4-2.2,6.9-2.2c2,0,4.6,0.3,7.7,0.9l1.5,0.3l-0.4,4.9
			C674,62,671.3,61.8,669.7,61.8z M690.4,80.3c0.8,1.6,2.3,2.3,4.5,2.3c2.2,0,3.7-0.8,4.5-2.3c0.8-1.6,1.2-4.2,1.2-7.9
			c0-3.7-0.4-6.4-1.2-8.1c-0.8-1.7-2.3-2.5-4.5-2.5c-2.2,0-3.7,0.8-4.5,2.5c-0.8,1.7-1.2,4.4-1.2,8.1
			C689.2,76.1,689.6,78.7,690.4,80.3z M703.8,84.2c-1.7,2.5-4.7,3.8-8.9,3.8s-7.2-1.3-8.9-3.8c-1.7-2.5-2.6-6.5-2.6-11.9
			c0-5.4,0.9-9.4,2.6-12c1.7-2.6,4.7-3.9,8.9-3.9s7.2,1.3,8.9,3.9c1.7,2.6,2.6,6.6,2.6,12C706.4,77.7,705.6,81.7,703.8,84.2z
			 M721,61.8c-3,0-4.5,1.1-4.5,3.2c0,1,0.4,1.7,1.1,2.2c0.7,0.5,2.5,1.2,5.1,2.2c2.7,1,4.6,2,5.7,3.3c1.1,1.2,1.6,3,1.6,5.6
			c0,3.2-0.9,5.6-2.7,7.3c-1.8,1.6-4.1,2.5-6.9,2.5c-2.1,0-4.7-0.4-7.8-1.1l-1.5-0.3l0.6-4.8c3.6,0.5,6.4,0.8,8.4,0.8
			c2.9,0,4.3-1.3,4.3-3.9c0-1-0.3-1.7-1-2.2c-0.7-0.5-2-1.1-4-1.7c-3.2-1-5.4-2.2-6.7-3.5c-1.3-1.4-1.9-3.3-1.9-5.7
			c0-3,0.8-5.3,2.5-6.8s4-2.2,6.9-2.2c2,0,4.6,0.3,7.7,0.9l1.5,0.3l-0.4,4.9C725.3,62,722.6,61.8,721,61.8z M763.8,86.9
			c-2.9,0.7-5.5,1-7.8,1c-2.3,0-4.2-0.3-5.6-0.9c-1.4-0.6-2.5-1.6-3.3-3c-0.8-1.4-1.3-3-1.6-4.8c-0.3-1.9-0.4-4.2-0.4-7
			c0-5.9,0.7-10,2.2-12.3c1.5-2.3,4.3-3.5,8.4-3.5c2.3,0,5.1,0.4,8.1,1.2l-0.2,4.9c-2.7-0.4-4.9-0.7-6.7-0.7c-1.8,0-3,0.3-3.8,0.8
			c-0.8,0.5-1.3,1.5-1.7,3c-0.4,1.5-0.5,4-0.5,7.5c0,3.5,0.4,6,1.1,7.4c0.8,1.3,2.3,2,4.5,2c2.3,0,4.7-0.2,7.2-0.6L763.8,86.9z
			 M767.2,87.4l6.3-30.5h10.7l6.3,30.5h-5.6l-1.1-5.5H774l-1.1,5.5H767.2z M777.9,62.1L775,76.5h7.6l-2.8-14.5H777.9z M803.6,61.8
			c-3,0-4.5,1.1-4.5,3.2c0,1,0.4,1.7,1.1,2.2c0.7,0.5,2.5,1.2,5.1,2.2c2.7,1,4.6,2,5.7,3.3c1.1,1.2,1.6,3,1.6,5.6
			c0,3.2-0.9,5.6-2.7,7.3c-1.8,1.6-4.1,2.5-6.9,2.5c-2.1,0-4.7-0.4-7.8-1.1l-1.5-0.3l0.6-4.8c3.6,0.5,6.4,0.8,8.4,0.8
			c2.9,0,4.3-1.3,4.3-3.9c0-1-0.3-1.7-1-2.2c-0.7-0.5-2-1.1-4-1.7c-3.2-1-5.4-2.2-6.7-3.5c-1.3-1.4-1.9-3.3-1.9-5.7
			c0-3,0.8-5.3,2.5-6.8c1.7-1.5,4-2.2,6.9-2.2c2,0,4.6,0.3,7.7,0.9l1.5,0.3l-0.4,4.9C807.9,62,805.2,61.8,803.6,61.8z M818.5,87.4
			V56.9h18v5.4h-12.3v7.1h9.9v5.3h-9.9v7.3h12.3v5.4H818.5z M850.9,61.8c-3,0-4.5,1.1-4.5,3.2c0,1,0.4,1.7,1.1,2.2
			c0.7,0.5,2.5,1.2,5.1,2.2c2.7,1,4.6,2,5.7,3.3c1.1,1.2,1.6,3,1.6,5.6c0,3.2-0.9,5.6-2.7,7.3c-1.8,1.6-4.1,2.5-6.9,2.5
			c-2.1,0-4.7-0.4-7.8-1.1l-1.5-0.3l0.6-4.8c3.6,0.5,6.4,0.8,8.4,0.8c2.9,0,4.3-1.3,4.3-3.9c0-1-0.3-1.7-1-2.2c-0.7-0.5-2-1.1-4-1.7
			c-3.2-1-5.4-2.2-6.7-3.5c-1.3-1.4-1.9-3.3-1.9-5.7c0-3,0.8-5.3,2.5-6.8c1.7-1.5,4-2.2,6.9-2.2c2,0,4.6,0.3,7.7,0.9l1.5,0.3
			l-0.4,4.9C855.2,62,852.5,61.8,850.9,61.8z"/>
		<path class="st2" d="M-237.9-105.6C272.4,479,725,857.2,725,857.2s466.1-395.3,952.9-962.8H-237.9z"/>
	</g>
</g>
</svg>
