<svg width="1440" height="860" viewBox="0 0 1440 860" fill="none" xmlns="http://www.w3.org/2000/svg">
<g clip-path="url(#clip0_3163_27292)">
<path opacity="0.1" d="M574.43 203.825H567.572V191.369H568.958V202.583H574.43V203.825ZM575.467 199.307C575.467 197.663 575.761 196.475 576.349 195.743C576.937 195.011 577.927 194.645 579.319 194.645C580.723 194.645 581.713 195.011 582.289 195.743C582.877 196.475 583.171 197.663 583.171 199.307C583.171 200.951 582.895 202.145 582.343 202.889C581.791 203.633 580.783 204.005 579.319 204.005C577.855 204.005 576.847 203.633 576.295 202.889C575.743 202.145 575.467 200.951 575.467 199.307ZM576.853 199.289C576.853 200.597 577.009 201.515 577.321 202.043C577.645 202.571 578.311 202.835 579.319 202.835C580.339 202.835 581.005 202.577 581.317 202.061C581.629 201.533 581.785 200.609 581.785 199.289C581.785 197.969 581.611 197.063 581.263 196.571C580.915 196.067 580.267 195.815 579.319 195.815C578.383 195.815 577.735 196.067 577.375 196.571C577.027 197.063 576.853 197.969 576.853 199.289ZM585.373 203.825V194.825H586.705V196.049C587.749 195.329 588.847 194.855 589.999 194.627V195.995C589.495 196.091 588.967 196.241 588.415 196.445C587.875 196.649 587.461 196.829 587.173 196.985L586.723 197.219V203.825H585.373ZM597.54 202.709L598.062 202.655L598.098 203.717C596.73 203.909 595.56 204.005 594.588 204.005C593.292 204.005 592.374 203.633 591.834 202.889C591.294 202.133 591.024 200.963 591.024 199.379C591.024 196.223 592.278 194.645 594.786 194.645C595.998 194.645 596.904 194.987 597.504 195.671C598.104 196.343 598.404 197.405 598.404 198.857L598.332 199.883H592.392C592.392 200.879 592.572 201.617 592.932 202.097C593.292 202.577 593.916 202.817 594.804 202.817C595.704 202.817 596.616 202.781 597.54 202.709ZM597.054 198.803C597.054 197.699 596.874 196.919 596.514 196.463C596.166 196.007 595.59 195.779 594.786 195.779C593.994 195.779 593.394 196.019 592.986 196.499C592.59 196.979 592.386 197.747 592.374 198.803H597.054ZM601.858 203.825H600.508V194.825H601.84V195.455C602.74 194.915 603.616 194.645 604.468 194.645C605.584 194.645 606.364 194.951 606.808 195.563C607.204 195.323 607.714 195.113 608.338 194.933C608.974 194.741 609.532 194.645 610.012 194.645C611.212 194.645 612.016 194.969 612.424 195.617C612.844 196.253 613.054 197.405 613.054 199.073V203.825H611.704V199.109C611.704 197.861 611.584 197.009 611.344 196.553C611.104 196.085 610.594 195.851 609.814 195.851C609.418 195.851 609.01 195.911 608.59 196.031C608.17 196.139 607.846 196.247 607.618 196.355L607.276 196.517C607.432 196.913 607.51 197.789 607.51 199.145V203.825H606.16V199.181C606.16 197.885 606.04 197.009 605.8 196.553C605.572 196.085 605.062 195.851 604.27 195.851C603.886 195.851 603.49 195.911 603.082 196.031C602.686 196.139 602.38 196.247 602.164 196.355L601.858 196.517V203.825ZM619.51 203.825V194.825H620.86V203.825H619.51ZM619.51 192.791V191.225H620.86V192.791H619.51ZM623.447 207.821V194.825H624.779V195.473C625.691 194.921 626.591 194.645 627.479 194.645C628.619 194.645 629.447 195.011 629.963 195.743C630.479 196.463 630.737 197.657 630.737 199.325C630.737 200.993 630.431 202.193 629.819 202.925C629.219 203.645 628.217 204.005 626.813 204.005C626.081 204.005 625.409 203.939 624.797 203.807V207.821H623.447ZM627.281 195.851C626.921 195.851 626.531 195.911 626.111 196.031C625.703 196.151 625.379 196.271 625.139 196.391L624.797 196.571V202.637C625.649 202.769 626.297 202.835 626.741 202.835C627.713 202.835 628.391 202.559 628.775 202.007C629.171 201.455 629.369 200.555 629.369 199.307C629.369 198.059 629.189 197.171 628.829 196.643C628.481 196.115 627.965 195.851 627.281 195.851ZM635.766 195.851C634.458 195.851 633.804 196.307 633.804 197.219C633.804 197.639 633.954 197.939 634.254 198.119C634.554 198.287 635.238 198.467 636.306 198.659C637.374 198.839 638.13 199.097 638.574 199.433C639.018 199.769 639.24 200.399 639.24 201.323C639.24 202.247 638.94 202.925 638.34 203.357C637.752 203.789 636.888 204.005 635.748 204.005C635.004 204.005 634.128 203.921 633.12 203.753L632.58 203.663L632.652 202.493C634.02 202.697 635.052 202.799 635.748 202.799C636.444 202.799 636.972 202.691 637.332 202.475C637.704 202.247 637.89 201.875 637.89 201.359C637.89 200.831 637.734 200.477 637.422 200.297C637.11 200.105 636.426 199.925 635.37 199.757C634.314 199.589 633.564 199.343 633.12 199.019C632.676 198.695 632.454 198.095 632.454 197.219C632.454 196.343 632.76 195.695 633.372 195.275C633.996 194.855 634.77 194.645 635.694 194.645C636.426 194.645 637.344 194.729 638.448 194.897L638.952 194.987L638.916 196.139C637.584 195.947 636.534 195.851 635.766 195.851ZM646.923 194.825H648.273V203.825H646.923V203.195C646.023 203.735 645.135 204.005 644.259 204.005C643.035 204.005 642.219 203.687 641.811 203.051C641.415 202.415 641.217 201.239 641.217 199.523V194.825H642.567V199.505C642.567 200.813 642.681 201.689 642.909 202.133C643.137 202.577 643.653 202.799 644.457 202.799C644.853 202.799 645.255 202.745 645.663 202.637C646.071 202.517 646.383 202.403 646.599 202.295L646.923 202.133V194.825ZM652.219 203.825H650.869V194.825H652.201V195.455C653.101 194.915 653.977 194.645 654.829 194.645C655.945 194.645 656.725 194.951 657.169 195.563C657.565 195.323 658.075 195.113 658.699 194.933C659.335 194.741 659.893 194.645 660.373 194.645C661.573 194.645 662.377 194.969 662.785 195.617C663.205 196.253 663.415 197.405 663.415 199.073V203.825H662.065V199.109C662.065 197.861 661.945 197.009 661.705 196.553C661.465 196.085 660.955 195.851 660.175 195.851C659.779 195.851 659.371 195.911 658.951 196.031C658.531 196.139 658.207 196.247 657.979 196.355L657.637 196.517C657.793 196.913 657.871 197.789 657.871 199.145V203.825H656.521V199.181C656.521 197.885 656.401 197.009 656.161 196.553C655.933 196.085 655.423 195.851 654.631 195.851C654.247 195.851 653.851 195.911 653.443 196.031C653.047 196.139 652.741 196.247 652.525 196.355L652.219 196.517V203.825ZM676.783 190.901V203.825H675.451V203.213C674.527 203.741 673.615 204.005 672.715 204.005C672.235 204.005 671.815 203.945 671.455 203.825C671.095 203.705 670.759 203.489 670.447 203.177C669.799 202.529 669.475 201.335 669.475 199.595C669.475 197.843 669.763 196.583 670.339 195.815C670.927 195.035 671.893 194.645 673.237 194.645C673.933 194.645 674.671 194.723 675.451 194.879V190.901H676.783ZM671.491 202.205C671.683 202.433 671.887 202.589 672.103 202.673C672.319 202.757 672.595 202.799 672.931 202.799C673.279 202.799 673.663 202.745 674.083 202.637C674.515 202.517 674.851 202.403 675.091 202.295L675.451 202.133V196.031C674.683 195.887 673.969 195.815 673.309 195.815C672.397 195.815 671.761 196.109 671.401 196.697C671.041 197.273 670.861 198.173 670.861 199.397C670.861 200.789 671.071 201.725 671.491 202.205ZM679.003 199.307C679.003 197.663 679.297 196.475 679.885 195.743C680.473 195.011 681.463 194.645 682.855 194.645C684.259 194.645 685.249 195.011 685.825 195.743C686.413 196.475 686.707 197.663 686.707 199.307C686.707 200.951 686.431 202.145 685.879 202.889C685.327 203.633 684.319 204.005 682.855 204.005C681.391 204.005 680.383 203.633 679.831 202.889C679.279 202.145 679.003 200.951 679.003 199.307ZM680.389 199.289C680.389 200.597 680.545 201.515 680.857 202.043C681.181 202.571 681.847 202.835 682.855 202.835C683.875 202.835 684.541 202.577 684.853 202.061C685.165 201.533 685.321 200.609 685.321 199.289C685.321 197.969 685.147 197.063 684.799 196.571C684.451 196.067 683.803 195.815 682.855 195.815C681.919 195.815 681.271 196.067 680.911 196.571C680.563 197.063 680.389 197.969 680.389 199.289ZM689.016 203.825V190.901H690.366V203.825H689.016ZM692.678 199.307C692.678 197.663 692.972 196.475 693.56 195.743C694.148 195.011 695.138 194.645 696.53 194.645C697.934 194.645 698.924 195.011 699.5 195.743C700.088 196.475 700.382 197.663 700.382 199.307C700.382 200.951 700.106 202.145 699.554 202.889C699.002 203.633 697.994 204.005 696.53 204.005C695.066 204.005 694.058 203.633 693.506 202.889C692.954 202.145 692.678 200.951 692.678 199.307ZM694.064 199.289C694.064 200.597 694.22 201.515 694.532 202.043C694.856 202.571 695.522 202.835 696.53 202.835C697.55 202.835 698.216 202.577 698.528 202.061C698.84 201.533 698.996 200.609 698.996 199.289C698.996 197.969 698.822 197.063 698.474 196.571C698.126 196.067 697.478 195.815 696.53 195.815C695.594 195.815 694.946 196.067 694.586 196.571C694.238 197.063 694.064 197.969 694.064 199.289ZM702.584 203.825V194.825H703.916V196.049C704.96 195.329 706.058 194.855 707.21 194.627V195.995C706.706 196.091 706.178 196.241 705.626 196.445C705.086 196.649 704.672 196.829 704.384 196.985L703.934 197.219V203.825H702.584ZM715.588 195.851C714.28 195.851 713.626 196.307 713.626 197.219C713.626 197.639 713.776 197.939 714.076 198.119C714.376 198.287 715.06 198.467 716.128 198.659C717.196 198.839 717.952 199.097 718.396 199.433C718.84 199.769 719.062 200.399 719.062 201.323C719.062 202.247 718.762 202.925 718.162 203.357C717.574 203.789 716.71 204.005 715.57 204.005C714.826 204.005 713.95 203.921 712.942 203.753L712.402 203.663L712.474 202.493C713.842 202.697 714.874 202.799 715.57 202.799C716.266 202.799 716.794 202.691 717.154 202.475C717.526 202.247 717.712 201.875 717.712 201.359C717.712 200.831 717.556 200.477 717.244 200.297C716.932 200.105 716.248 199.925 715.192 199.757C714.136 199.589 713.386 199.343 712.942 199.019C712.498 198.695 712.276 198.095 712.276 197.219C712.276 196.343 712.582 195.695 713.194 195.275C713.818 194.855 714.592 194.645 715.516 194.645C716.248 194.645 717.166 194.729 718.27 194.897L718.774 194.987L718.738 196.139C717.406 195.947 716.356 195.851 715.588 195.851ZM721.129 203.825V194.825H722.479V203.825H721.129ZM721.129 192.791V191.225H722.479V192.791H721.129ZM729.729 195.995H726.867V200.297C726.867 201.329 726.939 202.007 727.083 202.331C727.239 202.655 727.599 202.817 728.163 202.817L729.765 202.709L729.855 203.825C729.051 203.957 728.439 204.023 728.019 204.023C727.083 204.023 726.435 203.795 726.075 203.339C725.715 202.883 725.535 202.013 725.535 200.729V195.995H724.257V194.825H725.535V192.071H726.867V194.825H729.729V195.995ZM741.686 197.543V202.151C741.722 202.595 742.07 202.859 742.73 202.943L742.676 204.005C741.728 204.005 741.014 203.765 740.534 203.285C739.454 203.765 738.374 204.005 737.294 204.005C736.466 204.005 735.836 203.771 735.404 203.303C734.972 202.835 734.756 202.163 734.756 201.287C734.756 200.411 734.978 199.769 735.422 199.361C735.866 198.941 736.562 198.683 737.51 198.587L740.336 198.317V197.543C740.336 196.931 740.204 196.493 739.94 196.229C739.676 195.965 739.316 195.833 738.86 195.833C737.9 195.833 736.904 195.893 735.872 196.013L735.314 196.067L735.26 195.041C736.58 194.777 737.75 194.645 738.77 194.645C739.79 194.645 740.528 194.879 740.984 195.347C741.452 195.815 741.686 196.547 741.686 197.543ZM736.142 201.215C736.142 202.319 736.598 202.871 737.51 202.871C738.326 202.871 739.13 202.733 739.922 202.457L740.336 202.313V199.343L737.672 199.595C737.132 199.643 736.742 199.799 736.502 200.063C736.262 200.327 736.142 200.711 736.142 201.215ZM745.7 203.825H744.35V194.825H745.682V195.455C746.582 194.915 747.458 194.645 748.31 194.645C749.426 194.645 750.206 194.951 750.65 195.563C751.046 195.323 751.556 195.113 752.18 194.933C752.816 194.741 753.374 194.645 753.854 194.645C755.054 194.645 755.858 194.969 756.266 195.617C756.686 196.253 756.896 197.405 756.896 199.073V203.825H755.546V199.109C755.546 197.861 755.426 197.009 755.186 196.553C754.946 196.085 754.436 195.851 753.656 195.851C753.26 195.851 752.852 195.911 752.432 196.031C752.012 196.139 751.688 196.247 751.46 196.355L751.118 196.517C751.274 196.913 751.352 197.789 751.352 199.145V203.825H750.002V199.181C750.002 197.885 749.882 197.009 749.642 196.553C749.414 196.085 748.904 195.851 748.112 195.851C747.728 195.851 747.332 195.911 746.924 196.031C746.528 196.139 746.222 196.247 746.006 196.355L745.7 196.517V203.825ZM765.517 202.709L766.039 202.655L766.075 203.717C764.707 203.909 763.537 204.005 762.565 204.005C761.269 204.005 760.351 203.633 759.811 202.889C759.271 202.133 759.001 200.963 759.001 199.379C759.001 196.223 760.255 194.645 762.763 194.645C763.975 194.645 764.881 194.987 765.481 195.671C766.081 196.343 766.381 197.405 766.381 198.857L766.309 199.883H760.369C760.369 200.879 760.549 201.617 760.909 202.097C761.269 202.577 761.893 202.817 762.781 202.817C763.681 202.817 764.593 202.781 765.517 202.709ZM765.031 198.803C765.031 197.699 764.851 196.919 764.491 196.463C764.143 196.007 763.567 195.779 762.763 195.779C761.971 195.779 761.371 196.019 760.963 196.499C760.567 196.979 760.363 197.747 760.351 198.803H765.031ZM773.094 195.995H770.232V200.297C770.232 201.329 770.304 202.007 770.448 202.331C770.604 202.655 770.964 202.817 771.528 202.817L773.13 202.709L773.22 203.825C772.416 203.957 771.804 204.023 771.384 204.023C770.448 204.023 769.8 203.795 769.44 203.339C769.08 202.883 768.9 202.013 768.9 200.729V195.995H767.622V194.825H768.9V192.071H770.232V194.825H773.094V195.995ZM774.058 206.039L774.886 201.899H776.38L775.174 206.039H774.058ZM786.071 194.645C786.467 194.645 787.139 194.717 788.087 194.861L788.519 194.915L788.465 196.013C787.505 195.905 786.797 195.851 786.341 195.851C785.321 195.851 784.625 196.097 784.253 196.589C783.893 197.069 783.713 197.969 783.713 199.289C783.713 200.597 783.881 201.509 784.217 202.025C784.565 202.541 785.279 202.799 786.359 202.799L788.483 202.637L788.537 203.753C787.421 203.921 786.587 204.005 786.035 204.005C784.631 204.005 783.659 203.645 783.119 202.925C782.591 202.205 782.327 200.993 782.327 199.289C782.327 197.573 782.615 196.373 783.191 195.689C783.767 194.993 784.727 194.645 786.071 194.645ZM790.044 199.307C790.044 197.663 790.338 196.475 790.926 195.743C791.514 195.011 792.504 194.645 793.896 194.645C795.3 194.645 796.29 195.011 796.866 195.743C797.454 196.475 797.748 197.663 797.748 199.307C797.748 200.951 797.472 202.145 796.92 202.889C796.368 203.633 795.36 204.005 793.896 204.005C792.432 204.005 791.424 203.633 790.872 202.889C790.32 202.145 790.044 200.951 790.044 199.307ZM791.43 199.289C791.43 200.597 791.586 201.515 791.898 202.043C792.222 202.571 792.888 202.835 793.896 202.835C794.916 202.835 795.582 202.577 795.894 202.061C796.206 201.533 796.362 200.609 796.362 199.289C796.362 197.969 796.188 197.063 795.84 196.571C795.492 196.067 794.844 195.815 793.896 195.815C792.96 195.815 792.312 196.067 791.952 196.571C791.604 197.063 791.43 197.969 791.43 199.289ZM801.299 203.825H799.949V194.825H801.281V195.455C802.253 194.915 803.183 194.645 804.071 194.645C805.271 194.645 806.075 194.969 806.483 195.617C806.903 196.265 807.113 197.417 807.113 199.073V203.825H805.781V199.109C805.781 197.861 805.655 197.009 805.403 196.553C805.163 196.085 804.641 195.851 803.837 195.851C803.453 195.851 803.045 195.911 802.613 196.031C802.193 196.139 801.869 196.247 801.641 196.355L801.299 196.517V203.825ZM812.443 195.851C811.135 195.851 810.481 196.307 810.481 197.219C810.481 197.639 810.631 197.939 810.931 198.119C811.231 198.287 811.915 198.467 812.983 198.659C814.051 198.839 814.807 199.097 815.251 199.433C815.695 199.769 815.917 200.399 815.917 201.323C815.917 202.247 815.617 202.925 815.017 203.357C814.429 203.789 813.565 204.005 812.425 204.005C811.681 204.005 810.805 203.921 809.797 203.753L809.257 203.663L809.329 202.493C810.697 202.697 811.729 202.799 812.425 202.799C813.121 202.799 813.649 202.691 814.009 202.475C814.381 202.247 814.567 201.875 814.567 201.359C814.567 200.831 814.411 200.477 814.099 200.297C813.787 200.105 813.103 199.925 812.047 199.757C810.991 199.589 810.241 199.343 809.797 199.019C809.353 198.695 809.131 198.095 809.131 197.219C809.131 196.343 809.437 195.695 810.049 195.275C810.673 194.855 811.447 194.645 812.371 194.645C813.103 194.645 814.021 194.729 815.125 194.897L815.629 194.987L815.593 196.139C814.261 195.947 813.211 195.851 812.443 195.851ZM824.104 202.709L824.626 202.655L824.662 203.717C823.294 203.909 822.124 204.005 821.152 204.005C819.856 204.005 818.938 203.633 818.398 202.889C817.858 202.133 817.588 200.963 817.588 199.379C817.588 196.223 818.842 194.645 821.35 194.645C822.562 194.645 823.468 194.987 824.068 195.671C824.668 196.343 824.968 197.405 824.968 198.857L824.896 199.883H818.956C818.956 200.879 819.136 201.617 819.496 202.097C819.856 202.577 820.48 202.817 821.368 202.817C822.268 202.817 823.18 202.781 824.104 202.709ZM823.618 198.803C823.618 197.699 823.438 196.919 823.078 196.463C822.73 196.007 822.154 195.779 821.35 195.779C820.558 195.779 819.958 196.019 819.55 196.499C819.154 196.979 818.95 197.747 818.938 198.803H823.618ZM830.438 194.645C830.834 194.645 831.506 194.717 832.454 194.861L832.886 194.915L832.832 196.013C831.872 195.905 831.164 195.851 830.708 195.851C829.688 195.851 828.992 196.097 828.62 196.589C828.26 197.069 828.08 197.969 828.08 199.289C828.08 200.597 828.248 201.509 828.584 202.025C828.932 202.541 829.646 202.799 830.726 202.799L832.85 202.637L832.904 203.753C831.788 203.921 830.954 204.005 830.402 204.005C828.998 204.005 828.026 203.645 827.486 202.925C826.958 202.205 826.694 200.993 826.694 199.289C826.694 197.573 826.982 196.373 827.558 195.689C828.134 194.993 829.094 194.645 830.438 194.645ZM839.574 195.995H836.712V200.297C836.712 201.329 836.784 202.007 836.928 202.331C837.084 202.655 837.444 202.817 838.008 202.817L839.61 202.709L839.7 203.825C838.896 203.957 838.284 204.023 837.864 204.023C836.928 204.023 836.28 203.795 835.92 203.339C835.56 202.883 835.38 202.013 835.38 200.729V195.995H834.102V194.825H835.38V192.071H836.712V194.825H839.574V195.995ZM847.343 202.709L847.865 202.655L847.901 203.717C846.533 203.909 845.363 204.005 844.391 204.005C843.095 204.005 842.177 203.633 841.637 202.889C841.097 202.133 840.827 200.963 840.827 199.379C840.827 196.223 842.081 194.645 844.589 194.645C845.801 194.645 846.707 194.987 847.307 195.671C847.907 196.343 848.207 197.405 848.207 198.857L848.135 199.883H842.195C842.195 200.879 842.375 201.617 842.735 202.097C843.095 202.577 843.719 202.817 844.607 202.817C845.507 202.817 846.419 202.781 847.343 202.709ZM846.857 198.803C846.857 197.699 846.677 196.919 846.317 196.463C845.969 196.007 845.393 195.779 844.589 195.779C843.797 195.779 843.197 196.019 842.789 196.499C842.393 196.979 842.189 197.747 842.177 198.803H846.857ZM854.92 195.995H852.058V200.297C852.058 201.329 852.13 202.007 852.274 202.331C852.43 202.655 852.79 202.817 853.354 202.817L854.956 202.709L855.046 203.825C854.242 203.957 853.63 204.023 853.21 204.023C852.274 204.023 851.626 203.795 851.266 203.339C850.906 202.883 850.726 202.013 850.726 200.729V195.995H849.448V194.825H850.726V192.071H852.058V194.825H854.92V195.995ZM862.184 194.825H863.534V203.825H862.184V203.195C861.284 203.735 860.396 204.005 859.52 204.005C858.296 204.005 857.48 203.687 857.072 203.051C856.676 202.415 856.478 201.239 856.478 199.523V194.825H857.828V199.505C857.828 200.813 857.942 201.689 858.17 202.133C858.398 202.577 858.914 202.799 859.718 202.799C860.114 202.799 860.516 202.745 860.924 202.637C861.332 202.517 861.644 202.403 861.86 202.295L862.184 202.133V194.825ZM866.131 203.825V194.825H867.463V196.049C868.507 195.329 869.605 194.855 870.757 194.627V195.995C870.253 196.091 869.725 196.241 869.173 196.445C868.633 196.649 868.219 196.829 867.931 196.985L867.481 197.219V203.825H866.131ZM871.279 203.825V201.773H872.755V203.825H871.279Z" fill="white"/>
<path opacity="0.1" d="M596.904 155V130.52H605.292L611.196 150.68H611.556V130.52H616.524V155H608.352L602.232 134.84H601.872V155H596.904ZM628.021 149.24C628.741 150.488 630.073 151.112 632.017 151.112C633.961 151.112 635.281 150.488 635.977 149.24C636.697 147.968 637.057 145.856 637.057 142.904C637.057 139.928 636.697 137.768 635.977 136.424C635.257 135.08 633.937 134.408 632.017 134.408C630.097 134.408 628.777 135.08 628.057 136.424C627.337 137.768 626.977 139.928 626.977 142.904C626.977 145.856 627.325 147.968 628.021 149.24ZM639.865 152.408C638.353 154.424 635.737 155.432 632.017 155.432C628.297 155.432 625.669 154.424 624.133 152.408C622.621 150.368 621.865 147.188 621.865 142.868C621.865 138.548 622.621 135.344 624.133 133.256C625.669 131.144 628.297 130.088 632.017 130.088C635.737 130.088 638.353 131.144 639.865 133.256C641.401 135.344 642.169 138.548 642.169 142.868C642.169 147.188 641.401 150.368 639.865 152.408ZM655.033 134.408C652.417 134.408 651.109 135.272 651.109 137C651.109 137.768 651.433 138.356 652.081 138.764C652.729 139.172 654.241 139.76 656.617 140.528C659.017 141.296 660.697 142.172 661.657 143.156C662.617 144.116 663.097 145.604 663.097 147.62C663.097 150.188 662.317 152.132 660.757 153.452C659.197 154.772 657.157 155.432 654.637 155.432C652.765 155.432 650.473 155.144 647.761 154.568L646.465 154.316L646.969 150.464C650.185 150.896 652.645 151.112 654.349 151.112C656.893 151.112 658.165 150.056 658.165 147.944C658.165 147.176 657.865 146.576 657.265 146.144C656.689 145.712 655.525 145.244 653.773 144.74C650.989 143.948 649.021 143.012 647.869 141.932C646.741 140.828 646.177 139.304 646.177 137.36C646.177 134.912 646.921 133.088 648.409 131.888C649.897 130.688 651.937 130.088 654.529 130.088C656.305 130.088 658.561 130.328 661.297 130.808L662.593 131.06L662.197 134.984C658.813 134.6 656.425 134.408 655.033 134.408ZM675.695 134.408C673.079 134.408 671.771 135.272 671.771 137C671.771 137.768 672.095 138.356 672.743 138.764C673.391 139.172 674.903 139.76 677.279 140.528C679.679 141.296 681.359 142.172 682.319 143.156C683.279 144.116 683.759 145.604 683.759 147.62C683.759 150.188 682.979 152.132 681.419 153.452C679.859 154.772 677.819 155.432 675.299 155.432C673.427 155.432 671.135 155.144 668.423 154.568L667.127 154.316L667.631 150.464C670.847 150.896 673.307 151.112 675.011 151.112C677.555 151.112 678.827 150.056 678.827 147.944C678.827 147.176 678.527 146.576 677.927 146.144C677.351 145.712 676.187 145.244 674.435 144.74C671.651 143.948 669.683 143.012 668.531 141.932C667.403 140.828 666.839 139.304 666.839 137.36C666.839 134.912 667.583 133.088 669.071 131.888C670.559 130.688 672.599 130.088 675.191 130.088C676.967 130.088 679.223 130.328 681.959 130.808L683.255 131.06L682.859 134.984C679.475 134.6 677.087 134.408 675.695 134.408ZM693.909 149.24C694.629 150.488 695.961 151.112 697.905 151.112C699.849 151.112 701.169 150.488 701.865 149.24C702.585 147.968 702.945 145.856 702.945 142.904C702.945 139.928 702.585 137.768 701.865 136.424C701.145 135.08 699.825 134.408 697.905 134.408C695.985 134.408 694.665 135.08 693.945 136.424C693.225 137.768 692.865 139.928 692.865 142.904C692.865 145.856 693.213 147.968 693.909 149.24ZM705.753 152.408C704.241 154.424 701.625 155.432 697.905 155.432C694.185 155.432 691.557 154.424 690.021 152.408C688.509 150.368 687.753 147.188 687.753 142.868C687.753 138.548 688.509 135.344 690.021 133.256C691.557 131.144 694.185 130.088 697.905 130.088C701.625 130.088 704.241 131.144 705.753 133.256C707.289 135.344 708.057 138.548 708.057 142.868C708.057 147.188 707.289 150.368 705.753 152.408ZM720.921 134.408C718.305 134.408 716.997 135.272 716.997 137C716.997 137.768 717.321 138.356 717.969 138.764C718.617 139.172 720.129 139.76 722.505 140.528C724.905 141.296 726.585 142.172 727.545 143.156C728.505 144.116 728.985 145.604 728.985 147.62C728.985 150.188 728.205 152.132 726.645 153.452C725.085 154.772 723.045 155.432 720.525 155.432C718.653 155.432 716.361 155.144 713.649 154.568L712.353 154.316L712.857 150.464C716.073 150.896 718.533 151.112 720.237 151.112C722.781 151.112 724.053 150.056 724.053 147.944C724.053 147.176 723.753 146.576 723.153 146.144C722.577 145.712 721.413 145.244 719.661 144.74C716.877 143.948 714.909 143.012 713.757 141.932C712.629 140.828 712.065 139.304 712.065 137.36C712.065 134.912 712.809 133.088 714.297 131.888C715.785 130.688 717.825 130.088 720.417 130.088C722.193 130.088 724.449 130.328 727.185 130.808L728.481 131.06L728.085 134.984C724.701 134.6 722.313 134.408 720.921 134.408ZM758.566 154.604C756.022 155.156 753.73 155.432 751.69 155.432C749.65 155.432 748.018 155.18 746.794 154.676C745.57 154.172 744.61 153.368 743.914 152.264C743.218 151.16 742.738 149.864 742.474 148.376C742.21 146.888 742.078 145.016 742.078 142.76C742.078 138.032 742.738 134.744 744.058 132.896C745.402 131.024 747.862 130.088 751.438 130.088C753.502 130.088 755.89 130.412 758.602 131.06L758.458 135.02C756.082 134.66 754.102 134.48 752.518 134.48C750.958 134.48 749.842 134.696 749.17 135.128C748.498 135.536 747.994 136.328 747.658 137.504C747.346 138.68 747.19 140.684 747.19 143.516C747.19 146.348 747.514 148.316 748.162 149.42C748.834 150.5 750.154 151.04 752.122 151.04C754.114 151.04 756.226 150.872 758.458 150.536L758.566 154.604ZM761.624 155L767.132 130.52H776.564L782.072 155H777.104L776.132 150.572H767.564L766.592 155H761.624ZM770.984 134.624L768.5 146.252H775.196L772.712 134.624H770.984ZM793.691 134.408C791.075 134.408 789.767 135.272 789.767 137C789.767 137.768 790.091 138.356 790.739 138.764C791.387 139.172 792.899 139.76 795.275 140.528C797.675 141.296 799.355 142.172 800.315 143.156C801.275 144.116 801.755 145.604 801.755 147.62C801.755 150.188 800.975 152.132 799.415 153.452C797.855 154.772 795.815 155.432 793.295 155.432C791.423 155.432 789.131 155.144 786.419 154.568L785.123 154.316L785.627 150.464C788.843 150.896 791.303 151.112 793.007 151.112C795.551 151.112 796.823 150.056 796.823 147.944C796.823 147.176 796.523 146.576 795.923 146.144C795.347 145.712 794.183 145.244 792.431 144.74C789.647 143.948 787.679 143.012 786.527 141.932C785.399 140.828 784.835 139.304 784.835 137.36C784.835 134.912 785.579 133.088 787.067 131.888C788.555 130.688 790.595 130.088 793.187 130.088C794.963 130.088 797.219 130.328 799.955 130.808L801.251 131.06L800.855 134.984C797.471 134.6 795.083 134.408 793.691 134.408ZM806.829 155V130.52H822.669V134.84H811.797V140.564H820.509V144.812H811.797V150.68H822.669V155H806.829ZM835.366 134.408C832.75 134.408 831.442 135.272 831.442 137C831.442 137.768 831.766 138.356 832.414 138.764C833.062 139.172 834.574 139.76 836.95 140.528C839.35 141.296 841.03 142.172 841.99 143.156C842.95 144.116 843.43 145.604 843.43 147.62C843.43 150.188 842.65 152.132 841.09 153.452C839.53 154.772 837.49 155.432 834.97 155.432C833.098 155.432 830.806 155.144 828.094 154.568L826.798 154.316L827.302 150.464C830.518 150.896 832.978 151.112 834.682 151.112C837.226 151.112 838.498 150.056 838.498 147.944C838.498 147.176 838.198 146.576 837.598 146.144C837.022 145.712 835.858 145.244 834.106 144.74C831.322 143.948 829.354 143.012 828.202 141.932C827.074 140.828 826.51 139.304 826.51 137.36C826.51 134.912 827.254 133.088 828.742 131.888C830.23 130.688 832.27 130.088 834.862 130.088C836.638 130.088 838.894 130.328 841.63 130.808L842.926 131.06L842.53 134.984C839.146 134.6 836.758 134.408 835.366 134.408Z" fill="white"/>
<path d="M-124 0C325.656 469.344 724.37 772.925 724.37 772.925C724.37 772.925 1135.04 455.545 1564 0H-124Z" fill="#262626"/>
</g>
<defs>
<clipPath id="clip0_3163_27292">
<rect width="1440" height="860" fill="white"/>
</clipPath>
</defs>
</svg>
