<svg width="40" height="40" viewBox="0 0 40 40" fill="none" xmlns="http://www.w3.org/2000/svg">
<g clip-path="url(#clip0_2759_18654)">
<path d="M16.1667 36.0134L15.1867 31.5417C14.814 29.556 13.7368 27.7716 12.1533 26.5167L10.1533 25.1834L9.75334 24.9151C9.61441 24.8343 9.45656 24.7917 9.29584 24.7917C9.13512 24.7917 8.97727 24.8343 8.83834 24.9151C8.55501 25.1334 8.64001 25.6351 8.74001 25.9701C8.84132 26.1263 8.95801 26.2721 9.08834 26.4051C10.6083 28.0417 11.6667 29.0801 11.6667 29.0801C11.7728 29.2449 11.8175 29.4418 11.7928 29.6363C11.7681 29.8308 11.6757 30.0104 11.5317 30.1434C11.3891 30.2757 11.2047 30.3539 11.0105 30.3646C10.8163 30.3752 10.6245 30.3176 10.4683 30.2017C10.4683 30.2017 9.38834 29.1634 7.84167 27.4884C7.33295 26.9737 6.93469 26.3605 6.67131 25.6865C6.40794 25.0124 6.28499 24.2917 6.31001 23.5684V16.2334C6.29422 16.0844 6.22352 15.9465 6.11167 15.8467C5.99911 15.8061 5.8759 15.8061 5.76334 15.8467H5.53001C5.46561 15.8376 5.4 15.8425 5.33766 15.8611C5.27533 15.8797 5.21774 15.9115 5.16884 15.9544C5.11994 15.9973 5.08088 16.0502 5.05433 16.1096C5.02778 16.169 5.01436 16.2334 5.01501 16.2984V25.8967C4.95569 26.4747 5.02854 27.0587 5.22806 27.6044C5.42757 28.1501 5.74853 28.6433 6.16667 29.0467C7.23167 30.5867 10.7067 35.4434 10.7067 35.4434L9.36001 36.4151C9.36001 36.4151 5.86001 31.5401 4.90334 30.1167C4.34323 29.5582 3.91398 28.8824 3.64653 28.1379C3.37908 27.3935 3.28008 26.599 3.35667 25.8117V16.3167C3.3482 15.7558 3.56263 15.2143 3.95289 14.8113C4.34315 14.4082 4.87738 14.1764 5.43834 14.1667H5.70334C6.23419 14.1167 6.764 14.2724 7.18334 14.6017C7.63399 14.9512 7.93248 15.461 8.01667 16.0251V23.4117C8.41479 23.1777 8.86821 23.0543 9.33001 23.0543C9.79181 23.0543 10.2452 23.1777 10.6433 23.4117L11.1267 23.7451C11.2583 23.8284 11.4417 24.0117 13.105 25.0784C15.0375 26.5925 16.3498 28.7608 16.795 31.1751L17.795 35.6634C17.8202 35.7706 17.8238 35.8817 17.8058 35.9902C17.7878 36.0988 17.7484 36.2028 17.69 36.296C17.6316 36.3893 17.5552 36.4701 17.4654 36.5338C17.3756 36.5974 17.2741 36.6426 17.1667 36.6667H16.975C16.7862 36.6655 16.6034 36.6002 16.4565 36.4815C16.3097 36.3628 16.2075 36.1978 16.1667 36.0134ZM23.0517 36.6334H22.8683C22.761 36.6093 22.6595 36.5642 22.5697 36.5007C22.4799 36.4372 22.4035 36.3566 22.345 36.2634C22.2262 36.0738 22.1873 35.8449 22.2367 35.6267L23.2167 31.1717C23.6633 28.7901 24.9459 26.6464 26.8333 25.1267C28.5117 24.0201 28.745 23.8367 28.8783 23.7534L29.36 23.4201C29.7584 23.1861 30.2121 23.0627 30.6742 23.0627C31.1362 23.0627 31.5899 23.1861 31.9883 23.4201V16.3001C31.9809 16.1941 31.9809 16.0877 31.9883 15.9817C32.0673 15.4299 32.3592 14.9309 32.8017 14.5917C33.2205 14.2613 33.7507 14.1055 34.2817 14.1567H34.5317C34.8137 14.1568 35.0928 14.2135 35.3524 14.3234C35.6121 14.4334 35.847 14.5943 36.0433 14.7967C36.2402 15.0003 36.3946 15.241 36.4976 15.5048C36.6006 15.7686 36.6502 16.0503 36.6433 16.3334V25.9151C36.7106 26.7246 36.5958 27.5388 36.3074 28.2981C36.019 29.0575 35.5643 29.7426 34.9767 30.3034C34.1117 31.5934 30.62 36.4701 30.62 36.4701L29.2733 35.4984C29.2733 35.4984 32.7483 30.6417 33.7133 29.2351C34.1467 28.8228 34.4811 28.3177 34.6912 27.7577C34.9014 27.1977 34.9819 26.5973 34.9267 26.0017V16.3334C34.9309 16.2123 34.8882 16.0942 34.8075 16.0039C34.7267 15.9135 34.6142 15.8578 34.4933 15.8484H34.1783C34.1171 15.839 34.0545 15.8419 33.9944 15.8571C33.9343 15.8723 33.8778 15.8994 33.8283 15.9367C33.7785 15.9741 33.7366 16.0211 33.7051 16.0749C33.6736 16.1287 33.6532 16.1883 33.645 16.2501V23.6201C33.6668 24.3431 33.5394 25.0628 33.2707 25.7344C33.002 26.406 32.5978 27.015 32.0833 27.5234C30.57 29.1634 29.4883 30.2184 29.4883 30.2184C29.3263 30.3511 29.1202 30.418 28.9111 30.4056C28.7021 30.3933 28.5053 30.3026 28.36 30.1517C28.2127 29.9996 28.1288 29.7971 28.1254 29.5854C28.122 29.3736 28.1993 29.1685 28.3417 29.0117C28.3417 29.0117 29.405 28.0251 30.885 26.3451C31.0293 26.2098 31.1573 26.0582 31.2667 25.8934C31.3667 25.5601 31.45 25.0601 31.1683 24.8217C31.0266 24.7487 30.8695 24.7105 30.71 24.7105C30.5506 24.7105 30.3934 24.7487 30.2517 24.8217L29.8533 25.0884C29.72 25.1901 29.47 25.3734 27.8083 26.4634C26.2463 27.7271 25.19 29.5098 24.8317 31.4867L23.8517 35.9751C23.8108 36.16 23.7081 36.3255 23.5605 36.4442C23.413 36.563 23.2294 36.628 23.04 36.6284L23.0517 36.6334ZM19.2717 21.4251L11.4383 13.8884L11.2217 13.6551C10.1299 12.4898 9.54192 10.9408 9.58561 9.3446C9.6293 7.74837 10.3011 6.23385 11.455 5.13008C12.5611 4.08163 14.0022 3.45779 15.5237 3.36875C17.0451 3.2797 18.5491 3.73116 19.77 4.64341C21.0001 3.7162 22.5195 3.25598 24.0574 3.34481C25.5952 3.43363 27.0515 4.06573 28.1667 5.12841C28.2803 5.22613 28.3862 5.33256 28.4833 5.44674C29.5598 6.60415 30.1371 8.13894 30.0903 9.71887C30.0436 11.2988 29.3764 12.7967 28.2333 13.8884L20.4183 21.4251C20.2608 21.5765 20.0518 21.6628 19.8333 21.6667C19.6225 21.6591 19.4222 21.5729 19.2717 21.4251ZM12.52 6.35174C11.6897 7.14861 11.2066 8.24045 11.1754 9.39088C11.1442 10.5413 11.5674 11.6577 12.3533 12.4984L12.52 12.6651L19.77 19.6484L26.9533 12.6817C27.7886 11.9027 28.2831 10.8259 28.3299 9.68473C28.3767 8.54355 27.972 7.42989 27.2033 6.58508L26.97 6.35008C26.0743 5.49487 24.8835 5.01769 23.645 5.01769C22.4066 5.01769 21.2158 5.49487 20.32 6.35008C20.1638 6.49474 19.9587 6.57511 19.7458 6.57511C19.5329 6.57511 19.3279 6.49474 19.1717 6.35008C18.2723 5.50202 17.0828 5.02968 15.8467 5.02968C14.6105 5.02968 13.4211 5.50202 12.5217 6.35008L12.52 6.35174Z" fill="white"/>
</g>
<defs>
<clipPath id="clip0_2759_18654">
<rect width="40" height="40" fill="white"/>
</clipPath>
</defs>
</svg>
