<svg width="80" height="86" viewBox="0 0 80 86" fill="none" xmlns="http://www.w3.org/2000/svg">
<g clip-path="url(#clip0_2589_23995)">
<path d="M31.1012 38.6599H34.8126C35.7918 38.6599 36.6144 39.7916 36.6144 41.1308C36.5923 41.3062 36.6076 41.4842 36.659 41.6532C36.7104 41.8222 36.7969 41.9781 36.9127 42.1108C37.0285 42.2434 37.1709 42.3496 37.3305 42.4223C37.4902 42.4951 37.6633 42.5327 37.8384 42.5327C38.0135 42.5327 38.1867 42.4951 38.3463 42.4223C38.5059 42.3496 38.6483 42.2434 38.7641 42.1108C38.8799 41.9781 38.9664 41.8222 39.0178 41.6532C39.0693 41.4842 39.0845 41.3062 39.0624 41.1308C39.0624 38.398 37.148 36.1889 34.7979 36.1889H34.1858V35.1561C34.2079 34.9807 34.1926 34.8026 34.1412 34.6337C34.0898 34.4647 34.0033 34.3087 33.8875 34.1761C33.7717 34.0435 33.6293 33.9373 33.4697 33.8645C33.31 33.7918 33.1369 33.7542 32.9618 33.7542C32.7867 33.7542 32.6135 33.7918 32.4539 33.8645C32.2943 33.9373 32.1519 34.0435 32.0361 34.1761C31.9203 34.3087 31.8338 34.4647 31.7824 34.6337C31.731 34.8026 31.7157 34.9807 31.7378 35.1561V36.1741H31.1012C28.7462 36.1741 26.8367 38.3979 26.8367 41.116C26.8367 43.834 28.7462 46.0578 31.1012 46.0578H34.8126C35.7918 46.0578 36.6144 47.1895 36.6144 48.5288C36.6144 49.868 35.7869 50.9997 34.8126 50.9997H31.1012C30.122 50.9997 29.2995 49.868 29.2995 48.5288C29.3215 48.3534 29.3063 48.1753 29.2548 48.0064C29.2034 47.8374 29.1169 47.6814 29.0011 47.5488C28.8853 47.4162 28.7429 47.31 28.5833 47.2372C28.4237 47.1645 28.2505 47.1268 28.0754 47.1268C27.9003 47.1268 27.7272 47.1645 27.5675 47.2372C27.4079 47.31 27.2655 47.4162 27.1497 47.5488C27.0339 47.6814 26.9474 47.8374 26.896 48.0064C26.8446 48.1753 26.8293 48.3534 26.8514 48.5288C26.8514 51.2616 28.7609 53.4706 31.1159 53.4706H31.7378V54.4886C31.7157 54.664 31.731 54.8421 31.7824 55.0111C31.8338 55.18 31.9203 55.336 32.0361 55.4686C32.1519 55.6012 32.2943 55.7074 32.4539 55.7802C32.6135 55.853 32.7867 55.8906 32.9618 55.8906C33.1369 55.8906 33.31 55.853 33.4697 55.7802C33.6293 55.7074 33.7717 55.6012 33.8875 55.4686C34.0033 55.336 34.0898 55.18 34.1412 55.0111C34.1926 54.8421 34.2079 54.664 34.1858 54.4886V53.4706H34.8126C37.1627 53.4706 39.0771 51.2468 39.0771 48.5288C39.0771 45.8107 37.1627 43.5869 34.8126 43.5869H31.1012C30.122 43.5869 29.2995 42.4552 29.2995 41.116C29.2995 39.7767 30.122 38.6599 31.1012 38.6599Z" fill="#582689"/>
<path d="M76.5477 31.3064L62.6671 4.74881L48.7864 31.3064H76.5477ZM63.8666 27.7976C63.8666 28.1253 63.7377 28.4396 63.5081 28.6713C63.2786 28.9029 62.9672 29.0331 62.6426 29.0331C62.3179 29.0331 62.0066 28.9029 61.7771 28.6713C61.5475 28.4396 61.4185 28.1253 61.4185 27.7976V27.5506C61.4185 27.2229 61.5475 26.9086 61.7771 26.6769C62.0066 26.4453 62.3179 26.3151 62.6426 26.3151C62.9672 26.3151 63.2786 26.4453 63.5081 26.6769C63.7377 26.9086 63.8666 27.2229 63.8666 27.5506V27.7976ZM62.6426 24.3383C62.3179 24.3383 62.0066 24.2082 61.7771 23.9765C61.5475 23.7448 61.4185 23.4305 61.4185 23.1029V13.2192C61.4185 12.8915 61.5475 12.5772 61.7771 12.3456C62.0066 12.1139 62.3179 11.9837 62.6426 11.9837C62.9672 11.9837 63.2786 12.1139 63.5081 12.3456C63.7377 12.5772 63.8666 12.8915 63.8666 13.2192V23.1029C63.8666 23.4305 63.7377 23.7448 63.5081 23.9765C63.2786 24.2082 62.9672 24.3383 62.6426 24.3383Z" fill="white"/>
<path d="M63.7491 1.52173C63.6451 1.32314 63.4893 1.15693 63.2987 1.04101C63.108 0.925088 62.8896 0.863831 62.667 0.863831C62.4445 0.863831 62.2261 0.925088 62.0354 1.04101C61.8448 1.15693 61.689 1.32314 61.585 1.52173L55.6655 12.8485L33.4123 3.91853C33.1202 3.7998 32.7938 3.7998 32.5016 3.91853L1.57731 16.3275C1.34871 16.4203 1.15286 16.58 1.01499 16.7861C0.877111 16.9922 0.803527 17.2353 0.803711 17.4839V41.9857C0.803711 60.1322 11.9523 76.4799 29.892 84.6488C30.7406 85.0342 31.6073 85.4098 32.4918 85.7755C32.7891 85.8941 33.12 85.8941 33.4172 85.7755C34.3083 85.4098 35.1749 85.0342 36.0171 84.6488C53.9616 76.4799 65.1053 60.1322 65.1053 41.9857V33.7773H78.5797C78.7908 33.7773 78.9983 33.7223 79.1821 33.6175C79.3659 33.5127 79.5197 33.3617 79.6286 33.1791C79.7375 32.9966 79.7978 32.7887 79.8036 32.5758C79.8094 32.3628 79.7605 32.1519 79.6617 31.9636L63.7491 1.52173ZM48.8794 44.847C48.8794 48.0267 47.9451 51.135 46.1948 53.7788C44.4445 56.4226 41.9567 58.4831 39.0461 59.6997C36.1354 60.9163 32.9327 61.2343 29.843 60.6136C26.7533 59.9929 23.9153 58.4614 21.688 56.2126C19.4608 53.9639 17.9442 51.099 17.3302 47.9802C16.7162 44.8615 17.0323 41.629 18.2386 38.6916C19.4448 35.7542 21.487 33.2439 24.1069 31.478C26.7268 29.7122 29.8066 28.7702 32.957 28.7711C37.1791 28.7764 41.2268 30.4719 44.2118 33.4857C47.1969 36.4996 48.8755 40.5855 48.8794 44.847ZM48.7864 31.3063L62.667 4.74877L76.5477 31.3063H48.7864ZM62.6426 41.9857C62.6426 59.1389 52.0521 74.602 35.0036 82.3854C34.3377 82.6868 33.6522 82.9883 32.957 83.2799C32.2568 82.9883 31.5714 82.6868 30.9055 82.3854C13.8569 74.6217 3.25181 59.1389 3.25181 41.9857V18.3241L32.957 6.40923L54.5002 15.0575L45.8486 31.6275C42.4589 28.2618 37.9094 26.3521 33.1547 26.2992C28.4 26.2462 23.8098 28.0542 20.3473 31.3437C16.8849 34.6331 14.8194 39.1484 14.5843 43.9418C14.3491 48.7353 15.9627 53.4344 19.0863 57.0529C22.2098 60.6715 26.6007 62.9283 31.3373 63.3496C36.0739 63.771 40.7881 62.3242 44.4907 59.3128C48.1932 56.3015 50.5961 51.9597 51.1953 47.1986C51.7945 42.4375 50.5433 37.6273 47.7043 33.7773H62.6426V41.9857Z" fill="#582689"/>
<path d="M63.8666 13.2192C63.8666 12.8915 63.7376 12.5773 63.508 12.3456C63.2785 12.1139 62.9671 11.9837 62.6425 11.9837C62.3179 11.9837 62.0065 12.1139 61.777 12.3456C61.5474 12.5773 61.4185 12.8915 61.4185 13.2192V23.1029C61.4185 23.4306 61.5474 23.7448 61.777 23.9765C62.0065 24.2082 62.3179 24.3384 62.6425 24.3384C62.9671 24.3384 63.2785 24.2082 63.508 23.9765C63.7376 23.7448 63.8666 23.4306 63.8666 23.1029V13.2192Z" fill="#582689"/>
<path d="M62.6425 26.3151C62.3179 26.3151 62.0065 26.4453 61.777 26.677C61.5474 26.9086 61.4185 27.2229 61.4185 27.5506V27.7977C61.4185 28.1253 61.5474 28.4396 61.777 28.6713C62.0065 28.903 62.3179 29.0331 62.6425 29.0331C62.9671 29.0331 63.2785 28.903 63.508 28.6713C63.7376 28.4396 63.8666 28.1253 63.8666 27.7977V27.5506C63.8666 27.3883 63.8349 27.2277 63.7734 27.0778C63.7119 26.9279 63.6217 26.7917 63.508 26.677C63.3944 26.5622 63.2594 26.4712 63.1109 26.4091C62.9624 26.347 62.8032 26.3151 62.6425 26.3151Z" fill="#582689"/>
</g>
<defs>
<clipPath id="clip0_2589_23995">
<rect width="79" height="85" fill="white" transform="translate(0.803711 0.864502)"/>
</clipPath>
</defs>
</svg>
