<svg width="153" height="24" viewBox="0 0 153 24" fill="none" xmlns="http://www.w3.org/2000/svg">
<path opacity="0.3" d="M8.45044 23.352C5.25044 23.352 3.07444 22.4667 1.92244 20.696C0.791772 18.9253 0.226439 16.0133 0.226439 11.96C0.226439 7.90667 0.802439 5.02667 1.95444 3.32C3.10644 1.592 5.27177 0.727999 8.45044 0.727999C10.3491 0.727999 12.4398 0.994666 14.7224 1.528L14.5944 4.408C12.6744 4.06667 10.7544 3.896 8.83444 3.896C6.91444 3.896 5.61311 4.472 4.93044 5.624C4.24777 6.75467 3.90644 8.89867 3.90644 12.056C3.90644 15.192 4.23711 17.336 4.89844 18.488C5.55977 19.6187 6.85044 20.184 8.77044 20.184C10.6904 20.184 12.6318 20.024 14.5944 19.704L14.6904 22.648C12.4931 23.1173 10.4131 23.352 8.45044 23.352ZM28.1607 23H24.5767V13.976L17.6967 1.08H21.6967L26.3367 10.488L31.0087 1.08H34.9767L28.1607 13.976V23ZM39.2592 1.08H47.5792C49.8192 1.08 51.4939 1.53867 52.6032 2.456C53.7125 3.352 54.2672 4.792 54.2672 6.776C54.2672 8.07733 54.0539 9.10133 53.6272 9.848C53.2219 10.5947 52.5712 11.2133 51.6752 11.704C53.7659 12.5147 54.8112 14.2107 54.8112 16.792C54.8112 20.9307 52.4859 23 47.8352 23H39.2592V1.08ZM47.5792 13.432H42.8112V19.928H47.6432C48.8165 19.928 49.6912 19.6827 50.2672 19.192C50.8645 18.7013 51.1632 17.8587 51.1632 16.664C51.1632 15.4693 50.8219 14.6373 50.1392 14.168C49.4565 13.6773 48.6032 13.432 47.5792 13.432ZM47.3872 4.152H42.8112V10.424H47.5152C49.6059 10.424 50.6512 9.34667 50.6512 7.192C50.6512 5.16533 49.5632 4.152 47.3872 4.152ZM60.4529 23V1.08H74.2769V4.184H64.0049V10.392H72.3569V13.464H64.0049V19.864H74.2769V23H60.4529ZM83.2924 15.192V23H79.7404V1.08H88.0604C93.0098 1.08 95.4844 3.40533 95.4844 8.056C95.4844 11.1707 94.2898 13.2827 91.9004 14.392L95.5164 23H91.6124L88.4444 15.192H83.2924ZM91.8364 8.088C91.8364 5.464 90.5778 4.152 88.0604 4.152H83.2924V12.12H88.1244C89.4044 12.12 90.3431 11.7573 90.9404 11.032C91.5378 10.2853 91.8364 9.304 91.8364 8.088ZM107.554 3.832C104.844 3.832 103.49 4.78133 103.49 6.68C103.49 7.66133 103.81 8.36533 104.45 8.792C105.09 9.19733 106.498 9.70933 108.674 10.328C110.871 10.9253 112.418 11.6507 113.314 12.504C114.21 13.336 114.658 14.6587 114.658 16.472C114.658 18.776 113.996 20.504 112.674 21.656C111.372 22.7867 109.591 23.352 107.33 23.352C105.516 23.352 103.511 23.1387 101.314 22.712L100.162 22.488L100.514 19.64C103.394 20.024 105.591 20.216 107.106 20.216C109.751 20.216 111.074 19.0427 111.074 16.696C111.074 15.7787 110.775 15.1067 110.178 14.68C109.58 14.232 108.236 13.752 106.146 13.24C104.055 12.7067 102.498 11.9813 101.474 11.064C100.45 10.1467 99.9377 8.696 99.9377 6.712C99.9377 4.728 100.578 3.23466 101.858 2.232C103.159 1.208 104.951 0.695999 107.234 0.695999C108.876 0.695999 110.818 0.887999 113.058 1.272L114.178 1.464L113.89 4.344C110.903 4.00267 108.791 3.832 107.554 3.832ZM120.097 23V1.08H133.921V4.184H123.649V10.392H132.001V13.464H123.649V19.864H133.921V23H120.097ZM146.557 23.352C143.357 23.352 141.181 22.4667 140.029 20.696C138.898 18.9253 138.333 16.0133 138.333 11.96C138.333 7.90667 138.909 5.02667 140.061 3.32C141.213 1.592 143.378 0.727999 146.557 0.727999C148.455 0.727999 150.546 0.994666 152.829 1.528L152.701 4.408C150.781 4.06667 148.861 3.896 146.941 3.896C145.021 3.896 143.719 4.472 143.037 5.624C142.354 6.75467 142.013 8.89867 142.013 12.056C142.013 15.192 142.343 17.336 143.005 18.488C143.666 19.6187 144.957 20.184 146.877 20.184C148.797 20.184 150.738 20.024 152.701 19.704L152.797 22.648C150.599 23.1173 148.519 23.352 146.557 23.352Z" fill="#454D54"/>
</svg>
