<svg width="78" height="71" viewBox="0 0 78 71" fill="none" xmlns="http://www.w3.org/2000/svg">
<g clip-path="url(#clip0_3749_27002)">
<path d="M42.2518 56.1357H34.8831C34.1776 56.1357 33.6289 56.6892 33.6289 57.4008C33.6289 58.1124 34.1776 58.6658 34.8831 58.6658H42.2518C42.9573 58.6658 43.5061 58.1124 43.5061 57.4008C43.5061 56.6892 42.9573 56.1357 42.2518 56.1357Z" fill="#F20024"/>
<path d="M70.9427 68.4698H6.19255C4.15441 68.4698 2.50822 66.8094 2.50822 64.7537V63.4887H74.7054V64.7537C74.7054 66.8094 72.9809 68.4698 70.9427 68.4698ZM8.9362 50.364H68.1991L73.8431 61.0377H3.29212L8.9362 50.364ZM77.1355 62.2237C77.1355 62.1446 77.1355 62.1446 77.1355 62.0655V61.9865C77.1355 61.9074 77.1355 61.9074 77.0571 61.8283L70.2372 48.9408V15.1802C70.2372 14.4687 69.6885 13.9152 68.983 13.9152C68.2775 13.9152 67.7287 14.4687 67.7287 15.1802V47.913H9.40654V13.2036C9.40654 11.1479 11.0527 9.48759 13.0909 9.48759H61.9279C62.6334 9.48759 63.1821 8.93413 63.1821 8.22255C63.1821 7.51097 62.6334 6.95752 61.9279 6.95752H13.0909C9.7201 6.95752 6.89806 9.72478 6.89806 13.1246V48.7827L0.156515 61.7493C0.156515 61.7493 0.156515 61.8283 0.078125 61.9074V61.9865C0.078125 62.0655 0.078125 62.0655 0.078125 62.1446C0.078125 62.2237 0.078125 62.2237 0.078125 62.3027V64.7537C0.078125 68.1535 2.82178 70.9208 6.27094 70.9208H71.0995C74.4703 70.9208 77.2923 68.1535 77.2923 64.7537V62.3027C77.1355 62.3027 77.1355 62.2237 77.1355 62.2237Z" fill="#F20024"/>
<path d="M69.3738 2.451H72.9014L43.5835 31.9421L34.4903 22.8497C34.0199 22.3753 33.236 22.3753 32.7657 22.8497L12.3059 43.4065C11.8355 43.8808 11.8355 44.6715 12.3059 45.1459C12.5411 45.3831 12.8546 45.5412 13.1682 45.5412C13.4817 45.5412 13.7953 45.3831 14.0305 45.1459L33.628 25.4588L42.7212 34.5512C43.1916 35.0256 43.9755 35.0256 44.4458 34.5512L74.7044 4.19042V7.82739C74.7044 8.53898 75.2531 9.09243 75.9586 9.09243C76.6641 9.09243 77.2128 8.53898 77.2128 7.82739V1.26503C77.2128 0.553452 76.6641 0 75.9586 0H69.3738C68.6683 0 68.1196 0.553452 68.1196 1.26503C68.1196 1.89755 68.6683 2.451 69.3738 2.451Z" fill="#F20024"/>
</g>
<defs>
<clipPath id="clip0_3749_27002">
<rect width="77.1358" height="71" fill="white"/>
</clipPath>
</defs>
</svg>
