<svg width="84" height="76" viewBox="0 0 84 76" fill="none" xmlns="http://www.w3.org/2000/svg">
<g clip-path="url(#clip0_3749_26904)">
<path d="M25.3269 27.8441H57.8288C58.9262 27.8441 59.8549 26.9132 59.8549 25.7283V17.6036C59.8549 16.4188 58.9262 15.4878 57.8288 15.4878H50.8219C50.1465 15.4878 49.64 16.0802 49.64 16.7573C49.64 17.4343 50.1465 18.0268 50.8219 18.0268H57.4067V25.3052H25.6646V18.0268H43.0552C43.7305 18.0268 44.2371 17.4343 44.2371 16.7573C44.2371 16.0802 43.7305 15.4878 43.0552 15.4878H25.3269C24.2294 15.4878 23.3008 16.4188 23.3008 17.6036V25.7283C23.3008 26.9132 24.145 27.8441 25.3269 27.8441Z" fill="#F20024"/>
<path d="M24.3147 33.3451H28.9578C29.6332 33.3451 30.1397 32.7527 30.1397 32.0756C30.1397 31.3986 29.6332 30.8062 28.9578 30.8062H24.3147C23.6393 30.8062 23.1328 31.3986 23.1328 32.0756C23.1328 32.7527 23.6393 33.3451 24.3147 33.3451Z" fill="#F20024"/>
<path d="M58.7586 30.8062H54.1155C53.4401 30.8062 52.9336 31.3986 52.9336 32.0756C52.9336 32.7527 53.4401 33.3451 54.1155 33.3451H58.7586C59.434 33.3451 59.9405 32.7527 59.9405 32.0756C59.9405 31.3986 59.434 30.8062 58.7586 30.8062Z" fill="#F20024"/>
<path d="M44.3187 32.0756C44.3187 31.3986 43.8122 30.8062 43.1368 30.8062H32.5842C31.9089 30.8062 31.4023 31.3986 31.4023 32.0756C31.4023 32.7527 31.9089 33.3451 32.5842 33.3451H43.0524C43.8122 33.3451 44.3187 32.7527 44.3187 32.0756Z" fill="#F20024"/>
<path d="M51.4954 32.0756C51.4954 31.3986 50.9889 30.8062 50.3135 30.8062H46.7678C46.0925 30.8062 45.5859 31.3986 45.5859 32.0756C45.5859 32.7527 46.0925 33.3451 46.7678 33.3451H50.3135C50.9044 33.3451 51.4954 32.7527 51.4954 32.0756Z" fill="#F20024"/>
<path d="M24.3147 38.5924H26.2564C26.9317 38.5924 27.4383 38 27.4383 37.323C27.4383 36.6459 26.9317 36.0535 26.2564 36.0535H24.3147C23.6393 36.0535 23.1328 36.6459 23.1328 37.323C23.1328 38.0846 23.6393 38.5924 24.3147 38.5924Z" fill="#F20024"/>
<path d="M29.971 36.1382C29.2956 36.1382 28.7891 36.7306 28.7891 37.4077C28.7891 38.0847 29.2956 38.6772 29.971 38.6772H35.8804C36.5558 38.6772 37.0623 38.0847 37.0623 37.4077C37.0623 36.7306 36.5558 36.1382 35.8804 36.1382H29.971Z" fill="#F20024"/>
<path d="M49.3032 38.5924H58.5895C59.2649 38.5924 59.7714 38 59.7714 37.323C59.7714 36.6459 59.2649 36.0535 58.5895 36.0535H49.3032C48.6279 36.0535 48.1213 36.6459 48.1213 37.323C48.0369 38.0846 48.6279 38.5924 49.3032 38.5924Z" fill="#F20024"/>
<path d="M39.4241 38.5924H45.6712C46.3466 38.5924 46.8531 38 46.8531 37.323C46.8531 36.6459 46.3466 36.0535 45.6712 36.0535H39.4241C38.7487 36.0535 38.2422 36.6459 38.2422 37.323C38.2422 38.0846 38.7487 38.5924 39.4241 38.5924Z" fill="#F20024"/>
<path d="M18.8267 51.8798H35.4575C36.1329 51.8798 36.6394 51.2874 36.6394 50.6103C36.6394 49.9332 36.1329 49.3408 35.4575 49.3408H18.8267C18.1513 49.3408 17.6448 49.9332 17.6448 50.6103C17.5604 51.372 18.1513 51.8798 18.8267 51.8798Z" fill="#F20024"/>
<path d="M39.846 51.8798H46.7684C47.4438 51.8798 47.9503 51.2874 47.9503 50.6103C47.9503 49.9332 47.4438 49.3408 46.7684 49.3408H39.846C39.1706 49.3408 38.6641 49.9332 38.6641 50.6103C38.6641 51.372 39.1706 51.8798 39.846 51.8798Z" fill="#F20024"/>
<path d="M50.0625 50.6948C50.0625 51.3718 50.569 51.9643 51.2444 51.9643H64.2452C64.9205 51.9643 65.4271 51.3718 65.4271 50.6948C65.4271 50.0177 64.9205 49.4253 64.2452 49.4253H51.3288C50.6534 49.4253 50.0625 49.9331 50.0625 50.6948Z" fill="#F20024"/>
<path d="M27.0981 54.5879H18.7405C18.0651 54.5879 17.5586 55.1803 17.5586 55.8574C17.5586 56.5344 18.0651 57.1269 18.7405 57.1269H27.0981C27.7735 57.1269 28.28 56.5344 28.28 55.8574C28.3644 55.0957 27.7735 54.5879 27.0981 54.5879Z" fill="#F20024"/>
<path d="M51.3277 54.5879H32.9241C32.2487 54.5879 31.7422 55.1803 31.7422 55.8574C31.7422 56.5344 32.2487 57.1269 32.9241 57.1269H51.2433C51.9187 57.1269 52.4252 56.5344 52.4252 55.8574C52.5096 55.0957 52.0031 54.5879 51.3277 54.5879Z" fill="#F20024"/>
<path d="M64.2431 54.5879H55.0413C54.3659 54.5879 53.8594 55.1803 53.8594 55.8574C53.8594 56.5344 54.3659 57.1269 55.0413 57.1269H64.2431C64.9185 57.1269 65.425 56.5344 65.425 55.8574C65.5094 55.0957 64.9185 54.5879 64.2431 54.5879Z" fill="#F20024"/>
<path d="M80.6216 70.6682C80.6216 72.1915 79.3553 73.5457 77.8357 73.5457H5.23407C3.7145 73.5457 2.44819 72.2762 2.44819 70.6682V64.4053H27.1834L28.7874 68.1292C29.1251 68.8909 29.8004 69.3987 30.6446 69.3987H52.4251C53.2693 69.3987 53.9447 68.8909 54.2824 68.1292L55.8864 64.4053H80.6216V70.6682V70.6682ZM7.17574 16.9265C7.17574 15.5724 8.27321 14.3875 9.62394 14.3875H17.3906V17.7728H13.7605C12.3254 17.7728 11.2279 18.9577 11.2279 20.3964V61.7817H7.17574V16.9265ZM53.1849 64.4053L52.1719 66.8597H30.8979L29.8004 64.4053H53.1849ZM22.7935 45.0245H60.3607C63.3154 45.0245 65.7636 42.5702 65.7636 39.4388V20.3118H69.3936C69.4781 20.3118 69.5625 20.3964 69.5625 20.4811V47.9866C69.5625 48.6637 70.069 49.2561 70.7444 49.2561C71.4197 49.2561 71.9263 48.6637 71.9263 47.9866V20.4811C71.9263 19.0423 70.7444 17.8575 69.3936 17.8575H65.7636V14.4722H73.4458C74.7966 14.4722 75.894 15.5724 75.894 17.0111V61.951H71.9263V55.8575C71.9263 55.1804 71.4197 54.588 70.7444 54.588C70.069 54.588 69.5625 55.1804 69.5625 55.8575V61.951H13.5917V20.4811C13.5917 20.3964 13.6761 20.3118 13.7605 20.3118H17.3906V39.4388C17.3062 42.5702 19.7544 45.0245 22.7935 45.0245ZM19.7544 13.118H63.3154V39.5234C63.3154 41.216 61.9646 42.5702 60.3607 42.5702H22.7935C21.1895 42.5702 19.8388 41.216 19.8388 39.5234V13.118H19.7544ZM19.7544 5.58575C19.7544 3.8931 21.1051 2.53898 22.7091 2.53898H60.2762C61.8802 2.53898 63.231 3.8931 63.231 5.58575V10.6637H19.7544V5.58575ZM81.8879 61.8664H78.3422V16.9265C78.3422 14.1336 76.1473 11.9332 73.4458 11.9332H65.6791V5.58575C65.7636 2.45434 63.3154 0 60.2762 0H22.7935C19.8388 0 17.3906 2.45434 17.3906 5.58575V11.9332H9.62394C6.92248 11.9332 4.72755 14.1336 4.72755 16.9265V61.8664H1.18189C0.506523 61.8664 0 62.4588 0 63.1359V70.6682C0 73.6303 2.36377 76 5.23407 76H77.9201C80.7904 76 83.1542 73.6303 83.1542 70.6682V63.1359C83.0698 62.4588 82.5632 61.8664 81.8879 61.8664Z" fill="#F20024"/>
<path d="M24.2269 5.41646C24.1425 5.41646 24.0581 5.33183 23.9737 5.33183C23.5516 5.2472 23.1295 5.41646 22.8762 5.67036C22.1164 6.43205 22.7074 7.78617 23.7204 7.78617C23.8048 7.78617 23.8892 7.78617 23.9737 7.78617C24.4802 7.70154 24.8179 7.27838 24.9023 6.77058C24.9023 6.68595 24.9023 6.60132 24.9023 6.51668C24.9023 6.17815 24.7334 5.83962 24.5646 5.67036C24.4802 5.58573 24.3958 5.50109 24.2269 5.41646Z" fill="#F20024"/>
<path d="M28.1969 5.33183C27.8592 5.2472 27.3527 5.41646 27.0994 5.67036C26.8461 5.92426 26.7617 6.26279 26.7617 6.51668C26.7617 7.02448 27.015 7.44764 27.5215 7.70154C27.6059 7.70154 27.6903 7.78617 27.7748 7.78617C27.8592 7.78617 27.9436 7.78617 28.028 7.78617C28.1969 7.78617 28.3657 7.78617 28.5345 7.70154C28.5345 7.70154 28.619 7.61691 28.7034 7.61691C28.7878 7.61691 28.8722 7.53228 28.8722 7.44764C29.1255 7.19375 29.2099 6.85522 29.2099 6.60132C29.2099 6.26279 29.0411 5.92426 28.8722 5.75499C28.7034 5.50109 28.4501 5.33183 28.1969 5.33183Z" fill="#F20024"/>
<path d="M31.995 5.33171C31.9106 5.33171 31.8262 5.33171 31.7418 5.41634C31.6573 5.41634 31.5729 5.50097 31.5729 5.50097C31.4885 5.5856 31.4041 5.5856 31.4041 5.67024C31.1508 5.92413 31.0664 6.26266 31.0664 6.51656C31.0664 7.10899 31.4885 7.61678 32.0795 7.70142C32.1639 7.70142 32.2483 7.70142 32.3327 7.70142C32.6704 7.70142 33.1769 7.44752 33.3458 7.10899C33.4302 6.93972 33.5146 6.60119 33.5146 6.43193C33.4302 5.75487 32.7548 5.16244 31.995 5.33171Z" fill="#F20024"/>
</g>
<defs>
<clipPath id="clip0_3749_26904">
<rect width="83.0698" height="76" fill="white"/>
</clipPath>
</defs>
</svg>
