<svg width="68" height="61" viewBox="0 0 68 61" fill="none" xmlns="http://www.w3.org/2000/svg">
<g clip-path="url(#clip0_3749_26980)">
<path d="M23.8342 26.7638C23.5618 26.2204 22.8808 26.0845 22.3359 26.4242L9.87296 33.8963C9.53244 34.1001 9.32812 34.4398 9.32812 34.8473C9.32812 35.2549 9.53244 35.5946 9.87296 35.7983L22.3359 43.2705C22.5403 43.4064 22.6765 43.4064 22.8808 43.4064C23.2213 43.4064 23.6299 43.2026 23.7661 42.8629C24.0385 42.3195 23.9023 41.7081 23.4256 41.3685L12.529 34.8473L23.4256 28.3262C23.9704 27.9186 24.1747 27.3073 23.8342 26.7638Z" fill="#F20024"/>
<path d="M43.1796 42.795C43.3839 43.1347 43.7244 43.3384 44.0649 43.3384C44.2693 43.3384 44.4736 43.2705 44.6098 43.2026L57.0728 35.7304C57.4133 35.5266 57.6176 35.187 57.6176 34.7794C57.6176 34.3718 57.4133 34.0322 57.0728 33.8284L44.6098 26.3563C44.1331 26.0845 43.452 26.2204 43.1115 26.6959C42.8391 27.2393 42.9753 27.8507 43.452 28.1903L54.3486 34.7115L43.452 41.2326C43.0434 41.6402 42.8391 42.3195 43.1796 42.795Z" fill="#F20024"/>
<path d="M37.5932 26.696L27.6501 41.6403C27.3096 42.1158 27.4458 42.7951 27.9225 43.1347C28.1268 43.2706 28.3311 43.3385 28.5354 43.3385C28.876 43.3385 29.2165 43.2027 29.4208 42.863L39.3639 27.9187C39.7045 27.4432 39.5683 26.7639 39.0915 26.4243C38.6148 26.0846 37.9338 26.2205 37.5932 26.696Z" fill="#F20024"/>
<path d="M43.8588 2.17372H64.9029V8.62695H43.8588V2.17372ZM2.11122 2.17372H41.6795V8.62695H2.11122V2.17372ZM65.9244 0H1.08966C0.476726 0 0 0.475501 0 1.08686V59.9131C0 60.5245 0.476726 61 1.08966 61H65.9925C66.6055 61 67.0822 60.5245 67.0822 59.9131V48.4332C67.0822 47.8218 66.6055 47.3463 65.9925 47.3463C65.3796 47.3463 64.9029 47.8218 64.9029 48.4332V58.8263H2.11122V10.7327H64.8348V44.0857C64.8348 44.6971 65.3115 45.1726 65.9244 45.1726C66.5374 45.1726 67.0141 44.6971 67.0141 44.0857V1.08686C67.0141 0.475501 66.5374 0 65.9244 0Z" fill="#F20024"/>
<path d="M54.4156 4.21167C53.8026 4.21167 53.2578 4.7551 53.2578 5.36646C53.2578 5.97782 53.8026 6.52125 54.4156 6.52125C55.0285 6.52125 55.5733 5.97782 55.5733 5.36646C55.5733 4.7551 55.0285 4.21167 54.4156 4.21167Z" fill="#F20024"/>
<path d="M48.5562 4.21167C47.9433 4.21167 47.3984 4.7551 47.3984 5.36646C47.3984 5.97782 47.9433 6.52125 48.5562 6.52125C49.1691 6.52125 49.714 5.97782 49.714 5.36646C49.714 4.7551 49.1691 4.21167 48.5562 4.21167Z" fill="#F20024"/>
<path d="M60.271 4.21167C59.6581 4.21167 59.1133 4.7551 59.1133 5.36646C59.1133 5.97782 59.6581 6.52125 60.271 6.52125C60.884 6.52125 61.4288 5.97782 61.4288 5.36646C61.4288 4.7551 60.884 4.21167 60.271 4.21167Z" fill="#F20024"/>
</g>
<defs>
<clipPath id="clip0_3749_26980">
<rect width="67.0141" height="61" fill="white"/>
</clipPath>
</defs>
</svg>
