<svg width="109" height="49" viewBox="0 0 109 49" fill="none" xmlns="http://www.w3.org/2000/svg">
<path d="M109.001 43.0146L78.8118 13.0133L72.7891 18.9987L84.8814 31.0067L72.7984 43.0146L78.8118 49L90.8948 36.992L102.978 49L109.001 43.0146Z" fill="#FE4817"/>
<path d="M39.6491 0H24.0817H15.5674H0V8.46144H15.5674V48.0971H24.0817V8.46144H39.6491V0Z" fill="#FE4817"/>
<path d="M59.7965 0V15.1729C56.9022 13.3112 53.4553 12.2221 49.7554 12.2221C39.5645 12.2221 31.2656 20.4601 31.2656 30.5971C31.2656 40.7247 39.5551 48.9721 49.7554 48.9721C53.4553 48.9721 56.9022 47.883 59.7965 46.0213V48.1064H68.3108V0H59.7965ZM49.7554 40.5386C44.2385 40.5386 39.7425 36.0705 39.7425 30.5878C39.7425 25.1051 44.2385 20.637 49.7554 20.637C55.2724 20.637 59.7684 25.1051 59.7684 30.5878C59.7684 36.0798 55.2818 40.5386 49.7554 40.5386Z" fill="#FE4817"/>
<path d="M100.429 27.5253L109 18.9987L102.977 13.0133L94.4062 21.5399L100.429 27.5253Z" fill="#FE4817"/>
</svg>
