<svg width="21" height="21" viewBox="0 0 21 21" fill="none" xmlns="http://www.w3.org/2000/svg">
<path d="M11.5254 7.375V5.27539H9.47461V7.375H11.5254ZM11.5254 15.7246V9.47461H9.47461V15.7246H11.5254ZM3.12695 3.17578C5.17773 1.125 7.63542 0.0996094 10.5 0.0996094C13.3646 0.0996094 15.806 1.125 17.8242 3.17578C19.875 5.19401 20.9004 7.63542 20.9004 10.5C20.9004 13.3646 19.875 15.8223 17.8242 17.873C15.806 19.8913 13.3646 20.9004 10.5 20.9004C7.63542 20.9004 5.17773 19.8913 3.12695 17.873C1.10872 15.8223 0.0996094 13.3646 0.0996094 10.5C0.0996094 7.63542 1.10872 5.19401 3.12695 3.17578Z" fill="#121212"/>
</svg>
