<svg width="21" height="21" viewBox="0 0 21 21" fill="none" xmlns="http://www.w3.org/2000/svg">
<path d="M11.0371 5.27539V10.7441L15.7246 13.5273L14.9434 14.8457L9.47461 11.5254V5.27539H11.0371ZM4.5918 16.4082C6.25195 18.0358 8.22135 18.8496 10.5 18.8496C12.7786 18.8496 14.7318 18.0358 16.3594 16.4082C18.0195 14.748 18.8496 12.7786 18.8496 10.5C18.8496 8.22135 18.0195 6.26823 16.3594 4.64062C14.7318 2.98047 12.7786 2.15039 10.5 2.15039C8.22135 2.15039 6.25195 2.98047 4.5918 4.64062C2.96419 6.26823 2.15039 8.22135 2.15039 10.5C2.15039 12.7786 2.96419 14.748 4.5918 16.4082ZM3.12695 3.17578C5.17773 1.125 7.63542 0.0996094 10.5 0.0996094C13.3646 0.0996094 15.806 1.125 17.8242 3.17578C19.875 5.19401 20.9004 7.63542 20.9004 10.5C20.9004 13.3646 19.875 15.8223 17.8242 17.873C15.806 19.8913 13.3646 20.9004 10.5 20.9004C7.63542 20.9004 5.17773 19.8913 3.12695 17.873C1.10872 15.8223 0.0996094 13.3646 0.0996094 10.5C0.0996094 7.63542 1.10872 5.19401 3.12695 3.17578Z" fill="#121212"/>
</svg>
