<svg width="19" height="21" viewBox="0 0 19 21" fill="none" xmlns="http://www.w3.org/2000/svg">
<path d="M15.75 14.748C16.5964 14.748 17.3125 15.0573 17.8984 15.6758C18.4844 16.2617 18.7773 16.9616 18.7773 17.7754C18.7773 18.6217 18.4681 19.3542 17.8496 19.9727C17.2637 20.5586 16.5638 20.8516 15.75 20.8516C14.9362 20.8516 14.2201 20.5586 13.6016 19.9727C13.0156 19.3542 12.7227 18.6217 12.7227 17.7754C12.7227 17.4499 12.7389 17.222 12.7715 17.0918L5.39844 12.7949C4.77995 13.3483 4.0638 13.625 3.25 13.625C2.40365 13.625 1.67122 13.3158 1.05273 12.6973C0.434245 12.0788 0.125 11.3464 0.125 10.5C0.125 9.65365 0.434245 8.92122 1.05273 8.30273C1.67122 7.68424 2.40365 7.375 3.25 7.375C4.0638 7.375 4.77995 7.65169 5.39844 8.20508L12.7227 3.95703C12.6576 3.63151 12.625 3.38737 12.625 3.22461C12.625 2.37826 12.9342 1.64583 13.5527 1.02734C14.1712 0.408854 14.9036 0.0996094 15.75 0.0996094C16.5964 0.0996094 17.3288 0.408854 17.9473 1.02734C18.5658 1.64583 18.875 2.37826 18.875 3.22461C18.875 4.07096 18.5658 4.80339 17.9473 5.42188C17.3288 6.04036 16.5964 6.34961 15.75 6.34961C14.9688 6.34961 14.2526 6.05664 13.6016 5.4707L6.27734 9.76758C6.34245 10.0931 6.375 10.3372 6.375 10.5C6.375 10.6628 6.34245 10.9069 6.27734 11.2324L13.6992 15.5293C14.2852 15.0085 14.9688 14.748 15.75 14.748Z" fill="#121212"/>
</svg>
