<svg width="25" height="21" viewBox="0 0 25 21" fill="none" xmlns="http://www.w3.org/2000/svg">
<path d="M19.2605 14.8143C20.2326 13.4535 21.1074 11.8982 21.4962 10.2457C21.885 8.69039 22.0795 7.1351 22.0795 5.57981C22.0795 5.3854 22.2739 5.3854 22.3711 5.2882C23.1487 4.70496 23.732 4.02453 24.3152 3.34409C24.4124 3.14968 24.4124 3.05247 24.4124 2.95526C24.4124 2.85806 24.4124 2.95526 24.3152 2.95526C23.5375 3.34409 22.7599 3.5385 21.885 3.6357C22.2739 3.5385 22.8571 2.85806 23.0515 2.56644C23.4403 2.17762 23.732 1.59439 23.8292 1.10836V1.01116C23.732 1.01116 23.732 1.01116 23.732 1.01116C22.8571 1.49718 21.885 1.88601 20.8158 2.08042C20.7186 2.08042 20.7186 2.08042 20.6214 1.98321C20.5242 1.88601 20.427 1.7888 20.3298 1.69159C19.9409 1.30277 19.4549 1.01116 18.9689 0.816746C18.2884 0.52513 17.608 0.427925 16.8304 0.427925C16.1499 0.427925 15.4695 0.719541 14.789 1.01116C14.2058 1.30277 13.6226 1.7888 13.1366 2.37203C12.6505 2.95527 12.3589 3.6357 12.1645 4.31614C11.9701 4.99658 11.9701 5.67702 12.0673 6.35746L8.95672 5.87143C6.33217 5.09378 3.99924 3.73291 2.05514 1.49718C1.95793 1.39998 1.86073 1.39998 1.76352 1.49718C0.597055 3.24688 1.18029 6.06584 2.63837 7.42672C2.83278 7.62113 3.02719 7.81554 3.2216 7.91274C3.1244 7.91274 2.15234 7.81554 1.27749 7.42672C1.18029 7.32951 1.08308 7.42672 1.08308 7.52392C1.08308 7.71833 1.08308 7.91274 1.08308 8.10715C1.27749 9.85685 2.54116 11.5093 4.19366 12.1898C4.38807 12.287 4.58248 12.3842 4.87409 12.3842C4.48527 12.4814 4.09645 12.4814 3.02719 12.4814C2.92998 12.4814 2.83278 12.4814 2.92999 12.6758C3.70763 14.9115 5.55453 15.592 6.8182 15.9808C7.01261 15.9808 7.20702 15.9808 7.30423 16.078C6.8182 16.7584 5.36012 17.2445 4.58248 17.5361C3.31881 18.0221 1.86073 18.2165 0.499849 18.0221C0.305438 18.0221 0.208232 18.0221 0.208232 18.0221C0.111027 18.0221 0.208233 18.1193 0.305438 18.2165C0.499849 18.3137 0.69426 18.5081 0.985876 18.6053C1.56911 18.897 2.24955 19.2858 2.83278 19.4802C6.42938 20.7439 10.512 20.7439 14.0114 19.1886C16.1499 18.1193 17.8996 16.564 19.2605 14.8143Z" fill="white"/>
<path fill-rule="evenodd" clip-rule="evenodd" d="M7.4986 20.2578C7.59581 20.2578 9.53992 20.2578 7.4986 20.2578Z" fill="white"/>
<path fill-rule="evenodd" clip-rule="evenodd" d="M8.27629 20.2578C8.76232 20.2578 8.27629 20.1606 8.27629 20.2578Z" fill="white"/>
</svg>
