<svg width="60" height="90" viewBox="0 0 60 90" fill="none" xmlns="http://www.w3.org/2000/svg">
<path d="M58.6629 74.7609C57.9497 74.7609 57.3256 75.3884 57.3256 76.1055V86.6832C57.3256 87.0418 56.969 87.4004 56.6124 87.4004H49.6584V61.494C49.6584 60.7768 49.0344 60.1494 48.3211 60.1494C47.6079 60.1494 46.9839 60.7768 46.9839 61.494V87.3107H31.2929V69.1135C31.2929 68.3964 30.6688 67.7689 29.9556 67.7689C29.2424 67.7689 28.6183 68.3964 28.6183 69.1135V87.3107H23.3583C22.6451 87.3107 22.021 87.9382 22.021 88.6553C22.021 89.3725 22.6451 90 23.3583 90H56.5232C58.3954 90 59.8219 88.4761 59.8219 86.6832V76.0159C60.0002 75.2988 59.3761 74.7609 58.6629 74.7609Z" fill="#F20024"/>
<path d="M36.4636 54.1434C35.4829 53.4263 32.8083 51.5438 31.8276 50.8267L36.5527 45L40.208 46.4343L36.4636 54.1434ZM34.5022 63.6454C33.9673 61.4044 33.1649 59.5219 32.4517 58.0877C33.0758 57.8187 33.6999 57.3705 34.2348 56.8327C35.8395 58.8048 36.8202 61.2251 37.3551 62.5697L34.5022 63.6454ZM29.9554 55.9363C28.9747 55.9363 27.9941 55.488 27.4591 54.5916L29.9554 52.7988C32.0059 54.2331 31.471 53.8745 32.4517 54.5916C31.9168 55.488 30.9361 55.9363 29.9554 55.9363ZM25.4978 63.6454L22.734 62.4801C23.2689 61.1355 24.2496 58.8048 25.8544 56.743C26.3893 57.2809 26.9242 57.7291 27.6374 57.998C26.8351 59.5219 26.0327 61.4044 25.4978 63.6454ZM19.7028 46.4343L23.3581 45L28.0832 50.8267H27.9941C27.2808 51.3645 23.9822 53.6952 23.4472 54.0538L19.7028 46.4343ZM34.8588 40.6972V43.0279L29.9554 49.1235L25.052 43.0279V40.6972C26.6568 41.3247 28.3507 41.6833 30.1337 41.6833C31.8276 41.6833 33.4324 41.3247 34.8588 40.6972ZM20.2377 29.4024V25.5478C20.951 25.2789 21.7533 24.9203 22.4666 24.5618C27.4591 22.0518 31.2927 18.1076 33.0758 16.1355C35.4829 18.5558 37.9792 19.7211 39.4948 20.259C39.584 20.259 39.6731 20.3486 39.7623 20.3486V29.4024C39.7623 34.6912 35.4829 39.0837 30.1337 39.0837C23.9822 38.994 20.2377 34.1534 20.2377 29.4024ZM16.7608 38.994C16.4042 38.994 16.0475 38.6355 16.0475 38.2769V16.6733C16.0475 8.96414 22.2883 2.5996 29.9554 2.5996C37.6226 2.5996 43.8633 8.8745 43.8633 16.5837V20.0797C43.3284 19.9004 42.7935 19.8108 42.2585 19.7211C42.1694 18.8247 41.5453 18.0179 40.6538 17.749C38.6924 17.1215 36.4636 15.8665 34.5914 13.8944C33.6998 12.998 32.2734 12.9084 31.3819 13.8048C31.0253 14.0737 25.9435 20.4382 19.0788 22.9482C18.1872 23.3068 17.5632 24.2032 17.5632 25.0996V29.1335C17.5632 33.0777 19.3462 36.5737 22.1991 38.8147H16.7608V38.994ZM45.0223 25.3685C45.0223 26.8924 43.9524 28.1474 42.3477 28.3267V22.4104C43.8633 22.5896 45.0223 23.9343 45.0223 25.3685ZM43.9524 38.2769C43.9524 38.6355 43.5958 38.994 43.2392 38.994H37.7117C40.1189 37.1116 41.8128 34.243 42.2585 31.0159C42.7935 31.0159 43.4175 30.8367 43.9524 30.6574V38.2769ZM53.1352 48.6753C53.0461 48.5857 53.0461 48.5857 53.1352 48.6753L37.5334 42.5797V41.6833H43.2392C45.1114 41.6833 46.5379 40.1594 46.5379 38.3665V28.7749C47.2511 27.7888 47.6077 26.6235 47.6077 25.4582C47.6077 24.2928 47.2511 23.0378 46.5379 22.1414V16.7629C46.5379 7.44024 39.1382 0 29.9554 0C20.8618 0 13.4621 7.44024 13.4621 16.6733V38.2769C13.4621 40.1594 14.9777 41.5936 16.7608 41.5936H22.4666V42.49L6.86478 48.5857C6.59732 48.7649 0 51.5438 0 59.3426V86.6833C0 88.5657 1.5156 90 3.29866 90H17.2957C18.0089 90 18.633 89.3725 18.633 88.6554C18.633 87.9382 18.0089 87.3108 17.2957 87.3108H12.9272V61.494C12.9272 60.7769 12.3031 60.1494 11.5899 60.1494C10.8767 60.1494 10.2526 60.7769 10.2526 61.494V87.3108H3.29866C2.94205 87.3108 2.58544 86.9522 2.58544 86.5936V59.3426C2.58544 53.4263 7.48886 51.1853 7.84547 51.0956L17.2065 47.4203L21.3076 55.6673C21.575 56.2052 22.0208 56.5637 22.5557 56.8327C21.2184 58.8944 20.416 61.0458 20.0594 62.0319C19.7028 63.1076 20.1486 64.2729 21.2184 64.7211L25.052 66.3347C25.5869 66.6036 26.3001 66.5139 26.8351 66.245C27.37 65.9761 27.8157 65.4382 27.9049 64.8108C28.4398 62.4801 29.2422 60.5976 29.9554 59.1633C30.6686 60.5976 31.5602 62.5697 32.0059 64.8108C32.0951 65.4382 32.5409 65.9761 33.0758 66.245C33.6107 66.5139 34.2348 66.6036 34.8588 66.3347L38.6924 64.7211C39.7623 64.2729 40.208 63.1076 39.8514 62.0319C39.4948 60.9562 38.6033 58.8944 37.3551 56.8327C37.89 56.6534 38.3358 56.2052 38.6033 55.6673L42.7043 47.4203L52.0654 51.0956C52.3328 51.1853 57.3254 53.4263 57.3254 59.3426V69.9203C57.3254 70.6375 57.9495 71.2649 58.6627 71.2649C59.3759 71.2649 60 70.6375 60 69.9203V59.3426C60 51.5438 53.4027 48.7649 53.1352 48.6753Z" fill="#F20024"/>
</svg>
