<svg width="30" height="30" viewBox="0 0 30 30" fill="none" xmlns="http://www.w3.org/2000/svg">
<path d="M8.2687 21.9513V11.7074H11.4882V21.9513H8.2687ZM9.87846 6.58545C10.9028 6.58545 11.7077 7.39033 11.7077 8.41472C11.7077 9.43911 10.9028 10.244 9.87846 10.244C8.85407 10.244 8.04919 9.43911 8.04919 8.41472C7.97602 7.39033 8.85407 6.58545 9.87846 6.58545Z" fill="#F20024"/>
<path d="M16.6101 11.7074V13.0976C17.1955 12.2928 18.0735 11.4147 19.6101 11.4147C22.8296 11.4147 23.415 13.5367 23.415 16.3172V21.9513H20.1955V16.9757C20.1955 15.805 20.1955 14.2684 18.5126 14.2684C16.8296 14.2684 16.6101 15.5855 16.6101 16.9025V22.0245H13.3906V11.7074H16.6101Z" fill="#F20024"/>
</svg>
