<svg width="79" height="80" viewBox="0 0 79 80" fill="none" xmlns="http://www.w3.org/2000/svg">
<g clip-path="url(#clip0_3191_31220)">
<path d="M13.6901 35.3659H9.63978C9.55877 35.3659 9.47777 35.2846 9.47777 35.2033V14.7967C9.47777 14.3089 9.23475 13.9024 8.74871 13.6585L4.13133 11.3008L8.74871 8.94309C9.15374 8.69919 9.47777 8.29268 9.47777 7.80488V2.76423C9.47777 2.68293 9.55877 2.60163 9.63978 2.60163H65.9393C66.0203 2.60163 66.1014 2.68293 66.1014 2.76423V31.5447C66.1014 32.2764 66.6684 32.8455 67.3975 32.8455C68.1265 32.8455 68.6936 32.2764 68.6936 31.5447V2.76423C68.6936 1.21951 67.4785 0 65.9393 0H9.63978C8.10066 0 6.88556 1.21951 6.88556 2.76423V7.07317L0.729059 10.1626C0.24302 10.4065 0 10.813 0 11.3008C0 11.7886 0.24302 12.1951 0.729059 12.439L6.88556 15.5285V35.122C6.88556 36.6667 8.10066 37.8862 9.63978 37.8862H13.6901C14.4192 37.8862 14.9862 37.3171 14.9862 36.5854C14.9862 35.935 14.4192 35.3659 13.6901 35.3659Z" fill="#F20024"/>
<path d="M27.6229 77.3983H20.0893V37.8861H27.6229V77.3983ZM78.333 41.8699C78.333 38.2926 75.4167 35.3658 71.8525 35.3658H55.8942C58.7294 30.1625 60.2685 23.7398 60.2685 16.9918C60.2685 13.4146 57.3523 10.4878 53.788 10.4878C50.2237 10.4878 47.3075 13.4146 47.3075 16.9918C47.3075 27.1544 39.0448 35.3658 29 35.3658H18.7932C18.0641 35.3658 17.4971 35.9349 17.4971 36.6666V78.7804C17.4971 79.5121 18.0641 80.0812 18.7932 80.0812H28.919C29.6481 80.0812 30.2151 79.5121 30.2151 78.7804V37.8861C41.151 37.2357 49.8187 28.13 49.8187 16.9918C49.8187 14.7967 51.6008 13.0081 53.788 13.0081C55.9752 13.0081 57.7573 14.7967 57.7573 16.9918C57.7573 24.1463 55.9752 30.8943 52.6539 36.0162C52.4109 36.4227 52.4109 36.9105 52.5729 37.317C52.8159 37.7235 53.221 37.9674 53.707 37.9674H71.8525C74.0396 37.9674 75.8218 39.756 75.8218 41.9512C75.8218 44.1463 74.0396 45.9349 71.8525 45.9349H65.3719C64.6429 45.9349 64.0758 46.504 64.0758 47.2357C64.0758 47.9674 64.6429 48.5365 65.3719 48.5365H69.6653C71.8525 48.5365 73.6346 50.3251 73.6346 52.5203C73.6346 54.7154 71.8525 56.504 69.6653 56.504H65.3719C64.6429 56.504 64.0758 57.0731 64.0758 57.8048C64.0758 58.5365 64.6429 59.1056 65.3719 59.1056H67.5591C69.7463 59.1056 71.5284 60.8942 71.5284 63.0894C71.5284 65.2845 69.7463 67.0731 67.5591 67.0731H65.3719C64.6429 67.0731 64.0758 67.6422 64.0758 68.3739C64.0758 69.1056 64.6429 69.6747 65.3719 69.6747C67.5591 69.6747 69.3413 71.4633 69.3413 73.6585C69.3413 75.8536 67.5591 77.6422 65.3719 77.6422H34.0224C33.2933 77.6422 32.7263 78.2113 32.7263 78.943C32.7263 79.6747 33.2933 80.2438 34.0224 80.2438H65.4529C69.0172 80.2438 71.9335 77.317 71.9335 73.7398C71.9335 72.0324 71.2854 70.4064 70.1513 69.2682C72.5005 68.2926 74.1206 65.9349 74.1206 63.252C74.1206 61.5447 73.4726 59.9186 72.3385 58.7804C74.6877 57.8048 76.3078 55.4471 76.3078 52.7642C76.3078 51.0569 75.6598 49.4308 74.5257 48.2926C76.7129 46.9105 78.333 44.5528 78.333 41.8699Z" fill="#F20024"/>
<path d="M61.5649 73.5773V41.7074C61.5649 40.9757 60.9978 40.4066 60.2688 40.4066C59.5397 40.4066 58.9727 40.9757 58.9727 41.7074V73.5773C58.9727 74.309 59.5397 74.8781 60.2688 74.8781C60.9978 74.8781 61.5649 74.309 61.5649 73.5773Z" fill="#F20024"/>
</g>
<defs>
<clipPath id="clip0_3191_31220">
<rect width="78.3333" height="80" fill="white"/>
</clipPath>
</defs>
</svg>
