<svg width="126" height="55" viewBox="0 0 126 55" fill="none" xmlns="http://www.w3.org/2000/svg">
<g clip-path="url(#clip0_6308_170762)">
<path fill-rule="evenodd" clip-rule="evenodd" d="M29.3984 35.7783V20.0388H33.5652V32.2359H40.6898V35.7783H29.3984Z" fill="#92A2AE"/>
<path fill-rule="evenodd" clip-rule="evenodd" d="M74.0527 20.0392H80.5447C81.5065 20.0189 82.4685 20.0711 83.4219 20.1954C84.0283 20.2889 84.606 20.5102 85.1145 20.8437C85.6286 21.1848 86.0558 21.6349 86.3637 22.1599C86.6972 22.7184 86.8685 23.3541 86.8593 23.9994C86.8657 24.72 86.6526 25.4265 86.2468 26.0303C85.8446 26.6452 85.2643 27.1316 84.5785 27.4285C85.4789 27.6497 86.28 28.1503 86.8593 28.854C87.3972 29.5345 87.6813 30.3716 87.6653 31.2286C87.6638 31.9546 87.4872 32.6701 87.1495 33.3181C86.8313 33.966 86.3471 34.524 85.7431 34.9389C85.0878 35.3635 84.3322 35.6202 83.5469 35.6849C83.0096 35.7422 81.6905 35.7773 79.5896 35.7904H74.0527V20.0509V20.0392ZM77.333 22.6559V26.2998H79.4808C80.7569 26.2998 81.5521 26.2816 81.8665 26.2451C82.3598 26.2074 82.8256 26.0092 83.1882 25.6827C83.3504 25.5201 83.4766 25.3271 83.5591 25.1156C83.6415 24.904 83.6785 24.6784 83.6678 24.4525C83.6875 24.0271 83.5439 23.6096 83.2648 23.2808C82.9399 22.9529 82.4998 22.755 82.0317 22.7262C81.7066 22.6924 80.7663 22.6741 79.2108 22.6715L77.333 22.6559ZM77.333 28.9048V33.115H80.3674C81.1196 33.1375 81.8725 33.1062 82.62 33.0213C83.0857 32.953 83.5128 32.7309 83.829 32.3925C84.1481 32.0181 84.3119 31.5419 84.2884 31.0568C84.3024 30.6286 84.1784 30.2068 83.9337 29.85C83.6809 29.5102 83.322 29.2583 82.9102 29.1313C82.4629 28.9829 81.4917 28.9048 80.0007 28.9048H77.333Z" fill="#92A2AE"/>
<path fill-rule="evenodd" clip-rule="evenodd" d="M89.2529 20.0384H95.2573C96.2968 20.0038 97.3364 20.1049 98.3481 20.3391C99.2839 20.5982 100.129 21.0991 100.794 21.7881C101.498 22.5182 102.029 23.3886 102.35 24.3384C102.731 25.5435 102.909 26.8003 102.878 28.0604C102.902 29.1961 102.734 30.328 102.382 31.4114C102.037 32.4577 101.44 33.4095 100.641 34.1883C99.9842 34.7756 99.1949 35.2062 98.336 35.4458C97.3911 35.6948 96.4134 35.8067 95.4346 35.7778H89.2529V20.0384V20.0384ZM92.5332 22.6981V33.1259H94.9833C95.6478 33.1465 96.3126 33.0967 96.9659 32.9775C97.457 32.8684 97.9126 32.643 98.2917 32.3214C98.7112 31.8973 99.0073 31.3731 99.15 30.8021C99.4 29.8613 99.5113 28.8909 99.4805 27.9198C99.5163 26.9743 99.4049 26.0289 99.15 25.1156C98.9752 24.5408 98.6553 24.0173 98.2192 23.5924C97.7931 23.2139 97.2673 22.9571 96.7 22.8504C95.8091 22.7219 94.9083 22.6709 94.0081 22.6981H92.5332Z" fill="#92A2AE"/>
<path d="M124.48 27.4047C124.156 26.6759 123.693 26.0133 123.114 25.4519C122.553 24.9083 121.892 24.4723 121.164 24.167L123.231 22.5267C123.326 22.45 123.403 22.3539 123.456 22.2453C123.509 22.1366 123.537 22.018 123.537 21.8979V20.0466H111.234L112.649 22.5228H119.209L117.098 24.0225V26.4283L117.71 26.3424C118.356 26.2551 119.011 26.267 119.653 26.3776C120.221 26.4948 120.746 26.7563 121.176 27.1352C121.759 27.6377 122.164 28.3051 122.335 29.043C122.506 29.7809 122.433 30.5522 122.127 31.2478C121.744 32.1433 121.011 32.8553 120.088 33.228C119.717 33.3784 119.324 33.4681 118.923 33.4935L120.233 35.7861C120.525 35.7137 120.812 35.621 121.091 35.5088C122.616 34.8794 123.831 33.7023 124.48 32.2242C124.81 31.4624 124.98 30.6445 124.98 29.8184C124.98 28.9922 124.81 28.1744 124.48 27.4125V27.4047Z" fill="#92A2AE"/>
<path fill-rule="evenodd" clip-rule="evenodd" d="M47.464 20.0388H43.4061L46.779 25.9362L41.5645 35.8017H45.6426L48.9349 29.3849L52.332 35.7783H56.4706L47.464 20.0388Z" fill="#92A2AE"/>
<path fill-rule="evenodd" clip-rule="evenodd" d="M108.184 20.0388H104.122L107.499 25.9362L102.284 35.8017H106.362L109.655 29.3849L113.052 35.7783H117.19L108.184 20.0388Z" fill="#92A2AE"/>
<path fill-rule="evenodd" clip-rule="evenodd" d="M68.3065 20.0388L64.4823 29.5177L60.654 20.0388H57.1279V35.7783H60.6298L60.654 28.2366L63.6441 35.7783H63.9866H64.9739H65.3164L68.3065 28.2366L68.3307 35.7783H71.8326V20.0388H68.3065Z" fill="#92A2AE"/>
<path fill-rule="evenodd" clip-rule="evenodd" d="M11.0338 27.1277L5.92001 18.5354C4.45698 19.5801 3.25664 20.932 2.40879 22.4898C1.56094 24.0477 1.08754 25.7711 1.02398 27.5313C0.960416 29.2915 1.30835 31.0428 2.04175 32.6543C2.77515 34.2657 3.87503 35.6956 5.25912 36.8369L11.0338 27.1277Z" fill="#92A2AE"/>
<path fill-rule="evenodd" clip-rule="evenodd" d="M13.1051 30.6108L8.30566 38.6798C9.82167 39.3095 11.4546 39.632 13.104 39.6273C14.7534 39.6226 16.3844 39.2908 17.8965 38.6524L13.1051 30.6108Z" fill="#92A2AE"/>
<path d="M13.0494 16.2581C11.6978 16.257 10.3558 16.4775 9.08008 16.9103L20.9397 36.8014C22.8073 35.244 24.1378 33.1693 24.7521 30.8568C25.3663 28.5443 25.2348 26.1049 24.3753 23.867C23.5158 21.6291 21.9695 19.7001 19.9445 18.3397C17.9196 16.9793 15.5132 16.2529 13.0494 16.2581V16.2581ZM14.5404 22.1477L13.5249 20.398C13.4771 20.3185 13.446 20.2307 13.4334 20.1396C13.4207 20.0484 13.4267 19.9558 13.451 19.8669C13.4753 19.778 13.5175 19.6946 13.5751 19.6216C13.6328 19.5485 13.7047 19.4872 13.7868 19.4411L15.5801 18.4374C15.7464 18.3453 15.9436 18.3207 16.1286 18.369C16.3135 18.4173 16.4713 18.5346 16.5674 18.6952L17.603 20.4292C17.6982 20.591 17.7237 20.7827 17.6739 20.9626C17.6241 21.1425 17.5031 21.2961 17.3371 21.39L15.5478 22.3898C15.3831 22.4845 15.1864 22.5122 15.0007 22.4668C14.815 22.4214 14.6553 22.3067 14.5565 22.1477H14.5404ZM17.2202 26.6079L16.1846 24.8738C16.0904 24.7118 16.0655 24.5204 16.1152 24.3408C16.1649 24.1612 16.2853 24.0076 16.4505 23.913L18.2397 22.9132C18.4062 22.8206 18.6036 22.7953 18.7892 22.8428C18.9747 22.8903 19.1335 23.0068 19.2311 23.167L20.2667 24.905C20.3617 25.0662 20.3871 25.2573 20.3373 25.4366C20.2874 25.6159 20.1665 25.7688 20.0007 25.8619L18.2115 26.8656C18.0461 26.9531 17.8522 26.9751 17.6704 26.927C17.4886 26.879 17.333 26.7646 17.2363 26.6079H17.2202ZM22.7208 30.3728L20.9276 31.3727C20.8453 31.4188 20.7545 31.4487 20.6603 31.4607C20.5661 31.4727 20.4704 31.4666 20.3787 31.4426C20.2869 31.4187 20.201 31.3774 20.1258 31.3211C20.0505 31.2649 19.9875 31.1948 19.9403 31.1149L18.8966 29.3808C18.8024 29.2188 18.7776 29.0274 18.8273 28.8478C18.877 28.6682 18.9973 28.5146 19.1625 28.42L20.9518 27.4202C21.1187 27.3279 21.3165 27.3033 21.5021 27.3515C21.6877 27.3998 21.8462 27.5171 21.9431 27.678L22.9747 29.4121C23.071 29.5725 23.0983 29.7631 23.0508 29.9428C23.0033 30.1226 22.8848 30.277 22.7208 30.3728V30.3728Z" fill="#92A2AE"/>
</g>
<defs>
<clipPath id="clip0_6308_170762">
<rect width="126" height="54.871" fill="white"/>
</clipPath>
</defs>
</svg>
