<svg width="83" height="81" viewBox="0 0 83 81" fill="none" xmlns="http://www.w3.org/2000/svg">
<g clip-path="url(#clip0_2393_26736)">
<path d="M9.43982 10.0202C8.85649 10.0202 8.35649 9.53188 8.35649 8.9622C8.35649 8.39251 8.85649 7.90421 9.43982 7.90421C10.1065 7.82283 10.6065 8.31113 10.6065 8.9622C10.6065 9.53188 10.1065 10.0202 9.43982 10.0202ZM9.43982 5.46271C7.52315 5.46271 5.93982 7.00899 5.93982 8.88082C5.93982 10.7526 7.52315 12.2989 9.43982 12.2989C11.3565 12.2989 12.9398 10.7526 12.9398 8.88082C12.9398 7.00899 11.4398 5.46271 9.43982 5.46271Z" fill="#FE4817"/>
<path d="M18.4395 10.0202C17.8561 10.0202 17.3561 9.53188 17.3561 8.9622C17.3561 8.39251 17.8561 7.90421 18.4395 7.90421C19.0228 7.90421 19.5228 8.39251 19.5228 8.9622C19.5228 9.53188 19.0228 10.0202 18.4395 10.0202ZM18.4395 5.46271C16.5228 5.46271 14.9395 7.00899 14.9395 8.88082C14.9395 10.7526 16.5228 12.2989 18.4395 12.2989C20.3561 12.2989 21.9394 10.7526 21.9394 8.88082C21.9394 7.00899 20.3561 5.46271 18.4395 5.46271Z" fill="#FE4817"/>
<path d="M27.3565 10.0202C26.7732 10.0202 26.2732 9.53188 26.2732 8.9622C26.2732 8.39251 26.7732 7.90421 27.3565 7.90421C27.9398 7.90421 28.4398 8.39251 28.4398 8.9622C28.5232 9.53188 28.0232 10.0202 27.3565 10.0202ZM27.3565 5.46271C25.4398 5.46271 23.8565 7.00899 23.8565 8.88082C23.8565 10.7526 25.4398 12.2989 27.3565 12.2989C29.2732 12.2989 30.8565 10.7526 30.8565 8.88082C30.9398 7.00899 29.3565 5.46271 27.3565 5.46271Z" fill="#FE4817"/>
<path d="M80.1064 14.5777H3.10645V6.11379C3.10645 4.56751 4.43978 3.26537 6.02311 3.26537H77.2731C78.8564 3.26537 80.1898 4.56751 80.1898 6.11379V14.5777H80.1064ZM80.1064 56.0833H3.02311V16.9378H80.1064V56.0833ZM80.1064 62.8381C80.1064 64.303 78.9398 65.5238 77.5231 65.6051C77.4398 65.6051 77.3564 65.6051 77.1898 65.6051H5.85645C5.77311 65.6051 5.68978 65.6051 5.52311 65.6051C4.10645 65.4424 2.93978 64.2216 2.93978 62.8381V58.362H80.0231V62.8381H80.1064ZM51.4398 72.1972H31.6064V67.9653H51.4398V72.1972ZM77.3564 0.986633H5.85645C2.93978 0.986633 0.606445 3.26537 0.606445 6.11379V62.8381C0.606445 65.4424 2.52311 67.5583 5.10645 67.9653C5.35645 67.9653 5.60645 68.0466 5.93978 68.0466H29.2731V72.2786H25.6064C23.1898 72.2786 21.1898 74.2318 21.1898 76.5919V79.1148C21.1898 80.1728 22.1064 81.068 23.1898 81.068H43.4398C44.1064 81.068 44.6064 80.5797 44.6064 79.9286C44.6064 79.2776 44.1064 78.7893 43.4398 78.7893H23.6064V76.6733C23.6064 75.6153 24.5231 74.7201 25.6064 74.7201H57.5231C58.6064 74.7201 59.5231 75.6153 59.5231 76.6733V78.7893H50.8564C50.1898 78.7893 49.6898 79.2776 49.6898 79.9286C49.6898 80.5797 50.1898 81.068 50.8564 81.068H59.8564C60.9398 81.068 61.8564 80.1728 61.8564 79.1148V76.5919C61.8564 74.2318 59.8564 72.2786 57.4398 72.2786H53.8564V68.0466H77.1898C77.4398 68.0466 77.7731 68.0466 78.0231 67.9653C80.5231 67.5583 82.5231 65.4424 82.5231 62.8381V57.2226L82.6064 6.11379C82.6064 3.26537 80.2731 0.986633 77.3564 0.986633Z" fill="#FE4817"/>
<path d="M7.18986 22.3906H10.3565C11.0232 22.3906 11.5232 21.9023 11.5232 21.2512C11.5232 20.6001 11.0232 20.1118 10.3565 20.1118H7.18986C6.52319 20.1118 6.02319 20.6001 6.02319 21.2512C6.02319 21.9023 6.52319 22.3906 7.18986 22.3906Z" fill="#FE4817"/>
<path d="M14.4396 22.3906H33.9396C34.6062 22.3906 35.1062 21.9023 35.1062 21.2512C35.1062 20.6001 34.6062 20.1118 33.9396 20.1118H14.4396C13.7729 20.1118 13.2729 20.6001 13.2729 21.2512C13.2729 21.9023 13.7729 22.3906 14.4396 22.3906Z" fill="#FE4817"/>
<path d="M32.5233 27.5176C33.1899 27.5176 33.6899 27.0293 33.6899 26.3782C33.6899 25.7271 33.1899 25.2388 32.5233 25.2388H24.6066C23.9399 25.2388 23.4399 25.7271 23.4399 26.3782C23.4399 27.0293 23.9399 27.5176 24.6066 27.5176H32.5233Z" fill="#FE4817"/>
<path d="M21.9397 26.3782C21.9397 25.7271 21.4397 25.2388 20.7731 25.2388H18.0231C17.3564 25.2388 16.8564 25.7271 16.8564 26.3782C16.8564 27.0293 17.3564 27.5176 18.0231 27.5176H20.7731C21.4397 27.5176 21.9397 27.0293 21.9397 26.3782Z" fill="#FE4817"/>
<path d="M7.18995 27.5176H13.8566C14.5233 27.5176 15.0233 27.0293 15.0233 26.3782C15.0233 25.7271 14.5233 25.2388 13.8566 25.2388H7.18995C6.52328 25.2388 6.02328 25.7271 6.02328 26.3782C5.93995 27.0293 6.52328 27.5176 7.18995 27.5176Z" fill="#FE4817"/>
<path d="M37.1062 31.4242H45.0229V51.7701H37.1062V31.4242ZM65.8562 35.6561H73.7729V51.7701H65.8562V35.6561ZM30.6895 51.7701H22.7729V41.9226H30.6895V51.7701ZM34.6895 51.7701H33.0229V41.5971C33.0229 40.4577 32.1062 39.5625 30.9395 39.5625H22.4395C21.2729 39.5625 20.3562 40.4577 20.3562 41.5971V52.9094C20.3562 53.5605 20.8562 54.0488 21.5229 54.0488H74.9395C75.6062 54.0488 76.1062 53.5605 76.1062 52.9094V35.412C76.1062 34.2726 75.1895 33.3774 74.0229 33.3774H65.6062C64.4395 33.3774 63.5229 34.2726 63.5229 35.412V51.7701H61.8562V33.1332C61.8562 32.4822 61.3562 31.9939 60.6895 31.9939C60.0229 31.9939 59.5229 32.4822 59.5229 33.1332V51.6887H51.6062V22.2278H59.5229V25.9715C59.5229 26.6225 60.0229 27.1108 60.6895 27.1108C61.3562 27.1108 61.8562 26.6225 61.8562 25.9715V21.9023C61.8562 20.7629 60.9395 19.8677 59.7729 19.8677H51.1895C50.0229 19.8677 49.1062 20.7629 49.1062 21.9023V51.6887H47.4395V31.18C47.4395 30.0406 46.5229 29.1454 45.3562 29.1454H36.8562C35.6895 29.1454 34.7729 30.0406 34.7729 31.18L34.6895 51.7701Z" fill="#FE4817"/>
</g>
<defs>
<clipPath id="clip0_2393_26736">
<rect width="82" height="80" fill="white" transform="translate(0.606445 0.986633)"/>
</clipPath>
</defs>
</svg>
