<svg width="90" height="90" viewBox="0 0 90 90" fill="none" xmlns="http://www.w3.org/2000/svg">
<g clip-path="url(#clip0_5162_30097)">
<path d="M41.4876 88.125H48.8849V80.625H41.4876V88.125Z" stroke="#F20024" stroke-width="3" stroke-miterlimit="10"/>
<path d="M61.8301 88.125H69.2274V80.625H61.8301V88.125Z" stroke="#F20024" stroke-width="3" stroke-miterlimit="10"/>
<path d="M80.3233 69.375H87.7205V61.875H80.3233V69.375Z" stroke="#F20024" stroke-width="3" stroke-miterlimit="10"/>
<path d="M45.1863 46.875V80.625" stroke="#F20024" stroke-width="3" stroke-miterlimit="10"/>
<path d="M21.1452 37.5V46.875H69.2274V37.5" stroke="#F20024" stroke-width="3" stroke-miterlimit="10"/>
<path d="M34.0904 39.375H56.2822" stroke="#F20024" stroke-width="3" stroke-miterlimit="10"/>
<path d="M65.5288 80.625V73.125H52.5836V46.875" stroke="#F20024" stroke-width="3" stroke-miterlimit="10"/>
<path d="M59.9808 46.875V65.625H80.3232" stroke="#F20024" stroke-width="3" stroke-miterlimit="10"/>
<path d="M28.5425 80.625H21.1452V88.125H28.5425V80.625Z" stroke="#F20024" stroke-width="3" stroke-miterlimit="10"/>
<path d="M10.0493 61.875H2.65204V69.375H10.0493V61.875Z" stroke="#F20024" stroke-width="3" stroke-miterlimit="10"/>
<path d="M24.8438 80.625V73.125H37.789V46.875" stroke="#F20024" stroke-width="3" stroke-miterlimit="10"/>
<path d="M30.3918 46.875V65.625H10.0493" stroke="#F20024" stroke-width="3" stroke-miterlimit="10"/>
<path d="M65.5287 54.375H71.0767C73.5169 54.3801 75.9283 53.8412 78.1402 52.7963C80.3521 51.7514 82.3103 50.2262 83.8762 48.3287C85.442 46.4311 86.5772 44.2077 87.2013 41.8159C87.8254 39.4241 87.9231 36.9224 87.4876 34.4881C87.0521 32.0537 86.0939 29.7463 84.681 27.7291C83.268 25.7119 81.4349 24.0345 79.3115 22.8155C77.188 21.5965 74.8262 20.8658 72.3933 20.6752C69.9603 20.4846 67.5158 20.8387 65.2329 21.7125C64.3849 15.9188 61.4264 10.6576 56.9409 6.96651C52.4555 3.27545 46.7686 1.42254 41.0021 1.77325C35.2355 2.12395 29.8079 4.65281 25.7898 8.86104C21.7716 13.0693 19.4547 18.6513 19.2959 24.5063C18.6825 24.4255 18.065 24.3816 17.4466 24.375C13.5228 24.375 9.75976 25.9554 6.98525 28.7684C4.21074 31.5815 2.65204 35.3968 2.65204 39.375C2.65204 43.3533 4.21074 47.1686 6.98525 49.9816C9.75976 52.7947 13.5228 54.375 17.4466 54.375H24.8438" stroke="#F20024" stroke-width="3" stroke-miterlimit="10"/>
<path d="M26.6931 25.3125C26.698 21.0871 28.3557 17.0363 31.3026 14.0485C34.2494 11.0607 38.2448 9.37996 42.4123 9.375" stroke="#F20024" stroke-width="3" stroke-miterlimit="10"/>
</g>
<defs>
<clipPath id="clip0_5162_30097">
<rect width="88.7671" height="90" fill="white" transform="translate(0.802734)"/>
</clipPath>
</defs>
</svg>
