<svg width="90" height="90" viewBox="0 0 90 90" fill="none" xmlns="http://www.w3.org/2000/svg">
<path d="M67.5 54.375H71.25C73.7241 54.3801 76.169 53.8412 78.4116 52.7963C80.6542 51.7514 82.6397 50.2262 84.2273 48.3287C85.8149 46.4311 86.9658 44.2077 87.5986 41.8159C88.2313 39.4241 88.3304 36.9224 87.8888 34.4881C87.4472 32.0537 86.4758 29.7463 85.0432 27.7291C83.6107 25.7119 81.7521 24.0345 79.5992 22.8155C77.4462 21.5965 75.0516 20.8658 72.5848 20.6752C70.1181 20.4846 67.6396 20.8387 65.325 21.7125C64.4653 15.9188 61.4657 10.6576 56.9179 6.96651C52.3701 3.27545 46.6043 1.42254 40.7577 1.77325C34.911 2.12395 29.408 4.65281 25.3341 8.86104C21.2601 13.0693 18.911 18.6513 18.75 24.5063C18.1281 24.4255 17.502 24.3816 16.875 24.375C12.8968 24.375 9.08144 25.9554 6.2684 28.7684C3.45535 31.5815 1.875 35.3968 1.875 39.375C1.875 43.3533 3.45535 47.1686 6.2684 49.9816C9.08144 52.7947 12.8968 54.375 16.875 54.375H22.5" stroke="#F20024" stroke-width="3" stroke-miterlimit="10"/>
<path d="M26.25 25.3125C26.255 21.0871 27.9357 17.0363 30.9235 14.0485C33.9113 11.0607 37.9621 9.37996 42.1875 9.375" stroke="#F20024" stroke-width="3" stroke-miterlimit="10"/>
<path d="M15 61.875V86.25" stroke="#F20024" stroke-width="3" stroke-miterlimit="10"/>
<path d="M22.5 67.5L15 61.875L7.5 67.5" stroke="#F20024" stroke-width="3" stroke-miterlimit="10"/>
<path d="M75 84.375V60" stroke="#F20024" stroke-width="3" stroke-miterlimit="10"/>
<path d="M82.5 78.75L75 84.375L67.5 78.75" stroke="#F20024" stroke-width="3" stroke-miterlimit="10"/>
<path d="M61.875 73.125H28.125" stroke="#F20024" stroke-width="3" stroke-miterlimit="10"/>
<path d="M58.125 35.625H31.875C29.8039 35.625 28.125 37.3039 28.125 39.375V84.375C28.125 86.4461 29.8039 88.125 31.875 88.125H58.125C60.1961 88.125 61.875 86.4461 61.875 84.375V39.375C61.875 37.3039 60.1961 35.625 58.125 35.625Z" stroke="#F20024" stroke-width="3" stroke-miterlimit="10"/>
<path d="M39.375 80.625H50.625" stroke="#F20024" stroke-width="3" stroke-miterlimit="10"/>
<path d="M33.75 43.125H43.125" stroke="#F20024" stroke-width="3" stroke-miterlimit="10"/>
<path d="M33.75 50.625H43.125" stroke="#F20024" stroke-width="3" stroke-miterlimit="10"/>
<path d="M33.75 58.125H43.125" stroke="#F20024" stroke-width="3" stroke-miterlimit="10"/>
<path d="M33.75 65.625H43.125" stroke="#F20024" stroke-width="3" stroke-miterlimit="10"/>
<path d="M46.875 43.125H56.25" stroke="#F20024" stroke-width="3" stroke-miterlimit="10"/>
<path d="M46.875 50.625H56.25" stroke="#F20024" stroke-width="3" stroke-miterlimit="10"/>
<path d="M46.875 58.125H56.25" stroke="#F20024" stroke-width="3" stroke-miterlimit="10"/>
</svg>
