<svg width="16" height="16" viewBox="0 0 16 16" fill="none" xmlns="http://www.w3.org/2000/svg">
<path d="M14.6666 5.00004C14.6667 5.04517 14.6575 5.08983 14.6397 5.13131C14.622 5.17279 14.596 5.21024 14.5633 5.24137L8.26398 11.2414C8.20198 11.3004 8.11962 11.3334 8.03398 11.3334H7.96732C7.88168 11.3334 7.79932 11.3004 7.73732 11.2414L1.43932 5.24137C1.37531 5.18037 1.33816 5.09645 1.33603 5.00806C1.33391 4.91966 1.36698 4.83405 1.42798 4.77004C1.48898 4.70604 1.57291 4.66888 1.6613 4.66676C1.7497 4.66463 1.83531 4.69771 1.89932 4.75871L7.99998 10.5727L14.104 4.75871C14.1512 4.7139 14.2106 4.68392 14.2747 4.67247C14.3388 4.66102 14.4049 4.6686 14.4647 4.69427C14.5246 4.71994 14.5756 4.76258 14.6115 4.81692C14.6474 4.87126 14.6665 4.93492 14.6666 5.00004Z" fill="#EB6619"/>
<path d="M14.6666 4.00004C14.6667 4.04517 14.6575 4.08983 14.6397 4.13131C14.622 4.17279 14.596 4.21024 14.5633 4.24137L8.26398 10.2414C8.20198 10.3004 8.11962 10.3334 8.03398 10.3334H7.96732C7.88168 10.3334 7.79932 10.3004 7.73732 10.2414L1.43932 4.24137C1.37531 4.18037 1.33816 4.09645 1.33603 4.00806C1.33391 3.91966 1.36698 3.83405 1.42798 3.77004C1.48898 3.70604 1.57291 3.66888 1.6613 3.66676C1.7497 3.66463 1.83531 3.69771 1.89932 3.75871L7.99998 9.57271L14.104 3.75871C14.1512 3.7139 14.2106 3.68392 14.2747 3.67247C14.3388 3.66102 14.4049 3.6686 14.4647 3.69427C14.5246 3.71994 14.5756 3.76258 14.6115 3.81692C14.6474 3.87126 14.6665 3.93492 14.6666 4.00004Z" fill="#EB6619"/>
</svg>
