<svg width="41" height="40" viewBox="0 0 41 40" fill="none" xmlns="http://www.w3.org/2000/svg">
<path fill-rule="evenodd" clip-rule="evenodd" d="M17.2807 22.439V32C17.2807 32.1951 17.3783 32.2927 17.5734 32.2927H21.9636C22.1587 32.2927 22.2563 32.1951 22.2563 32L22.2563 19.9024H25.4758C25.6709 19.9024 25.7685 19.8049 25.7685 19.6098L26.0612 15.9024C26.0612 15.7073 25.9636 15.6098 25.7685 15.6098L22.2563 15.6098V12.9756C22.2563 12.3902 22.7441 11.9024 23.3295 11.9024H25.7685C25.9636 11.9024 26.0612 11.8049 26.0612 11.6098V8C26.0612 7.80488 25.9636 7.70732 25.7685 7.70732L21.5734 7.70732C19.1344 7.70732 17.0856 9.65854 17.0856 12.1951V15.6098H14.8417C14.6465 15.6098 14.549 15.7073 14.549 15.9024V19.6098C14.549 19.8049 14.6465 19.9024 14.8417 19.9024H17.0856L17.0856 22.439H17.2807Z" fill="#263F30"/>
</svg>
