<svg width="34" height="34" viewBox="0 0 34 34" fill="none" xmlns="http://www.w3.org/2000/svg">
<path d="M13.1667 33.0134L12.1867 28.5417C11.814 26.556 10.7368 24.7716 9.15334 23.5167L7.15334 22.1834L6.75334 21.9151C6.61441 21.8343 6.45656 21.7917 6.29584 21.7917C6.13512 21.7917 5.97727 21.8343 5.83834 21.9151C5.55501 22.1334 5.64001 22.6351 5.74001 22.9701C5.84132 23.1263 5.95801 23.2721 6.08834 23.4051C7.60834 25.0417 8.66668 26.0801 8.66668 26.0801C8.77284 26.2449 8.81751 26.4418 8.79282 26.6363C8.76813 26.8308 8.67566 27.0104 8.53168 27.1434C8.3891 27.2757 8.20474 27.3539 8.01054 27.3646C7.81634 27.3752 7.62454 27.3176 7.46834 27.2017C7.46834 27.2017 6.38834 26.1634 4.84168 24.4884C4.33295 23.9737 3.93469 23.3605 3.67131 22.6865C3.40794 22.0124 3.28499 21.2917 3.31001 20.5684V13.2334C3.29422 13.0844 3.22352 12.9465 3.11167 12.8467C2.99911 12.8061 2.8759 12.8061 2.76334 12.8467H2.53001C2.46561 12.8376 2.4 12.8425 2.33766 12.8611C2.27533 12.8797 2.21774 12.9115 2.16884 12.9544C2.11994 12.9973 2.08088 13.0502 2.05433 13.1096C2.02778 13.169 2.01436 13.2334 2.01501 13.2984V22.8967C1.95569 23.4747 2.02854 24.0587 2.22806 24.6044C2.42757 25.1501 2.74853 25.6433 3.16667 26.0467C4.23167 27.5867 7.70668 32.4434 7.70668 32.4434L6.36001 33.4151C6.36001 33.4151 2.86001 28.5401 1.90334 27.1167C1.34323 26.5582 0.913982 25.8824 0.646531 25.1379C0.37908 24.3935 0.280083 23.599 0.356674 22.8117V13.3167C0.348204 12.7558 0.562626 12.2143 0.952888 11.8113C1.34315 11.4082 1.87738 11.1764 2.43834 11.1667H2.70334C3.23419 11.1167 3.764 11.2724 4.18334 11.6017C4.63399 11.9512 4.93248 12.461 5.01668 13.0251V20.4117C5.41479 20.1777 5.86821 20.0543 6.33001 20.0543C6.79181 20.0543 7.24523 20.1777 7.64334 20.4117L8.12668 20.7451C8.25834 20.8284 8.44168 21.0117 10.105 22.0784C12.0375 23.5925 13.3498 25.7608 13.795 28.1751L14.795 32.6634C14.8202 32.7706 14.8238 32.8817 14.8058 32.9902C14.7878 33.0988 14.7484 33.2028 14.69 33.296C14.6316 33.3893 14.5552 33.4701 14.4654 33.5338C14.3756 33.5974 14.2741 33.6426 14.1667 33.6667H13.975C13.7862 33.6655 13.6034 33.6002 13.4565 33.4815C13.3097 33.3628 13.2075 33.1978 13.1667 33.0134V33.0134ZM20.0517 33.6334H19.8683C19.761 33.6093 19.6595 33.5642 19.5697 33.5007C19.4799 33.4372 19.4035 33.3566 19.345 33.2634C19.2262 33.0738 19.1873 32.8449 19.2367 32.6267L20.2167 28.1717C20.6633 25.7901 21.9459 23.6464 23.8333 22.1267C25.5117 21.0201 25.745 20.8367 25.8783 20.7534L26.36 20.4201C26.7584 20.1861 27.2121 20.0627 27.6742 20.0627C28.1362 20.0627 28.5899 20.1861 28.9883 20.4201V13.3001C28.9809 13.1941 28.9809 13.0877 28.9883 12.9817C29.0673 12.4299 29.3592 11.9309 29.8017 11.5917C30.2205 11.2613 30.7507 11.1055 31.2817 11.1567H31.5317C31.8137 11.1568 32.0928 11.2135 32.3524 11.3234C32.6121 11.4334 32.847 11.5943 33.0433 11.7967C33.2402 12.0003 33.3946 12.241 33.4976 12.5048C33.6006 12.7686 33.6502 13.0503 33.6433 13.3334V22.9151C33.7106 23.7246 33.5958 24.5388 33.3074 25.2981C33.019 26.0575 32.5643 26.7426 31.9767 27.3034C31.1117 28.5934 27.62 33.4701 27.62 33.4701L26.2733 32.4984C26.2733 32.4984 29.7483 27.6417 30.7133 26.2351C31.1467 25.8228 31.4811 25.3177 31.6912 24.7577C31.9014 24.1977 31.9819 23.5973 31.9267 23.0017V13.3334C31.9309 13.2123 31.8882 13.0942 31.8075 13.0039C31.7267 12.9135 31.6142 12.8578 31.4933 12.8484H31.1783C31.1171 12.839 31.0545 12.8419 30.9944 12.8571C30.9343 12.8723 30.8778 12.8994 30.8283 12.9367C30.7785 12.9741 30.7366 13.0211 30.7051 13.0749C30.6736 13.1287 30.6532 13.1883 30.645 13.2501V20.6201C30.6668 21.3431 30.5394 22.0628 30.2707 22.7344C30.002 23.406 29.5978 24.015 29.0833 24.5234C27.57 26.1634 26.4883 27.2184 26.4883 27.2184C26.3263 27.3511 26.1202 27.418 25.9112 27.4056C25.7021 27.3933 25.5053 27.3026 25.36 27.1517C25.2127 26.9996 25.1288 26.7971 25.1254 26.5854C25.122 26.3736 25.1993 26.1685 25.3417 26.0117C25.3417 26.0117 26.405 25.0251 27.885 23.3451C28.0293 23.2098 28.1573 23.0582 28.2667 22.8934C28.3667 22.5601 28.45 22.0601 28.1683 21.8217C28.0266 21.7487 27.8695 21.7105 27.71 21.7105C27.5506 21.7105 27.3934 21.7487 27.2517 21.8217L26.8533 22.0884C26.72 22.1901 26.47 22.3734 24.8083 23.4634C23.2463 24.7271 22.19 26.5097 21.8317 28.4867L20.8517 32.9751C20.8108 33.16 20.7081 33.3255 20.5605 33.4442C20.413 33.563 20.2294 33.628 20.04 33.6284L20.0517 33.6334ZM16.2717 18.4251L8.43834 10.8884L8.22168 10.6551C7.12985 9.48983 6.54192 7.94084 6.58561 6.3446C6.6293 4.74837 7.30108 3.23385 8.45501 2.13008C9.56115 1.08163 11.0022 0.457795 12.5237 0.368745C14.0451 0.279696 15.5491 0.731162 16.77 1.64341C18.0001 0.716196 19.5195 0.255979 21.0574 0.344806C22.5952 0.433634 24.0515 1.06573 25.1667 2.12841C25.2803 2.22613 25.3862 2.33256 25.4833 2.44674C26.5598 3.60415 27.1371 5.13894 27.0903 6.71887C27.0436 8.2988 26.3764 9.79674 25.2333 10.8884L17.4183 18.4251C17.2608 18.5765 17.0518 18.6628 16.8333 18.6667C16.6225 18.6591 16.4222 18.5729 16.2717 18.4251ZM9.52001 3.35174C8.68967 4.14861 8.20661 5.24045 8.17542 6.39088C8.14423 7.5413 8.56741 8.65772 9.35334 9.49841L9.52001 9.66508L16.77 16.6484L23.9533 9.68174C24.7886 8.90269 25.2831 7.82591 25.3299 6.68473C25.3767 5.54355 24.972 4.42989 24.2033 3.58508L23.97 3.35008C23.0743 2.49487 21.8835 2.01769 20.645 2.01769C19.4066 2.01769 18.2158 2.49487 17.32 3.35008C17.1638 3.49474 16.9587 3.57511 16.7458 3.57511C16.5329 3.57511 16.3279 3.49474 16.1717 3.35008C15.2723 2.50202 14.0828 2.02968 12.8467 2.02968C11.6105 2.02968 10.4211 2.50202 9.52168 3.35008L9.52001 3.35174Z" fill="white"/>
</svg>
