<svg width="37" height="40" viewBox="0 0 37 40" fill="none" xmlns="http://www.w3.org/2000/svg">
<g clip-path="url(#clip0_4993_26608)">
<path d="M32.2713 39.9999H4.50542C3.91549 40.0047 3.33034 39.8928 2.78392 39.6704C2.2375 39.4479 1.74062 39.1195 1.32176 38.7041C0.902898 38.2886 0.570275 37.7943 0.343407 37.2497C0.116538 36.7051 -1.98162e-05 36.1211 2.52693e-09 35.5311V7.76551C0.00966351 6.57694 0.48859 5.44035 1.33249 4.60331C2.17639 3.76627 3.31681 3.29671 4.50542 3.29675H32.2713C33.4565 3.29675 34.5927 3.76747 35.4308 4.60554C36.2689 5.44362 36.74 6.58029 36.74 7.76551V35.5311C36.74 36.7164 36.2689 37.853 35.4308 38.6911C34.5927 39.5292 33.4565 39.9999 32.2713 39.9999V39.9999ZM4.50542 5.12825C3.80254 5.12819 3.12785 5.40488 2.62742 5.89846C2.12699 6.39204 1.84113 7.06269 1.8315 7.76551V35.5311C1.8315 36.2403 2.11343 36.9204 2.6149 37.4219C3.11637 37.9234 3.79624 38.2051 4.50542 38.2051H32.2713C32.9741 38.1954 33.645 37.9096 34.1385 37.4091C34.6321 36.9087 34.9086 36.234 34.9085 35.5311V7.76551C34.9085 7.06604 34.6305 6.3953 34.1359 5.9007C33.6413 5.40609 32.9707 5.12825 32.2713 5.12825H4.50542Z" fill="white"/>
<path d="M10.6228 8.05865C10.3799 8.05865 10.1471 7.9621 9.97532 7.79037C9.80358 7.61863 9.70703 7.38577 9.70703 7.1429V0.915751C9.70703 0.672879 9.80358 0.440023 9.97532 0.268286C10.1471 0.0965498 10.3799 0 10.6228 0C10.8657 0 11.0985 0.0965498 11.2702 0.268286C11.442 0.440023 11.5385 0.672879 11.5385 0.915751V7.1429C11.5295 7.38288 11.4302 7.61049 11.2604 7.78031C11.0906 7.95012 10.8628 8.04959 10.6228 8.05865V8.05865Z" fill="white"/>
<path d="M26.0095 8.05865C25.7666 8.05865 25.5329 7.9621 25.3611 7.79037C25.1894 7.61863 25.0938 7.38577 25.0938 7.1429V0.915751C25.0938 0.672879 25.1894 0.440023 25.3611 0.268286C25.5329 0.0965498 25.7666 0 26.0095 0C26.2524 0 26.4852 0.0965498 26.657 0.268286C26.8287 0.440023 26.9253 0.672879 26.9253 0.915751V7.1429C26.9253 7.38577 26.8287 7.61863 26.657 7.79037C26.4852 7.9621 26.2524 8.05865 26.0095 8.05865Z" fill="white"/>
<path d="M35.8243 13.6263H0.915751C0.672879 13.6263 0.440023 13.53 0.268286 13.3582C0.0965498 13.1865 0 12.9534 0 12.7106C0 12.4677 0.0965498 12.2348 0.268286 12.0631C0.440023 11.8913 0.672879 11.7948 0.915751 11.7948H35.8243C36.0672 11.7948 36.3 11.8913 36.4717 12.0631C36.6435 12.2348 36.74 12.4677 36.74 12.7106C36.74 12.9534 36.6435 13.1865 36.4717 13.3582C36.3 13.53 36.0672 13.6263 35.8243 13.6263Z" fill="white"/>
</g>
<defs>
<clipPath id="clip0_4993_26608">
<rect width="36.7033" height="40" fill="white"/>
</clipPath>
</defs>
</svg>
