<svg width="41" height="40" viewBox="0 0 41 40" fill="none" xmlns="http://www.w3.org/2000/svg">
<path d="M31.5003 21C30.948 21 30.5003 20.5523 30.5003 20C30.5003 19.4477 30.948 19 31.5003 19L31.5003 21ZM32.3074 19.2929C32.6979 19.6834 32.6979 20.3166 32.3074 20.7071L25.9435 27.0711C25.5529 27.4616 24.9198 27.4616 24.5292 27.0711C24.1387 26.6805 24.1387 26.0474 24.5292 25.6569L30.1861 20L24.5292 14.3431C24.1387 13.9526 24.1387 13.3195 24.5292 12.9289C24.9198 12.5384 25.5529 12.5384 25.9435 12.9289L32.3074 19.2929ZM31.5003 19L31.6003 19L31.6003 21L31.5003 21L31.5003 19Z" fill="#263F30"/>
<path d="M8.50031 21C9.05259 21 9.50031 20.5523 9.50031 20C9.50031 19.4477 9.05259 19 8.50031 19L8.50031 21ZM7.6932 19.2929C7.30267 19.6834 7.30267 20.3166 7.6932 20.7071L14.0572 27.0711C14.4477 27.4616 15.0808 27.4616 15.4714 27.0711C15.8619 26.6805 15.8619 26.0474 15.4714 25.6569L9.81452 20L15.4714 14.3431C15.8619 13.9526 15.8619 13.3195 15.4714 12.9289C15.0808 12.5384 14.4477 12.5384 14.0572 12.9289L7.6932 19.2929ZM8.50031 19L8.40031 19L8.40031 21L8.50031 21L8.50031 19Z" fill="#263F30"/>
</svg>
