<svg width="41" height="40" viewBox="0 0 41 40" fill="none" xmlns="http://www.w3.org/2000/svg">
<path fill-rule="evenodd" clip-rule="evenodd" d="M28.3457 13.5944C28.3457 14.3898 27.7009 15.0344 26.9057 15.0344C26.1106 15.0344 25.4657 14.3898 25.4657 13.5944C25.4657 12.7991 26.1106 12.1544 26.9057 12.1544C27.7011 12.1544 28.3457 12.7991 28.3457 13.5944ZM20.5002 23.9999C18.2911 23.9999 16.5002 22.2091 16.5002 20C16.5002 17.7909 18.2911 16.0001 20.5002 16.0001C22.7093 16.0001 24.5001 17.7909 24.5001 20C24.5001 22.2091 22.7093 23.9999 20.5002 23.9999ZM20.5002 13.8378C17.0969 13.8378 14.338 16.5967 14.338 20C14.338 23.4033 17.0969 26.1622 20.5002 26.1622C23.9035 26.1622 26.6624 23.4033 26.6624 20C26.6624 16.5967 23.9035 13.8378 20.5002 13.8378ZM20.5002 10.1623C23.7044 10.1623 24.0839 10.1744 25.3491 10.2322C26.5191 10.2856 27.1546 10.481 27.5774 10.6454C28.1374 10.8631 28.5372 11.1232 28.9572 11.5432C29.3772 11.963 29.6372 12.3628 29.8549 12.923C30.0192 13.3458 30.2147 13.9812 30.2682 15.1512C30.3259 16.4167 30.3381 16.7962 30.3381 20.0004C30.3381 23.2046 30.3259 23.5841 30.2682 24.8493C30.2147 26.0193 30.0194 26.6548 29.8549 27.0776C29.6372 27.6376 29.3772 28.0374 28.9572 28.4574C28.5374 28.8774 28.1376 29.1374 27.5774 29.3551C27.1546 29.5194 26.5191 29.7149 25.3491 29.7684C24.0839 29.8261 23.7044 29.8383 20.5002 29.8383C17.2958 29.8383 16.9163 29.8261 15.6511 29.7684C14.4811 29.7149 13.8456 29.5196 13.4228 29.3551C12.8627 29.1374 12.463 28.8774 12.043 28.4574C11.6232 28.0376 11.3629 27.6378 11.1452 27.0776C10.981 26.6548 10.7854 26.0193 10.732 24.8493C10.6742 23.5839 10.6621 23.2044 10.6621 20.0004C10.6621 16.7962 10.6742 16.4167 10.732 15.1512C10.7854 13.9812 10.9808 13.3458 11.1452 12.923C11.3629 12.3629 11.623 11.9632 12.043 11.5432C12.4628 11.1232 12.8626 10.8631 13.4228 10.6454C13.8456 10.4812 14.4811 10.2856 15.6511 10.2322C16.9165 10.1744 17.296 10.1623 20.5002 10.1623ZM20.5002 8C17.2412 8 16.8325 8.01388 15.5526 8.07219C14.2754 8.1305 13.4029 8.33337 12.6398 8.63C11.8506 8.93656 11.1814 9.347 10.5143 10.0141C9.84718 10.6813 9.43675 11.3504 9.13018 12.1396C8.83356 12.9029 8.63068 13.7752 8.57237 15.0524C8.51406 16.3323 8.50018 16.7411 8.50018 20C8.50018 23.2589 8.51406 23.6677 8.57237 24.9476C8.63068 26.2248 8.83356 27.0971 9.13018 27.8604C9.43675 28.6496 9.84718 29.3188 10.5143 29.9859C11.1814 30.653 11.8506 31.0633 12.6398 31.37C13.4031 31.6666 14.2754 31.8695 15.5526 31.9278C16.8325 31.9861 17.2412 32 20.5002 32C23.7591 32 24.1679 31.9861 25.4477 31.9278C26.725 31.8695 27.5972 31.6666 28.3606 31.37C29.1497 31.0633 29.8189 30.653 30.4861 29.9859C31.1532 29.3188 31.5634 28.6496 31.8702 27.8604C32.1668 27.0971 32.3697 26.2248 32.428 24.9476C32.4863 23.6677 32.5002 23.2589 32.5002 20C32.5002 16.7411 32.4863 16.3323 32.428 15.0524C32.3697 13.7752 32.1668 12.9029 31.8702 12.1396C31.5634 11.3504 31.1532 10.6813 30.4861 10.0141C29.8189 9.347 29.1497 8.93675 28.3606 8.63C27.5972 8.33337 26.725 8.1305 25.4477 8.07219C24.1679 8.01388 23.7591 8 20.5002 8Z" fill="#263F30"/>
</svg>
