<svg width="41" height="40" viewBox="0 0 41 40" fill="none" xmlns="http://www.w3.org/2000/svg">
<path d="M11.5245 29.2683L11.5245 15.6098H15.8172L15.8172 29.2683H11.5245ZM13.6709 8.78049C15.0367 8.78049 16.1099 9.85366 16.1099 11.2195C16.1099 12.5854 15.0367 13.6585 13.6709 13.6585C12.305 13.6585 11.2319 12.5854 11.2319 11.2195C11.1343 9.85366 12.305 8.78049 13.6709 8.78049Z" fill="#263F30"/>
<path d="M22.6464 15.6098V17.4634C23.4269 16.3902 24.5977 15.2195 26.6464 15.2195C30.9391 15.2195 31.7196 18.0488 31.7196 21.7561V29.2683H27.4269V22.6341C27.4269 21.0732 27.4269 19.0244 25.183 19.0244C22.9391 19.0244 22.6464 20.7805 22.6464 22.5366L22.6464 29.3659L18.3538 29.3659L18.3538 15.6098L22.6464 15.6098Z" fill="#263F30"/>
</svg>
