<svg width="40" height="40" viewBox="0 0 40 40" fill="none" xmlns="http://www.w3.org/2000/svg">
    <path d="M27.0181 24.1664C26.355 24.1666 25.6994 24.3088 25.0957 24.5833C24.492 24.8579 23.9541 25.2584 23.5181 25.7581L17.2348 22.7065C17.4977 22.1204 17.6301 21.4842 17.6229 20.8419C17.6157 20.1996 17.469 19.5666 17.1931 18.9865L23.5781 15.9781C24.2999 16.7568 25.2713 17.2588 26.3242 17.3969C27.377 17.5351 28.4451 17.3008 29.3434 16.7346C30.2417 16.1684 30.9138 15.3059 31.2433 14.2965C31.5728 13.287 31.539 12.1941 31.1478 11.207C30.7566 10.2198 30.0326 9.40054 29.1011 8.89087C28.1695 8.3812 27.0891 8.21325 26.0468 8.41612C25.0045 8.61898 24.0659 9.17987 23.3935 10.0017C22.7211 10.8236 22.3572 11.8546 22.3648 12.9164C22.366 13.4944 22.4792 14.0666 22.6981 14.6014L16.2481 17.6381C15.604 16.994 14.7827 16.5562 13.8889 16.3806C12.995 16.205 12.0692 16.2995 11.2293 16.6521C10.3893 17.0047 9.67341 17.5995 9.17278 18.3605C8.67215 19.1215 8.40944 20.0144 8.41818 20.9253C8.42693 21.8362 8.70677 22.7237 9.22191 23.475C9.73706 24.2263 10.4642 24.8072 11.3107 25.1436C12.1573 25.48 13.0848 25.5568 13.9751 25.3641C14.8654 25.1713 15.6782 24.7179 16.3098 24.0615L22.6682 27.1497C22.4698 27.6601 22.3658 28.2023 22.3615 28.7498C22.3486 29.6718 22.6101 30.5769 23.113 31.3498C23.6159 32.1227 24.3373 32.7286 25.1855 33.0904C26.0336 33.4522 26.9702 33.5536 27.8761 33.3816C28.782 33.2097 29.6163 32.7721 30.2729 32.1247C30.9295 31.4773 31.3787 30.6492 31.5634 29.7458C31.7481 28.8424 31.66 27.9044 31.3101 27.0513C30.9603 26.1981 30.3647 25.4683 29.5989 24.9546C28.8331 24.4409 27.9319 24.1665 27.0098 24.1664H27.0181ZM27.0181 9.94983C27.603 9.95673 28.1727 10.1364 28.6557 10.4664C29.1387 10.7964 29.5133 11.2618 29.7324 11.8042C29.9514 12.3465 30.0051 12.9416 29.8868 13.5144C29.7685 14.0872 29.4834 14.6122 29.0674 15.0234C28.6514 15.4345 28.123 15.7135 27.5488 15.8251C26.9747 15.9367 26.3803 15.876 25.8406 15.6506C25.3008 15.4252 24.8398 15.0452 24.5155 14.5584C24.1912 14.0716 24.0182 13.4997 24.0182 12.9148C24.0256 12.1249 24.3452 11.3699 24.9072 10.8147C25.4693 10.2595 26.2281 9.94922 27.0181 9.95146V9.94983ZM12.9815 23.8498C12.3966 23.8429 11.8268 23.6632 11.3438 23.3332C10.8608 23.0033 10.4863 22.5378 10.2672 21.9954C10.0482 21.4531 9.99439 20.8581 10.1127 20.2852C10.231 19.7124 10.5162 19.1873 10.9322 18.7761C11.3482 18.365 11.8766 18.086 12.4508 17.9744C13.025 17.8628 13.6193 17.9236 14.159 18.149C14.6988 18.3744 15.1598 18.7544 15.4841 19.2412C15.8084 19.728 15.9814 20.2999 15.9815 20.8848C15.9749 21.6752 15.6556 22.4308 15.0934 22.9864C14.5312 23.5421 13.7719 23.8524 12.9815 23.8498ZM27.0181 31.7148C26.4333 31.7079 25.8634 31.5282 25.3805 31.1982C24.8975 30.8682 24.523 30.4028 24.3039 29.8604C24.0848 29.3181 24.0311 28.723 24.1494 28.1502C24.2677 27.5774 24.5529 27.0523 24.9689 26.6411C25.3849 26.23 25.9133 25.951 26.4874 25.8394C27.0616 25.7278 27.656 25.7886 28.1957 26.014C28.7355 26.2394 29.1965 26.6194 29.5208 27.1062C29.8451 27.593 30.0181 28.1649 30.0181 28.7498C30.0115 29.5402 29.6922 30.2958 29.1301 30.8514C28.5679 31.4071 27.8086 31.7174 27.0181 31.7148V31.7148Z"
          fill="#FFF"/>
</svg>
