<svg width="39" height="39" viewBox="0 0 39 39" fill="none" xmlns="http://www.w3.org/2000/svg">
<path fill-rule="evenodd" clip-rule="evenodd" d="M7 18.94C7 25.5319 12.3481 30.88 18.94 30.88C25.5319 30.88 30.88 25.5319 30.88 18.94C30.88 12.3481 25.5319 7 18.94 7C12.3481 7 7 12.3481 7 18.94ZM16.751 24.4125L16.955 21.3678L22.4921 16.3729C22.7359 16.159 22.4374 16.0545 22.119 16.2485L15.2883 20.5618L12.3382 19.6415C11.7014 19.4474 11.6964 19.0096 12.4825 18.6912L23.9846 14.2585C24.512 14.0197 25.0195 14.3829 24.8155 15.1888L22.8553 24.4175C22.721 25.0742 22.323 25.2284 21.7708 24.9249L18.7858 22.721L17.353 24.114L17.338 24.1289C17.1789 24.2831 17.0445 24.4125 16.756 24.4125H16.751Z" fill="white"/>
</svg>
