<svg width="41" height="40" viewBox="0 0 41 40" fill="none" xmlns="http://www.w3.org/2000/svg">
<path d="M27.427 24.4878C28.4027 23.122 29.2807 21.561 29.6709 19.9024C30.0612 18.3415 30.2563 16.7805 30.2563 15.2195C30.2563 15.0244 30.4514 15.0244 30.549 14.9268C31.3295 14.3415 31.9148 13.6585 32.5002 12.9756C32.5978 12.7805 32.5978 12.6829 32.5978 12.5854C32.5978 12.4878 32.5978 12.5854 32.5002 12.5854C31.7197 12.9756 30.9392 13.1707 30.0612 13.2683C30.4514 13.1707 31.0368 12.4878 31.2319 12.1951C31.6222 11.8049 31.9148 11.2195 32.0124 10.7317V10.6341C31.9148 10.6341 31.9149 10.6341 31.9149 10.6341C31.0368 11.122 30.0612 11.5122 28.988 11.7073C28.8905 11.7073 28.8905 11.7073 28.7929 11.6098C28.6953 11.5122 28.5978 11.4146 28.5002 11.3171C28.11 10.9268 27.6222 10.6341 27.1344 10.439C26.4514 10.1463 25.7685 10.0488 24.988 10.0488C24.3051 10.0488 23.6222 10.3415 22.9392 10.6341C22.3539 10.9268 21.7685 11.4146 21.2807 12C20.7929 12.5854 20.5002 13.2683 20.3051 13.9512C20.11 14.6341 20.11 15.3171 20.2075 16L17.0856 15.5122C14.4514 14.7317 12.11 13.3659 10.1587 11.122C10.0612 11.0244 9.96363 11.0244 9.86607 11.122C8.69533 12.878 9.2807 15.7073 10.7441 17.0732C10.9392 17.2683 11.1344 17.4634 11.3295 17.561C11.2319 17.561 10.2563 17.4634 9.37826 17.0732C9.2807 16.9756 9.18314 17.0732 9.18314 17.1707C9.18314 17.3659 9.18314 17.561 9.18314 17.7561C9.37826 19.5122 10.6466 21.1707 12.3051 21.8537C12.5002 21.9512 12.6953 22.0488 12.988 22.0488C12.5978 22.1463 12.2075 22.1463 11.1344 22.1463C11.0368 22.1463 10.9392 22.1463 11.0368 22.3415C11.8173 24.5854 13.6709 25.2683 14.9392 25.6585C15.1344 25.6585 15.3295 25.6585 15.427 25.7561C14.9392 26.439 13.4758 26.9268 12.6953 27.2195C11.427 27.7073 9.96363 27.9024 8.59777 27.7073C8.40265 27.7073 8.30509 27.7073 8.30509 27.7073C8.20753 27.7073 8.30509 27.8049 8.40265 27.9024C8.59777 28 8.7929 28.1951 9.08558 28.2927C9.67094 28.5854 10.3539 28.9756 10.9392 29.1707C14.549 30.439 18.6466 30.439 22.1587 28.878C24.3051 27.8049 26.0612 26.2439 27.427 24.4878Z" fill="#263F30"/>
<path fill-rule="evenodd" clip-rule="evenodd" d="M15.6221 29.9512C15.7197 29.9512 17.6709 29.9512 15.6221 29.9512Z" fill="#263F30"/>
<path fill-rule="evenodd" clip-rule="evenodd" d="M16.4027 29.9512C16.8905 29.9512 16.4027 29.8537 16.4027 29.9512Z" fill="#263F30"/>
</svg>
