<svg width="40" height="39" viewBox="0 0 40 39" fill="none" xmlns="http://www.w3.org/2000/svg">
<path d="M32.0478 15.7892C30.9691 11.6764 27.6431 8.36835 23.4633 7.33992C19.2836 6.31148 14.7438 7.6531 11.8672 10.8718C8.31676 14.8057 7.8673 20.7065 10.7438 25.1769C10.5189 26.7862 10.3391 28.3956 10.1146 30.0049C10.0247 30.5863 10.7438 30.9884 11.2385 30.854C12.8114 30.407 14.4294 30.0049 16.0028 29.5573C20.2724 31.3005 25.217 30.4964 28.6329 27.3666C31.8238 24.4606 33.1275 19.9014 32.0488 15.7886H32.0483L32.0478 15.7892ZM28.9015 24.4172C26.2048 28.3511 20.9011 29.8266 16.5416 27.8596H16.4964C16.3166 27.7702 16.0917 27.7258 15.8225 27.7702C14.564 28.1279 13.3055 28.4405 12.047 28.7982C12.1816 27.7253 12.3167 26.6973 12.4518 25.6245C12.497 25.2668 12.5864 24.8642 12.4066 24.5066C12.272 24.2828 12.0922 24.0596 11.9571 23.7913C11.6428 23.2549 11.3726 22.6735 11.1481 22.0926C10.429 20.0362 10.3838 17.7561 11.0582 15.7003C12.2268 12.0795 15.5528 9.35234 19.3283 8.90531C23.2383 8.36887 27.1489 10.2464 29.1712 13.5095C31.2387 16.862 31.1036 21.1536 28.9015 24.4172Z" fill="white"/>
<path d="M26.8787 20.2151L24.8558 18.6508C24.2266 18.1593 23.3724 18.2482 22.833 18.7846L22.2484 19.366C21.799 19.0978 21.3947 18.7846 20.99 18.427C20.6304 18.0694 20.316 17.6223 20.0458 17.1753L20.6304 16.5939C21.1697 16.0574 21.2149 15.2083 20.765 14.582L19.1921 12.5256C18.8777 12.0786 18.3831 11.8103 17.8437 11.8103C17.3044 11.7654 16.765 11.9892 16.4055 12.3468L14.6528 14.09C13.664 15.0735 13.4395 16.5934 14.0683 17.8451C14.922 19.4544 16.0007 20.8849 17.2592 22.1366C18.5177 23.3883 20.0011 24.4612 21.574 25.3103C22.0681 25.5785 22.5628 25.6679 23.0575 25.6679C23.8665 25.6679 24.7207 25.3553 25.3048 24.7289L27.0574 22.9857C27.417 22.6281 27.642 22.0917 27.5968 21.5552C27.5968 21.0188 27.3271 20.5273 26.8776 20.2141L26.8787 20.2151ZM25.8 21.7351L24.0473 23.4782C23.5979 23.9253 22.9234 24.0147 22.3841 23.7465C20.9458 22.9862 19.6421 22.0477 18.474 20.8854C17.3059 19.7231 16.3618 18.427 15.5975 16.9965C15.3278 16.46 15.4177 15.7897 15.8671 15.3422L17.6198 13.599H17.665C17.6951 13.599 17.7102 13.614 17.7102 13.644L19.1485 15.5215L18.5639 16.058C18.1144 16.505 17.9793 17.2202 18.2942 17.8011C18.6538 18.5164 19.1479 19.1422 19.6873 19.6787C20.2266 20.2151 20.8559 20.7066 21.575 21.0642C22.1596 21.3769 22.8335 21.2431 23.283 20.796L23.9122 20.1702L25.7553 21.6007C25.7553 21.6007 25.8005 21.6007 25.8005 21.6456V21.7351H25.8Z" fill="white"/>
</svg>
