<svg width="41" height="40" viewBox="0 0 41 40" fill="none" xmlns="http://www.w3.org/2000/svg">
<path fill-rule="evenodd" clip-rule="evenodd" d="M29.0068 11.432C27.3296 9.78754 25.2066 8.67146 22.901 8.22215C20.5954 7.77285 18.2087 8.01009 16.0367 8.90445C13.8646 9.79881 12.0029 11.311 10.6822 13.2534C9.36143 15.1959 8.63984 17.4833 8.60685 19.832C8.59846 21.92 9.1461 23.9725 10.1935 25.7787L8.50018 31.9387L14.8335 30.2854C16.5756 31.2247 18.521 31.7237 20.5002 31.7387V31.7387C23.6644 31.7388 26.7006 30.4892 28.948 28.2618C31.1954 26.0344 32.4721 23.0094 32.5002 19.8454C32.506 18.2813 32.2 16.7317 31.6002 15.2871C31.0004 13.8426 30.1188 12.532 29.0068 11.432V11.432ZM20.5002 29.7254C18.7277 29.7342 16.9843 29.2742 15.4469 28.392L15.1668 28.1254L11.4068 29.112L12.4068 25.472L12.1802 25.0854C11.1832 23.5149 10.6559 21.6922 10.6602 19.832C10.6523 17.8618 11.2306 15.9337 12.3214 14.2929C13.4123 12.6522 14.9664 11.3729 16.7862 10.6177C18.6061 9.86254 20.6094 9.66563 22.5414 10.052C24.4734 10.4384 26.2469 11.3906 27.6363 12.7876C29.0258 14.1845 29.9684 15.9631 30.3443 17.8972C30.7202 19.8313 30.5125 21.8335 29.7475 23.6492C28.9825 25.4649 27.6948 27.0121 26.0482 28.0941C24.4016 29.176 22.4704 29.7439 20.5002 29.7254V29.7254ZM25.9402 22.3254C25.6469 22.1787 24.1802 21.4587 23.9002 21.352C23.6202 21.2454 23.4335 21.2054 23.2335 21.4987C23.0335 21.792 22.4602 22.472 22.2869 22.672C22.1135 22.872 21.9402 22.8854 21.6468 22.672C20.7854 22.3448 19.987 21.8711 19.2869 21.272C18.635 20.6702 18.0776 19.9734 17.6335 19.2054C17.4602 18.912 17.6335 18.752 17.7668 18.6054C17.9002 18.4587 18.0602 18.2587 18.2068 18.0854C18.3262 17.9322 18.429 17.7669 18.5135 17.592C18.5535 17.5112 18.5743 17.4222 18.5743 17.332C18.5743 17.2418 18.5535 17.1529 18.5135 17.072C18.4335 16.912 17.8335 15.4587 17.5935 14.8587C17.3535 14.2587 17.1002 14.352 16.9135 14.352H16.3135C16.164 14.3578 16.0171 14.3939 15.8819 14.4581C15.7467 14.5222 15.6259 14.6132 15.5269 14.7254C15.1857 15.0406 14.9154 15.4247 14.7338 15.8522C14.5522 16.2797 14.4635 16.741 14.4735 17.2054C14.5758 18.325 15.0021 19.3907 15.7002 20.272C16.9816 22.1844 18.7363 23.7324 20.7935 24.7654C21.3504 25.0057 21.9201 25.2149 22.5002 25.392C23.1099 25.5725 23.7524 25.6135 24.3802 25.512C24.7949 25.4274 25.1877 25.2583 25.5341 25.0151C25.8805 24.7719 26.173 24.46 26.3935 24.0987C26.5938 23.6562 26.6542 23.1631 26.5668 22.6854C26.3974 22.5338 26.2036 22.4121 25.9935 22.3254H25.9402Z" fill="#263F30"/>
</svg>
