<svg width="120" height="19" viewBox="0 0 120 19" fill="none" xmlns="http://www.w3.org/2000/svg">
<path d="M6.97793 18.275C4.47793 18.275 2.77793 17.5833 1.87793 16.2C0.994596 14.8167 0.55293 12.5417 0.55293 9.375C0.55293 6.20833 1.00293 3.95833 1.90293 2.625C2.80293 1.275 4.4946 0.599999 6.97793 0.599999C8.46126 0.599999 10.0946 0.808333 11.8779 1.225L11.7779 3.475C10.2779 3.20833 8.77793 3.075 7.27793 3.075C5.77793 3.075 4.76126 3.525 4.22793 4.425C3.6946 5.30833 3.42793 6.98333 3.42793 9.45C3.42793 11.9 3.68626 13.575 4.20293 14.475C4.7196 15.3583 5.72793 15.8 7.22793 15.8C8.72793 15.8 10.2446 15.675 11.7779 15.425L11.8529 17.725C10.1363 18.0917 8.51126 18.275 6.97793 18.275ZM22.3766 18H19.5766V10.95L14.2016 0.874998H17.3266L20.9516 8.225L24.6016 0.874998H27.7016L22.3766 10.95V18ZM31.0473 0.874998H37.5473C39.2973 0.874998 40.6056 1.23333 41.4723 1.95C42.3389 2.65 42.7723 3.775 42.7723 5.325C42.7723 6.34167 42.6056 7.14167 42.2723 7.725C41.9556 8.30833 41.4473 8.79167 40.7473 9.175C42.3806 9.80833 43.1973 11.1333 43.1973 13.15C43.1973 16.3833 41.3806 18 37.7473 18H31.0473V0.874998ZM37.5473 10.525H33.8223V15.6H37.5973C38.5139 15.6 39.1973 15.4083 39.6473 15.025C40.1139 14.6417 40.3473 13.9833 40.3473 13.05C40.3473 12.1167 40.0806 11.4667 39.5473 11.1C39.0139 10.7167 38.3473 10.525 37.5473 10.525ZM37.3973 3.275H33.8223V8.175H37.4973C39.1306 8.175 39.9473 7.33333 39.9473 5.65C39.9473 4.06667 39.0973 3.275 37.3973 3.275ZM47.6049 18V0.874998H58.4049V3.3H50.3799V8.15H56.9049V10.55H50.3799V15.55H58.4049V18H47.6049ZM65.4482 11.9V18H62.6732V0.874998H69.1732C73.0399 0.874998 74.9732 2.69167 74.9732 6.325C74.9732 8.75833 74.0399 10.4083 72.1732 11.275L74.9982 18H71.9482L69.4732 11.9H65.4482ZM72.1232 6.35C72.1232 4.3 71.1399 3.275 69.1732 3.275H65.4482V9.5H69.2232C70.2232 9.5 70.9566 9.21667 71.4232 8.65C71.8899 8.06667 72.1232 7.3 72.1232 6.35ZM84.4023 3.025C82.2857 3.025 81.2273 3.76667 81.2273 5.25C81.2273 6.01667 81.4773 6.56667 81.9773 6.9C82.4773 7.21667 83.5773 7.61667 85.2773 8.1C86.994 8.56667 88.2023 9.13333 88.9023 9.8C89.6023 10.45 89.9523 11.4833 89.9523 12.9C89.9523 14.7 89.4357 16.05 88.4023 16.95C87.3857 17.8333 85.994 18.275 84.2273 18.275C82.8107 18.275 81.244 18.1083 79.5273 17.775L78.6273 17.6L78.9023 15.375C81.1523 15.675 82.869 15.825 84.0523 15.825C86.119 15.825 87.1523 14.9083 87.1523 13.075C87.1523 12.3583 86.919 11.8333 86.4523 11.5C85.9857 11.15 84.9357 10.775 83.3023 10.375C81.669 9.95833 80.4523 9.39167 79.6523 8.675C78.8523 7.95833 78.4523 6.825 78.4523 5.275C78.4523 3.725 78.9523 2.55833 79.9523 1.775C80.969 0.974999 82.369 0.574999 84.1523 0.574999C85.4357 0.574999 86.9523 0.724999 88.7023 1.025L89.5773 1.175L89.3523 3.425C87.019 3.15833 85.369 3.025 84.4023 3.025ZM94.2016 18V0.874998H105.002V3.3H96.9766V8.15H103.502V10.55H96.9766V15.55H105.002V18H94.2016ZM114.873 18.275C112.373 18.275 110.673 17.5833 109.773 16.2C108.89 14.8167 108.448 12.5417 108.448 9.375C108.448 6.20833 108.898 3.95833 109.798 2.625C110.698 1.275 112.39 0.599999 114.873 0.599999C116.357 0.599999 117.99 0.808333 119.773 1.225L119.673 3.475C118.173 3.20833 116.673 3.075 115.173 3.075C113.673 3.075 112.657 3.525 112.123 4.425C111.59 5.30833 111.323 6.98333 111.323 9.45C111.323 11.9 111.582 13.575 112.098 14.475C112.615 15.3583 113.623 15.8 115.123 15.8C116.623 15.8 118.14 15.675 119.673 15.425L119.748 17.725C118.032 18.0917 116.407 18.275 114.873 18.275Z" fill="#454D54"/>
</svg>
