<svg width="79" height="140" viewBox="0 0 79 140" fill="none" xmlns="http://www.w3.org/2000/svg">
<g clip-path="url(#clip0_13_2118)">
<path d="M58.1186 29.8978V29.816C58.0777 29.7342 58.0777 29.6524 58.0368 29.5706V29.5297C57.9959 29.4479 57.9141 29.3661 57.8732 29.3252L57.8323 29.2843C57.7914 29.2434 57.7096 29.2025 57.6687 29.1616L57.6278 29.0798H57.5869L57.546 29.0389L39.6319 20.1227C39.3047 19.9591 38.8548 19.9591 38.4867 20.1227L32.4744 23.1493L50.4703 32.3926L50.5112 32.4335C50.5521 32.4335 50.5521 32.4744 50.593 32.4744C50.6339 32.5153 50.6339 32.5562 50.6748 32.5971V42.5358C50.6748 42.6994 50.593 42.8221 50.4703 42.9039L46.8303 44.8262C46.6258 44.9489 46.3804 44.8671 46.2577 44.6626C46.2168 44.6217 46.2168 44.5399 46.2168 44.4581V34.8466L28.0164 25.3988L27.9755 25.3579L20.6544 28.998L20.6135 29.0389H20.5726L20.5317 29.0798C20.4908 29.1207 20.409 29.1616 20.3681 29.2025L20.3272 29.2434C20.2454 29.3252 20.2045 29.407 20.1227 29.4888V29.5297C20.0818 29.6115 20.0409 29.6933 20.0409 29.7751V29.8569C20.0409 29.9387 20 29.9796 20 30.0613V49.8568C20 50.3067 20.2454 50.7975 20.7362 51.002L38.4867 59.8773C38.7321 60 39.0184 60.0409 39.3456 59.9591L39.4274 59.9182C39.5092 59.9182 39.5501 59.8773 39.6319 59.8364L57.5051 50.9611C57.9141 50.7566 58.2413 50.3067 58.2413 49.816V30.1023C58.1186 30.0205 58.1186 29.9796 58.1186 29.8978Z" fill="black"/>
</g>
<g clip-path="url(#clip1_13_2118)">
<path d="M58.1186 89.8978V89.816C58.0777 89.7342 58.0777 89.6524 58.0368 89.5706V89.5297C57.9959 89.4479 57.9141 89.3661 57.8732 89.3252L57.8323 89.2843C57.7914 89.2434 57.7096 89.2025 57.6687 89.1616L57.6278 89.0798H57.5869L57.546 89.0389L39.6319 80.1227C39.3047 79.9591 38.8548 79.9591 38.4867 80.1227L32.4744 83.1493L50.4703 92.3926L50.5112 92.4335C50.5521 92.4335 50.5521 92.4744 50.593 92.4744C50.6339 92.5153 50.6339 92.5562 50.6748 92.5971V102.536C50.6748 102.699 50.593 102.822 50.4703 102.904L46.8303 104.826C46.6258 104.949 46.3804 104.867 46.2577 104.663C46.2168 104.622 46.2168 104.54 46.2168 104.458V94.8466L28.0164 85.3988L27.9755 85.3579L20.6544 88.998L20.6135 89.0389H20.5726L20.5317 89.0798C20.4908 89.1207 20.409 89.1616 20.3681 89.2025L20.3272 89.2434C20.2454 89.3252 20.2045 89.407 20.1227 89.4888V89.5297C20.0818 89.6115 20.0409 89.6933 20.0409 89.7751V89.8569C20.0409 89.9387 20 89.9796 20 90.0613V109.857C20 110.307 20.2454 110.798 20.7362 111.002L38.4867 119.877C38.7321 120 39.0184 120.041 39.3456 119.959L39.4274 119.918C39.5092 119.918 39.5501 119.877 39.6319 119.836L57.5051 110.961C57.9141 110.757 58.2413 110.307 58.2413 109.816V90.1023C58.1186 90.0205 58.1186 89.9796 58.1186 89.8978Z" fill="white"/>
</g>
<rect x="0.5" y="0.5" width="77.1595" height="139" rx="4.5" stroke="#7B61FF" stroke-dasharray="10 5"/>
<defs>
<clipPath id="clip0_13_2118">
<rect width="38.1595" height="40" fill="white" transform="translate(20 20)"/>
</clipPath>
<clipPath id="clip1_13_2118">
<rect width="38.1595" height="40" fill="white" transform="translate(20 80)"/>
</clipPath>
</defs>
</svg>
