<svg width="87" height="140" viewBox="0 0 87 140" fill="none" xmlns="http://www.w3.org/2000/svg">
<g clip-path="url(#clip0_13_2181)">
<path d="M55.792 41.0399H53.2285V36.977L45.4897 43.7485L39.0085 37.2189L32.3337 43.4099L30.5925 41.4752L39.0568 33.5913L45.6348 40.2177L51.2455 35.3325H47.5695V32.7207H55.792V41.0399ZM66.1911 51.971H63.9178V24.3531H66.1427V21.7412H44.3773V20H41.7654V21.7412H20V24.3531H22.2733V52.0193H20V54.6312H36.3966L32.8658 58.162L34.6554 60L40.0242 54.6312H41.7654V58.4039H44.3289V54.6312H46.0218L51.4389 60L53.2285 58.162L49.6977 54.5828H66.1427V51.971H66.1911Z" fill="black"/>
</g>
<g clip-path="url(#clip1_13_2181)">
<path d="M55.792 101.04H53.2285V96.977L45.4897 103.748L39.0085 97.2189L32.3337 103.41L30.5925 101.475L39.0568 93.5913L45.6348 100.218L51.2455 95.3325H47.5695V92.7207H55.792V101.04ZM66.1911 111.971H63.9178V84.3531H66.1427V81.7412H44.3773V80H41.7654V81.7412H20V84.3531H22.2733V112.019H20V114.631H36.3966L32.8658 118.162L34.6554 120L40.0242 114.631H41.7654V118.404H44.3289V114.631H46.0218L51.4389 120L53.2285 118.162L49.6977 114.583H66.1427V111.971H66.1911Z" fill="white"/>
</g>
<rect x="0.5" y="0.5" width="85.1911" height="139" rx="4.5" stroke="#7B61FF" stroke-dasharray="10 5"/>
<defs>
<clipPath id="clip0_13_2181">
<rect width="46.1911" height="40" fill="white" transform="translate(20 20)"/>
</clipPath>
<clipPath id="clip1_13_2181">
<rect width="46.1911" height="40" fill="white" transform="translate(20 80)"/>
</clipPath>
</defs>
</svg>
