<svg width="84" height="140" viewBox="0 0 84 140" fill="none" xmlns="http://www.w3.org/2000/svg">
<g clip-path="url(#clip0_13_1678)">
<path d="M40.401 32.9175V31.6257C40.891 31.8484 40.9801 32.0712 40.9801 32.2939C40.9355 32.6502 40.7128 32.8284 40.401 32.9175ZM40.0001 30.4231C39.5547 30.2449 39.3765 30.1113 39.3765 29.7994C39.3765 29.4876 39.6438 29.3095 40.0001 29.2649V30.4231ZM40.4456 30.6012V29.2649C40.6237 29.2649 40.7574 29.3095 40.9801 29.3986C41.1137 29.4876 41.4255 29.6658 41.6037 29.3095C41.6928 29.1313 41.7819 28.864 41.5592 28.7304C41.2919 28.5077 40.7574 28.4186 40.401 28.4186V28.2404C40.401 28.1068 40.2674 28.0623 40.1338 28.0623C40.0001 28.0623 39.8665 28.1513 39.8665 28.2404V28.4631C38.9756 28.5968 38.3966 29.0422 38.3966 29.9331C38.3966 30.8685 39.0647 31.1358 39.8665 31.4476V32.9175C39.4656 32.8729 39.2874 32.7393 38.8865 32.4275C38.7084 32.2939 38.5302 32.3384 38.3966 32.5166C38.2184 32.7393 38.2629 32.962 38.3966 33.1848C38.7084 33.5856 39.332 33.8084 39.8665 33.8084V34.0311C39.8665 34.1202 40.0001 34.2092 40.1338 34.2092C40.2674 34.2092 40.401 34.1202 40.401 34.0311V33.8084C41.2028 33.6747 41.8264 33.1847 41.8264 32.2048C41.871 31.2694 41.2919 30.913 40.4456 30.6012Z" fill="black"/>
<path d="M50.4231 31.0914C48.2851 31.0914 46.5479 29.3542 46.5479 27.2607C46.5479 25.1226 48.2851 23.4299 50.4231 23.4299C52.5612 23.4299 54.2984 25.1671 54.2984 27.2607C54.2539 29.3542 52.5167 31.0914 50.4231 31.0914ZM50.4231 22.0936C47.5724 22.0936 45.2561 24.4099 45.2561 27.2161C45.2561 30.0224 47.5724 32.3386 50.4231 32.3386C53.2739 32.3386 55.5902 30.0224 55.5902 27.2161C55.5902 24.4099 53.2294 22.0936 50.4231 22.0936Z" fill="black"/>
<path d="M40.1339 37.0156C36.8377 37.0156 34.1205 34.343 34.1205 31.0468C34.1205 27.7506 36.7931 25.078 40.1339 25.078C41.2475 25.078 42.3165 25.3898 43.2519 25.9688C43.2074 26.2361 43.1628 26.637 43.1628 26.9042C42.3165 26.2806 41.292 25.9243 40.1339 25.9243C37.2831 25.9243 34.9668 28.2405 34.9668 31.0468C34.9668 33.853 37.2831 36.1693 40.1339 36.1693C42.5838 36.1693 44.6328 34.4766 45.1673 32.2049C45.39 32.4276 45.6127 32.6503 45.88 32.8285C45.0782 35.3229 42.7619 37.0156 40.1339 37.0156ZM43.9646 30.5568C44.0091 30.735 44.0092 30.9131 44.0092 31.0468C44.0092 33.1849 42.272 34.8775 40.1339 34.8775C37.9958 34.8775 36.2586 33.1403 36.2586 31.0468C36.2586 28.9532 37.9958 27.216 40.1339 27.216C41.4702 27.216 42.6728 27.8842 43.341 28.9087C43.4746 29.4878 43.6528 30.0223 43.9646 30.5568ZM57.0158 28.1069C56.6595 28.0178 56.3031 28.2405 56.2586 28.5969C55.635 31.314 53.2296 33.1849 50.4234 33.1849C48.2853 33.1849 46.2809 32.0267 45.2118 30.1559C45.0782 29.5323 44.8555 28.9532 44.5437 28.4633C43.7419 24.7661 46.5927 21.2918 50.4234 21.2918C53.2296 21.2918 55.635 23.2071 56.2586 25.8797C56.3477 26.2361 56.704 26.4143 57.0158 26.3697C57.3722 26.2806 57.5949 25.9688 57.5058 25.6125C57.1495 24.0535 56.2586 22.6281 54.9668 21.6036C53.6751 20.5791 52.0715 20 50.4234 20C47.3054 20 44.6328 21.9599 43.6083 24.7216C42.5392 24.1425 41.3811 23.8307 40.1339 23.8307C36.125 23.8307 32.8733 27.0824 32.8733 31.0468C32.8733 35.0111 36.125 38.2628 40.1339 38.2628C43.2074 38.2628 45.9245 36.3474 46.949 33.5412C47.9735 34.0757 49.1762 34.4321 50.4234 34.4321C52.0715 34.4321 53.7196 33.853 54.9668 32.8285C56.214 31.804 57.1495 30.3786 57.5058 28.8196C57.5504 28.5078 57.3722 28.196 57.0158 28.1069Z" fill="black"/>
<path d="M50.6906 29.0423V27.7505C51.1806 27.9732 51.2696 28.1959 51.2696 28.4187C51.2251 28.775 51.0024 28.9977 50.6906 29.0423ZM50.2897 26.5924C49.8443 26.4142 49.6661 26.2806 49.6661 25.9688C49.6661 25.657 49.9333 25.4788 50.2897 25.4342V26.5924ZM50.7351 26.726V25.3897C51.0024 25.3897 51.136 25.4788 51.4478 25.6124C51.5814 25.7015 51.8042 25.657 51.8932 25.4342C51.9823 25.2561 52.0714 24.9888 51.8487 24.8552C51.5814 24.6325 51.0469 24.5434 50.6906 24.5434V24.4097C50.6906 24.2761 50.5569 24.2316 50.4233 24.2316C50.2897 24.2316 50.1561 24.3207 50.1561 24.4097V24.6325C49.2652 24.7661 48.6861 25.2115 48.6861 26.1024C48.6861 27.0378 49.3988 27.3496 50.1561 27.6169V29.1313C49.7552 29.0868 49.5324 28.9086 49.1761 28.6414C48.8198 28.3741 48.5525 28.8641 48.5525 29.0868C48.5525 29.1759 48.597 29.3095 48.6861 29.3986C48.9979 29.7995 49.6215 30.0222 50.1561 30.0222V30.2449C50.1561 30.334 50.2897 30.4231 50.4233 30.4231C50.5569 30.4231 50.6906 30.334 50.6906 30.2449V30.0222C51.4924 29.8886 52.116 29.3986 52.116 28.4187C52.1605 27.3942 51.5369 27.0378 50.7351 26.726Z" fill="black"/>
<path d="M38.6192 53.8085C38.6637 53.8976 38.6192 53.9867 38.5301 54.0312L35.6793 55.1003C35.4566 54.5658 31.4032 43.8308 31.1359 43.0735L33.9867 42.0045C34.0758 41.96 34.1648 42.0045 34.2094 42.0936C34.4766 42.8063 38.4856 53.4076 38.6192 53.8085ZM26.0134 58.7083C25.8798 58.7528 25.7016 58.7083 25.6571 58.5747L21.2918 47.0379C21.2473 46.9043 21.2918 46.7261 21.47 46.6816C24.2317 45.6571 28.0179 44.2317 29.9332 43.519L34.4767 55.5457C32.3386 56.3475 26.9043 58.3965 26.0134 58.7083ZM62.8954 35.2784C62.8954 35.2784 62.8954 35.2339 62.8954 35.2784C61.2918 33.8085 59.421 34.4767 58.2183 35.5903L51.3586 41.2473C50.9577 40.4009 50.1559 39.5546 48.5969 39.5546C42.2272 39.5546 41.3363 39.421 39.8219 40.0001L35.4566 41.7818L35.4121 41.6036C35.1448 40.8464 34.2985 40.49 33.5412 40.7573L30.245 42.049C28.7751 42.5836 24.1871 44.3208 21.0245 45.5234C20.2228 45.8352 19.8219 46.7261 20.1337 47.5279L24.4544 59.0201C24.7662 59.8219 25.6571 60.2228 26.4588 59.911C27.4388 59.5546 34.0758 57.0602 35.5457 56.5257L39.0201 55.2339C39.7773 54.9666 40.1337 54.1203 39.8664 53.3631L39.8219 53.2294C42.0936 52.294 42.1381 52.1604 44.4989 52.1604C44.8553 52.1604 45.1225 51.8931 45.1225 51.5368C45.1225 51.1805 44.8553 50.9132 44.4989 50.9132C41.9154 50.9132 41.6927 51.0914 39.3764 52.0713L35.9466 43.0735L40.3118 41.2918C41.5591 40.8018 42.3163 40.9355 48.5969 40.9355C49.3096 40.9355 49.7996 41.1582 50.0669 41.6482C50.2896 42.0045 50.3341 42.3609 50.3341 42.4499C50.3341 42.7172 50.1559 43.8753 48.9978 44.0535C47.2606 44.3653 43.4299 44.8998 43.3853 44.8998C43.029 44.9444 42.8063 45.2562 42.8508 45.6125C42.8954 45.9243 43.1626 46.147 43.4744 46.147C43.519 46.147 43.519 46.147 43.5635 46.147C43.6081 46.147 47.3942 45.6125 49.176 45.3007C50.8241 45.0335 51.4032 43.6526 51.5368 42.7617L58.9755 36.6593L59.0201 36.6148C59.7773 35.9466 60.8464 35.323 61.9154 36.2584C63.1181 37.4611 62.0045 38.8419 61.7818 39.1537C61.47 39.4655 52.3831 49.176 52.3831 49.176C51.0468 50.6905 49.3096 50.9132 48.5524 50.9577C48.1515 50.9577 47.7506 50.9577 47.3942 50.9577C47.0379 50.9577 46.7706 51.225 46.7706 51.5813C46.7706 51.9377 47.0379 52.205 47.3942 52.205C47.7506 52.205 48.1515 52.205 48.5969 52.205C48.5969 52.205 48.5969 52.205 48.6415 52.205C49.5323 52.1604 51.715 51.8486 53.3631 49.9778C62.7617 39.9555 62.7617 39.9555 62.7617 39.9555C63.6526 38.9756 64.588 36.9266 62.8954 35.2784Z" fill="black"/>
</g>
<g clip-path="url(#clip1_13_1678)">
<path d="M40.401 92.9175V91.6257C40.891 91.8484 40.9801 92.0712 40.9801 92.2939C40.9355 92.6502 40.7128 92.8284 40.401 92.9175ZM40.0001 90.4231C39.5547 90.2449 39.3765 90.1113 39.3765 89.7994C39.3765 89.4876 39.6438 89.3095 40.0001 89.2649V90.4231ZM40.4456 90.6012V89.2649C40.6237 89.2649 40.7574 89.3095 40.9801 89.3986C41.1137 89.4876 41.4255 89.6658 41.6037 89.3095C41.6928 89.1313 41.7819 88.864 41.5592 88.7304C41.2919 88.5077 40.7574 88.4186 40.401 88.4186V88.2404C40.401 88.1068 40.2674 88.0623 40.1338 88.0623C40.0001 88.0623 39.8665 88.1513 39.8665 88.2404V88.4631C38.9756 88.5968 38.3966 89.0422 38.3966 89.9331C38.3966 90.8685 39.0647 91.1358 39.8665 91.4476V92.9175C39.4656 92.8729 39.2874 92.7393 38.8865 92.4275C38.7084 92.2939 38.5302 92.3384 38.3966 92.5166C38.2184 92.7393 38.2629 92.962 38.3966 93.1848C38.7084 93.5856 39.332 93.8084 39.8665 93.8084V94.0311C39.8665 94.1202 40.0001 94.2092 40.1338 94.2092C40.2674 94.2092 40.401 94.1202 40.401 94.0311V93.8084C41.2028 93.6747 41.8264 93.1847 41.8264 92.2048C41.871 91.2694 41.2919 90.913 40.4456 90.6012Z" fill="white"/>
<path d="M50.4231 91.0914C48.2851 91.0914 46.5479 89.3542 46.5479 87.2607C46.5479 85.1226 48.2851 83.4299 50.4231 83.4299C52.5612 83.4299 54.2984 85.1671 54.2984 87.2607C54.2539 89.3542 52.5167 91.0914 50.4231 91.0914ZM50.4231 82.0936C47.5724 82.0936 45.2561 84.4099 45.2561 87.2161C45.2561 90.0224 47.5724 92.3386 50.4231 92.3386C53.2739 92.3386 55.5902 90.0224 55.5902 87.2161C55.5902 84.4099 53.2294 82.0936 50.4231 82.0936Z" fill="white"/>
<path d="M40.1339 97.0156C36.8377 97.0156 34.1205 94.343 34.1205 91.0468C34.1205 87.7506 36.7931 85.078 40.1339 85.078C41.2475 85.078 42.3165 85.3898 43.2519 85.9688C43.2074 86.2361 43.1628 86.637 43.1628 86.9042C42.3165 86.2806 41.292 85.9243 40.1339 85.9243C37.2831 85.9243 34.9668 88.2405 34.9668 91.0468C34.9668 93.853 37.2831 96.1693 40.1339 96.1693C42.5838 96.1693 44.6328 94.4766 45.1673 92.2049C45.39 92.4276 45.6127 92.6503 45.88 92.8285C45.0782 95.3229 42.7619 97.0156 40.1339 97.0156ZM43.9646 90.5568C44.0091 90.735 44.0092 90.9131 44.0092 91.0468C44.0092 93.1849 42.272 94.8775 40.1339 94.8775C37.9958 94.8775 36.2586 93.1403 36.2586 91.0468C36.2586 88.9532 37.9958 87.216 40.1339 87.216C41.4702 87.216 42.6728 87.8842 43.341 88.9087C43.4746 89.4878 43.6528 90.0223 43.9646 90.5568ZM57.0158 88.1069C56.6595 88.0178 56.3031 88.2405 56.2586 88.5969C55.635 91.314 53.2296 93.1849 50.4234 93.1849C48.2853 93.1849 46.2809 92.0267 45.2118 90.1559C45.0782 89.5323 44.8555 88.9532 44.5437 88.4633C43.7419 84.7661 46.5927 81.2918 50.4234 81.2918C53.2296 81.2918 55.635 83.2071 56.2586 85.8797C56.3477 86.2361 56.704 86.4143 57.0158 86.3697C57.3722 86.2806 57.5949 85.9688 57.5058 85.6125C57.1495 84.0535 56.2586 82.6281 54.9668 81.6036C53.6751 80.5791 52.0715 80 50.4234 80C47.3054 80 44.6328 81.9599 43.6083 84.7216C42.5392 84.1425 41.3811 83.8307 40.1339 83.8307C36.125 83.8307 32.8733 87.0824 32.8733 91.0468C32.8733 95.0111 36.125 98.2628 40.1339 98.2628C43.2074 98.2628 45.9245 96.3474 46.949 93.5412C47.9735 94.0757 49.1762 94.4321 50.4234 94.4321C52.0715 94.4321 53.7196 93.853 54.9668 92.8285C56.214 91.804 57.1495 90.3786 57.5058 88.8196C57.5504 88.5078 57.3722 88.196 57.0158 88.1069Z" fill="white"/>
<path d="M50.6906 89.0423V87.7505C51.1806 87.9732 51.2696 88.1959 51.2696 88.4187C51.2251 88.775 51.0024 88.9977 50.6906 89.0423ZM50.2897 86.5924C49.8443 86.4142 49.6661 86.2806 49.6661 85.9688C49.6661 85.657 49.9333 85.4788 50.2897 85.4342V86.5924ZM50.7351 86.726V85.3897C51.0024 85.3897 51.136 85.4788 51.4478 85.6124C51.5814 85.7015 51.8042 85.657 51.8932 85.4342C51.9823 85.2561 52.0714 84.9888 51.8487 84.8552C51.5814 84.6325 51.0469 84.5434 50.6906 84.5434V84.4097C50.6906 84.2761 50.5569 84.2316 50.4233 84.2316C50.2897 84.2316 50.1561 84.3207 50.1561 84.4097V84.6325C49.2652 84.7661 48.6861 85.2115 48.6861 86.1024C48.6861 87.0378 49.3988 87.3496 50.1561 87.6169V89.1313C49.7552 89.0868 49.5324 88.9086 49.1761 88.6414C48.8198 88.3741 48.5525 88.8641 48.5525 89.0868C48.5525 89.1759 48.597 89.3095 48.6861 89.3986C48.9979 89.7995 49.6215 90.0222 50.1561 90.0222V90.2449C50.1561 90.334 50.2897 90.4231 50.4233 90.4231C50.5569 90.4231 50.6906 90.334 50.6906 90.2449V90.0222C51.4924 89.8886 52.116 89.3986 52.116 88.4187C52.1605 87.3942 51.5369 87.0378 50.7351 86.726Z" fill="white"/>
<path d="M38.6192 113.809C38.6637 113.898 38.6192 113.987 38.5301 114.031L35.6793 115.1C35.4566 114.566 31.4032 103.831 31.1359 103.074L33.9867 102.005C34.0758 101.96 34.1648 102.005 34.2094 102.094C34.4766 102.806 38.4856 113.408 38.6192 113.809ZM26.0134 118.708C25.8798 118.753 25.7016 118.708 25.6571 118.575L21.2918 107.038C21.2473 106.904 21.2918 106.726 21.47 106.682C24.2317 105.657 28.0179 104.232 29.9332 103.519L34.4767 115.546C32.3386 116.347 26.9043 118.396 26.0134 118.708ZM62.8954 95.2784C62.8954 95.2784 62.8954 95.2339 62.8954 95.2784C61.2918 93.8085 59.421 94.4767 58.2183 95.5903L51.3586 101.247C50.9577 100.401 50.1559 99.5546 48.5969 99.5546C42.2272 99.5546 41.3363 99.421 39.8219 100L35.4566 101.782L35.4121 101.604C35.1448 100.846 34.2985 100.49 33.5412 100.757L30.245 102.049C28.7751 102.584 24.1871 104.321 21.0245 105.523C20.2228 105.835 19.8219 106.726 20.1337 107.528L24.4544 119.02C24.7662 119.822 25.6571 120.223 26.4588 119.911C27.4388 119.555 34.0758 117.06 35.5457 116.526L39.0201 115.234C39.7773 114.967 40.1337 114.12 39.8664 113.363L39.8219 113.229C42.0936 112.294 42.1381 112.16 44.4989 112.16C44.8553 112.16 45.1225 111.893 45.1225 111.537C45.1225 111.18 44.8553 110.913 44.4989 110.913C41.9154 110.913 41.6927 111.091 39.3764 112.071L35.9466 103.074L40.3118 101.292C41.5591 100.802 42.3163 100.935 48.5969 100.935C49.3096 100.935 49.7996 101.158 50.0669 101.648C50.2896 102.005 50.3341 102.361 50.3341 102.45C50.3341 102.717 50.1559 103.875 48.9978 104.054C47.2606 104.365 43.4299 104.9 43.3853 104.9C43.029 104.944 42.8063 105.256 42.8508 105.613C42.8954 105.924 43.1626 106.147 43.4744 106.147C43.519 106.147 43.519 106.147 43.5635 106.147C43.6081 106.147 47.3942 105.613 49.176 105.301C50.8241 105.033 51.4032 103.653 51.5368 102.762L58.9755 96.6593L59.0201 96.6148C59.7773 95.9466 60.8464 95.323 61.9154 96.2584C63.1181 97.4611 62.0045 98.8419 61.7818 99.1537C61.47 99.4655 52.3831 109.176 52.3831 109.176C51.0468 110.69 49.3096 110.913 48.5524 110.958C48.1515 110.958 47.7506 110.958 47.3942 110.958C47.0379 110.958 46.7706 111.225 46.7706 111.581C46.7706 111.938 47.0379 112.205 47.3942 112.205C47.7506 112.205 48.1515 112.205 48.5969 112.205C48.5969 112.205 48.5969 112.205 48.6415 112.205C49.5323 112.16 51.715 111.849 53.3631 109.978C62.7617 99.9555 62.7617 99.9555 62.7617 99.9555C63.6526 98.9756 64.588 96.9266 62.8954 95.2784Z" fill="white"/>
</g>
<rect x="0.5" y="0.5" width="82.8307" height="139" rx="4.5" stroke="#7B61FF" stroke-dasharray="10 5"/>
<defs>
<clipPath id="clip0_13_1678">
<rect width="43.8307" height="40" fill="white" transform="translate(20 20)"/>
</clipPath>
<clipPath id="clip1_13_1678">
<rect width="43.8307" height="40" fill="white" transform="translate(20 80)"/>
</clipPath>
</defs>
</svg>
