<svg width="80" height="140" viewBox="0 0 80 140" fill="none" xmlns="http://www.w3.org/2000/svg">
<g clip-path="url(#clip0_13_1760)">
<path d="M58.583 27.5708C58.583 27.8947 58.2996 28.1781 57.9757 28.1781H21.8623C21.5385 28.1781 21.2551 27.8947 21.2551 27.5708V21.9028C21.2551 21.5789 21.5385 21.2955 21.8623 21.2955H57.9352C58.2591 21.2955 58.5425 21.5789 58.5425 21.9028V27.5708H58.583ZM57.9757 20H21.8623C20.8502 20 20 20.8502 20 21.9028V27.6113C20 28.664 20.8502 29.5142 21.8623 29.5142H57.9352C58.9879 29.5142 59.7976 28.664 59.7976 27.6113V21.9028C59.8381 20.8502 58.9879 20 57.9757 20Z" fill="black"/>
<path d="M44.1701 34.8583H24.7369C24.3725 34.8583 24.0891 35.1417 24.0891 35.506C24.0891 35.8704 24.3725 36.1538 24.7369 36.1538H44.1701C44.5345 36.1538 44.8179 35.8704 44.8179 35.506C44.8179 35.1417 44.494 34.8583 44.1701 34.8583Z" fill="black"/>
<path d="M55.1416 36.1133C54.7772 36.1133 54.4938 35.8299 54.4938 35.4656C54.4938 35.1012 54.7772 34.8178 55.1416 34.8178C55.506 34.8178 55.7894 35.1012 55.7894 35.4656C55.7894 35.8299 55.4655 36.1133 55.1416 36.1133ZM55.1416 33.5627C54.089 33.5627 53.2388 34.4129 53.2388 35.4656C53.2388 36.5182 54.089 37.3684 55.1416 37.3684C56.1942 37.3684 57.0444 36.5182 57.0444 35.4656C57.0444 34.4129 56.1942 33.5627 55.1416 33.5627Z" fill="black"/>
<path d="M49.5142 36.1133C49.1498 36.1133 48.8664 35.8299 48.8664 35.4656C48.8664 35.1012 49.1498 34.8178 49.5142 34.8178C49.8785 34.8178 50.1619 35.1012 50.1619 35.4656C50.1619 35.8299 49.8785 36.1133 49.5142 36.1133ZM49.5142 33.5627C48.4615 33.5627 47.6113 34.4129 47.6113 35.4656C47.6113 36.5182 48.4615 37.3684 49.5142 37.3684C50.5668 37.3684 51.417 36.5182 51.417 35.4656C51.417 34.4129 50.5668 33.5627 49.5142 33.5627Z" fill="black"/>
<path d="M58.583 38.3401C58.583 38.664 58.2996 38.9474 57.9757 38.9474H21.8623C21.5385 38.9474 21.2551 38.664 21.2551 38.3401V32.6316C21.2551 32.3077 21.5385 32.0243 21.8623 32.0243H57.9352C58.2591 32.0243 58.5425 32.3077 58.5425 32.6316V38.3401H58.583ZM57.9757 30.7288H21.8623C20.8097 30.7288 20 31.579 20 32.6316V38.3401C20 39.3927 20.8502 40.2429 21.8623 40.2429H57.9352C58.9879 40.2429 59.7976 39.3927 59.7976 38.3401V32.6316C59.8381 31.579 58.9879 30.7288 57.9757 30.7288Z" fill="black"/>
<path d="M44.1701 45.587H24.7369C24.3725 45.587 24.0891 45.8704 24.0891 46.2348C24.0891 46.5992 24.3725 46.8826 24.7369 46.8826H44.1701C44.5345 46.8826 44.8179 46.5992 44.8179 46.2348C44.8179 45.8704 44.494 45.587 44.1701 45.587Z" fill="black"/>
<path d="M55.1416 46.8825C54.7772 46.8825 54.4938 46.5991 54.4938 46.2347C54.4938 45.8704 54.7772 45.587 55.1416 45.587C55.506 45.587 55.7894 45.8704 55.7894 46.2347C55.7489 46.5991 55.4655 46.8825 55.1416 46.8825ZM55.1416 44.3319C54.089 44.3319 53.2388 45.1821 53.2388 46.2347C53.2388 47.2874 54.089 48.1376 55.1416 48.1376C56.1942 48.1376 57.0444 47.2874 57.0444 46.2347C57.0444 45.1821 56.1942 44.3319 55.1416 44.3319Z" fill="black"/>
<path d="M49.5142 46.8825C49.1498 46.8825 48.8664 46.5991 48.8664 46.2347C48.8664 45.8704 49.1498 45.587 49.5142 45.587C49.8785 45.587 50.1619 45.8704 50.1619 46.2347C50.1619 46.5991 49.8785 46.8825 49.5142 46.8825ZM49.5142 44.3319C48.4615 44.3319 47.6113 45.1821 47.6113 46.2347C47.6113 47.2874 48.4615 48.1376 49.5142 48.1376C50.5668 48.1376 51.417 47.2874 51.417 46.2347C51.417 45.1821 50.5668 44.3319 49.5142 44.3319Z" fill="black"/>
<path d="M58.583 49.0688C58.583 49.3927 58.2996 49.6761 57.9757 49.6761H21.8623C21.5385 49.6761 21.2551 49.3927 21.2551 49.0688V43.3603C21.2551 43.0364 21.5385 42.753 21.8623 42.753H57.9352C58.2591 42.753 58.5425 43.0364 58.5425 43.3603V49.0688H58.583ZM57.9757 41.4979H21.8623C20.8097 41.4979 20 42.3481 20 43.4008V49.1093C20 50.1619 20.8502 51.0121 21.8623 51.0121H57.9352C58.9879 51.0121 59.7976 50.1619 59.7976 49.1093V43.3603C59.8381 42.3481 58.9879 41.4979 57.9757 41.4979Z" fill="black"/>
<path d="M59.1903 56.5992C59.5546 56.5992 59.8381 56.3158 59.8381 55.9514C59.8381 55.587 59.5546 55.3036 59.1903 55.3036H44.8178C44.7773 54.9797 44.4939 54.7773 44.2105 54.7773H42.5506V52.8745C42.5506 52.5101 42.2672 52.2267 41.9028 52.2267C41.5385 52.2267 41.2551 52.5101 41.2551 52.8745V55.4251C41.2551 55.7894 41.5385 56.0728 41.9028 56.0728H43.5627V58.7449H36.2753V56.0728H39.3117C39.6761 56.0728 39.9595 55.7894 39.9595 55.4251C39.9595 55.0607 39.6761 54.7773 39.3117 54.7773H38.5425V52.8745C38.5425 52.5101 38.2591 52.2267 37.8947 52.2267C37.5304 52.2267 37.247 52.5101 37.247 52.8745V54.7773H35.587C35.2632 54.7773 35.0202 55.0202 34.9798 55.3036H20.6478C20.2834 55.3441 20 55.6275 20 55.9919C20 56.3562 20.2834 56.6396 20.6478 56.6396H35.0202V57.9352H20.6478C20.2834 57.9352 20 58.2186 20 58.583C20 58.9473 20.2834 59.2307 20.6478 59.2307H35.0202V59.4332C35.0202 59.7975 35.3036 60.0809 35.668 60.0809H44.2105C44.5749 60.0809 44.8583 59.7975 44.8583 59.4332V59.2307H59.2308C59.5951 59.2307 59.8785 58.9473 59.8785 58.583C59.8785 58.2186 59.5951 57.9352 59.2308 57.9352H44.8178V56.6396H59.1903V56.5992Z" fill="black"/>
<path d="M44.1701 24.0891H24.7369C24.3725 24.0891 24.0891 24.3725 24.0891 24.7369C24.0891 25.1013 24.3725 25.3847 24.7369 25.3847H44.1701C44.5345 25.3847 44.8179 25.1013 44.8179 24.7369C44.8179 24.3725 44.494 24.0891 44.1701 24.0891Z" fill="black"/>
<path d="M55.1418 25.3846C54.7774 25.3846 54.494 25.1012 54.494 24.7368C54.494 24.3724 54.7774 24.089 55.1418 24.089C55.5062 24.089 55.7896 24.3724 55.7896 24.7368C55.7896 25.1012 55.4657 25.3846 55.1418 25.3846ZM55.1418 22.834C54.0892 22.834 53.1985 23.6842 53.1985 24.7368C53.1985 25.7894 54.0487 26.6397 55.1013 26.6397C56.154 26.6397 57.0042 25.7894 57.0042 24.7368C57.0446 23.6842 56.1944 22.834 55.1418 22.834Z" fill="black"/>
<path d="M49.5142 25.3846C49.1498 25.3846 48.8664 25.1012 48.8664 24.7368C48.8664 24.3724 49.1498 24.089 49.5142 24.089C49.8785 24.089 50.1619 24.3724 50.1619 24.7368C50.1619 25.1012 49.8785 25.3846 49.5142 25.3846ZM49.5142 22.834C48.4615 22.834 47.6113 23.6842 47.6113 24.7368C47.6113 25.7894 48.4615 26.6397 49.5142 26.6397C50.5668 26.6397 51.417 25.7894 51.417 24.7368C51.417 23.6842 50.5668 22.834 49.5142 22.834Z" fill="black"/>
</g>
<g clip-path="url(#clip1_13_1760)">
<path d="M58.583 87.5708C58.583 87.8947 58.2996 88.1781 57.9757 88.1781H21.8623C21.5385 88.1781 21.2551 87.8947 21.2551 87.5708V81.9028C21.2551 81.5789 21.5385 81.2955 21.8623 81.2955H57.9352C58.2591 81.2955 58.5425 81.5789 58.5425 81.9028V87.5708H58.583ZM57.9757 80H21.8623C20.8502 80 20 80.8502 20 81.9028V87.6113C20 88.664 20.8502 89.5142 21.8623 89.5142H57.9352C58.9879 89.5142 59.7976 88.664 59.7976 87.6113V81.9028C59.8381 80.8502 58.9879 80 57.9757 80Z" fill="white"/>
<path d="M44.1701 94.8583H24.7369C24.3725 94.8583 24.0891 95.1417 24.0891 95.506C24.0891 95.8704 24.3725 96.1538 24.7369 96.1538H44.1701C44.5345 96.1538 44.8179 95.8704 44.8179 95.506C44.8179 95.1417 44.494 94.8583 44.1701 94.8583Z" fill="white"/>
<path d="M55.1416 96.1133C54.7772 96.1133 54.4938 95.8299 54.4938 95.4656C54.4938 95.1012 54.7772 94.8178 55.1416 94.8178C55.506 94.8178 55.7894 95.1012 55.7894 95.4656C55.7894 95.8299 55.4655 96.1133 55.1416 96.1133ZM55.1416 93.5627C54.089 93.5627 53.2388 94.4129 53.2388 95.4656C53.2388 96.5182 54.089 97.3684 55.1416 97.3684C56.1942 97.3684 57.0444 96.5182 57.0444 95.4656C57.0444 94.4129 56.1942 93.5627 55.1416 93.5627Z" fill="white"/>
<path d="M49.5142 96.1133C49.1498 96.1133 48.8664 95.8299 48.8664 95.4656C48.8664 95.1012 49.1498 94.8178 49.5142 94.8178C49.8785 94.8178 50.1619 95.1012 50.1619 95.4656C50.1619 95.8299 49.8785 96.1133 49.5142 96.1133ZM49.5142 93.5627C48.4615 93.5627 47.6113 94.4129 47.6113 95.4656C47.6113 96.5182 48.4615 97.3684 49.5142 97.3684C50.5668 97.3684 51.417 96.5182 51.417 95.4656C51.417 94.4129 50.5668 93.5627 49.5142 93.5627Z" fill="white"/>
<path d="M58.583 98.3401C58.583 98.664 58.2996 98.9474 57.9757 98.9474H21.8623C21.5385 98.9474 21.2551 98.664 21.2551 98.3401V92.6316C21.2551 92.3077 21.5385 92.0243 21.8623 92.0243H57.9352C58.2591 92.0243 58.5425 92.3077 58.5425 92.6316V98.3401H58.583ZM57.9757 90.7288H21.8623C20.8097 90.7288 20 91.579 20 92.6316V98.3401C20 99.3927 20.8502 100.243 21.8623 100.243H57.9352C58.9879 100.243 59.7976 99.3927 59.7976 98.3401V92.6316C59.8381 91.579 58.9879 90.7288 57.9757 90.7288Z" fill="white"/>
<path d="M44.1701 105.587H24.7369C24.3725 105.587 24.0891 105.87 24.0891 106.235C24.0891 106.599 24.3725 106.883 24.7369 106.883H44.1701C44.5345 106.883 44.8179 106.599 44.8179 106.235C44.8179 105.87 44.494 105.587 44.1701 105.587Z" fill="white"/>
<path d="M55.1416 106.883C54.7772 106.883 54.4938 106.599 54.4938 106.235C54.4938 105.87 54.7772 105.587 55.1416 105.587C55.506 105.587 55.7894 105.87 55.7894 106.235C55.7489 106.599 55.4655 106.883 55.1416 106.883ZM55.1416 104.332C54.089 104.332 53.2388 105.182 53.2388 106.235C53.2388 107.287 54.089 108.138 55.1416 108.138C56.1942 108.138 57.0444 107.287 57.0444 106.235C57.0444 105.182 56.1942 104.332 55.1416 104.332Z" fill="white"/>
<path d="M49.5142 106.883C49.1498 106.883 48.8664 106.599 48.8664 106.235C48.8664 105.87 49.1498 105.587 49.5142 105.587C49.8785 105.587 50.1619 105.87 50.1619 106.235C50.1619 106.599 49.8785 106.883 49.5142 106.883ZM49.5142 104.332C48.4615 104.332 47.6113 105.182 47.6113 106.235C47.6113 107.287 48.4615 108.138 49.5142 108.138C50.5668 108.138 51.417 107.287 51.417 106.235C51.417 105.182 50.5668 104.332 49.5142 104.332Z" fill="white"/>
<path d="M58.583 109.069C58.583 109.393 58.2996 109.676 57.9757 109.676H21.8623C21.5385 109.676 21.2551 109.393 21.2551 109.069V103.36C21.2551 103.036 21.5385 102.753 21.8623 102.753H57.9352C58.2591 102.753 58.5425 103.036 58.5425 103.36V109.069H58.583ZM57.9757 101.498H21.8623C20.8097 101.498 20 102.348 20 103.401V109.109C20 110.162 20.8502 111.012 21.8623 111.012H57.9352C58.9879 111.012 59.7976 110.162 59.7976 109.109V103.36C59.8381 102.348 58.9879 101.498 57.9757 101.498Z" fill="white"/>
<path d="M59.1903 116.599C59.5546 116.599 59.8381 116.316 59.8381 115.951C59.8381 115.587 59.5546 115.304 59.1903 115.304H44.8178C44.7773 114.98 44.4939 114.777 44.2105 114.777H42.5506V112.874C42.5506 112.51 42.2672 112.227 41.9028 112.227C41.5385 112.227 41.2551 112.51 41.2551 112.874V115.425C41.2551 115.789 41.5385 116.073 41.9028 116.073H43.5627V118.745H36.2753V116.073H39.3117C39.6761 116.073 39.9595 115.789 39.9595 115.425C39.9595 115.061 39.6761 114.777 39.3117 114.777H38.5425V112.874C38.5425 112.51 38.2591 112.227 37.8947 112.227C37.5304 112.227 37.247 112.51 37.247 112.874V114.777H35.587C35.2632 114.777 35.0202 115.02 34.9798 115.304H20.6478C20.2834 115.344 20 115.627 20 115.992C20 116.356 20.2834 116.64 20.6478 116.64H35.0202V117.935H20.6478C20.2834 117.935 20 118.219 20 118.583C20 118.947 20.2834 119.231 20.6478 119.231H35.0202V119.433C35.0202 119.798 35.3036 120.081 35.668 120.081H44.2105C44.5749 120.081 44.8583 119.798 44.8583 119.433V119.231H59.2308C59.5951 119.231 59.8785 118.947 59.8785 118.583C59.8785 118.219 59.5951 117.935 59.2308 117.935H44.8178V116.64H59.1903V116.599Z" fill="white"/>
<path d="M44.1701 84.0891H24.7369C24.3725 84.0891 24.0891 84.3725 24.0891 84.7369C24.0891 85.1013 24.3725 85.3847 24.7369 85.3847H44.1701C44.5345 85.3847 44.8179 85.1013 44.8179 84.7369C44.8179 84.3725 44.494 84.0891 44.1701 84.0891Z" fill="white"/>
<path d="M55.1418 85.3846C54.7774 85.3846 54.494 85.1012 54.494 84.7368C54.494 84.3724 54.7774 84.089 55.1418 84.089C55.5062 84.089 55.7896 84.3724 55.7896 84.7368C55.7896 85.1012 55.4657 85.3846 55.1418 85.3846ZM55.1418 82.834C54.0892 82.834 53.1985 83.6842 53.1985 84.7368C53.1985 85.7894 54.0487 86.6397 55.1013 86.6397C56.154 86.6397 57.0042 85.7894 57.0042 84.7368C57.0446 83.6842 56.1944 82.834 55.1418 82.834Z" fill="white"/>
<path d="M49.5142 85.3846C49.1498 85.3846 48.8664 85.1012 48.8664 84.7368C48.8664 84.3724 49.1498 84.089 49.5142 84.089C49.8785 84.089 50.1619 84.3724 50.1619 84.7368C50.1619 85.1012 49.8785 85.3846 49.5142 85.3846ZM49.5142 82.834C48.4615 82.834 47.6113 83.6842 47.6113 84.7368C47.6113 85.7894 48.4615 86.6397 49.5142 86.6397C50.5668 86.6397 51.417 85.7894 51.417 84.7368C51.417 83.6842 50.5668 82.834 49.5142 82.834Z" fill="white"/>
</g>
<rect x="0.5" y="0.5" width="78.8381" height="139" rx="4.5" stroke="#7B61FF" stroke-dasharray="10 5"/>
<defs>
<clipPath id="clip0_13_1760">
<rect width="39.8381" height="40" fill="white" transform="translate(20 20)"/>
</clipPath>
<clipPath id="clip1_13_1760">
<rect width="39.8381" height="40" fill="white" transform="translate(20 80)"/>
</clipPath>
</defs>
</svg>
