<svg width="80" height="140" viewBox="0 0 80 140" fill="none" xmlns="http://www.w3.org/2000/svg">
<g clip-path="url(#clip0_13_1888)">
<path d="M26.8699 37.6829H24.8374C24.7967 37.6829 24.7561 37.6423 24.7561 37.6016V27.3984C24.7561 27.1545 24.6341 26.9512 24.3902 26.8293L22.0732 25.6504L24.3902 24.4715C24.5935 24.3496 24.7561 24.1463 24.7561 23.9024V21.3821C24.7561 21.3415 24.7967 21.3008 24.8374 21.3008H53.0894C53.1301 21.3008 53.1707 21.3415 53.1707 21.3821V35.7724C53.1707 36.1382 53.4553 36.4228 53.8211 36.4228C54.187 36.4228 54.4715 36.1382 54.4715 35.7724V21.3821C54.4715 20.6098 53.8618 20 53.0894 20H24.8374C24.065 20 23.4553 20.6098 23.4553 21.3821V23.5366L20.3659 25.0813C20.122 25.2033 20 25.4065 20 25.6504C20 25.8943 20.122 26.0976 20.3659 26.2195L23.4553 27.7642V37.561C23.4553 38.3333 24.065 38.9431 24.8374 38.9431H26.8699C27.2358 38.9431 27.5203 38.6585 27.5203 38.2927C27.5203 37.9675 27.2358 37.6829 26.8699 37.6829Z" fill="black"/>
<path d="M33.8618 58.6992H30.0813V38.9431H33.8618V58.6992ZM59.309 40.9349C59.309 39.1463 57.8455 37.6829 56.0569 37.6829H48.0488C49.4716 35.0813 50.2439 31.8699 50.2439 28.4959C50.2439 26.7073 48.7805 25.2439 46.9919 25.2439C45.2033 25.2439 43.7399 26.7073 43.7399 28.4959C43.7399 33.5772 39.5935 37.6829 34.5529 37.6829H29.4309C29.0651 37.6829 28.7805 37.9675 28.7805 38.3333V59.3902C28.7805 59.7561 29.0651 60.0406 29.4309 60.0406H34.5122C34.8781 60.0406 35.1626 59.7561 35.1626 59.3902V38.9431C40.6504 38.6179 45 34.065 45 28.4959C45 27.3984 45.8943 26.5041 46.9919 26.5041C48.0895 26.5041 48.9838 27.3984 48.9838 28.4959C48.9838 32.0732 48.0895 35.4471 46.4228 38.0081C46.3008 38.2114 46.3008 38.4553 46.3821 38.6585C46.5041 38.8618 46.7073 38.9837 46.9512 38.9837H56.0569C57.1545 38.9837 58.0488 39.878 58.0488 40.9756C58.0488 42.0732 57.1545 42.9675 56.0569 42.9675H52.8049C52.439 42.9675 52.1545 43.252 52.1545 43.6179C52.1545 43.9837 52.439 44.2683 52.8049 44.2683H54.9594C56.0569 44.2683 56.9512 45.1626 56.9512 46.2601C56.9512 47.3577 56.0569 48.252 54.9594 48.252H52.8049C52.439 48.252 52.1545 48.5366 52.1545 48.9024C52.1545 49.2683 52.439 49.5528 52.8049 49.5528H53.9025C55 49.5528 55.8943 50.4471 55.8943 51.5447C55.8943 52.6423 55 53.5366 53.9025 53.5366H52.8049C52.439 53.5366 52.1545 53.8211 52.1545 54.187C52.1545 54.5528 52.439 54.8374 52.8049 54.8374C53.9025 54.8374 54.7968 55.7317 54.7968 56.8293C54.7968 57.9268 53.9025 58.8211 52.8049 58.8211H37.0732C36.7073 58.8211 36.4228 59.1057 36.4228 59.4715C36.4228 59.8374 36.7073 60.1219 37.0732 60.1219H52.8456C54.6342 60.1219 56.0976 58.6585 56.0976 56.8699C56.0976 56.0162 55.7724 55.2032 55.2033 54.6341C56.3821 54.1463 57.1951 52.9675 57.1951 51.626C57.1951 50.7723 56.8699 49.9593 56.3008 49.3902C57.4797 48.9024 58.2927 47.7236 58.2927 46.3821C58.2927 45.5284 57.9675 44.7154 57.3984 44.1463C58.496 43.4553 59.309 42.2764 59.309 40.9349Z" fill="black"/>
<path d="M50.8943 56.7886V40.8537C50.8943 40.4878 50.6098 40.2032 50.2439 40.2032C49.8781 40.2032 49.5935 40.4878 49.5935 40.8537V56.7886C49.5935 57.1545 49.8781 57.439 50.2439 57.439C50.6098 57.439 50.8943 57.1545 50.8943 56.7886Z" fill="black"/>
</g>
<g clip-path="url(#clip1_13_1888)">
<path d="M26.8699 97.6829H24.8374C24.7967 97.6829 24.7561 97.6423 24.7561 97.6016V87.3984C24.7561 87.1545 24.6341 86.9512 24.3902 86.8293L22.0732 85.6504L24.3902 84.4715C24.5935 84.3496 24.7561 84.1463 24.7561 83.9024V81.3821C24.7561 81.3415 24.7967 81.3008 24.8374 81.3008H53.0894C53.1301 81.3008 53.1707 81.3415 53.1707 81.3821V95.7724C53.1707 96.1382 53.4553 96.4228 53.8211 96.4228C54.187 96.4228 54.4715 96.1382 54.4715 95.7724V81.3821C54.4715 80.6098 53.8618 80 53.0894 80H24.8374C24.065 80 23.4553 80.6098 23.4553 81.3821V83.5366L20.3659 85.0813C20.122 85.2033 20 85.4065 20 85.6504C20 85.8943 20.122 86.0976 20.3659 86.2195L23.4553 87.7642V97.561C23.4553 98.3333 24.065 98.9431 24.8374 98.9431H26.8699C27.2358 98.9431 27.5203 98.6585 27.5203 98.2927C27.5203 97.9675 27.2358 97.6829 26.8699 97.6829Z" fill="white"/>
<path d="M33.8618 118.699H30.0813V98.9431H33.8618V118.699ZM59.309 100.935C59.309 99.1463 57.8455 97.6829 56.0569 97.6829H48.0488C49.4716 95.0813 50.2439 91.8699 50.2439 88.4959C50.2439 86.7073 48.7805 85.2439 46.9919 85.2439C45.2033 85.2439 43.7399 86.7073 43.7399 88.4959C43.7399 93.5772 39.5935 97.6829 34.5529 97.6829H29.4309C29.0651 97.6829 28.7805 97.9675 28.7805 98.3333V119.39C28.7805 119.756 29.0651 120.041 29.4309 120.041H34.5122C34.8781 120.041 35.1626 119.756 35.1626 119.39V98.9431C40.6504 98.6179 45 94.065 45 88.4959C45 87.3984 45.8943 86.5041 46.9919 86.5041C48.0895 86.5041 48.9838 87.3984 48.9838 88.4959C48.9838 92.0732 48.0895 95.4471 46.4228 98.0081C46.3008 98.2114 46.3008 98.4553 46.3821 98.6585C46.5041 98.8618 46.7073 98.9837 46.9512 98.9837H56.0569C57.1545 98.9837 58.0488 99.878 58.0488 100.976C58.0488 102.073 57.1545 102.967 56.0569 102.967H52.8049C52.439 102.967 52.1545 103.252 52.1545 103.618C52.1545 103.984 52.439 104.268 52.8049 104.268H54.9594C56.0569 104.268 56.9512 105.163 56.9512 106.26C56.9512 107.358 56.0569 108.252 54.9594 108.252H52.8049C52.439 108.252 52.1545 108.537 52.1545 108.902C52.1545 109.268 52.439 109.553 52.8049 109.553H53.9025C55 109.553 55.8943 110.447 55.8943 111.545C55.8943 112.642 55 113.537 53.9025 113.537H52.8049C52.439 113.537 52.1545 113.821 52.1545 114.187C52.1545 114.553 52.439 114.837 52.8049 114.837C53.9025 114.837 54.7968 115.732 54.7968 116.829C54.7968 117.927 53.9025 118.821 52.8049 118.821H37.0732C36.7073 118.821 36.4228 119.106 36.4228 119.472C36.4228 119.837 36.7073 120.122 37.0732 120.122H52.8456C54.6342 120.122 56.0976 118.659 56.0976 116.87C56.0976 116.016 55.7724 115.203 55.2033 114.634C56.3821 114.146 57.1951 112.967 57.1951 111.626C57.1951 110.772 56.8699 109.959 56.3008 109.39C57.4797 108.902 58.2927 107.724 58.2927 106.382C58.2927 105.528 57.9675 104.715 57.3984 104.146C58.496 103.455 59.309 102.276 59.309 100.935Z" fill="white"/>
<path d="M50.8943 116.789V100.854C50.8943 100.488 50.6098 100.203 50.2439 100.203C49.8781 100.203 49.5935 100.488 49.5935 100.854V116.789C49.5935 117.154 49.8781 117.439 50.2439 117.439C50.6098 117.439 50.8943 117.154 50.8943 116.789Z" fill="white"/>
</g>
<rect x="0.5" y="0.5" width="78.3089" height="139" rx="4.5" stroke="#7B61FF" stroke-dasharray="10 5"/>
<defs>
<clipPath id="clip0_13_1888">
<rect width="39.3089" height="40" fill="white" transform="translate(20 20)"/>
</clipPath>
<clipPath id="clip1_13_1888">
<rect width="39.3089" height="40" fill="white" transform="translate(20 80)"/>
</clipPath>
</defs>
</svg>
