<svg width="81" height="140" viewBox="0 0 81 140" fill="none" xmlns="http://www.w3.org/2000/svg">
<g clip-path="url(#clip0_13_1815)">
<path d="M47.3428 55.0507V50.426C47.3428 50.0609 47.0588 49.7769 46.6937 49.7769C46.3286 49.7769 46.0446 50.0609 46.0446 50.426V55.0507L34.3205 58.499V46.9371L46.0446 43.4888V47.8702C46.0446 48.2353 46.3286 48.5193 46.6937 48.5193C47.0588 48.5193 47.3428 48.2353 47.3428 47.8702V43.4888L59.0669 46.9371V58.499L47.3428 55.0507ZM21.2982 43.4888L25.7606 44.787C25.8418 44.787 25.8824 44.8276 25.9635 44.8276C26.2475 44.8276 26.4909 44.6653 26.572 44.3813C26.6531 44.0568 26.4909 43.6917 26.1258 43.57L21.2982 42.1501V30.5882L33.0223 34.0365V45.5984L28.5598 44.3002C28.2353 44.2191 27.8702 44.3813 27.7485 44.7465C27.6673 45.071 27.8296 45.4361 28.1947 45.5578L33.0223 46.9777V58.5396L21.2982 55.0507V43.4888ZM46.0446 40.3245V42.1501L34.3205 45.5984V34.0365L40.0406 32.3327C41.9067 35.9838 45.1927 39.4726 46.0446 40.3245ZM46.6937 21.2576C50.3448 21.2576 53.3469 24.2191 53.3469 27.8702C53.3469 28.9249 52.9817 30.0609 52.4544 31.2373C52.4138 31.2779 52.4138 31.3185 52.3732 31.359C50.8316 34.6045 47.8296 37.931 46.6937 39.1481C45.5578 37.931 42.5558 34.6045 41.0142 31.359C41.0142 31.3185 40.9736 31.2373 40.9331 31.1968C40.4057 30.0203 40.0406 28.8844 40.0406 27.8296C40.0406 24.2191 43.002 21.2576 46.6937 21.2576ZM59.0669 34.0365V45.5984L47.3428 42.1501V40.3245C48.1947 39.4726 51.4807 35.9838 53.3469 32.3327L59.0669 34.0365ZM60.3651 46.4503V33.5497C60.3651 33.2657 60.1623 33.0223 59.9189 32.9412L53.9148 31.1562C54.3611 30.0203 54.6856 28.9249 54.6856 27.8702C54.645 23.5294 51.0751 20 46.6937 20C42.3124 20 38.7424 23.5294 38.7424 27.8702C38.7424 28.9249 39.0264 30.0203 39.5132 31.1562L33.6714 32.86L20.8114 29.0872C20.6085 29.0467 20.4057 29.0467 20.2434 29.1684C20.0811 29.3306 20 29.5335 20 29.6957V55.497C20 55.7809 20.2028 56.0243 20.4462 56.1055L33.4686 59.9189C33.5091 59.9189 33.5091 59.9189 33.5497 59.9189C33.5903 59.9189 33.5903 59.9189 33.6308 59.9189C33.6714 59.9189 33.6714 59.9189 33.712 59.9189C33.7525 59.9189 33.7525 59.9189 33.7931 59.9189L46.3692 56.2272C46.4503 56.2677 46.5314 56.2677 46.6126 56.2677C46.6937 56.2677 46.7748 56.2677 46.856 56.2272L59.432 59.9189C59.4726 59.9189 59.5538 59.9594 59.6349 59.9594C59.7566 59.9594 59.9189 59.9189 60 59.8377C60.1623 59.716 60.2434 59.5132 60.2434 59.3103V46.4503H60.3651Z" fill="black"/>
<path d="M46.6937 24.6653C48.4787 24.6653 49.8986 26.0852 49.8986 27.8702C49.8986 29.6146 48.4381 31.0751 46.6937 31.0751C44.9087 31.0751 43.4888 29.6552 43.4888 27.8702C43.4483 26.1258 44.9087 24.6653 46.6937 24.6653ZM46.6937 32.3327C49.1684 32.3327 51.1968 30.3448 51.1968 27.8702C51.1968 25.3955 49.1684 23.4077 46.6937 23.4077C44.2191 23.4077 42.1907 25.3955 42.1907 27.8702C42.1907 30.3448 44.2191 32.3327 46.6937 32.3327Z" fill="black"/>
</g>
<g clip-path="url(#clip1_13_1815)">
<path d="M47.3428 115.051V110.426C47.3428 110.061 47.0588 109.777 46.6937 109.777C46.3286 109.777 46.0446 110.061 46.0446 110.426V115.051L34.3205 118.499V106.937L46.0446 103.489V107.87C46.0446 108.235 46.3286 108.519 46.6937 108.519C47.0588 108.519 47.3428 108.235 47.3428 107.87V103.489L59.0669 106.937V118.499L47.3428 115.051ZM21.2982 103.489L25.7606 104.787C25.8418 104.787 25.8824 104.828 25.9635 104.828C26.2475 104.828 26.4909 104.665 26.572 104.381C26.6531 104.057 26.4909 103.692 26.1258 103.57L21.2982 102.15V90.5882L33.0223 94.0365V105.598L28.5598 104.3C28.2353 104.219 27.8702 104.381 27.7485 104.746C27.6673 105.071 27.8296 105.436 28.1947 105.558L33.0223 106.978V118.54L21.2982 115.051V103.489ZM46.0446 100.325V102.15L34.3205 105.598V94.0365L40.0406 92.3327C41.9067 95.9838 45.1927 99.4726 46.0446 100.325ZM46.6937 81.2576C50.3448 81.2576 53.3469 84.2191 53.3469 87.8702C53.3469 88.9249 52.9817 90.0609 52.4544 91.2373C52.4138 91.2779 52.4138 91.3185 52.3732 91.359C50.8316 94.6045 47.8296 97.931 46.6937 99.1481C45.5578 97.931 42.5558 94.6045 41.0142 91.359C41.0142 91.3185 40.9736 91.2373 40.9331 91.1968C40.4057 90.0203 40.0406 88.8844 40.0406 87.8296C40.0406 84.2191 43.002 81.2576 46.6937 81.2576ZM59.0669 94.0365V105.598L47.3428 102.15V100.325C48.1947 99.4726 51.4807 95.9838 53.3469 92.3327L59.0669 94.0365ZM60.3651 106.45V93.5497C60.3651 93.2657 60.1623 93.0223 59.9189 92.9412L53.9148 91.1562C54.3611 90.0203 54.6856 88.9249 54.6856 87.8702C54.645 83.5294 51.0751 80 46.6937 80C42.3124 80 38.7424 83.5294 38.7424 87.8702C38.7424 88.9249 39.0264 90.0203 39.5132 91.1562L33.6714 92.86L20.8114 89.0872C20.6085 89.0467 20.4057 89.0467 20.2434 89.1684C20.0811 89.3306 20 89.5335 20 89.6957V115.497C20 115.781 20.2028 116.024 20.4462 116.105L33.4686 119.919C33.5091 119.919 33.5091 119.919 33.5497 119.919C33.5903 119.919 33.5903 119.919 33.6308 119.919C33.6714 119.919 33.6714 119.919 33.712 119.919C33.7525 119.919 33.7525 119.919 33.7931 119.919L46.3692 116.227C46.4503 116.268 46.5314 116.268 46.6126 116.268C46.6937 116.268 46.7748 116.268 46.856 116.227L59.432 119.919C59.4726 119.919 59.5538 119.959 59.6349 119.959C59.7566 119.959 59.9189 119.919 60 119.838C60.1623 119.716 60.2434 119.513 60.2434 119.31V106.45H60.3651Z" fill="white"/>
<path d="M46.6937 84.6653C48.4787 84.6653 49.8986 86.0852 49.8986 87.8702C49.8986 89.6146 48.4381 91.0751 46.6937 91.0751C44.9087 91.0751 43.4888 89.6552 43.4888 87.8702C43.4483 86.1258 44.9087 84.6653 46.6937 84.6653ZM46.6937 92.3327C49.1684 92.3327 51.1968 90.3448 51.1968 87.8702C51.1968 85.3955 49.1684 83.4077 46.6937 83.4077C44.2191 83.4077 42.1907 85.3955 42.1907 87.8702C42.1907 90.3448 44.2191 92.3327 46.6937 92.3327Z" fill="white"/>
</g>
<rect x="0.5" y="0.5" width="79.3651" height="139" rx="4.5" stroke="#7B61FF" stroke-dasharray="10 5"/>
<defs>
<clipPath id="clip0_13_1815">
<rect width="40.3651" height="40" fill="white" transform="translate(20 20)"/>
</clipPath>
<clipPath id="clip1_13_1815">
<rect width="40.3651" height="40" fill="white" transform="translate(20 80)"/>
</clipPath>
</defs>
</svg>
