<svg width="1920" height="960" viewBox="0 0 1920 960" fill="none" xmlns="http://www.w3.org/2000/svg">
<g clip-path="url(#clip0_3570_26277)">
<rect width="1920" height="960" fill="url(#paint0_linear_3570_26277)"/>
<path fill-rule="evenodd" clip-rule="evenodd" d="M1920 0H0V960L960.703 960L1920 960V0ZM960.703 960L962.962 958.015C1247.81 714.856 1628.15 321.162 1846.72 0.00012207H74.6263C279.701 300.356 655.703 703.067 960.703 960Z" fill="#990017"/>
<g style="mix-blend-mode:multiply" opacity="0.8">
<path d="M960.599 640.71C737.727 436.43 533.593 207.489 372.252 0H74.6262C279.701 300.356 655.703 703.067 960.703 960L962.962 958.015C1247.81 714.856 1628.15 321.162 1846.72 0H1549.06C1387.73 207.5 1183.64 436.426 960.599 640.71Z" fill="#F20024"/>
</g>
</g>
<defs>
<linearGradient id="paint0_linear_3570_26277" x1="960" y1="960" x2="977.643" y2="0.324365" gradientUnits="userSpaceOnUse">
<stop/>
<stop offset="1" stop-opacity="0.2"/>
</linearGradient>
<clipPath id="clip0_3570_26277">
<rect width="1920" height="960" fill="white"/>
</clipPath>
</defs>
</svg>
