<svg width="192" height="28" viewBox="0 0 192 28" fill="none" xmlns="http://www.w3.org/2000/svg">
<path d="M17.5235 0.969998H21.9315L15.5475 27H7.26353L0.87953 0.969998H5.28753L10.4555 23.276H12.3555L17.5235 0.969998ZM27.584 27V0.969998H44V4.656H31.802V12.028H41.72V15.676H31.802V23.276H44V27H27.584ZM50.4879 27V0.969998H57.8599L65.7639 23.276H66.3339V0.969998H70.5519V27H63.3319L55.2379 4.656H54.7059V27H50.4879ZM75.9307 4.732V0.969998H94.9307V4.732H87.5967V27H83.3407V4.732H75.9307ZM104.369 18.678C104.369 22.0473 106.142 23.732 109.689 23.732C113.235 23.732 115.009 22.0473 115.009 18.678V0.969998H119.265V18.602C119.265 21.6673 118.454 23.9093 116.833 25.328C115.237 26.7213 112.843 27.418 109.651 27.418C106.484 27.418 104.103 26.7213 102.507 25.328C100.911 23.9093 100.113 21.6673 100.113 18.602V0.969998H104.369V18.678ZM131.174 17.728V27H126.956V0.969998H136.836C142.713 0.969998 145.652 3.73133 145.652 9.254C145.652 12.9527 144.233 15.4607 141.396 16.778L145.69 27H141.054L137.292 17.728H131.174ZM141.32 9.292C141.32 6.176 139.825 4.618 136.836 4.618H131.174V14.08H136.912C138.432 14.08 139.546 13.6493 140.256 12.788C140.965 11.9013 141.32 10.736 141.32 9.292ZM152.346 27V0.969998H168.762V4.656H156.564V12.028H166.482V15.676H156.564V23.276H168.762V27H152.346ZM182.888 4.238C179.67 4.238 178.062 5.36533 178.062 7.62C178.062 8.78533 178.442 9.62133 179.202 10.128C179.962 10.6093 181.634 11.2173 184.218 11.952C186.827 12.6613 188.664 13.5227 189.728 14.536C190.792 15.524 191.324 17.0947 191.324 19.248C191.324 21.984 190.538 24.036 188.968 25.404C187.422 26.7467 185.307 27.418 182.622 27.418C180.468 27.418 178.087 27.1647 175.478 26.658L174.11 26.392L174.528 23.01C177.948 23.466 180.557 23.694 182.356 23.694C185.497 23.694 187.068 22.3007 187.068 19.514C187.068 18.4247 186.713 17.6267 186.004 17.12C185.294 16.588 183.698 16.018 181.216 15.41C178.733 14.7767 176.884 13.9153 175.668 12.826C174.452 11.7367 173.844 10.014 173.844 7.658C173.844 5.302 174.604 3.52866 176.124 2.338C177.669 1.122 179.797 0.513999 182.508 0.513999C184.458 0.513999 186.764 0.741999 189.424 1.198L190.754 1.426L190.412 4.846C186.865 4.44067 184.357 4.238 182.888 4.238Z" fill="#454D54"/>
</svg>
