<svg width="1124" height="569" viewBox="0 0 1124 569" fill="none" xmlns="http://www.w3.org/2000/svg">
<mask id="mask0_742_22173" style="mask-type:alpha" maskUnits="userSpaceOnUse" x="0" y="0" width="1124" height="569">
<path fill-rule="evenodd" clip-rule="evenodd" d="M0.268555 0C145.914 186.673 381.911 416.094 561.581 569L563.112 567.715C734.102 422.364 970.716 196.763 1123.1 0H0.268555Z" fill="white"/>
</mask>
<g mask="url(#mask0_742_22173)">
<g style="mix-blend-mode:multiply" opacity="0.5">
<path d="M561.451 345.075C361.06 166.371 181.685 -39.2418 56.9769 -209L-81 -109.729C61.5 102 339.768 387.246 561.526 569L563.155 567.608C770.143 395.695 1053.5 118 1204 -109.729L1066 -209C941.278 -39.2195 761.992 166.371 561.451 345.075Z" fill="#454D54"/>
</g>
<path d="M529 0C546.5 17.006 562.017 28.0058 562.017 28.0058C562.017 28.0058 578 16.506 594.695 0H529Z" fill="white"/>
</g>
<path d="M453 472C510.805 530.294 562.062 568 562.062 568C562.062 568 614.855 528.58 670 472H453Z" fill="#F20024"/>
</svg>
