<svg width="221" height="32" viewBox="0 0 221 32" fill="none" xmlns="http://www.w3.org/2000/svg">
<path opacity="0.3" d="M19.5536 0.859997H24.6576L17.2656 31H7.67357L0.281566 0.859997H5.38557L11.3696 26.688H13.5696L19.5536 0.859997ZM31.2026 31V0.859997H50.2106V5.128H36.0866V13.664H47.5706V17.888H36.0866V26.688H50.2106V31H31.2026ZM57.7229 31V0.859997H66.2589L75.4109 26.688H76.0709V0.859997H80.9549V31H72.5949L63.2229 5.128H62.6069V31H57.7229ZM87.1829 5.216V0.859997H109.183V5.216H100.691V31H95.7629V5.216H87.1829ZM120.111 21.364C120.111 25.2653 122.164 27.216 126.271 27.216C130.378 27.216 132.431 25.2653 132.431 21.364V0.859997H137.359V21.276C137.359 24.8253 136.42 27.4213 134.543 29.064C132.695 30.6773 129.923 31.484 126.227 31.484C122.56 31.484 119.803 30.6773 117.955 29.064C116.107 27.4213 115.183 24.8253 115.183 21.276V0.859997H120.111V21.364ZM151.148 20.264V31H146.264V0.859997H157.704C164.51 0.859997 167.912 4.05733 167.912 10.452C167.912 14.7347 166.27 17.6387 162.984 19.164L167.956 31H162.588L158.232 20.264H151.148ZM162.896 10.496C162.896 6.888 161.166 5.084 157.704 5.084H151.148V16.04H157.792C159.552 16.04 160.843 15.5413 161.664 14.544C162.486 13.5173 162.896 12.168 162.896 10.496ZM175.664 31V0.859997H194.672V5.128H180.548V13.664H192.032V17.888H180.548V26.688H194.672V31H175.664ZM211.028 4.644C207.302 4.644 205.44 5.94933 205.44 8.56C205.44 9.90933 205.88 10.8773 206.76 11.464C207.64 12.0213 209.576 12.7253 212.568 13.576C215.589 14.3973 217.716 15.3947 218.948 16.568C220.18 17.712 220.796 19.5307 220.796 22.024C220.796 25.192 219.886 27.568 218.068 29.152C216.278 30.7067 213.829 31.484 210.72 31.484C208.226 31.484 205.469 31.1907 202.448 30.604L200.864 30.296L201.348 26.38C205.308 26.908 208.329 27.172 210.412 27.172C214.049 27.172 215.868 25.5587 215.868 22.332C215.868 21.0707 215.457 20.1467 214.636 19.56C213.814 18.944 211.966 18.284 209.092 17.58C206.217 16.8467 204.076 15.8493 202.668 14.588C201.26 13.3267 200.556 11.332 200.556 8.604C200.556 5.876 201.436 3.82266 203.196 2.444C204.985 1.036 207.449 0.331999 210.588 0.331999C212.846 0.331999 215.516 0.595999 218.596 1.124L220.136 1.388L219.74 5.348C215.633 4.87867 212.729 4.644 211.028 4.644Z" fill="#454D54"/>
</svg>
