<svg width="85" height="130" viewBox="0 0 85 130" fill="none" xmlns="http://www.w3.org/2000/svg">
<g clip-path="url(#clip0_13_1728)">
<path d="M22.3333 30.7281C22.3333 30.0101 22.9167 29.4268 23.6346 29.4268H37.0962V39.2537H23.6346C22.9167 39.2537 22.3333 38.6704 22.3333 37.9524V30.7281ZM61.8205 45.9845L39.4295 39.523V29.1576L61.8205 22.7409V45.9845ZM23.6346 41.5871H24.6667V50.2473C24.6667 52.8499 26.7756 55.0037 29.3782 55.0037H33.5513C34.1795 55.0037 34.718 54.4653 34.718 53.8371V45.1319C34.718 44.5037 34.1795 43.9653 33.5513 43.9653C32.9231 43.9653 32.3846 44.5037 32.3846 45.1319V52.6704H29.3782C28.0769 52.6704 27 51.5935 27 50.2922V41.5871H38.0833L62.6731 48.6319C62.7628 48.6768 62.8974 48.6768 62.9872 48.6768C63.2564 48.6768 63.4808 48.5871 63.7051 48.4525C64.0192 48.2281 64.1539 47.8691 64.1539 47.5101V21.1704C64.1539 20.8114 63.9744 20.4524 63.7051 20.2281C63.391 20.0037 63.0321 19.914 62.6731 20.0486L38.0833 27.0935H23.6346C21.6154 27.0935 20 28.7089 20 30.7281V37.9524C20 39.9717 21.6154 41.5871 23.6346 41.5871Z" fill="black"/>
</g>
<g clip-path="url(#clip1_13_1728)">
<path d="M22.3333 85.7281C22.3333 85.0101 22.9167 84.4268 23.6346 84.4268H37.0962V94.2537H23.6346C22.9167 94.2537 22.3333 93.6704 22.3333 92.9524V85.7281ZM61.8205 100.985L39.4295 94.523V84.1576L61.8205 77.7409V100.985ZM23.6346 96.5871H24.6667V105.247C24.6667 107.85 26.7756 110.004 29.3782 110.004H33.5513C34.1795 110.004 34.718 109.465 34.718 108.837V100.132C34.718 99.5037 34.1795 98.9653 33.5513 98.9653C32.9231 98.9653 32.3846 99.5037 32.3846 100.132V107.67H29.3782C28.0769 107.67 27 106.593 27 105.292V96.5871H38.0833L62.6731 103.632C62.7628 103.677 62.8974 103.677 62.9872 103.677C63.2564 103.677 63.4808 103.587 63.7051 103.452C64.0192 103.228 64.1539 102.869 64.1539 102.51V76.1704C64.1539 75.8114 63.9744 75.4524 63.7051 75.2281C63.391 75.0037 63.0321 74.914 62.6731 75.0486L38.0833 82.0935H23.6346C21.6154 82.0935 20 83.7089 20 85.7281V92.9524C20 94.9717 21.6154 96.5871 23.6346 96.5871Z" fill="white"/>
</g>
<rect x="0.5" y="0.5" width="83.1539" height="129" rx="4.5" stroke="#7B61FF" stroke-dasharray="10 5"/>
<defs>
<clipPath id="clip0_13_1728">
<rect width="44.1539" height="35" fill="white" transform="translate(20 20)"/>
</clipPath>
<clipPath id="clip1_13_1728">
<rect width="44.1539" height="35" fill="white" transform="translate(20 75)"/>
</clipPath>
</defs>
</svg>
