<svg width="81" height="140" viewBox="0 0 81 140" fill="none" xmlns="http://www.w3.org/2000/svg">
<g clip-path="url(#clip0_13_2175)">
<path d="M51.6178 34.7231L38.6319 47.405C37.8502 48.1433 36.6341 48.1868 35.8523 47.4484L28.9902 41.2812C28.165 40.5429 28.1216 39.2834 28.8165 38.4582C29.5983 37.6764 30.8578 37.5896 31.683 38.3713L37.1118 43.279L48.7079 31.8567C49.5331 31.0749 50.7926 31.0749 51.6178 31.8567C52.3996 32.6819 52.3996 33.9414 51.6178 34.7231ZM40.2823 20C29.0771 20 20 28.9902 20 39.9783C20 51.0098 29.0771 59.9566 40.2823 59.9566C51.4441 59.9566 60.5646 50.9663 60.5646 39.9783C60.5212 28.9902 51.4441 20 40.2823 20Z" fill="black"/>
</g>
<g clip-path="url(#clip1_13_2175)">
<path d="M51.6178 94.7231L38.6319 107.405C37.8502 108.143 36.6341 108.187 35.8523 107.448L28.9902 101.281C28.165 100.543 28.1216 99.2834 28.8165 98.4582C29.5983 97.6764 30.8578 97.5896 31.683 98.3713L37.1118 103.279L48.7079 91.8567C49.5331 91.0749 50.7926 91.0749 51.6178 91.8567C52.3996 92.6819 52.3996 93.9414 51.6178 94.7231ZM40.2823 80C29.0771 80 20 88.9902 20 99.9783C20 111.01 29.0771 119.957 40.2823 119.957C51.4441 119.957 60.5646 110.966 60.5646 99.9783C60.5212 88.9902 51.4441 80 40.2823 80Z" fill="white"/>
</g>
<rect x="0.5" y="0.5" width="79.5212" height="139" rx="4.5" stroke="#7B61FF" stroke-dasharray="10 5"/>
<defs>
<clipPath id="clip0_13_2175">
<rect width="40.5212" height="40" fill="white" transform="translate(20 20)"/>
</clipPath>
<clipPath id="clip1_13_2175">
<rect width="40.5212" height="40" fill="white" transform="translate(20 80)"/>
</clipPath>
</defs>
</svg>
