<svg width="92" height="140" viewBox="0 0 92 140" fill="none" xmlns="http://www.w3.org/2000/svg">
<g clip-path="url(#clip0_13_2014)">
<path d="M59.4226 43.2546C59.4226 44.147 58.6876 44.8294 57.8478 44.8294C56.9554 44.8294 56.2729 44.0945 56.2729 43.2546C56.2729 42.3622 57.0079 41.6798 57.8478 41.6798C58.7401 41.6798 59.4226 42.4147 59.4226 43.2546Z" fill="black"/>
<path d="M57.8478 49.0814C54.5932 49.0814 51.9685 46.5092 51.9685 43.2546C51.9685 40 54.5932 37.4278 57.8478 37.4278C61.1024 37.4278 63.7271 40 63.7271 43.2546C63.7271 46.5617 61.1024 49.0814 57.8478 49.0814ZM38.1103 45.5643H34.9082V48.7139H30.6562V45.5643H27.4541V41.3123H30.6562V38.1627H34.9082V41.3123H38.1103V45.5643ZM68.9239 38.4252C66.7717 34.1732 63.3071 31.1286 59.4226 30.0262C56.7979 29.3438 54.1733 29.7113 52.021 31.0236C50.9712 31.3911 49.8163 31.6535 48.714 31.811V29.8163C48.714 29.0289 48.8714 27.664 49.7638 27.664C53.1759 27.664 55.1182 25.6693 55.1182 22.0997V20H50.8662V22.0997C50.8662 23.2546 50.8662 23.4121 49.8163 23.4121C46.6142 23.4121 44.462 25.9843 44.462 29.8163V31.916C42.6772 31.7585 40.9974 31.3911 39.3176 30.8136C37.1129 29.4488 34.4882 29.0814 31.8111 29.7638C27.9265 30.7612 24.462 33.9108 22.2048 38.2677C18.3727 45.8793 19.6326 54.7507 25.1444 58.4252C26.6667 59.4226 28.4515 59.9475 30.2888 59.9475C31.1286 59.9475 32.021 59.8425 32.8609 59.6325C36.5355 58.6877 39.8951 55.8005 42.1523 51.811C44.462 50.9711 46.9817 50.9186 49.3439 51.706C51.5486 55.643 54.8557 58.4252 58.4777 59.3176C61.1549 60 63.8846 59.5801 66.0368 58.1627C71.4436 54.6457 72.7035 45.9318 68.9239 38.4252Z" fill="black"/>
</g>
<g clip-path="url(#clip1_13_2014)">
<path d="M59.4226 103.255C59.4226 104.147 58.6876 104.829 57.8478 104.829C56.9554 104.829 56.2729 104.094 56.2729 103.255C56.2729 102.362 57.0079 101.68 57.8478 101.68C58.7401 101.68 59.4226 102.415 59.4226 103.255Z" fill="white"/>
<path d="M57.8478 109.081C54.5932 109.081 51.9685 106.509 51.9685 103.255C51.9685 100 54.5932 97.4278 57.8478 97.4278C61.1024 97.4278 63.7271 100 63.7271 103.255C63.7271 106.562 61.1024 109.081 57.8478 109.081ZM38.1103 105.564H34.9082V108.714H30.6562V105.564H27.4541V101.312H30.6562V98.1627H34.9082V101.312H38.1103V105.564ZM68.9239 98.4252C66.7717 94.1732 63.3071 91.1286 59.4226 90.0262C56.7979 89.3438 54.1733 89.7113 52.021 91.0236C50.9712 91.3911 49.8163 91.6535 48.714 91.811V89.8163C48.714 89.0289 48.8714 87.664 49.7638 87.664C53.1759 87.664 55.1182 85.6693 55.1182 82.0997V80H50.8662V82.0997C50.8662 83.2546 50.8662 83.4121 49.8163 83.4121C46.6142 83.4121 44.462 85.9843 44.462 89.8163V91.916C42.6772 91.7585 40.9974 91.3911 39.3176 90.8136C37.1129 89.4488 34.4882 89.0814 31.8111 89.7638C27.9265 90.7612 24.462 93.9108 22.2048 98.2677C18.3727 105.879 19.6326 114.751 25.1444 118.425C26.6667 119.423 28.4515 119.948 30.2888 119.948C31.1286 119.948 32.021 119.843 32.8609 119.633C36.5355 118.688 39.8951 115.801 42.1523 111.811C44.462 110.971 46.9817 110.919 49.3439 111.706C51.5486 115.643 54.8557 118.425 58.4777 119.318C61.1549 120 63.8846 119.58 66.0368 118.163C71.4436 114.646 72.7035 105.932 68.9239 98.4252Z" fill="white"/>
</g>
<rect x="0.5" y="0.5" width="90.1286" height="139" rx="4.5" stroke="#7B61FF" stroke-dasharray="10 5"/>
<defs>
<clipPath id="clip0_13_2014">
<rect width="51.1286" height="40" fill="white" transform="translate(20 20)"/>
</clipPath>
<clipPath id="clip1_13_2014">
<rect width="51.1286" height="40" fill="white" transform="translate(20 80)"/>
</clipPath>
</defs>
</svg>
