<svg width="89" height="140" viewBox="0 0 89 140" fill="none" xmlns="http://www.w3.org/2000/svg">
<g clip-path="url(#clip0_13_2203)">
<path d="M58.0882 36.1765L41.7157 53.0882C41.4216 53.3824 41.0294 53.5784 40.6373 53.5784C40.2451 53.5784 39.8039 53.4314 39.5588 53.0882L30.1471 43.4314C29.5588 42.7941 29.5588 41.7647 30.1471 41.1765C30.7353 40.5392 31.7157 40.5392 32.3529 41.1765L40.5882 49.7059L55.8333 33.9706C56.4216 33.3333 57.402 33.3333 58.0392 33.9706C58.6765 34.5588 58.6765 35.5882 58.0882 36.1765ZM64.7059 27.598H40V23.6275C40 21.6176 38.4314 20 36.4706 20H23.5294C21.5686 20 20 21.6176 20 23.6275V56.3725C20 58.3824 21.5686 60 23.5294 60H64.7549C66.6667 60 68.2843 58.3824 68.2843 56.3725V31.2255C68.2353 29.2157 66.6667 27.598 64.7059 27.598Z" fill="black"/>
</g>
<g clip-path="url(#clip1_13_2203)">
<path d="M58.0882 96.1765L41.7157 113.088C41.4216 113.382 41.0294 113.578 40.6373 113.578C40.2451 113.578 39.8039 113.431 39.5588 113.088L30.1471 103.431C29.5588 102.794 29.5588 101.765 30.1471 101.176C30.7353 100.539 31.7157 100.539 32.3529 101.176L40.5882 109.706L55.8333 93.9706C56.4216 93.3333 57.402 93.3333 58.0392 93.9706C58.6765 94.5588 58.6765 95.5882 58.0882 96.1765ZM64.7059 87.598H40V83.6275C40 81.6176 38.4314 80 36.4706 80H23.5294C21.5686 80 20 81.6176 20 83.6275V116.373C20 118.382 21.5686 120 23.5294 120H64.7549C66.6667 120 68.2843 118.382 68.2843 116.373V91.2255C68.2353 89.2157 66.6667 87.598 64.7059 87.598Z" fill="white"/>
</g>
<rect x="0.5" y="0.5" width="87.2353" height="139" rx="4.5" stroke="#7B61FF" stroke-dasharray="10 5"/>
<defs>
<clipPath id="clip0_13_2203">
<rect width="48.2353" height="40" fill="white" transform="translate(20 20)"/>
</clipPath>
<clipPath id="clip1_13_2203">
<rect width="48.2353" height="40" fill="white" transform="translate(20 80)"/>
</clipPath>
</defs>
</svg>
