<svg width="80" height="140" viewBox="0 0 80 140" fill="none" xmlns="http://www.w3.org/2000/svg">
<g clip-path="url(#clip0_13_2146)">
<path d="M43.6269 50.5492C43.0881 51.0881 42.4249 51.4197 41.7202 51.5855L34.342 53.1606C33.0984 53.4093 31.772 53.0777 30.7772 52.1244C30.5699 51.9171 30.4041 51.6684 30.2383 51.4611H25.8031C25.0984 51.4611 24.5181 50.8808 24.5181 50.1762C24.5181 49.4715 25.0984 48.8912 25.8031 48.8912H29.7409C29.7409 48.8083 29.7824 48.6839 29.7824 48.601L30.5699 44.9948H25.8031C25.0984 44.9948 24.5181 44.4145 24.5181 43.7098C24.5181 43.0052 25.0984 42.4249 25.8031 42.4249H31.1503L31.399 41.2228C31.5648 40.4767 31.8964 39.8549 32.4352 39.3161L33.2228 38.5285H25.8031C25.0984 38.5285 24.5181 37.9482 24.5181 37.2435C24.5181 36.5389 25.0984 35.9585 25.8031 35.9585H35.7927L39.6891 32.0622H25.8031C25.0984 32.0622 24.5181 31.4819 24.5181 30.7772C24.5181 30.0725 25.0984 29.4922 25.8031 29.4922H42.2591L48.3523 23.399C48.601 23.1503 48.8497 22.943 49.0984 22.7358C49.057 21.2021 47.8135 20 46.2798 20H22.8187C21.285 20 20 21.285 20 22.8187V57.1813C20 58.7565 21.285 60 22.8187 60H46.2798C47.8549 60 49.0984 58.715 49.0984 57.1813V45.0777C48.601 45.6166 44.3316 49.8446 43.6269 50.5492Z" fill="black"/>
<path d="M35.2539 47.7306L36.2487 43.1296L39.855 46.7358L35.2539 47.7306ZM57.7617 25.2228C56.7669 24.228 55.399 23.6477 53.9897 23.6477C52.5803 23.6477 51.2125 24.1866 50.2176 25.2228C49.3886 26.0519 35.0467 40.3938 34.2591 41.1814C34.0933 41.3472 33.9689 41.5544 33.9275 41.8031C33.7202 42.798 32.5182 48.3109 32.3524 49.1814C32.2695 49.5959 32.3938 50.0519 32.684 50.3835C32.9741 50.6736 33.4301 50.8394 33.886 50.7151C34.8809 50.5078 40.4353 49.3057 41.2643 49.1399C41.513 49.0985 41.7202 48.9741 41.886 48.8083C59.2539 31.4405 58.0933 32.684 58.5078 32.0622C59.0881 31.1917 59.4197 30.1555 59.4197 29.0778C59.3368 27.5855 58.798 26.2177 57.7617 25.2228Z" fill="black"/>
</g>
<g clip-path="url(#clip1_13_2146)">
<path d="M43.6269 110.549C43.0881 111.088 42.4249 111.42 41.7202 111.585L34.342 113.161C33.0984 113.409 31.772 113.078 30.7772 112.124C30.5699 111.917 30.4041 111.668 30.2383 111.461H25.8031C25.0984 111.461 24.5181 110.881 24.5181 110.176C24.5181 109.472 25.0984 108.891 25.8031 108.891H29.7409C29.7409 108.808 29.7824 108.684 29.7824 108.601L30.5699 104.995H25.8031C25.0984 104.995 24.5181 104.415 24.5181 103.71C24.5181 103.005 25.0984 102.425 25.8031 102.425H31.1503L31.399 101.223C31.5648 100.477 31.8964 99.8549 32.4352 99.3161L33.2228 98.5285H25.8031C25.0984 98.5285 24.5181 97.9482 24.5181 97.2435C24.5181 96.5389 25.0984 95.9585 25.8031 95.9585H35.7927L39.6891 92.0622H25.8031C25.0984 92.0622 24.5181 91.4819 24.5181 90.7772C24.5181 90.0725 25.0984 89.4922 25.8031 89.4922H42.2591L48.3523 83.399C48.601 83.1503 48.8497 82.943 49.0984 82.7358C49.057 81.2021 47.8135 80 46.2798 80H22.8187C21.285 80 20 81.285 20 82.8187V117.181C20 118.756 21.285 120 22.8187 120H46.2798C47.8549 120 49.0984 118.715 49.0984 117.181V105.078C48.601 105.617 44.3316 109.845 43.6269 110.549Z" fill="white"/>
<path d="M35.2539 107.731L36.2487 103.13L39.855 106.736L35.2539 107.731ZM57.7617 85.2228C56.7669 84.228 55.399 83.6477 53.9897 83.6477C52.5803 83.6477 51.2125 84.1866 50.2176 85.2228C49.3886 86.0519 35.0467 100.394 34.2591 101.181C34.0933 101.347 33.9689 101.554 33.9275 101.803C33.7202 102.798 32.5182 108.311 32.3524 109.181C32.2695 109.596 32.3938 110.052 32.684 110.383C32.9741 110.674 33.4301 110.839 33.886 110.715C34.8809 110.508 40.4353 109.306 41.2643 109.14C41.513 109.098 41.7202 108.974 41.886 108.808C59.2539 91.4405 58.0933 92.684 58.5078 92.0622C59.0881 91.1917 59.4197 90.1555 59.4197 89.0778C59.3368 87.5855 58.798 86.2177 57.7617 85.2228Z" fill="white"/>
</g>
<rect x="0.5" y="0.5" width="78.3368" height="139" rx="4.5" stroke="#7B61FF" stroke-dasharray="10 5"/>
<defs>
<clipPath id="clip0_13_2146">
<rect width="39.3368" height="40" fill="white" transform="translate(20 20)"/>
</clipPath>
<clipPath id="clip1_13_2146">
<rect width="39.3368" height="40" fill="white" transform="translate(20 80)"/>
</clipPath>
</defs>
</svg>
