<svg width="84" height="136" viewBox="0 0 84 136" fill="none" xmlns="http://www.w3.org/2000/svg">
<g clip-path="url(#clip0_13_1899)">
<path d="M55.5915 31.7746C53.8521 31.7746 52.4695 30.3474 52.4695 28.6526C52.4695 26.9131 53.8967 25.5305 55.5915 25.5305C57.331 25.5305 58.7136 26.9577 58.7136 28.6526C58.7136 30.392 57.2864 31.7746 55.5915 31.7746ZM55.5915 24.2371C53.1385 24.2371 51.176 26.2441 51.176 28.6526C51.176 31.1056 53.1831 33.068 55.5915 33.068C58.0446 33.068 60.007 31.1056 60.007 28.6526C60.007 26.1995 58 24.2371 55.5915 24.2371Z" fill="black"/>
<path d="M62.5939 44.1737L54.0305 34.4953C53.8521 34.2723 53.5399 34.1385 53.2723 34.1385C52.9601 34.1385 52.6925 34.2277 52.4695 34.4507L47.1174 39.7582L40.0704 31.8193C39.892 31.5962 39.5798 31.4624 39.3122 31.4624C39 31.4624 38.7324 31.5516 38.5094 31.7746L33.5587 36.77C33.2911 37.0376 33.2911 37.439 33.5587 37.662C33.8263 37.9296 34.2277 37.9296 34.4507 37.662L39.2676 32.8451L48.4108 43.1479C48.5446 43.2817 48.723 43.3709 48.9014 43.3709C49.0352 43.3709 49.2136 43.3263 49.3474 43.1925C49.615 42.9695 49.6596 42.5681 49.392 42.3005L48.0094 40.7394L53.2277 35.5211L62.6385 46.0916V49.7934C62.6385 50.9085 61.7465 51.8005 60.6315 51.8005H27.9836C26.8685 51.8005 25.9765 50.9085 25.9765 49.7934V46.0916L31.6408 40.4272C31.9085 40.1596 31.9085 39.7582 31.6408 39.5352C31.3732 39.2676 30.9718 39.2676 30.7488 39.5352L26.0211 44.3075V23.3005C26.0211 22.1854 26.9131 21.2934 28.0282 21.2934H60.5869C61.7019 21.2934 62.5939 22.1854 62.5939 23.3005V44.1737ZM60.5869 20H27.9836C26.1549 20 24.6831 21.4718 24.6831 23.3005V24.9061H23.3005C21.4718 24.9061 20 26.3779 20 28.2066V54.7441C20 56.5728 21.4718 58.0446 23.3005 58.0446H44.8873C45.2441 58.0446 45.5117 57.777 45.5117 57.4202C45.5117 57.0634 45.2441 56.7958 44.8873 56.7958H23.3005C22.1854 56.7958 21.2934 55.9038 21.2934 54.7887V28.2066C21.2934 27.0916 22.1854 26.1995 23.3005 26.1995H24.7277V49.838C24.7277 51.6667 26.1995 53.1385 28.0282 53.1385H57.9108V54.7441C57.9108 55.8592 57.0188 56.7512 55.9038 56.7512H48.946C48.5892 56.7512 48.3216 57.0188 48.3216 57.3756C48.3216 57.7324 48.5892 58 48.946 58H55.9038C57.7324 58 59.2042 56.5282 59.2042 54.6995V53.0939H60.5869C62.4155 53.0939 63.8873 51.6221 63.8873 49.7934V23.3005C63.8873 21.4718 62.4155 20 60.5869 20Z" fill="black"/>
</g>
<g clip-path="url(#clip1_13_1899)">
<path d="M55.5915 89.7746C53.8521 89.7746 52.4695 88.3474 52.4695 86.6526C52.4695 84.9131 53.8967 83.5305 55.5915 83.5305C57.331 83.5305 58.7136 84.9577 58.7136 86.6526C58.7136 88.392 57.2864 89.7746 55.5915 89.7746ZM55.5915 82.2371C53.1385 82.2371 51.176 84.2441 51.176 86.6526C51.176 89.1056 53.1831 91.068 55.5915 91.068C58.0446 91.068 60.007 89.1056 60.007 86.6526C60.007 84.1995 58 82.2371 55.5915 82.2371Z" fill="white"/>
<path d="M62.5939 102.174L54.0305 92.4953C53.8521 92.2723 53.5399 92.1385 53.2723 92.1385C52.9601 92.1385 52.6925 92.2277 52.4695 92.4507L47.1174 97.7582L40.0704 89.8193C39.892 89.5962 39.5798 89.4624 39.3122 89.4624C39 89.4624 38.7324 89.5516 38.5094 89.7746L33.5587 94.77C33.2911 95.0376 33.2911 95.439 33.5587 95.662C33.8263 95.9296 34.2277 95.9296 34.4507 95.662L39.2676 90.8451L48.4108 101.148C48.5446 101.282 48.723 101.371 48.9014 101.371C49.0352 101.371 49.2136 101.326 49.3474 101.192C49.615 100.969 49.6596 100.568 49.392 100.3L48.0094 98.7394L53.2277 93.5211L62.6385 104.092V107.793C62.6385 108.908 61.7465 109.8 60.6315 109.8H27.9836C26.8685 109.8 25.9765 108.908 25.9765 107.793V104.092L31.6408 98.4272C31.9085 98.1596 31.9085 97.7582 31.6408 97.5352C31.3732 97.2676 30.9718 97.2676 30.7488 97.5352L26.0211 102.308V81.3005C26.0211 80.1854 26.9131 79.2934 28.0282 79.2934H60.5869C61.7019 79.2934 62.5939 80.1854 62.5939 81.3005V102.174ZM60.5869 78H27.9836C26.1549 78 24.6831 79.4718 24.6831 81.3005V82.9061H23.3005C21.4718 82.9061 20 84.3779 20 86.2066V112.744C20 114.573 21.4718 116.045 23.3005 116.045H44.8873C45.2441 116.045 45.5117 115.777 45.5117 115.42C45.5117 115.063 45.2441 114.796 44.8873 114.796H23.3005C22.1854 114.796 21.2934 113.904 21.2934 112.789V86.2066C21.2934 85.0916 22.1854 84.1995 23.3005 84.1995H24.7277V107.838C24.7277 109.667 26.1995 111.139 28.0282 111.139H57.9108V112.744C57.9108 113.859 57.0188 114.751 55.9038 114.751H48.946C48.5892 114.751 48.3216 115.019 48.3216 115.376C48.3216 115.732 48.5892 116 48.946 116H55.9038C57.7324 116 59.2042 114.528 59.2042 112.7V111.094H60.5869C62.4155 111.094 63.8873 109.622 63.8873 107.793V81.3005C63.8873 79.4718 62.4155 78 60.5869 78Z" fill="white"/>
</g>
<rect x="0.5" y="0.5" width="82.8873" height="135" rx="4.5" stroke="#7B61FF" stroke-dasharray="10 5"/>
<defs>
<clipPath id="clip0_13_1899">
<rect width="43.8873" height="38" fill="white" transform="translate(20 20)"/>
</clipPath>
<clipPath id="clip1_13_1899">
<rect width="43.8873" height="38" fill="white" transform="translate(20 78)"/>
</clipPath>
</defs>
</svg>
