<svg width="81" height="140" viewBox="0 0 81 140" fill="none" xmlns="http://www.w3.org/2000/svg">
<g clip-path="url(#clip0_13_1802)">
<path d="M58.7794 51.9023C58.7794 52.6755 58.6166 54.6693 57.2331 56.3377C55.8903 57.9247 53.7743 58.6978 50.9666 58.6978C48.1589 58.6978 46.0836 57.884 44.7001 56.3377C43.3165 54.71 43.1538 52.7161 43.1538 51.9023V38.8809C43.1538 38.1078 43.3165 36.1139 44.7001 34.4455C46.0429 32.8586 48.1589 32.0854 50.9666 32.0854C53.7743 32.0854 55.8496 32.8993 57.2331 34.4455C58.6166 36.0732 58.7794 38.0671 58.7794 38.8809V51.9023ZM50.9666 30.824C44.2525 30.824 41.8923 35.178 41.8923 38.8809V51.9023C41.8923 55.646 44.2525 59.9593 50.9666 59.9593C57.6807 59.9593 60.0409 55.6053 60.0409 51.9023V38.8809C60.0409 35.178 57.6807 30.824 50.9666 30.824Z" fill="black"/>
<path d="M21.2614 28.9929C21.2614 24.7202 24.7202 21.2614 28.9929 21.2614C33.2655 21.2614 36.7243 24.7202 36.7243 28.9929C36.7243 33.2655 33.2655 36.7243 28.9929 36.7243C24.7609 36.7243 21.2614 33.2655 21.2614 28.9929ZM45.473 21.2614C48.1587 21.2614 50.3154 23.4588 50.3154 26.1038V28.8708C50.3154 29.237 50.6002 29.5219 50.9664 29.5219C51.3327 29.5219 51.6175 29.237 51.6175 28.8708V26.1038C51.6175 22.767 48.8505 20 45.473 20C42.0956 20 39.3286 22.7263 39.3286 26.1038V43.1129C39.3286 45.7579 37.1719 47.9145 34.4863 47.9145C31.8006 47.9145 29.6439 45.7172 29.6439 43.0722V37.9858C34.3235 37.6602 38.0264 33.7538 38.0264 28.9929C38.0264 24.0285 33.9573 20 28.9929 20C24.0285 20 20 24.0285 20 28.9929C20 33.7538 23.703 37.6602 28.3825 37.9858V43.0722C28.3825 46.4496 31.1495 49.2167 34.527 49.2167C37.9044 49.2167 40.6714 46.4903 40.6714 43.1129V26.1038C40.6307 23.4588 42.7874 21.2614 45.473 21.2614Z" fill="black"/>
<path d="M28.9928 30.824C28.708 30.824 28.5045 30.6205 28.5045 30.3357C28.5045 29.9694 28.2197 29.6846 27.8535 29.6846C27.4872 29.6846 27.2024 29.9694 27.2024 30.3357C27.2024 31.0681 27.65 31.7192 28.3011 31.9633V32.2482C28.3011 32.6144 28.5859 32.8992 28.9521 32.8992C29.3184 32.8992 29.6032 32.6144 29.6032 32.2482V31.9633C30.2543 31.7192 30.7019 31.0681 30.7019 30.3357C30.7019 29.1149 29.6846 28.6266 29.237 28.4232C28.6673 28.1383 28.5045 27.9755 28.5045 27.65C28.5045 27.4059 28.708 27.1617 28.9928 27.1617C29.2777 27.1617 29.4811 27.3652 29.4811 27.65C29.4811 28.0162 29.766 28.3011 30.1322 28.3011C30.4984 28.3011 30.7833 28.0162 30.7833 27.65C30.7833 26.9176 30.3357 26.2665 29.6846 26.0223V25.7375C29.6846 25.3713 29.3997 25.0864 29.0335 25.0864C28.6673 25.0864 28.3825 25.3713 28.3825 25.7375V26.0223C27.7314 26.2665 27.2431 26.9176 27.2431 27.65C27.2431 28.8708 28.2604 29.3591 28.708 29.5625C29.2777 29.8474 29.4404 30.0101 29.4404 30.3357C29.4811 30.6205 29.2777 30.824 28.9928 30.824Z" fill="black"/>
<path d="M35.463 28.9929C35.463 25.4527 32.5739 22.5636 28.993 22.5636C27.5281 22.5636 26.0632 23.0926 24.9238 23.9878C23.7845 24.883 23.0113 26.1852 22.6858 27.5687C22.6044 27.8942 22.8079 28.2604 23.1741 28.3418C23.4996 28.4232 23.8658 28.2198 23.9472 27.8535C24.4762 25.5341 26.5922 23.825 28.993 23.825C31.8414 23.825 34.1609 26.1445 34.1609 28.9929C34.1609 31.8413 31.8414 34.1607 28.993 34.1607C26.5922 34.1607 24.4762 32.4517 23.9472 30.1323C23.8658 29.8067 23.5403 29.5626 23.1741 29.644C22.8485 29.7253 22.6044 30.0509 22.6858 30.4171C23.0113 31.8413 23.7845 33.1028 24.9238 33.998C26.0632 34.9339 27.4874 35.4222 28.993 35.4222C32.5739 35.4629 35.463 32.5738 35.463 28.9929Z" fill="black"/>
<path d="M49.949 40.3459V37.3347C49.949 36.765 50.3966 36.3174 50.9662 36.3174C51.5359 36.3174 51.9835 36.765 51.9835 37.3347V40.3459C51.9835 40.9156 51.5359 41.3632 50.9662 41.3632C50.3966 41.3632 49.949 40.9156 49.949 40.3459ZM51.6173 44.7813V42.5433C52.5532 42.2584 53.245 41.4039 53.245 40.3459V37.3347C53.245 36.3174 52.5532 35.4222 51.6173 35.1374V33.998C51.6173 33.6318 51.3325 33.3469 50.9662 33.3469C50.6 33.3469 50.3152 33.6318 50.3152 33.998V35.1374C49.3793 35.4222 48.6875 36.2767 48.6875 37.3347V40.3459C48.6875 41.3632 49.3793 42.2584 50.3152 42.5433V44.7813H45.1066C44.7404 44.7813 44.4556 45.0662 44.4556 45.4324C44.4556 45.7986 44.7404 46.0834 45.1066 46.0834H56.8666C57.2328 46.0834 57.5176 45.7986 57.5176 45.4324C57.5176 45.0662 57.2328 44.7813 56.8666 44.7813H51.6173Z" fill="black"/>
</g>
<g clip-path="url(#clip1_13_1802)">
<path d="M58.7794 111.902C58.7794 112.675 58.6166 114.669 57.2331 116.338C55.8903 117.925 53.7743 118.698 50.9666 118.698C48.1589 118.698 46.0836 117.884 44.7001 116.338C43.3165 114.71 43.1538 112.716 43.1538 111.902V98.8809C43.1538 98.1078 43.3165 96.1139 44.7001 94.4455C46.0429 92.8586 48.1589 92.0854 50.9666 92.0854C53.7743 92.0854 55.8496 92.8993 57.2331 94.4455C58.6166 96.0732 58.7794 98.0671 58.7794 98.8809V111.902ZM50.9666 90.824C44.2525 90.824 41.8923 95.178 41.8923 98.8809V111.902C41.8923 115.646 44.2525 119.959 50.9666 119.959C57.6807 119.959 60.0409 115.605 60.0409 111.902V98.8809C60.0409 95.178 57.6807 90.824 50.9666 90.824Z" fill="white"/>
<path d="M21.2614 88.9929C21.2614 84.7202 24.7202 81.2614 28.9929 81.2614C33.2655 81.2614 36.7243 84.7202 36.7243 88.9929C36.7243 93.2655 33.2655 96.7243 28.9929 96.7243C24.7609 96.7243 21.2614 93.2655 21.2614 88.9929ZM45.473 81.2614C48.1587 81.2614 50.3154 83.4588 50.3154 86.1038V88.8708C50.3154 89.237 50.6002 89.5219 50.9664 89.5219C51.3327 89.5219 51.6175 89.237 51.6175 88.8708V86.1038C51.6175 82.767 48.8505 80 45.473 80C42.0956 80 39.3286 82.7263 39.3286 86.1038V103.113C39.3286 105.758 37.1719 107.915 34.4863 107.915C31.8006 107.915 29.6439 105.717 29.6439 103.072V97.9858C34.3235 97.6602 38.0264 93.7538 38.0264 88.9929C38.0264 84.0285 33.9573 80 28.9929 80C24.0285 80 20 84.0285 20 88.9929C20 93.7538 23.703 97.6602 28.3825 97.9858V103.072C28.3825 106.45 31.1495 109.217 34.527 109.217C37.9044 109.217 40.6714 106.49 40.6714 103.113V86.1038C40.6307 83.4588 42.7874 81.2614 45.473 81.2614Z" fill="white"/>
<path d="M28.9928 90.824C28.708 90.824 28.5045 90.6205 28.5045 90.3357C28.5045 89.9694 28.2197 89.6846 27.8535 89.6846C27.4872 89.6846 27.2024 89.9694 27.2024 90.3357C27.2024 91.0681 27.65 91.7192 28.3011 91.9633V92.2482C28.3011 92.6144 28.5859 92.8992 28.9521 92.8992C29.3184 92.8992 29.6032 92.6144 29.6032 92.2482V91.9633C30.2543 91.7192 30.7019 91.0681 30.7019 90.3357C30.7019 89.1149 29.6846 88.6266 29.237 88.4232C28.6673 88.1383 28.5045 87.9755 28.5045 87.65C28.5045 87.4059 28.708 87.1617 28.9928 87.1617C29.2777 87.1617 29.4811 87.3652 29.4811 87.65C29.4811 88.0162 29.766 88.3011 30.1322 88.3011C30.4984 88.3011 30.7833 88.0162 30.7833 87.65C30.7833 86.9176 30.3357 86.2665 29.6846 86.0223V85.7375C29.6846 85.3713 29.3997 85.0864 29.0335 85.0864C28.6673 85.0864 28.3825 85.3713 28.3825 85.7375V86.0223C27.7314 86.2665 27.2431 86.9176 27.2431 87.65C27.2431 88.8708 28.2604 89.3591 28.708 89.5625C29.2777 89.8474 29.4404 90.0101 29.4404 90.3357C29.4811 90.6205 29.2777 90.824 28.9928 90.824Z" fill="white"/>
<path d="M35.463 88.9929C35.463 85.4527 32.5739 82.5636 28.993 82.5636C27.5281 82.5636 26.0632 83.0926 24.9238 83.9878C23.7845 84.883 23.0113 86.1852 22.6858 87.5687C22.6044 87.8942 22.8079 88.2604 23.1741 88.3418C23.4996 88.4232 23.8658 88.2198 23.9472 87.8535C24.4762 85.5341 26.5922 83.825 28.993 83.825C31.8414 83.825 34.1609 86.1445 34.1609 88.9929C34.1609 91.8413 31.8414 94.1607 28.993 94.1607C26.5922 94.1607 24.4762 92.4517 23.9472 90.1323C23.8658 89.8067 23.5403 89.5626 23.1741 89.644C22.8485 89.7253 22.6044 90.0509 22.6858 90.4171C23.0113 91.8413 23.7845 93.1028 24.9238 93.998C26.0632 94.9339 27.4874 95.4222 28.993 95.4222C32.5739 95.4629 35.463 92.5738 35.463 88.9929Z" fill="white"/>
<path d="M49.949 100.346V97.3347C49.949 96.765 50.3966 96.3174 50.9662 96.3174C51.5359 96.3174 51.9835 96.765 51.9835 97.3347V100.346C51.9835 100.916 51.5359 101.363 50.9662 101.363C50.3966 101.363 49.949 100.916 49.949 100.346ZM51.6173 104.781V102.543C52.5532 102.258 53.245 101.404 53.245 100.346V97.3347C53.245 96.3174 52.5532 95.4222 51.6173 95.1374V93.998C51.6173 93.6318 51.3325 93.3469 50.9662 93.3469C50.6 93.3469 50.3152 93.6318 50.3152 93.998V95.1374C49.3793 95.4222 48.6875 96.2767 48.6875 97.3347V100.346C48.6875 101.363 49.3793 102.258 50.3152 102.543V104.781H45.1066C44.7404 104.781 44.4556 105.066 44.4556 105.432C44.4556 105.799 44.7404 106.083 45.1066 106.083H56.8666C57.2328 106.083 57.5176 105.799 57.5176 105.432C57.5176 105.066 57.2328 104.781 56.8666 104.781H51.6173Z" fill="white"/>
</g>
<rect x="0.5" y="0.5" width="79.0407" height="139" rx="4.5" stroke="#7B61FF" stroke-dasharray="10 5"/>
<defs>
<clipPath id="clip0_13_1802">
<rect width="40.0407" height="40" fill="white" transform="translate(20 20)"/>
</clipPath>
<clipPath id="clip1_13_1802">
<rect width="40.0407" height="40" fill="white" transform="translate(20 80)"/>
</clipPath>
</defs>
</svg>
