<svg width="86" height="140" viewBox="0 0 86 140" fill="none" xmlns="http://www.w3.org/2000/svg">
<g clip-path="url(#clip0_13_2156)">
<path d="M42.7677 49.988C41.7568 49.988 40.6979 49.651 39.8796 49.0734C39.2538 48.7365 26.7869 41.9013 26.113 41.5162V50.9988C26.113 53.5981 27.9903 55.9567 31.4079 57.6414C34.4404 59.1336 38.4837 59.9519 42.7195 59.9519C46.9554 59.9519 50.9987 59.1336 54.0312 57.6414C57.4488 55.9567 59.326 53.5981 59.326 50.9988V41.5162C58.6521 41.9013 46.2334 48.7365 45.5595 49.0734C44.7893 49.651 43.7785 49.988 42.7677 49.988Z" fill="black"/>
<path d="M42.7677 36.1733C40.7461 36.1733 39.1095 34.9699 39.1095 33.5259C39.1095 32.0337 40.7461 30.8785 42.7677 30.8785C44.7894 30.8785 46.426 32.0818 46.426 33.5259C46.426 34.9699 44.7894 36.1733 42.7677 36.1733ZM65.1986 32.3225C64.8616 31.8412 66.2094 32.6594 43.9711 20.4332C43.586 20.1444 43.1528 20 42.7677 20C42.3345 20 41.9495 20.1444 41.5644 20.4332L20.722 31.8893C20.2407 32.2744 20 32.8039 20 33.3815C20 33.9591 20.2407 34.4886 20.722 34.8736L41.5644 46.3779C41.9013 46.6667 42.3345 46.8111 42.7677 46.8111C43.201 46.8111 43.586 46.6667 43.9711 46.3779L62.5511 36.1733V49.651C62.5511 50.5174 63.2732 51.2395 64.1396 51.2395C65.006 51.2395 65.728 50.5174 65.728 49.651V33.4777C65.6799 33.0445 65.4874 32.6113 65.1986 32.3225Z" fill="black"/>
</g>
<g clip-path="url(#clip1_13_2156)">
<path d="M42.7677 109.988C41.7568 109.988 40.6979 109.651 39.8796 109.073C39.2538 108.736 26.7869 101.901 26.113 101.516V110.999C26.113 113.598 27.9903 115.957 31.4079 117.641C34.4404 119.134 38.4837 119.952 42.7195 119.952C46.9554 119.952 50.9987 119.134 54.0312 117.641C57.4488 115.957 59.326 113.598 59.326 110.999V101.516C58.6521 101.901 46.2334 108.736 45.5595 109.073C44.7893 109.651 43.7785 109.988 42.7677 109.988Z" fill="white"/>
<path d="M42.7677 96.1733C40.7461 96.1733 39.1095 94.9699 39.1095 93.5259C39.1095 92.0337 40.7461 90.8785 42.7677 90.8785C44.7894 90.8785 46.426 92.0818 46.426 93.5259C46.426 94.9699 44.7894 96.1733 42.7677 96.1733ZM65.1986 92.3225C64.8616 91.8412 66.2094 92.6594 43.9711 80.4332C43.586 80.1444 43.1528 80 42.7677 80C42.3345 80 41.9495 80.1444 41.5644 80.4332L20.722 91.8893C20.2407 92.2744 20 92.8039 20 93.3815C20 93.9591 20.2407 94.4886 20.722 94.8736L41.5644 106.378C41.9013 106.667 42.3345 106.811 42.7677 106.811C43.201 106.811 43.586 106.667 43.9711 106.378L62.5511 96.1733V109.651C62.5511 110.517 63.2732 111.239 64.1396 111.239C65.006 111.239 65.728 110.517 65.728 109.651V93.4777C65.6799 93.0445 65.4874 92.6113 65.1986 92.3225Z" fill="white"/>
</g>
<rect x="0.5" y="0.5" width="84.6799" height="139" rx="4.5" stroke="#7B61FF" stroke-dasharray="10 5"/>
<defs>
<clipPath id="clip0_13_2156">
<rect width="45.6799" height="40" fill="white" transform="translate(20 20)"/>
</clipPath>
<clipPath id="clip1_13_2156">
<rect width="45.6799" height="40" fill="white" transform="translate(20 80)"/>
</clipPath>
</defs>
</svg>
