<svg width="74" height="160" viewBox="0 0 74 160" fill="none" xmlns="http://www.w3.org/2000/svg">
<g clip-path="url(#clip0_13_1691)">
<path d="M52.7689 61.5338C52.3705 61.5338 52.0219 61.8824 52.0219 62.2808V68.1573C52.0219 68.3565 51.8227 68.5557 51.6235 68.5557H47.739V54.1633C47.739 53.7649 47.3904 53.4163 46.992 53.4163C46.5936 53.4163 46.245 53.7649 46.245 54.1633V68.5059H37.4801V58.3963C37.4801 57.9979 37.1315 57.6493 36.7331 57.6493C36.3346 57.6493 35.986 57.9979 35.986 58.3963V68.5059H33.0478C32.6494 68.5059 32.3008 68.8545 32.3008 69.2529C32.3008 69.6513 32.6494 69.9999 33.0478 69.9999H51.5737C52.6195 69.9999 53.4163 69.1533 53.4163 68.1573V62.231C53.5159 61.8326 53.1673 61.5338 52.7689 61.5338Z" fill="black"/>
<path d="M40.3685 50.0797C39.8207 49.6813 38.3267 48.6355 37.7789 48.2371L40.4183 45L42.4602 45.7968L40.3685 50.0797ZM39.2729 55.3586C38.9741 54.1135 38.5259 53.0677 38.1275 52.2709C38.4761 52.1215 38.8247 51.8725 39.1235 51.5737C40.0199 52.6693 40.5677 54.0139 40.8665 54.761L39.2729 55.3586ZM36.7331 51.0757C36.1853 51.0757 35.6375 50.8267 35.3386 50.3287L36.7331 49.3327C37.8785 50.1295 37.5797 49.9303 38.1275 50.3287C37.8287 50.8267 37.2809 51.0757 36.7331 51.0757ZM34.243 55.3586L32.6992 54.7112C32.998 53.9641 33.5458 52.6693 34.4422 51.5239C34.741 51.8227 35.0398 52.0717 35.4382 52.2211C34.99 53.0677 34.5418 54.1135 34.243 55.3586ZM31.006 45.7968L33.0478 45L35.6873 48.2371H35.6375C35.239 48.5359 33.3964 49.8307 33.0976 50.0299L31.006 45.7968ZM39.4721 42.6096V43.9044L36.7331 47.2908L33.994 43.9044V42.6096C34.8904 42.9582 35.8367 43.1574 36.8327 43.1574C37.7789 43.1574 38.6753 42.9582 39.4721 42.6096ZM31.3048 36.3347V34.1932C31.7032 34.0438 32.1514 33.8446 32.5498 33.6454C35.3386 32.251 37.4801 30.0598 38.4761 28.9641C39.8207 30.3088 41.2151 30.9562 42.0618 31.255C42.1116 31.255 42.1614 31.3048 42.2112 31.3048V36.3347C42.2112 39.2729 39.8207 41.7131 36.8327 41.7131C33.3964 41.6633 31.3048 38.9741 31.3048 36.3347ZM29.3625 41.6633C29.1633 41.6633 28.9641 41.4641 28.9641 41.2649V29.2629C28.9641 24.9801 32.4502 21.4442 36.7331 21.4442C41.0159 21.4442 44.502 24.9303 44.502 29.2131V31.1554C44.2032 31.0558 43.9044 31.006 43.6056 30.9562C43.5558 30.4582 43.2072 30.01 42.7092 29.8606C41.6135 29.512 40.3685 28.8147 39.3227 27.7191C38.8247 27.2211 38.0279 27.1713 37.5299 27.6693C37.3307 27.8187 34.492 31.3546 30.6574 32.749C30.1594 32.9482 29.8108 33.4462 29.8108 33.9442V36.1853C29.8108 38.3765 30.8068 40.3187 32.4004 41.5637H29.3625V41.6633ZM45.1494 34.0936C45.1494 34.9402 44.5518 35.6375 43.6554 35.7371V32.4502C44.502 32.5498 45.1494 33.2968 45.1494 34.0936ZM44.5518 41.2649C44.5518 41.4641 44.3526 41.6633 44.1534 41.6633H41.0657C42.4104 40.6175 43.3566 39.0239 43.6056 37.2311C43.9044 37.2311 44.253 37.1315 44.5518 37.0319V41.2649ZM49.6813 47.0418C49.6315 46.992 49.6315 46.992 49.6813 47.0418L40.9661 43.6554V43.1574H44.1534C45.1992 43.1574 45.996 42.3108 45.996 41.3147V35.9861C46.3944 35.4382 46.5936 34.7908 46.5936 34.1434C46.5936 33.496 46.3944 32.7988 45.996 32.3008V29.3127C45.996 24.1335 41.8626 20 36.7331 20C31.6534 20 27.5199 24.1335 27.5199 29.2629V41.2649C27.5199 42.3108 28.3665 43.1076 29.3625 43.1076H32.5498V43.6056L23.8347 46.992C23.6853 47.0916 20 48.6355 20 52.9681V68.1574C20 69.2032 20.8466 70 21.8426 70H29.6614C30.0598 70 30.4084 69.6514 30.4084 69.253C30.4084 68.8546 30.0598 68.506 29.6614 68.506H27.2211V54.1633C27.2211 53.7649 26.8725 53.4163 26.4741 53.4163C26.0757 53.4163 25.7271 53.7649 25.7271 54.1633V68.506H21.8426C21.6434 68.506 21.4442 68.3068 21.4442 68.1076V52.9681C21.4442 49.6813 24.1833 48.4363 24.3825 48.3865L29.6116 46.3446L31.9024 50.9263C32.0518 51.2251 32.3008 51.4243 32.5996 51.5737C31.8526 52.7191 31.4044 53.9143 31.2052 54.4622C31.006 55.0598 31.255 55.7072 31.8526 55.9562L33.994 56.8526C34.2928 57.002 34.6912 56.9522 34.99 56.8028C35.2888 56.6534 35.5378 56.3546 35.5876 56.006C35.8865 54.7112 36.3347 53.6653 36.7331 52.8685C37.1315 53.6653 37.6295 54.761 37.8785 56.006C37.9283 56.3546 38.1773 56.6534 38.4761 56.8028C38.7749 56.9522 39.1235 57.002 39.4721 56.8526L41.6135 55.9562C42.2112 55.7072 42.4602 55.0598 42.261 54.4622C42.0618 53.8645 41.5637 52.7191 40.8665 51.5737C41.1653 51.4741 41.4143 51.2251 41.5637 50.9263L43.8546 46.3446L49.0837 48.3865C49.2331 48.4363 52.0219 49.6813 52.0219 52.9681V58.8446C52.0219 59.243 52.3705 59.5916 52.7689 59.5916C53.1673 59.5916 53.5159 59.243 53.5159 58.8446V52.9681C53.5159 48.6355 49.8307 47.0916 49.6813 47.0418Z" fill="black"/>
</g>
<g clip-path="url(#clip1_13_1691)">
<path d="M52.7689 131.534C52.3705 131.534 52.0219 131.882 52.0219 132.281V138.157C52.0219 138.357 51.8227 138.556 51.6235 138.556H47.739V124.163C47.739 123.765 47.3904 123.416 46.992 123.416C46.5936 123.416 46.245 123.765 46.245 124.163V138.506H37.4801V128.396C37.4801 127.998 37.1315 127.649 36.7331 127.649C36.3346 127.649 35.986 127.998 35.986 128.396V138.506H33.0478C32.6494 138.506 32.3008 138.855 32.3008 139.253C32.3008 139.651 32.6494 140 33.0478 140H51.5737C52.6195 140 53.4163 139.153 53.4163 138.157V132.231C53.5159 131.833 53.1673 131.534 52.7689 131.534Z" fill="white"/>
<path d="M40.3685 120.08C39.8207 119.681 38.3267 118.635 37.7789 118.237L40.4183 115L42.4602 115.797L40.3685 120.08ZM39.2729 125.359C38.9741 124.114 38.5259 123.068 38.1275 122.271C38.4761 122.122 38.8247 121.873 39.1235 121.574C40.0199 122.669 40.5677 124.014 40.8665 124.761L39.2729 125.359ZM36.7331 121.076C36.1853 121.076 35.6375 120.827 35.3386 120.329L36.7331 119.333C37.8785 120.129 37.5797 119.93 38.1275 120.329C37.8287 120.827 37.2809 121.076 36.7331 121.076ZM34.243 125.359L32.6992 124.711C32.998 123.964 33.5458 122.669 34.4422 121.524C34.741 121.823 35.0398 122.072 35.4382 122.221C34.99 123.068 34.5418 124.114 34.243 125.359ZM31.006 115.797L33.0478 115L35.6873 118.237H35.6375C35.239 118.536 33.3964 119.831 33.0976 120.03L31.006 115.797ZM39.4721 112.61V113.904L36.7331 117.291L33.994 113.904V112.61C34.8904 112.958 35.8367 113.157 36.8327 113.157C37.7789 113.157 38.6753 112.958 39.4721 112.61ZM31.3048 106.335V104.193C31.7032 104.044 32.1514 103.845 32.5498 103.645C35.3386 102.251 37.4801 100.06 38.4761 98.9641C39.8207 100.309 41.2151 100.956 42.0618 101.255C42.1116 101.255 42.1614 101.305 42.2112 101.305V106.335C42.2112 109.273 39.8207 111.713 36.8327 111.713C33.3964 111.663 31.3048 108.974 31.3048 106.335ZM29.3625 111.663C29.1633 111.663 28.9641 111.464 28.9641 111.265V99.2629C28.9641 94.9801 32.4502 91.4442 36.7331 91.4442C41.0159 91.4442 44.502 94.9303 44.502 99.2131V101.155C44.2032 101.056 43.9044 101.006 43.6056 100.956C43.5558 100.458 43.2072 100.01 42.7092 99.8606C41.6135 99.512 40.3685 98.8147 39.3227 97.7191C38.8247 97.2211 38.0279 97.1713 37.5299 97.6693C37.3307 97.8187 34.492 101.355 30.6574 102.749C30.1594 102.948 29.8108 103.446 29.8108 103.944V106.185C29.8108 108.376 30.8068 110.319 32.4004 111.564H29.3625V111.663ZM45.1494 104.094C45.1494 104.94 44.5518 105.637 43.6554 105.737V102.45C44.502 102.55 45.1494 103.297 45.1494 104.094ZM44.5518 111.265C44.5518 111.464 44.3526 111.663 44.1534 111.663H41.0657C42.4104 110.618 43.3566 109.024 43.6056 107.231C43.9044 107.231 44.253 107.131 44.5518 107.032V111.265ZM49.6813 117.042C49.6315 116.992 49.6315 116.992 49.6813 117.042L40.9661 113.655V113.157H44.1534C45.1992 113.157 45.996 112.311 45.996 111.315V105.986C46.3944 105.438 46.5936 104.791 46.5936 104.143C46.5936 103.496 46.3944 102.799 45.996 102.301V99.3127C45.996 94.1335 41.8626 90 36.7331 90C31.6534 90 27.5199 94.1335 27.5199 99.2629V111.265C27.5199 112.311 28.3665 113.108 29.3625 113.108H32.5498V113.606L23.8347 116.992C23.6853 117.092 20 118.635 20 122.968V138.157C20 139.203 20.8466 140 21.8426 140H29.6614C30.0598 140 30.4084 139.651 30.4084 139.253C30.4084 138.855 30.0598 138.506 29.6614 138.506H27.2211V124.163C27.2211 123.765 26.8725 123.416 26.4741 123.416C26.0757 123.416 25.7271 123.765 25.7271 124.163V138.506H21.8426C21.6434 138.506 21.4442 138.307 21.4442 138.108V122.968C21.4442 119.681 24.1833 118.436 24.3825 118.386L29.6116 116.345L31.9024 120.926C32.0518 121.225 32.3008 121.424 32.5996 121.574C31.8526 122.719 31.4044 123.914 31.2052 124.462C31.006 125.06 31.255 125.707 31.8526 125.956L33.994 126.853C34.2928 127.002 34.6912 126.952 34.99 126.803C35.2888 126.653 35.5378 126.355 35.5876 126.006C35.8865 124.711 36.3347 123.665 36.7331 122.869C37.1315 123.665 37.6295 124.761 37.8785 126.006C37.9283 126.355 38.1773 126.653 38.4761 126.803C38.7749 126.952 39.1235 127.002 39.4721 126.853L41.6135 125.956C42.2112 125.707 42.4602 125.06 42.261 124.462C42.0618 123.865 41.5637 122.719 40.8665 121.574C41.1653 121.474 41.4143 121.225 41.5637 120.926L43.8546 116.345L49.0837 118.386C49.2331 118.436 52.0219 119.681 52.0219 122.968V128.845C52.0219 129.243 52.3705 129.592 52.7689 129.592C53.1673 129.592 53.5159 129.243 53.5159 128.845V122.968C53.5159 118.635 49.8307 117.092 49.6813 117.042Z" fill="white"/>
</g>
<rect x="0.5" y="0.5" width="72.5159" height="159" rx="4.5" stroke="#7B61FF" stroke-dasharray="10 5"/>
<defs>
<clipPath id="clip0_13_1691">
<rect width="33.5159" height="50" fill="white" transform="translate(20 20)"/>
</clipPath>
<clipPath id="clip1_13_1691">
<rect width="33.5159" height="50" fill="white" transform="translate(20 90)"/>
</clipPath>
</defs>
</svg>
