<svg width="75" height="144" viewBox="0 0 75 144" fill="none" xmlns="http://www.w3.org/2000/svg">
<g clip-path="url(#clip0_13_2034)">
<path d="M48.8098 48.6471H27.2024C26.47 48.6471 25.8596 48.0367 25.8596 47.3042C25.8596 46.5718 26.47 45.9614 27.2024 45.9614H48.8098C49.5422 45.9614 50.1526 46.5718 50.1526 47.3042C50.1526 48.0367 49.5422 48.6471 48.8098 48.6471ZM27.2024 39.3693H40.8342C41.5666 39.3693 42.177 39.9797 42.177 40.7122C42.177 41.4446 41.5666 42.055 40.8342 42.055H27.2024C26.47 42.055 25.8596 41.4446 25.8596 40.7122C25.8596 39.9797 26.47 39.3693 27.2024 39.3693ZM53.8555 23.3368H52.0244V26.0224H53.8555C53.9369 26.0224 53.9776 26.1038 53.9776 26.1445V32.7773H22.645V26.1445C22.645 26.0631 22.7263 26.0224 22.767 26.0224H24.5982V23.3368H22.8077C21.2614 23.3368 20 24.5982 20 26.1445V57.1923C20 58.7386 21.2614 60.0001 22.8077 60.0001H53.8555C55.4018 60.0001 56.6633 58.7386 56.6633 57.1923V26.1445C56.6633 24.5982 55.4018 23.3368 53.8555 23.3368Z" fill="black"/>
<path d="M44.8628 23.3368H41.8923V26.0224H44.8628V23.3368Z" fill="black"/>
<path d="M34.771 23.3368H31.8005V26.0224H34.771V23.3368Z" fill="black"/>
<path d="M28.2198 28.8708C28.9522 28.8708 29.5626 28.2604 29.5626 27.528V21.3428C29.5626 20.6104 28.9522 20 28.2198 20C27.4873 20 26.877 20.6104 26.877 21.3428V27.5687C26.877 28.3011 27.4873 28.8708 28.2198 28.8708Z" fill="black"/>
<path d="M38.3521 28.8708C39.0846 28.8708 39.6949 28.2604 39.6949 27.528V21.3428C39.6949 20.6104 39.0846 20 38.3521 20C37.6197 20 37.0093 20.6104 37.0093 21.3428V27.5687C37.0093 28.3011 37.6197 28.8708 38.3521 28.8708Z" fill="black"/>
<path d="M48.4434 28.8708C49.1759 28.8708 49.7862 28.2604 49.7862 27.528V21.3428C49.7862 20.6104 49.1759 20 48.4434 20C47.711 20 47.1006 20.6104 47.1006 21.3428V27.5687C47.1413 28.3011 47.711 28.8708 48.4434 28.8708Z" fill="black"/>
</g>
<g clip-path="url(#clip1_13_2034)">
<path d="M48.8098 112.287H27.2024C26.47 112.287 25.8596 111.677 25.8596 110.945C25.8596 110.212 26.47 109.602 27.2024 109.602H48.8098C49.5422 109.602 50.1526 110.212 50.1526 110.945C50.1526 111.677 49.5422 112.287 48.8098 112.287ZM27.2024 103.01H40.8342C41.5666 103.01 42.177 103.62 42.177 104.353C42.177 105.085 41.5666 105.695 40.8342 105.695H27.2024C26.47 105.695 25.8596 105.085 25.8596 104.353C25.8596 103.62 26.47 103.01 27.2024 103.01ZM53.8555 86.9772H52.0244V89.6628H53.8555C53.9369 89.6628 53.9776 89.7442 53.9776 89.7849V96.4177H22.645V89.7849C22.645 89.7035 22.7263 89.6628 22.767 89.6628H24.5982V86.9772H22.8077C21.2614 86.9772 20 88.2386 20 89.7849V120.833C20 122.379 21.2614 123.64 22.8077 123.64H53.8555C55.4018 123.64 56.6633 122.379 56.6633 120.833V89.7849C56.6633 88.2386 55.4018 86.9772 53.8555 86.9772Z" fill="white"/>
<path d="M44.8628 86.9772H41.8923V89.6628H44.8628V86.9772Z" fill="white"/>
<path d="M34.771 86.9772H31.8005V89.6628H34.771V86.9772Z" fill="white"/>
<path d="M28.2198 92.5112C28.9522 92.5112 29.5626 91.9008 29.5626 91.1684V84.9832C29.5626 84.2508 28.9522 83.6404 28.2198 83.6404C27.4873 83.6404 26.877 84.2508 26.877 84.9832V91.209C26.877 91.9415 27.4873 92.5112 28.2198 92.5112Z" fill="white"/>
<path d="M38.3521 92.5112C39.0846 92.5112 39.6949 91.9008 39.6949 91.1684V84.9832C39.6949 84.2508 39.0846 83.6404 38.3521 83.6404C37.6197 83.6404 37.0093 84.2508 37.0093 84.9832V91.209C37.0093 91.9415 37.6197 92.5112 38.3521 92.5112Z" fill="white"/>
<path d="M48.4434 92.5112C49.1759 92.5112 49.7862 91.9008 49.7862 91.1684V84.9832C49.7862 84.2508 49.1759 83.6404 48.4434 83.6404C47.711 83.6404 47.1006 84.2508 47.1006 84.9832V91.209C47.1413 91.9415 47.711 92.5112 48.4434 92.5112Z" fill="white"/>
</g>
<rect x="0.5" y="0.5" width="74" height="143" rx="4.5" stroke="#7B61FF" stroke-dasharray="10 5"/>
<defs>
<clipPath id="clip0_13_2034">
<rect width="36.6633" height="40" fill="white" transform="translate(20 20)"/>
</clipPath>
<clipPath id="clip1_13_2034">
<rect width="36.6633" height="40" fill="white" transform="translate(20 83.6404)"/>
</clipPath>
</defs>
</svg>
