<svg width="84" height="140" viewBox="0 0 84 140" fill="none" xmlns="http://www.w3.org/2000/svg">
<g clip-path="url(#clip0_13_1872)">
<path d="M35.59 37.5501C35.4119 37.1937 34.9664 37.1046 34.6101 37.3274L26.4586 42.2271C26.2359 42.3608 26.1023 42.5835 26.1023 42.8507C26.1023 43.118 26.2359 43.3407 26.4586 43.4743L34.6101 48.3741C34.7437 48.4632 34.8328 48.4632 34.9664 48.4632C35.1892 48.4632 35.4564 48.3296 35.5455 48.1069C35.7237 47.7505 35.6346 47.3496 35.3228 47.1269L28.1958 42.8507L35.3228 38.5746C35.6791 38.3073 35.8128 37.9064 35.59 37.5501Z" fill="black"/>
<path d="M48.2406 48.0623C48.3742 48.2851 48.5969 48.4187 48.8196 48.4187C48.9533 48.4187 49.0869 48.3741 49.176 48.3296L57.3274 43.4298C57.5502 43.2962 57.6838 43.0735 57.6838 42.8062C57.6838 42.539 57.5502 42.3162 57.3274 42.1826L49.176 37.2828C48.8642 37.1047 48.4188 37.1937 48.196 37.5055C48.0179 37.8619 48.1069 38.2628 48.4188 38.4855L55.5457 42.7617L48.4188 47.0378C48.1515 47.3051 48.0179 47.7505 48.2406 48.0623Z" fill="black"/>
<path d="M44.588 37.5055L38.0847 47.3051C37.8619 47.6169 37.951 48.0623 38.2628 48.285C38.3965 48.3741 38.5301 48.4186 38.6637 48.4186C38.8864 48.4186 39.1092 48.3296 39.2428 48.1068L45.7461 38.3073C45.9688 37.9955 45.8798 37.55 45.568 37.3273C45.2561 37.1046 44.8107 37.1937 44.588 37.5055Z" fill="black"/>
<path d="M48.686 21.4254H62.4499V25.657H48.686V21.4254ZM21.3808 21.4254H47.2606V25.657H21.3808V21.4254ZM63.118 20H20.7127C20.3118 20 20 20.3118 20 20.7127V59.2873C20 59.6882 20.3118 60 20.7127 60H63.1626C63.5635 60 63.8753 59.6882 63.8753 59.2873V51.7595C63.8753 51.3586 63.5635 51.0468 63.1626 51.0468C62.7617 51.0468 62.4499 51.3586 62.4499 51.7595V58.5746H21.3808V27.0379H62.4053V48.9087C62.4053 49.3096 62.7172 49.6214 63.118 49.6214C63.5189 49.6214 63.8307 49.3096 63.8307 48.9087V20.7127C63.8307 20.3118 63.5189 20 63.118 20Z" fill="black"/>
<path d="M55.59 22.7617C55.1891 22.7617 54.8328 23.1181 54.8328 23.519C54.8328 23.9198 55.1891 24.2762 55.59 24.2762C55.9909 24.2762 56.3472 23.9198 56.3472 23.519C56.3472 23.1181 55.9909 22.7617 55.59 22.7617Z" fill="black"/>
<path d="M51.7594 22.7617C51.3585 22.7617 51.0022 23.1181 51.0022 23.519C51.0022 23.9198 51.3585 24.2762 51.7594 24.2762C52.1603 24.2762 52.5167 23.9198 52.5167 23.519C52.5167 23.1181 52.1603 22.7617 51.7594 22.7617Z" fill="black"/>
<path d="M59.4211 22.7617C59.0202 22.7617 58.6638 23.1181 58.6638 23.519C58.6638 23.9198 59.0202 24.2762 59.4211 24.2762C59.8219 24.2762 60.1783 23.9198 60.1783 23.519C60.1783 23.1181 59.8219 22.7617 59.4211 22.7617Z" fill="black"/>
</g>
<g clip-path="url(#clip1_13_1872)">
<path d="M35.59 97.5501C35.4119 97.1937 34.9664 97.1046 34.6101 97.3274L26.4586 102.227C26.2359 102.361 26.1023 102.583 26.1023 102.851C26.1023 103.118 26.2359 103.341 26.4586 103.474L34.6101 108.374C34.7437 108.463 34.8328 108.463 34.9664 108.463C35.1892 108.463 35.4564 108.33 35.5455 108.107C35.7237 107.751 35.6346 107.35 35.3228 107.127L28.1958 102.851L35.3228 98.5746C35.6791 98.3073 35.8128 97.9064 35.59 97.5501Z" fill="white"/>
<path d="M48.2406 108.062C48.3742 108.285 48.5969 108.419 48.8196 108.419C48.9533 108.419 49.0869 108.374 49.176 108.33L57.3274 103.43C57.5502 103.296 57.6838 103.073 57.6838 102.806C57.6838 102.539 57.5502 102.316 57.3274 102.183L49.176 97.2828C48.8642 97.1047 48.4188 97.1937 48.196 97.5055C48.0179 97.8619 48.1069 98.2628 48.4188 98.4855L55.5457 102.762L48.4188 107.038C48.1515 107.305 48.0179 107.751 48.2406 108.062Z" fill="white"/>
<path d="M44.588 97.5055L38.0847 107.305C37.8619 107.617 37.951 108.062 38.2628 108.285C38.3965 108.374 38.5301 108.419 38.6637 108.419C38.8864 108.419 39.1092 108.33 39.2428 108.107L45.7461 98.3073C45.9688 97.9955 45.8798 97.55 45.568 97.3273C45.2561 97.1046 44.8107 97.1937 44.588 97.5055Z" fill="white"/>
<path d="M48.686 81.4254H62.4499V85.657H48.686V81.4254ZM21.3808 81.4254H47.2606V85.657H21.3808V81.4254ZM63.118 80H20.7127C20.3118 80 20 80.3118 20 80.7127V119.287C20 119.688 20.3118 120 20.7127 120H63.1626C63.5635 120 63.8753 119.688 63.8753 119.287V111.759C63.8753 111.359 63.5635 111.047 63.1626 111.047C62.7617 111.047 62.4499 111.359 62.4499 111.759V118.575H21.3808V87.0379H62.4053V108.909C62.4053 109.31 62.7172 109.621 63.118 109.621C63.5189 109.621 63.8307 109.31 63.8307 108.909V80.7127C63.8307 80.3118 63.5189 80 63.118 80Z" fill="white"/>
<path d="M55.59 82.7617C55.1891 82.7617 54.8328 83.1181 54.8328 83.519C54.8328 83.9198 55.1891 84.2762 55.59 84.2762C55.9909 84.2762 56.3472 83.9198 56.3472 83.519C56.3472 83.1181 55.9909 82.7617 55.59 82.7617Z" fill="white"/>
<path d="M51.7594 82.7617C51.3585 82.7617 51.0022 83.1181 51.0022 83.519C51.0022 83.9198 51.3585 84.2762 51.7594 84.2762C52.1603 84.2762 52.5167 83.9198 52.5167 83.519C52.5167 83.1181 52.1603 82.7617 51.7594 82.7617Z" fill="white"/>
<path d="M59.4211 82.7617C59.0202 82.7617 58.6638 83.1181 58.6638 83.519C58.6638 83.9198 59.0202 84.2762 59.4211 84.2762C59.8219 84.2762 60.1783 83.9198 60.1783 83.519C60.1783 83.1181 59.8219 82.7617 59.4211 82.7617Z" fill="white"/>
</g>
<rect x="0.5" y="0.5" width="82.8307" height="139" rx="4.5" stroke="#7B61FF" stroke-dasharray="10 5"/>
<defs>
<clipPath id="clip0_13_1872">
<rect width="43.8307" height="40" fill="white" transform="translate(20 20)"/>
</clipPath>
<clipPath id="clip1_13_1872">
<rect width="43.8307" height="40" fill="white" transform="translate(20 80)"/>
</clipPath>
</defs>
</svg>
