<svg width="72" height="146" viewBox="0 0 72 146" fill="none" xmlns="http://www.w3.org/2000/svg">
<g clip-path="url(#clip0_13_1909)">
<path d="M21.924 31.2403C23.28 26.7785 26.7795 23.279 31.2851 21.9229C33.691 21.223 36.0969 21.048 38.4591 21.5292C38.809 21.573 39.1152 21.3542 39.2027 21.048C39.2465 20.6981 39.0277 20.3919 38.7215 20.3044C36.1844 19.8232 33.5598 19.9544 30.9352 20.7418C28.5293 21.4417 26.3421 22.754 24.5486 24.5475C22.7551 26.341 21.4428 28.5282 20.7429 30.9341C19.693 34.3461 19.7805 37.9331 20.9616 41.1701C21.0491 41.4326 21.3116 41.5638 21.5303 41.5638C21.6178 41.5638 21.6615 41.5638 21.749 41.5201C22.0552 41.3888 22.2302 41.0389 22.1427 40.7327C21.0491 37.7581 20.9616 34.4773 21.924 31.2403Z" fill="black"/>
<path d="M39.6409 56.9196C39.6409 57.8382 38.8972 58.6256 37.9349 58.6256H33.5168C32.5982 58.6256 31.8108 57.8819 31.8108 56.9196V54.5137H39.5971V56.9196H39.6409ZM37.1037 61.2065C37.1037 61.5127 36.885 61.7314 36.5788 61.7314H34.9166C34.6104 61.7314 34.3916 61.5127 34.3916 61.2065V59.8942H37.1037V61.2065ZM49.002 27.2614C47.4272 24.8117 45.1963 22.8433 42.5717 21.5747C42.2655 21.4435 41.8718 21.5747 41.7406 21.8809C41.6093 22.1871 41.7406 22.5808 42.0468 22.7121C44.4527 23.8931 46.5086 25.6866 47.9522 27.9613C49.4395 30.2797 50.2268 32.9918 50.2268 35.7914C50.2268 38.7222 49.352 41.5656 47.6897 44.0152C46.0712 46.3774 43.7965 48.2146 41.1719 49.2644C40.2533 49.6581 39.6409 50.533 39.6409 51.5829V53.2451H36.3601V43.6215L37.8911 44.3652C37.9786 44.4089 38.0661 44.4089 38.1536 44.4089C38.2411 44.4089 38.3286 44.4089 38.4161 44.3652L40.8657 43.1841C41.1719 43.0529 41.3031 42.6592 41.1719 42.353C41.0407 42.0467 40.647 41.9155 40.3408 42.0467L38.1973 43.0966L36.0539 42.0467C35.8789 41.9593 35.6602 41.9593 35.529 42.0467L33.3855 43.0966L31.2421 42.0467C30.9359 41.9155 30.5422 42.0467 30.411 42.353C30.2797 42.6592 30.411 43.0529 30.7172 43.1841L33.1668 44.3652C33.3418 44.4526 33.5168 44.4526 33.6917 44.3652L35.2228 43.6215V53.2451H31.942V51.5829C31.942 50.5768 31.3296 49.6581 30.411 49.2644C27.8301 48.2146 25.5992 46.4649 23.9807 44.1464C23.7619 43.884 23.3682 43.7965 23.1058 44.0152C22.8433 44.2339 22.7558 44.6276 22.9745 44.8901C24.7243 47.3835 27.1302 49.3082 29.9298 50.4455C30.411 50.6205 30.6734 51.1017 30.6734 51.5829V53.9013V56.9633C30.6734 58.4506 31.767 59.6754 33.2106 59.8942V61.2502C33.2106 62.2126 33.9979 63.0437 35.0041 63.0437H36.6663C37.6287 63.0437 38.4598 62.2563 38.4598 61.2502V59.8942C39.9033 59.6754 40.9969 58.4506 40.9969 56.9633V53.9013V51.5829C40.9969 51.0579 41.3031 50.6205 41.7406 50.4455C44.6277 49.2644 47.0773 47.296 48.827 44.7151C50.6205 42.0905 51.5829 38.9847 51.5829 35.7914C51.4954 32.7731 50.6205 29.7985 49.002 27.2614Z" fill="black"/>
</g>
<g clip-path="url(#clip1_13_1909)">
<path d="M21.924 94.2403C23.28 89.7785 26.7795 86.279 31.2851 84.9229C33.691 84.223 36.0969 84.048 38.4591 84.5292C38.809 84.573 39.1152 84.3542 39.2027 84.048C39.2465 83.6981 39.0277 83.3919 38.7215 83.3044C36.1844 82.8232 33.5598 82.9544 30.9352 83.7418C28.5293 84.4417 26.3421 85.754 24.5486 87.5475C22.7551 89.341 21.4428 91.5282 20.7429 93.9341C19.693 97.3461 19.7805 100.933 20.9616 104.17C21.0491 104.433 21.3116 104.564 21.5303 104.564C21.6178 104.564 21.6615 104.564 21.749 104.52C22.0552 104.389 22.2302 104.039 22.1427 103.733C21.0491 100.758 20.9616 97.4773 21.924 94.2403Z" fill="white"/>
<path d="M39.6409 119.92C39.6409 120.838 38.8972 121.626 37.9349 121.626H33.5168C32.5982 121.626 31.8108 120.882 31.8108 119.92V117.514H39.5971V119.92H39.6409ZM37.1037 124.206C37.1037 124.513 36.885 124.731 36.5788 124.731H34.9166C34.6104 124.731 34.3916 124.513 34.3916 124.206V122.894H37.1037V124.206ZM49.002 90.2614C47.4272 87.8117 45.1963 85.8433 42.5717 84.5747C42.2655 84.4435 41.8718 84.5747 41.7406 84.8809C41.6093 85.1871 41.7406 85.5808 42.0468 85.7121C44.4527 86.8931 46.5086 88.6866 47.9522 90.9613C49.4395 93.2797 50.2268 95.9918 50.2268 98.7914C50.2268 101.722 49.352 104.566 47.6897 107.015C46.0712 109.377 43.7965 111.215 41.1719 112.264C40.2533 112.658 39.6409 113.533 39.6409 114.583V116.245H36.3601V106.622L37.8911 107.365C37.9786 107.409 38.0661 107.409 38.1536 107.409C38.2411 107.409 38.3286 107.409 38.4161 107.365L40.8657 106.184C41.1719 106.053 41.3031 105.659 41.1719 105.353C41.0407 105.047 40.647 104.916 40.3408 105.047L38.1973 106.097L36.0539 105.047C35.8789 104.959 35.6602 104.959 35.529 105.047L33.3855 106.097L31.2421 105.047C30.9359 104.916 30.5422 105.047 30.411 105.353C30.2797 105.659 30.411 106.053 30.7172 106.184L33.1668 107.365C33.3418 107.453 33.5168 107.453 33.6917 107.365L35.2228 106.622V116.245H31.942V114.583C31.942 113.577 31.3296 112.658 30.411 112.264C27.8301 111.215 25.5992 109.465 23.9807 107.146C23.7619 106.884 23.3682 106.796 23.1058 107.015C22.8433 107.234 22.7558 107.628 22.9745 107.89C24.7243 110.383 27.1302 112.308 29.9298 113.446C30.411 113.621 30.6734 114.102 30.6734 114.583V116.901V119.963C30.6734 121.451 31.767 122.675 33.2106 122.894V124.25C33.2106 125.213 33.9979 126.044 35.0041 126.044H36.6663C37.6287 126.044 38.4598 125.256 38.4598 124.25V122.894C39.9033 122.675 40.9969 121.451 40.9969 119.963V116.901V114.583C40.9969 114.058 41.3031 113.621 41.7406 113.446C44.6277 112.264 47.0773 110.296 48.827 107.715C50.6205 105.09 51.5829 101.985 51.5829 98.7914C51.4954 95.7731 50.6205 92.7985 49.002 90.2614Z" fill="white"/>
</g>
<rect x="0.5" y="0.5" width="70.4954" height="145" rx="4.5" stroke="#7B61FF" stroke-dasharray="10 5"/>
<defs>
<clipPath id="clip0_13_1909">
<rect width="31.4954" height="43" fill="white" transform="translate(20 20)"/>
</clipPath>
<clipPath id="clip1_13_1909">
<rect width="31.4954" height="43" fill="white" transform="translate(20 83)"/>
</clipPath>
</defs>
</svg>
