<svg width="80" height="133" viewBox="0 0 80 133" fill="none" xmlns="http://www.w3.org/2000/svg">
<g clip-path="url(#clip0_13_2187)">
<path d="M38.4933 51.9092H29.742V47.2859H38.4933V51.9092ZM60 53.1063L57.936 21.1971C57.8535 20.5366 57.3168 20.0413 56.6563 20H48.937C48.2766 20 47.6987 20.5366 47.6574 21.1971L46.6254 36.7595H40.1445V31.806C40.1445 31.1042 39.5253 30.5263 38.8235 30.5676C38.5759 30.5676 38.3282 30.6502 38.1218 30.774L31.3519 35.6037V31.806C31.3519 31.1042 30.7327 30.5263 30.031 30.5676C29.7833 30.5676 29.5356 30.6502 29.3292 30.774L20.4954 37.0485C20.2064 37.2549 20 37.6677 20 38.0392V53.1889C20 53.8906 20.5779 54.4685 21.2797 54.4685H58.7203C59.0919 54.4685 59.4221 54.3034 59.6698 54.0557C59.8762 53.8081 60 53.4778 60 53.1063Z" fill="black"/>
</g>
<g clip-path="url(#clip1_13_2187)">
<path d="M38.4933 111.909H29.742V107.286H38.4933V111.909ZM60 113.106L57.936 81.1971C57.8535 80.5366 57.3168 80.0413 56.6563 80H48.937C48.2766 80 47.6987 80.5366 47.6574 81.1971L46.6254 96.7595H40.1445V91.806C40.1445 91.1042 39.5253 90.5263 38.8235 90.5676C38.5759 90.5676 38.3282 90.6502 38.1218 90.774L31.3519 95.6037V91.806C31.3519 91.1042 30.7327 90.5263 30.031 90.5676C29.7833 90.5676 29.5356 90.6502 29.3292 90.774L20.4954 97.0485C20.2064 97.2549 20 97.6677 20 98.0392V113.189C20 113.891 20.5779 114.469 21.2797 114.469H58.7203C59.0919 114.469 59.4221 114.303 59.6698 114.056C59.8762 113.808 60 113.478 60 113.106Z" fill="white"/>
</g>
<rect x="0.5" y="0.5" width="79" height="132" rx="4.5" stroke="#7B61FF" stroke-dasharray="10 5"/>
<defs>
<clipPath id="clip0_13_2187">
<rect width="40" height="34.4685" fill="white" transform="translate(20 20)"/>
</clipPath>
<clipPath id="clip1_13_2187">
<rect width="40" height="34.4685" fill="white" transform="translate(20 80)"/>
</clipPath>
</defs>
</svg>
