<svg width="86" height="150" viewBox="0 0 86 150" fill="none" xmlns="http://www.w3.org/2000/svg">
<g clip-path="url(#clip0_13_1738)">
<path d="M45.7731 49.71C46.7802 48.1536 47.4669 45.8647 47.5584 43.2095H50.3967C50.122 46.0935 48.2909 48.5656 45.7731 49.71ZM34.649 43.2095H37.4872C37.5788 45.8189 38.2655 48.1536 39.2726 49.71C36.7548 48.5656 34.9237 46.0935 34.649 43.2095ZM39.2726 35.2899C38.2655 36.8463 37.5788 39.1353 37.4872 41.7904H34.649C34.9237 38.9064 36.7548 36.4343 39.2726 35.2899ZM43.2553 41.7904V34.7863C43.8504 35.1068 44.4455 35.7477 44.9491 36.709C45.6358 38.0824 46.0478 39.8219 46.1393 41.7446H43.2553V41.7904ZM43.2553 50.2136V43.2095H46.0935C46.002 45.1322 45.59 46.9176 44.9033 48.2451C44.4455 49.2522 43.8504 49.8931 43.2553 50.2136ZM41.7904 43.2095V50.2136C41.1953 49.8931 40.6002 49.2522 40.0966 48.2909C39.4099 46.9176 38.9979 45.178 38.9064 43.2553H41.7904V43.2095ZM41.7904 34.7863V41.7904H38.9521C39.0437 39.8677 39.4557 38.0824 40.1424 36.7548C40.6002 35.7477 41.1953 35.061 41.7904 34.7863ZM50.3967 41.7904H47.5584C47.4669 39.181 46.7802 36.8463 45.7731 35.2899C48.2909 36.4343 50.122 38.9064 50.3967 41.7904ZM42.5228 33.1841C37.3499 33.1841 33.1841 37.3499 33.1841 42.5228C33.1841 47.65 37.3957 51.8616 42.5228 51.8616C47.6958 51.8616 51.8616 47.6958 51.8616 42.5228C51.8616 37.3499 47.6958 33.1841 42.5228 33.1841Z" fill="black"/>
<path d="M52.5483 56.8973C48.0163 61.4293 43.53 63.1689 42.5229 63.5351C41.5158 63.1689 37.0753 61.4751 32.589 56.9888C27.9196 52.3194 22.2431 43.7589 21.4649 29.1099C22.472 29.2472 23.5249 29.293 24.532 29.293C27.9654 29.293 31.353 28.5605 34.6033 27.1414C37.5331 25.8596 40.1882 24.0285 42.5229 21.7396C44.8576 24.0285 47.5127 25.8596 50.4425 27.1414C53.647 28.5605 57.0346 29.293 60.5137 29.293C61.5208 29.293 62.5737 29.2472 63.5809 29.1099C62.8026 43.7131 57.1719 52.2736 52.5483 56.8973ZM64.8169 27.7365C64.6338 27.5992 64.4506 27.5534 64.2218 27.5534C62.9857 27.7365 61.7497 27.8739 60.5137 27.8739C54.0132 27.8739 47.8332 25.1729 43.0722 20.2289C42.8891 20.0916 42.706 20 42.5229 20C42.3398 20 42.1567 20.0916 42.0193 20.2289C37.2584 25.1729 31.0326 27.8739 24.5778 27.8739C23.3418 27.8739 22.06 27.7823 20.8698 27.5534C20.6409 27.5076 20.4578 27.5992 20.2747 27.7365C20.0916 27.8739 20 28.1027 20 28.2859C20.2747 35.1984 21.6022 41.4242 23.9827 46.7803C25.8596 51.0834 28.4232 54.8372 31.5819 57.9959C36.9379 63.352 42.1109 64.9084 42.3398 65C42.3855 65 42.4771 65.0458 42.5687 65.0458C42.6602 65.0458 42.706 65.0458 42.7518 65C42.9807 64.9542 48.1536 63.352 53.5097 57.9959C56.6684 54.883 59.1862 51.0834 61.1088 46.7803C63.4893 41.4242 64.8169 35.1984 65.0915 28.2859C65.0458 28.1027 64.9542 27.8739 64.8169 27.7365Z" fill="black"/>
<path d="M42.9805 25.356C42.7058 25.1271 42.3396 25.1271 42.0649 25.356C37.0751 29.4303 31.1239 31.6276 24.8523 31.6734C24.6692 31.6734 24.4403 31.7649 24.303 31.9023C24.1657 32.0396 24.1199 32.2685 24.1199 32.4516C24.6234 37.0294 25.7221 41.1953 27.3243 44.9033C28.9724 48.7487 31.2155 52.0905 33.9164 54.883C37.2124 58.2705 40.5085 60.0101 42.2023 60.7426C42.2938 60.7883 42.3854 60.7883 42.4769 60.7883C42.5685 60.7883 42.6601 60.7883 42.7516 60.7426C44.1707 60.1017 47.009 58.6368 49.9846 55.8901C50.2592 55.6154 50.305 55.1576 50.0303 54.883C49.7557 54.6083 49.2979 54.5625 49.0232 54.8372C46.4139 57.2634 43.8961 58.6368 42.4769 59.2777C40.8289 58.4994 37.8991 56.8514 34.9235 53.8758C32.36 51.3123 30.2542 48.062 28.6977 44.3997C27.2328 41.0121 26.2257 37.2583 25.7221 33.0925C31.8106 32.8636 37.6244 30.712 42.5685 26.8209C47.4668 30.712 53.2806 32.8636 59.3691 33.0925C58.8198 37.2126 57.8126 41.0121 56.3935 44.3997C55.0202 47.6042 53.189 50.4882 51.0375 52.9145C50.7628 53.1892 50.8086 53.6469 51.0833 53.9216C51.3579 54.1963 51.8157 54.1505 52.0904 53.8758C54.3793 51.3123 56.2562 48.2909 57.6753 44.9491C59.2776 41.241 60.3305 37.0294 60.8798 32.4974C60.9256 32.3143 60.834 32.0854 60.6967 31.9481C60.5593 31.8107 60.3762 31.7192 60.1473 31.7192C53.9215 31.6276 47.9703 29.4303 42.9805 25.356Z" fill="black"/>
</g>
<g clip-path="url(#clip1_13_1738)">
<path d="M45.7731 114.71C46.7802 113.154 47.4669 110.865 47.5584 108.21H50.3967C50.122 111.094 48.2909 113.566 45.7731 114.71ZM34.649 108.21H37.4872C37.5788 110.819 38.2655 113.154 39.2726 114.71C36.7548 113.566 34.9237 111.094 34.649 108.21ZM39.2726 100.29C38.2655 101.846 37.5788 104.135 37.4872 106.79H34.649C34.9237 103.906 36.7548 101.434 39.2726 100.29ZM43.2553 106.79V99.7863C43.8504 100.107 44.4455 100.748 44.9491 101.709C45.6358 103.082 46.0478 104.822 46.1393 106.745H43.2553V106.79ZM43.2553 115.214V108.21H46.0935C46.002 110.132 45.59 111.918 44.9033 113.245C44.4455 114.252 43.8504 114.893 43.2553 115.214ZM41.7904 108.21V115.214C41.1953 114.893 40.6002 114.252 40.0966 113.291C39.4099 111.918 38.9979 110.178 38.9064 108.255H41.7904V108.21ZM41.7904 99.7863V106.79H38.9521C39.0437 104.868 39.4557 103.082 40.1424 101.755C40.6002 100.748 41.1953 100.061 41.7904 99.7863ZM50.3967 106.79H47.5584C47.4669 104.181 46.7802 101.846 45.7731 100.29C48.2909 101.434 50.122 103.906 50.3967 106.79ZM42.5228 98.1841C37.3499 98.1841 33.1841 102.35 33.1841 107.523C33.1841 112.65 37.3957 116.862 42.5228 116.862C47.6958 116.862 51.8616 112.696 51.8616 107.523C51.8616 102.35 47.6958 98.1841 42.5228 98.1841Z" fill="white"/>
<path d="M52.5483 121.897C48.0163 126.429 43.53 128.169 42.5229 128.535C41.5158 128.169 37.0753 126.475 32.589 121.989C27.9196 117.319 22.2431 108.759 21.4649 94.1099C22.472 94.2472 23.5249 94.293 24.532 94.293C27.9654 94.293 31.353 93.5605 34.6033 92.1414C37.5331 90.8596 40.1882 89.0285 42.5229 86.7396C44.8576 89.0285 47.5127 90.8596 50.4425 92.1414C53.647 93.5605 57.0346 94.293 60.5137 94.293C61.5208 94.293 62.5737 94.2472 63.5809 94.1099C62.8026 108.713 57.1719 117.274 52.5483 121.897ZM64.8169 92.7365C64.6338 92.5992 64.4506 92.5534 64.2218 92.5534C62.9857 92.7365 61.7497 92.8739 60.5137 92.8739C54.0132 92.8739 47.8332 90.1729 43.0722 85.2289C42.8891 85.0916 42.706 85 42.5229 85C42.3398 85 42.1567 85.0916 42.0193 85.2289C37.2584 90.1729 31.0326 92.8739 24.5778 92.8739C23.3418 92.8739 22.06 92.7823 20.8698 92.5534C20.6409 92.5076 20.4578 92.5992 20.2747 92.7365C20.0916 92.8739 20 93.1027 20 93.2859C20.2747 100.198 21.6022 106.424 23.9827 111.78C25.8596 116.083 28.4232 119.837 31.5819 122.996C36.9379 128.352 42.1109 129.908 42.3398 130C42.3855 130 42.4771 130.046 42.5687 130.046C42.6602 130.046 42.706 130.046 42.7518 130C42.9807 129.954 48.1536 128.352 53.5097 122.996C56.6684 119.883 59.1862 116.083 61.1088 111.78C63.4893 106.424 64.8169 100.198 65.0915 93.2859C65.0458 93.1027 64.9542 92.8739 64.8169 92.7365Z" fill="white"/>
<path d="M42.9805 90.356C42.7058 90.1271 42.3396 90.1271 42.0649 90.356C37.0751 94.4303 31.1239 96.6276 24.8523 96.6734C24.6692 96.6734 24.4403 96.7649 24.303 96.9023C24.1657 97.0396 24.1199 97.2685 24.1199 97.4516C24.6234 102.029 25.7221 106.195 27.3243 109.903C28.9724 113.749 31.2155 117.09 33.9164 119.883C37.2124 123.271 40.5085 125.01 42.2023 125.743C42.2938 125.788 42.3854 125.788 42.4769 125.788C42.5685 125.788 42.6601 125.788 42.7516 125.743C44.1707 125.102 47.009 123.637 49.9846 120.89C50.2592 120.615 50.305 120.158 50.0303 119.883C49.7557 119.608 49.2979 119.563 49.0232 119.837C46.4139 122.263 43.8961 123.637 42.4769 124.278C40.8289 123.499 37.8991 121.851 34.9235 118.876C32.36 116.312 30.2542 113.062 28.6977 109.4C27.2328 106.012 26.2257 102.258 25.7221 98.0925C31.8106 97.8636 37.6244 95.712 42.5685 91.8209C47.4668 95.712 53.2806 97.8636 59.3691 98.0925C58.8198 102.213 57.8126 106.012 56.3935 109.4C55.0202 112.604 53.189 115.488 51.0375 117.914C50.7628 118.189 50.8086 118.647 51.0833 118.922C51.3579 119.196 51.8157 119.151 52.0904 118.876C54.3793 116.312 56.2562 113.291 57.6753 109.949C59.2776 106.241 60.3305 102.029 60.8798 97.4974C60.9256 97.3143 60.834 97.0854 60.6967 96.9481C60.5593 96.8107 60.3762 96.7192 60.1473 96.7192C53.9215 96.6276 47.9703 94.4303 42.9805 90.356Z" fill="white"/>
</g>
<rect x="0.5" y="0.5" width="84.0458" height="149" rx="4.5" stroke="#7B61FF" stroke-dasharray="10 5"/>
<defs>
<clipPath id="clip0_13_1738">
<rect width="45.0458" height="45" fill="white" transform="translate(20 20)"/>
</clipPath>
<clipPath id="clip1_13_1738">
<rect width="45.0458" height="45" fill="white" transform="translate(20 85)"/>
</clipPath>
</defs>
</svg>
