<svg width="86" height="140" viewBox="0 0 86 140" fill="none" xmlns="http://www.w3.org/2000/svg">
<g clip-path="url(#clip0_13_1991)">
<path d="M20 31.124V48.876C20 49.7566 20.7416 50.4519 21.6222 50.4519H30.5678V29.5017H21.6222C20.7416 29.5017 20 30.2433 20 31.124Z" fill="black"/>
<path d="M49.8031 20.1854C49.2933 19.9073 48.6907 19.9073 48.1809 20.1854L33.3489 28.482V51.4716L48.1809 59.7682C48.4126 59.9073 48.7371 59.9536 49.0152 60C49.2933 60 49.5714 59.9073 49.8495 59.7682C50.3593 59.4901 50.6374 58.9339 50.6838 58.3777V21.5759C50.591 21.0197 50.2666 20.5098 49.8031 20.1854Z" fill="black"/>
<path d="M65.6083 38.4009H55.3186V41.599H65.6083V38.4009Z" fill="black"/>
<path d="M61.2515 26.0718L62.9665 28.8064L54.7626 33.6268L53.0476 30.9385L61.2515 26.0718Z" fill="black"/>
<path d="M61.066 53.9745L52.9084 49.1077L54.6234 46.4194L62.781 51.2398L61.066 53.9745Z" fill="black"/>
</g>
<g clip-path="url(#clip1_13_1991)">
<path d="M20 91.124V108.876C20 109.757 20.7416 110.452 21.6222 110.452H30.5678V89.5017H21.6222C20.7416 89.5017 20 90.2433 20 91.124Z" fill="white"/>
<path d="M49.8031 80.1854C49.2933 79.9073 48.6907 79.9073 48.1809 80.1854L33.3489 88.482V111.472L48.1809 119.768C48.4126 119.907 48.7371 119.954 49.0152 120C49.2933 120 49.5714 119.907 49.8495 119.768C50.3593 119.49 50.6374 118.934 50.6838 118.378V81.5759C50.591 81.0197 50.2666 80.5098 49.8031 80.1854Z" fill="white"/>
<path d="M65.6083 98.4009H55.3186V101.599H65.6083V98.4009Z" fill="white"/>
<path d="M61.2515 86.0718L62.9665 88.8064L54.7626 93.6268L53.0476 90.9385L61.2515 86.0718Z" fill="white"/>
<path d="M61.066 113.974L52.9084 109.108L54.6234 106.419L62.781 111.24L61.066 113.974Z" fill="white"/>
</g>
<rect x="0.5" y="0.5" width="84.6083" height="139" rx="4.5" stroke="#7B61FF" stroke-dasharray="10 5"/>
<defs>
<clipPath id="clip0_13_1991">
<rect width="45.6083" height="40" fill="white" transform="translate(20 20)"/>
</clipPath>
<clipPath id="clip1_13_1991">
<rect width="45.6083" height="40" fill="white" transform="translate(20 80)"/>
</clipPath>
</defs>
</svg>
