<svg width="83" height="140" viewBox="0 0 83 140" fill="none" xmlns="http://www.w3.org/2000/svg">
<g clip-path="url(#clip0_13_2126)">
<path d="M58.3964 36.882C58.441 36.4365 58.4855 36.0356 58.4855 35.5902C58.4855 30.735 54.5657 26.8151 49.7105 26.8151C49.0423 26.8151 48.3296 26.9042 47.706 27.0379C46.7261 25.167 45.3007 23.5635 43.5635 22.3163C41.3808 20.8018 38.7973 20 36.1247 20C28.9532 20 23.118 25.8352 23.118 33.0067C23.118 34.3875 23.3408 35.7238 23.7416 37.0156C21.5145 38.0846 20 40.3563 20 42.9399C20 46.5479 22.9399 49.4432 26.5033 49.4432H33.1403V47.3051C30.3786 46.147 29.6214 42.539 31.7595 40.4009L38.2628 33.8975C39.0646 33.0958 40.1336 32.6503 41.2472 32.6503C42.3608 32.6503 43.4298 33.0958 44.2316 33.8975L50.735 40.4009C52.8731 42.539 52.1158 46.1915 49.3541 47.3051V49.4432H55.9911C59.5991 49.4432 62.4944 46.5033 62.4944 42.9399C62.539 40.2227 60.8463 37.8174 58.3964 36.882Z" fill="black"/>
<path d="M48.7751 42.4053L42.2718 35.902C42.0045 35.6347 41.6482 35.5011 41.2918 35.5011C40.9355 35.5011 40.5792 35.6347 40.3119 35.902L33.764 42.4053C32.8731 43.2962 33.4967 44.8107 34.744 44.8107H35.9466V58.5746C35.9466 59.3764 36.5702 60 37.372 60H45.1671C45.9689 60 46.5925 59.3764 46.5925 58.5746V44.8107H47.7952C49.0424 44.8107 49.666 43.2962 48.7751 42.4053Z" fill="black"/>
</g>
<g clip-path="url(#clip1_13_2126)">
<path d="M58.3964 96.882C58.441 96.4365 58.4855 96.0356 58.4855 95.5902C58.4855 90.735 54.5657 86.8151 49.7105 86.8151C49.0423 86.8151 48.3296 86.9042 47.706 87.0379C46.7261 85.167 45.3007 83.5635 43.5635 82.3163C41.3808 80.8018 38.7973 80 36.1247 80C28.9532 80 23.118 85.8352 23.118 93.0067C23.118 94.3875 23.3408 95.7238 23.7416 97.0156C21.5145 98.0846 20 100.356 20 102.94C20 106.548 22.9399 109.443 26.5033 109.443H33.1403V107.305C30.3786 106.147 29.6214 102.539 31.7595 100.401L38.2628 93.8975C39.0646 93.0958 40.1336 92.6503 41.2472 92.6503C42.3608 92.6503 43.4298 93.0958 44.2316 93.8975L50.735 100.401C52.8731 102.539 52.1158 106.192 49.3541 107.305V109.443H55.9911C59.5991 109.443 62.4944 106.503 62.4944 102.94C62.539 100.223 60.8463 97.8174 58.3964 96.882Z" fill="white"/>
<path d="M48.7751 102.405L42.2718 95.902C42.0045 95.6347 41.6482 95.5011 41.2918 95.5011C40.9355 95.5011 40.5792 95.6347 40.3119 95.902L33.764 102.405C32.8731 103.296 33.4967 104.811 34.744 104.811H35.9466V118.575C35.9466 119.376 36.5702 120 37.372 120H45.1671C45.9689 120 46.5925 119.376 46.5925 118.575V104.811H47.7952C49.0424 104.811 49.666 103.296 48.7751 102.405Z" fill="white"/>
</g>
<rect x="0.5" y="0.5" width="81.539" height="139" rx="4.5" stroke="#7B61FF" stroke-dasharray="10 5"/>
<defs>
<clipPath id="clip0_13_2126">
<rect width="42.539" height="40" fill="white" transform="translate(20 20)"/>
</clipPath>
<clipPath id="clip1_13_2126">
<rect width="42.539" height="40" fill="white" transform="translate(20 80)"/>
</clipPath>
</defs>
</svg>
