<svg width="27" height="27" viewBox="0 0 27 27" fill="none" xmlns="http://www.w3.org/2000/svg">
<path fill-rule="evenodd" clip-rule="evenodd" d="M18.9631 9.5651C18.9631 10.0821 18.544 10.5011 18.0271 10.5011C17.5102 10.5011 17.0911 10.0821 17.0911 9.5651C17.0911 9.0481 17.5102 8.6291 18.0271 8.6291C18.5441 8.6291 18.9631 9.0481 18.9631 9.5651ZM13.8635 16.3287C12.4275 16.3287 11.2635 15.1646 11.2635 13.7287C11.2635 12.2928 12.4275 11.1288 13.8635 11.1288C15.2994 11.1288 16.4634 12.2928 16.4634 13.7287C16.4634 15.1646 15.2994 16.3287 13.8635 16.3287ZM13.8635 9.72329C11.6513 9.72329 9.85805 11.5166 9.85805 13.7287C9.85805 15.9409 11.6513 17.7341 13.8635 17.7341C16.0756 17.7341 17.8689 15.9409 17.8689 13.7287C17.8689 11.5166 16.0756 9.72329 13.8635 9.72329ZM13.8635 7.33417C15.9462 7.33417 16.1929 7.3421 17.0153 7.37963C17.7758 7.41437 18.1888 7.54136 18.4636 7.64825C18.8277 7.78974 19.0875 7.95878 19.3605 8.23178C19.6335 8.50466 19.8026 8.7645 19.9441 9.12866C20.0508 9.40349 20.1779 9.81652 20.2127 10.577C20.2502 11.3996 20.2581 11.6462 20.2581 13.729C20.2581 15.8117 20.2502 16.0584 20.2127 16.8808C20.1779 17.6413 20.0509 18.0543 19.9441 18.3291C19.8026 18.6932 19.6335 18.953 19.3605 19.226C19.0876 19.499 18.8278 19.668 18.4636 19.8095C18.1888 19.9163 17.7758 20.0434 17.0153 20.0782C16.1929 20.1157 15.9462 20.1236 13.8635 20.1236C11.7806 20.1236 11.534 20.1157 10.7115 20.0782C9.95105 20.0434 9.53801 19.9164 9.26318 19.8095C8.89914 19.668 8.6393 19.499 8.3663 19.226C8.09343 18.9531 7.92426 18.6933 7.78277 18.3291C7.676 18.0543 7.54889 17.6413 7.51415 16.8808C7.47662 16.0582 7.4687 15.8116 7.4687 13.729C7.4687 11.6462 7.47662 11.3996 7.51415 10.577C7.54889 9.81652 7.67588 9.40349 7.78277 9.12866C7.92426 8.76462 8.09331 8.50478 8.3663 8.23178C8.63918 7.95878 8.89902 7.78974 9.26318 7.64825C9.53801 7.54148 9.95105 7.41437 10.7115 7.37963C11.5341 7.3421 11.7808 7.33417 13.8635 7.33417ZM13.8635 5.92871C11.7452 5.92871 11.4795 5.93773 10.6476 5.97563C9.81735 6.01354 9.25026 6.1454 8.75423 6.33821C8.24126 6.53748 7.80629 6.80426 7.37266 7.23789C6.93903 7.67152 6.67224 8.1065 6.47298 8.61947C6.28017 9.11562 6.1483 9.68258 6.1104 10.5128C6.0725 11.3447 6.06348 11.6104 6.06348 13.7287C6.06348 15.847 6.0725 16.1127 6.1104 16.9446C6.1483 17.7748 6.28017 18.3418 6.47298 18.838C6.67224 19.3509 6.93903 19.7859 7.37266 20.2195C7.80629 20.6532 8.24126 20.9198 8.75423 21.1192C9.25039 21.312 9.81735 21.4439 10.6476 21.4818C11.4795 21.5197 11.7452 21.5287 13.8635 21.5287C15.9818 21.5287 16.2475 21.5197 17.0794 21.4818C17.9096 21.4439 18.4766 21.312 18.9727 21.1192C19.4857 20.9198 19.9207 20.6532 20.3543 20.2195C20.7879 19.7859 21.0546 19.3509 21.254 18.838C21.4468 18.3418 21.5787 17.7748 21.6166 16.9446C21.6545 16.1127 21.6635 15.847 21.6635 13.7287C21.6635 11.6104 21.6545 11.3447 21.6166 10.5128C21.5787 9.68258 21.4468 9.11562 21.254 8.61947C21.0546 8.1065 20.7879 7.67152 20.3543 7.23789C19.9207 6.80426 19.4857 6.5376 18.9727 6.33821C18.4766 6.1454 17.9096 6.01354 17.0794 5.97563C16.2475 5.93773 15.9818 5.92871 13.8635 5.92871Z" fill="white"/>
</svg>
