<svg width="23" height="19" viewBox="0 0 23 19" fill="none" xmlns="http://www.w3.org/2000/svg">
<path d="M17.561 13.4268C18.4147 12.2317 19.183 10.8659 19.5244 9.41465C19.8659 8.04879 20.0366 6.68294 20.0366 5.31708C20.0366 5.14635 20.2074 5.14635 20.2927 5.06099C20.9756 4.54879 21.4878 3.95123 22 3.35367C22.0854 3.18294 22.0854 3.09757 22.0854 3.01221C22.0854 2.92684 22.0854 3.01221 22 3.01221C21.3171 3.35367 20.6342 3.5244 19.8659 3.60977C20.2074 3.5244 20.7195 2.92684 20.8903 2.67074C21.2317 2.32928 21.4878 1.81708 21.5732 1.39025V1.30489C21.4878 1.30489 21.4878 1.30489 21.4878 1.30489C20.7196 1.73172 19.8659 2.07318 18.9269 2.24391C18.8415 2.24391 18.8415 2.24391 18.7561 2.15855C18.6708 2.07318 18.5854 1.98782 18.5 1.90245C18.1586 1.56099 17.7317 1.30489 17.3049 1.13416C16.7074 0.87806 16.1098 0.792694 15.4269 0.792694C14.8293 0.792694 14.2317 1.04879 13.6342 1.30489C13.122 1.56099 12.6098 1.98782 12.183 2.50001C11.7561 3.01221 11.5 3.60977 11.3293 4.20733C11.1586 4.80489 11.1586 5.40245 11.2439 6.00001L8.51223 5.57318C6.20735 4.89025 4.15857 3.69513 2.45126 1.73172C2.36589 1.64635 2.28053 1.64635 2.19516 1.73172C1.17077 3.2683 1.68296 5.74391 2.96345 6.93904C3.13418 7.10977 3.30492 7.2805 3.47565 7.36586C3.39028 7.36586 2.53662 7.2805 1.76833 6.93904C1.68296 6.85367 1.5976 6.93904 1.5976 7.0244C1.5976 7.19513 1.5976 7.36587 1.5976 7.5366C1.76833 9.07318 2.87809 10.5244 4.32931 11.122C4.50004 11.2073 4.67077 11.2927 4.92687 11.2927C4.5854 11.3781 4.24394 11.3781 3.30491 11.3781C3.21955 11.3781 3.13418 11.3781 3.21955 11.5488C3.90248 13.5122 5.52443 14.1098 6.63418 14.4512C6.80491 14.4512 6.97565 14.4512 7.06101 14.5366C6.63418 15.1342 5.3537 15.561 4.67077 15.8171C3.56101 16.2439 2.28052 16.4146 1.0854 16.2439C0.914671 16.2439 0.829305 16.2439 0.829305 16.2439C0.743939 16.2439 0.829305 16.3293 0.914671 16.4146C1.0854 16.5 1.25613 16.6707 1.51223 16.7561C2.02443 17.0122 2.62199 17.3537 3.13418 17.5244C6.29272 18.6342 9.87809 18.6342 12.9513 17.2683C14.8293 16.3293 16.3659 14.9634 17.561 13.4268Z" fill="black"/>
<path fill-rule="evenodd" clip-rule="evenodd" d="M7.23171 18.2073C7.31708 18.2073 9.02439 18.2073 7.23171 18.2073V18.2073Z" fill="black"/>
<path fill-rule="evenodd" clip-rule="evenodd" d="M7.91468 18.2073C8.34151 18.2073 7.91468 18.122 7.91468 18.2073V18.2073Z" fill="black"/>
</svg>
