<svg width="27" height="27" viewBox="0 0 27 27" fill="none" xmlns="http://www.w3.org/2000/svg">
<path d="M18.2339 16.3745C18.868 15.4867 19.4387 14.4721 19.6924 13.394C19.9461 12.3794 20.0729 11.3647 20.0729 10.3501C20.0729 10.2233 20.1997 10.2233 20.2631 10.1599C20.7704 9.77938 21.1509 9.33548 21.5314 8.89157C21.5948 8.76474 21.5948 8.70133 21.5948 8.63792C21.5948 8.5745 21.5948 8.63792 21.5314 8.63792C21.0241 8.89157 20.5168 9.0184 19.9461 9.08182C20.1997 9.0184 20.5802 8.5745 20.707 8.38426C20.9607 8.1306 21.1509 7.75011 21.2143 7.43304V7.36962C21.1509 7.36962 21.1509 7.36962 21.1509 7.36962C20.5802 7.6867 19.9461 7.94035 19.2485 8.06718C19.1851 8.06718 19.1851 8.06718 19.1217 8.00377C19.0582 7.94035 18.9948 7.87694 18.9314 7.81353C18.6778 7.55987 18.3607 7.36962 18.0436 7.24279C17.5997 7.05255 17.1558 6.98914 16.6485 6.98914C16.2046 6.98914 15.7607 7.17938 15.3168 7.36962C14.9363 7.55987 14.5558 7.87694 14.2387 8.25743C13.9217 8.63792 13.7314 9.08182 13.6046 9.52572C13.4778 9.96962 13.4778 10.4135 13.5412 10.8574L11.5119 10.5404C9.79971 10.033 8.27776 9.14523 7.00947 7.6867C6.94605 7.62328 6.88264 7.62328 6.81922 7.6867C6.05825 8.82816 6.43873 10.6672 7.38995 11.555C7.51678 11.6818 7.64361 11.8086 7.77044 11.8721C7.70703 11.8721 7.07288 11.8086 6.50215 11.555C6.43873 11.4916 6.37532 11.555 6.37532 11.6184C6.37532 11.7452 6.37532 11.8721 6.37532 11.9989C6.50215 13.1404 7.32654 14.2184 8.40459 14.6623C8.53142 14.7257 8.65825 14.7891 8.84849 14.7891C8.59483 14.8526 8.34117 14.8525 7.64361 14.8525C7.5802 14.8525 7.51678 14.8525 7.5802 14.9794C8.08751 16.4379 9.29239 16.8818 10.1168 17.1355C10.2436 17.1355 10.3704 17.1355 10.4339 17.1989C10.1168 17.6428 9.16556 17.9599 8.65825 18.1501C7.83386 18.4672 6.88264 18.594 5.99483 18.4672C5.868 18.4672 5.80459 18.4672 5.80459 18.4672C5.74117 18.4672 5.80459 18.5306 5.868 18.594C5.99483 18.6574 6.12166 18.7843 6.3119 18.8477C6.69239 19.0379 7.13629 19.2916 7.51678 19.4184C9.86312 20.2428 12.5265 20.2428 14.8095 19.2282C16.2046 18.5306 17.3461 17.516 18.2339 16.3745Z" fill="white"/>
<path fill-rule="evenodd" clip-rule="evenodd" d="M10.5607 19.9257C10.6241 19.9257 11.8924 19.9257 10.5607 19.9257V19.9257Z" fill="white"/>
<path fill-rule="evenodd" clip-rule="evenodd" d="M11.068 19.9257C11.3851 19.9257 11.068 19.8623 11.068 19.9257V19.9257Z" fill="white"/>
</svg>
