<svg width="196" height="98" viewBox="0 0 196 98" fill="none" xmlns="http://www.w3.org/2000/svg">
<path d="M105.954 18.9009L107.823 18.9336L112.899 13.8572L113.144 11.7061C109.11 8.11767 103.802 5.9339 97.992 5.9339C87.4733 5.9339 78.5945 13.0912 75.9648 22.7866C76.5202 22.3995 77.7043 22.6886 77.7043 22.6886L87.8506 21.0194C87.8506 21.0194 88.3733 20.1537 88.6346 20.2076C90.8125 17.825 93.8175 16.3632 97.0363 16.1204C100.255 15.8776 103.445 16.872 105.956 18.9009H105.954Z" fill="#EA4335"/>
<path d="M120.049 22.8046C118.882 18.5133 116.489 14.6556 113.162 11.7045L105.972 18.8944C107.448 20.0803 108.639 21.5821 109.457 23.2891C110.275 24.9962 110.7 26.865 110.701 28.7581V30.0272C114.2 30.0272 117.038 32.8741 117.038 36.3645C117.038 39.855 114.191 42.7019 110.701 42.7019H98.023L96.7539 43.9759V51.5839L98.023 52.8465H110.701C115.067 52.8349 119.251 51.0944 122.337 48.006C125.424 44.9175 127.161 40.7324 127.17 36.3662C127.163 30.754 124.334 25.7822 120.032 22.8046H120.049Z" fill="#4285F4"/>
<path d="M85.3139 52.8579H97.9886V42.7117H85.3139C84.4138 42.7121 83.5242 42.5188 82.7055 42.1449L80.8761 42.7051L75.7997 47.7815L75.3555 49.4965C78.2116 51.6895 81.7146 52.8729 85.3155 52.8612L85.3139 52.8579Z" fill="#34A853"/>
<path d="M85.315 19.8859C80.9445 19.8928 76.755 21.632 73.6647 24.7224C70.5743 27.8128 68.835 32.0023 68.8281 36.3727C68.8281 38.9177 69.4181 41.428 70.5516 43.7065C71.6852 45.985 73.3316 47.9697 75.3615 49.5047L82.7115 42.1547C81.5981 41.6538 80.6532 40.842 79.9902 39.8168C79.3272 38.7917 78.9745 37.5968 78.9744 36.376C78.9744 32.8774 81.8213 30.0387 85.3117 30.0387C86.5321 30.0408 87.7261 30.3944 88.7509 31.0571C89.7756 31.7198 90.5879 32.6636 91.0905 33.7757L98.4405 26.4257C95.4253 22.4567 90.6658 19.8924 85.3085 19.8924L85.315 19.8859Z" fill="#FBBC05"/>
<path d="M19.5999 84.8304C16.1372 84.8304 13.1645 83.6054 10.659 81.1554C8.15348 78.7054 6.90234 75.7589 6.90234 72.3224C6.90234 68.8858 8.15184 65.9393 10.659 63.4893C13.1662 61.0393 16.1421 59.8127 19.5999 59.8127C21.1861 59.7896 22.761 60.0824 24.2329 60.6741C25.7049 61.2658 27.0443 62.1445 28.1732 63.259L25.7608 65.6714C24.11 64.0752 21.8944 63.1973 19.5982 63.2296C17.0992 63.2296 14.9759 64.1116 13.2348 65.887C12.3877 66.7282 11.7199 67.7322 11.2716 68.8385C10.8233 69.9448 10.6038 71.1305 10.6263 72.324C10.6263 74.8491 11.492 76.9904 13.2348 78.7593C14.0538 79.6186 15.0422 80.2985 16.1376 80.7559C17.233 81.2134 18.4114 81.4384 19.5982 81.4168C22.143 81.4168 24.2451 80.6001 25.9192 78.9112C26.8992 77.9312 27.5526 76.4612 27.7812 74.6074H19.6048V71.1905H31.11C31.2325 71.7981 31.2733 72.4971 31.2733 73.3138C31.2733 76.6719 30.2884 79.3343 28.3121 81.309C26.0711 83.6528 23.1671 84.8206 19.5819 84.8206L19.5999 84.8304ZM46.3375 82.5438C44.7695 84.0791 42.8585 84.8304 40.6013 84.8304C38.344 84.8304 36.4297 84.0628 34.865 82.5438C33.3003 81.0248 32.5163 79.0925 32.5163 76.7944C32.5163 74.4963 33.3003 72.5804 34.865 71.0451C36.4297 69.5098 38.344 68.7584 40.6013 68.7584C42.8585 68.7584 44.7728 69.5261 46.3375 71.0451C47.9023 72.5641 48.6863 74.5012 48.6863 76.7944C48.6863 79.0876 47.9023 81.0084 46.3375 82.5438ZM37.3967 80.2898C37.8042 80.7326 38.3001 81.0849 38.8525 81.3237C39.4048 81.5626 40.0012 81.6828 40.6029 81.6765C41.8442 81.6765 42.9124 81.2159 43.8091 80.2881C44.7058 79.3604 45.1517 78.1975 45.1517 76.7928C45.1517 75.3718 44.7107 74.1991 43.8238 73.2811C42.9369 72.3632 41.8671 71.9091 40.6029 71.9091C39.9999 71.8999 39.4017 72.0172 38.8469 72.2535C38.2921 72.4899 37.7931 72.8399 37.382 73.2811C36.4951 74.1958 36.0541 75.3653 36.0541 76.7928C36.0541 78.1942 36.5 79.362 37.3967 80.2881V80.2898ZM63.9759 82.5438C62.4079 84.0791 60.4969 84.8304 58.2396 84.8304C55.9824 84.8304 54.0681 84.0628 52.5034 82.5438C50.9386 81.0248 50.1546 79.0925 50.1546 76.7944C50.1546 74.4963 50.9386 72.5804 52.5034 71.0451C54.0681 69.5098 55.9824 68.7584 58.2396 68.7584C60.4969 68.7584 62.4112 69.5261 63.9759 71.0451C65.5406 72.5641 66.3246 74.5012 66.3246 76.7944C66.3246 79.0876 65.5406 81.0084 63.9759 82.5438ZM55.035 80.2898C55.4425 80.7326 55.9385 81.0849 56.4908 81.3237C57.0432 81.5626 57.6395 81.6828 58.2413 81.6765C59.4826 81.6765 60.5508 81.2159 61.4475 80.2881C62.3442 79.3604 62.7901 78.1975 62.7901 76.7928C62.7901 75.3718 62.3491 74.1991 61.4622 73.2811C60.5753 72.3632 59.5055 71.9091 58.2413 71.9091C57.6383 71.8999 57.0401 72.0172 56.4853 72.2535C55.9305 72.4899 55.4314 72.8399 55.0203 73.2811C54.1334 74.1958 53.6924 75.3653 53.6924 76.7928C53.6924 78.1942 54.1383 79.362 55.035 80.2881V80.2898ZM75.5709 92.0824C73.7824 92.0824 72.2765 91.6022 71.0564 90.6451C69.8363 89.688 68.9625 88.5806 68.4333 87.3164L71.517 86.0375C71.8404 86.8117 72.3337 87.483 73.0409 88.053C73.7481 88.623 74.5762 88.9056 75.5758 88.9056C76.9184 88.9056 77.9736 88.4973 78.7331 87.6855C79.4926 86.8737 79.8764 85.6994 79.8764 84.1738V83.0305H79.7539C78.7739 84.2506 77.3415 84.8631 75.5138 84.8631C73.4591 84.8631 71.6591 84.0791 70.1123 82.5144C69.361 81.7747 68.7679 80.89 68.3692 79.914C67.9705 78.938 67.7744 77.8911 67.793 76.8369C67.7741 75.7761 67.9699 74.7225 68.3684 73.7393C68.767 72.7561 69.3602 71.8635 70.1123 71.1153C71.6558 69.5424 73.4607 68.7519 75.5138 68.7519C76.4285 68.7519 77.2582 68.9234 77.9997 69.2713C78.7412 69.6192 79.3276 70.0455 79.7539 70.5502H79.8764V69.2533H83.2345V83.7198C83.2345 86.5291 82.5191 88.6263 81.0818 90.0244C79.6445 91.4128 77.8119 92.1151 75.5726 92.1151L75.5709 92.0824ZM75.8159 81.6748C76.3982 81.6851 76.9755 81.5661 77.5062 81.3263C78.037 81.0865 78.5079 80.7319 78.885 80.2881C79.7082 79.362 80.1198 78.2089 80.1198 76.8222C80.1198 75.4208 79.7082 74.2481 78.885 73.3105C78.51 72.8632 78.0399 72.5052 77.5089 72.2628C76.978 72.0203 76.3996 71.8995 75.8159 71.9091C74.5746 71.9091 73.5162 72.3795 72.644 73.3105C71.7718 74.2415 71.3308 75.4143 71.3308 76.8222C71.3308 78.204 71.7669 79.362 72.644 80.2881C73.5211 81.2142 74.5762 81.6765 75.8159 81.6765V81.6748ZM89.2125 60.662V84.3453H85.6731V60.662H89.2125ZM98.9145 84.8288C96.6344 84.8288 94.7332 84.0546 93.2077 82.5095C91.6822 80.9643 90.9177 79.0533 90.9177 76.7732C90.9177 74.4147 91.6527 72.4775 93.1293 70.9749C93.822 70.2459 94.6583 69.6687 95.5855 69.2796C96.5127 68.8905 97.5106 68.698 98.516 68.7143C99.4911 68.7143 100.399 68.8907 101.232 69.2484C102.007 69.5658 102.711 70.0319 103.307 70.6204C103.803 71.1145 104.243 71.6617 104.62 72.2521C104.931 72.7567 105.197 73.288 105.414 73.8397L105.781 74.7544L95.0109 79.2167C95.8275 80.8435 97.1342 81.6585 98.9178 81.6585C100.545 81.6585 101.869 80.9186 102.884 79.4323L105.628 81.2649C105.015 82.1795 104.153 83.0044 103.034 83.7361C101.915 84.4678 100.538 84.8304 98.9113 84.8304L98.9145 84.8288ZM94.4294 76.5315L101.616 73.5425C101.41 73.0329 101.038 72.6213 100.473 72.3077C99.9045 71.9893 99.262 71.827 98.6107 71.8373C97.5719 71.8373 96.6017 72.2619 95.6985 73.1162C94.7953 73.9704 94.3592 75.1121 94.4 76.5331L94.4294 76.5315ZM124.368 84.8288C121.151 84.8288 118.456 83.741 116.28 81.5621C114.105 79.3833 113.013 76.6703 113.013 73.4151C113.013 70.1598 114.101 67.4436 116.28 65.268C118.459 63.0924 121.152 62.0013 124.368 62.0013C127.663 62.0013 130.34 63.1937 132.393 65.5702L130.441 67.4648C128.971 65.6126 126.929 64.6882 124.365 64.6882C121.98 64.6882 119.978 65.4918 118.322 67.1006C116.666 68.7094 115.865 70.8115 115.865 73.4151C115.865 76.0186 116.682 78.1256 118.322 79.7361C119.962 81.3465 121.969 82.1485 124.365 82.1485C126.988 82.1485 129.228 81.0901 131.062 78.9766L133.014 80.9284C131.991 82.1488 130.707 83.124 129.257 83.7818C127.719 84.4893 126.043 84.8474 124.35 84.8304L124.368 84.8288ZM138.343 84.3453H135.534V62.4962H138.343V84.3453ZM142.921 71.1807C144.367 69.6666 146.188 68.9054 148.445 68.9054C150.703 68.9054 152.524 69.6649 153.969 71.1807C155.415 72.6964 156.137 74.6107 156.137 76.8728C156.137 79.135 155.418 81.0493 153.969 82.565C152.521 84.0807 150.703 84.8402 148.445 84.8402C146.188 84.8402 144.367 84.0807 142.921 82.565C141.476 81.0493 140.754 79.135 140.754 76.8728C140.754 74.6107 141.473 72.6964 142.921 71.1807ZM145.012 80.7896C145.992 81.7745 147.126 82.2694 148.442 82.2694C149.759 82.2694 150.892 81.7745 151.872 80.7896C152.852 79.8047 153.323 78.4947 153.323 76.8696C153.323 75.2444 152.837 73.9328 151.872 72.9496C150.907 71.9663 149.759 71.4698 148.442 71.4698C147.126 71.4698 145.992 71.9647 145.012 72.9496C144.032 73.9345 143.562 75.2444 143.562 76.8696C143.562 78.4947 144.047 79.8063 145.012 80.7896ZM171.668 84.3453H168.981V82.271H168.859C168.434 82.9815 167.781 83.5891 166.907 84.0677C166.033 84.5462 165.11 84.819 164.13 84.819C162.257 84.819 160.841 84.2506 159.875 83.1089C158.91 81.9672 158.425 80.4417 158.425 78.5307V69.3742H161.234V78.0701C161.234 80.8598 162.464 82.2514 164.926 82.2514C165.477 82.263 166.022 82.1417 166.516 81.8978C167.011 81.6539 167.439 81.2944 167.764 80.85C168.491 79.9292 168.878 78.7869 168.862 77.6144V69.3742H171.671V84.3306L171.668 84.3453ZM181.187 84.8304C179.255 84.8304 177.584 84.066 176.183 82.5405C174.781 81.015 174.079 79.1236 174.079 76.863C174.079 74.6025 174.781 72.7111 176.183 71.1856C177.584 69.66 179.257 68.8956 181.187 68.8956C182.324 68.8956 183.35 69.1406 184.258 69.6257C185.166 70.1108 185.842 70.7233 186.288 71.4583H186.411L186.288 69.384V62.4913H189.097V84.3453H186.411V82.271H186.288C185.842 83.0011 185.166 83.6136 184.258 84.1036C183.351 84.5838 182.326 84.8288 181.187 84.8288V84.8304ZM181.645 82.2661C182.278 82.2747 182.907 82.1485 183.488 81.896C184.07 81.6434 184.591 81.2702 185.017 80.801C185.943 79.8259 186.406 78.5111 186.406 76.881C186.406 75.2509 185.945 73.9198 185.017 72.961C184.591 72.4918 184.07 72.1186 183.488 71.866C182.907 71.6134 182.278 71.4873 181.645 71.4959C180.341 71.4959 179.222 71.9908 178.286 72.9757C177.35 73.9606 176.885 75.2705 176.885 76.8957C176.885 78.5209 177.35 79.8324 178.286 80.8157C178.709 81.2865 179.227 81.6619 179.806 81.9171C180.385 82.1722 181.012 82.3012 181.645 82.2955V82.2661Z" fill="#5F6368"/>
</svg>
