<svg width="146" height="74" viewBox="0 0 146 74" fill="none" xmlns="http://www.w3.org/2000/svg">
<g clip-path="url(#clip0_4089_40980)">
<path fill-rule="evenodd" clip-rule="evenodd" d="M0 73.0767H73.7831L146 0.910095H0V73.0767Z" fill="url(#paint0_linear_4089_40980)"/>
<path fill-rule="evenodd" clip-rule="evenodd" d="M86.6434 14.4773H72.2739V48.6196L59.7172 14.4729H47.2704L36.5483 43.023C35.4132 35.8261 27.96 33.351 22.0952 31.4737C18.2147 30.2339 14.1186 28.3963 14.1757 26.3827C14.2021 24.7253 16.3756 23.1865 20.6785 23.4195C23.5691 23.5734 26.1254 23.802 31.1894 26.2508L36.1743 17.5636C31.0915 15.116 25.5369 13.802 19.8954 13.7123H19.8602C13.7446 13.7123 8.64531 15.6995 5.49072 18.9572C3.30431 21.2004 2.07002 24.2011 2.04574 27.3323C1.96655 31.7287 3.58124 34.8633 6.98662 37.3605C9.84643 39.4619 13.5202 40.8248 16.754 41.8316C20.7401 43.0626 23.9959 44.1353 23.9563 46.4258C23.939 47.2634 23.604 48.0632 23.0192 48.6636C22.0204 49.6923 20.4937 50.0792 18.3863 50.1188C14.3077 50.2023 11.2895 49.5648 6.50705 46.7248L2.06774 55.5175C7.03236 58.3317 12.6389 59.8201 18.3467 59.8392H19.0946C24.1411 59.7512 28.2108 58.3048 31.4666 55.6934C31.6426 55.5483 31.8186 55.3944 31.9902 55.2537L30.5515 59.105H43.557L45.7569 52.4445C50.6811 54.0409 55.9812 54.0624 60.9183 52.506L63.0301 59.1006H84.3159V45.3135H88.962C100.181 45.3135 106.829 39.5982 106.829 30.0317C106.834 19.3749 100.379 14.4773 86.6434 14.4773ZM53.43 43.7001C51.8625 43.7061 50.3067 43.4306 48.8367 42.8867L53.3948 28.5281H53.4872L57.9529 42.9263C56.5019 43.4457 54.9712 43.7075 53.43 43.7001ZM87.4881 35.4437H84.3203V23.868H87.4881C91.7119 23.868 95.0732 25.2704 95.0732 29.5833C95.0732 34.0368 91.7119 35.4393 87.4881 35.4393" fill="white"/>
<path d="M91.4455 68.399C91.4671 67.6533 91.7079 66.9305 92.1379 66.3208C92.568 65.711 93.1682 65.2413 93.8636 64.9702C94.5591 64.6991 95.3191 64.6386 96.0487 64.7963C96.7784 64.9539 97.4454 65.3228 97.9666 65.8568C98.4879 66.3909 98.8402 67.0664 98.9796 67.7993C99.1191 68.5321 99.0396 69.2897 98.7509 69.9777C98.4622 70.6656 97.9773 71.2534 97.3565 71.6677C96.7357 72.082 96.0065 72.3044 95.26 72.3073C94.75 72.3105 94.2445 72.2109 93.7739 72.0144C93.3033 71.8179 92.8771 71.5285 92.521 71.1637C92.1649 70.7988 91.8861 70.3659 91.7013 69.8908C91.5165 69.4158 91.4295 68.9084 91.4455 68.399ZM95.26 73.0899C96.1833 73.076 97.0818 72.7899 97.8429 72.2675C98.6039 71.745 99.1935 71.0095 99.5377 70.1534C99.8818 69.2972 99.9652 68.3585 99.7772 67.4552C99.5892 66.5518 99.1384 65.7241 98.4812 65.076C97.8241 64.4279 96.9899 63.9882 96.0836 63.8121C95.1772 63.6361 94.2389 63.7316 93.3867 64.0866C92.5344 64.4416 91.8061 65.0403 91.2932 65.8076C90.7804 66.5748 90.5058 67.4763 90.5039 68.399C90.5021 69.0207 90.6243 69.6366 90.8635 70.2106C91.1026 70.7845 91.4538 71.3051 91.8967 71.7419C92.3395 72.1787 92.865 72.5228 93.4425 72.7543C94.02 72.9857 94.6379 73.0998 95.26 73.0899ZM94.2657 68.7683H95.2072L96.6283 71.1027H97.5479L96.008 68.7287C96.7999 68.6364 97.4115 68.2099 97.4115 67.2427C97.4115 66.1832 96.7779 65.7084 95.5064 65.7084H93.4473V71.1027H94.2657V68.7683ZM94.2657 68.0692V66.4162H95.3832C95.942 66.4162 96.5491 66.5349 96.5491 67.2075C96.5491 68.0429 95.9332 68.0868 95.2292 68.0868L94.2657 68.0692Z" fill="#225FBC"/>
</g>
<defs>
<linearGradient id="paint0_linear_4089_40980" x1="73" y1="73.1822" x2="73" y2="1.01121" gradientUnits="userSpaceOnUse">
<stop stop-color="#225FBC"/>
<stop offset="1" stop-color="#1FB2F0"/>
</linearGradient>
<clipPath id="clip0_4089_40980">
<rect width="146" height="72.1798" fill="white" transform="translate(0 0.910095)"/>
</clipPath>
</defs>
</svg>
