<svg width="133" height="79" viewBox="0 0 133 79" fill="none" xmlns="http://www.w3.org/2000/svg">
<g clip-path="url(#clip0_4089_40992)">
<path d="M37.4814 28.6912C37.4814 30.317 37.6573 31.6353 37.968 32.6019C38.3607 33.6896 38.8337 34.747 39.3831 35.7655C39.5802 36.0665 39.6877 36.4167 39.6932 36.7758C39.6932 37.2154 39.4277 37.6545 38.8526 38.0941L36.0657 39.9394C35.6676 40.2031 35.2696 40.3347 34.9155 40.3347C34.4735 40.3347 34.0309 40.1152 33.5889 39.7198C32.9926 39.0836 32.4592 38.392 31.9961 37.6544C31.5541 36.9074 31.1115 36.0729 30.6249 35.0621C27.1744 39.1044 22.8395 41.1255 17.6202 41.1255C13.9041 41.1255 10.9407 40.071 8.77347 37.9619C6.6062 35.8528 5.5 33.041 5.5 29.5262C5.5 25.7914 6.82662 22.7594 9.52501 20.4751C12.2234 18.1908 15.8064 17.0477 20.3625 17.0477C21.8668 17.0477 23.415 17.1793 25.0523 17.3971C26.6896 17.6149 28.3697 17.9683 30.139 18.3637V15.1582C30.1384 11.8205 29.429 9.49135 28.0596 8.12821C26.6439 6.76623 24.255 6.10708 20.8491 6.10708C19.2394 6.10707 17.6356 6.29885 16.0719 6.6783C14.446 7.06354 12.8496 7.56285 11.2948 8.17246C10.7917 8.39589 10.2746 8.5867 9.7466 8.74369C9.43649 8.83162 9.21548 8.87529 9.03844 8.87529C8.41939 8.87529 8.10987 8.43624 8.10987 7.51331V5.35883C8.10987 4.65542 8.19839 4.12845 8.41939 3.821C8.6404 3.51355 9.03844 3.20552 9.65808 2.89807C11.2065 2.10732 13.0642 1.44836 15.2313 0.921189C17.3992 0.349379 19.6977 0.0879305 22.1317 0.0879305C27.396 0.0879305 31.244 1.27406 33.7214 3.64689C36.1542 6.01973 37.3929 9.62237 37.3929 14.4554V28.6912H37.4814ZM19.5219 35.3695C20.9822 35.3695 22.4858 35.1063 24.078 34.5788C25.6702 34.0512 27.0865 33.0852 28.2806 31.7669C28.9882 30.9319 29.5193 30.0096 29.7843 28.955C30.0493 27.9005 30.2269 26.6259 30.2269 25.1323V23.287C28.8855 22.9627 27.5268 22.7133 26.1573 22.5399C24.7782 22.3659 23.3895 22.2778 21.9993 22.2761C19.0353 22.2761 16.868 22.8474 15.4083 24.0341C13.9486 25.2208 13.2393 26.8873 13.2393 29.0866C13.2393 31.152 13.7669 32.6898 14.8761 33.7449C15.9371 34.8432 17.4853 35.3701 19.5201 35.3701L19.5219 35.3695ZM55.0423 40.1152C54.2462 40.1152 53.7151 39.983 53.3616 39.6756C53.0099 39.4118 52.698 38.7969 52.4324 37.9619L42.0375 3.9986C41.772 3.11934 41.6395 2.54811 41.6395 2.24066C41.6395 1.53784 41.9912 1.14246 42.7011 1.14246H47.0357C47.8763 1.14246 48.4514 1.27406 48.7609 1.58151C49.1127 1.84529 49.3806 2.46077 49.6455 3.29519L57.0771 32.3818L63.9775 3.29519C64.1991 2.41651 64.4641 1.84529 64.8182 1.58151C65.1722 1.31773 65.7913 1.14246 66.5874 1.14246H70.1264C70.9665 1.14246 71.5416 1.27406 71.8956 1.58151C72.2474 1.84529 72.5592 2.46077 72.7363 3.29519L79.727 32.7335L87.3778 3.29519C87.6428 2.41651 87.9529 1.84529 88.2624 1.58151C88.6141 1.31831 89.191 1.14246 89.9877 1.14246H94.1012C94.8087 1.14246 95.2068 1.49183 95.2068 2.24066C95.2068 2.46077 95.1628 2.68029 95.1189 2.94407C95.0492 3.31871 94.9454 3.68629 94.8088 4.04227L84.1483 38.0062C83.8833 38.8846 83.5738 39.4559 83.2197 39.7198C82.868 39.983 82.2906 40.1589 81.5384 40.1589H77.7338C76.8938 40.1589 76.3187 40.0273 75.9646 39.7198C75.6105 39.4124 75.301 38.8412 75.124 37.9619L68.2651 9.62237L61.4532 37.9182C61.2322 38.7969 60.9667 39.3681 60.6132 39.6756C60.2597 39.983 59.6395 40.1152 58.8434 40.1152H55.0423ZM111.884 41.3013C109.59 41.3037 107.303 41.0383 105.071 40.5106C102.859 39.983 101.135 39.4118 99.9845 38.7532C99.2764 38.3573 98.7898 37.9182 98.6133 37.5229C98.4411 37.1351 98.3507 36.7163 98.3478 36.2925V34.0518C98.3478 33.1289 98.6995 32.6898 99.3649 32.6898C99.6358 32.6906 99.9049 32.7351 100.162 32.8214C100.427 32.9094 100.825 33.0852 101.267 33.2611C102.83 33.9433 104.461 34.4588 106.133 34.7989C107.866 35.147 109.629 35.3225 111.397 35.323C114.183 35.323 116.351 34.8397 117.855 33.8731C119.359 32.9064 120.155 31.5002 120.155 29.6992C120.155 28.4688 119.757 27.4579 118.961 26.6235C118.165 25.7891 116.659 25.0444 114.494 24.3398L108.079 22.36C104.85 21.3497 102.461 19.8561 101.002 17.8763C99.5419 15.9431 98.7898 13.7898 98.7898 11.5055C98.7898 9.65963 99.188 8.03388 99.9845 6.62823C100.774 5.21461 101.86 3.98586 103.169 3.02501C104.496 2.01473 106 1.26765 107.77 0.740679C109.539 0.213705 111.397 4.56127e-06 113.343 4.56127e-06C114.334 -0.00771203 115.324 0.0506483 116.307 0.174692C117.325 0.30629 118.254 0.482142 119.18 0.657994C120.064 0.877517 120.905 1.09704 121.701 1.36082C122.496 1.6246 123.116 1.88838 123.558 2.15157C124.178 2.50095 124.62 2.85498 124.886 3.25035C125.151 3.59973 125.284 4.08303 125.284 4.70026V6.76623C125.284 7.68916 124.932 8.17246 124.266 8.17246C123.914 8.17246 123.337 7.99777 122.585 7.64491C120.064 6.50323 117.233 5.93219 114.092 5.93181C111.571 5.93181 109.578 6.32718 108.209 7.1616C106.84 7.99603 106.13 9.27066 106.13 11.0723C106.13 12.3027 106.572 13.3572 107.457 14.1916C108.342 15.026 109.978 15.8616 112.323 16.6087L118.604 18.5856C121.789 19.5964 124.089 21.0021 125.463 22.8037C126.836 24.6053 127.498 26.6701 127.498 28.955C127.498 30.844 127.1 32.5577 126.348 34.0518C125.551 35.5454 124.49 36.8637 123.119 37.9182C121.747 39.0164 120.111 39.8078 118.208 40.3784C116.215 40.9939 114.139 41.3013 111.883 41.3013H111.884Z" fill="#252F3E"/>
<path d="M120.245 62.6545C105.692 73.3314 84.5472 78.9995 66.3673 78.9995C40.8883 78.9995 17.9306 69.6409 0.593027 54.0867C-0.778149 52.8563 0.460541 51.1869 2.09728 52.1535C20.8523 62.962 43.987 69.5087 67.9178 69.5087C84.063 69.5087 101.802 66.1693 118.124 59.3151C120.557 58.2169 122.638 60.8972 120.247 62.6545H120.245Z" fill="#FF9900"/>
<path d="M126.304 55.801C124.446 53.4281 114.007 54.6585 109.274 55.2297C107.858 55.4044 107.637 54.1752 108.922 53.2499C117.239 47.4503 130.906 49.1198 132.499 51.053C134.092 53.0328 132.057 66.6071 124.272 73.1102C123.077 74.1204 121.927 73.5935 122.458 72.2752C124.225 67.9278 128.162 58.1295 126.304 55.801Z" fill="#FF9900"/>
</g>
<defs>
<clipPath id="clip0_4089_40992">
<rect width="133" height="79" fill="white"/>
</clipPath>
</defs>
</svg>
