<svg width="89" height="131" viewBox="0 0 89 131" fill="none" xmlns="http://www.w3.org/2000/svg">
<g clip-path="url(#clip0_13_1980)">
<path d="M53.198 34.467V30.203H62.335C62.8426 30.203 63.3503 30.4569 63.7056 30.9137L65.8883 34.467H53.198ZM59.9492 52.1827C58.2233 52.1827 56.802 50.8122 56.802 49.0355C56.802 47.3096 58.1726 45.8883 59.9492 45.8883C61.6751 45.8883 63.0964 47.2589 63.0964 49.0355C63.0457 50.8122 61.6751 52.1827 59.9492 52.1827ZM45.0254 29.9492L36.2944 38.731C35.736 39.2893 34.8223 39.3909 34.1624 38.7817L29.2386 34.3655C28.5787 33.8071 28.5279 32.7919 29.0863 32.2335C29.6447 31.5736 30.6599 31.5228 31.2183 32.0812L31.269 32.132L35.0761 35.533L42.7919 27.8173C43.4518 27.2589 44.4162 27.2589 44.9239 27.868C45.5838 28.4772 45.5838 29.3909 45.0254 29.9492ZM32.2843 52.1827C30.5584 52.1827 29.1371 50.8122 29.1371 49.0355C29.1371 47.3096 30.5076 45.8883 32.2843 45.8883C34.0102 45.8883 35.4315 47.2589 35.4315 49.0355C35.4315 50.8122 34.0102 52.1827 32.2843 52.1827ZM69.8477 35.1269L66.2944 29.2386C65.4315 27.868 63.9594 27.0558 62.4365 27.1066H53.198V24.1117C53.198 21.8274 51.3198 20 49.0863 20H24.1117C21.8782 20 20 21.8782 20 24.1117V46.4975C20 48.7817 21.8782 50.6091 24.1117 50.6091H26.2437C27.1574 53.9594 30.4569 55.9898 33.8071 55.0761C35.9898 54.5178 37.7665 52.7919 38.2741 50.6091H53.8071C54.7208 53.9594 58.0203 55.9898 61.3706 55.0761C63.5533 54.5178 65.3299 52.7919 65.8376 50.6091H68.4772C69.3909 50.6091 70.0508 49.9492 70.0508 49.0355V35.9391C70 35.6345 69.8985 35.3807 69.8477 35.1269Z" fill="black"/>
</g>
<g clip-path="url(#clip1_13_1980)">
<path d="M53.198 94.467V90.203H62.335C62.8426 90.203 63.3503 90.4569 63.7056 90.9137L65.8883 94.467H53.198ZM59.9492 112.183C58.2233 112.183 56.802 110.812 56.802 109.036C56.802 107.31 58.1726 105.888 59.9492 105.888C61.6751 105.888 63.0964 107.259 63.0964 109.036C63.0457 110.812 61.6751 112.183 59.9492 112.183ZM45.0254 89.9492L36.2944 98.731C35.736 99.2893 34.8223 99.3909 34.1624 98.7817L29.2386 94.3655C28.5787 93.8071 28.5279 92.7919 29.0863 92.2335C29.6447 91.5736 30.6599 91.5228 31.2183 92.0812L31.269 92.132L35.0761 95.533L42.7919 87.8173C43.4518 87.2589 44.4162 87.2589 44.9239 87.868C45.5838 88.4772 45.5838 89.3909 45.0254 89.9492ZM32.2843 112.183C30.5584 112.183 29.1371 110.812 29.1371 109.036C29.1371 107.31 30.5076 105.888 32.2843 105.888C34.0102 105.888 35.4315 107.259 35.4315 109.036C35.4315 110.812 34.0102 112.183 32.2843 112.183ZM69.8477 95.1269L66.2944 89.2386C65.4315 87.868 63.9594 87.0558 62.4365 87.1066H53.198V84.1117C53.198 81.8274 51.3198 80 49.0863 80H24.1117C21.8782 80 20 81.8782 20 84.1117V106.497C20 108.782 21.8782 110.609 24.1117 110.609H26.2437C27.1574 113.959 30.4569 115.99 33.8071 115.076C35.9898 114.518 37.7665 112.792 38.2741 110.609H53.8071C54.7208 113.959 58.0203 115.99 61.3706 115.076C63.5533 114.518 65.3299 112.792 65.8376 110.609H68.4772C69.3909 110.609 70.0508 109.949 70.0508 109.036V95.9391C70 95.6345 69.8985 95.3807 69.8477 95.1269Z" fill="white"/>
</g>
<rect x="0.5" y="0.5" width="88" height="130" rx="4.5" stroke="#7B61FF" stroke-dasharray="10 5"/>
<defs>
<clipPath id="clip0_13_1980">
<rect width="50" height="35.33" fill="white" transform="translate(20 20)"/>
</clipPath>
<clipPath id="clip1_13_1980">
<rect width="50" height="35.3299" fill="white" transform="translate(20 80)"/>
</clipPath>
</defs>
</svg>
