<svg width="79" height="136" viewBox="0 0 79 136" fill="none" xmlns="http://www.w3.org/2000/svg">
<g clip-path="url(#clip0_13_2004)">
<path d="M57.0418 43.7085H50.0107C48.2529 43.7085 46.8382 42.2508 46.8382 40.5359C46.8382 38.821 48.2958 37.3633 50.0107 37.3633H57.0418V43.7085ZM23.0011 25.1876C23.0011 23.9443 24.03 23.0011 25.2304 23.0011H47.8671C48.9389 23.0011 49.7964 23.8585 49.7964 24.8875V27.4169H25.1876C23.9871 27.4169 23.0011 26.388 23.0011 25.1876ZM57.2562 34.4051H57.0418V32.3044C57.0418 29.8607 55.1983 27.8028 52.7974 27.4598V24.8875C52.7974 22.1865 50.5681 20 47.8671 20H25.1876C22.4009 20 20.0429 22.2294 20 25.1018V49.0246C20 51.6827 22.2294 53.8692 24.8875 53.8692H52.1543C54.8553 53.8692 57.0418 51.6827 57.0418 48.9818V46.6667H57.2562C58.7996 46.6667 60.0429 45.4234 60.0429 43.9228V37.149C60 35.6484 58.7996 34.4051 57.2562 34.4051Z" fill="black"/>
<path d="M53.0119 40.5359C53.0119 41.6935 52.0687 42.6367 50.8682 42.6367C49.7107 42.6367 48.7246 41.6935 48.7246 40.5359C48.7246 39.3784 49.6678 38.4352 50.8682 38.4352C52.0258 38.4352 53.0119 39.3784 53.0119 40.5359Z" fill="black"/>
</g>
<g clip-path="url(#clip1_13_2004)">
<path d="M57.0418 103.708H50.0107C48.2529 103.708 46.8382 102.251 46.8382 100.536C46.8382 98.821 48.2958 97.3633 50.0107 97.3633H57.0418V103.708ZM23.0011 85.1876C23.0011 83.9443 24.03 83.0011 25.2304 83.0011H47.8671C48.9389 83.0011 49.7964 83.8585 49.7964 84.8875V87.4169H25.1876C23.9871 87.4169 23.0011 86.388 23.0011 85.1876ZM57.2562 94.4051H57.0418V92.3044C57.0418 89.8607 55.1983 87.8028 52.7974 87.4598V84.8875C52.7974 82.1865 50.5681 80 47.8671 80H25.1876C22.4009 80 20.0429 82.2294 20 85.1018V109.025C20 111.683 22.2294 113.869 24.8875 113.869H52.1543C54.8553 113.869 57.0418 111.683 57.0418 108.982V106.667H57.2562C58.7996 106.667 60.0429 105.423 60.0429 103.923V97.149C60 95.6484 58.7996 94.4051 57.2562 94.4051Z" fill="white"/>
<path d="M53.0119 100.536C53.0119 101.693 52.0687 102.637 50.8682 102.637C49.7107 102.637 48.7246 101.693 48.7246 100.536C48.7246 99.3784 49.6678 98.4352 50.8682 98.4352C52.0258 98.4352 53.0119 99.3784 53.0119 100.536Z" fill="white"/>
</g>
<rect x="0.5" y="0.5" width="78" height="135" rx="4.5" stroke="#7B61FF" stroke-dasharray="10 5"/>
<defs>
<clipPath id="clip0_13_2004">
<rect width="40" height="33.8692" fill="white" transform="translate(20 20)"/>
</clipPath>
<clipPath id="clip1_13_2004">
<rect width="40" height="33.8692" fill="white" transform="translate(20 80)"/>
</clipPath>
</defs>
</svg>
