<svg width="81" height="140" viewBox="0 0 81 140" fill="none" xmlns="http://www.w3.org/2000/svg">
<g clip-path="url(#clip0_13_1785)">
<path d="M36.6022 58.7386C35.7884 58.7386 35.0967 58.0875 35.0967 57.233C35.0967 56.4192 35.7477 55.7274 36.6022 55.7274C37.4161 55.7274 38.1078 56.3785 38.1078 57.233C38.1078 58.0468 37.4161 58.7386 36.6022 58.7386ZM37.2533 54.5474V44.293C37.2533 43.9268 36.9685 43.642 36.6022 43.642H32.3703C32.0041 43.642 31.7192 43.9268 31.7192 44.293C31.7192 44.6593 32.0041 44.9441 32.3703 44.9441H35.9919V54.5474C34.7711 54.8322 33.8759 55.9309 33.8759 57.233C33.8759 58.7386 35.1373 60.0001 36.6429 60.0001C38.1892 60.0001 39.41 58.7793 39.41 57.233C39.3693 55.9309 38.4741 54.8322 37.2533 54.5474Z" fill="black"/>
<path d="M43.4384 58.7386C42.6245 58.7386 41.9328 58.0875 41.9328 57.233C41.9328 56.4192 42.5838 55.7274 43.4384 55.7274C44.2522 55.7274 44.9439 56.3785 44.9439 57.233C44.9033 58.0468 44.2522 58.7386 43.4384 58.7386ZM44.0487 54.5474V44.293C44.0487 43.9268 43.7639 43.642 43.3977 43.642H39.1657C38.7995 43.642 38.5146 43.9268 38.5146 44.293C38.5146 44.6593 38.7995 44.9441 39.1657 44.9441H42.7873V54.5474C41.5665 54.8322 40.6713 55.9309 40.6713 57.233C40.6713 58.7386 41.9328 60.0001 43.4384 60.0001C44.9846 60.0001 46.2054 58.7793 46.2054 57.233C46.2054 55.9309 45.2695 54.8322 44.0487 54.5474Z" fill="black"/>
<path d="M54.9136 54.466C54.0998 54.466 53.408 53.8149 53.408 52.9604C53.408 52.1465 54.0591 51.4548 54.9136 51.4548C55.7275 51.4548 56.4192 52.1059 56.4192 52.9604C56.4192 53.8149 55.7682 54.466 54.9136 54.466ZM54.9136 50.1933C53.6115 50.1933 52.5128 51.0886 52.228 52.3093H50.8852V44.293C50.8852 43.9268 50.6003 43.642 50.2341 43.642H46.0021C45.6359 43.642 45.3511 43.9268 45.3511 44.293C45.3511 44.6593 45.6359 44.9441 46.0021 44.9441H49.6237V52.9604C49.6237 53.3266 49.9086 53.6114 50.2748 53.6114H52.2687C52.5535 54.8322 53.6522 55.7274 54.9543 55.7274C56.5006 55.7274 57.7214 54.5067 57.7214 52.9604C57.6807 51.4548 56.4599 50.1933 54.9136 50.1933Z" fill="black"/>
<path d="M25.1272 54.4659C24.3133 54.4659 23.6216 53.8148 23.6216 52.9603C23.6216 52.1058 24.2726 51.4547 25.1272 51.4547C25.941 51.4547 26.6328 52.1058 26.6328 52.9603C26.6328 53.8148 25.941 54.4659 25.1272 54.4659ZM58.5351 33.7538C57.6806 32.6958 56.5005 31.882 55.1984 31.4751C55.0356 28.4639 53.8148 25.6155 51.6175 23.4995C49.3388 21.2614 46.3276 20 43.1129 20C38.881 20 34.9746 22.1974 32.8179 25.7782C32.2889 25.6155 31.7192 25.5341 31.1495 25.5341C28.5453 25.5341 26.3072 27.3652 25.7375 29.8881C22.4008 30.7426 20 33.7945 20 37.294C20 41.5259 23.4588 44.944 27.6907 44.944H29.1556V52.3499H27.8128C27.528 51.1292 26.4293 50.234 25.1272 50.234C23.5809 50.234 22.3601 51.4547 22.3601 53.001C22.3601 54.5066 23.6216 55.7681 25.1272 55.7681C26.4293 55.7681 27.528 54.8728 27.8128 53.6521H29.8067C30.1729 53.6521 30.4578 53.3672 30.4578 53.001V44.293C30.4578 43.9268 30.1729 43.6419 29.8067 43.6419H27.6907C24.1506 43.6419 21.3021 40.7935 21.3021 37.2533C21.3021 34.2014 23.4588 31.5972 26.4293 30.9868C26.7141 30.9461 26.9176 30.7019 26.9583 30.4578C27.2431 28.3418 29.0336 26.7955 31.1495 26.7955C31.7192 26.7955 32.2889 26.9176 32.8179 27.1617C33.1027 27.2838 33.469 27.1617 33.6317 26.8769C35.5443 23.4181 39.1658 21.2614 43.1129 21.2614C49.0132 21.2614 53.8962 26.0631 53.9369 31.9634C53.9369 32.2482 54.1404 32.5331 54.4252 32.5738C56.9888 33.1841 58.7792 35.4222 58.7792 38.0264C58.7792 41.119 56.2564 43.6419 53.1638 43.6419H52.7976C52.4313 43.6419 52.1465 43.9268 52.1465 44.293C52.1465 44.6592 52.4313 44.944 52.7976 44.944H53.1638C56.9481 44.944 60.0407 41.8515 60.0407 38.0671C60.0407 36.4802 59.5117 34.9746 58.5351 33.7538Z" fill="black"/>
<path d="M51.1701 32.6551C51.5364 32.6551 51.8212 32.3703 51.8212 32.004C51.8212 30.9461 51.6177 29.9288 51.2108 28.9522C51.0887 28.6266 50.7225 28.4639 50.397 28.5859C50.0715 28.708 49.9087 29.0742 50.0308 29.3998C50.3563 30.2136 50.5191 31.1088 50.5191 32.004C50.5191 32.3703 50.8039 32.6551 51.1701 32.6551Z" fill="black"/>
<path d="M48.8098 27.3652C48.9318 27.528 49.1353 27.6094 49.2981 27.6094C49.4608 27.6094 49.5829 27.5687 49.705 27.4466C49.9898 27.2025 50.0305 26.8362 49.7864 26.5514C48.118 24.5575 45.6765 23.3774 43.0722 23.3774C42.706 23.3774 42.4211 23.6623 42.4211 24.0285C42.4211 24.3947 42.706 24.6796 43.0722 24.6796C45.3103 24.6796 47.3855 25.6562 48.8098 27.3652Z" fill="black"/>
</g>
<g clip-path="url(#clip1_13_1785)">
<path d="M36.6022 118.739C35.7884 118.739 35.0967 118.088 35.0967 117.233C35.0967 116.419 35.7477 115.727 36.6022 115.727C37.4161 115.727 38.1078 116.378 38.1078 117.233C38.1078 118.047 37.4161 118.739 36.6022 118.739ZM37.2533 114.547V104.293C37.2533 103.927 36.9685 103.642 36.6022 103.642H32.3703C32.0041 103.642 31.7192 103.927 31.7192 104.293C31.7192 104.659 32.0041 104.944 32.3703 104.944H35.9919V114.547C34.7711 114.832 33.8759 115.931 33.8759 117.233C33.8759 118.739 35.1373 120 36.6429 120C38.1892 120 39.41 118.779 39.41 117.233C39.3693 115.931 38.4741 114.832 37.2533 114.547Z" fill="white"/>
<path d="M43.4384 118.739C42.6245 118.739 41.9328 118.088 41.9328 117.233C41.9328 116.419 42.5838 115.727 43.4384 115.727C44.2522 115.727 44.9439 116.378 44.9439 117.233C44.9033 118.047 44.2522 118.739 43.4384 118.739ZM44.0487 114.547V104.293C44.0487 103.927 43.7639 103.642 43.3977 103.642H39.1657C38.7995 103.642 38.5146 103.927 38.5146 104.293C38.5146 104.659 38.7995 104.944 39.1657 104.944H42.7873V114.547C41.5665 114.832 40.6713 115.931 40.6713 117.233C40.6713 118.739 41.9328 120 43.4384 120C44.9846 120 46.2054 118.779 46.2054 117.233C46.2054 115.931 45.2695 114.832 44.0487 114.547Z" fill="white"/>
<path d="M54.9136 114.466C54.0998 114.466 53.408 113.815 53.408 112.96C53.408 112.147 54.0591 111.455 54.9136 111.455C55.7275 111.455 56.4192 112.106 56.4192 112.96C56.4192 113.815 55.7682 114.466 54.9136 114.466ZM54.9136 110.193C53.6115 110.193 52.5128 111.089 52.228 112.309H50.8852V104.293C50.8852 103.927 50.6003 103.642 50.2341 103.642H46.0021C45.6359 103.642 45.3511 103.927 45.3511 104.293C45.3511 104.659 45.6359 104.944 46.0021 104.944H49.6237V112.96C49.6237 113.327 49.9086 113.611 50.2748 113.611H52.2687C52.5535 114.832 53.6522 115.727 54.9543 115.727C56.5006 115.727 57.7214 114.507 57.7214 112.96C57.6807 111.455 56.4599 110.193 54.9136 110.193Z" fill="white"/>
<path d="M25.1272 114.466C24.3133 114.466 23.6216 113.815 23.6216 112.96C23.6216 112.106 24.2726 111.455 25.1272 111.455C25.941 111.455 26.6328 112.106 26.6328 112.96C26.6328 113.815 25.941 114.466 25.1272 114.466ZM58.5351 93.7538C57.6806 92.6958 56.5005 91.882 55.1984 91.4751C55.0356 88.4639 53.8148 85.6155 51.6175 83.4995C49.3388 81.2614 46.3276 80 43.1129 80C38.881 80 34.9746 82.1974 32.8179 85.7782C32.2889 85.6155 31.7192 85.5341 31.1495 85.5341C28.5453 85.5341 26.3072 87.3652 25.7375 89.8881C22.4008 90.7426 20 93.7945 20 97.294C20 101.526 23.4588 104.944 27.6907 104.944H29.1556V112.35H27.8128C27.528 111.129 26.4293 110.234 25.1272 110.234C23.5809 110.234 22.3601 111.455 22.3601 113.001C22.3601 114.507 23.6216 115.768 25.1272 115.768C26.4293 115.768 27.528 114.873 27.8128 113.652H29.8067C30.1729 113.652 30.4578 113.367 30.4578 113.001V104.293C30.4578 103.927 30.1729 103.642 29.8067 103.642H27.6907C24.1506 103.642 21.3021 100.793 21.3021 97.2533C21.3021 94.2014 23.4588 91.5972 26.4293 90.9868C26.7141 90.9461 26.9176 90.7019 26.9583 90.4578C27.2431 88.3418 29.0336 86.7955 31.1495 86.7955C31.7192 86.7955 32.2889 86.9176 32.8179 87.1617C33.1027 87.2838 33.469 87.1617 33.6317 86.8769C35.5443 83.4181 39.1658 81.2614 43.1129 81.2614C49.0132 81.2614 53.8962 86.0631 53.9369 91.9634C53.9369 92.2482 54.1404 92.5331 54.4252 92.5738C56.9888 93.1841 58.7792 95.4222 58.7792 98.0264C58.7792 101.119 56.2564 103.642 53.1638 103.642H52.7976C52.4313 103.642 52.1465 103.927 52.1465 104.293C52.1465 104.659 52.4313 104.944 52.7976 104.944H53.1638C56.9481 104.944 60.0407 101.851 60.0407 98.0671C60.0407 96.4802 59.5117 94.9746 58.5351 93.7538Z" fill="white"/>
<path d="M51.1701 92.6551C51.5364 92.6551 51.8212 92.3703 51.8212 92.004C51.8212 90.9461 51.6177 89.9288 51.2108 88.9522C51.0887 88.6266 50.7225 88.4639 50.397 88.5859C50.0715 88.708 49.9087 89.0742 50.0308 89.3998C50.3563 90.2136 50.5191 91.1088 50.5191 92.004C50.5191 92.3703 50.8039 92.6551 51.1701 92.6551Z" fill="white"/>
<path d="M48.8098 87.3652C48.9318 87.528 49.1353 87.6094 49.2981 87.6094C49.4608 87.6094 49.5829 87.5687 49.705 87.4466C49.9898 87.2025 50.0305 86.8362 49.7864 86.5514C48.118 84.5575 45.6765 83.3774 43.0722 83.3774C42.706 83.3774 42.4211 83.6623 42.4211 84.0285C42.4211 84.3947 42.706 84.6796 43.0722 84.6796C45.3103 84.6796 47.3855 85.6562 48.8098 87.3652Z" fill="white"/>
</g>
<rect x="0.5" y="0.5" width="79.0407" height="139" rx="4.5" stroke="#7B61FF" stroke-dasharray="10 5"/>
<defs>
<clipPath id="clip0_13_1785">
<rect width="40.0407" height="40" fill="white" transform="translate(20 20)"/>
</clipPath>
<clipPath id="clip1_13_1785">
<rect width="40.0407" height="40" fill="white" transform="translate(20 80)"/>
</clipPath>
</defs>
</svg>
