<svg width="64" height="140" viewBox="0 0 64 140" fill="none" xmlns="http://www.w3.org/2000/svg">
<g clip-path="url(#clip0_13_1704)">
<path d="M33.0945 22.9851H30.6268C30.3084 22.9851 30.0298 23.2637 30.0298 23.5821C30.0298 23.9005 30.3084 24.1791 30.6268 24.1791H33.0945C33.4129 24.1791 33.6915 23.9005 33.6915 23.5821C33.6915 23.2239 33.4129 22.9851 33.0945 22.9851Z" fill="black"/>
<path d="M33.8108 56.3781C33.8108 56.5373 33.6914 56.6965 33.5322 56.6965H30.2685C30.1093 56.6965 29.9501 56.5771 29.9501 56.3781V55.9403C29.9501 55.7811 30.0695 55.6219 30.2685 55.6219H33.5322C33.6914 55.6219 33.8108 55.7413 33.8108 55.9403V56.3781ZM33.4924 54.4677H30.2287C29.4327 54.4677 28.7561 55.1443 28.7561 55.9403V56.3781C28.7561 57.1741 29.4327 57.8507 30.2287 57.8507H33.4924C34.2884 57.8507 34.9651 57.1741 34.9651 56.3781V55.9403C34.9651 55.1045 34.2884 54.4677 33.4924 54.4677Z" fill="black"/>
<path d="M50.9651 45.7511C50.9651 45.9103 50.8457 46.0696 50.6467 46.0696H47.383C47.2238 46.0696 47.0646 45.9501 47.0646 45.7511V45.3133C47.0646 45.1541 47.184 44.9949 47.383 44.9949H50.6467C50.8059 44.9949 50.9651 45.1143 50.9651 45.3133V45.7511ZM50.6865 43.8407H47.4228C46.6268 43.8407 45.9502 44.5173 45.9502 45.3133V45.7511C45.9502 46.5472 46.6268 47.2238 47.4228 47.2238H50.6865C51.4825 47.2238 52.1592 46.5472 52.1592 45.7511V45.3133C52.1592 44.5173 51.4825 43.8407 50.6865 43.8407Z" fill="black"/>
<path d="M53.9501 36.995H32.4576V36.0398C32.4576 35.7214 32.7362 35.4427 33.0546 35.4427H53.6317C53.8307 35.4427 53.9899 35.602 53.9899 35.801V36.995H53.9501ZM53.9501 40.6567H32.4576V38.1492H53.9899V40.6567H53.9501ZM53.9501 48.2587C53.9501 48.4577 53.7909 48.6169 53.5919 48.6169C53.0347 48.6169 34.4476 48.6169 33.0148 48.6169C32.6964 48.6169 32.4178 48.3383 32.4178 48.0199V41.8507H53.9501V48.2587ZM40.0596 52.3582H23.7014V30.7462H40.0596V34.2487H32.8158C31.98 34.2487 31.3033 34.9253 31.3033 35.7612V48.2587C31.3033 49.0945 31.98 49.7711 32.8158 49.7711H40.0596V52.3582ZM23.7014 27.0447H25.9302V29.592H23.7014V27.0447ZM27.0844 27.0447H40.0198V29.592H27.0844V27.0447ZM53.6317 34.2885H43.7213V29.6716C43.7213 29.3532 43.4426 29.0746 43.1242 29.0746C42.8058 29.0746 42.5272 29.3532 42.5272 29.6716V34.2487H41.174V26.9253C41.174 26.3283 40.6964 25.8507 40.0994 25.8507H23.582C22.9849 25.8507 22.5073 26.3283 22.5073 26.9253V52.4378C22.5073 53.0348 22.9849 53.5124 23.582 53.5124H40.1392C40.7362 53.5124 41.2138 53.0348 41.2138 52.4378V49.7711H42.567V57.4925C42.567 58.2089 41.97 58.8059 41.2536 58.8059H33.2138C32.8954 58.8059 32.6168 59.0845 32.6168 59.403C32.6168 59.7214 32.8954 60 33.2138 60H41.2536C42.6068 60 43.7213 58.8855 43.7213 57.5323V49.7711H53.5919C54.4277 49.7711 55.1043 49.0945 55.1043 48.2587V35.801C55.1441 34.9651 54.4675 34.2885 53.6317 34.2885Z" fill="black"/>
<path d="M41.2935 20H22.4677C21.1144 20 20 21.1144 20 22.4677V57.4925C20 58.8458 21.1144 59.9602 22.4677 59.9602H30.5075C30.8259 59.9602 31.1045 59.6816 31.1045 59.3632C31.1045 59.0448 30.8259 58.7662 30.5075 58.7662H22.4677C21.7512 58.7662 21.1542 58.1692 21.1542 57.4527V22.4279C21.1542 21.7114 21.7512 21.1144 22.4677 21.1144H41.2935C42.01 21.1144 42.607 21.7114 42.607 22.4279V26.8856C42.607 27.204 42.8856 27.4826 43.204 27.4826C43.5224 27.4826 43.801 27.204 43.801 26.8856V22.4677C43.7214 21.1144 42.6468 20 41.2935 20Z" fill="black"/>
</g>
<g clip-path="url(#clip1_13_1704)">
<path d="M33.0945 92.9851H30.6268C30.3084 92.9851 30.0298 93.2637 30.0298 93.5821C30.0298 93.9005 30.3084 94.1791 30.6268 94.1791H33.0945C33.4129 94.1791 33.6915 93.9005 33.6915 93.5821C33.6915 93.2239 33.4129 92.9851 33.0945 92.9851Z" fill="white"/>
<path d="M33.8108 126.378C33.8108 126.537 33.6914 126.697 33.5322 126.697H30.2685C30.1093 126.697 29.9501 126.577 29.9501 126.378V125.94C29.9501 125.781 30.0695 125.622 30.2685 125.622H33.5322C33.6914 125.622 33.8108 125.741 33.8108 125.94V126.378ZM33.4924 124.468H30.2287C29.4327 124.468 28.7561 125.144 28.7561 125.94V126.378C28.7561 127.174 29.4327 127.851 30.2287 127.851H33.4924C34.2884 127.851 34.9651 127.174 34.9651 126.378V125.94C34.9651 125.104 34.2884 124.468 33.4924 124.468Z" fill="white"/>
<path d="M50.9651 115.751C50.9651 115.91 50.8457 116.07 50.6467 116.07H47.383C47.2238 116.07 47.0646 115.95 47.0646 115.751V115.313C47.0646 115.154 47.184 114.995 47.383 114.995H50.6467C50.8059 114.995 50.9651 115.114 50.9651 115.313V115.751ZM50.6865 113.841H47.4228C46.6268 113.841 45.9502 114.517 45.9502 115.313V115.751C45.9502 116.547 46.6268 117.224 47.4228 117.224H50.6865C51.4825 117.224 52.1592 116.547 52.1592 115.751V115.313C52.1592 114.517 51.4825 113.841 50.6865 113.841Z" fill="white"/>
<path d="M53.9501 106.995H32.4576V106.04C32.4576 105.721 32.7362 105.443 33.0546 105.443H53.6317C53.8307 105.443 53.9899 105.602 53.9899 105.801V106.995H53.9501ZM53.9501 110.657H32.4576V108.149H53.9899V110.657H53.9501ZM53.9501 118.259C53.9501 118.458 53.7909 118.617 53.5919 118.617C53.0347 118.617 34.4476 118.617 33.0148 118.617C32.6964 118.617 32.4178 118.338 32.4178 118.02V111.851H53.9501V118.259ZM40.0596 122.358H23.7014V100.746H40.0596V104.249H32.8158C31.98 104.249 31.3033 104.925 31.3033 105.761V118.259C31.3033 119.094 31.98 119.771 32.8158 119.771H40.0596V122.358ZM23.7014 97.0447H25.9302V99.592H23.7014V97.0447ZM27.0844 97.0447H40.0198V99.592H27.0844V97.0447ZM53.6317 104.289H43.7213V99.6716C43.7213 99.3532 43.4426 99.0746 43.1242 99.0746C42.8058 99.0746 42.5272 99.3532 42.5272 99.6716V104.249H41.174V96.9253C41.174 96.3283 40.6964 95.8507 40.0994 95.8507H23.582C22.9849 95.8507 22.5073 96.3283 22.5073 96.9253V122.438C22.5073 123.035 22.9849 123.512 23.582 123.512H40.1392C40.7362 123.512 41.2138 123.035 41.2138 122.438V119.771H42.567V127.493C42.567 128.209 41.97 128.806 41.2536 128.806H33.2138C32.8954 128.806 32.6168 129.085 32.6168 129.403C32.6168 129.721 32.8954 130 33.2138 130H41.2536C42.6068 130 43.7213 128.886 43.7213 127.532V119.771H53.5919C54.4277 119.771 55.1043 119.094 55.1043 118.259V105.801C55.1441 104.965 54.4675 104.289 53.6317 104.289Z" fill="white"/>
<path d="M41.2935 90H22.4677C21.1144 90 20 91.1144 20 92.4677V127.493C20 128.846 21.1144 129.96 22.4677 129.96H30.5075C30.8259 129.96 31.1045 129.682 31.1045 129.363C31.1045 129.045 30.8259 128.766 30.5075 128.766H22.4677C21.7512 128.766 21.1542 128.169 21.1542 127.453V92.4279C21.1542 91.7114 21.7512 91.1144 22.4677 91.1144H41.2935C42.01 91.1144 42.607 91.7114 42.607 92.4279V96.8856C42.607 97.204 42.8856 97.4826 43.204 97.4826C43.5224 97.4826 43.801 97.204 43.801 96.8856V92.4677C43.7214 91.1144 42.6468 90 41.2935 90Z" fill="white"/>
</g>
<rect x="0.5" y="0.5" width="63" height="139" rx="4.5" stroke="#7B61FF" stroke-dasharray="10 5"/>
<defs>
<clipPath id="clip0_13_1704">
<rect width="35.2" height="40" fill="white" transform="translate(20 20)"/>
</clipPath>
<clipPath id="clip1_13_1704">
<rect width="35.2" height="40" fill="white" transform="translate(20 90)"/>
</clipPath>
</defs>
</svg>
