<svg width="84" height="140" viewBox="0 0 84 140" fill="none" xmlns="http://www.w3.org/2000/svg">
<g clip-path="url(#clip0_13_1838)">
<path d="M44.0089 51.6259H39.8218C39.4209 51.6259 39.1091 51.9377 39.1091 52.3385C39.1091 52.7394 39.4209 53.0512 39.8218 53.0512H44.0089C44.4098 53.0512 44.7216 52.7394 44.7216 52.3385C44.7216 51.9377 44.4098 51.6259 44.0089 51.6259Z" fill="black"/>
<path d="M60.3117 58.5746H23.5188C22.3607 58.5746 21.4253 57.6392 21.4253 56.481V55.7684H62.4498V56.481C62.4498 57.6392 61.4698 58.5746 60.3117 58.5746ZM25.0778 48.3741H58.7527L61.9598 54.3875H21.8707L25.0778 48.3741ZM63.8306 55.0557C63.8306 55.0111 63.8306 55.0111 63.8306 54.9666V54.922C63.8306 54.8775 63.8306 54.8775 63.7861 54.8329L59.9108 47.5724V28.5523C59.9108 28.1514 59.599 27.8396 59.1981 27.8396C58.7972 27.8396 58.4854 28.1514 58.4854 28.5523V46.9933H25.3451V27.4387C25.3451 26.2806 26.2805 25.3452 27.4386 25.3452H55.1892C55.5901 25.3452 55.9019 25.0334 55.9019 24.6325C55.9019 24.2316 55.5901 23.9198 55.1892 23.9198H27.4386C25.5233 23.9198 23.9197 25.4788 23.9197 27.3942V47.4833L20.089 54.7884C20.089 54.7884 20.089 54.8329 20.0444 54.8775V54.922C20.0444 54.9666 20.0444 54.9666 20.0444 55.0111C20.0444 55.0557 20.0444 55.0557 20.0444 55.1002V56.481C20.0444 58.3964 21.6035 59.9554 23.5634 59.9554H60.4008C62.3161 59.9554 63.9197 58.3964 63.9197 56.481V55.1002C63.8306 55.1002 63.8306 55.0557 63.8306 55.0557Z" fill="black"/>
<path d="M59.4208 21.3808H61.4252L44.766 37.9955L39.599 32.8731C39.3317 32.6058 38.8863 32.6058 38.619 32.8731L26.9932 44.4543C26.7259 44.7216 26.7259 45.167 26.9932 45.4343C27.1268 45.5679 27.305 45.657 27.4831 45.657C27.6613 45.657 27.8395 45.5679 27.9731 45.4343L39.109 34.343L44.276 39.4655C44.5433 39.7327 44.9887 39.7327 45.256 39.4655L62.4497 22.3608V24.4098C62.4497 24.8107 62.7615 25.1225 63.1624 25.1225C63.5633 25.1225 63.8751 24.8107 63.8751 24.4098V20.7127C63.8751 20.3118 63.5633 20 63.1624 20H59.4208C59.0199 20 58.7081 20.3118 58.7081 20.7127C58.7081 21.069 59.0199 21.3808 59.4208 21.3808Z" fill="black"/>
</g>
<g clip-path="url(#clip1_13_1838)">
<path d="M44.0089 111.626H39.8218C39.4209 111.626 39.1091 111.938 39.1091 112.339C39.1091 112.739 39.4209 113.051 39.8218 113.051H44.0089C44.4098 113.051 44.7216 112.739 44.7216 112.339C44.7216 111.938 44.4098 111.626 44.0089 111.626Z" fill="white"/>
<path d="M60.3117 118.575H23.5188C22.3607 118.575 21.4253 117.639 21.4253 116.481V115.768H62.4498V116.481C62.4498 117.639 61.4698 118.575 60.3117 118.575ZM25.0778 108.374H58.7527L61.9598 114.388H21.8707L25.0778 108.374ZM63.8306 115.056C63.8306 115.011 63.8306 115.011 63.8306 114.967V114.922C63.8306 114.877 63.8306 114.877 63.7861 114.833L59.9108 107.572V88.5523C59.9108 88.1514 59.599 87.8396 59.1981 87.8396C58.7972 87.8396 58.4854 88.1514 58.4854 88.5523V106.993H25.3451V87.4387C25.3451 86.2806 26.2805 85.3452 27.4386 85.3452H55.1892C55.5901 85.3452 55.9019 85.0334 55.9019 84.6325C55.9019 84.2316 55.5901 83.9198 55.1892 83.9198H27.4386C25.5233 83.9198 23.9197 85.4788 23.9197 87.3942V107.483L20.089 114.788C20.089 114.788 20.089 114.833 20.0444 114.877V114.922C20.0444 114.967 20.0444 114.967 20.0444 115.011C20.0444 115.056 20.0444 115.056 20.0444 115.1V116.481C20.0444 118.396 21.6035 119.955 23.5634 119.955H60.4008C62.3161 119.955 63.9197 118.396 63.9197 116.481V115.1C63.8306 115.1 63.8306 115.056 63.8306 115.056Z" fill="white"/>
<path d="M59.4208 81.3808H61.4252L44.766 97.9955L39.599 92.8731C39.3317 92.6058 38.8863 92.6058 38.619 92.8731L26.9932 104.454C26.7259 104.722 26.7259 105.167 26.9932 105.434C27.1268 105.568 27.305 105.657 27.4831 105.657C27.6613 105.657 27.8395 105.568 27.9731 105.434L39.109 94.343L44.276 99.4655C44.5433 99.7327 44.9887 99.7327 45.256 99.4655L62.4497 82.3608V84.4098C62.4497 84.8107 62.7615 85.1225 63.1624 85.1225C63.5633 85.1225 63.8751 84.8107 63.8751 84.4098V80.7127C63.8751 80.3118 63.5633 80 63.1624 80H59.4208C59.0199 80 58.7081 80.3118 58.7081 80.7127C58.7081 81.069 59.0199 81.3808 59.4208 81.3808Z" fill="white"/>
</g>
<rect x="0.5" y="0.5" width="82.8307" height="139" rx="4.5" stroke="#7B61FF" stroke-dasharray="10 5"/>
<defs>
<clipPath id="clip0_13_1838">
<rect width="43.8307" height="40" fill="white" transform="translate(20 20)"/>
</clipPath>
<clipPath id="clip1_13_1838">
<rect width="43.8307" height="40" fill="white" transform="translate(20 80)"/>
</clipPath>
</defs>
</svg>
