<svg width="78" height="140" viewBox="0 0 78 140" fill="none" xmlns="http://www.w3.org/2000/svg">
<g clip-path="url(#clip0_13_1718)">
<path d="M45.1793 34.1833C44.741 37.49 41.9124 40 38.6056 40C35.2988 40 32.4701 37.49 32.0319 34.1833L30.3984 22.1116H32.51L32.9482 25.4582C32.988 25.9761 33.4661 26.3745 33.9442 26.3745C33.9841 26.3745 34.0239 26.3745 34.1036 26.3745C34.6614 26.2948 35.0598 25.7769 34.9801 25.1793L34.5817 22.1116H46.8128L45.1793 34.1833ZM22.1116 22.1116H28.2869L29.761 32.8287C25.4582 30.9562 22.51 26.8526 22.1116 22.1116ZM46.1355 57.8884H31.0757V49.5618H46.1355V57.8884ZM50.0398 31.2749C49.5618 31.6335 49.4821 32.2709 49.8406 32.749C50.1992 33.2271 50.8367 33.3068 51.2749 32.9482C55.0199 30.1195 57.1713 25.7769 57.1713 21.0359C57.1713 20.4382 56.6932 20 56.1355 20H29.1633H21.0359C20.4781 20 20 20.4781 20 21.0359C20 27.49 24.1036 33.1873 30.1195 35.1793C30.9163 38.8048 33.9442 41.5538 37.5697 41.992V47.49H30.0398C29.4821 47.49 29.004 47.9681 29.004 48.5259V58.9243C29.004 59.5219 29.4821 59.9602 30.0398 59.9602H47.1713C47.7291 59.9602 48.2072 59.4821 48.2072 58.9243V48.5259C48.2072 47.9283 47.7291 47.49 47.1713 47.49H39.6414V42.0319C43.506 41.5538 46.6932 38.4861 47.2112 34.4622L48.8845 22.1116H55.0598C54.7809 25.7769 52.988 29.0837 50.0398 31.2749Z" fill="black"/>
<path d="M34.3825 28.4462C33.8247 28.5259 33.4263 29.0438 33.506 29.6414L34.1036 33.9044C34.4223 36.1753 36.3347 37.8884 38.6056 37.8884C39.1634 37.8884 39.6415 37.4103 39.6415 36.8526C39.6415 36.255 39.1634 35.8167 38.6056 35.8167C37.3705 35.8167 36.3347 34.9004 36.1355 33.6653L35.5379 29.3227C35.4582 28.7649 34.9403 28.3665 34.3825 28.4462Z" fill="black"/>
<path d="M34.064 53.6654C34.064 54.263 34.5421 54.7012 35.0998 54.7012H42.0719C42.6297 54.7012 43.1078 54.2231 43.1078 53.6654C43.1078 53.0678 42.6297 52.6295 42.0719 52.6295H35.0998C34.5421 52.6295 34.064 53.1076 34.064 53.6654Z" fill="black"/>
</g>
<g clip-path="url(#clip1_13_1718)">
<path d="M45.1793 94.1833C44.741 97.49 41.9124 100 38.6056 100C35.2988 100 32.4701 97.49 32.0319 94.1833L30.3984 82.1116H32.51L32.9482 85.4582C32.988 85.9761 33.4661 86.3745 33.9442 86.3745C33.9841 86.3745 34.0239 86.3745 34.1036 86.3745C34.6614 86.2948 35.0598 85.7769 34.9801 85.1793L34.5817 82.1116H46.8128L45.1793 94.1833ZM22.1116 82.1116H28.2869L29.761 92.8287C25.4582 90.9562 22.51 86.8526 22.1116 82.1116ZM46.1355 117.888H31.0757V109.562H46.1355V117.888ZM50.0398 91.2749C49.5618 91.6335 49.4821 92.2709 49.8406 92.749C50.1992 93.2271 50.8367 93.3068 51.2749 92.9482C55.0199 90.1195 57.1713 85.7769 57.1713 81.0359C57.1713 80.4382 56.6932 80 56.1355 80H29.1633H21.0359C20.4781 80 20 80.4781 20 81.0359C20 87.49 24.1036 93.1873 30.1195 95.1793C30.9163 98.8048 33.9442 101.554 37.5697 101.992V107.49H30.0398C29.4821 107.49 29.004 107.968 29.004 108.526V118.924C29.004 119.522 29.4821 119.96 30.0398 119.96H47.1713C47.7291 119.96 48.2072 119.482 48.2072 118.924V108.526C48.2072 107.928 47.7291 107.49 47.1713 107.49H39.6414V102.032C43.506 101.554 46.6932 98.4861 47.2112 94.4622L48.8845 82.1116H55.0598C54.7809 85.7769 52.988 89.0837 50.0398 91.2749Z" fill="white"/>
<path d="M34.3825 88.4462C33.8247 88.5259 33.4263 89.0438 33.506 89.6414L34.1036 93.9044C34.4223 96.1753 36.3347 97.8884 38.6056 97.8884C39.1634 97.8884 39.6415 97.4103 39.6415 96.8526C39.6415 96.255 39.1634 95.8167 38.6056 95.8167C37.3705 95.8167 36.3347 94.9004 36.1355 93.6653L35.5379 89.3227C35.4582 88.7649 34.9403 88.3665 34.3825 88.4462Z" fill="white"/>
<path d="M34.064 113.665C34.064 114.263 34.5421 114.701 35.0998 114.701H42.0719C42.6297 114.701 43.1078 114.223 43.1078 113.665C43.1078 113.068 42.6297 112.63 42.0719 112.63H35.0998C34.5421 112.63 34.064 113.108 34.064 113.665Z" fill="white"/>
</g>
<rect x="0.5" y="0.5" width="76.1713" height="139" rx="4.5" stroke="#7B61FF" stroke-dasharray="10 5"/>
<defs>
<clipPath id="clip0_13_1718">
<rect width="37.1713" height="40" fill="white" transform="translate(20 20)"/>
</clipPath>
<clipPath id="clip1_13_1718">
<rect width="37.1713" height="40" fill="white" transform="translate(20 80)"/>
</clipPath>
</defs>
</svg>
