<svg width="69" height="30" viewBox="0 0 69 30" fill="none" xmlns="http://www.w3.org/2000/svg">
<path d="M68.2758 26.3354L49.3661 7.96729L45.5935 11.6318L53.168 18.9836L45.5994 26.3354L49.3661 30L56.9347 22.6481L64.5033 30L68.2758 26.3354Z" fill="#92A2AE"/>
<path d="M24.8356 0H15.0844H9.75118H0V5.18047H9.75118V29.4472H15.0844V5.18047H24.8356V0Z" fill="#92A2AE"/>
<path d="M37.4558 0V9.28951C35.6428 8.1497 33.4837 7.4829 31.1662 7.4829C24.7828 7.4829 19.5845 12.5266 19.5845 18.7329C19.5845 24.9335 24.7769 29.9829 31.1662 29.9829C33.4837 29.9829 35.6428 29.3161 37.4558 28.1763V29.4529H42.789V0H37.4558ZM31.1662 24.8195C27.7105 24.8195 24.8942 22.084 24.8942 18.7272C24.8942 15.3704 27.7105 12.6349 31.1662 12.6349C34.6219 12.6349 37.4382 15.3704 37.4382 18.7272C37.4382 22.0897 34.6278 24.8195 31.1662 24.8195Z" fill="#92A2AE"/>
<path d="M62.9073 16.8522L68.2758 11.6318L64.5032 7.96729L59.1348 13.1876L62.9073 16.8522Z" fill="#92A2AE"/>
</svg>
