<svg width="212" height="62" viewBox="0 0 212 62" fill="none" xmlns="http://www.w3.org/2000/svg">
<g clip-path="url(#clip0_4089_40970)">
<path fill-rule="evenodd" clip-rule="evenodd" d="M48.9673 9.34692L37.3008 33.0251L57.8406 57.015L19.7188 61.3763L78.8731 62L48.9673 9.34692Z" fill="#035BDA"/>
<path fill-rule="evenodd" clip-rule="evenodd" d="M46.6661 0L19.8826 22.588L0 56.392L16.9248 54.6781L46.6661 0Z" fill="#035BDA"/>
<path d="M101.233 23.9067L88.4219 55.563H92.7777L96.1086 46.6886H110.27L113.81 55.563H118.142L105.285 23.9067H101.233ZM103.142 27.7475H103.235C103.406 28.7189 103.577 29.4257 103.748 29.8672L108.988 43.3555H97.4125L102.607 29.8672C102.809 29.3521 102.987 28.6453 103.142 27.7475ZM202.195 32.428C199.074 32.428 196.458 33.5388 194.346 35.7611C192.25 37.9686 191.202 40.8316 191.202 44.349C191.202 48.0724 192.165 50.9639 194.09 53.0242C196.016 55.0699 198.663 56.0928 202.032 56.0928C205.48 56.0928 208.251 55.3721 210.348 53.9298V50.5301C208.096 52.2078 205.627 53.0462 202.941 53.0462C200.55 53.0462 198.671 52.3619 197.305 50.9932C195.938 49.6245 195.224 47.6819 195.162 45.1653H212.001V43.2669C212.001 39.8672 211.147 37.2112 209.439 35.298C207.731 33.3847 205.317 32.428 202.195 32.428ZM185.13 32.5606C183.748 32.5606 182.498 33.0095 181.38 33.9073C180.262 34.7903 179.432 36.0261 178.888 37.6155H178.795V32.9577H174.975V55.563H178.795V44.0398C178.795 41.5232 179.339 39.5363 180.426 38.0793C181.528 36.6223 182.894 35.8937 184.525 35.8937C185.783 35.8937 186.745 36.1363 187.413 36.622V32.8691C186.885 32.6631 186.124 32.5606 185.13 32.5606ZM122.025 32.9577V36.0483H134.812L120.697 54.4376V55.563H140.285V52.4725H126.31L140.425 33.9952V32.9577H122.025ZM146.17 32.9577V46.468C146.17 52.8847 149.013 56.0928 154.696 56.0928C158.019 56.0928 160.472 54.7241 162.056 51.9867H162.148V55.563H165.969V32.9577H162.148V45.9822C162.148 48.0868 161.543 49.794 160.332 51.1038C159.137 52.3989 157.607 53.0462 155.744 53.0462C151.893 53.0462 149.967 50.6626 149.967 45.8943V32.9577H146.17ZM202.126 35.4745C203.989 35.4745 205.441 36.0557 206.482 37.2184C207.538 38.381 208.073 40.0069 208.088 42.0967H195.208C195.503 40.1246 196.28 38.5279 197.537 37.3063C198.795 36.0848 200.325 35.4745 202.126 35.4745Z" fill="#035BDA"/>
</g>
<defs>
<clipPath id="clip0_4089_40970">
<rect width="212" height="62" fill="white"/>
</clipPath>
</defs>
</svg>
