<svg width="1039" height="98" viewBox="0 0 1039 98" fill="none" xmlns="http://www.w3.org/2000/svg">
<path d="M374.954 18.9009L376.823 18.9336L381.899 13.8572L382.144 11.7061C378.11 8.11767 372.802 5.9339 366.992 5.9339C356.473 5.9339 347.595 13.0912 344.965 22.7866C345.52 22.3995 346.704 22.6886 346.704 22.6886L356.851 21.0194C356.851 21.0194 357.373 20.1537 357.635 20.2076C359.813 17.825 362.817 16.3632 366.036 16.1204C369.255 15.8776 372.445 16.872 374.956 18.9009H374.954Z" fill="#EA4335"/>
<path d="M389.049 22.8046C387.882 18.5133 385.489 14.6556 382.162 11.7045L374.972 18.8944C376.448 20.0803 377.639 21.5821 378.457 23.2891C379.275 24.9962 379.7 26.865 379.701 28.7581V30.0272C383.2 30.0272 386.038 32.8741 386.038 36.3645C386.038 39.855 383.191 42.7019 379.701 42.7019H367.023L365.754 43.9759V51.5839L367.023 52.8465H379.701C384.067 52.8349 388.251 51.0944 391.337 48.006C394.424 44.9175 396.161 40.7324 396.17 36.3662C396.163 30.754 393.334 25.7822 389.032 22.8046H389.049Z" fill="#4285F4"/>
<path d="M354.314 52.8579H366.989V42.7117H354.314C353.414 42.7121 352.524 42.5188 351.705 42.1449L349.876 42.7051L344.8 47.7815L344.355 49.4965C347.212 51.6895 350.715 52.8729 354.316 52.8612L354.314 52.8579Z" fill="#34A853"/>
<path d="M354.315 19.8859C349.945 19.8928 345.755 21.632 342.665 24.7224C339.574 27.8128 337.835 32.0023 337.828 36.3727C337.828 38.9177 338.418 41.428 339.552 43.7065C340.685 45.985 342.332 47.9697 344.361 49.5047L351.711 42.1547C350.598 41.6538 349.653 40.842 348.99 39.8168C348.327 38.7917 347.975 37.5968 347.974 36.376C347.974 32.8774 350.821 30.0387 354.312 30.0387C355.532 30.0408 356.726 30.3944 357.751 31.0571C358.776 31.7198 359.588 32.6636 360.09 33.7757L367.44 26.4257C364.425 22.4567 359.666 19.8924 354.308 19.8924L354.315 19.8859Z" fill="#FBBC05"/>
<path d="M288.6 84.8304C285.137 84.8304 282.165 83.6054 279.659 81.1554C277.153 78.7054 275.902 75.7589 275.902 72.3224C275.902 68.8858 277.152 65.9393 279.659 63.4893C282.166 61.0393 285.142 59.8127 288.6 59.8127C290.186 59.7896 291.761 60.0824 293.233 60.6741C294.705 61.2658 296.044 62.1445 297.173 63.259L294.761 65.6714C293.11 64.0752 290.894 63.1973 288.598 63.2296C286.099 63.2296 283.976 64.1116 282.235 65.887C281.388 66.7282 280.72 67.7322 280.272 68.8385C279.823 69.9448 279.604 71.1305 279.626 72.324C279.626 74.8491 280.492 76.9904 282.235 78.7593C283.054 79.6186 284.042 80.2985 285.138 80.7559C286.233 81.2134 287.411 81.4384 288.598 81.4168C291.143 81.4168 293.245 80.6001 294.919 78.9112C295.899 77.9312 296.553 76.4612 296.781 74.6074H288.605V71.1905H300.11C300.232 71.7981 300.273 72.4971 300.273 73.3138C300.273 76.6719 299.288 79.3343 297.312 81.309C295.071 83.6528 292.167 84.8206 288.582 84.8206L288.6 84.8304ZM315.338 82.5438C313.77 84.0791 311.859 84.8304 309.601 84.8304C307.344 84.8304 305.43 84.0628 303.865 82.5438C302.3 81.0248 301.516 79.0925 301.516 76.7944C301.516 74.4963 302.3 72.5804 303.865 71.0451C305.43 69.5098 307.344 68.7584 309.601 68.7584C311.859 68.7584 313.773 69.5261 315.338 71.0451C316.902 72.5641 317.686 74.5012 317.686 76.7944C317.686 79.0876 316.902 81.0084 315.338 82.5438ZM306.397 80.2898C306.804 80.7326 307.3 81.0849 307.852 81.3237C308.405 81.5626 309.001 81.6828 309.603 81.6765C310.844 81.6765 311.912 81.2159 312.809 80.2881C313.706 79.3604 314.152 78.1975 314.152 76.7928C314.152 75.3718 313.711 74.1991 312.824 73.2811C311.937 72.3632 310.867 71.9091 309.603 71.9091C309 71.8999 308.402 72.0172 307.847 72.2535C307.292 72.4899 306.793 72.8399 306.382 73.2811C305.495 74.1958 305.054 75.3653 305.054 76.7928C305.054 78.1942 305.5 79.362 306.397 80.2881V80.2898ZM332.976 82.5438C331.408 84.0791 329.497 84.8304 327.24 84.8304C324.982 84.8304 323.068 84.0628 321.503 82.5438C319.939 81.0248 319.155 79.0925 319.155 76.7944C319.155 74.4963 319.939 72.5804 321.503 71.0451C323.068 69.5098 324.982 68.7584 327.24 68.7584C329.497 68.7584 331.411 69.5261 332.976 71.0451C334.541 72.5641 335.325 74.5012 335.325 76.7944C335.325 79.0876 334.541 81.0084 332.976 82.5438ZM324.035 80.2898C324.443 80.7326 324.939 81.0849 325.491 81.3237C326.043 81.5626 326.64 81.6828 327.241 81.6765C328.483 81.6765 329.551 81.2159 330.448 80.2881C331.344 79.3604 331.79 78.1975 331.79 76.7928C331.79 75.3718 331.349 74.1991 330.462 73.2811C329.575 72.3632 328.505 71.9091 327.241 71.9091C326.638 71.8999 326.04 72.0172 325.485 72.2535C324.93 72.4899 324.431 72.8399 324.02 73.2811C323.133 74.1958 322.692 75.3653 322.692 76.7928C322.692 78.1942 323.138 79.362 324.035 80.2881V80.2898ZM344.571 92.0824C342.782 92.0824 341.277 91.6022 340.056 90.6451C338.836 89.688 337.962 88.5806 337.433 87.3164L340.517 86.0375C340.84 86.8117 341.334 87.483 342.041 88.053C342.748 88.623 343.576 88.9056 344.576 88.9056C345.918 88.9056 346.974 88.4973 347.733 87.6855C348.493 86.8737 348.876 85.6994 348.876 84.1738V83.0305H348.754C347.774 84.2506 346.341 84.8631 344.514 84.8631C342.459 84.8631 340.659 84.0791 339.112 82.5144C338.361 81.7747 337.768 80.89 337.369 79.914C336.97 78.938 336.774 77.8911 336.793 76.8369C336.774 75.7761 336.97 74.7225 337.368 73.7393C337.767 72.7561 338.36 71.8635 339.112 71.1153C340.656 69.5424 342.461 68.7519 344.514 68.7519C345.428 68.7519 346.258 68.9234 347 69.2713C347.741 69.6192 348.328 70.0455 348.754 70.5502H348.876V69.2533H352.235V83.7198C352.235 86.5291 351.519 88.6263 350.082 90.0244C348.644 91.4128 346.812 92.1151 344.573 92.1151L344.571 92.0824ZM344.816 81.6748C345.398 81.6851 345.976 81.5661 346.506 81.3263C347.037 81.0865 347.508 80.7319 347.885 80.2881C348.708 79.362 349.12 78.2089 349.12 76.8222C349.12 75.4208 348.708 74.2481 347.885 73.3105C347.51 72.8632 347.04 72.5052 346.509 72.2628C345.978 72.0203 345.4 71.8995 344.816 71.9091C343.575 71.9091 342.516 72.3795 341.644 73.3105C340.772 74.2415 340.331 75.4143 340.331 76.8222C340.331 78.204 340.767 79.362 341.644 80.2881C342.521 81.2142 343.576 81.6765 344.816 81.6765V81.6748ZM358.213 60.662V84.3453H354.673V60.662H358.213ZM367.915 84.8288C365.634 84.8288 363.733 84.0546 362.208 82.5095C360.682 80.9643 359.918 79.0533 359.918 76.7732C359.918 74.4147 360.653 72.4775 362.129 70.9749C362.822 70.2459 363.658 69.6687 364.586 69.2796C365.513 68.8905 366.511 68.698 367.516 68.7143C368.491 68.7143 369.399 68.8907 370.232 69.2484C371.007 69.5658 371.711 70.0319 372.307 70.6204C372.803 71.1145 373.243 71.6617 373.62 72.2521C373.931 72.7567 374.197 73.288 374.414 73.8397L374.781 74.7544L364.011 79.2167C364.828 80.8435 366.134 81.6585 367.918 81.6585C369.545 81.6585 370.869 80.9186 371.884 79.4323L374.628 81.2649C374.015 82.1795 373.153 83.0044 372.034 83.7361C370.915 84.4678 369.538 84.8304 367.911 84.8304L367.915 84.8288ZM363.429 76.5315L370.616 73.5425C370.41 73.0329 370.038 72.6213 369.473 72.3077C368.904 71.9893 368.262 71.827 367.611 71.8373C366.572 71.8373 365.602 72.2619 364.699 73.1162C363.795 73.9704 363.359 75.1121 363.4 76.5331L363.429 76.5315ZM393.368 84.8288C390.151 84.8288 387.456 83.741 385.28 81.5621C383.105 79.3833 382.013 76.6703 382.013 73.4151C382.013 70.1598 383.101 67.4436 385.28 65.268C387.459 63.0924 390.152 62.0013 393.368 62.0013C396.663 62.0013 399.34 63.1937 401.393 65.5702L399.441 67.4648C397.971 65.6126 395.929 64.6882 393.365 64.6882C390.98 64.6882 388.978 65.4918 387.322 67.1006C385.666 68.7094 384.865 70.8115 384.865 73.4151C384.865 76.0186 385.682 78.1256 387.322 79.7361C388.962 81.3465 390.969 82.1485 393.365 82.1485C395.988 82.1485 398.228 81.0901 400.062 78.9766L402.014 80.9284C400.991 82.1488 399.707 83.124 398.257 83.7818C396.719 84.4893 395.043 84.8474 393.35 84.8304L393.368 84.8288ZM407.343 84.3453H404.534V62.4962H407.343V84.3453ZM411.921 71.1807C413.367 69.6666 415.188 68.9054 417.445 68.9054C419.703 68.9054 421.524 69.6649 422.969 71.1807C424.415 72.6964 425.137 74.6107 425.137 76.8728C425.137 79.135 424.418 81.0493 422.969 82.565C421.521 84.0807 419.703 84.8402 417.445 84.8402C415.188 84.8402 413.367 84.0807 411.921 82.565C410.476 81.0493 409.754 79.135 409.754 76.8728C409.754 74.6107 410.473 72.6964 411.921 71.1807ZM414.012 80.7896C414.992 81.7745 416.126 82.2694 417.442 82.2694C418.759 82.2694 419.892 81.7745 420.872 80.7896C421.852 79.8047 422.323 78.4947 422.323 76.8696C422.323 75.2444 421.837 73.9328 420.872 72.9496C419.907 71.9663 418.759 71.4698 417.442 71.4698C416.126 71.4698 414.992 71.9647 414.012 72.9496C413.032 73.9345 412.562 75.2444 412.562 76.8696C412.562 78.4947 413.047 79.8063 414.012 80.7896ZM440.668 84.3453H437.981V82.271H437.859C437.434 82.9815 436.781 83.5891 435.907 84.0677C435.033 84.5462 434.11 84.819 433.13 84.819C431.257 84.819 429.841 84.2506 428.875 83.1089C427.91 81.9672 427.425 80.4417 427.425 78.5307V69.3742H430.234V78.0701C430.234 80.8598 431.464 82.2514 433.926 82.2514C434.477 82.263 435.022 82.1417 435.516 81.8978C436.011 81.6539 436.439 81.2944 436.764 80.85C437.491 79.9292 437.878 78.7869 437.862 77.6144V69.3742H440.671V84.3306L440.668 84.3453ZM450.187 84.8304C448.255 84.8304 446.584 84.066 445.183 82.5405C443.781 81.015 443.079 79.1236 443.079 76.863C443.079 74.6025 443.781 72.7111 445.183 71.1856C446.584 69.66 448.257 68.8956 450.187 68.8956C451.324 68.8956 452.35 69.1406 453.258 69.6257C454.166 70.1108 454.842 70.7233 455.288 71.4583H455.411L455.288 69.384V62.4913H458.097V84.3453H455.411V82.271H455.288C454.842 83.0011 454.166 83.6136 453.258 84.1036C452.351 84.5838 451.326 84.8288 450.187 84.8288V84.8304ZM450.645 82.2661C451.278 82.2747 451.907 82.1485 452.488 81.896C453.07 81.6434 453.591 81.2702 454.017 80.801C454.943 79.8259 455.406 78.5111 455.406 76.881C455.406 75.2509 454.945 73.9198 454.017 72.961C453.591 72.4918 453.07 72.1186 452.488 71.866C451.907 71.6134 451.278 71.4873 450.645 71.4959C449.341 71.4959 448.222 71.9908 447.286 72.9757C446.35 73.9606 445.885 75.2705 445.885 76.8957C445.885 78.5209 446.35 79.8324 447.286 80.8157C447.709 81.2865 448.227 81.6619 448.806 81.9171C449.385 82.1722 450.012 82.3012 450.645 82.2955V82.2661Z" fill="#5F6368"/>
<g clip-path="url(#clip0_3764_27833)">
<path fill-rule="evenodd" clip-rule="evenodd" d="M608.967 22.3469L597.301 46.0251L617.841 70.015L579.719 74.3763L638.873 75L608.967 22.3469Z" fill="#035BDA"/>
<path fill-rule="evenodd" clip-rule="evenodd" d="M606.666 13L579.883 35.588L560 69.392L576.925 67.6781L606.666 13Z" fill="#035BDA"/>
<path d="M661.233 36.9067L648.422 68.563H652.778L656.109 59.6886H670.27L673.81 68.563H678.142L665.285 36.9067H661.233ZM663.142 40.7475H663.235C663.406 41.7189 663.577 42.4257 663.748 42.8672L668.988 56.3555H657.413L662.607 42.8672C662.809 42.3521 662.987 41.6453 663.142 40.7475ZM762.195 45.428C759.074 45.428 756.458 46.5388 754.346 48.7611C752.25 50.9686 751.202 53.8316 751.202 57.349C751.202 61.0724 752.165 63.9639 754.09 66.0242C756.016 68.0699 758.663 69.0928 762.032 69.0928C765.48 69.0928 768.251 68.3721 770.348 66.9298V63.5301C768.096 65.2078 765.627 66.0462 762.941 66.0462C760.55 66.0462 758.671 65.3619 757.305 63.9932C755.938 62.6245 755.224 60.6819 755.162 58.1653H772.001V56.2669C772.001 52.8672 771.147 50.2112 769.439 48.298C767.731 46.3847 765.317 45.428 762.195 45.428ZM745.13 45.5606C743.748 45.5606 742.498 46.0095 741.38 46.9073C740.262 47.7903 739.432 49.0261 738.888 50.6155H738.795V45.9577H734.975V68.563H738.795V57.0398C738.795 54.5232 739.339 52.5363 740.426 51.0793C741.528 49.6223 742.894 48.8937 744.525 48.8937C745.783 48.8937 746.745 49.1363 747.413 49.622V45.8691C746.885 45.6631 746.124 45.5606 745.13 45.5606ZM682.025 45.9577V49.0483H694.812L680.697 67.4376V68.563H700.285V65.4725H686.31L700.425 46.9952V45.9577H682.025ZM706.17 45.9577V59.468C706.17 65.8847 709.013 69.0928 714.696 69.0928C718.019 69.0928 720.472 67.7241 722.056 64.9867H722.148V68.563H725.969V45.9577H722.148V58.9822C722.148 61.0868 721.543 62.794 720.332 64.1038C719.137 65.3989 717.607 66.0462 715.744 66.0462C711.893 66.0462 709.967 63.6626 709.967 58.8943V45.9577H706.17ZM762.126 48.4745C763.989 48.4745 765.441 49.0557 766.482 50.2184C767.538 51.381 768.073 53.0069 768.088 55.0967H755.208C755.503 53.1246 756.28 51.5279 757.537 50.3063C758.795 49.0848 760.325 48.4745 762.126 48.4745Z" fill="#035BDA"/>
</g>
<g clip-path="url(#clip1_3764_27833)">
<path fill-rule="evenodd" clip-rule="evenodd" d="M893 80.0767H966.783L1039 7.9101H893V80.0767Z" fill="url(#paint0_linear_3764_27833)"/>
<path fill-rule="evenodd" clip-rule="evenodd" d="M979.643 21.4773H965.274V55.6196L952.717 21.4729H940.27L929.548 50.023C928.413 42.8261 920.96 40.351 915.095 38.4737C911.215 37.2339 907.119 35.3963 907.176 33.3827C907.202 31.7253 909.376 30.1865 913.679 30.4195C916.569 30.5734 919.125 30.802 924.189 33.2508L929.174 24.5636C924.091 22.116 918.537 20.802 912.895 20.7123H912.86C906.745 20.7123 901.645 22.6995 898.491 25.9572C896.304 28.2004 895.07 31.2011 895.046 34.3323C894.967 38.7287 896.581 41.8633 899.987 44.3605C902.846 46.4619 906.52 47.8248 909.754 48.8316C913.74 50.0626 916.996 51.1353 916.956 53.4258C916.939 54.2634 916.604 55.0632 916.019 55.6636C915.02 56.6923 913.494 57.0792 911.386 57.1188C907.308 57.2023 904.29 56.5648 899.507 53.7248L895.068 62.5175C900.032 65.3317 905.639 66.8201 911.347 66.8392H912.095C917.141 66.7512 921.211 65.3048 924.467 62.6934C924.643 62.5483 924.819 62.3944 924.99 62.2537L923.551 66.105H936.557L938.757 59.4445C943.681 61.0409 948.981 61.0624 953.918 59.506L956.03 66.1006H977.316V52.3135H981.962C993.181 52.3135 999.829 46.5982 999.829 37.0317C999.834 26.3749 993.379 21.4773 979.643 21.4773ZM946.43 50.7001C944.862 50.7061 943.307 50.4306 941.837 49.8867L946.395 35.5281H946.487L950.953 49.9263C949.502 50.4457 947.971 50.7075 946.43 50.7001ZM980.488 42.4437H977.32V30.868H980.488C984.712 30.868 988.073 32.2704 988.073 36.5833C988.073 41.0368 984.712 42.4393 980.488 42.4393" fill="white"/>
<path d="M984.445 75.399C984.467 74.6533 984.708 73.9305 985.138 73.3208C985.568 72.711 986.168 72.2413 986.864 71.9702C987.559 71.6991 988.319 71.6386 989.049 71.7963C989.778 71.9539 990.445 72.3228 990.967 72.8568C991.488 73.3909 991.84 74.0664 991.98 74.7993C992.119 75.5321 992.04 76.2897 991.751 76.9777C991.462 77.6656 990.977 78.2534 990.356 78.6677C989.736 79.082 989.007 79.3044 988.26 79.3073C987.75 79.3105 987.245 79.2109 986.774 79.0144C986.303 78.8179 985.877 78.5285 985.521 78.1637C985.165 77.7988 984.886 77.3659 984.701 76.8908C984.516 76.4158 984.429 75.9084 984.445 75.399ZM988.26 80.0899C989.183 80.076 990.082 79.7899 990.843 79.2675C991.604 78.745 992.194 78.0095 992.538 77.1534C992.882 76.2972 992.965 75.3585 992.777 74.4552C992.589 73.5518 992.138 72.7241 991.481 72.076C990.824 71.4279 989.99 70.9882 989.084 70.8121C988.177 70.6361 987.239 70.7316 986.387 71.0866C985.534 71.4416 984.806 72.0403 984.293 72.8076C983.78 73.5748 983.506 74.4763 983.504 75.399C983.502 76.0207 983.624 76.6366 983.863 77.2106C984.103 77.7845 984.454 78.3051 984.897 78.7419C985.34 79.1787 985.865 79.5228 986.443 79.7543C987.02 79.9857 987.638 80.0998 988.26 80.0899ZM987.266 75.7683H988.207L989.628 78.1027H990.548L989.008 75.7287C989.8 75.6364 990.411 75.2099 990.411 74.2427C990.411 73.1832 989.778 72.7084 988.506 72.7084H986.447V78.1027H987.266V75.7683ZM987.266 75.0692V73.4162H988.383C988.942 73.4162 989.549 73.5349 989.549 74.2075C989.549 75.0429 988.933 75.0868 988.229 75.0868L987.266 75.0692Z" fill="#225FBC"/>
</g>
<g clip-path="url(#clip2_3764_27833)">
<path d="M37.4814 45.6912C37.4814 47.317 37.6573 48.6353 37.968 49.6019C38.3607 50.6896 38.8337 51.747 39.3831 52.7655C39.5802 53.0665 39.6877 53.4167 39.6932 53.7758C39.6932 54.2154 39.4277 54.6545 38.8526 55.0941L36.0657 56.9394C35.6676 57.2031 35.2696 57.3347 34.9155 57.3347C34.4735 57.3347 34.0309 57.1152 33.5889 56.7198C32.9926 56.0836 32.4592 55.392 31.9961 54.6544C31.5541 53.9074 31.1115 53.0729 30.6249 52.0621C27.1744 56.1044 22.8395 58.1255 17.6202 58.1255C13.9041 58.1255 10.9407 57.071 8.77347 54.9619C6.6062 52.8528 5.5 50.041 5.5 46.5262C5.5 42.7914 6.82662 39.7594 9.52501 37.4751C12.2234 35.1908 15.8064 34.0477 20.3625 34.0477C21.8668 34.0477 23.415 34.1793 25.0523 34.3971C26.6896 34.6149 28.3697 34.9683 30.139 35.3637V32.1582C30.1384 28.8205 29.429 26.4914 28.0596 25.1282C26.6439 23.7662 24.255 23.1071 20.8491 23.1071C19.2394 23.1071 17.6356 23.2988 16.0719 23.6783C14.446 24.0635 12.8496 24.5628 11.2948 25.1725C10.7917 25.3959 10.2746 25.5867 9.7466 25.7437C9.43649 25.8316 9.21548 25.8753 9.03844 25.8753C8.41939 25.8753 8.10987 25.4362 8.10987 24.5133V22.3588C8.10987 21.6554 8.19839 21.1284 8.41939 20.821C8.6404 20.5136 9.03844 20.2055 9.65808 19.8981C11.2065 19.1073 13.0642 18.4484 15.2313 17.9212C17.3992 17.3494 19.6977 17.0879 22.1317 17.0879C27.396 17.0879 31.244 18.2741 33.7214 20.6469C36.1542 23.0197 37.3929 26.6224 37.3929 31.4554V45.6912H37.4814ZM19.5219 52.3695C20.9822 52.3695 22.4858 52.1063 24.078 51.5788C25.6702 51.0512 27.0865 50.0852 28.2806 48.7669C28.9882 47.9319 29.5193 47.0096 29.7843 45.955C30.0493 44.9005 30.2269 43.6259 30.2269 42.1323V40.287C28.8855 39.9627 27.5268 39.7133 26.1573 39.5399C24.7782 39.3659 23.3895 39.2778 21.9993 39.2761C19.0353 39.2761 16.868 39.8474 15.4083 41.0341C13.9486 42.2208 13.2393 43.8873 13.2393 46.0866C13.2393 48.152 13.7669 49.6898 14.8761 50.7449C15.9371 51.8432 17.4853 52.3701 19.5201 52.3701L19.5219 52.3695ZM55.0423 57.1152C54.2462 57.1152 53.7151 56.983 53.3616 56.6756C53.0099 56.4118 52.698 55.7969 52.4324 54.9619L42.0375 20.9986C41.772 20.1193 41.6395 19.5481 41.6395 19.2407C41.6395 18.5378 41.9912 18.1425 42.7011 18.1425H47.0357C47.8763 18.1425 48.4514 18.2741 48.7609 18.5815C49.1127 18.8453 49.3806 19.4608 49.6455 20.2952L57.0771 49.3818L63.9775 20.2952C64.1991 19.4165 64.4641 18.8453 64.8182 18.5815C65.1722 18.3177 65.7913 18.1425 66.5874 18.1425H70.1264C70.9665 18.1425 71.5416 18.2741 71.8956 18.5815C72.2474 18.8453 72.5592 19.4608 72.7363 20.2952L79.727 49.7335L87.3778 20.2952C87.6428 19.4165 87.9529 18.8453 88.2624 18.5815C88.6141 18.3183 89.191 18.1425 89.9877 18.1425H94.1012C94.8087 18.1425 95.2068 18.4918 95.2068 19.2407C95.2068 19.4608 95.1628 19.6803 95.1189 19.9441C95.0492 20.3187 94.9454 20.6863 94.8088 21.0423L84.1483 55.0062C83.8833 55.8846 83.5738 56.4559 83.2197 56.7198C82.868 56.983 82.2906 57.1589 81.5384 57.1589H77.7338C76.8938 57.1589 76.3187 57.0273 75.9646 56.7198C75.6105 56.4124 75.301 55.8412 75.124 54.9619L68.2651 26.6224L61.4532 54.9182C61.2322 55.7969 60.9667 56.3681 60.6132 56.6756C60.2597 56.983 59.6395 57.1152 58.8434 57.1152H55.0423ZM111.884 58.3013C109.59 58.3037 107.303 58.0383 105.071 57.5106C102.859 56.983 101.135 56.4118 99.9845 55.7532C99.2764 55.3573 98.7898 54.9182 98.6133 54.5229C98.4411 54.1351 98.3507 53.7163 98.3478 53.2925V51.0518C98.3478 50.1289 98.6995 49.6898 99.3649 49.6898C99.6358 49.6906 99.9049 49.7351 100.162 49.8214C100.427 49.9094 100.825 50.0852 101.267 50.2611C102.83 50.9433 104.461 51.4588 106.133 51.7989C107.866 52.147 109.629 52.3225 111.397 52.323C114.183 52.323 116.351 51.8397 117.855 50.8731C119.359 49.9064 120.155 48.5002 120.155 46.6992C120.155 45.4688 119.757 44.4579 118.961 43.6235C118.165 42.7891 116.659 42.0444 114.494 41.3398L108.079 39.36C104.85 38.3497 102.461 36.8561 101.002 34.8763C99.5419 32.9431 98.7898 30.7898 98.7898 28.5055C98.7898 26.6596 99.188 25.0339 99.9845 23.6282C100.774 22.2146 101.86 20.9859 103.169 20.025C104.496 19.0147 106 18.2677 107.77 17.7407C109.539 17.2137 111.397 17 113.343 17C114.334 16.9923 115.324 17.0506 116.307 17.1747C117.325 17.3063 118.254 17.4821 119.18 17.658C120.064 17.8775 120.905 18.097 121.701 18.3608C122.496 18.6246 123.116 18.8884 123.558 19.1516C124.178 19.5009 124.62 19.855 124.886 20.2504C125.151 20.5997 125.284 21.083 125.284 21.7003V23.7662C125.284 24.6892 124.932 25.1725 124.266 25.1725C123.914 25.1725 123.337 24.9978 122.585 24.6449C120.064 23.5032 117.233 22.9322 114.092 22.9318C111.571 22.9318 109.578 23.3272 108.209 24.1616C106.84 24.996 106.13 26.2707 106.13 28.0723C106.13 29.3027 106.572 30.3572 107.457 31.1916C108.342 32.026 109.978 32.8616 112.323 33.6087L118.604 35.5856C121.789 36.5964 124.089 38.0021 125.463 39.8037C126.836 41.6053 127.498 43.6701 127.498 45.955C127.498 47.844 127.1 49.5577 126.348 51.0518C125.551 52.5454 124.49 53.8637 123.119 54.9182C121.747 56.0164 120.111 56.8078 118.208 57.3784C116.215 57.9939 114.139 58.3013 111.883 58.3013H111.884Z" fill="#252F3E"/>
<path d="M120.245 79.6545C105.692 90.3314 84.5472 95.9995 66.3673 95.9995C40.8883 95.9995 17.9306 86.6409 0.593027 71.0867C-0.778149 69.8563 0.460541 68.1869 2.09728 69.1535C20.8523 79.962 43.987 86.5087 67.9178 86.5087C84.063 86.5087 101.802 83.1693 118.124 76.3151C120.557 75.2169 122.638 77.8972 120.247 79.6545H120.245Z" fill="#FF9900"/>
<path d="M126.304 72.801C124.446 70.4281 114.007 71.6585 109.274 72.2297C107.858 72.4044 107.637 71.1752 108.922 70.2499C117.239 64.4503 130.906 66.1198 132.499 68.053C134.092 70.0328 132.057 83.6071 124.272 90.1102C123.077 91.1204 121.927 90.5935 122.458 89.2752C124.225 84.9278 128.162 75.1295 126.304 72.801Z" fill="#FF9900"/>
</g>
<defs>
<linearGradient id="paint0_linear_3764_27833" x1="966" y1="80.1822" x2="966" y2="8.01121" gradientUnits="userSpaceOnUse">
<stop stop-color="#225FBC"/>
<stop offset="1" stop-color="#1FB2F0"/>
</linearGradient>
<clipPath id="clip0_3764_27833">
<rect width="212" height="62" fill="white" transform="translate(560 13)"/>
</clipPath>
<clipPath id="clip1_3764_27833">
<rect width="146" height="72.1798" fill="white" transform="translate(893 7.9101)"/>
</clipPath>
<clipPath id="clip2_3764_27833">
<rect width="133" height="79" fill="white" transform="translate(0 17)"/>
</clipPath>
</defs>
</svg>
