<svg width="21" height="21" viewBox="0 0 21 21" fill="none" xmlns="http://www.w3.org/2000/svg">
<path d="M7.91211 13.0879C8.62826 13.804 9.49089 14.1621 10.5 14.1621C11.5091 14.1621 12.3717 13.804 13.0879 13.0879C13.804 12.3717 14.1621 11.5091 14.1621 10.5C14.1621 9.49089 13.804 8.62826 13.0879 7.91211C12.3717 7.19596 11.5091 6.83789 10.5 6.83789C9.49089 6.83789 8.62826 7.19596 7.91211 7.91211C7.19596 8.62826 6.83789 9.49089 6.83789 10.5C6.83789 11.5091 7.19596 12.3717 7.91211 13.0879ZM18.2637 11.5254L20.4609 13.2344C20.6888 13.3971 20.7214 13.625 20.5586 13.918L18.459 17.5312C18.3288 17.7591 18.1172 17.8242 17.8242 17.7266L15.2363 16.7012C14.5527 17.1895 13.9668 17.5312 13.4785 17.7266L13.0879 20.4609C13.0228 20.7539 12.86 20.9004 12.5996 20.9004H8.40039C8.13997 20.9004 7.97721 20.7539 7.91211 20.4609L7.52148 17.7266C6.90299 17.4661 6.31706 17.1243 5.76367 16.7012L3.17578 17.7266C2.88281 17.8242 2.67122 17.7591 2.54102 17.5312L0.441406 13.918C0.278646 13.625 0.311198 13.3971 0.539062 13.2344L2.73633 11.5254C2.70378 11.2975 2.6875 10.9557 2.6875 10.5C2.6875 10.0443 2.70378 9.70247 2.73633 9.47461L0.539062 7.76562C0.311198 7.60286 0.278646 7.375 0.441406 7.08203L2.54102 3.46875C2.67122 3.24089 2.88281 3.17578 3.17578 3.27344L5.76367 4.29883C6.44727 3.81055 7.0332 3.46875 7.52148 3.27344L7.91211 0.539062C7.97721 0.246094 8.13997 0.0996094 8.40039 0.0996094H12.5996C12.86 0.0996094 13.0228 0.246094 13.0879 0.539062L13.4785 3.27344C14.097 3.53385 14.6829 3.87565 15.2363 4.29883L17.8242 3.27344C18.1172 3.17578 18.3288 3.24089 18.459 3.46875L20.5586 7.08203C20.7214 7.375 20.6888 7.60286 20.4609 7.76562L18.2637 9.47461C18.2962 9.70247 18.3125 10.0443 18.3125 10.5C18.3125 10.9557 18.2962 11.2975 18.2637 11.5254Z" fill="#121212"/>
</svg>
