<svg width="53" height="45" viewBox="0 0 53 45" fill="none" xmlns="http://www.w3.org/2000/svg">
<path opacity="0.3" d="M33.1002 44.6026V30.4026C33.1002 26.9359 33.2335 23.8026 33.5002 21.0026C33.9002 18.2026 34.3669 15.6026 34.9002 13.2026C35.5669 10.8026 36.3669 8.53589 37.3002 6.40256C38.2335 4.26923 39.3669 2.13589 40.7002 0.00256348H52.7002C49.7669 4.26923 47.5002 8.5359 45.9002 12.8026C44.3002 17.0692 43.5002 21.3359 43.5002 25.6026H52.1002V44.6026H33.1002ZM0.700195 44.6026V30.4026C0.700195 26.9359 0.833529 23.8026 1.1002 21.0026C1.5002 18.2026 2.03353 15.6026 2.7002 13.2026C3.36686 10.8026 4.16686 8.53589 5.1002 6.40256C6.03353 4.26923 7.16686 2.13589 8.5002 0.00256348H20.3002C17.3669 4.26923 15.1002 8.5359 13.5002 12.8026C11.9002 17.0692 11.1002 21.3359 11.1002 25.6026H19.7002V44.6026H0.700195Z" fill="#F20024"/>
</svg>
