<svg width="77" height="70" viewBox="0 0 77 70" fill="none" xmlns="http://www.w3.org/2000/svg">
<g clip-path="url(#clip0_5613_31526)">
<path d="M23.3271 25.6465H53.263C54.2739 25.6465 55.1292 24.789 55.1292 23.6977V16.2144C55.1292 15.1231 54.2739 14.2656 53.263 14.2656H46.8093C46.1873 14.2656 45.7207 14.8113 45.7207 15.4349C45.7207 16.0585 46.1873 16.6042 46.8093 16.6042H52.8742V23.3079H23.6381V16.6042H39.6558C40.2778 16.6042 40.7444 16.0585 40.7444 15.4349C40.7444 14.8113 40.2778 14.2656 39.6558 14.2656H23.3271C22.3163 14.2656 21.4609 15.1231 21.4609 16.2144V23.6977C21.4609 24.789 22.2385 25.6465 23.3271 25.6465Z" fill="#FE4817"/>
<path d="M22.3933 30.7135H26.6698C27.2919 30.7135 27.7584 30.1679 27.7584 29.5443C27.7584 28.9207 27.2919 28.375 26.6698 28.375H22.3933C21.7712 28.375 21.3047 28.9207 21.3047 29.5443C21.3047 30.1679 21.7712 30.7135 22.3933 30.7135Z" fill="#FE4817"/>
<path d="M54.119 28.375H49.8425C49.2204 28.375 48.7539 28.9207 48.7539 29.5443C48.7539 30.1679 49.2204 30.7135 49.8425 30.7135H54.119C54.7411 30.7135 55.2076 30.1679 55.2076 29.5443C55.2076 28.9207 54.7411 28.375 54.119 28.375Z" fill="#FE4817"/>
<path d="M40.8224 29.5443C40.8224 28.9207 40.3559 28.375 39.7338 28.375H30.0144C29.3923 28.375 28.9258 28.9207 28.9258 29.5443C28.9258 30.1679 29.3923 30.7135 30.0144 30.7135H39.6561C40.3559 30.7135 40.8224 30.1679 40.8224 29.5443Z" fill="#FE4817"/>
<path d="M47.4312 29.5443C47.4312 28.9207 46.9647 28.375 46.3426 28.375H43.0769C42.4548 28.375 41.9883 28.9207 41.9883 29.5443C41.9883 30.1679 42.4548 30.7135 43.0769 30.7135H46.3426C46.8869 30.7135 47.4312 30.1679 47.4312 29.5443Z" fill="#FE4817"/>
<path d="M22.3933 35.5456H24.1816C24.8037 35.5456 25.2702 34.9999 25.2702 34.3763C25.2702 33.7527 24.8037 33.207 24.1816 33.207H22.3933C21.7712 33.207 21.3047 33.7527 21.3047 34.3763C21.3047 35.0779 21.7712 35.5456 22.3933 35.5456Z" fill="#FE4817"/>
<path d="M27.6042 33.2852C26.9822 33.2852 26.5156 33.8308 26.5156 34.4544C26.5156 35.078 26.9822 35.6237 27.6042 35.6237H33.0471C33.6692 35.6237 34.1357 35.078 34.1357 34.4544C34.1357 33.8308 33.6692 33.2852 33.0471 33.2852H27.6042Z" fill="#FE4817"/>
<path d="M45.4085 35.5456H53.9616C54.5837 35.5456 55.0502 34.9999 55.0502 34.3763C55.0502 33.7527 54.5837 33.207 53.9616 33.207H45.4085C44.7865 33.207 44.3199 33.7527 44.3199 34.3763C44.2422 35.0779 44.7865 35.5456 45.4085 35.5456Z" fill="#FE4817"/>
<path d="M36.3112 35.5456H42.0652C42.6872 35.5456 43.1537 34.9999 43.1537 34.3763C43.1537 33.7527 42.6872 33.207 42.0652 33.207H36.3112C35.6892 33.207 35.2227 33.7527 35.2227 34.3763C35.2227 35.0779 35.6892 35.5456 36.3112 35.5456Z" fill="#FE4817"/>
<path d="M17.3382 47.7838H32.6561C33.2781 47.7838 33.7447 47.2382 33.7447 46.6146C33.7447 45.991 33.2781 45.4453 32.6561 45.4453H17.3382C16.7161 45.4453 16.2496 45.991 16.2496 46.6146C16.1719 47.3161 16.7161 47.7838 17.3382 47.7838Z" fill="#FE4817"/>
<path d="M36.7019 47.7838H43.0778C43.6999 47.7838 44.1664 47.2382 44.1664 46.6146C44.1664 45.991 43.6999 45.4453 43.0778 45.4453H36.7019C36.0798 45.4453 35.6133 45.991 35.6133 46.6146C35.6133 47.3161 36.0798 47.7838 36.7019 47.7838Z" fill="#FE4817"/>
<path d="M46.1094 46.6927C46.1094 47.3163 46.5759 47.862 47.198 47.862H59.1724C59.7944 47.862 60.2609 47.3163 60.2609 46.6927C60.2609 46.0691 59.7944 45.5234 59.1724 45.5234H47.2757C46.6537 45.5234 46.1094 45.9911 46.1094 46.6927Z" fill="#FE4817"/>
<path d="M24.9583 50.2793H17.2605C16.6384 50.2793 16.1719 50.825 16.1719 51.4486C16.1719 52.0722 16.6384 52.6178 17.2605 52.6178H24.9583C25.5803 52.6178 26.0469 52.0722 26.0469 51.4486C26.1246 50.747 25.5803 50.2793 24.9583 50.2793Z" fill="#FE4817"/>
<path d="M47.2737 50.2793H30.323C29.7009 50.2793 29.2344 50.825 29.2344 51.4486C29.2344 52.0722 29.7009 52.6178 30.323 52.6178H47.1959C47.818 52.6178 48.2845 52.0722 48.2845 51.4486C48.3623 50.747 47.8957 50.2793 47.2737 50.2793Z" fill="#FE4817"/>
<path d="M59.1733 50.2793H50.698C50.0759 50.2793 49.6094 50.825 49.6094 51.4486C49.6094 52.0722 50.0759 52.6178 50.698 52.6178H59.1733C59.7954 52.6178 60.2619 52.0722 60.2619 51.4486C60.3397 50.747 59.7954 50.2793 59.1733 50.2793Z" fill="#FE4817"/>
<path d="M74.2567 65.0891C74.2567 66.4922 73.0904 67.7394 71.6908 67.7394H4.82085C3.42125 67.7394 2.25492 66.5702 2.25492 65.0891V59.3207H25.0373L26.5147 62.7506C26.8257 63.4521 27.4478 63.9198 28.2253 63.9198H48.2863C49.0639 63.9198 49.6859 63.4521 49.9969 62.7506L51.4743 59.3207H74.2567V65.0891V65.0891ZM6.60924 15.5902C6.60924 14.343 7.62006 13.2517 8.86415 13.2517H16.0177V16.3697H12.6742C11.3523 16.3697 10.3415 17.461 10.3415 18.7862V56.9042H6.60924V15.5902ZM48.9861 59.3207L48.053 61.5813H28.4586L27.4478 59.3207H48.9861ZM20.994 41.4699H55.5953C58.3168 41.4699 60.5717 39.2094 60.5717 36.3252V18.7082H63.9152C63.9929 18.7082 64.0707 18.7862 64.0707 18.8641V44.1982C64.0707 44.8218 64.5372 45.3675 65.1593 45.3675C65.7813 45.3675 66.2479 44.8218 66.2479 44.1982V18.8641C66.2479 17.539 65.1593 16.4477 63.9152 16.4477H60.5717V13.3296H67.6475C68.8916 13.3296 69.9024 14.343 69.9024 15.6682V57.0601H66.2479V51.4477C66.2479 50.8241 65.7813 50.2784 65.1593 50.2784C64.5372 50.2784 64.0707 50.8241 64.0707 51.4477V57.0601H12.5187V18.8641C12.5187 18.7862 12.5964 18.7082 12.6742 18.7082H16.0177V36.3252C15.9399 39.2094 18.1948 41.4699 20.994 41.4699ZM18.1948 12.0824H58.3168V36.4031C58.3168 37.9621 57.0727 39.2094 55.5953 39.2094H20.994C19.5167 39.2094 18.2726 37.9621 18.2726 36.4031V12.0824H18.1948ZM18.1948 5.14477C18.1948 3.58575 19.4389 2.33853 20.9163 2.33853H55.5176C56.9949 2.33853 58.239 3.58575 58.239 5.14477V9.82183H18.1948V5.14477ZM75.423 56.9822H72.1573V15.5902C72.1573 13.0178 70.1357 10.9911 67.6475 10.9911H60.4939V5.14477C60.5717 2.26058 58.3168 0 55.5176 0H20.994C18.2726 0 16.0177 2.26058 16.0177 5.14477V10.9911H8.86415C6.37597 10.9911 4.35432 13.0178 4.35432 15.5902V56.9822H1.08858C0.466534 56.9822 0 57.5278 0 58.1514V65.0891C0 67.8174 2.17716 70 4.82085 70H71.7685C74.4122 70 76.5894 67.8174 76.5894 65.0891V58.1514C76.5116 57.5278 76.0451 56.9822 75.423 56.9822Z" fill="#FE4817"/>
<path d="M22.3157 4.98885C22.238 4.98885 22.1602 4.9109 22.0824 4.9109C21.6937 4.83295 21.3049 4.98885 21.0716 5.22271C20.3718 5.92427 20.9161 7.17148 21.8492 7.17148C21.9269 7.17148 22.0047 7.17148 22.0824 7.17148C22.549 7.09353 22.86 6.70378 22.9378 6.23607C22.9378 6.15812 22.9378 6.08017 22.9378 6.00222C22.9378 5.69041 22.7822 5.37861 22.6267 5.22271C22.549 5.14476 22.4712 5.0668 22.3157 4.98885Z" fill="#FE4817"/>
<path d="M25.9703 4.9109C25.6593 4.83295 25.1927 4.98885 24.9595 5.22271C24.7262 5.45656 24.6484 5.76836 24.6484 6.00222C24.6484 6.46992 24.8817 6.85968 25.3482 7.09353C25.426 7.09353 25.5038 7.17148 25.5815 7.17148C25.6593 7.17148 25.737 7.17148 25.8148 7.17148C25.9703 7.17148 26.1258 7.17148 26.2813 7.09353C26.2813 7.09353 26.3591 7.01558 26.4368 7.01558C26.5146 7.01558 26.5923 6.93763 26.5923 6.85968C26.8256 6.62582 26.9034 6.31402 26.9034 6.08017C26.9034 5.76836 26.7478 5.45656 26.5923 5.30066C26.4368 5.0668 26.2036 4.9109 25.9703 4.9109Z" fill="#FE4817"/>
<path d="M29.4686 4.91168C29.3908 4.91168 29.3131 4.91168 29.2353 4.98963C29.1576 4.98963 29.0798 5.06758 29.0798 5.06758C29.0021 5.14553 28.9243 5.14553 28.9243 5.22348C28.691 5.45733 28.6133 5.76914 28.6133 6.00299C28.6133 6.54865 29.0021 7.01635 29.5464 7.0943C29.6241 7.0943 29.7019 7.0943 29.7796 7.0943C30.0906 7.0943 30.5572 6.86045 30.7127 6.54865C30.7904 6.39274 30.8682 6.08094 30.8682 5.92504C30.7904 5.30143 30.1684 4.75577 29.4686 4.91168Z" fill="#FE4817"/>
</g>
<defs>
<clipPath id="clip0_5613_31526">
<rect width="76.5116" height="70" fill="white"/>
</clipPath>
</defs>
</svg>
