<svg width="1170" height="680" viewBox="0 0 1170 680" fill="none" xmlns="http://www.w3.org/2000/svg">
<g opacity="0.5">
<mask id="mask0_3555_27393" style="mask-type:alpha" maskUnits="userSpaceOnUse" x="0" y="0" width="1170" height="680">
<rect width="1170" height="679.994" transform="matrix(-1 0 0 1 1170 0.00585938)" fill="#C4C4C4"/>
</mask>
<g mask="url(#mask0_3555_27393)">
<path d="M870.001 680H551.709C354.71 461.165 143.228 239.89 -78.8413 23.4161V-138.133H77.1383C359.304 129.661 626.108 407.076 870.001 680Z" fill="#F20024"/>
<path d="M557.342 680H295.978C134.213 500.32 -39.4445 318.638 -221.795 140.896V8.25287H-93.7135C137.986 228.131 357.071 455.909 557.342 680Z" fill="#990017"/>
</g>
</g>
<rect width="1170" height="680" transform="matrix(-1 0 0 1 1170 0)" fill="url(#paint0_linear_3555_27393)"/>
<defs>
<linearGradient id="paint0_linear_3555_27393" x1="995.5" y1="309.843" x2="204.331" y2="295.061" gradientUnits="userSpaceOnUse">
<stop stop-opacity="0.9"/>
<stop offset="1" stop-opacity="0.4"/>
</linearGradient>
</defs>
</svg>
