<svg width="40" height="40" viewBox="0 0 40 40" fill="none" xmlns="http://www.w3.org/2000/svg">
<path fill-rule="evenodd" clip-rule="evenodd" d="M16.7805 22.439V32C16.7805 32.1951 16.8781 32.2926 17.0732 32.2926H21.4635C21.6586 32.2926 21.7562 32.1951 21.7562 32L21.7562 19.9024H24.9757C25.1708 19.9024 25.2683 19.8048 25.2683 19.6097L25.561 15.9024C25.561 15.7073 25.4635 15.6097 25.2683 15.6097L21.7562 15.6097V12.9756C21.7562 12.3902 22.244 11.9024 22.8293 11.9024H25.2683C25.4635 11.9024 25.561 11.8048 25.561 11.6097V7.99996C25.561 7.80484 25.4635 7.70728 25.2683 7.70728L21.0732 7.70728C18.6342 7.70728 16.5854 9.65849 16.5854 12.1951V15.6097H14.3415C14.1464 15.6097 14.0488 15.7073 14.0488 15.9024V19.6097C14.0488 19.8048 14.1464 19.9024 14.3415 19.9024H16.5854L16.5854 22.439H16.7805Z" fill="white"/>
</svg>
