<svg width="41" height="40" viewBox="0 0 41 40" fill="none" xmlns="http://www.w3.org/2000/svg">
<path d="M31.5004 21C30.9481 21 30.5004 20.5523 30.5004 20C30.5004 19.4477 30.9481 19 31.5004 19L31.5004 21ZM32.3075 19.2929C32.698 19.6834 32.698 20.3166 32.3075 20.7071L25.9435 27.0711C25.553 27.4616 24.9198 27.4616 24.5293 27.0711C24.1388 26.6805 24.1388 26.0474 24.5293 25.6569L30.1861 20L24.5293 14.3431C24.1388 13.9526 24.1388 13.3195 24.5293 12.9289C24.9198 12.5384 25.553 12.5384 25.9435 12.9289L32.3075 19.2929ZM31.5004 19L31.6004 19L31.6004 21L31.5004 21L31.5004 19Z" fill="white"/>
<path d="M8.50036 21C9.05265 21 9.50036 20.5523 9.50036 20C9.50036 19.4477 9.05265 19 8.50036 19L8.50036 21ZM7.69325 19.2929C7.30273 19.6834 7.30273 20.3166 7.69325 20.7071L14.0572 27.0711C14.4477 27.4616 15.0809 27.4616 15.4714 27.0711C15.862 26.6805 15.862 26.0474 15.4714 25.6569L9.81457 20L15.4714 14.3431C15.862 13.9526 15.862 13.3195 15.4714 12.9289C15.0809 12.5384 14.4477 12.5384 14.0572 12.9289L7.69325 19.2929ZM8.50036 19L8.40036 19L8.40036 21L8.50036 21L8.50036 19Z" fill="white"/>
</svg>
