<svg width="40" height="40" viewBox="0 0 40 40" fill="none" xmlns="http://www.w3.org/2000/svg">
<path d="M11.0245 29.2683L11.0245 15.6098H15.3171L15.3171 29.2683H11.0245ZM13.1708 8.78052C14.5366 8.78052 15.6098 9.85369 15.6098 11.2195C15.6098 12.5854 14.5366 13.6586 13.1708 13.6586C11.8049 13.6586 10.7318 12.5854 10.7318 11.2195C10.6342 9.85369 11.8049 8.78052 13.1708 8.78052Z" fill="white"/>
<path d="M22.1463 15.6098V17.4634C22.9268 16.3903 24.0976 15.2195 26.1464 15.2195C30.439 15.2195 31.2195 18.0488 31.2195 21.7561V29.2683H26.9268V22.6342C26.9268 21.0732 26.9268 19.0244 24.6829 19.0244C22.439 19.0244 22.1463 20.7805 22.1463 22.5366L22.1463 29.3659L17.8537 29.3659L17.8537 15.6098L22.1463 15.6098Z" fill="white"/>
</svg>
