<svg width="40" height="40" viewBox="0 0 40 40" fill="none" xmlns="http://www.w3.org/2000/svg">
<path d="M26.9268 24.4879C27.9024 23.122 28.7804 21.561 29.1707 19.9025C29.5609 18.3415 29.756 16.7805 29.756 15.2196C29.756 15.0244 29.9512 15.0244 30.0487 14.9269C30.8292 14.3415 31.4146 13.6586 31.9999 12.9757C32.0975 12.7805 32.0975 12.683 32.0975 12.5854C32.0975 12.4879 32.0975 12.5854 31.9999 12.5854C31.2195 12.9757 30.439 13.1708 29.5609 13.2683C29.9512 13.1708 30.5365 12.4879 30.7316 12.1952C31.1219 11.8049 31.4146 11.2196 31.5121 10.7318V10.6342C31.4146 10.6342 31.4146 10.6342 31.4146 10.6342C30.5365 11.122 29.5609 11.5122 28.4877 11.7074C28.3902 11.7074 28.3902 11.7074 28.2926 11.6098C28.1951 11.5122 28.0975 11.4147 27.9999 11.3171C27.6097 10.9269 27.1219 10.6342 26.6341 10.4391C25.9512 10.1464 25.2682 10.0488 24.4877 10.0488C23.8048 10.0488 23.1219 10.3415 22.439 10.6342C21.8536 10.9269 21.2682 11.4147 20.7804 12C20.2926 12.5854 19.9999 13.2683 19.8048 13.9513C19.6097 14.6342 19.6097 15.3171 19.7073 16L16.5853 15.5122C13.9512 14.7318 11.6097 13.3659 9.65847 11.122C9.56091 11.0244 9.46335 11.0244 9.36579 11.122C8.19506 12.8781 8.78043 15.7074 10.2438 17.0732C10.439 17.2683 10.6341 17.4635 10.8292 17.561C10.7316 17.561 9.75604 17.4635 8.87799 17.0732C8.78043 16.9757 8.68286 17.0732 8.68286 17.1708C8.68286 17.3659 8.68286 17.561 8.68286 17.7561C8.87799 19.5122 10.1463 21.1708 11.8048 21.8537C11.9999 21.9513 12.1951 22.0488 12.4877 22.0488C12.0975 22.1464 11.7073 22.1464 10.6341 22.1464C10.5365 22.1464 10.439 22.1464 10.5365 22.3415C11.317 24.5854 13.1707 25.2683 14.439 25.6586C14.6341 25.6586 14.8292 25.6586 14.9268 25.7561C14.439 26.4391 12.9755 26.9269 12.1951 27.2196C10.9268 27.7074 9.46335 27.9025 8.0975 27.7074C7.90238 27.7074 7.80482 27.7074 7.80482 27.7074C7.70725 27.7074 7.80482 27.8049 7.90238 27.9025C8.0975 28 8.29262 28.1952 8.5853 28.2927C9.17067 28.5854 9.8536 28.9757 10.439 29.1708C14.0487 30.4391 18.1463 30.4391 21.6585 28.8781C23.8048 27.8049 25.5609 26.2439 26.9268 24.4879Z" fill="white"/>
<path fill-rule="evenodd" clip-rule="evenodd" d="M15.1218 29.9513C15.2194 29.9513 17.1706 29.9513 15.1218 29.9513V29.9513Z" fill="white"/>
<path fill-rule="evenodd" clip-rule="evenodd" d="M15.9024 29.9513C16.3902 29.9513 15.9024 29.8537 15.9024 29.9513V29.9513Z" fill="white"/>
</svg>
