<svg width="40" height="40" viewBox="0 0 40 40" fill="none" xmlns="http://www.w3.org/2000/svg">
<path fill-rule="evenodd" clip-rule="evenodd" d="M28.5067 11.4319C26.8294 9.78745 24.7064 8.67137 22.4008 8.22206C20.0952 7.77276 17.7085 8.01 15.5365 8.90436C13.3645 9.79872 11.5027 11.3109 10.182 13.2534C8.86125 15.1958 8.13966 17.4832 8.10667 19.8319C8.09827 21.9199 8.64592 23.9724 9.69333 25.7786L8 31.9386L14.3333 30.2853C16.0754 31.2246 18.0208 31.7236 20 31.7386C23.1642 31.7387 26.2004 30.4891 28.4478 28.2617C30.6952 26.0343 31.9719 23.0094 32 19.8453C32.0058 18.2812 31.6998 16.7316 31.1 15.287C30.5002 13.8425 29.6186 12.5319 28.5067 11.4319ZM20 29.7253C18.2275 29.7341 16.4841 29.2741 14.9467 28.3919L14.6667 28.1253L10.9067 29.1119L11.9067 25.4719L11.68 25.0853C10.6831 23.5148 10.1557 21.6921 10.16 19.8319C10.1522 17.8617 10.7304 15.9336 11.8213 14.2928C12.9121 12.6521 14.4662 11.3728 16.2861 10.6176C18.1059 9.86245 20.1092 9.66554 22.0412 10.0519C23.9732 10.4383 25.7467 11.3905 27.1361 12.7875C28.5256 14.1844 29.4682 15.963 29.8441 17.8971C30.22 19.8312 30.0123 21.8334 29.2473 23.6491C28.4823 25.4648 27.1946 27.012 25.548 28.094C23.9014 29.1759 21.9702 29.7438 20 29.7253ZM25.44 22.3253C25.1467 22.1786 23.68 21.4586 23.4 21.3519C23.12 21.2453 22.9333 21.2053 22.7333 21.4986C22.5333 21.7919 21.96 22.4719 21.7867 22.6719C21.6133 22.8719 21.44 22.8853 21.1467 22.6719C20.2852 22.3447 19.4868 21.871 18.7867 21.2719C18.1348 20.6701 17.5774 19.9733 17.1333 19.2053C16.96 18.9119 17.1333 18.7519 17.2667 18.6053C17.4 18.4586 17.56 18.2586 17.7067 18.0853C17.826 17.9321 17.9288 17.7668 18.0133 17.5919C18.0533 17.5111 18.0741 17.4221 18.0741 17.3319C18.0741 17.2418 18.0533 17.1528 18.0133 17.0719C17.9333 16.9119 17.3333 15.4586 17.0933 14.8586C16.8533 14.2586 16.6 14.3519 16.4133 14.3519H15.8133C15.6638 14.3577 15.517 14.3938 15.3817 14.458C15.2465 14.5222 15.1257 14.6131 15.0267 14.7253C14.6855 15.0405 14.4152 15.4246 14.2336 15.8521C14.052 16.2797 13.9633 16.7409 13.9733 17.2053C14.0756 18.325 14.5019 19.3906 15.2 20.2719C16.4814 22.1843 18.2361 23.7323 20.2933 24.7653C20.8502 25.0056 21.4199 25.2148 22 25.3919C22.6097 25.5724 23.2523 25.6134 23.88 25.5119C24.2947 25.4273 24.6875 25.2582 25.0339 25.015C25.3803 24.7718 25.6729 24.4599 25.8933 24.0986C26.0936 23.6561 26.154 23.163 26.0667 22.6853C25.8973 22.5338 25.7034 22.412 25.4933 22.3253H25.44Z" fill="white"/>
</svg>
