<svg width="230" height="70" viewBox="0 0 230 70" fill="none" xmlns="http://www.w3.org/2000/svg">
<path d="M40.1622 23.3552H44.3654L38.2779 48.1764H30.3786L24.291 23.3552H28.4944L33.4224 44.6253H35.2342L40.1622 23.3552Z" fill="#454D54"/>
<path d="M49.7539 48.1764V23.3552H65.4075V26.87H53.776V33.8997H63.2334V37.3783H53.776V44.6253H65.4075V48.1764H49.7539Z" fill="#454D54"/>
<path d="M71.5957 48.1764V23.3552H78.6253L86.1626 44.6253H86.7061V23.3552H90.7283V48.1764H83.8436L76.1251 26.87H75.6178V48.1764H71.5957Z" fill="#454D54"/>
<path d="M95.8574 26.9425V23.3552H113.975V26.9425H106.982V48.1764H102.923V26.9425H95.8574Z" fill="#454D54"/>
<path d="M122.974 40.2409C122.974 43.4537 124.665 45.0602 128.047 45.0602C131.429 45.0602 133.12 43.4537 133.12 40.2409V23.3552H137.179V40.1684C137.179 43.0914 136.405 45.2292 134.86 46.5821C133.338 47.9107 131.055 48.575 128.011 48.575C124.991 48.575 122.721 47.9107 121.199 46.5821C119.677 45.2292 118.916 43.0914 118.916 40.1684V23.3552H122.974V40.2409Z" fill="#454D54"/>
<path d="M148.534 39.335V48.1764H144.512V23.3552H153.933C159.537 23.3552 162.339 25.9883 162.339 31.2545C162.339 34.7814 160.986 37.173 158.281 38.4291L162.376 48.1764H157.955L154.368 39.335H148.534ZM158.209 31.2908C158.209 28.3195 156.783 26.8338 153.933 26.8338H148.534V35.8564H154.005C155.455 35.8564 156.518 35.4457 157.194 34.6244C157.87 33.7789 158.209 32.6677 158.209 31.2908Z" fill="#454D54"/>
<path d="M168.723 48.1764V23.3552H184.376V26.87H172.745V33.8997H182.202V37.3783H172.745V44.6253H184.376V48.1764H168.723Z" fill="#454D54"/>
<path d="M197.847 26.4715C194.779 26.4715 193.245 27.5464 193.245 29.6964C193.245 30.8076 193.607 31.6048 194.332 32.0879C195.057 32.5469 196.651 33.1267 199.115 33.8272C201.604 34.5036 203.354 35.325 204.369 36.2912C205.384 37.2334 205.891 38.7311 205.891 40.7844C205.891 43.3934 205.142 45.3501 203.644 46.6545C202.171 47.9349 200.154 48.575 197.593 48.575C195.54 48.575 193.269 48.3335 190.781 47.8503L189.476 47.5966L189.875 44.3717C193.136 44.8065 195.625 45.0239 197.339 45.0239C200.335 45.0239 201.833 43.6953 201.833 41.0381C201.833 39.9993 201.495 39.2384 200.818 38.7552C200.142 38.2479 198.62 37.7044 196.252 37.1246C193.885 36.5208 192.121 35.6994 190.962 34.6606C189.802 33.6219 189.223 31.9792 189.223 29.7326C189.223 27.4861 189.947 25.7951 191.397 24.6597C192.871 23.5002 194.9 22.9204 197.484 22.9204C199.345 22.9204 201.543 23.1378 204.079 23.5726L205.347 23.7901L205.021 27.0512C201.64 26.6647 199.248 26.4715 197.847 26.4715Z" fill="#454D54"/>
</svg>
