<svg width="277" height="34" viewBox="0 0 277 34" fill="none" xmlns="http://www.w3.org/2000/svg">
<path d="M171.402 8.07715C166.075 8.07579 160.757 8.53955 155.508 9.46337L156.232 13.39C160.528 12.637 164.871 12.2047 169.228 12.0968V26.9733H173.484V12.0968C177.858 12.2023 182.218 12.6346 186.529 13.39L187.253 9.46337C182.018 8.54143 176.715 8.07767 171.402 8.07715" fill="#262626"/>
<path d="M100.332 8.83301H95.7969V26.9733H100.332V8.83301Z" fill="#262626"/>
<path d="M58.0039 10.1668L58.7274 13.9457C63.031 13.2041 67.3841 12.7733 71.7517 12.6568V26.9733H76.0025V12.7011C80.3687 12.8028 84.7215 13.2188 89.0259 13.9457L89.7494 10.1668C79.2449 8.3884 68.5084 8.3884 58.0039 10.1668" fill="#262626"/>
<path d="M148.705 8.83301H144.926V26.9733H148.705V8.83301Z" fill="#262626"/>
<path d="M122.628 21.5356C118.126 17.4685 114.049 12.9594 110.46 8.07715L107.133 10.4787C111.635 16.5577 116.835 22.0933 122.628 26.9733L122.674 26.9281C128.462 22.0744 133.648 16.5523 138.122 10.4787L134.796 8.07715C131.206 12.9594 127.129 17.4685 122.627 21.5356" fill="#262626"/>
<path d="M196.352 26.9846H190.391V15.9048H190.978V26.4422H196.353L196.352 26.9846Z" fill="#005691"/>
<path d="M203.04 21.3777V25.9458C203.085 26.3081 203.492 26.5342 204.214 26.6243L204.169 27.1217C203.863 27.1533 203.554 27.1077 203.27 26.9892C202.986 26.8707 202.736 26.683 202.543 26.4432C201.531 26.8836 200.44 27.1144 199.336 27.1217C199.053 27.1398 198.769 27.0966 198.504 26.9951C198.239 26.8936 197.999 26.7361 197.8 26.5333C197.415 26.0642 197.221 25.4663 197.258 24.8601C197.221 24.2539 197.415 23.6561 197.8 23.1869C198.264 22.7776 198.853 22.5383 199.471 22.5085L202.501 22.1922V21.3786C202.527 21.1124 202.501 20.8436 202.424 20.5876C202.346 20.3315 202.219 20.0933 202.049 19.8865C201.877 19.7207 201.67 19.5943 201.444 19.5162C201.218 19.4381 200.977 19.4101 200.739 19.4342C199.907 19.4617 199.078 19.5372 198.255 19.6604L197.758 19.7054L197.713 19.163C198.715 18.9967 199.727 18.9045 200.743 18.8872C202.269 18.935 203.04 19.7495 203.04 21.3777ZM198.298 23.5482C198.019 23.9078 197.889 24.3613 197.936 24.8141C197.911 25.2861 198.055 25.7514 198.343 26.126C198.477 26.279 198.645 26.3993 198.833 26.4776C199.021 26.556 199.224 26.5905 199.427 26.5784C199.93 26.5789 200.43 26.5172 200.917 26.3945C201.459 26.2584 201.821 26.1683 202.137 26.0782L202.588 25.8944V22.6436L199.65 22.9599C198.972 23.0959 198.52 23.232 198.294 23.5482H198.298Z" fill="#005691"/>
<path d="M206.153 19.5686C207.028 19.1517 207.985 18.9353 208.953 18.9352C209.342 18.8919 209.735 18.9528 210.092 19.1118C210.449 19.2708 210.758 19.522 210.986 19.8398C211.439 20.8307 211.641 21.9183 211.574 23.006C211.678 24.1117 211.425 25.2215 210.851 26.1722C210.354 26.8053 209.405 27.1219 208.005 27.1219C207.282 27.1219 206.605 27.0768 206.017 27.0299L205.656 26.9849V15.4077H206.198V19.5686H206.153ZM206.153 26.5335C206.966 26.5785 207.643 26.6254 208.14 26.6254C208.601 26.624 209.059 26.5476 209.495 26.3993C209.687 26.3462 209.866 26.2547 210.021 26.1303C210.176 26.0059 210.305 25.8513 210.399 25.6758C210.626 25.3388 210.766 24.95 210.805 24.545C210.889 23.9914 210.92 23.4312 210.897 22.8718C210.956 21.9641 210.817 21.0545 210.49 20.2057C210.32 19.9234 210.071 19.6964 209.775 19.5521C209.478 19.4077 209.147 19.3522 208.819 19.3921C208.376 19.3894 207.935 19.4514 207.509 19.576C207.057 19.712 206.697 19.8021 206.471 19.8922L206.109 20.0283V26.5317L206.153 26.5335Z" fill="#005691"/>
<path d="M216.004 19.4326C214.603 19.4326 213.881 19.975 213.881 21.0157C213.854 21.2138 213.882 21.4153 213.962 21.5986C214.042 21.7818 214.17 21.9398 214.333 22.0555C214.934 22.3714 215.596 22.5562 216.275 22.5979C217.014 22.6813 217.733 22.8957 218.397 23.2313C218.618 23.4262 218.787 23.6728 218.889 23.949C218.992 24.2252 219.024 24.5225 218.984 24.8144C219.006 25.1417 218.947 25.4694 218.813 25.7689C218.679 26.0683 218.474 26.3305 218.216 26.5326C217.537 26.9405 216.748 27.1298 215.958 27.075C215.232 27.0671 214.507 27.0057 213.79 26.8912L213.338 26.8461L213.383 26.3037C214.278 26.4639 215.184 26.556 216.094 26.5795C216.664 26.6076 217.23 26.4659 217.72 26.1723C217.933 26.0198 218.103 25.8148 218.214 25.5771C218.325 25.3393 218.373 25.0769 218.352 24.8153C218.379 24.5797 218.348 24.3411 218.262 24.1204C218.175 23.8997 218.036 23.7036 217.856 23.5494C217.229 23.2567 216.557 23.0732 215.869 23.007C215.139 22.9471 214.43 22.7311 213.791 22.3736C213.585 22.2273 213.422 22.0285 213.319 21.7978C213.216 21.5671 213.176 21.3129 213.204 21.0617C213.166 20.5605 213.31 20.0623 213.611 19.6597C213.88 19.3543 214.222 19.1211 214.604 18.9812C214.98 18.8519 215.376 18.7903 215.774 18.7992C216.576 18.7877 217.377 18.8493 218.168 18.9831L218.575 19.0281L218.53 19.5705C217.63 19.5227 216.726 19.4326 216.004 19.4326Z" fill="#005691"/>
</svg>
