<svg width="72" height="70" viewBox="0 0 72 70" fill="none" xmlns="http://www.w3.org/2000/svg">
<g clip-path="url(#clip0_3749_26952)">
<path d="M7.73047 7.9043C7.22005 7.9043 6.78255 7.47703 6.78255 6.97856C6.78255 6.48008 7.22005 6.05282 7.73047 6.05282C8.3138 5.98161 8.7513 6.40887 8.7513 6.97856C8.7513 7.47703 8.3138 7.9043 7.73047 7.9043ZM7.73047 3.9165C6.05339 3.9165 4.66797 5.2695 4.66797 6.90735C4.66797 8.54519 6.05339 9.89819 7.73047 9.89819C9.40755 9.89819 10.793 8.54519 10.793 6.90735C10.793 5.2695 9.48047 3.9165 7.73047 3.9165Z" fill="#F20024"/>
<path d="M15.6055 7.9043C15.095 7.9043 14.6576 7.47703 14.6576 6.97856C14.6576 6.48008 15.095 6.05282 15.6055 6.05282C16.1159 6.05282 16.5534 6.48008 16.5534 6.97856C16.5534 7.47703 16.1159 7.9043 15.6055 7.9043ZM15.6055 3.9165C13.9284 3.9165 12.543 5.2695 12.543 6.90735C12.543 8.54519 13.9284 9.89819 15.6055 9.89819C17.2825 9.89819 18.668 8.54519 18.668 6.90735C18.668 5.2695 17.2825 3.9165 15.6055 3.9165Z" fill="#F20024"/>
<path d="M23.4062 7.9043C22.8958 7.9043 22.4583 7.47703 22.4583 6.97856C22.4583 6.48008 22.8958 6.05282 23.4062 6.05282C23.9167 6.05282 24.3542 6.48008 24.3542 6.97856C24.4271 7.47703 23.9896 7.9043 23.4062 7.9043ZM23.4062 3.9165C21.7292 3.9165 20.3438 5.2695 20.3438 6.90735C20.3438 8.54519 21.7292 9.89819 23.4062 9.89819C25.0833 9.89819 26.4688 8.54519 26.4688 6.90735C26.5417 5.2695 25.1563 3.9165 23.4062 3.9165Z" fill="#F20024"/>
<path d="M69.5625 11.8922H2.1875V4.48627C2.1875 3.13327 3.35417 1.9939 4.73958 1.9939H67.0833C68.4687 1.9939 69.6354 3.13327 69.6354 4.48627V11.8922H69.5625ZM69.5625 48.2096H2.11458V13.9573H69.5625V48.2096ZM69.5625 54.12C69.5625 55.4018 68.5417 56.47 67.3021 56.5412C67.2292 56.5412 67.1562 56.5412 67.0104 56.5412H4.59375C4.52083 56.5412 4.44792 56.5412 4.30208 56.5412C3.0625 56.3988 2.04167 55.3306 2.04167 54.12V50.2035H69.4896V54.12H69.5625ZM44.4792 62.3093H27.125V58.6063H44.4792V62.3093ZM67.1562 0H4.59375C2.04167 0 0 1.9939 0 4.48627V54.12C0 56.3988 1.67708 58.2503 3.9375 58.6063C4.15625 58.6063 4.375 58.6775 4.66667 58.6775H25.0833V62.3805H21.875C19.7604 62.3805 18.0104 64.0895 18.0104 66.1546V68.3622C18.0104 69.2879 18.8125 70.0712 19.7604 70.0712H37.4792C38.0625 70.0712 38.5 69.6439 38.5 69.0743C38.5 68.5046 38.0625 68.0773 37.4792 68.0773H20.125V66.2258C20.125 65.3001 20.9271 64.5168 21.875 64.5168H49.8021C50.75 64.5168 51.5521 65.3001 51.5521 66.2258V68.0773H43.9687C43.3854 68.0773 42.9479 68.5046 42.9479 69.0743C42.9479 69.6439 43.3854 70.0712 43.9687 70.0712H51.8437C52.7917 70.0712 53.5937 69.2879 53.5937 68.3622V66.1546C53.5937 64.0895 51.8437 62.3805 49.7292 62.3805H46.5937V58.6775H67.0104C67.2292 58.6775 67.5208 58.6775 67.7396 58.6063C69.9271 58.2503 71.6771 56.3988 71.6771 54.12V49.2065L71.75 4.48627C71.75 1.9939 69.7083 0 67.1562 0Z" fill="#F20024"/>
<path d="M5.75911 18.7283H8.52995C9.11328 18.7283 9.55078 18.301 9.55078 17.7313C9.55078 17.1616 9.11328 16.7344 8.52995 16.7344H5.75911C5.17578 16.7344 4.73828 17.1616 4.73828 17.7313C4.73828 18.301 5.17578 18.7283 5.75911 18.7283Z" fill="#F20024"/>
<path d="M12.1029 18.7283H29.1654C29.7487 18.7283 30.1862 18.301 30.1862 17.7313C30.1862 17.1616 29.7487 16.7344 29.1654 16.7344H12.1029C11.5195 16.7344 11.082 17.1616 11.082 17.7313C11.082 18.301 11.5195 18.7283 12.1029 18.7283Z" fill="#F20024"/>
<path d="M27.9284 23.2146C28.5117 23.2146 28.9492 22.7873 28.9492 22.2177C28.9492 21.648 28.5117 21.2207 27.9284 21.2207H21.0013C20.418 21.2207 19.9805 21.648 19.9805 22.2177C19.9805 22.7873 20.418 23.2146 21.0013 23.2146H27.9284Z" fill="#F20024"/>
<path d="M18.6667 22.2177C18.6667 21.648 18.2292 21.2207 17.6458 21.2207H15.2396C14.6562 21.2207 14.2188 21.648 14.2188 22.2177C14.2188 22.7873 14.6562 23.2146 15.2396 23.2146H17.6458C18.2292 23.2146 18.6667 22.7873 18.6667 22.2177Z" fill="#F20024"/>
<path d="M5.76217 23.2146H11.5955C12.1788 23.2146 12.6163 22.7873 12.6163 22.2177C12.6163 21.648 12.1788 21.2207 11.5955 21.2207H5.76217C5.17884 21.2207 4.74134 21.648 4.74134 22.2177C4.66842 22.7873 5.17884 23.2146 5.76217 23.2146Z" fill="#F20024"/>
<path d="M31.9375 26.6329H38.8646V44.4356H31.9375V26.6329ZM57.0937 30.3359H64.0208V44.4356H57.0937V30.3359ZM26.3229 44.4356H19.3958V35.8191H26.3229V44.4356ZM29.8229 44.4356H28.3646V35.5342C28.3646 34.5373 27.5625 33.754 26.5417 33.754H19.1042C18.0833 33.754 17.2812 34.5373 17.2812 35.5342V45.4325C17.2812 46.0022 17.7187 46.4294 18.3021 46.4294H65.0417C65.625 46.4294 66.0625 46.0022 66.0625 45.4325V30.1222C66.0625 29.1253 65.2604 28.342 64.2396 28.342H56.875C55.8542 28.342 55.0521 29.1253 55.0521 30.1222V44.4356H53.5937V28.1283C53.5937 27.5586 53.1562 27.1314 52.5729 27.1314C51.9896 27.1314 51.5521 27.5586 51.5521 28.1283V44.3643H44.625V18.5861H51.5521V21.8618C51.5521 22.4315 51.9896 22.8587 52.5729 22.8587C53.1562 22.8587 53.5937 22.4315 53.5937 21.8618V18.3013C53.5937 17.3043 52.7917 16.521 51.7708 16.521H44.2604C43.2396 16.521 42.4375 17.3043 42.4375 18.3013V44.3643H40.9792V26.4193C40.9792 25.4223 40.1771 24.639 39.1562 24.639H31.7187C30.6979 24.639 29.8958 25.4223 29.8958 26.4193L29.8229 44.4356Z" fill="#F20024"/>
</g>
<defs>
<clipPath id="clip0_3749_26952">
<rect width="71.75" height="70" fill="white"/>
</clipPath>
</defs>
</svg>
