<svg width="117" height="79" viewBox="0 0 117 79" fill="none" xmlns="http://www.w3.org/2000/svg">
<path d="M19.0097 12.572C19.1274 12.4608 19.222 12.3271 19.2878 12.1787C19.3536 12.0303 19.3893 11.8702 19.393 11.7077V7.81528L35.2254 20.2372L19.393 32.6537V27.6958C19.393 27.3714 19.265 27.0603 19.0373 26.8309C18.8095 26.6015 18.5006 26.4727 18.1784 26.4727H13.9194V28.919H16.9369V35.1544C16.9402 35.3811 17.0054 35.6025 17.1254 35.7943C17.2453 35.986 17.4154 36.1409 17.617 36.2417C17.7858 36.3219 17.9703 36.3628 18.1568 36.3613C18.4264 36.3613 18.6883 36.2715 18.9018 36.1058L37.9568 21.1831C38.1017 21.0682 38.2188 20.9216 38.2993 20.7544C38.3798 20.5873 38.4216 20.404 38.4216 20.2182C38.4216 20.0324 38.3798 19.8491 38.2993 19.682C38.2188 19.5148 38.1017 19.3682 37.9568 19.2533L18.8964 4.34693C18.7168 4.20645 18.5016 4.11959 18.2753 4.09622C18.0491 4.07286 17.8209 4.11394 17.6167 4.21477C17.4125 4.31561 17.2405 4.47216 17.1203 4.6666C17.0002 4.86104 16.9366 5.08555 16.9369 5.31459V10.5008H9.52539V12.9472H18.1622C18.4828 12.9397 18.7875 12.8049 19.0097 12.572Z" fill="#582689"/>
<path d="M6.84845 10.4844H4.73242V12.9307H6.84845V10.4844Z" fill="#582689"/>
<path d="M2.61603 10.4844H0.5V12.9307H2.61603V10.4844Z" fill="#582689"/>
<path d="M11.6131 26.4727H4.20703V28.919H11.6131V26.4727Z" fill="#582689"/>
<path d="M100.208 47.1138C100.207 46.8853 100.143 46.6615 100.022 46.4678C99.9017 46.2742 99.7296 46.1184 99.5256 46.0183C99.3216 45.9181 99.0938 45.8775 98.8681 45.9011C98.6423 45.9246 98.4277 46.0114 98.2484 46.1516L79.1987 61.0579C79.0529 61.1729 78.9349 61.3197 78.8538 61.4874C78.7726 61.655 78.7305 61.8391 78.7305 62.0256C78.7305 62.2121 78.7726 62.3962 78.8538 62.5638C78.9349 62.7315 79.0529 62.8783 79.1987 62.9933L98.2484 77.9105C98.4619 78.0762 98.7238 78.166 98.9933 78.166C99.1804 78.1661 99.365 78.1234 99.5331 78.0409C99.7355 77.9411 99.9063 77.7865 100.026 77.5945C100.147 77.4025 100.211 77.1806 100.213 76.9537V71.7838H102.74V69.3374H98.9987C98.6766 69.3374 98.3677 69.4663 98.1399 69.6957C97.9121 69.9251 97.7842 70.2362 97.7842 70.5606V74.453L81.9247 62.0365L97.7788 49.6417V54.6051C97.7788 54.9295 97.9067 55.2406 98.1345 55.47C98.3623 55.6994 98.6712 55.8282 98.9933 55.8282H107.835V53.3819H100.208V47.1138Z" fill="#582689"/>
<path d="M112.411 53.209H110.295V55.6553H112.411V53.209Z" fill="#582689"/>
<path d="M116.643 53.209H114.527V55.6553H116.643V53.209Z" fill="#582689"/>
<path d="M83.3075 46.4945C84.6786 44.9506 90.6164 35.9861 92.3168 31.9905L92.5867 31.3435L92.1711 30.7999C90.8701 29.0331 87.6097 27.6958 83.8851 28.5656C80.3008 29.4082 78.2711 32.0068 76.2253 35.9372L69.7854 39.3023C69.1299 38.6594 68.3506 38.1584 67.4956 37.8303C66.6406 37.5021 65.7279 37.3537 64.8138 37.3941H54.2877C53.6219 37.0746 53.0026 36.6649 52.4469 36.1764C51.0327 35.0891 49.4294 33.8497 47.7237 33.8497H38.9303C36.1719 33.8497 32.9924 35.9372 31.033 37.7529C29.0735 39.5687 26.2665 42.4281 24.755 43.8742L21.3381 40.4004L10.8281 50.9958L31.8804 72.1973L42.4066 61.602L40.6469 59.8297C41.1604 59.4342 41.7995 59.2409 42.4444 59.2861H68.3549C71.2159 59.3024 83.1941 46.625 83.3075 46.4945ZM31.8912 68.7507L14.2613 50.9958L21.3381 43.8688L38.9681 61.602L31.8912 68.7507ZM68.2632 56.8561H42.4444C41.1534 56.802 39.8918 57.2541 38.9249 58.1173L26.477 45.5812C27.9993 44.1188 30.8764 41.3463 32.7225 39.4925C34.3689 37.9432 37.041 36.2743 38.9303 36.2743H47.7237C48.6089 36.2743 49.9153 37.2854 50.9625 38.0954C52.1609 39.0196 53.1919 39.8187 54.2553 39.8187H64.8084C67.6154 39.8187 68.8732 41.4496 68.8732 43.0207C68.8732 44.5918 67.6154 46.2281 64.8084 46.2281H48.9814V48.6745H64.8138C69.0783 48.6745 71.2915 45.8313 71.2915 43.0207C71.2887 42.4665 71.1994 41.9161 71.027 41.3898L78.012 37.7366L78.1902 37.3887C80.3494 33.1973 81.9688 31.5121 84.4195 30.9358C86.7838 30.3922 88.7379 31.0011 89.7311 31.7676C87.8148 35.7361 82.6381 43.5643 81.4829 44.869C79.3129 47.348 70.0931 56.3179 68.2632 56.8561Z" fill="#582689"/>
<path d="M22.1962 50.1315L20.4785 51.8613L23.9978 55.4055L25.7154 53.6757L22.1962 50.1315Z" fill="#582689"/>
<path d="M48.0988 15.018C49.5574 15.0191 50.9836 14.5844 52.1969 13.7691C53.4102 12.9538 54.3561 11.7944 54.9151 10.4376C55.474 9.08074 55.6208 7.58745 55.3369 6.1466C55.053 4.70574 54.3511 3.38205 53.3201 2.34296C52.2891 1.30388 50.9752 0.596079 49.5447 0.309105C48.1142 0.0221313 46.6313 0.168873 45.2836 0.730768C43.9359 1.29266 42.784 2.24447 41.9735 3.46578C41.1631 4.68709 40.7305 6.12305 40.7305 7.592C40.7333 9.55967 41.5104 11.446 42.8914 12.8379C44.2725 14.2297 46.145 15.0137 48.0988 15.018ZM48.0988 2.61779C49.0765 2.61994 50.0316 2.91395 50.8435 3.46267C51.6553 4.01139 52.2874 4.79017 52.6598 5.70058C53.0322 6.611 53.1283 7.61217 52.9359 8.57756C52.7434 9.54295 52.2711 10.4292 51.5786 11.1243C50.8861 11.8194 50.0046 12.2922 49.0454 12.4828C48.0861 12.6735 47.0923 12.5735 46.1895 12.1954C45.2868 11.8174 44.5155 11.1783 43.9733 10.3589C43.4311 9.53951 43.1423 8.57664 43.1434 7.592C43.1463 6.27081 43.6698 5.00481 44.5989 4.07212C45.5281 3.13943 46.7869 2.61634 48.0988 2.61779Z" fill="#582689"/>
<path d="M58.3242 23.5475C58.3242 25.0151 58.7564 26.4498 59.566 27.6701C60.3756 28.8904 61.5264 29.8415 62.8728 30.4032C64.2192 30.9648 65.7007 31.1118 67.13 30.8255C68.5593 30.5391 69.8722 29.8324 70.9027 28.7946C71.9332 27.7568 72.635 26.4346 72.9193 24.9952C73.2036 23.5557 73.0577 22.0637 72.5 20.7078C71.9423 19.3519 70.9979 18.1929 69.7862 17.3775C68.5744 16.5622 67.1498 16.127 65.6925 16.127C63.7392 16.1298 61.8667 16.9126 60.4855 18.3036C59.1043 19.6946 58.3271 21.5803 58.3242 23.5475ZM70.6317 23.5475C70.6317 24.5313 70.3421 25.493 69.7993 26.311C69.2566 27.129 68.4852 27.7666 67.5827 28.1431C66.6802 28.5196 65.6871 28.6181 64.7289 28.4261C63.7708 28.2342 62.8908 27.7605 62.2 27.0648C61.5092 26.3691 61.0388 25.4828 60.8482 24.5179C60.6577 23.553 60.7555 22.5529 61.1293 21.644C61.5031 20.735 62.1362 19.9582 62.9485 19.4116C63.7607 18.865 64.7157 18.5733 65.6925 18.5733C67.0021 18.5747 68.2575 19.0993 69.1835 20.0318C70.1095 20.9643 70.6303 22.2287 70.6317 23.5475Z" fill="#582689"/>
<path d="M67.3874 0.618813L44.5215 28.9648L46.4069 30.5074L69.2728 2.16132L67.3874 0.618813Z" fill="#582689"/>
</svg>
