<svg width="79" height="84" viewBox="0 0 79 84" fill="none" xmlns="http://www.w3.org/2000/svg">
<g clip-path="url(#clip0_5593_31241)">
<path d="M30.2457 37.3519H33.9133C34.881 37.3519 35.6939 38.4703 35.6939 39.7938C35.6721 39.9671 35.6872 40.1431 35.738 40.31C35.7889 40.477 35.8743 40.6311 35.9888 40.7622C36.1032 40.8933 36.2439 40.9982 36.4017 41.0701C36.5594 41.142 36.7305 41.1792 36.9035 41.1792C37.0766 41.1792 37.2477 41.142 37.4054 41.0701C37.5632 40.9982 37.7039 40.8933 37.8183 40.7622C37.9328 40.6311 38.0182 40.477 38.0691 40.31C38.1199 40.1431 38.135 39.9671 38.1132 39.7938C38.1132 37.0931 36.2213 34.91 33.8988 34.91H33.294V33.8893C33.3157 33.7161 33.3007 33.5401 33.2498 33.3731C33.199 33.2061 33.1135 33.052 32.9991 32.9209C32.8847 32.7899 32.7439 32.6849 32.5862 32.613C32.4285 32.5411 32.2574 32.5039 32.0843 32.5039C31.9113 32.5039 31.7402 32.5411 31.5824 32.613C31.4247 32.6849 31.284 32.7899 31.1695 32.9209C31.0551 33.052 30.9696 33.2061 30.9188 33.3731C30.868 33.5401 30.8529 33.7161 30.8747 33.8893V34.8954H30.2457C27.9183 34.8954 26.0312 37.0931 26.0312 39.7791C26.0312 42.4652 27.9183 44.6628 30.2457 44.6628H33.9133C34.881 44.6628 35.6939 45.7812 35.6939 47.1047C35.6939 48.4282 34.8762 49.5466 33.9133 49.5466H30.2457C29.2779 49.5466 28.4651 48.4282 28.4651 47.1047C28.4868 46.9314 28.4718 46.7554 28.4209 46.5884C28.3701 46.4215 28.2846 46.2673 28.1702 46.1363C28.0558 46.0052 27.915 45.9002 27.7573 45.8283C27.5996 45.7564 27.4285 45.7193 27.2554 45.7193C27.0823 45.7193 26.9113 45.7564 26.7535 45.8283C26.5958 45.9002 26.455 46.0052 26.3406 46.1363C26.2262 46.2673 26.1407 46.4215 26.0899 46.5884C26.039 46.7554 26.024 46.9314 26.0458 47.1047C26.0458 49.8054 27.9328 51.9884 30.2602 51.9884H30.8747V52.9945C30.8529 53.1678 30.868 53.3438 30.9188 53.5107C30.9696 53.6777 31.0551 53.8318 31.1695 53.9629C31.284 54.094 31.4247 54.1989 31.5824 54.2708C31.7402 54.3427 31.9113 54.3799 32.0843 54.3799C32.2574 54.3799 32.4285 54.3427 32.5862 54.2708C32.7439 54.1989 32.8847 54.094 32.9991 53.9629C33.1135 53.8318 33.199 53.6777 33.2498 53.5107C33.3007 53.3438 33.3157 53.1678 33.294 52.9945V51.9884H33.9133C36.2358 51.9884 38.1277 49.7907 38.1277 47.1047C38.1277 44.4187 36.2358 42.221 33.9133 42.221H30.2457C29.2779 42.221 28.4651 41.1026 28.4651 39.7791C28.4651 38.4556 29.2779 37.3519 30.2457 37.3519Z" fill="#582689"/>
<path d="M75.1574 30.085L61.44 3.83984L47.7227 30.085H75.1574ZM62.6255 26.6175C62.6255 26.9413 62.498 27.2519 62.2712 27.4808C62.0443 27.7098 61.7367 27.8384 61.4158 27.8384C61.095 27.8384 60.7874 27.7098 60.5605 27.4808C60.3336 27.2519 60.2062 26.9413 60.2062 26.6175V26.3733C60.2062 26.0495 60.3336 25.739 60.5605 25.51C60.7874 25.281 61.095 25.1524 61.4158 25.1524C61.7367 25.1524 62.0443 25.281 62.2712 25.51C62.498 25.739 62.6255 26.0495 62.6255 26.3733V26.6175ZM61.4158 23.1989C61.095 23.1989 60.7874 23.0703 60.5605 22.8413C60.3336 22.6123 60.2062 22.3018 60.2062 21.978V12.2105C60.2062 11.8867 60.3336 11.5762 60.5605 11.3472C60.7874 11.1182 61.095 10.9896 61.4158 10.9896C61.7367 10.9896 62.0443 11.1182 62.2712 11.3472C62.498 11.5762 62.6255 11.8867 62.6255 12.2105V21.978C62.6255 22.3018 62.498 22.6123 62.2712 22.8413C62.0443 23.0703 61.7367 23.1989 61.4158 23.1989Z" fill="white"/>
<path d="M62.5095 0.650161C62.4067 0.453901 62.2528 0.289655 62.0644 0.175096C61.876 0.0605364 61.6602 0 61.4402 0C61.2203 0 61.0045 0.0605364 60.816 0.175096C60.6276 0.289655 60.4737 0.453901 60.3709 0.650161L54.521 11.8436L32.5297 3.01877C32.2409 2.90143 31.9184 2.90143 31.6297 3.01877L1.06918 15.2818C0.843274 15.3735 0.649729 15.5313 0.513477 15.735C0.377224 15.9386 0.304506 16.1788 0.304688 16.4246V40.6381C0.304688 58.5711 11.3221 74.7264 29.0507 82.7992C29.8894 83.1802 30.7458 83.5513 31.62 83.9127C31.9138 84.03 32.2407 84.03 32.5345 83.9127C33.4151 83.5513 34.2716 83.1802 35.1038 82.7992C52.8372 74.7264 63.8498 58.5711 63.8498 40.6381V32.5262H77.1656C77.3742 32.5263 77.5793 32.4719 77.761 32.3683C77.9426 32.2647 78.0946 32.1155 78.2022 31.9351C78.3098 31.7547 78.3694 31.5493 78.3751 31.3388C78.3809 31.1284 78.3326 30.92 78.235 30.7339L62.5095 0.650161ZM47.8148 43.4657C47.8148 46.608 46.8915 49.6798 45.1618 52.2924C43.432 54.9051 40.9735 56.9414 38.0971 58.1436C35.2208 59.3459 32.0557 59.6603 29.0024 59.0469C25.949 58.4335 23.1444 56.9199 20.9433 54.6976C18.7423 52.4753 17.2436 49.6441 16.6368 46.5621C16.03 43.48 16.3424 40.2856 17.5344 37.3828C18.7265 34.4799 20.7447 31.9991 23.3337 30.254C25.9228 28.509 28.9664 27.578 32.0797 27.579C36.2522 27.5842 40.2522 29.2598 43.2021 32.2381C46.152 35.2165 47.8109 39.2543 47.8148 43.4657ZM47.7228 30.0843L61.4402 3.83923L75.1576 30.0843H47.7228ZM61.416 40.6381C61.416 57.5895 50.9502 72.8706 34.1022 80.5625C33.4442 80.8604 32.7668 81.1583 32.0797 81.4464C31.3878 81.1583 30.7104 80.8604 30.0523 80.5625C13.2044 72.8902 2.72398 57.5895 2.72398 40.6381V17.2548L32.0797 5.48016L53.3695 14.0267L44.8197 30.4018C41.4698 27.0756 36.9738 25.1884 32.275 25.1361C27.5763 25.0838 23.0401 26.8705 19.6184 30.1212C16.1967 33.372 14.1555 37.8341 13.9231 42.5712C13.6907 47.3083 15.2853 51.9521 18.3721 55.5281C21.459 59.1041 25.7981 61.3343 30.4791 61.7507C35.16 62.1671 39.8187 60.7373 43.4777 57.7614C47.1366 54.7855 49.5113 50.4948 50.1035 45.7897C50.6956 41.0846 49.4591 36.3309 46.6535 32.5262H61.416V40.6381Z" fill="#582689"/>
<path d="M62.6263 12.2092C62.6263 11.8854 62.4989 11.5749 62.272 11.3459C62.0452 11.1169 61.7375 10.9883 61.4167 10.9883C61.0959 10.9883 60.7882 11.1169 60.5613 11.3459C60.3345 11.5749 60.207 11.8854 60.207 12.2092V21.9767C60.207 22.3005 60.3345 22.611 60.5613 22.84C60.7882 23.0689 61.0959 23.1976 61.4167 23.1976C61.7375 23.1976 62.0452 23.0689 62.272 22.84C62.4989 22.611 62.6263 22.3005 62.6263 21.9767V12.2092Z" fill="#582689"/>
<path d="M61.4167 25.1523C61.0959 25.1523 60.7882 25.281 60.5613 25.5099C60.3345 25.7389 60.207 26.0495 60.207 26.3733V26.6175C60.207 26.9413 60.3345 27.2518 60.5613 27.4808C60.7882 27.7098 61.0959 27.8384 61.4167 27.8384C61.7375 27.8384 62.0452 27.7098 62.272 27.4808C62.4989 27.2518 62.6263 26.9413 62.6263 26.6175V26.3733C62.6263 26.2129 62.595 26.0542 62.5342 25.906C62.4735 25.7579 62.3843 25.6233 62.272 25.5099C62.1597 25.3966 62.0263 25.3066 61.8796 25.2453C61.7328 25.1839 61.5755 25.1523 61.4167 25.1523Z" fill="#582689"/>
</g>
<defs>
<clipPath id="clip0_5593_31241">
<rect width="78.0706" height="84" fill="white" transform="translate(0.304688)"/>
</clipPath>
</defs>
</svg>
