<svg width="17" height="17" viewBox="0 0 17 17" fill="none" xmlns="http://www.w3.org/2000/svg">
<path d="M14.4082 2.5918L16.8496 0.150391V7.47461H9.52539L12.8945 4.10547C11.6576 2.86849 10.1927 2.25 8.5 2.25C6.77474 2.25 5.29362 2.86849 4.05664 4.10547C2.85221 5.3099 2.25 6.77474 2.25 8.5C2.25 10.2253 2.85221 11.7064 4.05664 12.9434C5.29362 14.1478 6.77474 14.75 8.5 14.75C9.70443 14.75 10.8763 14.3431 12.0156 13.5293C13.1875 12.7155 13.985 11.7389 14.4082 10.5996H16.5566C16.1009 12.4225 15.1243 13.9199 13.627 15.0918C12.1296 16.2637 10.4206 16.8496 8.5 16.8496C6.22135 16.8496 4.26823 16.0358 2.64062 14.4082C1.01302 12.7806 0.199219 10.8112 0.199219 8.5C0.199219 6.1888 1.01302 4.2194 2.64062 2.5918C4.26823 0.964193 6.22135 0.150391 8.5 0.150391C9.47656 0.150391 10.5345 0.394531 11.6738 0.882812C12.8457 1.33854 13.7572 1.9082 14.4082 2.5918Z" fill="#121212"/>
</svg>
