<svg width="23" height="17" viewBox="0 0 23 17" fill="none" xmlns="http://www.w3.org/2000/svg">
<path d="M9.30273 6.30273C9.92122 5.68424 10.6536 5.375 11.5 5.375C12.3464 5.375 13.0788 5.68424 13.6973 6.30273C14.3158 6.92122 14.625 7.65365 14.625 8.5C14.625 9.34635 14.3158 10.0788 13.6973 10.6973C13.0788 11.3158 12.3464 11.625 11.5 11.625C10.6536 11.625 9.92122 11.3158 9.30273 10.6973C8.68424 10.0788 8.375 9.34635 8.375 8.5C8.375 7.65365 8.68424 6.92122 9.30273 6.30273ZM7.78906 12.2109C8.83073 13.2201 10.0677 13.7246 11.5 13.7246C12.9323 13.7246 14.153 13.2201 15.1621 12.2109C16.2038 11.1693 16.7246 9.93229 16.7246 8.5C16.7246 7.06771 16.2038 5.84701 15.1621 4.83789C14.153 3.79622 12.9323 3.27539 11.5 3.27539C10.0677 3.27539 8.83073 3.79622 7.78906 4.83789C6.77995 5.84701 6.27539 7.06771 6.27539 8.5C6.27539 9.93229 6.77995 11.1693 7.78906 12.2109ZM4.51758 2.83594C6.60091 1.40365 8.92839 0.6875 11.5 0.6875C14.0716 0.6875 16.3991 1.40365 18.4824 2.83594C20.5658 4.26823 22.0632 6.15625 22.9746 8.5C22.0632 10.8438 20.5658 12.7318 18.4824 14.1641C16.3991 15.5964 14.0716 16.3125 11.5 16.3125C8.92839 16.3125 6.60091 15.5964 4.51758 14.1641C2.43424 12.7318 0.936849 10.8438 0.0253906 8.5C0.936849 6.15625 2.43424 4.26823 4.51758 2.83594Z" fill="#121212"/>
</svg>
