<svg width="118" height="100" viewBox="0 0 118 100" fill="none" xmlns="http://www.w3.org/2000/svg">
<g clip-path="url(#clip0_2589_24005)">
<path d="M64.0597 58.9641C65.5887 58.9641 66.8329 60.6272 66.8329 62.6731C66.8073 62.8666 66.8229 63.0635 66.8786 63.2504C66.9343 63.4374 67.0288 63.61 67.1558 63.7569C67.2828 63.9037 67.4394 64.0212 67.6149 64.1016C67.7904 64.182 67.9809 64.2234 68.1735 64.2229C68.3661 64.2225 68.5564 64.1802 68.7316 64.099C68.9068 64.0178 69.0628 63.8995 69.1891 63.7521C69.3154 63.6047 69.4091 63.4315 69.464 63.2444C69.5188 63.0572 69.5335 62.8602 69.507 62.6668C69.507 59.1147 67.031 56.2216 64.035 56.2216H62.8588V54.5083C62.8588 54.1455 62.7167 53.7975 62.4636 53.5409C62.2105 53.2843 61.8673 53.1402 61.5094 53.1402C61.1515 53.1402 60.8082 53.2843 60.5552 53.5409C60.3021 53.7975 60.1599 54.1455 60.1599 54.5083V56.2279H58.9838C55.9692 56.2279 53.5117 59.121 53.5117 62.6731C53.5117 66.2252 55.9878 69.1183 58.9838 69.1183H60.1599V76.5237H58.9838C57.4548 76.5237 56.2106 74.8606 56.2106 72.821C56.2106 72.4581 56.0684 72.1101 55.8154 71.8536C55.5623 71.597 55.2191 71.4529 54.8612 71.4529C54.5033 71.4529 54.16 71.597 53.907 71.8536C53.6539 72.1101 53.5117 72.4581 53.5117 72.821C53.5117 76.373 55.9878 79.2662 58.9838 79.2662H60.1599V80.9857C60.1599 81.3486 60.3021 81.6966 60.5552 81.9531C60.8082 82.2097 61.1515 82.3538 61.5094 82.3538C61.8673 82.3538 62.2105 82.2097 62.4636 81.9531C62.7167 81.6966 62.8588 81.3486 62.8588 80.9857V79.2662H64.035C67.0558 79.2662 69.507 76.373 69.507 72.821C69.507 69.2689 67.031 66.3758 64.035 66.3758H62.8588V58.9641H64.0597ZM62.8836 76.5362V69.1308H64.0597C65.5887 69.1308 66.8329 70.7876 66.8329 72.8335C66.8329 74.8794 65.5949 76.5362 64.0597 76.5362H62.8836ZM60.1847 58.9641V66.3758H58.9838C57.4548 66.3758 56.2106 64.7127 56.2106 62.6731C56.2106 60.6335 57.4486 58.9641 58.9838 58.9641H60.1847Z" fill="#582689"/>
<path d="M54.3721 85.9624C54.1945 85.9772 54.0216 86.0276 53.8633 86.1105C53.705 86.1935 53.5644 86.3074 53.4498 86.4457C49.8481 90.8014 45.0659 93.9911 39.6948 95.6202C34.3238 97.2493 28.5994 97.2462 23.23 95.6115C17.8606 93.9768 13.0817 90.782 9.48452 86.4225C5.8873 82.063 3.6296 76.7299 2.99072 71.0832C2.35184 65.4364 3.35981 59.7236 5.88993 54.6515C8.42006 49.5794 12.3613 45.3706 17.2262 42.5457C22.091 39.7208 27.666 38.4038 33.2614 38.7576C38.8568 39.1113 44.2272 41.1204 48.7081 44.5362L46.4239 46.8582L55.4863 49.312L53.0536 40.1243L50.6332 42.5844C45.7663 38.791 39.9075 36.5305 33.7843 36.0837C27.6612 35.637 21.5434 37.0235 16.1909 40.0713C10.8383 43.1191 6.48667 47.6937 3.67641 53.2272C0.86615 58.7607 -0.278943 65.0092 0.383332 71.1968C1.04561 77.3843 3.48607 83.2384 7.40166 88.0319C11.3173 92.8255 16.5355 96.3473 22.4083 98.1601C28.2811 99.9729 34.5498 99.9968 40.4359 98.2289C46.322 96.4609 51.5662 92.979 55.5173 88.2154C55.7465 87.9349 55.8577 87.5742 55.8268 87.2113C55.7966 86.851 55.6276 86.5173 55.3563 86.2825C55.0822 86.0494 54.7288 85.9345 54.3721 85.9624Z" fill="#582689"/>
<path d="M32.8798 48.5966V42.9484C32.8566 42.6007 32.704 42.275 32.4529 42.0371C32.2018 41.7992 31.871 41.6668 31.5273 41.6668C31.1836 41.6668 30.8527 41.7992 30.6016 42.0371C30.3505 42.275 30.1979 42.6007 30.1747 42.9484V48.5966C30.1622 48.7844 30.1879 48.9729 30.2501 49.1503C30.3124 49.3277 30.41 49.4902 30.5368 49.6278C30.6637 49.7654 30.817 49.8751 30.9874 49.9501C31.1578 50.0251 31.3415 50.0638 31.5273 50.0638C31.713 50.0638 31.8968 50.0251 32.0671 49.9501C32.2375 49.8751 32.3909 49.7654 32.5177 49.6278C32.6445 49.4902 32.7421 49.3277 32.8044 49.1503C32.8667 48.9729 32.8924 48.7844 32.8798 48.5966Z" fill="#582689"/>
<path d="M30.1748 86.8912V92.5394C30.198 92.8871 30.3506 93.2128 30.6017 93.4507C30.8528 93.6886 31.1837 93.821 31.5274 93.821C31.871 93.821 32.2019 93.6886 32.453 93.4507C32.7041 93.2128 32.8567 92.8871 32.8799 92.5394V86.8912C32.8567 86.5436 32.7041 86.2179 32.453 85.9799C32.2019 85.742 31.871 85.6097 31.5274 85.6097C31.1837 85.6097 30.8528 85.742 30.6017 85.9799C30.3506 86.2179 30.198 86.5436 30.1748 86.8912Z" fill="#582689"/>
<path d="M13.9938 67.7439C13.9921 67.3816 13.8494 67.0345 13.5967 66.7783C13.344 66.5221 13.0017 66.3774 12.6443 66.3758H7.07317C6.73027 66.3993 6.40898 66.554 6.1743 66.8086C5.93962 67.0632 5.80908 67.3986 5.80908 67.747C5.80908 68.0955 5.93962 68.4309 6.1743 68.6855C6.40898 68.9401 6.73027 69.0948 7.07317 69.1183H12.6443C13.0028 69.1166 13.346 68.9711 13.5989 68.7135C13.8518 68.456 13.9938 68.1073 13.9938 67.7439Z" fill="#582689"/>
<path d="M45.3221 46.1114C45.2786 45.9368 45.2015 45.7726 45.0953 45.6283C44.9891 45.484 44.8558 45.3624 44.7031 45.2704C44.5503 45.1768 44.3807 45.1151 44.2041 45.0887C44.0275 45.0624 43.8474 45.072 43.6746 45.117C43.5017 45.162 43.3393 45.2414 43.1971 45.3508C43.0548 45.4601 42.9355 45.597 42.846 45.7537L40.011 50.586C39.9188 50.7396 39.8581 50.9105 39.8326 51.0884C39.8071 51.2663 39.8172 51.4476 39.8624 51.6215C39.9053 51.7963 39.9821 51.9608 40.0884 52.1052C40.1947 52.2495 40.3283 52.371 40.4814 52.4624C40.6338 52.5563 40.8031 52.6184 40.9795 52.6452C41.1558 52.672 41.3357 52.663 41.5085 52.6186C41.6814 52.5742 41.8438 52.4953 41.9863 52.3866C42.1288 52.2779 42.2485 52.1416 42.3385 51.9855L45.1735 47.1469C45.2647 46.9929 45.3248 46.822 45.3503 46.6442C45.3759 46.4665 45.3663 46.2853 45.3221 46.1114Z" fill="#582689"/>
<path d="M22.5733 83.0254C22.4202 82.9326 22.2506 82.8716 22.0742 82.8457C21.8978 82.8198 21.718 82.8296 21.5454 82.8745C21.3727 82.9194 21.2105 82.9986 21.0682 83.1074C20.9259 83.2163 20.8063 83.3526 20.7162 83.5086L17.8811 88.3409C17.6981 88.653 17.6448 89.026 17.733 89.3779C17.8213 89.7298 18.0438 90.0318 18.3516 90.2174C18.6594 90.4029 19.0273 90.457 19.3744 90.3675C19.7215 90.2781 20.0194 90.0525 20.2024 89.7404L23.0375 84.9018C23.1287 84.7478 23.1888 84.5769 23.2143 84.3992C23.2398 84.2214 23.2302 84.0403 23.1861 83.8663C23.0972 83.516 22.8775 83.2144 22.5733 83.0254Z" fill="#582689"/>
<path d="M16.5998 57.6462C16.5572 57.4712 16.4805 57.3067 16.3742 57.1622C16.2679 57.0178 16.1341 56.8964 15.9808 56.8053L11.2143 53.931C10.9027 53.7448 10.5313 53.6907 10.1806 53.7803C10.0102 53.825 9.85031 53.9034 9.71005 54.0112C9.5698 54.1189 9.45201 54.2537 9.36349 54.4079C9.27131 54.5615 9.21064 54.7324 9.18512 54.9103C9.15959 55.0882 9.16973 55.2696 9.21493 55.4434C9.25781 55.6183 9.33464 55.7827 9.44092 55.9271C9.54721 56.0715 9.68082 56.1929 9.83394 56.2844L14.6065 59.1587C14.7587 59.2534 14.9281 59.3162 15.1046 59.3435C15.2811 59.3707 15.4612 59.3619 15.6343 59.3174C15.8074 59.273 15.97 59.1938 16.1124 59.0846C16.2548 58.9754 16.3742 58.8384 16.4636 58.6817C16.5537 58.5272 16.6122 58.3559 16.6356 58.178C16.659 58.0001 16.6468 57.8192 16.5998 57.6462Z" fill="#582689"/>
<path d="M10.3417 81.4941C10.5784 81.4939 10.8109 81.4312 11.0164 81.3121L15.8262 78.5068C16.1373 78.3262 16.3649 78.0277 16.4589 77.677C16.5529 77.3263 16.5057 76.952 16.3276 76.6366C16.1494 76.3212 15.855 76.0905 15.5091 75.9951C15.1631 75.8998 14.794 75.9477 14.4829 76.1283L9.66696 78.9336C9.41074 79.0856 9.21084 79.3187 9.09794 79.5971C8.98505 79.8754 8.9654 80.1837 9.04203 80.4744C9.11865 80.7652 9.28731 81.0225 9.52209 81.2067C9.75688 81.3909 10.0448 81.4918 10.3417 81.4941Z" fill="#582689"/>
<path d="M42.5304 89.9098C42.7115 90.2255 43.0086 90.4555 43.3567 90.5496C43.7047 90.6437 44.0754 90.5942 44.3875 90.4119C44.5429 90.3222 44.6791 90.202 44.7883 90.0584C44.8975 89.9149 44.9775 89.7507 45.0236 89.5755C45.0696 89.4004 45.0809 89.2176 45.0567 89.038C45.0325 88.8584 44.9734 88.6854 44.8827 88.5292L42.1157 83.6529C42.036 83.481 41.9219 83.3278 41.7806 83.2031C41.6393 83.0783 41.4739 82.9848 41.295 82.9284C41.1161 82.872 40.9276 82.854 40.7415 82.8755C40.5553 82.897 40.3756 82.9576 40.2138 83.0534C40.0521 83.1492 39.9117 83.2781 39.8018 83.4319C39.6918 83.5857 39.6146 83.761 39.5752 83.9467C39.5357 84.1323 39.5348 84.3243 39.5726 84.5104C39.6103 84.6964 39.6858 84.8725 39.7944 85.0273L42.5304 89.9098Z" fill="#582689"/>
<path d="M23.2914 50.4605L20.5244 45.5842C20.3422 45.2688 20.0439 45.0397 19.695 44.9473C19.3462 44.855 18.9754 44.9068 18.6643 45.0916C18.3532 45.2763 18.1272 45.5788 18.0361 45.9325C17.945 46.2862 17.9961 46.662 18.1784 46.9775L20.9454 51.8537C21.0659 52.0615 21.2377 52.2339 21.444 52.3539C21.6502 52.4738 21.8837 52.5372 22.1215 52.5378C22.3578 52.5361 22.5895 52.4719 22.7937 52.3515C22.998 52.231 23.1676 52.0586 23.2858 51.8512C23.4041 51.6438 23.4668 51.4087 23.4678 51.1692C23.4687 50.9296 23.408 50.694 23.2914 50.4856V50.4605Z" fill="#582689"/>
<path d="M40.9271 58.2173C40.6741 57.9613 40.3313 57.8175 39.9738 57.8175C39.6164 57.8175 39.2735 57.9613 39.0205 58.2173L34.2232 63.0935C33.4096 62.6159 32.4861 62.3643 31.5459 62.3643C30.6058 62.3643 29.6822 62.6159 28.8687 63.0935L26.0522 60.2381C25.7985 59.9817 25.4548 59.8381 25.0967 59.8387C24.7386 59.8393 24.3953 59.9841 24.1425 60.2412C23.8897 60.4984 23.748 60.8468 23.7485 61.2099C23.7491 61.573 23.8919 61.921 24.1456 62.1773L26.9621 65.0327C26.4815 65.8533 26.2271 66.7896 26.2255 67.7439C26.2196 68.5758 26.4036 69.3979 26.7629 70.1459C27.1223 70.8938 27.6473 71.5474 28.2971 72.0556C28.9468 72.5639 29.7037 72.9129 30.5085 73.0755C31.3133 73.2381 32.1443 73.2098 32.9365 72.993C33.7288 72.7761 34.4609 72.3765 35.0756 71.8253C35.6903 71.2741 36.171 70.5863 36.4802 69.8157C36.7893 69.045 36.9186 68.2123 36.8578 67.3826C36.797 66.5529 36.5478 65.7487 36.1297 65.0327L40.9271 60.1565C41.18 59.8989 41.3219 59.5503 41.3219 59.1869C41.3219 58.8235 41.18 58.4748 40.9271 58.2173ZM34.1179 67.7439C34.1179 68.2692 33.9642 68.7827 33.6762 69.2194C33.3882 69.6561 32.9789 69.9963 32.5001 70.197C32.0213 70.3978 31.4945 70.45 30.9864 70.347C30.4783 70.2441 30.0117 69.9906 29.6458 69.6188C29.2798 69.2469 29.0309 68.7733 28.9306 68.2579C28.8303 67.7425 28.883 67.2086 29.0822 66.7236C29.2813 66.2387 29.6179 65.8245 30.0493 65.5336C30.4807 65.2426 30.9875 65.088 31.5057 65.0892C31.8511 65.0867 32.1936 65.1536 32.5134 65.2859C32.8332 65.4182 33.1241 65.6133 33.3692 65.8601C33.6143 66.1068 33.8089 66.4003 33.9416 66.7236C34.0744 67.0469 34.1427 67.3937 34.1427 67.7439H34.1179Z" fill="#582689"/>
<path d="M100.241 0.536865H80.5193V17.7073H63.583V46.5758H66.3686V20.5314H80.5193V76.0907H76.8052V78.9147H117.171V36.5973H100.241V0.536865ZM97.4555 76.0907H83.3048V3.36095H97.4555V76.0907ZM114.392 39.4465V76.1158H100.241V39.4465H114.392Z" fill="#582689"/>
</g>
<defs>
<clipPath id="clip0_2589_24005">
<rect width="117" height="99" fill="white" transform="translate(0.177246 0.536865)"/>
</clipPath>
</defs>
</svg>
