<svg width="112" height="80" viewBox="0 0 112 80" fill="none" xmlns="http://www.w3.org/2000/svg">
<g clip-path="url(#clip0_2590_24069)">
<path d="M106.705 0.658691H5.02299C3.78781 0.660338 2.60369 1.14861 1.73028 2.01646C0.856873 2.8843 0.365464 4.06087 0.363807 5.28818V75.0292C0.361335 75.639 0.479979 76.2433 0.712941 76.8075C0.945903 77.3717 1.2886 77.8847 1.72141 78.317C2.15422 78.7494 2.66863 79.0926 3.23518 79.3271C3.80172 79.5616 4.40926 79.6828 5.02299 79.6836H106.705C107.94 79.6819 109.124 79.1937 109.997 78.3258C110.871 77.458 111.362 76.2814 111.364 75.0541V5.28818C111.362 4.06087 110.871 2.8843 109.997 2.01646C109.124 1.14861 107.94 0.660338 106.705 0.658691V0.658691ZM108.821 75.0292C108.82 75.5865 108.596 76.1205 108.2 76.5146C107.803 76.9086 107.265 77.1307 106.705 77.1324H5.02299C4.46212 77.1307 3.9247 76.9086 3.5281 76.5146C3.13151 76.1205 2.90797 75.5865 2.90632 75.0292V5.28818C2.90797 4.73089 3.13151 4.19689 3.5281 3.80282C3.9247 3.40875 4.46212 3.18664 5.02299 3.185H106.705C107.265 3.18664 107.803 3.40875 108.2 3.80282C108.596 4.19689 108.82 4.73089 108.821 5.28818V75.0292Z" fill="#582689"/>
<path d="M108.734 13.9933H0.520264V16.5197H108.734V13.9933Z" fill="#582689"/>
<path d="M35.6582 68.9935H9.42529V71.5198H35.6582V68.9935Z" fill="#582689"/>
<path d="M25.1187 61.5638H9.42529V64.0902H25.1187V61.5638Z" fill="#582689"/>
<path d="M8.66135 7.42871H6.29419V9.95502H8.66135V7.42871Z" fill="#582689"/>
<path d="M14.2976 7.42871H11.9304V9.95502H14.2976V7.42871Z" fill="#582689"/>
<path d="M19.9336 7.42871H17.5664V9.95502H19.9336V7.42871Z" fill="#582689"/>
<path d="M35.1136 40.7934H11.229V23.9431H35.1136V40.7934ZM13.1077 38.9267H33.2349V25.8098H13.1077V38.9267Z" fill="#582689"/>
<path d="M53.9381 40.9738L45.271 32.3931L53.9381 23.7626L62.5989 32.3931L53.9381 40.9738ZM47.9575 32.3931L53.9631 38.3604L59.9437 32.3931L53.9381 26.4258L47.9575 32.3931Z" fill="#582689"/>
<path d="M97.2548 40.7934H80.2964V23.9431H97.2548V40.7934ZM82.1751 38.9267H95.3761V25.8098H82.1751V38.9267Z" fill="#582689"/>
<path d="M62.6177 68.1223H45.2522V50.8737H62.6177V68.1223ZM47.1309 66.2556H60.739V52.7404H47.1309V66.2556Z" fill="#582689"/>
<path d="M88.9821 68.1223C87.2654 68.1223 85.5873 67.6165 84.16 66.6689C82.7326 65.7212 81.6201 64.3743 80.9632 62.7984C80.3063 61.2225 80.1344 59.4884 80.4693 57.8155C80.8042 56.1426 81.6308 54.6058 82.8447 53.3997C84.0586 52.1936 85.6051 51.3722 87.2888 51.0394C88.9725 50.7067 90.7177 50.8775 92.3036 51.5302C93.8896 52.183 95.2452 53.2884 96.1989 54.7066C97.1527 56.1249 97.6617 57.7923 97.6617 59.498C97.6584 61.7843 96.7429 63.976 95.1159 65.5927C93.4888 67.2093 91.2831 68.119 88.9821 68.1223ZM88.9821 52.7405C87.637 52.7405 86.3221 53.1368 85.2037 53.8793C84.0853 54.6218 83.2136 55.6772 82.6989 56.912C82.1841 58.1468 82.0495 59.5055 82.3119 60.8163C82.5743 62.1272 83.222 63.3313 84.1731 64.2763C85.1243 65.2214 86.3361 65.865 87.6553 66.1257C88.9746 66.3865 90.342 66.2527 91.5847 65.7412C92.8274 65.2297 93.8896 64.3636 94.6368 63.2523C95.3841 62.141 95.783 60.8345 95.783 59.498C95.7797 57.7068 95.0621 55.9899 93.7874 54.7233C92.5127 53.4568 90.7848 52.7437 88.9821 52.7405Z" fill="#582689"/>
<path d="M46.3982 31.4348H34.1741V33.3015H46.3982V31.4348Z" fill="#582689"/>
<path d="M81.2356 31.4348H61.2712V33.3015H81.2356V31.4348Z" fill="#582689"/>
<path d="M54.8775 39.6547H52.9988V51.8009H54.8775V39.6547Z" fill="#582689"/>
<path d="M81.2356 58.5646H61.4717V60.4314H81.2356V58.5646Z" fill="#582689"/>
</g>
<defs>
<clipPath id="clip0_2590_24069">
<rect width="111" height="79" fill="white" transform="translate(0.36377 0.658691)"/>
</clipPath>
</defs>
</svg>
